<?xml version="1.0" encoding="UTF-8" standalone="no"?>
<!DOCTYPE svg PUBLIC "-//W3C//DTD SVG 1.1//EN" "http://www.w3.org/Graphics/SVG/1.1/DTD/svg11.dtd">
<svg height="16" viewBox="0 0 16 16" width="16" version="1.1" xmlns="http://www.w3.org/2000/svg" xmlns:xlink="http://www.w3.org/1999/xlink" xml:space="preserve" xmlns:serif="http://www.serif.com/" style="fill-rule:evenodd;clip-rule:evenodd;stroke-linejoin:round;stroke-miterlimit:2;">
    <path d="M7,1L6.436,3.258C6.199,3.334 5.969,3.427 5.746,3.538L3.758,2.343L2.344,3.758L3.539,5.752L3.254,6.437L1,7L1,9L6.27,9C6.093,8.695 6,8.349 6,7.996C6,6.899 6.903,5.996 8,5.996C9.097,5.996 10,6.899 10,7.996C10,8.349 9.907,8.695 9.73,9L15,9L15,7L12.742,6.435C12.666,6.199 12.572,5.97 12.462,5.748L13.656,3.758L12.242,2.344L10.248,3.539C10.027,3.427 9.797,3.332 9.562,3.254L9,1L7,1Z" style="fill:rgb(224,224,224);fill-rule:nonzero;"/>
    <g transform="matrix(1.04463,0,0,1.04463,-0.637841,-0.681276)">
        <g transform="matrix(0.0264047,0,0,0.0264047,1.27202,3.31788)">
            <path d="M142.705,427.548C142.705,422.51 144.182,416.647 147.135,409.959C150.088,403.271 153.302,398.711 156.776,396.279C163.377,401.143 170.066,403.575 176.841,403.575L184.918,402.272C194.299,399.493 199.163,392.023 199.511,379.863L199.511,313.416L178.665,313.416C175.711,313.416 173.627,309.681 172.411,302.211C171.89,298.563 171.629,294.828 171.629,291.006C171.629,287.184 171.89,283.449 172.411,279.801C173.627,272.332 175.711,268.597 178.665,268.597L240.682,268.597C244.156,268.597 246.762,269.596 248.499,271.593C250.236,273.591 251.105,275.98 251.105,278.759L251.105,401.751C251.105,418.775 245.416,431.717 234.037,440.577C222.659,449.437 209.022,453.866 193.127,453.866C177.231,453.866 164.854,451.521 155.994,446.831C147.135,442.14 142.705,435.713 142.705,427.548Z" style="fill:rgb(224,224,224);fill-rule:nonzero;"/>
            <path d="M280.55,387.419C283.851,390.025 289.54,393.586 297.618,398.103C305.696,402.62 313.426,404.878 320.809,404.878C328.192,404.878 331.883,402.012 331.883,396.279C331.883,393.673 330.841,391.371 328.757,389.374C326.672,387.376 322.85,385.074 317.291,382.468C311.732,379.863 307.563,377.822 304.784,376.345C302.004,374.868 298.313,372.436 293.709,369.049C289.106,365.661 285.588,362.144 283.156,358.495C276.207,348.594 272.733,335.999 272.733,320.712C272.733,305.425 278.422,292.526 289.8,282.016C301.179,271.506 316.075,266.251 334.489,266.251C346.997,266.251 358.549,267.598 369.146,270.29C379.743,272.983 385.215,276.501 385.562,280.844L385.562,282.407C385.562,288.487 383.651,296.174 379.829,305.468C376.008,314.762 373.315,319.93 371.752,320.972C360.634,315.24 350.688,312.373 341.916,312.373C333.143,312.373 328.757,315.5 328.757,321.754C328.757,325.576 331.97,328.963 338.398,331.917C339.788,332.612 341.785,333.567 344.391,334.783C346.997,335.999 349.993,337.432 353.381,339.083C356.768,340.733 360.417,342.817 364.325,345.336C368.234,347.855 372.446,351.199 376.963,355.369C386.17,364.054 390.774,375.52 390.774,389.765C390.774,408.352 385.649,423.553 375.4,435.365C365.15,447.178 349.342,453.258 327.975,453.606C317.552,453.606 308.128,452.737 299.702,451C291.277,449.263 283.937,445.875 277.684,440.838C271.43,435.8 268.303,429.72 268.303,422.597C268.303,415.475 269.606,408.396 272.211,401.36C274.817,394.325 277.597,389.678 280.55,387.419Z" style="fill:rgb(224,224,224);fill-rule:nonzero;"/>
        </g>
    </g>
</svg>
