<?xml version="1.0" encoding="UTF-8" standalone="no"?>
<!DOCTYPE svg PUBLIC "-//W3C//DTD SVG 1.1//EN" "http://www.w3.org/Graphics/SVG/1.1/DTD/svg11.dtd">
<svg height="16" viewBox="0 0 16 16" width="16" version="1.1" xmlns="http://www.w3.org/2000/svg" xmlns:xlink="http://www.w3.org/1999/xlink" xml:space="preserve" xmlns:serif="http://www.serif.com/" style="fill-rule:evenodd;clip-rule:evenodd;stroke-linejoin:round;stroke-miterlimit:2;">
    <path d="M7,1L6.436,3.258C6.199,3.334 5.969,3.427 5.746,3.538L3.758,2.343L2.344,3.758L3.539,5.752L3.254,6.437L1,7L1,9L6.27,9C6.093,8.695 6,8.349 6,7.996C6,6.899 6.903,5.996 8,5.996C9.097,5.996 10,6.899 10,7.996C10,8.349 9.907,8.695 9.73,9L15,9L15,7L12.742,6.435C12.666,6.199 12.572,5.97 12.462,5.748L13.656,3.758L12.242,2.344L10.248,3.539C10.027,3.427 9.797,3.332 9.562,3.254L9,1L7,1Z" style="fill:rgb(224,224,224);fill-rule:nonzero;"/>
    <g transform="matrix(1,0,0,1,1.14211,14.6817)">
        <g>
            <g transform="matrix(6,0,0,6,0,0)">
                <path d="M0.241,-0.014C0.241,-0.003 0.209,0.002 0.146,0.002C0.082,0.002 0.05,-0.003 0.05,-0.013L0.05,-0.665C0.05,-0.688 0.062,-0.7 0.087,-0.7L0.278,-0.7C0.453,-0.7 0.541,-0.632 0.541,-0.495C0.541,-0.454 0.533,-0.416 0.517,-0.383C0.501,-0.349 0.478,-0.322 0.449,-0.302L0.575,-0.092C0.57,-0.076 0.552,-0.058 0.523,-0.037C0.483,-0.008 0.45,0.006 0.424,0.006C0.398,0.006 0.379,-0.003 0.366,-0.022L0.272,-0.241L0.241,-0.241L0.241,-0.014ZM0.241,-0.523L0.241,-0.373L0.246,-0.373C0.309,-0.373 0.341,-0.399 0.341,-0.452C0.341,-0.476 0.335,-0.494 0.323,-0.506C0.31,-0.517 0.29,-0.523 0.262,-0.523L0.241,-0.523Z" style="fill:rgb(224,224,224);fill-rule:nonzero;"/>
            </g>
            <g transform="matrix(6,0,0,6,3.54,0)">
                <path d="M0.377,-0.68C0.377,-0.693 0.413,-0.7 0.486,-0.7C0.558,-0.7 0.594,-0.693 0.594,-0.68L0.594,-0.221C0.594,-0.153 0.57,-0.098 0.521,-0.055C0.472,-0.012 0.405,0.01 0.32,0.01C0.234,0.01 0.164,-0.012 0.111,-0.057C0.057,-0.101 0.03,-0.161 0.03,-0.236L0.03,-0.679C0.03,-0.692 0.066,-0.699 0.139,-0.699C0.211,-0.699 0.247,-0.692 0.247,-0.679L0.247,-0.228C0.247,-0.215 0.254,-0.204 0.268,-0.196C0.283,-0.188 0.298,-0.184 0.314,-0.184C0.33,-0.184 0.345,-0.188 0.358,-0.195C0.371,-0.202 0.377,-0.213 0.377,-0.228L0.377,-0.68Z" style="fill:rgb(224,224,224);fill-rule:nonzero;"/>
            </g>
            <g transform="matrix(6,0,0,6,7.308,0)">
                <path d="M0.076,-0.244C0.089,-0.234 0.111,-0.22 0.142,-0.203C0.173,-0.186 0.202,-0.177 0.231,-0.177C0.259,-0.177 0.273,-0.188 0.273,-0.21C0.273,-0.22 0.269,-0.229 0.261,-0.237C0.253,-0.244 0.238,-0.253 0.217,-0.263C0.196,-0.273 0.18,-0.281 0.169,-0.287C0.158,-0.292 0.144,-0.302 0.127,-0.315C0.109,-0.328 0.095,-0.341 0.086,-0.355C0.059,-0.393 0.046,-0.441 0.046,-0.5C0.046,-0.559 0.068,-0.608 0.112,-0.649C0.155,-0.689 0.212,-0.709 0.283,-0.709C0.331,-0.709 0.375,-0.704 0.416,-0.694C0.457,-0.683 0.478,-0.67 0.479,-0.653L0.479,-0.647C0.479,-0.624 0.472,-0.594 0.457,-0.559C0.442,-0.523 0.432,-0.503 0.426,-0.499C0.383,-0.521 0.345,-0.532 0.312,-0.532C0.278,-0.532 0.261,-0.52 0.261,-0.496C0.261,-0.481 0.273,-0.468 0.298,-0.457C0.303,-0.454 0.343,-0.436 0.356,-0.43C0.369,-0.423 0.383,-0.415 0.398,-0.406C0.413,-0.396 0.429,-0.383 0.446,-0.367C0.481,-0.334 0.499,-0.29 0.499,-0.235C0.499,-0.164 0.479,-0.105 0.44,-0.06C0.401,-0.015 0.34,0.009 0.258,0.01C0.218,0.01 0.182,0.007 0.15,-0C0.117,-0.007 0.089,-0.02 0.065,-0.039C0.041,-0.058 0.029,-0.082 0.029,-0.109C0.029,-0.136 0.034,-0.164 0.044,-0.191C0.054,-0.218 0.065,-0.235 0.076,-0.244Z" style="fill:rgb(224,224,224);fill-rule:nonzero;"/>
            </g>
            <g transform="matrix(6,0,0,6,10.494,0)">
                <path d="M0.351,-0.016C0.351,-0.003 0.318,0.004 0.252,0.004C0.186,0.004 0.153,-0.003 0.153,-0.016L0.153,-0.518L0.033,-0.518C0.022,-0.518 0.014,-0.533 0.009,-0.564C0.007,-0.579 0.006,-0.594 0.006,-0.609C0.006,-0.624 0.007,-0.639 0.009,-0.654C0.014,-0.685 0.022,-0.7 0.033,-0.7L0.468,-0.7C0.479,-0.7 0.487,-0.685 0.492,-0.654C0.494,-0.639 0.495,-0.624 0.495,-0.609C0.495,-0.594 0.494,-0.579 0.492,-0.564C0.487,-0.533 0.479,-0.518 0.468,-0.518L0.351,-0.518L0.351,-0.016Z" style="fill:rgb(224,224,224);fill-rule:nonzero;"/>
            </g>
        </g>
    </g>
</svg>
