<?xml version="1.0" encoding="UTF-8"?>
<svg id="Logo" xmlns="http://www.w3.org/2000/svg" viewBox="0 0 1660 356">
  <g id="Graphics">
    <path id="Background" d="M1537.3762,58H122.6238C55.4524,58,1,111.7254,1,178s54.4524,120,121.6238,120H1537.3762c67.1714,0,121.6238-53.7254,121.6238-120s-54.4524-120-121.6238-120Z" fill="#478cbf" shape-rendering="geometricPrecision"/>
    <g id="Mark">
      <path d="M970.1094,347.5c-4.0879,0-7.1895-1.2598-9.2188-3.7451-4.1934-5.144-1.0781-10.9165,1.1963-15.1313,2.1318-3.9502,4.5479-8.4272,3.583-12.9863-2.0088-9.5015-23.7158-13.6021-34.1475-15.5728-1.3516-.2554-2.6191-.4951-3.7783-.7256-56.4941-11.2568-106.835-52.9038-117.979-72.0732-1.6118-2.772-3.5918-6.9463-2.1865-11.1733,.4751-1.4214,2.5425-6.0229,9.3535-6.0229,2.749,0,6.2139,.7202,10.9009,1.9033-17.4189-6.4243-32.5908-15.1763-44.8511-26.0464l-.8394-.7393c-8.5068-7.4868-26.208-23.0649-26.1426-46.2749,.0552-24.8887,17.8452-45.4668,25.4419-54.2539,21.7471-24.9756,56.146-45.2192,99.4937-58.5615,36.8652-11.3477,79.9727-17.5967,121.3809-17.5967,31.0312,0,58.7578,3.4087,80.1816,9.8574,24.4258,7.353,38.4443,17.9448,41.6641,31.4819,2.6777,11.2505-2.5771,23.8716-16.0098,38.2329,1.8564-.9814,3.6455-1.4727,5.6094-1.4727,1.9004,0,3.7617,.5439,5.3818,1.5732,6.6338,4.2046,8.4805,15.9224,5.4834,34.8237-2.6348,16.6147-8.5596,34.7021-16.2539,49.624-1.6367,3.1763-4.3057,7.8706-8.2646,13.4976,2.7939-1.7593,5.2402-2.6777,7.7695-2.6777,2.4287,0,4.7207,.9082,6.4551,2.5571,3.9131,3.7202,4.5195,10.1187,1.9639,20.7446-1.5645,6.5059-4.3193,14.5234-7.5566,21.9971-17.6309,40.6685-49.2695,69.7705-72.707,87.0229-24.9814,18.3892-52.7061,31.7368-65.9238,31.7378Zm4.0576-130.7671c-17.2803,4.1147-35.085,6.6997-52.9541,7.6406,18.6172-.5454,36.1689-3.0718,52.9541-7.6406Zm-10.5479-161.5342c-25.1279,0-74.1289,4.2334-119.9883,32.5884-.8818,.5449-1.8584,1.1396-2.9121,1.7808-11.8916,7.2407-39.7393,24.1973-38.7407,40.5908,.3604,5.8125,4.2373,10.4058,7.5742,13.7578,13.3086,13.377,41.3374,29.3203,99.3032,29.3203,1.3096,0,2.623-.0078,3.9639-.0249,29.3154-.3687,84.6182-4.8252,125.6221-30.5308,22.0996-13.8511,34.5137-24.1577,34.6367-24.2603,.0303-.0254,.0635-.0522,.0938-.0771,3.5986-2.9014,6.8389-5.6436,9.7598-8.1992-18.8145,14.1738-38.0469,25.1758-43.7295,28.3374-47.0127,26.2109-89.1475,27.7661-107.1396,28.4302-3.4336,.126-7.0664,.1899-10.7988,.1899-23.7246,.0005-49.1455-2.5-68.001-6.6895-27.1958-6.0425-40.5576-15.1421-40.8491-27.8184-.6182-27.584,64.979-57.645,114.3921-59.9521,2.4199-.1118,4.9268-.1685,7.4561-.1685,10.2881,0,20.7627,.9351,28.7383,2.5649,8.3203,1.7002,17.9365,4.6948,18.4551,12.8281,.7334,11.4409-15.6631,16.3955-62.7061,27.6367-9.3018,2.2227-20.5195,4.9033-29.2793,7.3721,3.6162,.2705,7.915,.4443,12.9199,.4443,9.4375,0,19.335-.6226,28.6221-1.8008,24.249-3.0464,53.3887-11.0391,76.0547-20.8604,25.5098-11.0527,34.3105-20.7988,33.8652-24.3462-.3281-2.5728-6.0859-8.1982-20.5957-13.0952-15.3232-5.1709-35.4658-8.0186-56.7168-8.0186Z" fill="#fff" shape-rendering="geometricPrecision"/>
      <path d="M1002.3173,15.5c60.3951,0,109.6951,13.5082,115.0347,35.9591,7.3954,31.0644-74.9778,77.2477-81.5536,80.9058-44.655,24.8962-85.2903,26.8615-103.9933,27.5522-3.3439,.1227-6.8796,.1852-10.542,.1852-41.9346,0-101.4029-8.1728-101.8515-27.6694-.4489-20.0222,56.6846-50.4153,107.7203-52.7989,2.3411-.108,4.7308-.1605,7.1277-.1605,19.6282,0,39.871,3.5152,40.2101,8.8387,.7903,12.3363-104.8518,26.6183-104.647,36.1624,.0847,3.5277,14.1592,5.8453,32.5676,5.8453,9.1579,0,19.3868-.5733,29.5026-1.8564,50.7234-6.3724,118.501-32.9713,115.9838-53.0227-1.7806-13.9594-37.6085-27.2395-84.2579-27.2423-38.2072-.0023-83.6686,8.9019-123.6701,33.6343-12.8882,7.968-46.3038,26.6572-44.9574,48.7517,.5073,8.1917,5.5904,14.2432,9.6003,18.2709,9.5873,9.6366,36.4224,31.3818,104.2654,31.3818,1.3342,0,2.6837-.0084,4.0499-.0255,23.9617-.3016,84.4024-3.483,129.2526-31.5996,22.8494-14.321,35.4059-24.8185,35.4059-24.8185,22.8292-18.4055,31.171-30.1928,36.196-30.1942,.5822-.0002,1.1189,.1579,1.6294,.4821,7.7661,4.9228,2.8391,44.1498-13.2394,75.331-3.0928,6.0028-17.7175,33.273-55.4163,56.5348-59.9334,36.9504-117.2814,35.3743-117.0961,37.5342,.0491,.5743,3.2707,1.0108,8.7543,1.0108,10.8664,0,30.621-1.7128,52.2134-7.4611,40.9475-10.8964,70.7142-31.5314,78.0803-36.7948,21.4446-15.3291,33.7856-29.7963,39.1909-29.7963,.6394,0,1.1809,.202,1.6298,.6291,3.9708,3.7747-1.6195,22.0263-7.1904,34.8879-31.0946,71.7248-112.6597,114.5429-132.2083,114.5429-1.8579,0-3.1547-.3865-3.7957-1.1718-2.9269-3.59,8.7905-12.92,6.205-25.1396-3.2585-15.4106-30.3716-19.1173-43.4061-21.7149-64.4018-12.8325-117.8278-65.3395-114.8912-74.1733,.2875-.8601,1.1996-1.2308,2.7112-1.2308,8.7991,0,37.9504,12.547,82.9693,14.1411,3.7306,.1314,8.2915,.2753,13.5477,.2753,22.7585,0,58.6225-2.6931,97.2849-20.7449,41.6401-19.4481,68.8605-48.4208,68.08-49.8899-.0361-.0671-.1128-.0997-.2274-.0998-2.3284-.0013-20.4724,13.42-39.6273,23.9162-39.8023,21.811-87.8073,33.1063-132.9202,33.1063-46.6475,0-90.2028-12.0745-118.414-37.0855-7.4051-6.5475-24.6837-20.9561-24.6251-41.7565,.0489-22.036,16.2932-41.0852,23.7373-49.6953,45.4679-52.2173,139.3584-73.7365,215.5798-73.7365m0-14c-42.0877,0-85.9266,6.3593-123.441,17.9062-21.1575,6.5123-40.3132,14.6286-56.9352,24.1233-18.4402,10.5332-33.8367,22.8181-45.7619,36.5134-8.1373,9.4118-27.1179,31.3654-27.179,58.8579-.0742,26.3778,19.9625,44.0115,28.5184,51.5414l.8332,.7343c7.5018,6.6508,16.0227,12.5414,25.431,17.6309-1.3269,1.5828-2.2656,3.3379-2.8394,5.0546-2.571,7.7342,1.4489,14.6492,2.77,16.9215,6.5536,11.2733,23.5854,27.2958,43.3903,40.8192,17.741,12.114,45.8953,27.9504,79.2729,34.6012,1.1796,.2351,2.4708,.4792,3.8471,.7392,6.5726,1.2416,14.7526,2.7868,21.2817,5.4299,5.6814,2.2999,7.2357,4.3322,7.3159,4.7119,.4332,2.0476-1.3347,5.3238-2.8948,8.2144-1.116,2.0682-2.2701,4.2068-3.0672,6.6009-2.791,8.3835,.8909,14.1741,2.6034,16.2746,2.3583,2.8891,6.8085,6.3252,14.6465,6.3252,14.7832,0,43.5986-13.6112,70.0739-33.0999,24.1315-17.7634,56.7281-47.7752,74.9794-89.8744,3.3921-7.8315,6.2855-16.2665,7.9402-23.1463,2.1604-8.9821,3.6638-20.2202-3.9489-27.457-1.585-1.5078-3.4341-2.6628-5.4414-3.4224,.3217-.5954,.6163-1.1551,.8844-1.6754,8.0203-15.5537,14.1968-34.4107,16.9435-51.7317,3.5735-22.5345,.8236-35.8282-8.6538-41.8358-.2256-.1433-.4542-.2811-.6854-.4132,8.3823-12.0067,11.2646-23.1497,8.7703-33.6271-3.8376-16.1362-19.4678-28.4384-46.4554-36.5621-22.0693-6.6432-50.493-10.1547-82.1985-10.1547h0Zm-80.5779,64.4422c16.8133-2.9962,31.4501-3.7437,41.8645-3.7437,18.3817,.0011,36.2222,2.2468,50.2493,6.3234,10.6659,3.0998,16.4321,6.4785,18.99,8.5206-3.2834,3.6058-12.91,11.0169-34.3262,19.5949-5.8441,2.3408-12.0099,4.5443-18.3261,6.5654,7.2026-5.2568,8.5354-11.3344,8.2502-15.7856-.9244-14.5134-18.3226-18.0688-24.0399-19.2372-8.4168-1.7201-19.4031-2.7066-30.1415-2.7066-2.6352,0-5.2504,.059-7.7729,.1753-1.571,.0734-3.1552,.1714-4.7473,.2934h0Z" fill="#478cbf" shape-rendering="geometricPrecision"/>
    </g>
  </g>
  <g id="Text">
    <path id="Jolt" d="M1149.5556,235.7674c0-4.2713,1.2543-9.2398,3.7728-14.9152,2.5185-5.6656,5.2543-9.5344,8.2272-11.5964,5.6198,4.124,11.3284,6.186,17.1062,6.186l6.8938-1.0997c8-2.3566,12.1383-8.6899,12.4444-19v-56.3421h-17.7778c-2.5284,0-4.3062-3.1716-5.3333-9.5049-.4444-3.093-.6716-6.2548-.6716-9.4951s.2272-6.4119,.6716-9.5049c1.0272-6.3333,2.8049-9.4951,5.3333-9.4951h52.8889c2.963,0,5.1852,.8444,6.6667,2.5333,1.4815,1.6987,2.2222,3.7214,2.2222,6.078v104.2889c0,14.4341-4.8593,25.4021-14.558,32.9137-9.7086,7.5116-21.3333,11.2724-34.8938,11.2724-13.5506,0-24.1086-1.9933-31.6642-5.97-7.5556-3.9767-11.3284-9.4264-11.3284-16.3488Zm176.9668,20.4458c-20.5859,0-37.3535-6.7383-50.3223-20.2148-12.959-13.4766-19.4434-33.1445-19.4434-58.9941s6.5527-45.4492,19.668-58.7793c13.1055-13.3301,30.0293-20,50.7617-20s37.4609,6.5625,50.2051,19.668c12.7441,13.1152,19.1211,32.959,19.1211,59.5508s-6.5234,46.3574-19.5605,59.3262c-13.0371,12.959-29.8535,19.4434-50.4297,19.4434Zm.1074-115.8008c-7.0312,0-12.9297,3.2227-17.6855,9.668-4.7656,6.4551-7.1387,15.498-7.1387,27.1387,0,11.6504,2.2656,20.5859,6.8066,26.8066,4.541,6.2305,10.5078,9.3457,17.9102,9.3457,7.3926,0,13.4082-3.1543,18.0176-9.4531,4.6191-6.2988,6.9238-15.3027,6.9238-27.0312,0-11.709-2.3828-20.7227-7.1387-27.0215-4.7656-6.2988-10.6641-9.4531-17.6953-9.4531Zm85.3702,101.6171V105.229c0-3.0789,7.4967-4.6135,22.5-4.6135,14.9934,0,22.5,1.5346,22.5,4.6135v107.771h34.1342c2.6598,0,4.502,3.4405,5.5363,10.3314,.4433,3.3721,.6699,6.8224,.6699,10.3412s-.2266,7.1059-.6699,10.7712c-1.1821,7.0375-3.1031,10.5562-5.7629,10.5562h-68.2684c-3.2509,0-5.8417-1.3195-7.7528-3.9586-1.9308-2.6391-2.8864-5.6397-2.8864-9.0119Zm156,9.3001c0,2.9304-7.3383,4.3956-22.0049,4.3956s-21.9951-1.4652-21.9951-4.3956v-110.3297h-26.6667c-2.5284,0-4.3062-3.37-5.3333-10.1099-.4444-3.2234-.6716-6.5153-.6716-9.895,0-3.37,.2272-6.6618,.6716-9.8852,1.0272-6.7399,2.8049-10.1099,5.3333-10.1099h96.6617c2.5185,0,4.2963,3.37,5.3333,10.1099,.4444,3.2234,.6716,6.5153,.6716,9.8852,0,3.3797-.2272,6.6716-.6716,9.895-1.037,6.7399-2.8148,10.1099-5.3333,10.1099h-25.9951v110.3297Z" fill="#fff" shape-rendering="geometricPrecision"/>
    <path id="Godot" d="M701,251.3065c0,2.9114-7.3235,4.3884-21.9961,4.3884-14.6588,0-22.0039-1.4771-22.0039-4.3884v-110.3065h-26.6586c-2.5212,0-4.3004-3.3609-5.3337-10.1158-.4448-3.2149-.6574-6.5058-.6574-9.8803,0-3.3551,.2126-6.6595,.6574-9.8803,1.0333-6.7374,2.8125-10.1236,5.3337-10.1236h96.6599c2.5173,0,4.2886,3.3862,5.3376,10.1236,.435,3.2208,.6593,6.5253,.6593,9.8803,0,3.3745-.2244,6.6654-.6593,9.8803-1.049,6.7549-2.8204,10.1158-5.3376,10.1158h-26.0013v110.3065Zm-152.3749-110.2951c-7.0578,0-12.9842,3.2416-17.7714,9.7054-4.7677,6.4696-7.1555,15.5497-7.1555,27.2345,0,11.7102,2.2842,20.675,6.8369,26.9219,4.5528,6.2664,10.5475,9.3869,17.9766,9.3869s13.4629-3.1596,18.0899-9.5002c4.6348-6.3172,6.9561-15.3602,6.9561-27.1329,0-11.7629-2.3936-20.8176-7.1731-27.1407-4.7814-6.3152-10.6941-9.4748-17.7597-9.4748m-.1133,116.2478c-20.6672,0-37.5027-6.7608-50.5122-20.2803-13.0193-13.5313-19.5261-33.2762-19.5261-59.2328,0-25.9722,6.579-45.637,19.7352-59.0276,13.1717-13.373,30.1518-20.0654,50.9714-20.0654s37.6062,6.5712,50.4067,19.7527c12.7985,13.1561,19.192,33.1003,19.192,59.774,0,26.6932-6.5439,46.5476-19.6375,59.5767-13.0897,13.0017-29.9701,19.5026-50.6294,19.5026m-160.5117-114.2592v65.9818c0,3.0814,.2267,5.0237,.6683,5.8385,.4377,.8109,1.7644,1.2173,3.9646,1.2173,8.0973,0,14.2308-3.0248,18.424-9.0547,4.203-6.0241,6.282-16.0539,6.282-30.101s-2.1748-23.2093-6.497-27.4631c-4.3437-4.2655-11.2236-6.4188-20.6359-6.4188h-2.206Zm-42,102V112.8997c0-3.6691,.9119-6.5646,2.7533-8.7119,1.8297-2.1142,4.2108-3.1878,7.153-3.1878h36.7376c23.3141,0,41.0224,5.8807,53.111,17.6147,12.1101,11.7301,18.1642,30.2002,18.1642,55.4298,0,53.9742-23.0336,80.9555-69.087,80.9555h-37.6105c-7.4746,0-11.2216-3.3651-11.2216-10.1168m-89.9583-103.8719c-7.0558,0-12.9666,3.2416-17.7616,9.7054-4.7696,6.4696-7.1672,15.5497-7.1672,27.2345,0,11.7102,2.2783,20.675,6.8448,26.9219,4.5586,6.2664,10.5476,9.3869,17.9766,9.3869,7.4251,0,13.457-3.1596,18.0899-9.5002,4.6329-6.3172,6.9542-15.3602,6.9542-27.1329,0-11.7629-2.3975-20.8176-7.1769-27.1407-4.7736-6.3152-10.6941-9.4748-17.7597-9.4748m-.1075,116.2478c-20.6594,0-37.5065-6.7608-50.5278-20.2803-13.0037-13.5313-19.5085-33.2762-19.5085-59.2328,0-25.9722,6.579-45.637,19.7371-59.0276,13.162-13.373,30.1518-20.0654,50.9636-20.0654s37.616,6.5712,50.4008,19.7527c12.8083,13.1561,19.2017,33.1003,19.2017,59.774,0,26.6932-6.5419,46.5476-19.6375,59.5767-13.0955,13.0017-29.9603,19.5026-50.6294,19.5026m-108.4662-84.11c-11.8763-.1837-25.4681,2.292-25.4681,2.292v23.5588h13l-.1507,10.3326c0,3.8278-3.7514,5.7505-11.2331,5.7505-7.4913,0-14.1075-3.2084-19.8467-9.6077-5.7527-6.4071-8.6136-15.7725-8.6136-28.1138,0-12.3667,2.7952-21.484,8.3934-27.3674,5.5866-5.8776,12.9099-8.8261,21.9176-8.8261,3.7843,0,7.7019,.6175,11.7759,1.8778,4.076,1.2486,6.7978,2.419,8.1867,3.5152,1.3773,1.1274,2.6871,1.6609,3.9253,1.6609,1.2325,0,3.2279-1.4577,5.9884-4.4062,2.7643-2.9407,5.2408-7.3977,7.4256-13.3398,2.1751-5.9733,3.2646-10.5515,3.2646-13.799,0-3.2221-.0695-5.4438-.2106-6.6162-3.0541-3.3804-8.6909-6.0612-16.9124-8.0543-8.2061-1.9872-17.407-2.9739-27.5853-2.9739-22.3967,0-39.9098,7.132-52.557,21.396-12.6568,14.2699-18.9736,32.7936-18.9736,55.5945,0,26.7714,6.4656,47.0654,19.3967,60.8898,12.9543,13.8224,29.9614,20.7258,51.0464,20.7258,11.3393,0,21.4037-.9868,30.197-2.9739,8.803-1.9794,14.6542-4.0115,17.5654-6.0671l.8832-69.4127c0-4.0115-10.5866-5.8326-22.4629-6.0358" fill="#fff" shape-rendering="geometricPrecision"/>
  </g>
</svg>
