<svg clip-rule="evenodd" fill-rule="evenodd" stroke-linejoin="round" stroke-miterlimit="2" viewBox="0 0 16 16" xmlns="http://www.w3.org/2000/svg"><path d="m0 0h16v16h-16z" fill="none"/><g fill="#8eef97"><path d="m3 1c-1.097 0-2 .903-2 2v10c0 1.097.903 2 2 2h10c1.097 0 2-.903 2-2v-10c0-1.097-.903-2-2-2zm0 2h10v10h-10z" fill-rule="nonzero"/><path d="m4.996 2.199h.973v8.794h-.973z"/><path d="m4.996 10.021h5.632v.973h-5.632z"/><path d="m4.996 6.054h5.632v.973h-5.632z"/><path d="m9.014 9.007h3.002v3h-3.002z"/><path d="m9.014 5h3.002v3h-3.002z"/></g></svg>