<svg clip-rule="evenodd" fill-rule="evenodd" stroke-linejoin="round" stroke-miterlimit="2" viewBox="0 0 16 16" xmlns="http://www.w3.org/2000/svg"><path d="m0 0h16v16h-16z" fill="none"/><g fill="#e0e0e0"><path d="m15.648 7.348-4.798-2.848-.85 1.184 3.832 2.273-3.793 2.376.875 1.167 4.75-2.975c.211-.132.336-.351.336-.584v-.009c-.003-.236-.135-.455-.352-.584" fill-rule="nonzero"/><path d="m.352 7.348 4.798-2.848.85 1.184-3.832 2.273 3.793 2.376-.875 1.167-4.75-2.975c-.211-.132-.336-.351-.336-.584v-.009c.003-.236.135-.455.352-.584" fill-rule="nonzero"/><path d="m9.597 3.26-1.717 9.74-1.477-.26 1.717-9.74z"/></g></svg>