<svg enable-background="new 0 0 16 16" viewBox="0 0 16 16" xmlns="http://www.w3.org/2000/svg"><g fill="#8da5f3"><path d="m3.75 9c-.56 0-1.02.46-1.02 1.02 0 .57.46 1.03 1.02 1.03.58 0 1.03-.45 1.03-1.03 0-.56-.47-1.02-1.03-1.02z"/><path d="m8.34 3.61c0-2.09-1.78-3.61-4.24-3.61-2.23 0-3.82 1.23-4.07 3.14l-.03.27h2.14l.04-.2c.17-.86.97-1.44 1.99-1.44 1.21 0 2.06.76 2.06 1.84 0 1.03-1.46 2.16-2.8 2.16h-1.67l1.28 2.57h1.69l.06-1.21.01-.16.16-.02c2.09-.28 3.38-1.56 3.38-3.34z"/><path d="m16 12.5c-1.99-.77-4.45-2.1-5.98-3.5l.9 2.62h-10.92v1.75h10.92l-.9 2.63c1.53-1.4 3.99-2.72 5.98-3.5z"/><path d="m16 5.34c0 2.59-1.99 3.51-3.16 2.73l-1.11-.82c-.67-.48-1.23.33-1.23 1.09h-1.5c0-2.57 2.01-3.44 3.16-2.67l1.11.82c.69.48 1.23-.38 1.23-1.15z"/></g></svg>