<svg enable-background="new 0 0 16 16" viewBox="0 0 16 16" xmlns="http://www.w3.org/2000/svg"><g fill="#fc7f7f"><path d="m2.4 9c.42-1.33 1.14-2.98 1.9-4l-1.35.57v-2.04c0-.45.36-.83.79-.83h8.49c.43 0 .79.38.79.83v2.47h1.14v-2.47c0-1.12-.87-2.03-1.93-2.03h-8.49c-1.06 0-1.93.91-1.93 2.03v2.03l-1.31-.56c.76 1.02 1.48 2.67 1.9 4z"/><path d="m13.6 7c-.42 1.33-1.14 2.98-1.9 4l1.32-.56v2.03c0 .45-.36.83-.79.83h-8.49c-.43 0-.79-.38-.79-.83v-2.47h-1.14v2.47c0 1.12.87 2.03 1.93 2.03h8.49c1.06 0 1.93-.91 1.93-2.03v-2.04l1.34.57c-.76-1.02-1.48-2.67-1.9-4z"/></g></svg>