<svg enable-background="new 0 0 16 16" viewBox="0 0 16 16" xmlns="http://www.w3.org/2000/svg"><path d="m14.22 6.97h-.22c-.02-3.3-2.7-5.97-6-5.97s-5.98 2.67-6 5.97h-.22c-.43 0-.78.35-.78.78v6.47c0 .43.35.78.78.78h4.59 3.25 4.59c.43 0 .78-.35.78-.78v-6.47c.01-.43-.34-.78-.77-.78zm-5.17 6.4h-2.1c-.29 0-.51-.25-.44-.5l.61-2.25c-.32-.23-.53-.58-.53-.97 0-.7.63-1.27 1.41-1.27s1.41.57 1.41 1.27c0 .4-.21.74-.53.97l.61 2.25c.07.25-.15.5-.44.5zm-5.75-6.4c.02-2.58 2.12-4.67 4.7-4.67s4.68 2.09 4.7 4.67z" fill="#c38ef1"/></svg>