<svg enable-background="new 0 0 16 16" viewBox="0 0 16 16" xmlns="http://www.w3.org/2000/svg"><path d="m8.5 7.01v-2.47c.69.1 1.32.41 1.99 1.09l1.26-1.17c-.76-.8-1.76-1.29-2.96-1.41v-1.55h-.29-1-.32v1.58c-1.66.29-2.9 1.35-2.9 2.79 0 2.06 1.66 2.45 3.22 2.68v1.95.7c-.86-.14-1.64-.59-2.21-1.23l-1.29 1.2c.94 1.02 2.1 1.55 3.18 1.7v1.62h.32 1 .29v-1.64c1.74-.25 3.21-1.39 3.21-3.1 0-2.22-1.86-2.53-3.5-2.74zm-2.43-1.23c0-.5.4-1.11 1.43-1.26v2.34c-.82-.15-1.43-.39-1.43-1.08zm2.43 5.45v-.73-1.8c.96.15 1.71.38 1.71 1.14 0 .79-.68 1.27-1.71 1.39z" fill="#e0e0e0"/></svg>