<svg enable-background="new 0 0 16 16" viewBox="0 0 16 16" xmlns="http://www.w3.org/2000/svg"><g fill="#ffca5f"><path d="m15 8.01c0-1.69-.6-3.23-1.59-4.44l.01-.01c-.38-.46-.82-.87-1.31-1.22l-.01.01c-.66-.48-1.4-.84-2.21-1.07v-.01c-.6-.17-1.23-.27-1.89-.27s-1.29.1-1.89.27v.01c-2.58.72-4.55 2.87-5.01 5.54v.02c-.07.38-.1.77-.1 1.17 0 3.86 3.13 6.99 7 6.99s7-3.13 7-6.99zm-7 5.48c-3.02 0-5.48-2.46-5.48-5.48 0-2.76 2.06-5.03 4.73-5.4v5.4h1.51v-5.41c2.66.37 4.73 2.64 4.73 5.4-.01 3.03-2.47 5.49-5.49 5.49z"/><path d="m7.99 15c1.69 0 3.23-.6 4.44-1.59l.01.01c.46-.38.87-.82 1.22-1.31l-.01-.01c.48-.66.84-1.4 1.07-2.21h.01c.17-.6.27-1.23.27-1.89s-.1-1.29-.27-1.89h-.01c-.72-2.57-2.87-4.55-5.55-5-.01 0-.01 0-.02 0-.37-.08-.76-.11-1.16-.11-3.86 0-6.99 3.13-6.99 7s3.13 7 6.99 7zm-5.48-7c0-3.02 2.46-5.48 5.48-5.48 2.76 0 5.03 2.06 5.4 4.73h-5.4v1.51h5.4c-.37 2.66-2.64 4.73-5.4 4.73-3.02-.01-5.48-2.47-5.48-5.49z"/><circle cx="8" cy="8" r="1.5"/></g></svg>