<svg clip-rule="evenodd" fill-rule="evenodd" stroke-linejoin="round" stroke-miterlimit="2" viewBox="0 0 16 16" xmlns="http://www.w3.org/2000/svg" xmlns:xlink="http://www.w3.org/1999/xlink"><clipPath id="a"><path clip-rule="evenodd" d="m0 0h16v16h-16z"/></clipPath><path d="m0 0h16v16h-16z" fill="none"/><g clip-path="url(#a)"><path d="m0 0h16v16h-16z" fill="none"/><g fill="#e0e0e0"><path d="m15.504 3.051v9.899c0 1.408-1.143 2.55-2.551 2.55h-9.899c-1.408 0-2.551-1.142-2.551-2.55v-9.899c0-1.408 1.143-2.551 2.551-2.551h9.899c1.408 0 2.551 1.143 2.551 2.551zm-1.001 0c0-.857-.695-1.551-1.55-1.551h-9.899c-.857 0-1.55.694-1.55 1.551v9.899c0 .855.693 1.55 1.55 1.55h9.899c.855 0 1.55-.695 1.55-1.55z"/><path d="m5.002 7.272c-.344 0-.652-.085-.924-.255s-.486-.417-.642-.741-.234-.716-.234-1.176.078-.852.234-1.176.37-.571.642-.741.58-.255.924-.255c.348 0 .657.085.927.255s.483.417.639.741.234.716.234 1.176-.078.852-.234 1.176-.369.571-.639.741-.579.255-.927.255zm0-.822c.164 0 .307-.046.429-.138s.218-.238.288-.438.105-.458.105-.774-.035-.574-.105-.774-.166-.346-.288-.438-.265-.138-.429-.138c-.16 0-.301.046-.423.138s-.218.238-.288.438-.105.458-.105.774.035.574.105.774.166.346.288.438.263.138.423.138z" fill-rule="nonzero"/><path d="m10.485 3.78h-.84v-.78h1.812v4.2h-.972z"/><path d="m4.936 9.58h-.84v-.78h1.812v4.2h-.972z"/><path d="m10.998 13.072c-.344 0-.652-.085-.924-.255s-.486-.417-.642-.741-.234-.716-.234-1.176.078-.852.234-1.176.37-.571.642-.741.58-.255.924-.255c.348 0 .657.085.927.255s.483.417.639.741.234.716.234 1.176-.078.852-.234 1.176-.369.571-.639.741-.579.255-.927.255zm0-.822c.164 0 .307-.046.429-.138s.218-.238.288-.438.105-.458.105-.774-.035-.574-.105-.774-.166-.346-.288-.438-.265-.138-.429-.138c-.16 0-.301.046-.423.138s-.218.238-.288.438-.105.458-.105.774.035.574.105.774.166.346.288.438.263.138.423.138z" fill-rule="nonzero"/></g></g></svg>