<?xml version="1.0" encoding="UTF-8" standalone="no"?>
<!-- Created with Inkscape (http://www.inkscape.org/) -->

<svg
   xmlns:dc="http://purl.org/dc/elements/1.1/"
   xmlns:cc="http://creativecommons.org/ns#"
   xmlns:rdf="http://www.w3.org/1999/02/22-rdf-syntax-ns#"
   xmlns:svg="http://www.w3.org/2000/svg"
   xmlns="http://www.w3.org/2000/svg"
   xmlns:sodipodi="http://sodipodi.sourceforge.net/DTD/sodipodi-0.dtd"
   xmlns:inkscape="http://www.inkscape.org/namespaces/inkscape"
   width="42"
   height="70"
   viewBox="0 0 42 69.999996"
   id="svg2"
   version="1.1"
   inkscape:version="0.92.1 r"
   sodipodi:docname="popup_window.svg"
   inkscape:export-filename="/home/djrm/Projects/godot/scene/resources/default_theme/full_panel_bg.png"
   inkscape:export-xdpi="90"
   inkscape:export-ydpi="90">
  <defs
     id="defs4" />
  <sodipodi:namedview
     id="base"
     pagecolor="#ffffff"
     bordercolor="#666666"
     borderopacity="1.0"
     inkscape:pageopacity="0.0"
     inkscape:pageshadow="2"
     inkscape:zoom="11.313708"
     inkscape:cx="20.162833"
     inkscape:cy="30.616931"
     inkscape:document-units="px"
     inkscape:current-layer="layer1"
     showgrid="true"
     units="px"
     inkscape:object-paths="true"
     inkscape:snap-intersection-paths="true"
     inkscape:snap-bbox="true"
     inkscape:bbox-paths="true"
     inkscape:bbox-nodes="true"
     inkscape:snap-bbox-edge-midpoints="true"
     inkscape:window-width="1600"
     inkscape:window-height="836"
     inkscape:window-x="0"
     inkscape:window-y="27"
     inkscape:window-maximized="1">
    <inkscape:grid
       type="xygrid"
       id="grid4136"
       empspacing="4" />
  </sodipodi:namedview>
  <metadata
     id="metadata7">
    <rdf:RDF>
      <cc:Work
         rdf:about="">
        <dc:format>image/svg+xml</dc:format>
        <dc:type
           rdf:resource="http://purl.org/dc/dcmitype/StillImage" />
        <dc:title />
      </cc:Work>
    </rdf:RDF>
  </metadata>
  <g
     inkscape:label="Layer 1"
     inkscape:groupmode="layer"
     id="layer1"
     transform="translate(0,-982.3623)">
    <rect
       ry="3.9999914"
       y="983.3623"
       x="5"
       height="67.999992"
       width="32"
       id="rect4144"
       style="opacity:1;fill:#000000;fill-opacity:0.19607843;stroke:none;stroke-width:3;stroke-linecap:round;stroke-linejoin:round;stroke-miterlimit:4;stroke-dasharray:none;stroke-opacity:1" />
    <rect
       style="opacity:1;fill:#000000;fill-opacity:0.19607843;stroke:none;stroke-width:3;stroke-linecap:round;stroke-linejoin:round;stroke-miterlimit:4;stroke-dasharray:none;stroke-opacity:1"
       id="rect4179"
       width="30"
       height="65.999992"
       x="6"
       y="984.3623"
       ry="2.9999914" />
    <path
       style="opacity:1;fill:#455463;fill-opacity:1;stroke:none;stroke-width:2;stroke-linecap:butt;stroke-linejoin:round;stroke-miterlimit:4;stroke-dasharray:none;stroke-dashoffset:0;stroke-opacity:1"
       d="M 9 3 A 2 2 0 0 0 7 5 L 7 65 A 2 2 0 0 0 9 67 L 33 67 A 2 2 0 0 0 35 65 L 35 5 A 2 2 0 0 0 33 3 L 9 3 z M 11 5 L 31 5 A 2 2 0 0 0 33 7 L 33 63 A 2 2 0 0 0 31 65 L 11 65 A 2 2 0 0 0 9 63 A 2 2 0 0 0 8 63.271484 L 8 6.7304688 A 2 2 0 0 0 9 7 A 2 2 0 0 0 11 5 z "
       id="rect4162"
       transform="translate(0,982.3623)" />
    <path
       style="opacity:1;fill:#394653;fill-opacity:1;stroke:none;stroke-width:2;stroke-linecap:butt;stroke-linejoin:round;stroke-miterlimit:4;stroke-dasharray:none;stroke-dashoffset:0;stroke-opacity:1"
       d="M 9 4 A 1 1 0 0 0 8 5 L 8 65 A 1 1 0 0 0 9 66 L 33 66 A 1 1 0 0 0 34 65 L 34 5 A 1 1 0 0 0 33 4 L 9 4 z "
       transform="translate(0,982.3623)"
       id="path4142" />
  </g>
</svg>
