<svg height="16" viewBox="0 0 16 16" width="16" xmlns="http://www.w3.org/2000/svg"><path d="m3.9844 1.002a1.0001 1.0001 0 0 0 -.69141.29102l-2 2a1 1 0 0 0 0 1.4141 1 1 0 0 0 1.4141 0l.29297-.29297v8.5859h8.5859l-.29297.29297a1 1 0 0 0 0 1.4141 1 1 0 0 0 1.4141 0l2-2a1.0001 1.0001 0 0 0 0-1.4141l-2-2a1 1 0 0 0 -.7207-.29102 1 1 0 0 0 -.69336.29102 1 1 0 0 0 0 1.4141l.29297.29297h-6.5859v-6.5859l.29297.29297a1 1 0 0 0 1.4141 0 1 1 0 0 0 0-1.4141l-2-2a1.0001 1.0001 0 0 0 -.72266-.29102z" fill="#e0e0e0"/></svg>
