<svg height="16" viewBox="0 0 16 16" width="16" xmlns="http://www.w3.org/2000/svg"><path d="m3.984375 15a1 1 0 0 1 -.6914062-.291316l-2-2a1 1 0 0 1 0-1.414062 1 1 0 0 1 1.4140624 0l.2929688.292968v-8.5859371h8.585938l-.292969-.292969a1 1 0 0 1 0-1.414062 1 1 0 0 1 1.414062 0l2 2a1 1 0 0 1 0 1.414062l-2 2.0000002a1 1 0 0 1 -.720703.2910157 1 1 0 0 1 -.693359-.2910157 1 1 0 0 1 0-1.4140622l.292969-.292969h-6.585938v6.5859371l.2929688-.292968a1 1 0 0 1 1.4140624 0 1 1 0 0 1 0 1.414062l-2 2a1 1 0 0 1 -.7226562.291316z" fill="#e0e0e0"/></svg>
