<svg height="12" viewBox="0 0 16 12" width="16" xmlns="http://www.w3.org/2000/svg"><path d="m5 1a3 3 0 0 0 -3 3 3 3 0 0 0 .77734 2.0117 3 3 0 0 0 -2.7773 2.9883 3 3 0 0 0 3 3h2v-5h2v-6h-2zm6 0v5.1738a3 3 0 0 0 -1-.17383v-2h-2v8h2a3 3 0 0 0 3-3 3 3 0 0 0 3-3 3 3 0 0 0 -3-3v-2h-2zm-6 2v2a1 1 0 0 1 -1-1 1 1 0 0 1 1-1zm8 2a1 1 0 0 1 1 1 1 1 0 0 1 -1 1zm-10 3v2a1 1 0 0 1 -1-1 1 1 0 0 1 1-1zm7 0a1 1 0 0 1 1 1 1 1 0 0 1 -1 1z" fill="#ee5677"/><path d="m8 4v8h2a3 3 0 0 0 3-3 3 3 0 0 0 -3-3v-2zm-5 2a3 3 0 0 0 -3 3 3 3 0 0 0 3 3h2v-6zm0 2v2a1 1 0 0 1 -1-1 1 1 0 0 1 1-1zm7 0a1 1 0 0 1 1 1 1 1 0 0 1 -1 1z" fill="#fff" fill-opacity=".23529"/></svg>
