<svg xmlns="http://www.w3.org/2000/svg" xml:space="preserve" width="16" height="16"><circle cx="8" cy="8" r="5" fill="none" stroke="#e0e0e0" stroke-width="2"/><path fill="#e0e0e0" d="M5.78 5.719a.5.5 0 0 0-.496.353.5.5 0 0 0 .332.625l1.621.494c.043.247.196.975-.017 1.567-.311.863-.791 1.793-.791 1.793a.5.5 0 0 0 .213.674.5.5 0 0 0 .673-.213s.366-.697.686-1.494c.32.797.684 1.494.684 1.494a.5.5 0 0 0 .673.213.5.5 0 0 0 .213-.674s-.48-.93-.79-1.793c-.214-.592-.061-1.32-.018-1.567l1.62-.494a.5.5 0 0 0 .333-.625.5.5 0 0 0-.625-.332l-1.963.6A.5.5 0 0 0 8 6.4a.5.5 0 0 0-.129-.06l-1.963-.6a.5.5 0 0 0-.129-.021" overflow="visible"/><g fill="#e0e0e0"><path d="M8 5.545a.29.29 0 1 1 0-.581c.38 0 .38.581 0 .581" overflow="visible"/><path d="M8 4.463a.8.8 0 0 0-.791.79c0 .432.36.792.791.792a.8.8 0 0 0 .592-.262.8.8 0 0 0 .193-.53.8.8 0 0 0-.193-.526A.82.82 0 0 0 8 4.463" overflow="visible"/></g></svg>
