<svg height="16" viewBox="0 0 16 16" width="16" xmlns="http://www.w3.org/2000/svg"><path d="m3.6348.50977c-2.9641 2.866.53553 8.9289 2.7676 8.7949l.44141.76562-.56445.97852a3 3 0 0 0 -2.2793-1.0488 3 3 0 0 0 -3 3 3 3 0 0 0 3 3 3 3 0 0 0 2.5938-1.502l.0039062.001953 1.4023-2.4277 1.4023 2.4277.0019531-.001953a3 3 0 0 0 2.5957 1.502 3 3 0 0 0 3-3 3 3 0 0 0 -3-3 3 3 0 0 0 -2.2773 1.0527l-.56641-.98242.44141-.76562c2.2321.13397 5.7317-5.9289 2.7676-8.7949l-4.3652 7.5605-4.3652-7.5605zm.36523 11.49a1 1 0 0 1 1 1 1 1 0 0 1 -.12305.47852l-.011719.021484a1 1 0 0 1 -.86523.5 1 1 0 0 1 -1-1 1 1 0 0 1 1-1zm8 0a1 1 0 0 1 1 1 1 1 0 0 1 -1 1 1 1 0 0 1 -1-1 1 1 0 0 1 1-1z" fill="#e0e0e0"/></svg>
