<?xml version="1.0" encoding="UTF-8" standalone="no"?>
<svg
   height="18.512016"
   width="14.055721"
   version="1.1"
   id="svg8741"
   sodipodi:docname="action.svg"
   inkscape:version="1.2 (dc2aedaf03, 2022-05-15)"
   xmlns:inkscape="http://www.inkscape.org/namespaces/inkscape"
   xmlns:sodipodi="http://sodipodi.sourceforge.net/DTD/sodipodi-0.dtd"
   xmlns="http://www.w3.org/2000/svg"
   xmlns:svg="http://www.w3.org/2000/svg">
  <defs
     id="defs8745" />
  <sodipodi:namedview
     id="namedview8743"
     pagecolor="#ffffff"
     bordercolor="#000000"
     borderopacity="0.25"
     inkscape:showpageshadow="2"
     inkscape:pageopacity="0.0"
     inkscape:pagecheckerboard="0"
     inkscape:deskcolor="#d1d1d1"
     showgrid="false"
     inkscape:zoom="7.6367532"
     inkscape:cx="-17.284833"
     inkscape:cy="19.183545"
     inkscape:window-width="1920"
     inkscape:window-height="1051"
     inkscape:window-x="-9"
     inkscape:window-y="-9"
     inkscape:window-maximized="1"
     inkscape:current-layer="svg8741" />
  <path
     d="M 10.176432,3.6912688 Q 9.4137999,3.5779847 8.9573199,2.9622304 8.5018279,2.346623 8.6151119,1.5839909 q 0.113137,-0.76164287 0.727903,-1.21827047 0.615754,-0.45648072 1.3783861,-0.34319658 0.762632,0.1132841 1.218124,0.72889148 0.45648,0.61575427 0.343343,1.37739717 -0.113284,0.7626321 -0.729038,1.2191128 -0.614766,0.4566276 -1.377398,0.3433435 z M 8.3557339,18.50048 q -0.412474,-0.06127 -0.675246,-0.415727 -0.263613,-0.355592 -0.2024895,-0.767077 l 0.5938965,-3.998131 -1.1673025,-1.499791 -0.492278,1.19059 Q 6.067908,13.906466 5.2412215,14.299263 4.4143881,14.693049 3.5141916,14.369273 L 0.68012778,13.316428 q -0.3971933,-0.164141 -0.5825748,-0.549563 -0.1843923,-0.385274 -0.0202507,-0.782468 0.1463082,-0.420062 0.5218382,-0.606912 0.3753831,-0.185862 0.79544492,-0.03955 L 4.2327238,12.370146 6.3483399,6.4922013 5.1950516,6.7424632 4.9226408,8.5763411 Q 4.8584317,9.0085983 4.5028393,9.2722113 4.1483829,9.534983 3.7359088,9.473712 3.3234346,9.412442 3.0497828,9.0563693 2.7772671,8.6994546 2.8414761,8.2671975 L 3.0925819,6.5767458 Q 3.1935238,5.897202 3.6684284,5.3884589 4.1443222,4.8798627 4.8023572,4.703636 L 6.9923039,4.1443377 q 0.743073,-0.1838143 1.140791,-0.2409975 0.398708,-0.057036 0.728094,-0.00811 0.515345,0.076551 0.87859,0.3943727 0.3633911,0.3168322 0.5670941,0.7898969 l 0.629089,1.4410733 q 0.295795,0.6970267 0.885176,1.2688312 0.589381,0.5718045 1.447044,0.8892676 0.421051,0.1464552 0.62705,0.4611386 0.205852,0.3156725 0.147667,0.7073745 -0.07347,0.494573 -0.448694,0.754259 -0.376218,0.259539 -0.813966,0.08937 Q 11.753166,10.370427 10.957563,9.778099 10.159981,9.1854775 9.5990659,8.4288493 l -0.661707,1.9024227 0.845301,1.115306 q 0.2835431,0.357542 0.3859911,0.804445 0.102448,0.446903 0.03501,0.900921 l -0.6642771,4.471933 q -0.06112,0.411485 -0.416716,0.675098 -0.355445,0.262624 -0.76693,0.201501 z"
     id="path8739"
     style="fill:#ffb649;fill-opacity:1" />
</svg>
