<svg width="3.7081mm" height="4.0644mm" version="1.1" viewBox="0 0 3.7081 4.0644" xml:space="preserve" xmlns="http://www.w3.org/2000/svg"><g transform="translate(-50.555 -108.8)"><path d="m50.819 108.8c-0.14612 0-0.26458 0.11846-0.26458 0.26458v2.6458c2e-6 0.14612 0.11846 0.26458 0.26458 0.26458h0.67805s0.45401-0.0883 0.56941 0.0639c0.09519 0.12554-0.11661 0.31426-0.07601 0.46649 0.0375 0.14061 0.13551 0.29882 0.27546 0.33869 0.22566 0.0643 0.5462-0.0279 0.66527-0.23005 0.09328-0.15839-0.20024-0.39234-0.09518-0.54318 0.10161-0.14589 0.52468-0.0958 0.52468-0.0958h0.63332c0.14612 0 0.26458-0.11846 0.26458-0.26458v-0.23151s0.03149-0.33208-0.08307-0.41364c-0.14248-0.10143-0.36057 0.14287-0.5199 0.0707-0.16626-0.0753-0.30818-0.27394-0.30248-0.45635 0.0055-0.17578 0.15174-0.36445 0.31836-0.42071 0.16734-0.0565 0.35792 0.23133 0.51041 0.14223 0.0923-0.0539 0.07668-0.31139 0.07668-0.31139v-0.23151c-2e-6 -0.14612-0.11846-0.26458-0.26458-0.26458h-1.0583c-0.14612 0-0.26458-0.11846-0.26458-0.26458v-0.26459c-2e-6 -0.14612-0.11846-0.26458-0.26458-0.26458z" fill="#e0e0e0"/></g></svg>
