<svg xmlns="http://www.w3.org/2000/svg" width="16" height="16"><path fill="#e0e0e0" d="m6.4 10.4q-1.7 0-2.8-1.2-1.2-1.1-1.2-2.8 0-0.4 0.1-0.7 0-0.4 0.2-0.8 0-0.1 0.2-0.2 0.1-0.1 0.2-0.1 0.1 0 0.3 0 0.1 0 0.2 0.2l1.8 1.8 1.2-1.2-1.8-1.8q-0.1-0.1-0.1-0.2-0.1-0.2 0-0.3 0-0.2 0.1-0.3 0.1-0.1 0.2-0.2 0.4-0.1 0.7-0.1 0.4-0.1 0.7-0.1 1.7 0 2.8 1.2 1.2 1.2 1.2 2.8 0 0.4-0.1 0.7-0.1 0.4-0.2 0.7l2.7 2.6q0.5 0.5 0.5 1.2 0 0.7-0.5 1.1-0.5 0.5-1.1 0.5-0.7 0-1.2-0.5l-2.6-2.6q-0.3 0.1-0.7 0.2-0.4 0.1-0.8 0.1z"/></svg>
