<svg xmlns="http://www.w3.org/2000/svg" width="16" height="16"><g fill="#fc7f7f"><path d="M2.55 9.942c.61-.92 1.634-1.469 2.739-1.469.363 0 .72.06 1.059.175l2.301-2.302c-.067-.197-.115-.4-.143-.606-.248-1.787.996-3.44 2.777-3.702-.086-.022-.169-.053-.256-.065-.175-1.251-1.329-2.124-2.581-1.95-1.251.173-2.124 1.328-1.95 2.58.047.34.17.665.36.952l-3.301 3.3c-1.052-.699-2.472-.414-3.171.64-.7 1.052-.414 2.47.638 3.17.286.189.611.313.952.361.014.101.044.194.07.289.063-.476.222-.946.506-1.373zM12.208 9.5c-1.386 0-3.138 1.056-3.767 3.092-.027.096-.027.198 0 .296.604 2.145 2.415 3.112 3.767 3.112 1.355 0 3.161-.967 3.771-3.1.029-.098.029-.201 0-.301-.596-2.049-2.387-3.099-3.771-3.099zm0 5.419c-1.195 0-2.164-.974-2.164-2.169s.969-2.167 2.164-2.167c1.198 0 2.168.972 2.168 2.167s-.97 2.169-2.168 2.169z"/><circle cx="12.208" cy="12.75" r="1.081"/><path d="m7.478 13.157c-.077-.276-.077-.566.007-.86.771-2.493 2.959-3.797 4.723-3.797.806 0 1.688.277 2.487.794.36-.173.685-.434.922-.79.699-1.051.414-2.471-.638-3.17-.287-.19-.613-.313-.952-.361-.174-1.251-1.329-2.125-2.581-1.951-1.251.174-2.124 1.329-1.95 2.581.047.34.17.666.36.952l-3.301 3.301c-1.053-.699-2.473-.415-3.172.639-.699 1.052-.414 2.471.639 3.171.285.189.61.313.951.361.174 1.251 1.33 2.124 2.581 1.95.461-.064.87-.264 1.195-.55-.551-.585-1.007-1.332-1.271-2.27z"/></g></svg>
