<svg height="16" width="16" xmlns="http://www.w3.org/2000/svg"><path d="M14.519 2.006A6 6 0 0 0 8.599 8a6 6 0 0 0 5.92 5.994v-1.01a1 1 0 0 1-.92-.984 1 1 0 0 1 .92-.984V4.984a1 1 0 0 1-.92-.984 1 1 0 0 1 .92-.984Zm-3.432 2.996a1 1 0 0 1 .547.133 1 1 0 0 1 .367 1.365 1 1 0 0 1-1.367.365A1 1 0 0 1 10.27 5.5a1 1 0 0 1 .818-.498ZM11.111 9a1 1 0 0 1 .89.5 1 1 0 0 1-.367 1.365 1 1 0 0 1-1.365-.365 1 1 0 0 1 .365-1.365A1 1 0 0 1 11.111 9Z" fill="#e0e0e0"/><path d="M11.094 2.104a6 6 0 0 0-5.92 5.994 6 6 0 0 0 5.92 5.994v-.023a5.795 6.506 0 0 1-2.89-3.104 1 1 0 0 1-1.36-.367 1 1 0 0 1 .365-1.365 1 1 0 0 1 .475-.135 5.795 6.506 0 0 1-.076-.984 5.795 6.506 0 0 1 .082-1.027 1 1 0 0 1-.48-.124 1 1 0 0 1-.366-1.365 1 1 0 0 1 .818-.498 1 1 0 0 1 .547.133 1 1 0 0 1 .004.002 5.795 6.506 0 0 1 2.881-3.076z" fill="#e0e0e0"/><path d="M7.616 2.104a6 6 0 0 0-5.92 5.994 6 6 0 0 0 5.92 5.994v-.023a5.795 6.506 0 0 1-2.89-3.104 1 1 0 0 1-1.36-.367 1 1 0 0 1 .366-1.365 1 1 0 0 1 .474-.135 5.795 6.506 0 0 1-.076-.984 5.795 6.506 0 0 1 .082-1.027 1 1 0 0 1-.48-.124 1 1 0 0 1-.366-1.365 1 1 0 0 1 .819-.498 1 1 0 0 1 .547.133 1 1 0 0 1 .003.002 5.795 6.506 0 0 1 2.881-3.076z" fill="#e0e0e0"/></svg>
