<svg height="16" viewBox="0 0 16 16" width="16" xmlns="http://www.w3.org/2000/svg"><g fill="#fc7f7f"><path d="m7 0c-1.108 0-2 .89199-2 2h7c1.108 0 2 .89199 2 2v6c1.108 0 2-.89199 2-2v-6c0-1.108-.89199-2-2-2z" fill-opacity=".39216"/><path d="m5 2c-1.108 0-2 .89199-2 2h7c1.108 0 2 .89199 2 2v7c1.108 0 2-.89199 2-2v-7c0-1.108-.89199-2-2-2z" fill-opacity=".58824"/><path d="m3 4c-1.108 0-2 .89199-2 2v7c0 1.108.89199 2 2 2h7c1.108 0 2-.89199 2-2v-7c0-1.108-.89199-2-2-2zm0 4c.554 0 1 .446 1 1v1c0 .554-.446 1-1 1s-1-.446-1-1v-1c0-.554.446-1 1-1zm7 0c.554 0 1 .446 1 1v1c0 .554-.446 1-1 1s-1-.446-1-1v-1c0-.554.446-1 1-1zm-6 4h5a2.5 2 0 0 1 -1.25 1.7324 2.5 2 0 0 1 -2.5 0 2.5 2 0 0 1 -1.25-1.7324z"/></g></svg>
