<svg clip-rule="evenodd" fill-rule="evenodd" stroke-linecap="round" stroke-linejoin="round" stroke-miterlimit="1.5" viewBox="0 0 16 16" xmlns="http://www.w3.org/2000/svg"><g fill="#8da5f3" fill-opacity=".99" stroke-width="1.08904"><path d="m10.86822576 4.28299076h1.99947744v1.99947744h-1.99947744z"/><path d="m10.86822576 10.84273776h1.99947744v1.99947744h-1.99947744z"/><path d="m4.71256576 10.84273776h1.99947744v1.99947744h-1.99947744z"/></g><g fill="none" stroke="#8da5f3"><path d="m1.635 8.161v4.848c0 .713.579 1.293 1.292 1.293h9.857c.713 0 1.291-.58 1.291-1.293v-9.854c0-.714-.578-1.293-1.291-1.293h-5.526" stroke-width="1.07" transform="matrix(.939225 0 0 .938055 1.27996 1.07595)"/><path d="m1.339 1.364 2.539 2.539" stroke-width=".74" transform="matrix(2.04823 .655864 .655864 2.04823 -1.51683 -1.5267)"/><path d="m1.436 1.461 1.168 1.168" stroke-width="1.18" transform="matrix(1.69185 0 0 1.69185 4.50755 -.792876)"/><path d="m1.385 1.41 1.219 1.219" stroke-width="1.22" transform="matrix(1.63859 0 0 1.63859 -.688679 4.82985)"/></g></svg>
