<?xml version="1.0" encoding="UTF-8"?>
<svg width="16" height="16" version="1.1" viewBox="0 0 16 16" xmlns="http://www.w3.org/2000/svg"><path d="m12.469 8.1784-3.5-3v6zm-8.9343 0.023985 3.5 3v-2h2.1464l0.00376-2h-2.1501v-2zm9.4532 0.53338c-10.763 8.9077-10.763 8.9077 0 0zm0 7h-9.9859v-2h9.9859zm-9.9806-8.5564c10.763-8.9077 10.763-8.9077 0 0zm0-7h9.9859v2h-9.9859zm5.4684 2.8277c8.9077 10.763 8.9077 10.763 0 0zm7 0v9.9859h-2v-9.9859zm-7.8862 9.9859c-8.9077-10.763-8.9077-10.763 0 0zm-7 0v-9.9859h2v9.9859z" fill="#e0e0e0"/></svg>
