<svg xmlns="http://www.w3.org/2000/svg" xmlns:xlink="http://www.w3.org/1999/xlink" width="16" height="16" fill="none"><g fill="#FC7F7F" clip-path="url(#a)"><path d="M.5 9H3V7H.5V9ZM4 11V5C4 4.44772 4.44772 4 5 4H11C11.5523 4 12 4.44772 12 5V11C12 11.5523 11.5523 12 11 12H5C4.44772 12 4 11.5523 4 11ZM13 9V7H15.5V9H13ZM9 15.5V13H7V15.5H9ZM2.5 14.5 1.5 13.5 3 12 4 13 2.5 14.5ZM13 12 12 13 13.5 14.5 14.5 13.5 13 12ZM4 3 3 4 1.5 2.5 2.5 1.5 4 3ZM9 3H7V.5H9V3ZM13 4 12 3 13.5 1.5 14.5 2.5 13 4Z"/></g><defs><clipPath id="a"><path fill="#fff" d="M0 0H16V16H0z"/></clipPath></defs></svg>
