<svg xmlns="http://www.w3.org/2000/svg" width="16" height="16"><path fill="#e0e0e0" d="M7.506 14.87a1 1 0 01-.486-.673l-.125.25a1 1 0 01-.051.09zM7.934 1a1 1 0 00-.381.104l-6 3A1 1 0 001 4.998v6a1 1 0 00.553.895l3.033 1.517-1.48-2.963-.008-.015-.098-.05V6.62l4 2V9h1a1 1 0 01.98.803l.02-.04V8.62l4-2v3.764l-1.352.676.893 1.787 1.906-.953a1 1 0 00.553-.895v-6a1 1 0 00-.553-.894l-6-3A1 1 0 007.934 1M8 3.12 11.764 5l-1.381.691L6.619 3.81Z"/><path fill="#5fff97" d="m8 10-2 4-2-4Z"/><path fill="#ff5f5f" d="m12 14-2-4-2 4Z"/></svg>
