<svg height="16" viewBox="0 0 16 16" width="16" xmlns="http://www.w3.org/2000/svg" xmlns:xlink="http://www.w3.org/1999/xlink"><linearGradient id="a" gradientUnits="userSpaceOnUse" x1="8" x2="8" y1="1" y2="15"><stop offset="0" stop-color="#ff7a7a"/><stop offset=".5" stop-color="#e1dc7a"/><stop offset="1" stop-color="#66ff9e"/></linearGradient><path d="m11.971 1.002c-.08326.00207-.16593.014541-.24609.037109l-7 2c-.42881.12287-.7244.51487-.72461.96094v5.5508c-.16454-.033679-.33205-.050692-.5-.050781-1.3807 0-2.5 1.1193-2.5 2.5-.00000475 1.3807 1.1193 2.5 2.5 2.5 1.3456-.0013 2.4488-1.0674 2.4961-2.4121.0025906-.029226.003894-.058551.0039062-.087891v-7.2441l5-1.4277v3.1719l2-1v-3.5c-.000916-.56314-.4664-1.0145-1.0293-.99805zm-1.4707 6.998c-.277 0-.5.223-.5.5v5c0 .277.223.5.5.5s.5-.223.5-.5v-5c0-.277-.223-.5-.5-.5zm2 1c-.277 0-.5.223-.5.5v3c0 .277.223.5.5.5s.5-.223.5-.5v-3c0-.277-.223-.5-.5-.5zm-4 1c-.277 0-.5.223-.5.5v1c0 .277.223.5.5.5s.5-.223.5-.5v-1c0-.277-.223-.5-.5-.5zm6 0c-.277 0-.5.223-.5.5v1c0 .277.223.5.5.5s.5-.223.5-.5v-1c0-.277-.223-.5-.5-.5z" fill="url(#a)"/></svg>
