<svg xmlns="http://www.w3.org/2000/svg" xml:space="preserve" width="16" height="16" version="1.0" viewBox="0 0 2.4 2.4"><path fill="#e0e0e0" d="M 1.2518555 0.15 A 0.1 0.1 0 0 0 1.1701172 0.17988281 L 0.6 0.75 L 0.31787109 0.75 C 0.22487119 0.75 0.15 0.81700008 0.15 0.9 L 0.15 1.5 C 0.15 1.5424221 0.16969512 1.5805593 0.20126953 1.6078125 L 1.35 0.45527344 L 1.35 0.25605469 A 0.106 0.106 0 0 0 1.2518555 0.15 z M 1.35 1.6438477 L 0.97236328 2.0223633 L 1.1701172 2.2201172 C 1.2361171 2.2871171 1.35 2.239996 1.35 2.1459961 L 1.35 1.6438477 z"/><path fill="#e0e0e0" d="M 2.1984375 0.79306641 L 2.0660156 0.92578125 C 2.1142629 1.1320246 2.0935608 1.3239034 2.0487305 1.4882812 C 1.9692536 1.7796963 1.8105469 1.9725586 1.8105469 1.9725586 A 0.0825 0.0825 0 0 0 1.8222656 2.0879883 A 0.0825 0.0825 0 0 0 1.9394531 2.0780273 C 1.9394531 2.0780273 2.1176607 1.8586814 2.2069336 1.5313477 C 2.2638362 1.3227069 2.2834498 1.0648044 2.1984375 0.79306641 z M 1.8539062 1.1384766 L 1.6790039 1.3136719 C 1.6747238 1.3346601 1.6697313 1.3550615 1.6640625 1.3749023 C 1.6131343 1.5531513 1.5117188 1.6719727 1.5117187 1.6719727 A 0.0825 0.0825 0 0 0 1.5213867 1.7871094 A 0.0825 0.0825 0 0 0 1.6368164 1.7791992 C 1.6368164 1.7791992 1.7606941 1.6355198 1.8222656 1.4200195 C 1.8460259 1.3368593 1.8597024 1.2410136 1.8539062 1.1384766 z" color="#000" paint-order="markers stroke fill" style="-inkscape-stroke:none"/><path fill="#fc7f7f" d="M.08295 2.0529 2.0502.07965 2.31705.34725.34965 2.32035ZM-1.2804596 3.0939027 3.0879072-1.2877874Z"/></svg>
