<svg height="16" viewBox="0 0 16 16" width="16" xmlns="http://www.w3.org/2000/svg" xmlns:xlink="http://www.w3.org/1999/xlink"><linearGradient id="a" gradientUnits="userSpaceOnUse" x1="8" x2="8" y1="1" y2="15"><stop offset="0" stop-color="#ff7a7a"/><stop offset=".5" stop-color="#e1da5b"/><stop offset="1" stop-color="#66ff9e"/></linearGradient><g transform="translate(0 -1036.4)"><path d="m10.023 1044.4c-.56139-.013-1.0235.4264-1.0234.9724v5.0542c.0006911.7482.83361 1.2154 1.5.8414l4-2.5262c.66694-.3743.66694-1.3104 0-1.6847l-4-2.5261c-.14505-.082-.30893-.1269-.47656-.131z" fill="#e0e0e0"/><path d="m11.971 1.002a1.0001 1.0001 0 0 0 -.24609.037109l-7 2a1.0001 1.0001 0 0 0 -.72461.96094v5.5508a2.5 2.5 0 0 0 -.5-.050781 2.5 2.5 0 0 0 -2.5 2.5 2.5 2.5 0 0 0 2.5 2.5 2.5 2.5 0 0 0 2.4961-2.4121 1.0001 1.0001 0 0 0 .0039062-.087891v-7.2441l5-1.4277v3.1719l2-1v-3.5a1.0001 1.0001 0 0 0 -1.0293-.99805z" fill="url(#a)" transform="translate(0 1036.4)"/></g></svg>
