<svg height="16" viewBox="0 0 16 16" width="16" xmlns="http://www.w3.org/2000/svg" xmlns:xlink="http://www.w3.org/1999/xlink"><linearGradient id="a" gradientUnits="userSpaceOnUse" x1="8" x2="8" y1="1" y2="15"><stop offset="0" stop-color="#ff7a7a"/><stop offset=".5" stop-color="#e1da5b"/><stop offset="1" stop-color="#66ff9e"/></linearGradient><path d="m3 1c-1.108 0-2 .89199-2 2v10c0 1.108.89199 2 2 2h2c1.108 0 2-.89199 2-2v-10c0-1.108-.89199-2-2-2zm8 0c-1.108 0-2 .89199-2 2v10c0 1.108.89199 2 2 2h2c1.108 0 2-.89199 2-2v-10c0-1.108-.89199-2-2-2zm-8 1h2c.55401 0 1 .44599 1 1v10c0 .55401-.44599 1-1 1h-2c-.55401 0-1-.44599-1-1v-10c0-.55401.44599-1 1-1z" fill="url(#a)"/></svg>
