<svg xmlns="http://www.w3.org/2000/svg" xmlns:xlink="http://www.w3.org/1999/xlink" width="16" height="16"><defs><linearGradient xlink:href="#a" id="c" x1="8" x2="8" y1=".5" y2="15.5" gradientUnits="userSpaceOnUse"/><linearGradient xlink:href="#a" id="b" x1="8" x2="8" y1=".5" y2="15.5" gradientUnits="userSpaceOnUse"/></defs><linearGradient id="a" x2="0" y1="1" y2="15" gradientUnits="userSpaceOnUse"><stop offset="0" stop-color="#ff5f5f"/><stop offset=".5" stop-color="#e1da5b"/><stop offset="1" stop-color="#5fff97"/></linearGradient><g fill="url(#b)" stroke="url(#c)" stroke-linejoin="round" stroke-width=".9"><path d="M1.5 8C6 7 7 6 8 1.5 9 6 10 7 14.5 8 10 9 9 10 8 14.5 7 10 6 9 1.5 8Z"/><path stroke-linecap="round" d="M1 13c1.5-.5 1.5-.5 2-2 .6 1.5.6 1.5 2 2-1.5.5-1.5.5-2 2-.5-1.5-.5-1.5-2-2ZM11 3c1.5-.4 1.5-.4 2-2 .5 1.5.5 1.5 2 2-1.4.5-1.4.6-2 2-.5-1.5-.5-1.5-2-2Z"/></g></svg>
