<svg height="16" viewBox="0 0 16 16" width="16" xmlns="http://www.w3.org/2000/svg"><path d="m7 3a1 1 0 0 0 -.12695.0078125c-1.0208.043703-1.957.60248-2.4707 1.4922-.5351.9268-.5351 2.0732 0 3s1.5275 1.5 2.5977 1.5h2c.35887 0 .6858.1892.86523.5s.17943.6892 0 1-.50637.5-.86523.5h-3a1 1 0 0 0 -1 1 1 1 0 0 0 1 1h3c1.0702 0 2.0626-.5732 2.5977-1.5s.5351-2.0732 0-3-1.5275-1.5-2.5977-1.5h-2c-.35887 0-.6858-.1892-.86523-.5s-.17943-.6892 0-1 .50637-.5.86523-.5h3a1 1 0 0 0 1-1 1 1 0 0 0 -1-1h-3z" fill="#e0e0e0"/></svg>
