<svg xmlns="http://www.w3.org/2000/svg" xmlns:xlink="http://www.w3.org/1999/xlink" xml:space="preserve" fill-rule="evenodd" stroke-linejoin="round" stroke-miterlimit="2" clip-rule="evenodd" viewBox="0 0 16 16"><path fill="url(#a)" fill-rule="nonzero" d="M13,2c0,-0.549 -0.451,-1 -1,-1l-7.246,2c-0.453,0.115 -0.768,0.533 -0.754,1l0,5.55c-0.165,-0.034 -0.332,-0.051 -0.5,-0.051c-1.371,0 -2.5,1.129 -2.5,2.5c0,1.372 1.129,2.5 2.5,2.5c1.371,0 2.5,-1.128 2.5,-2.499l0,-7.244l5,-1.428l0,3.172l2,-1l0,-3.5Z"/><path fill="url(#b)" d="M12.115,7.554l0.004,1.256c0.171,0.049 0.336,0.117 0.491,0.204l0.891,-0.886c0.339,0.236 0.634,0.531 0.87,0.87l-0.885,0.891c0.086,0.155 0.155,0.32 0.203,0.491l1.256,0.004c0.073,0.407 0.073,0.824 0,1.231l-1.256,0.004c-0.048,0.171 -0.117,0.335 -0.203,0.491l0.885,0.891c-0.236,0.339 -0.531,0.634 -0.87,0.87l-0.891,-0.886c-0.155,0.087 -0.32,0.155 -0.491,0.204l-0.004,1.256c-0.407,0.073 -0.823,0.073 -1.23,-0l-0.004,-1.256c-0.171,-0.049 -0.336,-0.117 -0.491,-0.204l-0.891,0.886c-0.339,-0.236 -0.634,-0.531 -0.87,-0.87l0.885,-0.891c-0.086,-0.156 -0.155,-0.32 -0.203,-0.491l-1.256,-0.004c-0.073,-0.407 -0.073,-0.824 -0,-1.231l1.256,-0.004c0.048,-0.171 0.117,-0.336 0.203,-0.491l-0.885,-0.891c0.236,-0.339 0.531,-0.634 0.87,-0.87l0.891,0.886c0.155,-0.087 0.32,-0.155 0.491,-0.204l0.004,-1.256c0.407,-0.073 0.823,-0.073 1.23,-0Zm-0.615,2.388c0.584,-0 1.058,0.474 1.058,1.057c-0,0.584 -0.474,1.058 -1.058,1.058c-0.584,0 -1.058,-0.474 -1.058,-1.058c0,-0.583 0.474,-1.057 1.058,-1.057Z"/><defs><linearGradient id="a" x1="0" x2="1" y1="0" y2="0" gradientTransform="matrix(0 14 -14 0 0 1)" gradientUnits="userSpaceOnUse"><stop offset="0" stop-color="#ff5f5f"/><stop offset=".5" stop-color="#e1da5b"/><stop offset="1" stop-color="#5fff97"/></linearGradient><linearGradient id="b" x1="0" x2="1" y1="0" y2="0" gradientTransform="matrix(0 14 -15.7494 0 0 1)" gradientUnits="userSpaceOnUse"><stop offset="0" stop-color="#ff5f5f"/><stop offset=".5" stop-color="#e1da5b"/><stop offset="1" stop-color="#5fff97"/></linearGradient></defs></svg>