<svg xmlns="http://www.w3.org/2000/svg" xmlns:xlink="http://www.w3.org/1999/xlink" fill-rule="evenodd" stroke-linecap="round" clip-rule="evenodd" viewBox="0 0 16 16"><linearGradient id="a"><stop offset="0" stop-color="#ff5f5f"/><stop offset=".5" stop-color="#e1da5b"/><stop offset="1" stop-color="#5fff97"/></linearGradient><linearGradient xlink:href="#a" id="b" x1="0" x2="1" y1="0" y2="0" gradientTransform="matrix(0 14 -14 0 0 1)" gradientUnits="userSpaceOnUse"/><linearGradient xlink:href="#a" id="c" x1="0" x2="1" y1="0" y2="0" gradientTransform="matrix(0 14 -16.8 0 0 -.167)" gradientUnits="userSpaceOnUse"/><linearGradient xlink:href="#a" id="d" x1="0" x2="1" y1="0" y2="0" gradientTransform="matrix(0 14 -16.8 0 0 .5)" gradientUnits="userSpaceOnUse"/><linearGradient xlink:href="#a" id="e" x1="0" x2="1" y1="0" y2="0" gradientTransform="matrix(0 13 -15.6 0 0 1.5)" gradientUnits="userSpaceOnUse"/><path fill="url(#b)" fill-rule="nonzero" d="m13 2c0-.549-.451-1-1-1l-7.246 2c-.453.115-.768.533-.754 1v5.55c-.165-.034-.332-.051-.5-.051-1.371 0-2.5 1.129-2.5 2.5 0 1.372 1.129 2.5 2.5 2.5s2.5-1.128 2.5-2.499v-7.244l5-1.428v3.172l2-1z"/><g fill="none"><path stroke="url(#c)" d="m8.5 8.5h6"/><path stroke="url(#d)" d="m8.5 10.833h6"/><path stroke="url(#e)" d="m8.5 13.5h6"/></g></svg>