<svg height="16" viewBox="0 0 16 16" width="16" xmlns="http://www.w3.org/2000/svg"><g fill="#e0e0e0"><path d="m2 14c-.552262-.000055-.999945-.447738-1-1v-10c.000055-.5522619.447738-.9999448 1-1h8c.303863-.0001753.591325.1378063.78125.375l4 5c.291397.3649711.291397.8830289 0 1.248l-4 5c-.189538.237924-.477058.376652-.78125.37695h-8zm1-2h6.5195004l3.1991996-4-3.1991996-4h-6.5195004zm6.0000004-2v-4l1.9999996 2z" fill-rule="evenodd"/><path d="m3.8685125 4.9095434h4.1550816v1.1637426h-2.6154217v1.1117544h2.4594562v1.1637428h-2.4594562v1.3676976h2.7034024v1.1637432h-4.2430623z" stroke-width=".204755"/></g></svg>
