<svg height="16" viewBox="0 0 16 16" width="16" xmlns="http://www.w3.org/2000/svg"><path d="m8.2324219.67773438-7.58789065 14.61132762h14.71093775zm-1.2910157 4.76562502h2.2695313c.3451753.6237333.6845072 1.2654948 1.0195315 1.9238281.335023.6496.670835 1.3367865 1.005859 2.0644531.345175.7276004.695453 1.5033054 1.050781 2.3261714.355328.822934.731017 1.719254 1.126953 2.689454h-2.542968c-.111674-.311867-.238728-.631738-.38086-.960938-.131979-.329133-.264505-.659081-.396484-.988281h-4.1113281c-.1319787.3292-.2680243.659148-.4101563.988281-.1319786.3292-.2555135.649071-.3671875.960938h-2.4667969c.3959374-.9702.7716252-1.86652 1.1269532-2.689454.355328-.822866.702086-1.598571 1.0371094-2.3261714.3451759-.7276666.6790355-1.4148531 1.0039062-2.0644531.3350233-.6583333.6798282-1.3000948 1.0351562-1.9238281zm1.0820313 2.0390625c-.0507667.1299333-.126999.3080031-.2285156.5332031-.101522.2252-.2176307.4847635-.3496094.7792969-.1319793.2945333-.2809234.619476-.4433594.9746093-.1522833.3551338-.3082684.7273878-.4707031 1.1171878h3c-.162436-.3898-.3203736-.762054-.4726562-1.1171878-.1522834-.3551333-.299275-.680076-.4414063-.9746093-.1319793-.2945334-.2480874-.5540969-.3496094-.7792969-.1015226-.2252-.1832273-.4032698-.2441406-.5332031z" fill="#e0e0e0"/></svg>
