<svg height="16" viewBox="0 0 16 16" width="16" xmlns="http://www.w3.org/2000/svg"><path d="m13.999798 2a-1.0001 1.0001 0 0 1 1 1v10a-1.0001 1.0001 0 0 1 -1 1h-8.0000003a-1.0001 1.0001 0 0 1 -.78125-.375l-4-5a-1.0001 1.0001 0 0 1 0-1.248l4-5a-1.0001 1.0001 0 0 1 .78125-.37695h8.0000003zm-1 2h-6.5195003l-3.1992 4 3.1992 4h6.5195003zm-3.0000003 1c1.1046003 0 2.0000003.8954 2.0000003 2v4h-1v-2h-2.0000003v2h-1v-4c0-1.1046.89543-2 2-2zm0 1a-1 1 0 0 0 -1 1v1h2.0000003v-1a-1 1 0 0 0 -1.0000003-1zm-3 0v4l-2-2z" fill="#e0e0e0" fill-rule="evenodd"/></svg>
