<svg height="16" viewBox="0 0 16 16" width="16" xmlns="http://www.w3.org/2000/svg"><g fill="#e0e0e0"><path d="m13.999798 14c.552262-.000055.999945-.447738 1-1v-10c-.000055-.5522619-.447738-.9999448-1-1h-8.0000004c-.3038627-.0001753-.5913245.1378063-.78125.375l-4 5c-.29139692.3649711-.29139692.8830289 0 1.248l4 5c.189538.237924.4770584.376652.78125.37695h8.0000004zm-1-2h-6.5195004l-3.1992-4 3.1992-4h6.5195004zm-6.0000004-2v-4l-2 2z" fill-rule="evenodd"/><path d="m15.129502-36.414393h20.292969v5.683593h-12.773437v5.429688h12.011718v5.683594h-12.011718v6.679687h13.203125v5.6835938h-20.722657z" transform="matrix(.20475474 0 0 .20475474 4.790386 12.365563)"/></g></svg>
