<svg xmlns="http://www.w3.org/2000/svg" width="16" height="16"><path fill="#e0e0e0" d="m14.158 9.657c-0.06628-0.066281-0.19884-0.13256-0.26512-0.13256l-4.3082-1.4582c-0.39768-0.13256-0.86165 0-1.1931 0.3314s-0.39768 0.79537-0.19884 1.1931l1.9884 4.3745c0.19884 0.39768 0.59653 0.66281 0.99421 0.66281h0.19884c0.53025-0.06628 0.86165-0.46396 0.92793-0.99421l0.19884-1.5907 1.3256-0.39768c0.39768-0.13256 0.72909-0.46397 0.79537-0.92793 0.06628-0.39768-0.13256-0.86165-0.46397-1.0605zm-2.121 1.1268c-0.46396 0.13256-0.72909 0.46396-0.79537 0.92793l-0.13256 0.99421-1.4582-3.2478 3.1815 1.0605zm-4.0431 2.5187c-2.9164 0-5.3025-2.3861-5.3025-5.3025 0-2.9164 2.3861-5.3025 5.3025-5.3025 2.7838 0 5.1036 2.1873 5.3025 4.9711 0 0.39768 0.3314 0.66281 0.72909 0.59653 0.39768 0 0.66281-0.3314 0.59653-0.72909-0.26512-3.4466-3.1152-6.1641-6.6281-6.1641-3.6454 0-6.6281 2.9826-6.6281 6.6281 0 3.6454 2.9826 6.6281 6.6281 6.6281 0.39768 0 0.66281-0.26512 0.66281-0.66281 0-0.39768-0.26512-0.66281-0.66281-0.66281zm0-7.9537c1.2593 0 2.3198 0.86165 2.5849 2.0547 0.06628 0.3314 0.46396 0.59653 0.79537 0.46397 0.3314-0.066281 0.59653-0.46397 0.46397-0.79537-0.39768-1.8559-1.9884-3.0489-3.8443-3.0489-2.1873 0-3.9768 1.7896-3.9768 3.9768 0 2.0547 1.5907 3.778 3.6454 3.9768h0.066281c0.3314 0 0.59653-0.26512 0.66281-0.59653 0.06628-0.3314-0.26512-0.66281-0.59653-0.72909-1.3256-0.13256-2.4524-1.3256-2.4524-2.6512 0-1.4582 1.1931-2.6512 2.6512-2.6512z"/></svg>