<svg height="16" viewBox="0 0 16 16" width="16" xmlns="http://www.w3.org/2000/svg"><path d="m1.7627119 13.627119s1.3064631-5.1979735 6.5945988-6.486109c5.0847463.9491522 5.9477733 6.486108 5.9477733 6.486108" fill="none" stroke="#87b1d7" stroke-miterlimit="4.9" stroke-width=".5"/><path d="m2.3554991 8.5165019 6.0018116-1.3754919 2.0717113-4.6377276" fill="none" stroke="#61b3ff" stroke-width="1.5"/><g fill="#e0e0e0"><ellipse cx="1.898304" cy="13.491526" rx="1.267586" ry="1.199789"/><ellipse cx="14.237288" cy="13.491526" rx="1.267586" ry="1.199789"/><ellipse cx="8.35731" cy="7.14101" rx="1.267586" ry="1.199789"/><path d="m1.3048251 7.4400522a1.1997888 1.2675855 80.074672 0 0 -1.04190379 1.3997559 1.1997888 1.2675855 80.074672 0 0 1.45530939.9627848 1.1997888 1.2675855 80.074672 0 0 1.0419037-1.3997558 1.1997888 1.2675855 80.074672 0 0 -1.4553093-.9627849zm.074974.4171488a.80148375.84677333 80.074672 0 1 .9729986.6426896.80148375.84677333 80.074672 0 1 -.6969432.934902.80148375.84677333 80.074672 0 1 -.97299579-.6426902.80148375.84677333 80.074672 0 1 .69694319-.934902z"/><path d="m10.024463.73592688a1.231838 1.2836218 52.593897 0 0 -.2717015 1.75779042 1.231838 1.2836218 52.593897 0 0 1.7675765.1983008 1.231838 1.2836218 52.593897 0 0 .271701-1.75779042 1.231838 1.2836218 52.593897 0 0 -1.767576-.1983008zm.265925.34444622a.82289328.85748593 52.593897 0 1 1.181294.1316585.82289328.85748593 52.593897 0 1 -.182417 1.1745242.82289328.85748593 52.593897 0 1 -1.181291-.1316609.82289328.85748593 52.593897 0 1 .182417-1.1745236z"/></g></svg>
