<svg height="16" viewBox="0 0 16 16" width="16" xmlns="http://www.w3.org/2000/svg"><path d="m1.7627119 13.627119s1.2881355-6.847458 6.5762712-8.1355935c5.0847459.9491522 5.9661009 8.1355925 5.9661009 8.1355925" fill="none" stroke="#87b1d7" stroke-miterlimit="4.9" stroke-width=".5"/><path d="m2.4962504 7.6963851 10.1811806-3.7166314" fill="none" stroke="#61b2ff" stroke-width="1.5"/><g fill="#e0e0e0"><ellipse cx="1.898304" cy="13.491526" rx="1.267586" ry="1.199789"/><ellipse cx="14.237288" cy="13.491526" rx="1.267586" ry="1.199789"/><ellipse cx="8.338983" cy="5.491526" rx="1.267586" ry="1.199789"/><path d="m1.6910776 6.7273a1.2675855 1.1997888 0 0 0 -1.26757808 1.1992188 1.2675855 1.1997888 0 0 0 1.26757808 1.1992187 1.2675855 1.1997888 0 0 0 1.2675781-1.1992187 1.2675855 1.1997888 0 0 0 -1.2675781-1.1992188zm.00195.4238282a.84677333.80148375 0 0 1 .8476593.8007812.84677333.80148375 0 0 1 -.8476562.8007812.84677333.80148375 0 0 1 -.84765618-.8007812.84677333.80148375 0 0 1 .84765618-.8007812z"/><path d="m13.40948 2.2963899a1.2836218 1.231838 0 0 0 -1.283614 1.2312528 1.2836218 1.231838 0 0 0 1.283614 1.2312526 1.2836218 1.231838 0 0 0 1.283614-1.2312526 1.2836218 1.231838 0 0 0 -1.283614-1.2312528zm.002.4351497a.85748593.82289328 0 0 1 .858383.8221719.85748593.82289328 0 0 1 -.85838.8221719.85748593.82289328 0 0 1 -.858379-.8221719.85748593.82289328 0 0 1 .858379-.8221719z"/></g></svg>
