<svg height="16" viewBox="0 0 16 16" width="16" xmlns="http://www.w3.org/2000/svg"><path d="m1.7627119 13.627119s1.2881355-6.847458 6.5762712-8.1355935c5.0847459.9491522 5.9661009 8.1355925 5.9661009 8.1355925" fill="none" stroke="#84c2ff" stroke-miterlimit="4.9" stroke-width="1.7"/><ellipse cx="1.898304" cy="13.491526" fill="#e0e0e0" rx="1.267586" ry="1.199789"/><ellipse cx="14.237288" cy="13.491526" fill="#e0e0e0" rx="1.267586" ry="1.199789"/><path d="m7.6850253 4.7560401-3.776127.6607599" fill="none" stroke="#84c2ff" stroke-width=".805138"/><path d="m11.695505 2.3941651-2.999121 2.2935078" fill="none" stroke="#84c2ff" stroke-width=".730798"/><g fill="#e0e0e0"><ellipse cx="8.271187" cy="4.779661" rx="1.267586" ry="1.199789"/><path d="m2.4961199 4.3976698a1.1997888 1.2675855 80.074672 0 0 -1.0419038 1.3997559 1.1997888 1.2675855 80.074672 0 0 1.4553094.9627848 1.1997888 1.2675855 80.074672 0 0 1.0419037-1.3997558 1.1997888 1.2675855 80.074672 0 0 -1.4553093-.9627849zm.074974.4171488a.80148375.84677333 80.074672 0 1 .9729986.6426896.80148375.84677333 80.074672 0 1 -.6969432.934902.80148375.84677333 80.074672 0 1 -.9729958-.6426902.80148375.84677333 80.074672 0 1 .6969432-.934902z"/><path d="m11.838896.64428913a1.231838 1.2836218 52.593897 0 0 -.271701 1.75779027 1.231838 1.2836218 52.593897 0 0 1.767576.1983008 1.231838 1.2836218 52.593897 0 0 .271701-1.75779027 1.231838 1.2836218 52.593897 0 0 -1.767576-.1983008zm.265925.3444462a.82289328.85748593 52.593897 0 1 1.181294.13165847.82289328.85748593 52.593897 0 1 -.182417 1.1745241.82289328.85748593 52.593897 0 1 -1.181291-.1316609.82289328.85748593 52.593897 0 1 .182417-1.17452347z"/></g></svg>
