<svg height="16" viewBox="0 0 16 16" width="16" xmlns="http://www.w3.org/2000/svg"><path d="m8.2711868 4.7796612-6.3728828 8.7118648z" fill="none" stroke="#87b1d7" stroke-miterlimit="4.9" stroke-width=".5"/><ellipse cx="1.898304" cy="13.491526" fill="#e0e0e0" rx="1.267586" ry="1.199789"/><path d="m14.237288 13.491526-5.9661012-8.7118648" fill="none" stroke="#87b1d7" stroke-miterlimit="4.9" stroke-width=".5"/><path d="m5.6316733 8.3879317 2.6395135-3.6082705 2.4416832 3.5654122" fill="none" stroke="#61b2ff" stroke-width="1.5"/><g fill="#e0e0e0"><ellipse cx="14.237288" cy="13.491526" rx="1.267586" ry="1.199789"/><ellipse cx="8.271187" cy="4.779661" rx="1.267586" ry="1.199789"/><path d="m5.0847454 7.9363749a1.2675855 1.1997888 0 0 0 -1.2675781 1.1992188 1.2675855 1.1997888 0 0 0 1.2675781 1.1992183 1.2675855 1.1997888 0 0 0 1.2675781-1.1992183 1.2675855 1.1997888 0 0 0 -1.2675781-1.1992188zm.00195.4238282a.84677333.80148375 0 0 1 .8476593.8007812.84677333.80148375 0 0 1 -.8476562.8007812.84677333.80148375 0 0 1 -.8476562-.8007812.84677333.80148375 0 0 1 .8476562-.8007812z"/><path d="m11.254237 7.9043407a1.2836218 1.231838 0 0 0 -1.2836135 1.2312528 1.2836218 1.231838 0 0 0 1.2836135 1.2312525 1.2836218 1.231838 0 0 0 1.283614-1.2312525 1.2836218 1.231838 0 0 0 -1.283614-1.2312528zm.002.4351497a.85748593.82289328 0 0 1 .858383.8221719.85748593.82289328 0 0 1 -.85838.822172.85748593.82289328 0 0 1 -.858379-.822172.85748593.82289328 0 0 1 .858379-.8221719z"/></g></svg>
