<svg height="16" viewBox="0 0 16 16" width="16" xmlns="http://www.w3.org/2000/svg"><path d="m1.7627119 13.627119s1.2881355-6.847458 6.5762712-8.1355935c5.0847459.9491522 5.9661009 8.1355925 5.9661009 8.1355925" fill="none" stroke="#5fb2ff" stroke-miterlimit="4.9" stroke-width="1.7"/><ellipse cx="1.898304" cy="13.491526" fill="#e0e0e0" rx="1.267586" ry="1.199789"/><ellipse cx="14.237288" cy="13.491526" fill="#e0e0e0" rx="1.267586" ry="1.199789"/><path d="m7.4559186 5.1473018-4.7355323 1.5541798" fill="none" stroke="#5fb2ff" stroke-width=".618"/><path d="m10.790357 4.2063094-2.5009748.9433136" fill="none" stroke="#5fb2ff" stroke-width=".614897"/><g fill="#e0e0e0"><ellipse cx="8.271187" cy="4.779661" rx="1.267586" ry="1.199789"/><path d="m1.7157324 5.8754878a1.2675855 1.1997888 0 0 0 -1.26757806 1.1992188 1.2675855 1.1997888 0 0 0 1.26757806 1.1992187 1.2675855 1.1997888 0 0 0 1.2675781-1.1992187 1.2675855 1.1997888 0 0 0 -1.2675781-1.1992188zm.00195.4238282a.84677333.80148375 0 0 1 .8476593.8007812.84677333.80148375 0 0 1 -.8476562.8007812.84677333.80148375 0 0 1 -.84765616-.8007812.84677333.80148375 0 0 1 .84765616-.8007812z"/><path d="m11.909414 2.4642073a1.2836218 1.231838 0 0 0 -1.283614 1.2312528 1.2836218 1.231838 0 0 0 1.283614 1.2312527 1.2836218 1.231838 0 0 0 1.283614-1.2312527 1.2836218 1.231838 0 0 0 -1.283614-1.2312528zm.002.4351497a.85748593.82289328 0 0 1 .858383.8221719.85748593.82289328 0 0 1 -.85838.822172.85748593.82289328 0 0 1 -.858379-.822172.85748593.82289328 0 0 1 .858379-.8221719z"/></g></svg>
