<svg height="16" viewBox="0 0 16 16" width="16" xmlns="http://www.w3.org/2000/svg"><path d="m1.7627119 13.627119s1.2881355-6.847458 6.5762712-8.1355935c5.0847459.9491522 5.9661009 8.1355925 5.9661009 8.1355925" fill="none" stroke="#87b1d7" stroke-miterlimit="4.9" stroke-width=".5"/><ellipse cx="1.898304" cy="13.491526" fill="#e0e0e0" rx="1.267586" ry="1.199789"/><ellipse cx="14.237288" cy="13.491526" fill="#e0e0e0" rx="1.267586" ry="1.199789"/><path d="m8.3389831 5.4915255-5.8519685.0395137" fill="none" stroke="#5fb2ff" stroke-width="1.5"/><path d="m13.814033 5.4419288-5.4750499.0156984" fill="none" stroke="#5fb2ff" stroke-width="1.5"/><g fill="#e0e0e0"><ellipse cx="8.40678" cy="5.593221" rx="1.267586" ry="1.199789"/><path d="m1.6400247 4.2441355a1.2675855 1.1997888 0 0 0 -1.26757814 1.1992188 1.2675855 1.1997888 0 0 0 1.26757814 1.1992187 1.2675855 1.1997888 0 0 0 1.2675781-1.1992187 1.2675855 1.1997888 0 0 0 -1.2675781-1.1992188zm.00195.4238282a.84677333.80148375 0 0 1 .8476593.8007812.84677333.80148375 0 0 1 -.8476562.8007812.84677333.80148375 0 0 1 -.84765624-.8007812.84677333.80148375 0 0 1 .84765624-.8007812z"/><path d="m14.659116 4.188616a1.2675855 1.1997888 0 0 0 -1.267578 1.1992188 1.2675855 1.1997888 0 0 0 1.267578 1.1992187 1.2675855 1.1997888 0 0 0 1.267578-1.1992187 1.2675855 1.1997888 0 0 0 -1.267578-1.1992188zm.002.4238282a.84677333.80148375 0 0 1 .847659.8007812.84677333.80148375 0 0 1 -.847656.8007812.84677333.80148375 0 0 1 -.847656-.8007812.84677333.80148375 0 0 1 .847656-.8007812z"/></g></svg>
