<svg xmlns="http://www.w3.org/2000/svg" width="16" height="16" viewBox="-39.5 40.5 16 16"><g fill="#fc7f7f"><path d="M-36.023 43.793c.66-.327.929-1.126.603-1.785-.327-.66-1.126-.93-1.787-.603-.179.089-.335.217-.458.376-.683-.275-1.459.051-1.736.732s.052 1.461.733 1.736c.185.076.385.109.584.096l.704 2.629c-.658.326-.928 1.127-.601 1.785.328.658 1.126.928 1.787.603.18-.089.337-.219.459-.376.681.276 1.458-.051 1.735-.734.276-.682-.051-1.459-.733-1.735-.185-.075-.385-.108-.585-.096zM-35.668 54.729c.413.207.892.353 1.401.42v1.351h5.536v-1.352c1.871-.251 3.083-1.467 2.705-2.714-.377-1.248-2.199-2.054-4.069-1.806-.511.068-.991.214-1.406.423-1.522-.768-3.688-.568-4.84.448-1.151 1.017-.852 2.461.673 3.23zM-27.681 46.421c-.2-.013-.401.021-.585.096-.684.276-1.01 1.054-.734 1.735.277.684 1.055 1.011 1.736.734.122.157.279.287.459.376.66.325 1.459.056 1.787-.603.326-.658.057-1.459-.602-1.785l.703-2.629c.2.014.4-.02.585-.096.681-.275 1.01-1.055.733-1.736s-1.053-1.008-1.736-.732c-.123-.159-.279-.287-.458-.376-.661-.327-1.46-.058-1.787.603-.326.659-.058 1.458.603 1.785z"/><path d="m-28.026 44.342-.5-1.5c-.087-.261-.368-.404-.632-.316-.262.088-.403.371-.316.633l.207.62c-1.396-.69-3.068-.69-4.465 0l.207-.62c.087-.262-.054-.545-.316-.633-.265-.088-.545.056-.632.316l-.5 1.5c-.06.18-.013.378.121.512l1 1c.096.097.224.146.352.146s.256-.049.354-.146c.195-.195.195-.512 0-.707l-.355-.354c1.229-.708 2.774-.708 4.003 0l-.355.354c-.195.195-.195.512 0 .707.097.097.225.146.353.146s.256-.049.354-.146l1-1c.133-.134.18-.333.12-.512z"/></g></svg>
