<?xml version="1.0" encoding="utf-8"?>
<!-- Generator: Adobe Illustrator 15.0.0, SVG Export Plug-In . SVG Version: 6.00 Build 0)  -->
<!DOCTYPE svg PUBLIC "-//W3C//DTD SVG 1.1//EN" "http://www.w3.org/Graphics/SVG/1.1/DTD/svg11.dtd">
<svg version="1.1" id="レイヤー_1" xmlns="http://www.w3.org/2000/svg" xmlns:xlink="http://www.w3.org/1999/xlink" x="0px"
	 y="0px" width="1024px" height="1024px" viewBox="0 0 1024 1024" enable-background="new 0 0 1024 1024" xml:space="preserve">
<path fill="#3F3F3F" d="M0,0h1024v1024H0V0z"/>
<path fill="#B2B2B2" d="M512,536.162c7,35,11.645,66.898,14,114c2,40,4,51,2,66c-7.384,55.369,6.77,183.898,8.666,206.667
	c2,24-7.653,24.241-10.666,46.333c-2.449,17.958,79,18.439,65-9c-25-49-2-84,4-221c0.521-11.921-8.967-47.874-2-94
	c11.086-73.414,8.42-107.242,6.5-145.662c-1.245-31.973-1-56.963-9-138.963c-0.976-10.002,5.915-79.268,11.954-79.088
	c42,1.25,97.313-5.009,118.145-14.68c28.901,3.73,97.81-12.047,127.887-16.126c14.541,9.407,16.673,3.335,37.515,9.019
	c5.5,1.5,17.336-1.443,12-5c-7.409-4.937-20.75-8.25-23-12c10.75-2.5,22.365-9.578,36-13.166c9.5-2.5,18.866-11.748,15.5-12.334l0,0
	c-11.5-2-26.03,4.547-37.5,6.5c-15.724,2.678-25.238,3.24-33.334,5.167c-1.227,0.292-3.103,0.763-5.791,0.958
	c0,0-0.02,0.16-0.053,0.437c-36.818,0.994-80.322-9.724-130.31-5.569c-34.026-3.925-94.181-5.16-113.513-5.493
	c-13.911-0.239-59.293-2.583-71.75-0.5c-0.668-4.083-1.5-9.75,0.949-16.468c14.881-7.246,19.188-17.796,27.301-34.694
	c0.922,4.424,6.252,4.929,12.459-14.231c5.661-17.478,2.323-22.254-2.313-22.525c0.172-2.056,0.279-4.105,0.313-6.142
	C573.746,76.562,566,42.163,512,42.163s-61.746,34.399-60.959,82.44c0.034,2.037,0.142,4.086,0.313,6.142
	c-4.637,0.271-7.975,5.047-2.313,22.525c6.207,19.16,11.537,18.655,12.459,14.231c8.112,16.898,12.42,27.448,27.301,34.694
	c2.449,6.718,1.617,12.385,0.949,16.468c-12.457-2.083-57.839,0.261-71.75,0.5c-19.332,0.333-79.486,1.568-113.513,5.493
	c-49.987-4.155-93.491,6.563-130.31,5.569c-0.033-0.277-0.053-0.437-0.053-0.437c-2.688-0.195-4.564-0.666-5.791-0.958
	c-8.096-1.927-17.61-2.489-33.334-5.167c-11.47-1.953-26-8.5-37.5-6.5l0,0c-3.366,0.586,6,9.834,15.5,12.334
	c13.635,3.588,25.25,10.666,36,13.166c-2.25,3.75-15.591,7.063-23,12c-5.336,3.557,6.5,6.5,12,5
	c20.842-5.684,22.974,0.388,37.515-9.019c30.077,4.079,98.985,19.857,127.887,16.126c20.832,9.671,76.145,15.93,118.145,14.68
	c6.039-0.18,12.93,69.085,11.954,79.088c-8,82-7.755,106.99-9,138.963c-1.92,38.419-4.586,72.248,6.5,145.662
	c6.967,46.126-2.521,82.079-2,94c6,137,29,172,4,221c-14,27.439,67.449,26.958,65,9c-3.013-22.092-12.666-22.333-10.666-46.333
	c1.896-22.769,16.05-151.298,8.666-206.667c-2-15,0-26,2-66C500.356,603.061,505,571.162,512,536.162z"/>
</svg>
