<svg enable-background="new 0 0 1024 1024" height="1024" viewBox="0 0 1024 1024" width="1024" xmlns="http://www.w3.org/2000/svg"><path d="m0 0h1024v1024h-1024z" fill="#3f3f3f"/><path d="m926.5 217.162c-11.5-2-26.03 4.547-37.5 6.5-15.723 2.678-25.238 3.24-33.333 5.167-1.227.292-3.103.763-5.792.958 0 0-.019.16-.052.437-36.819.994-106.823-6.062-138.156-2.062-23.816 3.041-86.334-5.667-105.667-6-13.911-.239-59.292-4.583-71.75-2.5-.667-4.083-1.5-10.75.95-17.468 14.881-7.246 27.229-21.569 35.341-38.467.922 4.424 6.252 4.929 12.459-14.231 5.662-17.478 2.324-22.254-2.313-22.525.172-2.056.279-4.105.313-6.142.788-48.041-15-78.667-69-78.667s-69.787 30.626-69 78.667c.033 2.036.141 4.086.313 6.142-4.637.271-7.975 5.048-2.313 22.525 6.207 19.16 11.537 18.655 12.459 14.231 8.113 16.897 20.461 31.221 35.342 38.467 2.449 6.718 1.617 13.385.949 17.468-12.457-2.083-57.838 2.261-71.75 2.5-19.332.333-81.85 9.041-105.666 6-31.333-4-101.337 3.056-138.156 2.062-.033-.276-.053-.437-.053-.437-2.689-.195-4.564-.666-5.791-.958-8.096-1.927-17.611-2.489-33.334-5.167-11.469-1.953-26-8.5-37.5-6.5-3.367.586 6 9.834 15.5 12.334 13.635 3.588 25.25 10.666 36 13.166-2.25 3.75-15.59 7.063-23 12-5.336 3.557 6.5 6.5 12 5 20.842-5.684 22.973.389 37.514-9.019 30.078 4.078 102.537 20.514 122.154 14.186 12.457-4.018 100.332 7.083 142.332 5.833 6.039-.18 1.656 65.563 2 73.5 3 69-16.842 133.135-18.666 169.667-1.92 38.42-3.42 57.919 7.666 131.333 6.967 46.126-2.521 82.079-2 94 6 137 29 172 4 221-14 27.44 67.449 26.958 65 9-3.012-22.092-12.666-22.333-10.666-46.333 1.896-22.768 16.049-151.298 8.666-206.667-2-15 0-26 2-66 2.355-47.101 7-88 14-123 7 35 11.645 75.899 14 123 2 40 4 51 2 66-7.383 55.369 6.77 183.899 8.667 206.667 2 24-7.654 24.241-10.667 46.333-2.449 17.958 79 18.44 65-9-25-49-2-84 4-221 .522-11.921-8.966-47.874-2-94 11.086-73.414 9.586-92.913 7.667-131.333-1.824-36.532-21.667-100.667-18.667-169.667.345-7.938-4.039-73.68 2-73.5 42 1.25 129.876-9.852 142.333-5.833 19.616 6.328 92.076-10.107 122.153-14.186 14.541 9.407 16.673 3.335 37.514 9.019 5.5 1.5 17.336-1.443 12-5-7.409-4.937-20.75-8.25-23-12 10.75-2.5 22.366-9.578 36.001-13.166 9.5-2.5 18.866-11.748 15.499-12.334z" fill="#b2b2b2"/></svg>
