<svg height="16" viewBox="0 0 16 16" width="16" xmlns="http://www.w3.org/2000/svg"><path d="m10.478 1037.4a2.4664 2.4663 0 0 0 -1.7804.7205 2.4664 2.4663 0 0 0 -.31408 3.1041l-3.559 3.5608a2.4664 2.4663 0 0 0 -3.1023.3121 2.4664 2.4663 0 0 0 0 3.4876 2.4664 2.4663 0 0 0 1.397.6955 2.4664 2.4663 0 0 0 .69561 1.397 2.4664 2.4663 0 0 0 3.4877 0 2.4664 2.4663 0 0 0 .31408-3.1041l3.5609-3.5608a2.4664 2.4663 0 0 0 3.1004-.3102 2.4664 2.4663 0 0 0 0-3.4875 2.4664 2.4663 0 0 0 -1.397-.6974 2.4664 2.4663 0 0 0 -.69561-1.3971 2.4664 2.4663 0 0 0 -1.7072-.7205z" fill="#a5b7f3" transform="translate(0 -1036.4)"/></svg>
