<svg enable-background="new 0 0 1024 1024" height="1024" viewBox="0 0 1024 1024" width="1024" xmlns="http://www.w3.org/2000/svg"><path d="m0 0h1024v1024h-1024z" fill="#3f3f3f"/><path d="m788.105 552.967c17.995-57.892 31.896-124.566 30.875-198.071-3.758-270.403-249.846-251.479-295.568-244.947-359.868 51.409-219.047 452.358-220.453 496.426-4.899 153.499 83.686 170.991 161.665 215.554 2.646 1.512 7.259 1.786 13.313 1.111 7.223 25.179 11.762 59.035 9.548 75.638-3.266 24.495 209.021 24.495 209.021 0 0-62.883 12.233-124.363 33.827-188.89 7.143-2.284 16.054-7.601 25.963-16.95 13.681-12.908 34.839-21.774 45.726-63.145 15.615-59.338 3.869-76.074-13.917-76.726z" fill="#b2b2b2"/></svg>
