<svg width="256" height="256" viewBox="0 0 256 256" xmlns="http://www.w3.org/2000/svg"><path d="M0 0h256v256H0V0Z" fill="#3f3f3f"/><path d="M175.976 196.525c1.762-16.733 7.034-38.341 4.633-65.048-.286-3.178-1.125-12.071-1.115-20.683.006-5.294-.528-12.127-.494-16.044.042-4.833-.107-10.396-.156-13.939-.263-18.86-3.307-21.456-7.704-21.456-4.311 0-6.692 3.566-6.765 21.145-.015 3.605.125 12.75.125 14.625 0 4.377-.083 8.542 0 13.375.112 6.489-1.07 17-2.25 17-.976 0-2.025-9.825-2.394-19.25-.189-4.831-.805-14.584-.65-17.525.44-8.353.119-14.729.384-22.541.796-23.402-3.254-27.933-8.673-27.933-5.494 0-8.995 14.422-8.713 28.556.032 1.599-.291 12.685.047 22.465.189 5.453-.267 12.407-.42 17.418-.274 8.942-1.439 15.974-2.218 15.974-.66 0-1.033-8.146-1.364-16.427-.214-5.389-1.117-14.62-.916-20.904.472-14.753-.284-27.556-.265-30.375.158-23.739-3.665-30.775-9.013-30.775-5.369 0-9.297 7.548-9.15 30.835.016 2.633-.655 24.982-.44 30.454.216 5.498-.693 16.266-.879 21.205-.325 8.63-1.623 15.987-2.281 15.987-.821 0-2.699-6.41-2.931-15.242-.147-5.568.307-12.747.156-17.672-.315-10.176-.794-16.157-.97-24.927-.486-24.295-4.088-26.572-9.535-26.572-4.49 0-8.113 7.168-8.164 28.758-.017 6.925-.608 15.656-.079 23.582.201 3.02-.156 10.628-.469 18.473-.2 5.002-.275 11.876-.284 15.944-.042 19.649-6.678 33.356-9.139 32.827-7.583-1.63-12.912-10.979-17.805-29.327-2.637-9.891-9.166-17.787-17.474-19.453-6.475-1.298-4.946 11.54-.33 31.323 2.162 9.267 6.977 21.557 9.891 30.664 7.913 24.729 31.394 47.141 40.226 57.137 4.286 4.85 59.223 4.85 66.147 0 2.882-2.018 10.772-25.39 11.431-31.654Z" fill="#b2b2b2"/></svg>
