<svg xmlns="http://www.w3.org/2000/svg" width="16" height="16"><g fill="#fc7f7f"><path d="M3.821 12.179c.16 1.154 1.227 1.961 2.382 1.8 1.155-.16 1.961-1.227 1.801-2.381-.043-.314-.158-.615-.333-.879l3.048-3.049c.97.646 2.281.382 2.927-.589s.383-2.282-.588-2.928c-.265-.175-.565-.289-.879-.333-.161-1.155-1.227-1.961-2.383-1.8-1.154.16-1.961 1.227-1.8 2.382.043.314.157.614.333.878l-3.048 3.049c-.971-.646-2.282-.382-2.928.589s-.382 2.281.589 2.927c.264.176.564.29.879.334zM12.407 11.383l-1.183 1.143 2.092 2.023-1.501 1.451h4.185v-4.045l-1.5 1.449zM3.638 4.674l1.198-1.158-2.118-2.048 1.519-1.468h-4.236-.001v4.095l1.52-1.468z"/><path d="M1.061 10.7c-.164-.814 0-1.645.459-2.336.578-.87 1.548-1.389 2.593-1.389.327 0 .649.051.956.151l2.057-2.058c-.055-.172-.096-.349-.121-.528-.114-.823.099-1.642.6-2.305s1.231-1.091 2.053-1.206c.146-.02.289-.029.432-.029.979 0 1.868.464 2.443 1.194l.703-.703c-.769-.92-1.916-1.491-3.146-1.491-.189 0-.379.013-.569.039-1.088.151-2.052.717-2.714 1.593s-.944 1.958-.793 3.046c.004.025.008.051.012.077l-1.271 1.27c-.211-.033-.426-.05-.642-.05-1.381 0-2.662.686-3.426 1.835-.608.915-.824 2.011-.607 3.087.188.931.693 1.737 1.414 2.335l.708-.707c-.585-.457-.994-1.089-1.141-1.825zM9.973 11.244l1.271-1.271c.211.033.426.05.642.05 1.381 0 2.661-.686 3.426-1.835.608-.915.824-2.011.607-3.087-.188-.931-.692-1.737-1.412-2.334l-.708.708c.584.457.992 1.089 1.14 1.824.164.815 0 1.645-.46 2.336-.578.869-1.548 1.389-2.593 1.389-.327 0-.648-.051-.956-.15l-2.058 2.058c.057.173.097.351.122.529.114.823-.1 1.642-.6 2.304-.501.663-1.231 1.091-2.053 1.205-.146.021-.29.03-.432.03-.978 0-1.868-.464-2.442-1.192l-.704.702c.769.919 1.915 1.489 3.146 1.489.191 0 .383-.014.572-.04 1.085-.15 2.049-.717 2.711-1.592.662-.877.944-1.958.793-3.045-.005-.026-.008-.051-.012-.078z"/></g></svg>
