<svg xmlns="http://www.w3.org/2000/svg" width="16" height="16"><path fill="#fc7f7f" d="M1.344 11.332v1.668l1.654-.49v.373c-.784.156-1.292.92-1.134 1.705.158.783.921 1.291 1.705 1.135.212-.045.414-.135.588-.266.638.482 1.545.354 2.028-.281.481-.641.355-1.547-.283-2.029-.173-.131-.375-.223-.588-.264v-1.061l1.654-.49v-1.664zM1.344 8v1.666l.003.001 5.622-1.667v-1.668zM5.314 3.49v-.371c.786-.156 1.294-.92 1.136-1.703-.158-.785-.923-1.295-1.707-1.139-.212.045-.413.137-.587.268-.638-.482-1.546-.356-2.029.283-.481.637-.355 1.545.284 2.027.174.131.375.221.587.264v1.057l-1.654.49v1.666l5.625-1.666v-1.666zM10.656 15v-10h-2l3-4 3 4h-2v10z"/><path fill="#b56d6d" d="m4.156 5.5-2.812.832 2.813.836 2.813-.836zm0 3.332-2.812.836 2.812.832 2.813-.832z"/></svg>
