<svg xmlns="http://www.w3.org/2000/svg" width="256" height="256"><path fill="#3f3f3f" d="M0 0h256v256H0V0Z"/><path fill="#b2b2b2" d="M128 134.04c1.75 8.75 2.911 16.725 3.5 28.5.5 10 1 12.75.5 16.5-1.846 13.843 1.692 45.975 2.166 51.667.5 6-1.913 6.06-2.666 11.583-.612 4.49 19.75 4.61 16.25-2.25-6.25-12.25-.5-21 1-55.25.13-2.98-2.242-11.968-.5-23.5 2.771-18.353 2.105-26.81 1.625-36.415-.311-7.993-.25-14.241-2.25-34.741-.244-2.5 1.479-19.817 2.988-19.772 10.5.313 24.329-1.252 29.537-3.67 7.225.933 24.452-3.012 31.971-4.031 3.636 2.351 4.169.833 9.379 2.254 1.375.375 4.334-.36 3-1.25-1.852-1.234-5.187-2.062-5.75-3 2.688-.625 5.591-2.394 9-3.291 2.375-.625 4.717-2.937 3.875-3.084-2.875-.5-6.507 1.137-9.375 1.625-3.931.67-6.309.81-8.333 1.292-.307.073-.776.19-1.448.24l-.013.109c-9.205.248-20.081-2.431-32.578-1.392-8.506-.982-23.545-1.29-28.378-1.374-3.478-.06-14.823-.645-17.938-.125-.167-1.02-.375-2.437.238-4.117 3.72-1.811 4.797-4.449 6.825-8.673.23 1.106 1.563 1.232 3.115-3.558 1.415-4.37.58-5.563-.579-5.631.043-.514.07-1.026.079-1.536.196-12.01-1.74-20.61-15.24-20.61s-15.437 8.6-15.24 20.61c.009.51.036 1.022.078 1.536-1.159.068-1.993 1.262-.578 5.631 1.552 4.79 2.884 4.664 3.115 3.558 2.028 4.224 3.105 6.862 6.825 8.673.612 1.68.404 3.097.237 4.117-3.114-.52-14.459.066-17.937.126-4.833.083-19.872.392-28.378 1.373-12.497-1.039-23.373 1.64-32.578 1.392a24.54 24.54 0 0 0-.013-.11c-.672-.048-1.141-.166-1.448-.239-2.024-.482-4.402-.622-8.333-1.291-2.868-.489-6.5-2.125-9.375-1.625-.842.146 1.5 2.458 3.875 3.083 3.408.897 6.312 2.666 9 3.291-.563.938-3.898 1.766-5.75 3-1.334.89 1.625 1.625 3 1.25 5.21-1.42 5.743.097 9.378-2.254 7.52 1.02 24.747 4.964 31.972 4.031 5.208 2.418 19.036 3.983 29.536 3.67 1.51-.045 3.233 17.272 2.989 19.772-2 20.5-1.939 26.748-2.25 34.741-.48 9.605-1.147 18.062 1.625 36.416 1.742 11.531-.63 20.519-.5 23.5 1.5 34.25 7.25 43 1 55.25-3.5 6.859 16.862 6.739 16.25 2.25-.753-5.523-3.167-5.584-2.667-11.584.474-5.692 4.013-37.824 2.167-51.666-.5-3.75 0-6.5.5-16.5.589-11.776 1.75-19.751 3.5-28.501Z"/></svg>
