<svg enable-background="new 0 0 1024 1024" height="1024" viewBox="0 0 1024 1024" width="1024" xmlns="http://www.w3.org/2000/svg"><path d="m0 0h1024v1024h-1024z" fill="#3f3f3f"/><path d="m703.906 786.098c7.046-66.929 28.135-153.363 18.529-260.192-1.143-12.71-4.5-48.282-4.46-82.732.025-21.174-2.111-48.505-1.975-64.174.167-19.333-.428-41.584-.625-55.755-1.052-75.44-13.225-85.827-30.813-85.827-17.246 0-26.77 14.266-27.062 84.582-.061 14.42.5 51 .5 58.5 0 17.508-.333 34.167 0 53.5.447 25.955-4.279 68-9 68-3.902 0-8.099-39.299-9.575-76.999-.756-19.326-3.219-58.336-2.6-70.102 1.759-33.413.474-58.914 1.537-90.165 3.183-93.607-13.016-111.729-34.695-111.729-21.973 0-35.979 57.688-34.849 114.224.128 6.394-1.165 50.739.188 89.859.754 21.811-1.07 49.627-1.683 69.67-1.095 35.768-5.755 63.896-8.869 63.896-2.641 0-4.135-32.584-5.456-65.706-.859-21.557-4.468-58.477-3.664-83.616 1.886-59.012-1.139-110.226-1.063-121.501.635-94.955-14.66-123.101-36.052-123.101-21.476 0-37.188 30.192-36.6 123.343.067 10.53-2.62 99.926-1.759 121.816.865 21.992-2.773 65.062-3.517 84.818-1.299 34.521-6.49 63.947-9.124 63.947-3.281 0-10.794-25.638-11.724-60.965-.587-22.275 1.231-50.99.624-70.688-1.257-40.707-3.175-64.631-3.877-99.708-1.945-97.182-16.352-106.289-38.142-106.289-17.957 0-32.453 28.673-32.657 115.03-.065 27.702-2.429 62.626-.315 94.329.805 12.081-.622 42.512-1.875 73.894-.799 20.007-1.102 47.501-1.137 63.775-.17 78.595-26.712 133.424-36.555 131.308-30.333-6.521-51.648-43.918-71.219-117.307-10.551-39.566-36.667-71.149-69.9-77.813-25.9-5.193-19.783 46.161-1.319 125.293 8.65 37.068 27.909 86.227 39.566 122.655 31.653 98.917 125.574 188.563 160.903 228.546 17.146 19.403 236.894 19.403 264.59 0 11.525-8.07 43.087-101.557 45.724-126.616z" fill="#b2b2b2"/></svg>
