<svg xmlns="http://www.w3.org/2000/svg" width="256" height="256"><path fill="#3f3f3f" d="M0 0h256v256H0V0Z"/><path fill="#b2b2b2" d="M197.026 138.242c4.499-14.473 7.974-31.142 7.719-49.518-.94-67.6-62.462-62.87-73.892-61.237C40.886 40.34 76.091 140.577 75.74 151.594c-1.225 38.374 20.921 42.748 40.416 53.888.661.378 1.815.447 3.328.278 1.806 6.295 2.941 14.759 2.387 18.909-.816 6.124 52.255 6.124 52.255 0 0-15.72 3.059-31.09 8.457-47.222 1.786-.571 4.014-1.9 6.491-4.237 3.42-3.227 8.71-5.444 11.431-15.787 3.904-14.834.968-19.018-3.479-19.181Z"/></svg>
