<svg xmlns="http://www.w3.org/2000/svg" width="16" height="16"><g fill="#b56d6d"><path d="M2.55 9.942c.61-.92 1.634-1.469 2.739-1.469.363 0 .72.06 1.059.175l2.301-2.302c-.067-.197-.115-.4-.143-.606-.248-1.787.996-3.44 2.777-3.702-.086-.022-.169-.053-.256-.065-.175-1.251-1.329-2.124-2.581-1.95-1.251.173-2.124 1.328-1.95 2.58.047.34.17.665.36.952l-3.301 3.3c-1.052-.699-2.472-.414-3.171.64-.7 1.052-.414 2.47.638 3.17.286.189.611.313.952.361.014.101.044.194.07.289.063-.476.222-.946.506-1.373zM11.87 10.784c.308-.043.62.01.896.153l.927-.927c.357-.359.938-.359 1.298 0 .358.357.358.938 0 1.298l-1.483 1.482c-.271.308-.74.337-1.047.065-.023-.021-.045-.042-.065-.065-.147-.142-.382-.138-.524.009-.139.144-.139.372 0 .516.561.597 1.5.627 2.097.064.021-.021.043-.042.064-.064l1.483-1.482c.647-.648.647-1.699 0-2.347-.648-.648-1.699-.648-2.347 0z"/><path d="m13.077 14.216c-.307.044-.62-.01-.895-.154l-.928.927c-.358.36-.938.36-1.299 0-.357-.357-.357-.938 0-1.297l1.484-1.483c.271-.307.739-.337 1.048-.065.021.021.044.042.064.065.147.143.382.139.524-.009.139-.144.139-.371 0-.516-.561-.597-1.499-.625-2.097-.063-.023.02-.043.042-.064.063l-1.483 1.483c-.647.648-.647 1.698 0 2.346.648.649 1.699.649 2.347 0z"/><path d="m8.482 12.71c.088-.116.188-.224.296-.32l3.611-3.611c.836-.932 2.246-1.028 3.21-.253.006-.008.013-.014.018-.021.699-1.051.414-2.471-.638-3.17-.287-.19-.613-.313-.952-.361-.174-1.251-1.329-2.125-2.581-1.951-1.251.174-2.124 1.329-1.95 2.581.047.34.17.666.36.952l-3.301 3.3c-1.053-.699-2.473-.415-3.172.639-.699 1.052-.414 2.471.639 3.171.285.189.61.313.951.361.174 1.251 1.33 2.124 2.581 1.95.361-.05.685-.189.967-.381-.659-.822-.707-2.011-.039-2.886z"/></g></svg>
