<?xml version="1.0" encoding="utf-8"?>
<!-- Generator: Adobe Illustrator 15.0.0, SVG Export Plug-In . SVG Version: 6.00 Build 0)  -->
<!DOCTYPE svg PUBLIC "-//W3C//DTD SVG 1.1//EN" "http://www.w3.org/Graphics/SVG/1.1/DTD/svg11.dtd">
<svg version="1.1" id="レイヤー_1" xmlns="http://www.w3.org/2000/svg" xmlns:xlink="http://www.w3.org/1999/xlink" x="0px"
	 y="0px" width="16px" height="16px" viewBox="0 0 16 16" enable-background="new 0 0 16 16" xml:space="preserve">
<path fill="#FC7F7F" d="M9.264,8.125L8.119,9.27c-0.219,0.228-0.212,0.589,0.014,0.81c0.222,0.213,0.574,0.213,0.794,0l0.169-0.168
	v4.912h4.909l-0.167,0.165c-0.219,0.229-0.212,0.591,0.015,0.81c0.222,0.214,0.573,0.214,0.794,0l1.145-1.145
	c0.224-0.224,0.224-0.584,0-0.809l-1.145-1.143c-0.226-0.221-0.588-0.215-0.809,0.014c-0.213,0.221-0.213,0.573,0,0.795l0.167,0.168
	h-2.957l3.195-3.196v0.237c0,0.317,0.256,0.573,0.572,0.573c0.315,0,0.571-0.256,0.571-0.573V9.102c0-0.315-0.256-0.571-0.571-0.571
	h-1.619c-0.316,0-0.572,0.256-0.572,0.571c0,0.316,0.256,0.572,0.572,0.572h0.237l-3.194,3.194V9.911l0.167,0.168
	c0.228,0.218,0.59,0.213,0.81-0.015c0.214-0.223,0.214-0.572,0-0.795l-1.144-1.145C9.848,7.903,9.486,7.903,9.264,8.125L9.264,8.125
	z"/>
<path fill="#FC7F7F" d="M7.615,11.175l0.326-0.326c-0.119-0.06-0.23-0.135-0.328-0.229c-0.524-0.511-0.538-1.349-0.035-1.871
	l1.155-1.155c0.5-0.499,1.367-0.497,1.865-0.003l0.3,0.3l0.276-0.276c0.399,0.266,0.849,0.393,1.296,0.405
	c0.211-0.142,0.453-0.24,0.726-0.24h0.399c0.391-0.186,0.741-0.467,0.998-0.854c0.754-1.134,0.446-2.665-0.688-3.419
	c-0.309-0.205-0.66-0.338-1.026-0.389c-0.188-1.349-1.433-2.291-2.782-2.103c-1.349,0.188-2.29,1.433-2.103,2.782
	c0.051,0.367,0.184,0.717,0.389,1.026l-3.56,3.56C3.69,7.63,2.159,7.938,1.405,9.072c-0.754,1.134-0.446,2.664,0.688,3.419
	c0.308,0.204,0.659,0.338,1.026,0.389c0.188,1.349,1.433,2.29,2.782,2.103c1.349-0.188,2.291-1.433,2.103-2.781
	C7.953,11.834,7.82,11.483,7.615,11.175z"/>
</svg>
