<svg clip-rule="evenodd" fill-rule="evenodd" stroke-linejoin="round" stroke-miterlimit="2" viewBox="0 0 16 16" xmlns="http://www.w3.org/2000/svg"><path d="m8 .88867188-.5058594.25390622a4.5 4.5 0 0 1 1.3789063 2.2988281l3.0664061 1.5332032-3.5546874 1.7753906a4.5 4.5 0 0 1 -1.6796875 1.6601562l.2949219.1464844v3.9414064l-4-2.001953v-1.7636721a4.5 4.5 0 0 1 -2-1.4179688v4.2968749l7 3.5 7-3.5v-7.2226561zm5 5.66796872v3.9394534l-4 2.001953v-3.9414064z"/><path d="m8 .88867188-.5058594.25390622a4.5 4.5 0 0 1 1.5058594 3.3574219 4.5 4.5 0 0 1 -4.5 4.5 4.5 4.5 0 0 1 -3.5-1.6855469v4.2968749l7 3.5 7-3.5v-7.2226561z" fill="#ffca5f"/></svg>
