<svg xmlns="http://www.w3.org/2000/svg" width="16" height="16"><circle cx="8" cy="8" r="3.077" fill="#fefefe"/><circle cx="8" cy="8" r="4.805" fill="#606060" stroke="#e0e0e0" stroke-linejoin="bevel" stroke-width=".958"/><path fill="#e0e0e0" d="M 7.3362328,13.256668 C 6.1540528,13.105034 4.9935649,12.521677 4.1860676,11.673136 3.3792691,10.825329 2.896713,9.8110348 2.7377611,8.6289124 c -0.03635,-0.2703342 -0.03635,-0.9891997 0,-1.2595339 C 2.9279198,5.9551718 3.6417995,4.6844236 4.717728,3.8449203 5.4801328,3.250047 6.2985181,2.9010293 7.2920387,2.7470513 c 0.2928615,-0.045388 1.1881049,-0.03863 1.4915533,0.01126 0.5756042,0.094635 1.0409282,0.2421327 1.546796,0.4903 1.587952,0.7790129 2.650889,2.2468747 2.920006,4.0323785 0.05274,0.349878 0.05274,1.0864327 0,1.4363107 C 13.071079,9.9069993 12.565072,10.9177 11.734777,11.744602 11.129499,12.347406 10.45249,12.765747 9.661814,13.025538 9.2799671,13.151 9.0164995,13.210749 8.6390614,13.257477 8.3057783,13.298738 7.6611042,13.298337 7.3362328,13.256668 Z M 8.4631843,11.049176 C 9.7738615,10.8478 10.789711,9.8582061 11.038395,8.5405241 11.092277,8.2550235 11.092224,7.7427753 11.038283,7.4577668 10.801098,6.2045456 9.8847637,5.2582564 8.6381662,4.9791892 8.3308296,4.9103879 7.6958581,4.9052103 7.4025241,4.969114 6.7225961,5.1172381 6.1568994,5.4407498 5.7047278,5.9400536 4.6518344,7.1026949 4.6536446,8.8894355 5.708907,10.065223 c 0.3901183,0.434675 0.937402,0.770446 1.4967281,0.918277 0.3713627,0.09815 0.8749883,0.124453 1.2575492,0.06568 z" display="none"/><g fill="#fff"><path d="M 4.7630289,5.9808544 H 11.237411 V 7.2984463 H 4.7630289 Z" style="font-variation-settings:normal;-inkscape-stroke:none"/><path d="M 4.7630289,8.7006485 H 11.237411 V 10.01824 H 4.7630289 Z"/></g></svg>
