<svg enable-background="new 0 0 16 16" viewBox="0 0 16 16" xmlns="http://www.w3.org/2000/svg"><g fill="#e0e0e0"><path d="m13 1h2v2h-2z"/><path d="m13 13h2v2h-2z"/><path d="m13 5h2v2h-2z"/><path d="m13 9h2v2h-2z"/><path d="m1 9h2v2h-2z"/><path d="m1 1h2v2h-2z"/><path d="m1 13h2v2h-2z"/><path d="m1 5h2v2h-2z"/><path d="m11.5 12.6c0-.14 0-.31-.02-.5-.02-.26-.09-.56-.19-.87-.01-.03-.02-.06-.03-.09-.03-.08-.05-.16-.09-.25-.18-.46-.44-.91-.85-1.27-1.14-1-2.51-1.58-1.07-2.69s2.07-2.11 2.07-2.85c0-.44 0-1.08 0-1.08h-6.64v1.08c0 .73.63 1.73 2.07 2.85s.07 1.69-1.07 2.69c-.41.36-.68.81-.86 1.27-.04.09-.06.17-.09.25-.01.03-.02.06-.03.09-.1.31-.16.61-.19.87-.02.2-.02.36-.02.5v.4h7c.01 0 .01-.15.01-.4z"/></g></svg>