<svg enable-background="new 0 0 16 16" viewBox="0 0 16 16" xmlns="http://www.w3.org/2000/svg"><g fill="#e0e0e0"><path d="m12.47 1.5h-8.94c-1.12 0-2.03.91-2.03 2.03v.77 1.25 1.86 2.59 1.16 1.31c0 1.12.91 2.03 2.03 2.03h8.94c1.12 0 2.03-.91 2.03-2.03v-1.04-.99-1.91-2.53-1.43-1.04c0-1.12-.91-2.03-2.03-2.03zm.83 4.5v2.56 1.88.99 1.04c0 .45-.38.83-.83.83h-8.94c-.45 0-.83-.38-.83-.83v-1.31-1.16-2.5-1.93-1.27-.77c0-.45.38-.83.83-.83h8.94c.45 0 .83.38.83.83v1.04z"/><path d="m10.65 7.35-4.8-2.85-.85 1.18 3.83 2.27-3.79 2.38.88 1.17 4.75-2.98c.2-.13.33-.35.33-.58v-.01c0-.23-.14-.45-.35-.58z"/></g></svg>