<svg enable-background="new 0 0 16 16" viewBox="0 0 16 16" xmlns="http://www.w3.org/2000/svg"><g fill="#e0e0e0"><path d="m2.91 14.57c-1.37-2.28-1.91-4.36-1.91-6.5s.54-4.23 1.91-6.5l1.09 1.06c-1.26 2.36-1.51 3.87-1.51 5.44s.25 3.08 1.51 5.44z"/><path d="m13.09 1.57c1.37 2.27 1.91 4.35 1.91 6.5 0 2.14-.54 4.23-1.91 6.5l-1.09-1.06c1.26-2.37 1.51-3.87 1.51-5.44s-.25-3.08-1.51-5.44z"/><path d="m10.87 11.5h-1.83l-1.21-2.33-1.93 2.33h-1.9l2.96-3.53-1.84-3.47h1.89l1.18 2.23 1.86-2.23h1.95l-2.98 3.49z"/></g></svg>