<svg xmlns="http://www.w3.org/2000/svg" width="16" height="16"><path fill="#e0e0e0" d="M8.693 2.51a.754.754 0 0 0-1.067 0l-.8.8 1.538 1.54a1.132 1.132 0 1 1-1.066 1.066l-1.54-1.54-.8.8-1.6-1.6A.754.754 0 0 1 4.425 2.51l3.273 3.273a.754.754 0 1 0 .533-.533L4.958 1.977A1.509 1.509 0 0 0 2.824 4.11l1.6 1.6-3.2 3.201a.754.754 0 0 0 0 1.067l4.268 4.268a.754.754 0 0 0 1.067 0l6.935-6.935zm4.801 5.869c-1.51 2.263-1.51 2.263-1.51 3.018 0 .754.756 1.509 1.51 1.509s1.51-.755 1.51-1.51c0-.754 0-.754-1.51-3.017z"/></svg>