<svg height="16" viewBox="0 0 16 16" width="16" xmlns="http://www.w3.org/2000/svg"><g fill="#e0e0e0" stroke-width="1.325447" transform="matrix(.53348552 .53348552 -.53348552 .53348552 561.06065 -551.99594)"><path d="m2 1c-.5522355.0001-.9999477.4477-1 1v1.5h2.8847656a1.4999877 1.5 0 0 1 1.1152344-.5 1.4999877 1.5 0 0 1 1.5 1.5 1.4999877 1.5 0 0 1 -1.5 1.5 1.4999877 1.5 0 0 1 -1.1152344-.5h-2.8847656v1.5h-1.26953125-1.73046875c-.5522769 0-.999989-.4477-1-1 .000011-.5523.4477231-1 1-1h3 2.5878906.546875a1 1 0 0 0 .8652344.5 1 1 0 0 0 1-1 1 1 0 0 0 -1-1 1 1 0 0 0 -.8632812.5h-.5488282-2.5878906-3c-1.1045647 0-1.9999933.8954285-2 2 .0000067 1.1045715.8954353 2 2 2h3v6c.0000735.5523.4477232.9999 1 1h8c.552235-.0001.999947-.4477 1-1v-13z" stroke-width="1.325447" transform="translate(0 1036.4)"/><path d="m12 1038.4c.707107 3.5356.707107 3.5356 1.414213 4.2427.707107.7071 2.121321.7071 2.828428 0 .707106-.7071.707106-2.1213 0-2.8284-.707107-.7072-.707107-.7072-4.242641-1.4143z" fill-rule="evenodd"/></g></svg>
