<svg height="128" viewBox="0 0 16 128" width="16" xmlns="http://www.w3.org/2000/svg"><linearGradient id="a" gradientUnits="userSpaceOnUse" x1="8" x2="8" y1="2" y2="126"><stop offset="0" stop-color="#62aeff"/><stop offset=".5" stop-color="#75d1e6"/><stop offset="1" stop-color="#84ffee"/></linearGradient><path d="M3 3h10m0 3H3m0 3h10m0 3H3m0 3h10m0 3H3m0 3h10m0 3H3m0 3h10m0 5H3m0 3h10m0 3H3m0 3h10m0 3H3m0 3h10m0 3H3m0 3h10m0 3H3m0 3h10m0 3H3m0 3h10m0 3H3m0 3h10m0 3H3m0 3h10m0 3H3m0 3h10m0 3H3m0 3h10m0 3H3m0 3h10m0 3H3m0 3h10m0 3H3m0 3h10m0 3H3m0 3h10m0 3H3m0 3h10m0 3H3m0 3h10" fill="none" stroke-linecap="round" opacity=".7" stroke-width="2" stroke="url(#a)"/></svg>
