<svg height="16" viewBox="0 0 16 16" width="16" xmlns="http://www.w3.org/2000/svg"><path d="m4 1c-.554 0-1 .446-1 1v12c0 .554.446 1 1 1h8c.554 0 1-.446 1-1v-12c0-.554-.446-1-1-1zm1 1h2c.554 0 1 .446 1 1s-.446 1-1 1h-2c-.554 0-1-.446-1-1s.446-1 1-1zm6 0c.55228 0 1 .44772 1 1s-.44772 1-1 1-1-.44772-1-1 .44772-1 1-1zm-5 4a2 2 0 0 1 2 2 2 2 0 0 1 -2 2 2 2 0 0 1 -2-2 2 2 0 0 1 2-2zm5 0c.55228 0 1 .44772 1 1s-.44772 1-1 1-1-.44772-1-1 .44772-1 1-1zm0 4c.55228 0 1 .44772 1 1s-.44772 1-1 1-1-.44772-1-1 .44772-1 1-1zm-7 2h1v2h-1zm2 0h1v2h-1zm2 0h1v2h-1z" fill="#e0e0e0"/></svg>
