<svg height="16" viewBox="0 0 16 16" width="16" xmlns="http://www.w3.org/2000/svg"><path d="m5.9492188 2a3 3 0 0 0 -2.9492188 3 3 3 0 0 0 1 2.2304688v1.7695312l-3-2v6l3-2v1c0 .554.44599 1 1 1h3c.0076117-.045309.0115938-.096059.0214844-.134766.0773621-.302758.1860981-.478282.2832031-.625.1397097-.211089.2814954-.338835.4257813-.480468-.1445165-.141692-.2879205-.269839-.4277344-.480469-.0971224-.146315-.2052562-.321748-.2832032-.623047-.0777157-.300405-.1044198-.8152648.1640626-1.2910156.2700589-.4775976.7340166-.7239536 1.0371093-.8105469.3037241-.0867737.5108695-.0808838.6875-.0703125.2608449.0156115.4500479.0763383.6503909.1328125.049596-.1859081.086921-.3641449.195312-.5800781.078477-.1563394.174637-.3364783.396485-.5527344.221847-.2162561.652628-.4930277 1.195312-.4980469a1.6124973 1.6124973 0 0 1 .033203 0c.542861.0056205.97185.2837448 1.19336.5.146452.1429781.230167.265896.298828.3808594a3 3 0 0 0 .128906-.8671875 3 3 0 0 0 -3-3 3 3 0 0 0 -2.0117188.7773438 3 3 0 0 0 -2.9882812-2.7773438 3 3 0 0 0 -.0507812 0z" fill="#e0e0e0"/><path d="m12.36062 8.59795a.53334 3.2001 0 0 0 -.50976 2.2754 3.2001.53334 30 0 0 -2.2656-.71484 3.2001.53334 30 0 0 1.75 1.6016.53334 3.2001 60 0 0 -1.7461 1.5996.53334 3.2001 60 0 0 2.2578-.71094.53334 3.2001 0 0 0 .51367 2.3496.53334 3.2001 0 0 0 .51367-2.3516 3.2001.53334 30 0 0 2.2539.71094 3.2001.53334 30 0 0 -1.7441-1.5977.53334 3.2001 60 0 0 1.748-1.5996.53334 3.2001 60 0 0 -2.2617.71484.53334 3.2001 0 0 0 -.50977-2.2773z" fill="#c38ef1" stroke-width="1.0667"/></svg>
