<svg height="16" viewBox="0 0 16 16" width="16" xmlns="http://www.w3.org/2000/svg"><path d="M7 2 5 5H2a1 1 0 0 0-1 1v7a1 1 0 0 0 1 1h6.148a1.68 2-120 0 1 .002-1.58 3 3 0 1 1 2.487-3.852 1.68 2 0 0 1 3.233.355A1.68 2 60 0 1 15 8.756V6a1 1 0 0 0-1-1h-3L9 2zM2 2h2v2H2Z" fill="#e0e0e0"/><path d="M12.207 8.658a.533 3.2 0 0 0-.51 2.275 3.2.533 30 0 0-.515.887.533 3.2 60 0 0 .515.887.533 3.2 0 0 0 1.02 0 3.2.533 30 0 0 .515-.887.533 3.2 60 0 0-.515-.887.533 3.2 0 0 0-.51-2.275z" fill="#ffca5f"/></svg>
