<svg height="16" viewBox="0 0 16 16" width="16" xmlns="http://www.w3.org/2000/svg"><g fill="#e0e0e0"><path d="m2 1c-.5522847 0-1 .4477153-1 1v12c0 .552285.4477153 1 1 1h12c.552285 0 1-.447715 1-1v-12c0-.5522847-.447715-1-1-1zm1 2h10v8h-10z"/><g stroke-width="1.97307" transform="matrix(.50682329 0 0 .50682329 3.994604 2.971119)"><path d="m5.9298703 2.0300582-1.9730742 3.934252-2.95288.01033s-1.00000003.000001-1.00000003 1v5.9004198s-.00049262 1.000376.99950633 1.000351l13.7985506-.000351s1-.000001 1-1v-5.9004195s-.000008-.9979028-1-1l-2.95288-.01033-1.9730741-3.934252zm2.0701297 4.8922972c1.6568542 0 3 1.3431458 3 3 0 1.6568536-1.3431458 2.9999996-3 2.9999996s-3-1.343146-3-2.9999996c0-1.6568542 1.3431458-3 3-3z"/><path d="m.0106475 2.0300582 3.9461486-.0000002v1.9730745h-3.9461486z"/></g></g></svg>
