<svg height="16" viewBox="0 0 16 16" width="16" xmlns="http://www.w3.org/2000/svg"><path d="m7 2-2 4h-3s-1 .000002-1 1v6s.000002 1 1 1h6.1484375c-.1542249-.344387-.1544915-.707546-.1054687-.945312.0045588-.022112.0106058-.039779.015625-.060547a3 3 0 0 1 -.0585938.005859 3 3 0 0 1 -3-3 3 3 0 0 1 3-3 3 3 0 0 1 2.636719 1.5683594c.036555-.1169261.08189-.2370529.146484-.3671875.070405-.1418394.157935-.3026809.353516-.4960938.19558-.1934128.578437-.4459156 1.066406-.4472656h.003906.003907c.487968.0013542.872778.2538528 1.068359.4472656.195581.1934129.281158.3542544.351562.4960938.12919.2602692.183256.4788816.238282.7167969.01665-.005166.042083-.0204307.058593-.0253907.260877-.0784194.495713-.1397775.81836-.1484375.076759-.0020607.160042-.0000611.253906.0097656v-1.7539062s-.000002-1-1-1h-3l-2-4z" fill="#e0e0e0"/><path d="m2 3h2v2h-2z" fill="#e0e0e0"/><path d="m12.207341 8.6577609a.533 3.2 0 0 0 -.51 2.2750001 3.2.533 30 0 0 -.515.887.533 3.2 60 0 0 .515.887.533 3.2 0 0 0 1.02 0 3.2.533 30 0 0 .515-.887.533 3.2 60 0 0 -.515-.887.533 3.2 0 0 0 -.51-2.2750001z" fill="#5fb2ff"/></svg>
