<svg height="16" viewBox="0 0 16 16" width="16" xmlns="http://www.w3.org/2000/svg" xmlns:xlink="http://www.w3.org/1999/xlink"><clipPath id="a"><path d="m8.0625 1025.9a3.375 3 0 0 0 -3.375 3 3.375 3 0 0 0 1.6875 2.5957v9.8115a3.375 3 0 0 0 -1.6875 2.5928 3.375 3 0 0 0 3.375 3 3.375 3 0 0 0 3.375-3 3.375 3 0 0 0 -1.6875-2.5957v-8.7832l11.931 10.605a3.375 3 0 0 0 -.11865.7735 3.375 3 0 0 0 3.375 3 3.375 3 0 0 0 3.375-3 3.375 3 0 0 0 -3.375-3 3.375 3 0 0 0 -.87341.1025l-11.928-10.602h9.8844a3.375 3 0 0 0 2.9169 1.5 3.375 3 0 0 0 3.375-3 3.375 3 0 0 0 -3.375-3 3.375 3 0 0 0 -2.9202 1.5h-11.038a3.375 3 0 0 0 -2.9169-1.5z"/></clipPath><g transform="translate(0 -1036.4)"><g clip-path="url(#a)" transform="matrix(.59259 0 0 .66667 -1.7778 353.45)"><path d="m3 1025.9h27v3h-27z" fill="#ff4545"/><path d="m3 1028.9h27v3h-27z" fill="#ffe345"/><path d="m3 1031.9h27v3h-27z" fill="#80ff45"/><path d="m3 1034.9h27v3h-27z" fill="#45ffa2"/><path d="m3 1037.9h27v3h-27z" fill="#45d7ff"/><path d="m3 1043.9h27v3h-27z" fill="#ff4596"/><path d="m3 1040.9h27v3h-27z" fill="#8045ff"/></g><ellipse cx="3" cy="1039.4" fill="#6e6e6e"/></g></svg>
