<svg height="16" viewBox="0 0 16 16" width="16" xmlns="http://www.w3.org/2000/svg"><path d="m13.303 1c-.4344 0-.86973.16881-1.2012.50586l-1.4688 1.4941h4.3418c.082839-.52789-.072596-1.0872-.47266-1.4941-.33144-.33705-.76482-.50586-1.1992-.50586z" fill="#ff4545"/><path d="m10.633 3-1.9668 2h4.8008l1.0352-1.0527c.2628-.2673.41824-.60049.47266-.94727h-4.3418z" fill="#ffe345"/><path d="m8.666 5-1.9648 2h4.7988l1.9668-2z" fill="#80ff45"/><path d="m6.7012 7-1.4004 1.4238.56641.57617h3.668l1.9648-2h-4.7988z" fill="#45ffa2"/><path d="m5.8672 9 1.834 1.8652 1.834-1.8652zm-1.752.57812c-.48501-.048725-.90521.12503-1.1953.45508-.21472.24426-.35243.57797-.39844.9668h3.5625c-.10223-.1935-.22224-.37965-.38281-.54297-.55011-.55955-1.1009-.83018-1.5859-.87891z" fill="#45d7ff"/><path d="m1.3242 13c.18414.24071.43707.53374.83789.94141.88382.899 2.6552.67038 3.5391-.22852.20747-.21103.36064-.45476.4707-.71289h-4.8477z" fill="#ff4596"/><path d="m2.5215 11c-.0105.088737-.021484.17696-.021484.27148 0 1.3947-2.2782.28739-1.1758 1.7285h4.8477c.27363-.64173.24047-1.3785-.087891-2h-3.5625z" fill="#8045ff"/></svg>
