<svg height="16" viewBox="0 0 16 16" width="16" xmlns="http://www.w3.org/2000/svg"><path d="m3 1a2 2 0 0 0 -2 2v6h1v-6a1 1 0 0 1 1-1h6v-1zm10.303 0c-.4344 0-.86973.16881-1.2012.50586l-6.8008 6.918 2.4004 2.4414 6.8008-6.918c.66286-.6742.66286-1.7672 0-2.4414-.33144-.33705-.76482-.50586-1.1992-.50586zm.69727 6v6a1 1 0 0 1 -1 1h-6v1h6a2 2 0 0 0 2-2v-6zm-9.8848 2.5781c-.48501-.048725-.90521.12503-1.1953.45508-.26373.3-.41992.72958-.41992 1.2383 0 1.6277-3.1385-.17848-.33789 2.6699.88382.899 2.6552.67038 3.5391-.22852.88384-.899.88382-2.357 0-3.2559-.55011-.55955-1.1009-.83018-1.5859-.87891z" fill="#e0e0e0" fill-opacity=".99608"/></svg>
