<svg height="16" viewBox="0 0 16 16" width="16" xmlns="http://www.w3.org/2000/svg"><path d="m8 1c-2.7527 0-5 2.2419-5 4.9903v4.0175c0 2.7484 2.2473 4.9922 5 4.9922s5-2.2438 5-4.9922v-4.0175c0-2.7484-2.2473-4.9903-5-4.9903zm-1.0059 2.1264v4.8576c-.66556-.1047-1.2973-.372-1.9941-.6618v-1.3222c0-1.3474.79838-2.4648 1.9941-2.8736zm2.0118 0c1.1957.4088 1.9941 1.5262 1.9941 2.8736v1.3451c-.68406.3054-1.3142.5732-1.9941.6663zm-4.0059 6.334c.67836.2231 1.3126.447 1.9941.5264v2.8848c-1.1957-.4092-1.9941-1.5242-1.9941-2.8716zm6 .03v.5094c0 1.3474-.79838 2.4619-1.9941 2.8711v-2.8711c.68606-.068 1.3207-.2828 1.9941-.5094z" fill="#ffd684"/></svg>
