<?xml version="1.0" encoding="UTF-8" standalone="no"?>
<svg
   height="16.375999"
   width="14.126321"
   version="1.1"
   id="svg4"
   sodipodi:docname="category_bt.svg"
   inkscape:version="1.2 (dc2aedaf03, 2022-05-15)"
   xmlns:inkscape="http://www.inkscape.org/namespaces/inkscape"
   xmlns:sodipodi="http://sodipodi.sourceforge.net/DTD/sodipodi-0.dtd"
   xmlns="http://www.w3.org/2000/svg"
   xmlns:svg="http://www.w3.org/2000/svg">
  <defs
     id="defs8" />
  <sodipodi:namedview
     id="namedview6"
     pagecolor="#ffffff"
     bordercolor="#000000"
     borderopacity="0.25"
     inkscape:showpageshadow="2"
     inkscape:pageopacity="0.0"
     inkscape:pagecheckerboard="0"
     inkscape:deskcolor="#d1d1d1"
     showgrid="false"
     inkscape:zoom="15.273506"
     inkscape:cx="7.071068"
     inkscape:cy="10.377447"
     inkscape:window-width="1920"
     inkscape:window-height="1051"
     inkscape:window-x="-9"
     inkscape:window-y="-9"
     inkscape:window-maximized="1"
     inkscape:current-layer="svg4" />
  <path
     d="m 11.48968,7.688 q -0.354,0 -0.76,-0.219 -0.406,-0.219 -0.552,-0.51 L 9.5736798,6 q -0.167,-0.291 -0.167,-0.729 0,-0.437 0.167,-0.729 L 10.07368,3.667 q 0.146,-0.291 0.552,-0.531 0.406,-0.24 0.76,-0.24 h 0.875 q 0.375,0 0.792,0.219 0.417,0.219 0.562,0.552 l 0.355,0.854 q 0.145,0.334 0.156,0.761 0.01,0.427 -0.136,0.76 l -0.396,0.875 q -0.145,0.333 -0.552,0.552 -0.406,0.219 -0.781,0.219 z m -4.8120002,2.917 q -0.354,0 -0.761,-0.219 -0.406,-0.219 -0.573,-0.531 l -0.374,-0.917 q -0.146,-0.312 -0.146,-0.75 0,-0.438 0.146,-0.75 l 0.374,-0.917 q 0.167,-0.312 0.573,-0.531 0.407,-0.219 0.761,-0.219 h 0.771 q 0.375,0 0.781,0.219 0.406,0.219 0.552,0.531 l 0.396,0.917 q 0.146,0.312 0.146,0.75 0,0.438 -0.146,0.75 l -0.396,0.917 q -0.146,0.312 -0.552,0.531 -0.406,0.219 -0.781,0.219 z m 0,-5.813 q -0.354,0 -0.761,-0.219 -0.406,-0.218 -0.573,-0.531 l -0.374,-0.875 q -0.146,-0.333 -0.146,-0.771 0,-0.437 0.146,-0.75 l 0.374,-0.896 q 0.167,-0.312 0.573,-0.531 0.407,-0.219 0.761,-0.219 h 0.771 q 0.375,0 0.781,0.219 0.406,0.219 0.552,0.531 l 0.396,0.896 q 0.146,0.313 0.146,0.75 0,0.438 -0.146,0.771 l -0.396,0.875 q -0.146,0.313 -0.552,0.531 -0.406,0.219 -0.781,0.219 z m -4.813,2.896 q -0.375,0 -0.771,-0.219 Q 0.69867978,7.25 0.53167978,6.917 l -0.375,-0.875 Q -0.01032022,5.709 6.7977528e-4,5.282 0.01067978,4.855 0.17767978,4.521 l 0.333,-0.854 q 0.167,-0.333 0.57300002,-0.552 0.406,-0.219 0.781,-0.219 h 0.771 q 0.375,0 0.781,0.219 0.407,0.219 0.573,0.552 l 0.334,0.854 q 0.166,0.334 0.177,0.761 0.01,0.427 -0.157,0.76 l -0.374,0.875 q -0.167,0.333 -0.563,0.552 -0.396,0.219 -0.771,0.219 z m 0,5.75 q -0.375,0 -0.781,-0.219 Q 0.67767978,13 0.51067978,12.667 l -0.333,-0.854 Q 0.01067978,11.48 6.7977528e-4,11.053 -0.01032022,10.626 0.15667978,10.292 l 0.375,-0.875 q 0.167,-0.333 0.56200002,-0.552 0.396,-0.219 0.771,-0.219 h 0.771 q 0.375,0 0.771,0.219 0.396,0.219 0.563,0.552 l 0.374,0.875 q 0.167,0.334 0.157,0.761 -0.011,0.427 -0.177,0.76 l -0.334,0.854 q -0.166,0.333 -0.573,0.552 -0.406,0.219 -0.781,0.219 z m 4.855,2.938 q -0.355,0 -0.761,-0.219 -0.406,-0.219 -0.594,-0.531 l -0.375,-0.896 q -0.166,-0.313 -0.166,-0.75 0,-0.438 0.146,-0.771 l 0.374,-0.875 q 0.167,-0.313 0.573,-0.531 0.407,-0.219 0.761,-0.219 h 0.771 q 0.375,0 0.781,0.219 0.406,0.218 0.552,0.531 l 0.396,0.875 q 0.146,0.333 0.146,0.771 0,0.437 -0.146,0.75 l -0.396,0.896 q -0.146,0.312 -0.552,0.531 -0.406,0.219 -0.781,0.219 z M 11.48968,13.438 q -0.354,0 -0.77,-0.219 -0.417,-0.219 -0.563,-0.51 L 9.5936798,11.771 q -0.166,-0.291 -0.177,-0.718 -0.01,-0.427 0.157,-0.719 L 10.17768,9.376 q 0.146,-0.292 0.552,-0.511 0.406,-0.219 0.76,-0.219 h 0.771 q 0.375,0 0.781,0.219 0.407,0.219 0.552,0.552 l 0.396,0.875 q 0.146,0.334 0.136,0.761 -0.011,0.427 -0.156,0.76 l -0.355,0.854 q -0.145,0.333 -0.562,0.552 -0.417,0.219 -0.792,0.219 z"
     id="path2"
     style="fill:#c689ff;fill-opacity:1" />
</svg>
