<svg xmlns="http://www.w3.org/2000/svg" width="16" height="16" viewBox="-249.5 250.5 16 16"><path fill="#fc7f7f" d="m-244.207 259.916c-.158-.786-.923-1.295-1.707-1.138-.212.045-.413.136-.587.267-.639-.482-1.546-.355-2.029.283-.482.637-.355 1.545.284 2.027.174.131.375.222.587.265v1.762c-.784.158-1.292.921-1.134 1.705s.921 1.292 1.705 1.135c.212-.044.414-.134.588-.265.638.482 1.545.354 2.028-.282.482-.64.356-1.546-.283-2.029-.173-.13-.375-.223-.588-.264v-1.763c.786-.156 1.294-.919 1.136-1.703z"/><path fill="#b56d6d" d="m-244.744 257.744c-.124-.056-.244-.121-.357-.196-1.122-.747-1.428-2.269-.682-3.394.125-.188.276-.35.441-.492v-.043c.038-.008.071-.022.107-.033.185-.143.388-.255.605-.34.347-.331.524-.825.422-1.33-.158-.786-.923-1.295-1.707-1.138-.212.045-.413.136-.587.267-.639-.482-1.546-.355-2.029.283-.482.637-.355 1.545.284 2.027.174.131.375.222.587.265v1.762c-.784.158-1.292.921-1.134 1.705s.921 1.292 1.705 1.135c.212-.044.414-.134.588-.265.563.426 1.334.375 1.84-.08-.023-.047-.061-.084-.083-.133z"/><path fill="#fc7f7f" d="M-238.051 254.294c.444-.668.263-1.568-.402-2.011-.182-.118-.388-.196-.604-.227-.11-.793-.842-1.345-1.635-1.234-.791.108-1.343.841-1.233 1.634.03.216.108.422.229.603l-1.246 1.246c-.666-.443-1.564-.263-2.007.403-.442.667-.262 1.564.403 2.008.181.119.388.198.603.229.11.793.842 1.344 1.634 1.235.793-.111 1.345-.841 1.234-1.636-.03-.214-.107-.422-.229-.602l1.247-1.246c.664.444 1.563.264 2.006-.402zM-239.5 261h-2.499v3.001h2.499v1.499h-2.499c-.83 0-1.501-.671-1.501-1.499v-3.001c0-.829.671-1.5 1.501-1.5h2.499zM-234.5 261h-2.499v3.001h2.499v1.499h-2.499c-.828 0-1.498-.671-1.498-1.499v-3.001c0-.829.67-1.5 1.498-1.5h2.499z"/></svg>
