<svg xmlns="http://www.w3.org/2000/svg" width="16" height="16"><path fill="#fff" stroke="#000" stroke-linejoin="round" stroke-width="1.3" d="M 6.03125 0.96875 L 4.96875 2.03125 L 7.46875 4.53125 A 0.750075 0.750075 0 0 0 8.53125 4.53125 L 11.03125 2.03125 L 9.96875 0.96875 L 8 2.9375 L 6.03125 0.96875 z M 2.03125 4.96875 L 0.96875 6.03125 L 2.9375 8 L 0.96875 9.96875 L 2.03125 11.03125 L 4.53125 8.53125 A 0.750075 0.750075 0 0 0 4.53125 7.46875 L 2.03125 4.96875 z M 13.96875 4.96875 L 11.46875 7.46875 A 0.750075 0.750075 0 0 0 11.46875 8.53125 L 13.96875 11.03125 L 15.03125 9.96875 L 13.0625 8 L 15.03125 6.03125 L 13.96875 4.96875 z M 7.2949219 6.5878906 C 6.9038179 6.5878906 6.5878906 6.9038179 6.5878906 7.2949219 L 6.5878906 8.7050781 C 6.5878906 9.096182 6.9038179 9.4121094 7.2949219 9.4121094 L 8.7050781 9.4121094 C 9.096182 9.4121094 9.4121094 9.096182 9.4121094 8.7050781 L 9.4121094 7.2949219 C 9.4121094 6.9038179 9.096182 6.5878906 8.7050781 6.5878906 L 7.2949219 6.5878906 z M 8 11.248047 A 0.750075 0.750075 0 0 0 7.46875 11.46875 L 4.96875 13.96875 L 6.03125 15.03125 L 8 13.0625 L 9.96875 15.03125 L 11.03125 13.96875 L 8.53125 11.46875 A 0.750075 0.750075 0 0 0 8 11.248047 z" paint-order="stroke markers fill"/></svg>
