<svg height="16" viewBox="0 0 16 16" width="16" xmlns="http://www.w3.org/2000/svg"><circle cx="4" cy="12" fill="none" r="2"/><g fill="#e0e0e0"><path d="m7.3333333 6c-.7386666 0-1.3333333.5946667-1.3333333 1.3333333v1.3333334c0 .7386663.5946667 1.3333333 1.3333333 1.3333333h1.3333334c.7386666 0 1.3333333-.594667 1.3333333-1.3333333v-1.3333334c0-.7386666-.5946667-1.3333333-1.3333333-1.3333333z" stroke-width=".666667"/><g stroke-width=".830398"><path d="m2.9918978 5.5000002c-.7478701.0001968-1.1170118.9026572-.5810669 1.4205652l.2441488.2424178h-2.15497967v1.6548989h2.15497967l-.2441488.242418c-.8159014.77992.3929613 1.9802119 1.178451 1.1700959l1.6667154-1.6548989c.3253369-.3231472.3253369-.8469488 0-1.170096l-1.6667154-1.6548989c-.1568986-.1601378-.3723426-.2504824-.5973507-.2504937z"/><path d="m13.008102 10.5c.74787-.000197 1.117012-.9026571.581067-1.4205651l-.244149-.242418h2.15498v-1.6548988h-2.15498l.244149-.2424179c.815901-.7799207-.392961-1.9802122-1.178451-1.1700961l-1.666715 1.6548987c-.325337.3231474-.325337.846949 0 1.1700961l1.666715 1.6548991c.156899.160138.372343.250482.597351.250494z"/><path d="m5.5000001 13.008102c.000197.74787.902657 1.117012 1.420565.581067l.242418-.244149v2.15498h1.654899v-2.15498l.242418.244149c.77992.815901 1.9802119-.392961 1.1700959-1.178451l-1.6548989-1.666715c-.323147-.325337-.846949-.325337-1.170096 0l-1.654899 1.666715c-.160138.156899-.250482.372343-.250494.597351z"/><path d="m10.5 2.9918983c-.000197-.7478701-.9026571-1.1170121-1.4205651-.581067l-.242418.244149v-2.1549801h-1.6548989v2.1549801l-.242418-.2441491c-.77992-.815901-1.9802121.3929611-1.170096 1.1784512l1.654899 1.6667148c.3231469.325337.8469489.325337 1.1700959 0l1.6548991-1.6667148c.160138-.156899.250482-.3723431.250494-.597351z"/></g></g></svg>
