<svg height="16" viewBox="0 0 16 16" width="16" xmlns="http://www.w3.org/2000/svg"><path d="m6 1c-.55401 0-1 .44599-1 1v3c0 .55401.44599 1 1 1h1v.99023a1.0001 1.0001 0 0 0 -.31641.0625l-2.0508.68359-.68359-2.0508a1.0001 1.0001 0 0 0 -.99023-.69727 1.0001 1.0001 0 0 0 -.9082 1.3281l1 3a1.0001 1.0001 0 0 0 1.2656.63281l1.6836-.56055v.61133c0 .04088.018715.07566.023437.11523l-4.5781 3.0527a1.0001 1.0001 0 1 0 1.1094 1.6641l5.0566-3.3711 1.4941 2.9863a1.0001 1.0001 0 0 0 1.2109.50195l3-1a1.0001 1.0001 0 1 0 -.63281-1.8965l-2.1777.72461-.97461-1.9512c.2759-.17764.46875-.47227.46875-.82617v-1h1.3828l.72266 1.4473a1.0001 1.0001 0 1 0 1.7891-.89453l-1-2a1.0001 1.0001 0 0 0 -.89453-.55273h-3v-1h1c.55401 0 1-.44599 1-1v-3c0-.55401-.44599-1-1-1zm0 2h1v2h-1z" fill="#fc7f7f" fill-opacity=".99608"/></svg>
