<svg xmlns="http://www.w3.org/2000/svg" width="16" height="16"><path fill="#fc7f7f" d="M6.492 1a1 1 0 0 0-1 1v3a1 1 0 0 0 1 1h1v.99a1 1 0 0 0-.316.062l-2.051.684-.684-2.051a1 1 0 0 0-1.898.631l1 3a1 1 0 0 0 1.265.633l1.684-.56v.61c0 .041.019.076.024.116l-4.579 3.052a1 1 0 1 0 1.11 1.664l5.056-3.37 1.495 2.986a1 1 0 0 0 1.21.502l3-1a1 1 0 1 0-.632-1.897l-2.178.725-.975-1.951a.981.981 0 0 0 .469-.827V9h1.383l.722 1.448a1 1 0 1 0 1.79-.895l-1-2A1 1 0 0 0 12.492 7h-3V6h1a1 1 0 0 0 1-1V2a1 1 0 0 0-1-1zm0 2h1v2h-1z"/></svg>