<svg height="16" viewBox="0 0 16 16" width="16" xmlns="http://www.w3.org/2000/svg"><path d="m6.5 12v4h3v-1h-2v-3zm-1 0h-2c-.5 0-1 .5-1 1v2c-.01829.53653.5 1 1 1h2v-1h-2v-2h2zm4-12c-1.5691.0017903-2.8718 1.2125-2.9883 2.7773-.55103-.49952-1.268-.77655-2.0117-.77734-1.6569 0-3 1.3431-3 3 .00179 1.2698.80282 2.4009 2 2.8242v2.1758c0 .554.44599 1 1 1h6c.55401 0 1-.446 1-1v-1l3 2v-6l-3 2v-1.7695c.63486-.56783.99842-1.3788 1-2.2305 0-1.6569-1.3431-3-3-3zm1 12v4h1v-1h1c.55228 0 1-.44772 1-1v-1c0-.55228-.44775-.99374-1-1h-1zm1 1h1v1h-1z" fill="#fc7f7f"/></svg>
