<svg xmlns="http://www.w3.org/2000/svg" width="16" height="16"><path fill="#e0e0e0" d="m 14.564,2 -2.244,0.328 0.818,1.9 1.715,-0.25 z M 10.341,2.615 8.363,2.905 9.181,4.807 11.16,4.517 Z M 6.382,3.193 4.404,3.483 5.222,5.385 7.201,5.095 Z M 2.425,3.771 0.711,4.021 1,6 3.244,5.672 Z M 1,7 v 6 c 0,1.104569 0.8954305,2 2,2 H 8.635 L 7.051,13.416 8.465,12.002 7.051,10.588 10.586,7.053 12,8.467 13.414,7.053 15,8.467 V 7 Z"/><path fill="#ff5f5f" d="M 13.414,12 14.828,10.586 13.414,9.172 12,10.586 10.586,9.172 9.172,10.586 10.586,12 9.172,13.414 10.586,14.828 12,13.414 l 1.414,1.414 1.414,-1.414 z"/></svg>
