<svg height="16" viewBox="0 0 16 16" width="16" xmlns="http://www.w3.org/2000/svg"><path d="m7.9824 1a1.0001 1.0001 0 0 0 -.81445.44531l-4.7012 7.0527c-.80117.58197-1.3801 1.3563-1.4492 2.3145a1.0001 1.0001 0 0 0 -.017578.1875c0 .21449.033976.41628.082031.61328.0071983.028314.015306.055972.023438.083985.053631.19149.1274.37452.2207.54883.19678.36764.47105.69651.80273.98633.007988.007025.013442.016473.021484.023437.016953.014679.03747.026532.054688.041016.10299.086112.21259.16531.32422.24414.23883.16992.49083.33075.76953.4707.0025295.00127.0052799.002638.0078125.003906.001313.000658.0025928.001296.0039063.001953.0085785.00429.018732.007456.027344.011719.26499.13103.55174.24596.84961.35156.10487.037634.21202.071147.32031.10547.072945.022902.1402.050715.21484.072266.16777.04843.34161.086385.51367.12695.093562.021905.18185.048745.27734.068359.010733.002205.022447.003684.033203.00586.34623.071177.69974.12196 1.0566.16211.057889.006228.11544.01213.17383.017578.81052.079498 1.6348.079498 2.4453 0 .058387-.005448.11594-.01135.17383-.017578.3569-.040146.71041-.090932 1.0566-.16211.010948-.002251.022269-.003578.033203-.00586.095491-.019614.18378-.046454.27734-.068359.17206-.040568.3459-.078523.51367-.12695.074642-.021551.1419-.049364.21484-.072266.10829-.034322.21544-.067835.32031-.10547.29787-.1056.58462-.22053.84961-.35156.009951-.00492.021348-.008715.03125-.013672.002626-.001315.005189-.002588.007813-.003906.2787-.13995.5307-.30078.76953-.4707.11163-.07883.22123-.15803.32422-.24414.017218-.014484.037734-.026337.054687-.041016.008042-.006964.013497-.016412.021485-.023437.33169-.28982.60596-.61869.80273-.98633.093299-.17431.16707-.35733.2207-.54883.008132-.028013.016239-.055671.023438-.083985.048055-.197.082031-.39879.082031-.61328a1.0001 1.0001 0 0 0 -.017578-.18164 1.0001 1.0001 0 0 0 -.001953-.017578c-.073081-.95265-.64941-1.7232-1.4473-2.3027l-4.7012-7.0527a1.0001 1.0001 0 0 0 -.84961-.44531zm-.98242 4.3027v1.7461c-.43911.033461-.86366.087835-1.2734.16406l1.2734-1.9102zm2 0 1.2734 1.9102c-.40978-.076228-.83432-.1306-1.2734-.16406v-1.7461zm-2 3.748v1.9492a1.0001 1.0001 0 1 0 2 0v-1.9492c1.1126.10487 2.0951.37277 2.7949.72266.12146.060728.20622.12218.30664.18359l.80078 1.2012c-.032965.14677-.089654.30658-.30469.51758-.051464.049149-.10034.098137-.16406.14844-.045193.035312-.091373.070148-.14258.10547-.11245.07827-.24511.15838-.39062.23633-.075428.040204-.1553.078371-.23828.11719-.16195.075482-.33452.14662-.52148.21289-.070588.025324-.14454.048409-.21875.072265-.23425.074473-.48077.14392-.74414.20117-.021343.004579-.041038.011189-.0625.015625-.2559.05368-.53101.090517-.80859.125-.856.10229-1.7573.10229-2.6133 0-.27759-.034483-.5527-.07132-.80859-.125-.021462-.004436-.041156-.011046-.0625-.015625-.26337-.057254-.50989-.1267-.74414-.20117-.074211-.023856-.14816-.046941-.21875-.072265-.18697-.066266-.35954-.13741-.52148-.21289-.082979-.038816-.16285-.076983-.23828-.11719-.14552-.077951-.27818-.15806-.39062-.23633-.051205-.035321-.097386-.070157-.14258-.10547-.06372-.050301-.1126-.099289-.16406-.14844-.21503-.21099-.27173-.37081-.30469-.51758l.80078-1.2012c.10043-.061415.18518-.12287.30664-.18359.69978-.34989 1.6823-.61778 2.7949-.72266z" fill="#fc7f7f"/></svg>
