<svg height="16" viewBox="0 0 16 16" width="16" xmlns="http://www.w3.org/2000/svg"><path d="m3 1c-1.1046 0-2 .8954-2 2v1h14v-1c0-1.1046-.89543-2-2-2zm9 1h1v1h-1zm-11 3v8c0 1.1046.89543 2 2 2h10c1.1046 0 2-.8954 2-2v-8zm6.9863 1.002c.34689-.0022844.6986.055762 1.0391.17969 1.3618.4956 2.1813 1.9126 1.9297 3.3398-.19105 1.0835-.96172 1.9461-1.9551 2.3008v.17773h-1-1v-.8418a1.0001 1.0001 0 0 1 1-1.1582c.49193 0 .89895-.34177.98438-.82617.085424-.4845-.18031-.94508-.64258-1.1133-.46227-.1683-.96106.013453-1.207.43945a1.0002 1.0002 0 0 1 -1.7324-1c.54346-.94148 1.5433-1.4912 2.584-1.498zm-.98633 6.998h2v1h-2z" fill="#e0e0e0"/></svg>
