<svg xmlns="http://www.w3.org/2000/svg" width="16" height="16"><g fill="#fc7f7f"><path d="M2.55 9.942c.61-.92 1.634-1.469 2.739-1.469.363 0 .72.06 1.059.175l2.301-2.302c-.067-.197-.115-.4-.143-.606-.248-1.787.996-3.44 2.777-3.702-.086-.022-.169-.053-.256-.065-.175-1.251-1.329-2.124-2.581-1.95-1.251.173-2.124 1.328-1.95 2.58.047.34.17.665.36.952l-3.301 3.3c-1.052-.699-2.472-.414-3.171.64-.7 1.052-.414 2.47.638 3.17.286.189.611.313.952.361.014.101.044.194.07.289.063-.476.222-.946.506-1.373zM12.5 9v1h-1.001c-1.38 0-2.499 1.119-2.499 2.5 0 .542.176 1.068.501 1.5l.706-.707c-.438-.702-.224-1.629.479-2.067.245-.151.525-.229.813-.226h1.001v.999l2-1.499zm2.999 2-.706.707c.438.702.224 1.629-.479 2.068-.246.15-.525.229-.813.225h-1.001v-.999l-2 1.499 2 1.5v-1.002h1.002c1.381 0 2.498-1.117 2.498-2.498 0-.542-.174-1.067-.501-1.5z"/><path d="m8.702 14.602c-.452-.601-.702-1.348-.702-2.102 0-1.93 1.569-3.5 3.499-3.5h.001c0-.379.214-.725.553-.895.141-.07.295-.105.447-.105.212 0 .424.068.6.2l1.515 1.136c.395-.169.747-.448 1.003-.832.699-1.051.414-2.471-.638-3.17-.287-.19-.613-.313-.952-.361-.174-1.251-1.329-2.125-2.581-1.951-1.251.174-2.124 1.329-1.95 2.581.047.34.17.666.36.952l-3.302 3.301c-1.053-.699-2.473-.415-3.172.639-.699 1.052-.414 2.471.639 3.171.285.189.61.313.951.361.174 1.251 1.33 2.124 2.581 1.95.697-.097 1.268-.504 1.614-1.057-.181-.065-.348-.162-.466-.318z"/></g></svg>
