<svg xmlns="http://www.w3.org/2000/svg" width="16" height="16"><g fill="#fc7f7f"><path d="M2.55 9.942c.61-.92 1.634-1.469 2.739-1.469.363 0 .72.06 1.059.175l2.301-2.302c-.067-.197-.115-.4-.143-.606-.248-1.787.996-3.44 2.777-3.702-.086-.022-.169-.053-.256-.065-.175-1.251-1.329-2.124-2.581-1.95-1.251.173-2.124 1.328-1.95 2.58.047.34.17.665.36.952l-3.301 3.3c-1.052-.699-2.472-.414-3.171.64-.7 1.052-.414 2.47.638 3.17.286.189.611.313.952.361.014.101.044.194.07.289.063-.476.222-.946.506-1.373zM10.142 9.146l-1.001 1.002c-.191.199-.186.516.012.709.194.186.503.186.695 0l.147-.147v4.298h4.295l-.146.144c-.191.2-.186.518.014.709.194.188.501.188.693 0l1.003-1.002c.195-.196.195-.511 0-.707l-1.003-1c-.197-.194-.514-.189-.707.012-.187.193-.187.501 0 .696l.146.146h-2.587l2.795-2.797v.209c0 .276.224.5.5.5.275 0 .5-.224.5-.5v-1.418c0-.275-.225-.499-.5-.499h-1.417c-.275 0-.499.224-.499.499 0 .277.224.501.499.501h.209l-2.796 2.794v-2.587l.147.147c.199.19.516.187.708-.013.188-.196.188-.501 0-.695l-1-1.003c-.196-.193-.512-.193-.707.002z"/><path d="m8.995 15.007v-3.099c-.198-.071-.383-.185-.543-.338-.586-.575-.601-1.523-.019-2.13l1.003-1.004c.284-.281.66-.436 1.06-.436.397 0 .772.154 1.062.439l.758.76c.266-.419.733-.697 1.266-.697h1.417c.189 0 .369.039.536.104.026-.035.059-.063.083-.101.699-1.051.414-2.471-.638-3.17-.287-.19-.613-.313-.952-.361-.174-1.251-1.329-2.125-2.581-1.951-1.251.174-2.124 1.329-1.95 2.581.047.34.17.666.36.952l-3.302 3.3c-1.053-.699-2.473-.415-3.172.639-.699 1.052-.414 2.471.639 3.171.285.189.61.313.951.361.174 1.251 1.33 2.124 2.581 1.95.59-.082 1.09-.387 1.441-.813z"/></g></svg>
