<svg height="16" viewBox="0 0 16 16" width="16" xmlns="http://www.w3.org/2000/svg"><path d="M4.586.5a.764.764 0 0 0-.764.764v.6h-1.2a.764.764 0 0 0-.764.764v1.2h-.6a.764.764 0 0 0-.764.764v.4a.764.764 0 0 0 .764.764h.6v4.5h-.6a.764.764 0 0 0-.764.764v.4a.764.764 0 0 0 .764.764h.6v1.2a.764.764 0 0 0 .764.764h1.2v.6a.764.764 0 0 0 .764.764h.4a.764.764 0 0 0 .764-.764v-.6h4.5v.6a.764.764 0 0 0 .764.764h.4a.764.764 0 0 0 .764-.764v-.6h1.2a.764.764 0 0 0 .764-.764v-1.2h.6a.764.764 0 0 0 .764-.764v-.4a.764.764 0 0 0-.764-.764h-.6v-4.5h.6a.764.764 0 0 0 .764-.764v-.4a.764.764 0 0 0-.764-.764h-.6v-1.2a.764.764 0 0 0-.764-.763h-1.2v-.6a.764.764 0 0 0-.764-.764h-.4a.764.764 0 0 0-.764.764v.6h-4.5v-.6a.764.764 0 0 0-.764-.764zm6.575 5.3a2.186 2.186 0 0 1-.3 4.349h-5.83a2.186 2.186 0 0 1-.3-4.349 3.28 3.644 0 0 1 6.434 0zM5.084 11a.729.729 0 0 1 0 1.459.729.729 0 0 1 0-1.459zm5.83 0a.729.729 0 0 1 0 1.459.729.729 0 0 1 0-1.459zM8 11.729a.729.729 0 0 1 0 1.459.729.729 0 0 1 0-1.46z" fill="#fc7f7f"/></svg>
