<svg height="16" viewBox="0 0 16 16" width="16" xmlns="http://www.w3.org/2000/svg"><g transform="translate(0 -1036.4)"><path d="m5 1049.4c-2-9-1-10 8-8" fill="none" stroke="#f5f5f5" stroke-opacity=".39216" stroke-width="2"/><g transform="translate(0 1036.4)"><path d="m8.4688.4707-2.6875 2.6875h-.0019531a2 2 0 0 0 -.7793-.1582 2 2 0 0 0 -2 2 2 2 0 0 0 .16016.7793l-2.6914 2.6914 1.0625 1.0605 2.6895-2.6895a2 2 0 0 0 .7793.1582 2 2 0 0 0 2-2 2 2 0 0 0 -.16016-.77734l2.6914-2.6914-1.0625-1.0605z" fill="#5fb2ff"/><path d="m13 3a2 2 0 0 0 -2 2 2 2 0 0 0 2 2 2 2 0 0 0 2-2 2 2 0 0 0 -2-2zm-8 8a2 2 0 0 0 -2 2 2 2 0 0 0 2 2 2 2 0 0 0 2-2 2 2 0 0 0 -2-2z" fill="#f5f5f5"/></g></g></svg>
