<svg xmlns="http://www.w3.org/2000/svg" width="16" height="16"><path fill="none" stroke="#5ab2ff" stroke-width="1.673" d="m 4.1539112,12.162088 c 5.6408697,1.030007 7.6450368,1.16246 7.8620668,-1.213402 C 12.400342,6.740983 3.5127786,10.139097 4.4526688,4.7444758 4.9821339,1.7055424 8.6355639,2.3197404 12.1076,4.1449791"/><path fill="#fff" d="m 4.2301346,2.9933108 c -2.2313068,0 -2.2313068,3.3469616 0,3.3469616 2.2313068,0 2.2313068,-3.3469616 0,-3.3469616 z M 12.17516,2.5615764 c -2.2313071,0 -2.2313071,3.3469617 0,3.3469617 2.231307,0 2.231307,-3.3469617 0,-3.3469617 z M 4.4002999,10.358955 c -2.2313068,0 -2.2313068,3.346962 0,3.346962 2.2313068,0 2.2313068,-3.346962 0,-3.346962 z M 12.033333,9.6644791 c -2.2313062,0 -2.2313062,3.3469609 0,3.3469609 2.231307,0 2.231307,-3.3469609 0,-3.3469609 z"/></svg>
