<svg height="16" viewBox="0 0 16 16" width="16" xmlns="http://www.w3.org/2000/svg"><g transform="translate(0 -1036.4)"><path d="m5 1049.4c-2-9-1-10 8-8" fill="none" stroke="#f5f5f5" stroke-opacity=".39216" stroke-width="2"/><g transform="translate(0 1036.4)"><path d="m5 3a2 2 0 0 0 -2 2 2 2 0 0 0 2 2 2 2 0 0 0 2-2 2 2 0 0 0 -2-2zm8 0a2 2 0 0 0 -2 2 2 2 0 0 0 2 2 2 2 0 0 0 2-2 2 2 0 0 0 -2-2zm-8 8a2 2 0 0 0 -2 2 2 2 0 0 0 2 2 2 2 0 0 0 2-2 2 2 0 0 0 -2-2z" fill="#f5f5f5"/><path d="m10 6v2h2v-2zm0 2h-2v2h2zm-2 2h-2v2h2z" fill="#84c2ff"/></g></g></svg>
