<svg xmlns="http://www.w3.org/2000/svg" width="16" height="16"><path fill="#fff" d="M13 1c-2.667 0-2.667 4 0 4s2.667-4 0-4M3 11c-2.667 0-2.667 4 0 4s2.667-4 0-4m10 0c-2.667 0-2.667 4 0 4s2.667-4 0-4M3 1C.333 1 .333 5 3 5s2.667-4 0-4"/><path fill="#e0e0e0" fill-opacity=".4" d="M1.836 1.836v4.53h2v-2.53h2.537v-2zm7.791 0v2h2.537v2.53h2v-4.53zM1.836 9.619v4.545h4.537v-2H3.836V9.62zm10.328 0v2.545H9.627v2h4.537V9.62z"/><path fill="#5fff97" d="M7.999 6.06c-2.667 0-2.667 4 0 4s2.667-4 0-4M6.999 1.95v3a4 4 0 0 1 2 0v-3zM1.95 7v2h3a4 4 0 0 1 0-2zm9.1 0a4 4 0 0 1 0 2h3V7Zm-4.051 4.05v3h2v-3a4 4 0 0 1-2 0"/></svg>
