<svg height="16" viewBox="0 0 16 16" width="16" xmlns="http://www.w3.org/2000/svg"><path d="m14 1037.4c-3.1667 0-5.1045.854-6.082 2.3203-.97757 1.4664-.91797 3.1797-.91797 4.6797s-.059601 2.7867-.58203 3.5703c-.52243.7837-1.5846 1.4297-4.418 1.4297a1.0001 1.0001 0 1 0 0 2c3.1667 0 5.1045-.8539 6.082-2.3203.97757-1.4663.91797-3.1797.91797-4.6797s.059601-2.7866.58203-3.5703c.52243-.7836 1.5846-1.4297 4.418-1.4297a1.0001 1.0001 0 1 0 0-2z" fill="#e0e0e0" fill-rule="evenodd" transform="translate(0 -1036.4)"/></svg>
