<svg height="16" viewBox="0 0 16 16" width="16" xmlns="http://www.w3.org/2000/svg"><path d="m2 1c-.55228 0-1 .44772-1 1v9.1602c.32185-.10966.66-.16382 1-.16016.33117 0 .66575-.007902 1-.013672v-7.9863h10v1.1348c.29007-.10393.59442-.16256.90234-.17383.37315-.012796.74541.044169 1.0977.16797v-2.1289c0-.55228-.44772-1-1-1h-12zm7 4v1h-1v1h-2v1h-1v1h-1v1h2 2 .39062c1.1119-.56677 1.9678-1.4538 2.6094-3.4727v-.52734h-1v-1h-1zm4.9668.98828a1.0001 1.0001 0 0 0 -.92774.73828c-.92743 3.246-2.6356 4.6825-4.6523 5.4668-2.0168.7843-4.3867.80664-6.3867.80664a1.0001 1.0001 0 1 0 0 2c2 0 4.6301.023994 7.1133-.94141 2.4832-.9657 4.7751-3.0292 5.8477-6.7832a1.0001 1.0001 0 0 0 -.99414-1.2871z" fill="#e0e0e0" fill-opacity=".99608"/></svg>
