<svg height="16" viewBox="0 0 16 16" width="16" xmlns="http://www.w3.org/2000/svg"><g transform="translate(0 -1036.4)"><path d="m5 1049.4c-2-9-1-10 8-8" fill="none" stroke="#f5f5f5" stroke-opacity=".39216" stroke-width="2"/><g transform="translate(0 1036.4)"><path d="m5 3a2 2 0 0 0 -2 2 2 2 0 0 0 2 2 2 2 0 0 0 2-2 2 2 0 0 0 -2-2zm6 5v3h-3v2h3v3h2v-3h3v-2h-3v-3z" fill="#5fff97"/><path d="m13 3a2 2 0 0 0 -2 2 2 2 0 0 0 2 2 2 2 0 0 0 2-2 2 2 0 0 0 -2-2zm-8 8a2 2 0 0 0 -2 2 2 2 0 0 0 2 2 2 2 0 0 0 2-2 2 2 0 0 0 -2-2z" fill="#f5f5f5"/></g></g></svg>
