<svg height="16" viewBox="0 0 16 16" width="16" xmlns="http://www.w3.org/2000/svg"><g transform="translate(0 -1036.4)"><path d="m5 1049.4c-2-9-1-10 8-8" fill="none" stroke="#f5f5f5" stroke-opacity=".39216" stroke-width="2"/><g transform="translate(0 1036.4)"><path d="m5 3a2 2 0 0 0 -2 2 2 2 0 0 0 2 2 2 2 0 0 0 2-2 2 2 0 0 0 -2-2zm3 5 3.291 8 .94726-2.8203 1.8828 1.8828.94336-.94141-1.8848-1.8828 2.8203-.94726-8-3.291z" fill="#5fb2ff"/><path d="m13 3a2 2 0 0 0 -2 2 2 2 0 0 0 2 2 2 2 0 0 0 2-2 2 2 0 0 0 -2-2zm-8 8a2 2 0 0 0 -2 2 2 2 0 0 0 2 2 2 2 0 0 0 2-2 2 2 0 0 0 -2-2z" fill="#f5f5f5"/></g></g></svg>
