<svg height="16" viewBox="0 0 14.999999 14.999999" width="16" xmlns="http://www.w3.org/2000/svg"><path d="m7.5.9375c-1.6377 0-3.12.2123-4.2737.5969-.57682.1923-1.0754.4237-1.4905.7508-.41505.3271-.79834.8259-.79834 1.4648v7.5c0 .6389.38329 1.1396.79834 1.4667s.91366.5585 1.4905.7507c1.1536.3846 2.6359.5951 4.2737.5951s3.12-.2105 4.2737-.5951c.57682-.1922 1.0754-.4236 1.4905-.7507.41505-.3271.79834-.8278.79834-1.4667v-7.5c0-.6389-.38329-1.1377-.79834-1.4648s-.91366-.5585-1.4905-.7508c-1.1536-.3846-2.6359-.5969-4.2737-.5969zm0 1.875c1.4689 0 2.8.2076 3.6823.5017.4347.1449.7513.3163.9082.4376-.15705.1212-.47387.2911-.9082.4358-.88221.2941-2.2134.4999-3.6823.4999s-2.8-.2058-3.6823-.4999c-.43433-.1447-.75115-.3146-.9082-.4358.15691-.1213.47351-.2927.9082-.4376.88221-.2941 2.2134-.5017 3.6823-.5017zm-4.6875 2.9883c.13762.055.26578.1173.41382.1666 1.1536.3846 2.6359.5951 4.2737.5951s3.12-.2105 4.2737-.5951c.14804-.049.2762-.1112.41382-.1666v5.4492c-.15705.1212-.57092.2929-1.0052.4376-.88221.2941-2.2134.4999-3.6823.4999s-2.8-.2058-3.6823-.4999c-.43433-.1447-.8482-.3164-1.0052-.4376z" fill="#ffca5f"/></svg>
