<svg height="16" viewBox="0 0 16 16" width="16" xmlns="http://www.w3.org/2000/svg"><path d="M8 1a5 5 0 0 0-3.535 1.465 1 1 0 0 0 1.414 1.414 3 3 0 0 1 4.242 0 1 1 0 0 0 1.414-1.414A5 5 0 0 0 8 1zM3 4.996a1 1 0 0 0-1 1c0 .833.327 1.697.969 2.5.33.413.77.796 1.3 1.072a4 4 0 0 0-.136.432H2a1 1 0 0 0 0 2h2.131a4 4 0 0 0 .18.537c-.142.09-.279.185-.41.283-.586.44-1.108.97-1.608 1.47a1 1 0 0 0 1.414 1.413c.5-.5.978-.972 1.393-1.283.17-.127.31-.203.443-.27a4 4 0 0 0 4.914 0c.133.067.273.142.442.268.414.311.892.783 1.392 1.283a1 1 0 0 0 1.414-1.414c-.5-.5-1.022-1.03-1.607-1.469a6.236 6.236 0 0 0-.408-.28 4 4 0 0 0 .175-.54h2.133a1 1 0 0 0 0-2h-2.13a4 4 0 0 0-.135-.434 4.117 4.117 0 0 0 1.296-1.07c.643-.803.97-1.666.97-2.5a1 1 0 0 0-2 0c0 .167-.174.803-.532 1.25-.25.314-.549.55-.932.666a4 4 0 0 0-.603-.412 2 2 0 1 0-3.867 0 4 4 0 0 0-.604.408c-.383-.117-.68-.352-.931-.666-.358-.447-.532-1.083-.532-1.25a1 1 0 0 0-1-1z" fill="#e0e0e0"/></svg>
