<svg height="16" viewBox="0 0 16 16" width="16" xmlns="http://www.w3.org/2000/svg"><path d="m8 1c-1.3257 0-2.5977.52744-3.5352 1.4648a1 1 0 0 0 0 1.4141 1 1 0 0 0 .69141.29297 1 1 0 0 0 .72266-.29297c.56288-.5628 1.3251-.87891 2.1211-.87891s1.5582.31611 2.1211.87891a1 1 0 0 0 1.4141 0 1 1 0 0 0 0-1.4141c-.93741-.9374-2.2095-1.4648-3.5352-1.4648zm-5 3.9961a1 1 0 0 0 -1 1c0 .8334.32654 1.6973.96875 2.5.33016.41272.7705.79575 1.3008 1.0723a4 4 0 0 0 -.13672.43164h-2.1328a1 1 0 0 0 -1 1 1 1 0 0 0 1 1h2.1309a4 4 0 0 0 .17969.53711c-.14177.089422-.27868.1846-.41016.2832-.58533.439-1.1074.96875-1.6074 1.4688a1 1 0 0 0 0 1.4141 1 1 0 0 0 1.4141 0c.5-.5.97791-.9722 1.3926-1.2832.1693-.12693.3098-.20282.44336-.26953a4 4 0 0 0 2.457.84961 4 4 0 0 0 2.459-.84766c.13307.066645.27298.14126.44141.26758.41467.311.89258.7832 1.3926 1.2832a1 1 0 0 0 1.4141 0 1 1 0 0 0 0-1.4141c-.5-.5-1.0221-1.0297-1.6074-1.4688-.13076-.098068-.26727-.19224-.4082-.28125a4 4 0 0 0 .17578-.53906h2.1328a1 1 0 0 0 1-1 1 1 0 0 0 -1-1h-2.1309a4 4 0 0 0 -.13477-.43359c.52857-.27637.96751-.65858 1.2969-1.0703.64221-.8027.96875-1.6666.96875-2.5a1 1 0 0 0 -1-1 1 1 0 0 0 -1 1c0 .1667-.17346.8028-.53125 1.25-.25089.31365-.54884.54907-.93164.66602a4 4 0 0 0 -.60352-.41211 2 2 0 0 0 .066406-.5 2 2 0 0 0 -2-2 2 2 0 0 0 -2 2 2 2 0 0 0 .066406.50391 4 4 0 0 0 -.60352.4082c-.3828-.11694-.68075-.35236-.93164-.66602-.35779-.4472-.53125-1.0833-.53125-1.25a1 1 0 0 0 -1-1z" fill="#e0e0e0"/></svg>
