<svg height="16" viewBox="0 0 16 16" width="16" xmlns="http://www.w3.org/2000/svg"><path d="m8 2c-3.3137085 0-6 2.6862915-6 6 0 2.220299 1.2092804 4.153789 3.0019531 5.191406l8.9082029-6.1894529c-.476307-2.8374399-2.937354-5.0019531-5.910156-5.0019531z" fill="#fc7f7f"/><path d="m5.001954 13.191406 8.908202-6.1894529c-.882819-.510985-1.904638-.808594-2.998046-.808594-3.3137079 0-6 2.686292-6 5.9999999 0 .340906.03522.672663.08984.998047z" fill="#ff5d5d"/><path d="m13.910156 7.0019531-8.908202 6.1894529c.882819.510985 1.904638.808594 2.998046.808594 3.313708 0 6-2.686292 6-5.9999999 0-.340906-.03522-.672663-.08984-.998047z" fill="#fc7f7f" fill-opacity=".392157"/></svg>
