<svg xmlns="http://www.w3.org/2000/svg" xmlns:xlink="http://www.w3.org/1999/xlink" xml:space="preserve" width="128" height="128"><defs><linearGradient id="a"><stop offset=".045" stop-color="#7f24ce"/><stop offset="1" stop-color="#f87cfe"/></linearGradient><linearGradient xlink:href="#a" id="b" x1="635.831" x2="721.822" y1="589.778" y2="368.408" gradientTransform="translate(2.219 4.067)scale(.119)" gradientUnits="userSpaceOnUse"/><linearGradient xlink:href="#a" id="c" x1="496.519" x2="635.831" y1="813.477" y2="589.778" gradientTransform="translate(2.219 4.067)scale(.119)" gradientUnits="userSpaceOnUse"/><linearGradient xlink:href="#a" id="d" x1="269.585" x2="488.27" y1="847.204" y2="393.079" gradientTransform="translate(2.219 4.067)scale(.119)" gradientUnits="userSpaceOnUse"/></defs><path fill="#230d26" stroke="#f87cfe" stroke-linecap="round" stroke-linejoin="round" stroke-width="7.909" d="m 18.966,3.954 h 90.068 a 15.01,15.01 0 0 1 15.012,15.012 v 90.068 a 15.01,15.01 0 0 1 -15.012,15.012 H 18.966 A 15.01,15.01 0 0 1 3.954,109.034 V 18.966 A 15.01,15.01 0 0 1 18.966,3.954" paint-order="markers stroke fill"/><path fill="url(#b)" d="m 69.595551,15.901355 c -3.991028,2.771844 -7.642149,7.018949 -8.928396,11.54843 -1.286247,4.529481 -1.564717,9.121546 0.177417,15.336893 1.74225,6.215347 10.110489,11.159835 17.024826,13.492327 8.430594,2.90838 15.74168,9.079401 19.328265,17.332808 0.836675,1.630861 3.713587,8.747763 3.397687,2.887481 C 100.88243,66.390183 96.582502,56.2271 88.668427,49.81734 82.82514,44.570611 74.570585,41.733542 70.959884,34.25836 67.833321,28.773927 68.018547,22.052165 69.876204,16.181663 l -0.139982,-0.140097 z" paint-order="stroke fill markers" style="mix-blend-mode:normal"/><path fill="url(#c)" d="M 64.003519,72.661798 C 72.180676,72.211881 79.487857,79.875734 78.650264,88.023724 78.368923,95.567691 71.358356,102.20011 63.718618,101.45645 54.844997,101.782 47.977053,92.261069 50.110309,83.903624 51.378068,77.472735 57.495692,72.66375 64.003174,72.661798 Z" paint-order="stroke fill markers" style="mix-blend-mode:normal"/><path fill="url(#d)" d="m 37.305072,12.878249 c 1.823052,2.464762 3.610908,4.735698 4.561821,7.751363 3.257818,8.540374 0.893977,17.956812 -3.345665,25.700129 -6.493817,12.751308 -12.796093,26.811715 -10.979432,41.457541 1.835035,13.230508 11.239185,25.371128 24.182724,29.299348 12.993147,4.33725 28.300297,0.017 37.011888,-10.58601 C 94.713591,99.532537 98.19476,89.87851 96.556894,80.704026 94.064784,70.502589 86.115455,62.013086 76.06112,58.940608 69.969218,56.905075 63.082442,53.167025 58.73279,48.468854 c -0.549362,3.330278 -1.295204,7.451067 -2.453871,11.264792 -1.158667,3.813726 -3.138162,9.43929 -3.949114,13.465916 3.527791,-3.698318 7.910285,-4.928412 11.968146,-4.897636 10.186394,0.07763 19.141776,9.106043 18.73963,19.258216 -0.08234,9.91401 -9.118789,18.718158 -19.078962,18.320838 C 54.036571,105.92576 45.532713,97.143432 45.23564,87.345404 45.099792,79.909725 48.121858,72.868153 50.159688,65.824514 54.105127,54.13105 55.797424,44.552697 55.731624,37.906382 55.66594,31.260066 53.999232,24.627353 49.467473,19.711291 45.103227,14.976947 38.909981,12.847129 37.305072,12.878249" paint-order="stroke fill markers" style="mix-blend-mode:normal"/></svg>