<svg xmlns="http://www.w3.org/2000/svg" width="128" height="128" viewBox="0 0 999 999"><rect fill="#363d52" x="16" y="16" width="967" height="967" rx="110" stroke-width="32" stroke="#202531"/><g fill="#fff"><path d="M179 624v26q323 266 641 0v-26z"/><path fill="#478cbf" d="M200 282q-37 39-65 85 20 33 44 64v193l121 12q8 2 10 10l4 54 103 7 8-50q2-7 11-9h127q8 1 11 8l8 51 103-7 4-54q2-8 10-10l121-12V431q25-33 44-63-27-46-65-86-34 17-65 37-31-28-69-50 5-40 6-80-44-22-97-33-21 34-36 70-38-6-77 0-15-36-36-70-51 10-97 33 1 41 6 80-38 22-69 51-31-21-65-38m-21 368v32c3 216 637 216 641 2v-34l-107 10-3 53q-1 8-9 11l-131 10q-8-1-11-8l-8-52H448l-7 49q-2 9-11 11l-132-10q-6-2-8-8l-4-56z"/><path d="M477 499v69c2 26 43 26 45 0v-69c-2-25-42-26-45 0"/><circle cx="332" cy="510" r="71"/><circle cx="667" cy="510" r="71"/></g><g fill="#414042"><circle cx="338" cy="514" r="47"/><circle cx="661" cy="514" r="47"/></g></svg>
