<svg xmlns="http://www.w3.org/2000/svg" xml:space="preserve" width="128" height="128"><g paint-order="markers stroke fill"><path fill="#230d26" stroke="#390054" stroke-linecap="round" stroke-linejoin="round" stroke-width="7.909" d="M 18.965792,3.9543902 H 109.03419 A 15.011402,15.011402 0 0 1 124.0456,18.965792 v 90.068418 a 15.011402,15.011402 0 0 1 -15.01141,15.0114 H 18.965792 A 15.011402,15.011402 0 0 1 3.9543902,109.03421 V 18.965792 A 15.011402,15.011402 0 0 1 18.965792,3.9543902 Z"/><path fill="#d848fb" d="m 65.486113,72.485801 c 8.151996,-0.448479 15.436546,7.191728 14.601373,15.314398 -0.280199,7.520779 -7.269062,14.132641 -14.885301,13.391171 -8.84613,0.32471 -15.692784,-9.166837 -13.566278,-17.498573 1.263814,-6.411081 7.362492,-11.205263 13.850206,-11.206996 z" style="mix-blend-mode:normal"/><path fill="#d848fb" d="m 37.601038,9.5360268 c 1.781888,3.6618122 4.690702,6.9917772 5.817013,11.0785952 3.247923,8.514066 0.890867,17.901169 -3.335498,25.620755 -6.473632,12.711719 -12.756433,26.72835 -10.945332,41.329124 1.829183,13.189739 11.204357,25.292809 24.108009,29.208729 12.952941,4.3238 28.212782,0.0169 36.897277,-10.55314 C 96.101308,99.273281 99.57155,89.649352 97.938679,80.503015 95.454414,70.333367 87.529544,61.870126 77.50654,58.807189 71.433208,56.777902 65.445813,53.743382 61.442087,48.602847 c -1.116471,3.273832 -2.103871,7.411622 -3.316059,10.99476 -1.121369,3.952599 -2.501975,7.751143 -3.607768,11.802693 3.325591,-1.307822 7.227643,-3.565846 11.261443,-3.260922 10.153136,-0.196804 19.082449,9.078063 18.681614,19.198733 -0.08189,9.883205 -9.090589,18.660169 -19.019965,18.263979 C 55.549967,105.6468 47.072277,96.891655 46.776341,87.123806 46.640767,79.711461 49.653532,72.69162 51.685183,65.669714 55.618358,54.012215 59.389442,41.63503 57.868918,29.199632 57.094781,20.521399 51.105874,12.107864 42.327805,10.215782 40.785255,9.8183341 39.201083,9.5049828 37.601038,9.5360268 Z" style="mix-blend-mode:normal"/><path fill="#d848fb" d="m 71.060995,15.901 c -3.978682,2.763254 -7.674648,6.743923 -8.901332,11.512544 0.843968,5.063386 0.253395,10.234808 0.17691,15.289439 2.165738,7.640654 10.079225,11.125168 16.972424,13.450482 8.404356,2.899764 15.693054,9.051623 19.268335,17.279459 0.834116,1.625497 3.701898,8.720732 3.387258,2.878507 0.28597,-10.077929 -4.000539,-20.209233 -11.890005,-26.59938 -5.825313,-5.23041 -14.054337,-8.058847 -17.653753,-15.510623 -3.116876,-5.46763 -2.932349,-12.168547 -1.08041,-18.021 l -0.139711,-0.139714 z" style="mix-blend-mode:normal"/></g></svg>