<svg xmlns="http://www.w3.org/2000/svg" xmlns:xlink="http://www.w3.org/1999/xlink" width="128" height="128"><defs><linearGradient xlink:href="#a" id="b" x1="455.851" x2="528.307" y1="527.88" y2="598.77" gradientTransform="translate(-524.666 -618.75)scale(1.20576)" gradientUnits="userSpaceOnUse"/><linearGradient id="a"><stop offset="0" stop-color="#ff1300"/><stop offset="1" stop-color="#ff6e01"/></linearGradient></defs><rect width="124" height="124" x="2" y="2" fill="#363d52" stroke="#212532" stroke-width="4" rx="14"/><path fill="url(#b)" d="m 49.343336,8.763033 -2.732199,8.633617 c -2.976144,1.287341 -5.95231,2.574493 -8.928084,3.862688 -3.157579,-0.665132 -6.323276,-1.435407 -9.522965,-1.821397 -0.505117,0.56853 -13.285372,20.227391 -13.281751,20.430507 0.588806,1.442081 1.600027,2.682517 2.364862,4.032006 l 46.484535,16.33115 46.484546,-16.33115 c 0.76484,-1.349489 1.77606,-2.589925 2.36487,-4.032006 0.004,-0.203116 -12.776861,-19.861977 -13.281981,-20.430507 -3.199687,0.38599 -6.365167,1.156265 -9.522745,1.821397 C 86.796635,19.971143 83.820492,18.683991 80.84434,17.39665 L 78.111931,8.763033 Z M 20.783364,49.840114 c -0.05754,-0.01861 -0.17345,0.06795 -0.177611,0.0971 C 20.045844,54.5034 18.951565,63.63878 18.951565,63.63878 l 2.832268,12.246879 21.428205,9.736905 20.515696,-7.673313 20.515496,7.673313 21.4282,-9.736905 2.83249,-12.246879 c 0,0 -1.09429,-9.13538 -1.6542,-13.701566 -0.006,-0.03887 -0.20948,-0.179799 -0.20948,-0.03741 -14.027781,4.987347 -28.660362,9.817308 -42.912506,14.73666 -14.252113,-4.919352 -28.884912,-9.749313 -42.912712,-14.736656 0,-0.03552 -0.01259,-0.05328 -0.03167,-0.05971 z m 10.070472,10.400839 20.059344,7.406892 a 10.924949,10.924949 0 0 1 -0.523072,2.12839 10.924949,10.924949 0 0 1 -14.033212,6.464433 10.924949,10.924949 0 0 1 -6.464433,-14.033213 10.924949,10.924949 0 0 1 0.961373,-1.966502 z m 65.747806,0 a 10.924949,10.924949 0 0 1 0.961367,1.966502 10.924949,10.924949 0 0 1 -6.464428,14.033213 10.924949,10.924949 0 0 1 -14.033212,-6.464433 10.924949,10.924949 0 0 1 -0.523072,-2.12839 z m -81.35682,8.265008 -5.145707,5.098969 7.708791,27.03134 24.364365,9.99397 L 40.86141,89.602306 17.755645,78.849853 Z m 96.965618,0 -2.51061,10.343892 -23.105764,10.752453 -1.31086,21.027934 24.364354,-9.99397 7.70881,-27.03134 z m -48.482706,13.92337 -18.27045,7.230976 1.109023,22.715693 17.161427,6.99175 17.161436,-6.99175 1.109023,-22.715693 z" style="font-variation-settings:normal;-inkscape-stroke:none"/></svg>