<svg xmlns="http://www.w3.org/2000/svg" xml:space="preserve" width="1024" height="1024"><g paint-order="markers stroke fill"><path fill="#230d26" stroke="#390054" stroke-linecap="round" stroke-linejoin="round" stroke-width="67.437" d="m 128,0 h 768 a 128,128 45 0 1 128,128 V 896 A 128,128 135 0 1 896,1024 H 128 A 128,128 45 0 1 0,896 V 128 A 128,128 135 0 1 128,0 Z" transform="translate(31.635 31.635)scale(.93821)"/><path fill="#d848fb" d="m 523.88739,579.88474 c 65.2158,-3.58782 123.49203,57.53367 116.81067,122.51484 -2.24159,60.16607 -58.15234,113.06069 -119.08208,107.12906 -70.76885,2.5977 -125.54192,-73.33447 -108.52992,-139.98818 10.11049,-51.28851 58.89977,-89.64185 110.80133,-89.65572 z" style="mix-blend-mode:normal"/><path fill="#d848fb" d="m 300.80742,76.287964 c 14.25507,29.294426 37.52551,55.934056 46.53598,88.628506 25.98331,68.11235 7.12691,143.20895 -26.68391,204.96547 -51.78891,101.69348 -102.05118,213.8262 -87.56241,330.63207 14.63342,105.51762 89.63461,202.34186 192.86353,233.66911 103.62323,34.59041 225.70162,0.13502 295.17739,-84.4248 C 768.80827,794.184 796.57013,717.19277 783.5072,644.02228 763.63314,562.66533 700.23435,494.95958 620.05056,470.45616 571.46403,454.22191 523.565,429.94581 491.53529,388.82165 c -8.93175,26.19058 -16.83093,59.29281 -26.5284,87.95784 -8.97093,31.62069 -20.01575,62.00896 -28.86207,94.42127 26.60465,-10.46254 57.82099,-28.52669 90.0913,-26.0873 81.22486,-1.57443 152.65916,72.62429 149.45249,153.58943 -0.65514,79.06542 -72.72451,149.28105 -152.1593,146.11137 C 444.39846,845.17219 376.57713,775.13103 374.20965,696.98845 373.12504,637.68986 397.22711,581.5313 413.48027,525.3562 444.94558,432.09648 475.11417,333.07927 462.95001,233.59636 456.75693,164.1707 408.84582,96.862609 338.62145,81.725993 326.28109,78.546417 313.60775,76.039612 300.80742,76.287964 Z" style="mix-blend-mode:normal"/><path fill="#d848fb" d="m 568.48633,127.20761 c -31.82936,22.10596 -61.39701,53.95123 -71.21045,92.10009 6.75173,40.50697 2.02714,81.87823 1.41527,122.31518 17.32585,61.12505 80.63357,89.00108 135.77901,107.60354 67.23466,23.19805 125.54408,72.41278 154.14625,138.23528 6.67284,13.00395 29.61511,69.76567 27.09794,23.028 2.28782,-80.6232 -32.00417,-161.67341 -95.11973,-212.79444 -46.60237,-41.84317 -112.43438,-64.4706 -141.22963,-124.08464 -24.93494,-43.74091 -23.45872,-97.3481 -8.64324,-144.1676 l -1.1177,-1.1177 z" style="mix-blend-mode:normal"/></g></svg>