<?xml version="1.0" encoding="UTF-8"?>
<svg version="1.1" xmlns="http://www.w3.org/2000/svg" width="128" height="128">
<path d="M0 0 C42.24 0 84.48 0 128 0 C128 42.24 128 84.48 128 128 C85.76 128 43.52 128 0 128 C0 85.76 0 43.52 0 0 Z " fill="#478CBE" transform="translate(0,0)"/>
<path d="M0 0 C42.24 0 84.48 0 128 0 C128 42.24 128 84.48 128 128 C85.76 128 43.52 128 0 128 C0 85.76 0 43.52 0 0 Z M45.0625 10.9375 C43.98097656 11.29714844 42.89945313 11.65679687 41.78515625 12.02734375 C39.08793681 12.90298422 39.08793681 12.90298422 37 14 C36.5316735 16.58605332 36.5316735 16.58605332 36.375 19.5625 C36.30023438 20.57441406 36.22546875 21.58632813 36.1484375 22.62890625 C36.09945312 23.41136719 36.05046875 24.19382812 36 25 C35.09636719 24.08476562 34.19273438 23.16953125 33.26171875 22.2265625 C32.07044577 21.02590942 30.87903217 19.82539585 29.6875 18.625 C29.09259766 18.02171875 28.49769531 17.4184375 27.88476562 16.796875 C27.30791016 16.21679688 26.73105469 15.63671875 26.13671875 15.0390625 C25.60780029 14.50490723 25.07888184 13.97075195 24.53393555 13.42041016 C22.8489902 11.78498535 22.8489902 11.78498535 20 10 C16.67759676 10.3241369 15.39223697 10.60776303 13 13 C12.62364634 15.577374 12.62364634 15.577374 12.58251953 18.6237793 C12.54393829 19.80227951 12.50535706 20.98077972 12.46560669 22.19499207 C12.35031239 27.59697428 12.25093132 32.99830116 12.18994141 38.40112305 C12.15436429 41.25159741 12.08486591 44.09809226 11.98486328 46.94702148 C11.8409298 51.05255801 11.79597501 55.15381503 11.7578125 59.26171875 C11.70215118 60.5317424 11.64648987 61.80176605 11.58914185 63.11027527 C11.60621745 66.7852962 11.7202683 69.54923967 13 73 C16.00043975 75.50492959 18.85322674 77.07122204 22.41867065 78.6587677 C23.27050934 79.10137436 24.12234802 79.54398102 25 80 C25 80.99 25 81.98 25 83 C20.41039525 82.30460534 17.54912967 80.949627 13 79 C13 84.61 13 90.22 13 96 C17.29 94.35 21.58 92.7 26 91 C25 95 25 95 22.71484375 96.484375 C21.79832031 96.90203125 20.88179687 97.3196875 19.9375 97.75 C19.01839844 98.17796875 18.09929688 98.6059375 17.15234375 99.046875 C16.44207031 99.36140625 15.73179688 99.6759375 15 100 C17.25763909 106.61644725 21.58078423 109.1496622 27.5625 112.38671875 C47.3700404 121.54770619 72.97715182 121.66798497 93.51953125 114.828125 C101.65393893 111.57837397 107.63526323 107.94260053 113 101 C109.54319097 98.23455278 105.85658398 96.15078722 102 94 C102 93.34 102 92.68 102 92 C105.76667915 92.51363807 108.64120164 93.26269051 112 95 C112.99 95 113.98 95 115 95 C115 89.72 115 84.44 115 79 C113.02 79.66 111.04 80.32 109 81 C107 81.66666667 105 82.33333333 103 83 C103.15234375 81.203125 103.15234375 81.203125 104 79 C106.50390625 77.296875 106.50390625 77.296875 109.5625 75.75 C110.57441406 75.22921875 111.58632812 74.7084375 112.62890625 74.171875 C113.41136719 73.78515625 114.19382812 73.3984375 115 73 C115.09265029 65.2288784 115.16373925 57.45788597 115.20724869 49.68635082 C115.22813051 46.07773021 115.25645764 42.46948723 115.30175781 38.86108398 C115.34519643 35.37920226 115.36913263 31.8976839 115.37950897 28.41555214 C115.39050504 26.43952565 115.42173453 24.46364552 115.45318604 22.48783875 C115.45348816 21.28682022 115.45379028 20.0858017 115.45410156 18.84838867 C115.46742523 17.25954109 115.46742523 17.25954109 115.48101807 15.63859558 C115.23691964 12.88216445 115.23691964 12.88216445 113.12876892 11.12814331 C111.03062731 9.78744141 111.03062731 9.78744141 108.4855957 10.10131836 C105.66723578 11.12031285 104.30458573 12.23264607 102.23046875 14.37890625 C101.56982422 15.05244141 100.90917969 15.72597656 100.22851562 16.41992188 C99.55498047 17.12697266 98.88144531 17.83402344 98.1875 18.5625 C97.49462891 19.27341797 96.80175781 19.98433594 96.08789062 20.71679688 C94.38274771 22.46897821 92.69013142 24.23333433 91 26 C91 22.04 91 18.08 91 14 C89.288125 13.34 87.57625 12.68 85.8125 12 C84.84957031 11.62875 83.88664062 11.2575 82.89453125 10.875 C80.07817642 10.02363228 77.91835561 9.82927353 75 10 C74.78988281 10.63808594 74.57976562 11.27617187 74.36328125 11.93359375 C73.16712297 14.78391887 72.14474147 16.75353166 70 19 C65.64331431 20.10763196 61.47709104 20.16387595 57 20 C56.70222656 19.06929687 56.40445313 18.13859375 56.09765625 17.1796875 C55.04211796 14.12200719 53.8080121 11.67271354 52 9 C49.69317837 9 47.21045373 10.21981273 45.0625 10.9375 Z " fill="#212532" transform="translate(0,0)"/>
<path d="M0 0 C0.87189972 -0.00997513 1.74379944 -0.01995026 2.64212036 -0.03022766 C4.06512451 -0.03122467 4.06512451 -0.03122467 5.51687622 -0.03224182 C6.52219391 -0.04056534 7.5275116 -0.04888885 8.56329346 -0.0574646 C11.88916894 -0.08157525 15.21484837 -0.09033784 18.540802 -0.09693909 C20.8524176 -0.10590416 23.16403259 -0.11502598 25.47564697 -0.1242981 C30.32273774 -0.14079324 35.16975939 -0.14848926 40.01687622 -0.15138245 C46.22680403 -0.1567686 52.43608209 -0.19445682 58.64582634 -0.24012661 C63.42080049 -0.26987238 68.19561766 -0.27710546 72.97067642 -0.2781086 C75.26002098 -0.28231532 77.54936583 -0.29476757 79.83861923 -0.31562614 C83.04175334 -0.34248956 86.24337439 -0.3377294 89.44656372 -0.32521057 C90.86349518 -0.34746201 90.86349518 -0.34746201 92.30905151 -0.37016296 C96.57674314 -0.32267995 99.66695203 -0.16008371 103.12139893 2.49911499 C107.11650514 6.9520647 107.86385017 10.27131791 107.83816528 16.16600037 C107.83801422 17.32682632 107.83786316 18.48765228 107.83770752 19.68365479 C107.82738495 20.92652756 107.81706238 22.16940033 107.806427 23.44993591 C107.80359711 24.73023178 107.80076721 26.01052765 107.79785156 27.32962036 C107.79024231 30.72118541 107.77061743 34.11257716 107.7484436 37.5040741 C107.72792656 40.96972815 107.71883736 44.43541041 107.70877075 47.90110779 C107.68672942 54.69219832 107.6532658 61.48316078 107.6111145 68.27415466 C107.0542395 68.06790466 106.4973645 67.86165466 105.9236145 67.64915466 C102.9515765 67.16720255 101.29131509 68.00850438 98.6111145 69.27415466 C98.60524826 68.52691132 98.59938202 67.77966797 98.59333801 67.00978088 C98.53549126 59.97586956 98.46346153 52.94228109 98.37539959 45.90869331 C98.33062611 42.29241783 98.29138598 38.67625681 98.26467896 35.05979919 C98.23871469 31.57123938 98.19836273 28.08311845 98.14792824 24.59482956 C98.12306432 22.61288589 98.11319665 20.63077265 98.10346985 18.6486969 C98.08367569 17.44760284 98.06388153 16.24650879 98.04348755 15.00901794 C98.03238449 13.94756561 98.02128143 12.88611328 98.00984192 11.79249573 C97.87826187 10.96144318 97.74668182 10.13039063 97.6111145 9.27415466 C94.86992693 7.00691053 94.86992693 7.00691053 92.15921021 7.43797302 C89.25141075 8.39219484 87.95654776 9.46453242 85.84158325 11.65306091 C85.18093872 12.32659607 84.52029419 13.00013123 83.83963013 13.69407654 C83.16609497 14.40112732 82.49255981 15.1081781 81.7986145 15.83665466 C81.10574341 16.54757263 80.41287231 17.2584906 79.69900513 17.99095154 C77.9936628 19.74333779 76.29836274 21.50436935 74.6111145 23.27415466 C73.74439678 20.1107809 73.61640597 17.78973027 74.0486145 14.52415466 C74.15045044 13.72493591 74.25228638 12.92571716 74.35720825 12.10227966 C74.48289185 11.19735779 74.48289185 11.19735779 74.6111145 10.27415466 C72.88430014 9.76609019 71.15453471 9.26804999 69.4236145 8.77415466 C68.46068481 8.49571716 67.49775513 8.21727966 66.50564575 7.93040466 C63.29307223 7.08989708 63.29307223 7.08989708 58.6111145 7.27415466 C56.9611145 10.24415466 55.3111145 13.21415466 53.6111145 16.27415466 C49.3211145 16.27415466 45.0311145 16.27415466 40.6111145 16.27415466 C38.1361145 11.32415466 38.1361145 11.32415466 35.6111145 6.27415466 C34.69588013 6.56290466 33.78064575 6.85165466 32.837677 7.14915466 C31.05490356 7.70602966 31.05490356 7.70602966 29.2361145 8.27415466 C28.05275513 8.64540466 26.86939575 9.01665466 25.650177 9.39915466 C22.6111145 10.27415466 22.6111145 10.27415466 20.6111145 10.27415466 C20.6111145 14.23415466 20.6111145 18.19415466 20.6111145 22.27415466 C16.24842202 18.6237385 12.13737642 14.88551049 8.1892395 10.78977966 C6.48112948 9.06019154 6.48112948 9.06019154 3.6111145 7.27415466 C0.30025191 7.55689604 0.30025191 7.55689604 -2.3888855 9.27415466 C-2.51232576 11.14511578 -2.56680943 13.02066394 -2.59420776 14.89549255 C-2.61415298 16.09666214 -2.63409821 17.29783173 -2.65464783 18.53540039 C-2.67136032 19.84266586 -2.68807281 21.14993134 -2.70529175 22.49681091 C-2.72585508 23.84060313 -2.74685138 25.18438879 -2.76826477 26.52816772 C-2.82354969 30.07090453 -2.87293048 33.61370033 -2.92111206 37.15653992 C-2.97128037 40.76936616 -3.02699075 44.38210638 -3.08224487 47.99485779 C-3.18990487 55.08788213 -3.29133229 62.18098354 -3.3888855 69.27415466 C-4.5026355 68.92352966 -5.6163855 68.57290466 -6.7638855 68.21165466 C-10.19153026 66.90176135 -10.19153026 66.90176135 -12.3888855 68.27415466 C-12.48174806 60.55487506 -12.55273264 52.83565372 -12.59613419 45.115942 C-12.61696973 41.53094566 -12.645212 37.94633272 -12.69064331 34.36155701 C-12.73424742 30.89911276 -12.75805293 27.43703625 -12.76839447 23.97433853 C-12.7793337 22.01672984 -12.81053678 20.05926818 -12.84207153 18.10188293 C-12.8449113 6.81523405 -12.8449113 6.81523405 -8.3888855 2.27415466 C-5.49923646 0.53146566 -3.35665528 0.02066333 0 0 Z " fill="#363D52" transform="translate(16.388885498046875,3.7258453369140625)"/>
<path d="M0 0 C5.61 0.33 11.22 0.66 17 1 C17.33 4.3 17.66 7.6 18 11 C29.385 11.99 29.385 11.99 41 13 C41.33 10.03 41.66 7.06 42 4 C47.61 4 53.22 4 59 4 C59.66 6.64 60.32 9.28 61 12 C68.42686315 12.10331031 75.63512596 11.99862699 83 11 C83.66 7.7 84.32 4.4 85 1 C93.415 0.505 93.415 0.505 102 0 C102 2.31 102 4.62 102 7 C99.42144939 6.57024157 97.27187163 6.14005508 94.9375 4.9375 C92.75862665 3.70962605 92.75862665 3.70962605 89 4 C89.69030588 7.14921339 89.69030588 7.14921339 92.28515625 8.38671875 C93.20167969 8.81597656 94.11820312 9.24523437 95.0625 9.6875 C95.98160156 10.12449219 96.90070313 10.56148437 97.84765625 11.01171875 C98.55792969 11.33785156 99.26820312 11.66398437 100 12 C96.37728577 19.04416655 90.31014316 23.26006628 83 26 C60.23160989 32.55841268 33.61541838 34.69736818 12 23 C6.93183488 19.92173945 3.95593479 17.73224453 2 12 C2.71027344 11.68546875 3.42054687 11.3709375 4.15234375 11.046875 C5.07144531 10.61890625 5.99054687 10.1909375 6.9375 9.75 C7.85402344 9.33234375 8.77054688 8.9146875 9.71484375 8.484375 C12.16449617 7.21446051 12.16449617 7.21446051 12.81640625 4.828125 C12.87699219 4.22484375 12.93757813 3.6215625 13 3 C12.31292969 3.27714844 11.62585937 3.55429688 10.91796875 3.83984375 C10.01691406 4.20207031 9.11585937 4.56429687 8.1875 4.9375 C6.84751953 5.47697266 6.84751953 5.47697266 5.48046875 6.02734375 C3.6729091 6.73613486 1.84192591 7.3860247 0 8 C0 5.36 0 2.72 0 0 Z " fill="#478BBE" transform="translate(13,88)"/>
<path d="M0 0 C0.474375 0.70125 0.94875 1.4025 1.4375 2.125 C12.02583425 14.00459452 28.12466492 17.03291563 43.30126953 18.17285156 C60.4600716 19.0531695 80.12642502 17.09885998 94 6 C96.32277416 3.3908613 96.32277416 3.3908613 98 1 C102.6875 1.78125 102.6875 1.78125 107.375 2.5625 C108.24125 2.706875 109.1075 2.85125 110 3 C110.57159848 14.89771646 110.57159848 14.89771646 107 20 C103.53909001 23.13644968 100.45446487 24.12177442 95.83853149 24.14044189 C94.56843987 24.14900711 94.56843987 24.14900711 93.27268982 24.15774536 C92.34690628 24.15886322 91.42112274 24.15998108 90.46728516 24.16113281 C89.00100929 24.16858017 89.00100929 24.16858017 87.50511169 24.17617798 C84.26642151 24.19080147 81.02778029 24.19760162 77.7890625 24.203125 C75.54088336 24.2088759 73.29270425 24.21463364 71.04452515 24.22039795 C66.32850923 24.23090819 61.61251036 24.23675084 56.89648438 24.24023438 C50.85139597 24.24572187 44.80653248 24.26975542 38.76151466 24.29820633 C34.1169875 24.31682203 29.47251466 24.32203772 24.82795334 24.32357025 C22.59920394 24.32659926 20.37045555 24.3346361 18.14174271 24.34775543 C15.0248218 24.36479476 11.90845238 24.36294079 8.79150391 24.35644531 C7.86976883 24.3656601 6.94803375 24.37487488 5.99836731 24.3843689 C-0.31645611 24.34310944 -3.69973838 23.26505353 -8.296875 18.73828125 C-10.43015366 15.30839974 -10.4117584 13.19102049 -10.25 9.1875 C-10.21390625 8.02605469 -10.1778125 6.86460938 -10.140625 5.66796875 C-10.09421875 4.78753906 -10.0478125 3.90710938 -10 3 C-9.05898437 2.85691406 -8.11796875 2.71382813 -7.1484375 2.56640625 C-4.33575949 2.06040338 -2.44684283 1.41164009 0 0 Z " fill="#353D52" transform="translate(14,100)"/>
<path d="M0 0 C2.56336254 0.11446272 5.12513445 0.24119501 7.6875 0.375 C8.40873047 0.4059375 9.12996094 0.436875 9.87304688 0.46875 C13.97210394 0.69335587 17.24368459 1.17740909 21 3 C21 5.97 21 8.94 21 12 C26.61 12.33 32.22 12.66 38 13 C38.33 10.03 38.66 7.06 39 4 C46.59 4 54.18 4 62 4 C64 10 64 10 64 13 C64.94875 12.835 65.8975 12.67 66.875 12.5 C71.5882319 11.81285531 76.24444585 11.93485542 81 12 C81 8.7 81 5.4 81 2 C83.65918166 1.11360611 85.48064641 0.82010975 88.23046875 0.68359375 C89.03291016 0.64169922 89.83535156 0.59980469 90.66210938 0.55664062 C91.49548828 0.51732422 92.32886719 0.47800781 93.1875 0.4375 C94.03248047 0.39431641 94.87746094 0.35113281 95.74804688 0.30664062 C97.83184433 0.20068482 99.91590103 0.0998498 102 0 C102 1.32 102 2.64 102 4 C98.16275828 4.90413673 94.62497726 5.10576898 90.6875 5.0625 C89.08455078 5.04896484 89.08455078 5.04896484 87.44921875 5.03515625 C86.64097656 5.02355469 85.83273438 5.01195313 85 5 C84.93941406 5.71027344 84.87882812 6.42054687 84.81640625 7.15234375 C84.69072266 8.53099609 84.69072266 8.53099609 84.5625 9.9375 C84.44068359 11.31228516 84.44068359 11.31228516 84.31640625 12.71484375 C84 15 84 15 83 16 C75.6564425 17.10153363 68.41437534 17.1031366 61 17 C59.50178941 13.62902617 59 11.79557881 59 8 C53.39 8 47.78 8 42 8 C41.67 10.97 41.34 13.94 41 17 C33.25996896 17.09909001 25.66499677 17.1692368 18 16 C17 15 17 15 16.90234375 12.71484375 C16.91394531 11.79832031 16.92554687 10.88179687 16.9375 9.9375 C16.94652344 9.01839844 16.95554687 8.09929687 16.96484375 7.15234375 C16.97644531 6.44207031 16.98804687 5.73179688 17 5 C16.10796875 5.01160156 15.2159375 5.02320312 14.296875 5.03515625 C12.54117187 5.04869141 12.54117187 5.04869141 10.75 5.0625 C9.00976562 5.07990234 9.00976562 5.07990234 7.234375 5.09765625 C4.59022872 5.01782092 2.50173909 4.78643778 0 4 C0 2.68 0 1.36 0 0 Z " fill="#F8FAFC" transform="translate(13,84)"/>
<path d="M0 0 C3.6578218 2.03993908 5.66946174 3.50419262 8 7 C8.67577735 10.73455906 8.69852858 14.36218785 7.1953125 17.88671875 C5.50217226 20.297984 3.65836833 21.77489612 0.875 22.7265625 C-3.39059691 23.46151332 -5.51125926 23.24881347 -9.4375 21.25 C-11.99337496 19.00581711 -13.78135778 17.35761566 -14.3359375 13.9140625 C-14.40463693 9.88827601 -14.35428083 7.59468568 -12.25 4.0625 C-8.27587957 0.41955627 -5.45608596 -0.65473031 0 0 Z " fill="#F6F8F9" transform="translate(40,54)"/>
<path d="M0 0 C3.60133296 2.52859548 5.22281431 4.66706914 6 8.9375 C6.25424769 13.02087191 5.42805788 15.63204875 3 19 C-0.36795125 21.42805788 -2.97912809 22.25424769 -7.0625 22 C-11.33293086 21.22281431 -13.47140452 19.60133296 -16 16 C-17.37051098 11.86292958 -17.26677596 8.83171328 -15.9375 4.6875 C-11.81972598 -1.02425106 -6.46331666 -2.14113988 0 0 Z " fill="#F9FBFC" transform="translate(96,55)"/>
<path d="M0 0 C1.65 0.33 3.3 0.66 5 1 C5 8.92 5 16.84 5 25 C3.35 25.33 1.7 25.66 0 26 C-2.36015419 24.24987311 -4.26375647 22.62120097 -6.3125 20.5625 C-6.86228516 20.03333984 -7.41207031 19.50417969 -7.97851562 18.95898438 C-9.33196449 17.65261199 -10.667758 16.32799243 -12 15 C-11.54247264 10.64309176 -8.6938899 8.1429195 -5.75 5.1875 C-5.27175781 4.67251953 -4.79351562 4.15753906 -4.30078125 3.62695312 C-2.859375 2.16796875 -2.859375 2.16796875 0 0 Z " fill="#76A0BE" transform="translate(107,18)"/>
<path d="M0 0 C3.17964456 0.453584 4.80523382 1.44018709 7.015625 3.72265625 C7.54414063 4.26083984 8.07265625 4.79902344 8.6171875 5.35351562 C9.15601563 5.91748047 9.69484375 6.48144531 10.25 7.0625 C10.80429687 7.63033203 11.35859375 8.19816406 11.9296875 8.78320312 C13.29334214 10.18212469 14.64760417 11.59019114 16 13 C14.71666158 16.85001526 12.87106836 18.06305352 9.75 20.625 C8.79609375 21.42164062 7.8421875 22.21828125 6.859375 23.0390625 C4.014287 24.99020209 2.32609634 25.45917701 -1 26 C-1.02886751 21.85418113 -1.04675327 17.70838784 -1.0625 13.5625 C-1.07087891 12.37849609 -1.07925781 11.19449219 -1.08789062 9.97460938 C-1.09111328 8.84990234 -1.09433594 7.72519531 -1.09765625 6.56640625 C-1.10289307 5.52427979 -1.10812988 4.48215332 -1.11352539 3.40844727 C-1 1 -1 1 0 0 Z " fill="#78A1BE" transform="translate(17,18)"/>
<path d="M0 0 C0 8.91 0 17.82 0 27 C-3.3 25.35 -6.6 23.7 -10 22 C-9.505 13.09 -9.505 13.09 -9 4 C-1 0 -1 0 0 0 Z " fill="#353C51" transform="translate(124,74)"/>
<path d="M0 0 C8 4 8 4 9 5 C9.07325168 7.86267567 9.09238205 10.700719 9.0625 13.5625 C9.05798828 14.36880859 9.05347656 15.17511719 9.04882812 16.00585938 C9.03700518 18.00393756 9.01906914 20.00197783 9 22 C2.25 26 2.25 26 0 26 C0 17.42 0 8.84 0 0 Z " fill="#363D52" transform="translate(4,74)"/>
<path d="M0 0 C2.4375 1.625 2.4375 1.625 4 4 C4.5625 6.9375 4.5625 6.9375 4 10 C1.9375 12.9375 1.9375 12.9375 -1 15 C-4.85210127 15.06641554 -6.99848005 14.87229157 -9.9375 12.3125 C-11.33817538 9.26397123 -11.4842732 7.32073048 -11 4 C-8.05899778 -0.47032338 -5.13105401 -0.73300772 0 0 Z " fill="#403F41" transform="translate(93,59)"/>
<path d="M0 0 C2.9375 2.125 2.9375 2.125 5 5 C5 8.24291156 4.58703627 10.10399726 2.8125 12.8125 C0.13779432 14.56489338 -1.80553105 14.93611062 -5 15 C-7.875 13.5 -7.875 13.5 -10 11 C-10.64269755 7.00099302 -10.63913895 4.95870843 -8.375 1.5625 C-5.24316508 -0.49791771 -3.68455227 -0.6767545 0 0 Z " fill="#414042" transform="translate(41,59)"/>
<path d="M0 0 C3.63 0 7.26 0 11 0 C11.33 1.32 11.66 2.64 12 4 C9.8125 6.8125 9.8125 6.8125 7 9 C4.04528789 9.08953673 3.01213119 8.00950823 0.6875 6.1875 C0.130625 5.465625 -0.42625 4.74375 -1 4 C-0.67 2.68 -0.34 1.36 0 0 Z " fill="#F9FAFB" transform="translate(58,74)"/>
<path d="M0 0 C0 1.65 0 3.3 0 5 C-6.435 5.495 -6.435 5.495 -13 6 C-12 4 -12 4 -9.1875 3 C-8.135625 2.67 -7.08375 2.34 -6 2 C-5.2575 1.62875 -4.515 1.2575 -3.75 0.875 C-2 0 -2 0 0 0 Z " fill="#4285B7" transform="translate(115,79)"/>
<path d="M0 0 C4.455 1.98 4.455 1.98 9 4 C9 4.66 9 5.32 9 6 C6.03 5.67 3.06 5.34 0 5 C0 3.35 0 1.7 0 0 Z " fill="#5295C6" transform="translate(13,79)"/>
</svg>
