<svg height="16" viewBox="0 0 16 16" width="16" xmlns="http://www.w3.org/2000/svg"><path d="m7 1v3.0605a4.2662 4.0576 0 0 1 1-.11914 4.2662 4.0576 0 0 1 1 .11914v-3.0605zm1 4.0801a2.9201 2.9201 0 0 0 -2.9199 2.9199 2.9201 2.9201 0 0 0 2.9199 2.9199 2.9201 2.9201 0 0 0 2.9199-2.9199 2.9201 2.9201 0 0 0 -2.9199-2.9199zm-7 1.9199v2h2.8691a4.2662 4.0576 0 0 1 -.13477-1 4.2662 4.0576 0 0 1 .13672-1h-2.8711zm11.131 0a4.2662 4.0576 0 0 1 .13477 1 4.2662 4.0576 0 0 1 -.13672 1h2.8711v-2h-2.8691zm-5.1309 4.9395v3.0605h2v-3.0605a4.2662 4.0576 0 0 1 -1 .11914 4.2662 4.0576 0 0 1 -1-.11914z" fill="#69f" fill-opacity=".69804"/></svg>
