<svg height="16" viewBox="0 0 16 16" width="16" xmlns="http://www.w3.org/2000/svg"><path d="M6 0v4.42A4.266 4.058 0 0 0 4.291 6H0v4h4.295A4.266 4.058 0 0 0 6 11.582V16h4v-4.42A4.266 4.058 0 0 0 11.709 10H16V6h-4.295A4.266 4.058 0 0 0 10 4.418V0z" fill-opacity=".411"/><path d="M7 1v3.06a4.266 4.058 0 0 1 2 0V1zm1 4.08a2.92 2.92 0 0 0 0 5.84 2.92 2.92 0 0 0 0-5.84zM1 7v2h2.87a4.266 4.058 0 0 1 .001-2H1zm11.131 0a4.266 4.058 0 0 1-.002 2H15V7h-2.869zm-5.13 4.94V15h2v-3.06a4.266 4.058 0 0 1-2 0z" fill="#d6d6d6"/></svg>
