<svg height="16" width="16" xmlns="http://www.w3.org/2000/svg"><path d="M3 1a2 2 0 0 0-2 2v1h14V3a2 2 0 0 0-2-2H3zm9 1h1v1h-1V2zM1 5v8a2 2 0 0 0 2 2h10a2 2 0 0 0 2-2V5H1zm8.506 1a.5.5 0 0 1 .295.102l2.398 1.796a2 2 0 0 1 .799 1.602 2 2 0 0 1-.799 1.6l-2.4 1.798a.5.5 0 0 1-.801-.398v-1.47l2-1.53-1.994-1.498-.002-1.5A.5.5 0 0 1 9.506 6zm-3.05.002a.5.5 0 0 1 .542.5l-.002 1.5L5.002 9.5l2 1.53v1.47a.5.5 0 0 1-.8.398L3.8 11.1a2 2 0 0 1-.799-1.6 2 2 0 0 1 .799-1.602l2.398-1.796a.5.5 0 0 1 .256-.1z" style="fill:#efefef;fill-opacity:1"/></svg>
