<svg xmlns="http://www.w3.org/2000/svg" width="16" height="16"><path fill="#f0caa0" d="M 19.998047 4.998047 C 19.998047 6.105469 19.107422 7.001953 18 7.001953 L 18 10.998047 L 7.998047 10.998047 L 7.998047 7.001953 C 6.896484 7.001953 6 6.105469 6 4.998047 C 6 3.896484 6.896484 3 7.998047 3 L 18 3 C 19.107422 3 19.998047 3.896484 19.998047 4.998047 Z M 15 16.998047 L 16.998047 16.998047" transform="scale(.66667)"/><path fill="none" stroke="#f0caa0" stroke-linecap="round" stroke-linejoin="round" stroke-width="3" d="M 6 21 L 19.998047 21 C 20.554687 21 21 20.554687 21 19.998047 L 21 12 C 21 11.449219 20.554687 10.998047 19.998047 10.998047 L 6 10.998047 C 5.449219 10.998047 4.998047 11.449219 4.998047 12 L 4.998047 19.998047 C 4.998047 20.554687 5.449219 21 6 21 Z M 4.998047 13.998047 L 3 13.998047" transform="scale(.66667)"/></svg>
