<svg xmlns="http://www.w3.org/2000/svg" width="16" height="16" fill="none"><path fill="#478cbf" d="M2 0 12 0C13.1047 0 14 .89528 14 2L14 10C14 11.1047 13.1047 12 12 12L2 12C.89528 12 0 11.1047 0 10L0 2C0 .89528.89528 0 2 0L2 0Z" transform="translate(2 3)"/><path fill="#e0e0e0" d="M1 0 13 0C13.5524 0 14 .44764 14 1L14 11C14 11.5524 13.5524 12 13 12L1 12C.44764 12 0 11.5524 0 11L0 1C0 .44764.44764 0 1 0L1 0Z" transform="translate(0 1)"/><path fill="#478cbf" d="M1 0 11 0C11.5524 0 12 .44764 12 1L12 1C12 1.55236 11.5524 2 11 2L1 2C.44764 2 0 1.55236 0 1L0 1C0 .44764.44764 0 1 0L1 0Z" transform="translate(1 2)"/></svg>
