<svg xmlns="http://www.w3.org/2000/svg" width="16" height="16"><path fill="#e0e0e0" d="M6 1a2 2 0 0 0-2 2v7H1v3a2 2 0 0 0 2 2h6.645l-1.707-.854v-4.42l3.396-1.699.666-.334V5h3V3a2 2 0 0 0-2-2H6z"/><path fill-opacity=".2" d="M6 1a2 2 0 0 0-2 2v7H1v3a2 2 0 1 0 4 0V3a1 1 0 0 1 2 0v3h5V5H8V3a2 2 0 0 0-2-2zM2 11h2v2a1 1 0 0 1-2 0z"/><path fill="none" stroke="#e0e0e0" stroke-width=".856" d="m12.004 9.37 2.567 1.283v2.567l-2.567 1.283-2.567-1.283v-2.567Zm0 5.133v-2.567l2.567-1.283m-2.567 1.283-2.567-1.283"/></svg>
