<svg xmlns="http://www.w3.org/2000/svg" width="64" height="64"><path fill="#ff5f5f" d="M14 5a4 4 0 0 0-4 4v46a4 4 0 0 0 4 4h36a4 4 0 0 0 4-4V22a.967.967 0 0 0-.285-.707l-16-16a1 1 0 0 0-.707-.29V5zm0 2h22v12a4 4 0 0 0 4 4h12v32a2 2 0 0 1-2 2H14a2 2 0 0 1-2-2V9a2 2 0 0 1 2-2zm2.951 22.002a1 1 0 0 0-.703 1.658L19.172 34l-2.924 3.342a1 1 0 0 0 1.504 1.318l2.748-3.14 2.748 3.14a1 1 0 0 0 1.504-1.318L21.828 34l2.924-3.34a1 1 0 0 0-1.504-1.318l-2.748 3.14-2.748-3.14a1 1 0 0 0-.8-.34zm23 0a1 1 0 0 0-.703 1.658L42.172 34l-2.924 3.342a1 1 0 0 0 1.504 1.318l2.748-3.14 2.748 3.14a1 1 0 0 0 1.504-1.318L44.828 34l2.924-3.34a1 1 0 0 0-1.504-1.318l-2.748 3.14-2.748-3.14a1 1 0 0 0-.8-.34zM21 43a1 1 0 0 0 0 2h3v3a5 5 0 0 0 10 0v-3h9a1 1 0 0 0 0-2zm5 2h6v3a3 3 0 0 1-6 0z"/></svg>