<svg xmlns="http://www.w3.org/2000/svg" width="64" height="64"><path fill="#ff5f5f" d="M14 5c-2.199 0-4 1.801-4 4v26.172a1 1 0 0 0 1.707.707L15 32.586l9.293 9.293a1 1 0 0 0 1.414 0L35 32.586l9.293 9.293a1 1 0 0 0 1.414 0l8-8a1 1 0 0 0 .293-.707V22a1 1 0 0 0-.293-.707l-16-16A1 1 0 0 0 37 5H14zm0 2h22v12c0 2.199 1.801 4 4 4h12v9.758l-7 7-9.293-9.293a1 1 0 0 0-1.414 0L25 39.758l-9.293-9.293a1 1 0 0 0-1.414 0L12 32.758V9c0-1.126.875-2 2-2zm.984 28.83a1 1 0 0 0-.691.293l-4 4a1 1 0 0 0-.293.707V55c0 2.199 1.801 4 4 4h36c2.199 0 4-1.801 4-4V38.83a1 1 0 0 0-1.707-.707L45 45.416l-9.293-9.293a1 1 0 0 0-1.414 0L25 45.416l-9.293-9.293a1 1 0 0 0-.723-.293zM15 38.244l9.293 9.293a1 1 0 0 0 1.414 0L35 38.244l9.293 9.293a1 1 0 0 0 1.414 0L52 41.244V55c0 1.125-.875 2-2 2H14c-1.125 0-2-.875-2-2V41.244l3-3z"/></svg>