<svg height="16" viewBox="0 0 16 16" width="16" xmlns="http://www.w3.org/2000/svg"><path d="m2 1v14h12v-9h-5v-5zm8 0v4h4zm-6.0078 6c.1353-.0020779.26567.050774.36133.14648l.64648.64648.64648-.64648c.09183-.091882.21582-.14442.3457-.14648.1353-.00208.26567.050774.36133.14648.19521.19525.19521.51178 0 .70703l-.64648.64648.64648.64648c.19521.19525.19521.51178 0 .70703-.19525.19521-.51178.19521-.70703 0l-.64648-.64648-.64648.64648c-.19525.19521-.51178.19521-.70703 0-.19521-.19525-.19521-.51178 0-.70703l.64648-.64648-.64648-.64648c-.19521-.19525-.19521-.51178 0-.70703.09183-.091882.21582-.14442.3457-.14648zm6 0c.1353-.00208.26567.050774.36133.14648l.64648.64648.64648-.64648c.09183-.091883.21582-.14442.3457-.14648.1353-.00208.26567.050774.36133.14648.19521.19525.19521.51178 0 .70703l-.64648.64648.64648.64648c.19521.19525.19521.51178 0 .70703-.19525.19521-.51178.19521-.70703 0l-.64648-.64648-.64648.64648c-.19525.19521-.51178.19521-.70703 0-.19521-.19525-.19521-.51178 0-.70703l.64648-.64648-.64648-.64648c-.19521-.19525-.19521-.51178 0-.70703.09183-.091882.21582-.14442.3457-.14648zm-6.4922 4h9c.277 0 .5.223.5.5s-.223.5-.5.5h-4.5c0 1.1046-.89543 2-2 2s-2-.8954-2-2h-.5c-.277 0-.5-.223-.5-.5s.223-.5.5-.5zm1.5 1c-.000019.5523.44771 1 1 1s1-.4477 1-1z" fill="#ff5d5d" transform="translate(0 -.000017)"/></svg>
