<svg height="64" viewBox="0 0 64 64" width="64" xmlns="http://www.w3.org/2000/svg"><path d="M14 5c-2.199 0-4 1.801-4 4v46c0 2.199 1.801 4 4 4h36c2.199 0 4-1.801 4-4V22h-.008a.967.967 0 0 0-.285-.707l-16-16a1 1 0 0 0-.707-.29V5zm0 2h22v12c0 2.199 1.801 4 4 4h12v32c0 1.125-.875 2-2 2H14c-1.125 0-2-.875-2-2V9c0-1.125.875-2 2-2zm2.951 22.002a1 1 0 0 0-.61.246 1 1 0 0 0-.093 1.412L19.172 34l-2.924 3.342a1 1 0 0 0 .094 1.412 1 1 0 0 0 1.41-.094l2.748-3.14 2.748 3.14a1 1 0 0 0 1.41.094 1 1 0 0 0 .094-1.412L21.828 34l2.924-3.34a1 1 0 0 0-.094-1.412 1 1 0 0 0-.638-.246 1 1 0 0 0-.772.34l-2.748 3.14-2.748-3.14a1 1 0 0 0-.8-.34zm23 0a1 1 0 0 0-.61.246 1 1 0 0 0-.093 1.412L42.172 34l-2.924 3.342a1 1 0 0 0 .094 1.412 1 1 0 0 0 1.41-.094l2.748-3.14 2.748 3.14a1 1 0 0 0 1.41.094 1 1 0 0 0 .094-1.412L44.828 34l2.924-3.34a1 1 0 0 0-.094-1.412 1 1 0 0 0-.638-.246 1 1 0 0 0-.772.34l-2.748 3.14-2.748-3.14a1 1 0 0 0-.8-.34zM21.001 43a1 1 0 0 0-1 1 1 1 0 0 0 1 1h3v3c0 2.753 2.246 5 5 5s5-2.247 5-5v-3h9a1 1 0 0 0 1-1 1 1 0 0 0-1-1zm5 2h6v3c0 1.68-1.321 3-3 3s-3-1.32-3-3z" fill="#ff5f5f"/></svg>
