<svg xmlns="http://www.w3.org/2000/svg" width="32" height="32"><path fill="#ff5f5f" d="M5 1a3 3 0 0 0-3 3v24a3 3 0 0 0 3 3h22a3 3 0 0 0 3-3V11.191a1 1 0 0 0-.293-.707l-9.182-9.19A1 1 0 0 0 19.818 1H5zm0 2h14v6a3 3 0 0 0 3 3h6v16a1 1 0 0 1-1 1H5a1 1 0 0 1-1-1V4a1 1 0 0 1 1-1zm1.986 11.002a1 1 0 0 0-.693 1.705L7.586 17l-1.293 1.293a1 1 0 0 0 1.414 1.414L9 18.414l1.293 1.293a1 1 0 0 0 1.414-1.414L10.414 17l1.293-1.293a1 1 0 0 0-1.414-1.414L9 15.586l-1.293-1.293a1 1 0 0 0-.72-.291zm14 0a1 1 0 0 0-.693 1.705L21.586 17l-1.293 1.293a1 1 0 0 0 1.414 1.414L23 18.414l1.293 1.293a1 1 0 0 0 1.414-1.414L24.414 17l1.293-1.293a1 1 0 0 0-1.414-1.414L23 15.586l-1.293-1.293a1 1 0 0 0-.72-.291zM7 22a1 1 0 0 0 0 2h1a4 4 0 0 0 8 0h9a1 1 0 0 0 0-2zm3 2h4a2 2 0 0 1-4 0z"/></svg>