<svg height="32" viewBox="0 0 32 32" width="32" xmlns="http://www.w3.org/2000/svg"><path d="M5 1C3.355 1 2 2.355 2 4v24c0 1.645 1.355 3 3 3h22c1.645 0 3-1.355 3-3V11.191a1 1 0 0 0-.293-.707l-9.182-9.19A1 1 0 0 0 19.818 1H5zm0 2h14v6c0 1.645 1.355 3 3 3h6v16c0 .571-.429 1-1 1H5c-.571 0-1-.429-1-1V4c0-.571.429-1 1-1zm1.986 11.002a1 1 0 0 0-.693.291 1 1 0 0 0 0 1.414L7.586 17l-1.293 1.293a1 1 0 0 0 0 1.414 1 1 0 0 0 1.414 0L9 18.414l1.293 1.293a1 1 0 0 0 1.414 0 1 1 0 0 0 0-1.414L10.414 17l1.293-1.293a1 1 0 0 0 0-1.414 1 1 0 0 0-.72-.291 1 1 0 0 0-.694.291L9 15.586l-1.293-1.293a1 1 0 0 0-.72-.291zm14 0a1 1 0 0 0-.693.291 1 1 0 0 0 0 1.414L21.586 17l-1.293 1.293a1 1 0 0 0 0 1.414 1 1 0 0 0 1.414 0L23 18.414l1.293 1.293a1 1 0 0 0 1.414 0 1 1 0 0 0 0-1.414L24.414 17l1.293-1.293a1 1 0 0 0 0-1.414 1 1 0 0 0-.72-.291 1 1 0 0 0-.694.291L23 15.586l-1.293-1.293a1 1 0 0 0-.72-.291zM7 22a1 1 0 0 0-1 1 1 1 0 0 0 1 1h1a4 4 0 0 0 2 3.465 4 4 0 0 0 4 0A4 4 0 0 0 16 24h9a1 1 0 0 0 1-1 1 1 0 0 0-1-1zm3 2h4a2 2 0 0 1-2 2 2 2 0 0 1-2-2z" fill="#ff5f5f"/></svg>
