<svg height="32" viewBox="0 0 32 32" width="32" xmlns="http://www.w3.org/2000/svg"><path d="m5 1c-1.6447 0-3 1.3553-3 3v24c0 1.6447 1.3553 3 3 3h22c1.6447 0 3-1.3553 3-3v-16.809c-.000051-.2652-.10543-.51952-.29297-.70703l-9.1816-9.1895c-.18719-.18825-.44155-.29435-.70703-.29492h-14.818zm0 2h14v6c0 1.6447 1.3553 3 3 3h6v16c0 .5713-.42868 1-1 1h-22c-.57133 0-1-.4287-1-1v-24c0-.5713.42867-1 1-1zm1.9863 11.002a1 1 0 0 0 -.69336.29102 1 1 0 0 0 0 1.4141l1.293 1.293-1.293 1.293a1 1 0 0 0 0 1.4141 1 1 0 0 0 1.4141 0l1.293-1.293 1.293 1.293a1 1 0 0 0 1.4141 0 1 1 0 0 0 0-1.4141l-1.293-1.293 1.293-1.293a1 1 0 0 0 0-1.4141 1 1 0 0 0 -.7207-.29102 1 1 0 0 0 -.69336.29102l-1.293 1.293-1.293-1.293a1 1 0 0 0 -.7207-.29102zm14 0a1 1 0 0 0 -.69336.29102 1 1 0 0 0 0 1.4141l1.293 1.293-1.293 1.293a1 1 0 0 0 0 1.4141 1 1 0 0 0 1.4141 0l1.293-1.293 1.293 1.293a1 1 0 0 0 1.4141 0 1 1 0 0 0 0-1.4141l-1.293-1.293 1.293-1.293a1 1 0 0 0 0-1.4141 1 1 0 0 0 -.7207-.29102 1 1 0 0 0 -.69336.29102l-1.293 1.293-1.293-1.293a1 1 0 0 0 -.7207-.29102zm-13.986 7.998a1 1 0 0 0 -1 1 1 1 0 0 0 1 1h1a4 4 0 0 0 2 3.4648 4 4 0 0 0 4 0 4 4 0 0 0 2-3.4648h9a1 1 0 0 0 1-1 1 1 0 0 0 -1-1zm3 2h4a2 2 0 0 1 -2 2 2 2 0 0 1 -2-2z" fill="#ff5d5d" transform="translate(0 -.000017)"/></svg>
