<svg height="64" viewBox="0 0 64 64" width="64" xmlns="http://www.w3.org/2000/svg"><path d="m14 5c-2.1987 0-4 1.8013-4 4v26.172a1.0001 1.0001 0 0 0 1.707.70703l3.293-3.293 9.293 9.293a1.0001 1.0001 0 0 0 1.4141 0l9.293-9.293 9.293 9.293a1.0001 1.0001 0 0 0 1.4141 0l8-8a1.0001 1.0001 0 0 0 .29297-.70703v-11.172a1.0001 1.0001 0 0 0 -.29297-.70703l-16-16a1.0001 1.0001 0 0 0 -.70703-.29297h-23zm0 2h22v12c0 2.1987 1.8013 4 4 4h12v9.7578l-7 7-9.293-9.293a1.0001 1.0001 0 0 0 -1.4141 0l-9.293 9.293-9.293-9.293a1.0001 1.0001 0 0 0 -1.4141 0l-2.293 2.293v-23.758c0-1.1253.87473-2 2-2zm.98438 28.83a1.0001 1.0001 0 0 0 -.69141.29297l-4 4a1.0001 1.0001 0 0 0 -.29297.70703v14.17c0 2.1987 1.8013 4 4 4h36c2.1987 0 4-1.8013 4-4v-16.17a1.0001 1.0001 0 0 0 -1.707-.70703l-7.293 7.293-9.293-9.293a1.0001 1.0001 0 0 0 -1.4141 0l-9.293 9.293-9.293-9.293a1.0001 1.0001 0 0 0 -.72266-.29297zm.015625 2.4141 9.293 9.293a1.0001 1.0001 0 0 0 1.4141 0l9.293-9.293 9.293 9.293a1.0001 1.0001 0 0 0 1.4141 0l6.293-6.293v13.756c0 1.1253-.87473 2-2 2h-36c-1.1253 0-2-.87473-2-2v-13.756l3-3z" fill="#ff5d5d" transform="translate(0 -.000017)"/></svg>
