<svg height="16" viewBox="0 0 16 16" width="16" xmlns="http://www.w3.org/2000/svg"><path d="M2 1v14h12V6H9V1zm8 0v4h4zM5 7.793l.646-.646a.353.353 0 0 1 .707.707l-.646.646.646.646a.353.353 0 0 1-.707.707L5 9.207l-.646.646a.353.353 0 0 1-.707-.706l.646-.647-.646-.646a.353.353 0 0 1 .707-.707zm6 0 .646-.646a.353.353 0 0 1 .707.707l-.646.646.646.646a.353.353 0 0 1-.706.707L11 9.207l-.646.646a.353.353 0 0 1-.707-.706l.646-.647-.646-.646a.353.353 0 0 1 .706-.707zM3.5 11h9a.5.5 0 0 1 0 1H8a2 2 0 0 1-4 0h-.5a.5.5 0 0 1 0-1zM5 12a1 1 0 0 0 2 0z" fill="#ff5f5f"/></svg>
