<svg xmlns="http://www.w3.org/2000/svg" width="16" height="16"><g fill="#e0e0e0"><path d="m13.297.714h-13.013a.454.454 0 0 0 -.318.779l4.615 4.507v7.086a.45.45 0 0 0 .738.354l3.511-2.812a.454.454 0 0 0 .17-.354v-4.274l4.614-4.506a.454.454 0 0 0 -.317-.779z"/><path d="m11.085832 14.18196c3.399443 1.97457 6.855925-2.441094 4.074102-5.1815164-2.781825-2.7404217-7.2642008.6646174-5.2597994 4.0134654l-1.9001346 1.871854 1.1856973 1.168051zm1.699723-4.4945981c2.236109 0 2.236109 3.3042441 0 3.3042441-2.236108 0-2.236108-3.3042441 0-3.3042441z"/></g></svg>
