<svg xmlns="http://www.w3.org/2000/svg" width="16" height="16"><path fill="#e0e0e0" d="m11.032 6.8435a3.032 2.8914 0 0 0-6.064 0v1.1565h-0.6064v4.0479h7.2768v-4.0479h-0.6064zm-4.8512 0a1.8192 1.7348 0 0 1 3.6384 0v1.1565h-3.6384zm1.2128 2.3131h1.2128v1.7348h-1.2128z"/><g fill="none" stroke="#e0e0e0" stroke-linejoin="round" stroke-miterlimit="0"><path d="m2.1058 5.8844v-2.7749h2.9127m5.8565 0.0498h2.7749v2.9127" transform="matrix(1.1315 0 0 1.1398 -.914 -1.888)"/><path d="m13.757 11.466v2.7749h-2.9127m-5.856-0.0499h-2.7749v-2.9127" transform="matrix(1.1315 0 0 1.1398 -1.035 -1.888)"/></g></svg>
