<svg clip-rule="evenodd" fill-rule="evenodd" stroke-linejoin="round" stroke-miterlimit="2" viewBox="0 0 16 16" xmlns="http://www.w3.org/2000/svg"><path d="m1.4491431 6.9081906c-.59885747.5988575-.59885747 1.5847615 0 2.1836189l5.4590474 5.4590465c.5988576.598858 1.5847616.598858 2.183619.000001l5.4590465-5.4590475c.598858-.5988574.598858-1.5847614.000001-2.183619l-5.4590475-5.4590474c-.5988574-.59885747-1.5847614-.59885747-2.183619 0zm1.0918095 1.0918091 5.4590471-5.4590471 5.4590473 5.4590471-5.4590473 5.4590473zm1.6377142-.5459043c-.3024312.3024312-.3024312.7893781 0 1.0918092.3024313.3024311.7893783.3024311 1.0918095 0l1.0918095-1.0918093c.3024312-.3024312.3024312-.7893782 0-1.0918094-.3024312-.3024313-.7893782-.3024313-1.0918095 0zm2.7273401-2.7273401c-.3024312.3024311-.3024312.7893782 0 1.0918094.3024313.3024313.7893783.3024313 1.0918095 0l.5480882-.5480884c.3024311-.3024311.3024319-.7893783 0-1.0918094-.3024311-.3024313-.789378-.3024313-1.0918093 0zm-1.0896258 4.3650542c-.3024313.3024311-.3024313.7893779 0 1.0918095.3024312.302431.7893781.302431 1.0918094 0 .3024312-.3024316.3024313-.7893784 0-1.0918095-.3024311-.3024311-.7893781-.3024311-1.0918094 0zm1.6377142-1.6377142c-.3024313.3024313-.3024313.7893782 0 1.0918093s.7893782.3024311 1.0918093 0l1.6377144-1.637714c.302431-.3024312.302431-.7893783 0-1.0918096-.3024316-.3024312-.7893784-.3024311-1.0918095.0000002zm-.00218 3.2776127c-.3024312.302431-.3024313.789377-.0000001 1.091809.3024312.302431.7893782.302431 1.0918093 0l2.1858035-2.1858026c.302431-.3024311.302431-.7893787 0-1.0918098s-.7893792-.3024311-1.0918103 0z" fill="#8eef97" fill-rule="nonzero" stroke-width=".772026"/></svg>
