<svg height="16" viewBox="0 0 16 16" width="16" xmlns="http://www.w3.org/2000/svg"><path d="M4.5 9a.5.5 0 1 0 0 1h8a.5.5 0 1 0 0-1z" fill="#45d7ff"/><path d="M3.5 11a.5.5 0 1 0 0 1h5a.5.5 0 1 0 0-1z" fill="#8045ff"/><path d="M5.5 13a.5.5 0 0 0 0 1h5a.5.5 0 0 0 0-1z" fill="#ff4596"/><path d="M15 7H1.063C1.324 8 2.5 8 2.5 8H14s1 0 1-1z" fill="#45ffa2"/><path d="M13.857 5H3S1 5 1 6.5c0 .216.01.342.063.5H15c0-1-1.5-1-1.5-1s.238-.473.357-1z" fill="#80ff45"/><path d="M11.152 3H13c-.73-.42-1.344-.268-1.848 0z" fill="#ff4545"/><path d="M9.709 3H3.438C3 4 3 5 3 5h10.857c.15-.658.11-1.444-.857-2h-1.848C10.456 3.37 10 4 10 4l-.291-1z" fill="#ffe345"/><path d="M6.5 1C4.75 1 3.875 2 3.437 3H9.71c-.26-.889-.875-2-3.209-2z" fill="#ff4545"/><path d="M10.5 11a.5.5 0 1 0 0 1H13a.5.5 0 1 0 0-1z" fill="#8045ff"/></svg>
