<svg height="16" viewBox="0 0 16 16" width="16" xmlns="http://www.w3.org/2000/svg"><g fill="#fc7f7f"><g fill-opacity=".996078"><path d="m4.5 9.0000002c-.2761429-.0000014-.5000014.2238571-.5.5-.0000014.2761429.2238571.5000008.5.4999998l8-.0000002c.276143.0000012.500001-.2238569.5-.4999998.000001-.2761429-.223857-.5000014-.5-.5z"/><path d="m3.5 11c-.2761429-.000001-.5000014.223857-.5.5-.0000014.276143.2238571.500001.5.5h5c.2761429.000001.500001-.223857.5-.5.000001-.276143-.2238571-.500001-.5-.5z"/><path d="m5.5 13c-.2761424 0-.5.223858-.5.5s.2238576.5.5.5h5c.276142 0 .5-.223858.5-.5s-.223858-.5-.5-.5z"/></g><path d="m2.5 8s-1.5 0-1.5-1.5 2-1.5 2-1.5 0-4 3.5-4 3.5 3 3.5 3 1.260711-2 3-1 .5 3 .5 3 1.5 0 1.5 1-1 1-1 1z" fill-opacity=".99608"/><path d="m10.5 11c-.276143-.000001-.500001.223857-.5.5-.000001.276143.223857.500001.5.5h2.5c.276143.000001.500001-.223857.5-.5.000001-.276143-.223857-.500001-.5-.5z" fill-opacity=".996078"/></g></svg>
