<svg xmlns="http://www.w3.org/2000/svg" width="64" height="64"><path fill="#e0e0e0" d="m12 10a4 4 0 0 0-4 4v36a4 4 0 0 0 4 4h12.25c-0.16326-0.63882-0.25-1.3089-0.25-2v-2h-2a10 10 0 0 1-10-10 10 10 0 0 1 10-10h2c0-4.432 3.568-8 8-8h22c0.69109 0 1.3612 0.086741 2 0.25v-0.25a4 4 0 0 0-4-4h-16l-2-4c-1-2-2-4-4-4h-18z"/><path fill="#e0e0e0" d="m32.664 54c-2.5853 0-4.6641-2.0787-4.6641-4.6641v-5.3359h-1.5313c-1.1375 1.2717-2.7626 1.999-4.4687 2-3.3137 0-6-2.6863-6-6s2.6863-6 6-6c1.7062 9.64e-4 3.3313 0.72828 4.4687 2h1.5313v-5.3359c0-2.5853 2.0787-4.6641 4.6641-4.6641h18.672c2.5853 0 4.6641 2.0787 4.6641 4.6641v18.672c0 2.5853-2.0787 4.6641-4.6641 4.6641h-5.3359v-1.5312a6 6 0 0 0 2-4.4688 6 6 0 0 0-6-6 6 6 0 0 0-6 6 6 6 0 0 0 2 4.4688v1.5312z" paint-order="stroke markers fill"/></svg>
