<svg xmlns="http://www.w3.org/2000/svg" width="32" height="32"><path fill="#e0e0e0" d="m6 5a2 2 0 0 0-2 2v18.5h0.064453a2 2 0 0 0 1.9355 1.5h6.125c-0.08163-0.31941-0.125-0.65445-0.125-1v-1h-1a5 5 0 0 1-5-5 5 5 0 0 1 5-5h1c0-2.216 1.784-4 4-4h11c0.34555 0 0.68059 0.04337 1 0.125v-0.125a2 2 0 0 0-2-2h-8l-1-2c-0.5-1-1-2-2-2h-9z"/><path fill="#e0e0e0" d="m16.332 27c-1.2927 0-2.332-1.0394-2.332-2.332v-2.668h-0.76563c-0.56873 0.63586-1.3813 0.99952-2.2344 1-1.6569 0-3-1.3431-3-3s1.3431-3 3-3c0.8531 4.82e-4 1.6656 0.36414 2.2344 1h0.76563v-2.668c0-1.2927 1.0394-2.332 2.332-2.332h9.3359c1.2927 0 2.332 1.0394 2.332 2.332v9.3359c0 1.2927-1.0394 2.332-2.332 2.332h-2.668v-0.76562a3 3 0 0 0 1-2.2344 3 3 0 0 0-3-3 3 3 0 0 0-3 3 3 3 0 0 0 1 2.2344v0.76562z" paint-order="stroke markers fill"/></svg>
