<svg xmlns="http://www.w3.org/2000/svg" xml:space="preserve" width="16" height="16"><path fill="#e0e0e0" d="M2 2a1 1 0 0 0-1 1v10a1 1 0 0 0 1 1h3.738a2.5 2.5 0 0 1-.238-1.074 2.49 2.49 0 0 1 2.5-2.5c.565 0 1.083.187 1.5.5.417-.313.935-.5 1.5-.5s1.083.187 1.5.5a2.5 2.5 0 0 1 2.5-.295V6a1 1 0 0 0-1-1h-4a1 1 0 0 1-1-1V3a1 1 0 0 0-1-1Zm5.408 13.355.074.018q-.038-.008-.074-.018m.35.06"/><path fill="#e0e0e0" d="M9 13a1 1 0 1 1-2 0 1 1 0 0 1 2 0m3 0a1 1 0 1 1-2 0 1 1 0 0 1 2 0m3 0a1 1 0 1 1-2 0 1 1 0 0 1 2 0"/></svg>
