<svg xmlns="http://www.w3.org/2000/svg" xml:space="preserve" width="16" height="16"><path d="M2 2a1 1 0 0 0-1 1v10a1 1 0 0 0 1 1h3.738a2.505 2.505 0 0 1-.238-1.074 2.49 2.49 0 0 1 2.5-2.5c.565 0 1.083.187 1.5.5.417-.313.935-.5 1.5-.5s1.083.187 1.5.5a2.504 2.504 0 0 1 2.5-.295V6a1 1 0 0 0-1-1h-4a1 1 0 0 1-1-1V3a1 1 0 0 0-1-1Zm3.8 12.121zm.126.205zm9.293-3.586zm.187.115zm.42.36zm.123.14zm.125.17zm.135.227zm.25.719zM6.084 14.537zm.348.34zm.17.125zm.203.123zm.603.23.074.018c-.025-.005-.05-.012-.074-.018zm.35.06z" style="fill:#e0e0e0;fill-opacity:1"/><path d="M6.336 12a1 1 0 1 1-2 0 1 1 0 0 1 2 0zm3 0a1 1 0 1 1-2 0 1 1 0 0 1 2 0zm3 0a1 1 0 1 1-2 0 1 1 0 0 1 2 0z" style="fill:#e0e0e0;stroke-width:20.4397;stroke-linecap:round" transform="translate(2.664 1)"/></svg>