<svg xmlns="http://www.w3.org/2000/svg" width="16" height="16"><path fill="#e0e0e0" d="m2 2a1 1 0 0 0-1 1v10a1 1 0 0 0 1 1h5.2656c-0.16925-0.29384-0.26562-0.63521-0.26562-1h-0.5a2.5 2.5 0 0 1-2.5-2.5 2.5 2.5 0 0 1 2.5-2.5h0.5c0-1.108 0.892-2 2-2h4.2695 0.73047 1a1 1 0 0 0-1-1h-4a1 1 0 0 1-1-1v-1a1 1 0 0 0-1-1h-6z"/><path fill="#e0e0e0" d="m9.166 14c-0.64633 0-1.166-0.51968-1.166-1.166v-1.334h-0.38281c-0.28437 0.31793-0.69064 0.49976-1.1172 0.5-0.82843 0-1.5-0.67157-1.5-1.5s0.67157-1.5 1.5-1.5c0.42655 2.41e-4 0.83282 0.18207 1.1172 0.5h0.38281v-1.334c0-0.64633 0.51968-1.166 1.166-1.166h4.668c0.64633 0 1.166 0.51968 1.166 1.166v4.668c0 0.64633-0.51968 1.166-1.166 1.166h-1.334v-0.38281a1.5 1.5 0 0 0 0.5-1.1172 1.5 1.5 0 0 0-1.5-1.5 1.5 1.5 0 0 0-1.5 1.5 1.5 1.5 0 0 0 0.5 1.1172v0.38281z" paint-order="stroke markers fill"/></svg>
