<svg height="16" viewBox="0 0 16 16" width="16" xmlns="http://www.w3.org/2000/svg"><g fill="#e0e0e0" transform="translate(0 -1036.4)"><path d="m1 1037.4h14v2h-14z"/><path d="m7 1037.4h2v14h-2z"/><path d="m5 1050.4h6v1h-6z"/><path d="m1037.4-2h4v1h-4z" transform="rotate(90)"/><path d="m1037.4-15h4v1h-4z" transform="rotate(90)"/><path d="m2 3v2a2 2 0 0 1 2-2z" transform="translate(0 1036.4)"/><path d="m12 3a2 2 0 0 1 2 2v-2z" transform="translate(0 1036.4)"/><path d="m5 1050.4a2 2 0 0 0 2-2v2z"/><path d="m11 1050.4a2 2 0 0 1 -2-2v2z"/></g></svg>
