<svg clip-rule="evenodd" fill-rule="evenodd" stroke-linejoin="round" stroke-miterlimit="2" viewBox="0 0 16 16" xmlns="http://www.w3.org/2000/svg"><g fill="#e0e0e0" fill-rule="nonzero"><path d="m1.047 7.127h6.025v1.2h-6.025z"/><path d="m3.452 7.127h1.214v6.508h-1.214z"/><path d="m2.238 13.171h3.643v.465h-3.643z"/><path d="m1.477 7.127v2.4h-.43v-2.4z"/><path d="m7.071 7.127v2.4h-.43v-2.4z"/><path d="m1.477 8.327v1.2c0-.658.389-1.2.861-1.2z"/><path d="m5.78 8.327c.473 0 .861.542.861 1.2v-1.2z"/><path d="m2.238 13.171c.666 0 1.214-.42 1.214-.93v.93z"/><path d="m5.88 13.171c-.666 0-1.214-.42-1.214-.93v.93z"/><path d="m4.563 2.873h10.773v1.539h-10.773z"/><path d="m9.18 2.873h1.539v10.773h-1.539z"/><path d="m7.641 12.877h4.617v.769h-4.617z"/><path d="m5.332 2.873v3.078h-.769v-3.078z"/><path d="m15.336 2.873v3.078h-.77v-3.078z"/><path d="m5.332 4.412v1.539c0-.844.695-1.539 1.539-1.539z"/><path d="m13.027 4.412c.844 0 1.539.695 1.539 1.539v-1.539z"/><path d="m7.641 12.877c.844 0 1.539-.695 1.539-1.539v1.539z"/><path d="m12.258 12.877c-.845 0-1.539-.695-1.539-1.539v1.539z"/></g></svg>
