<?xml version="1.0" encoding="UTF-8" standalone="no"?><!DOCTYPE svg PUBLIC "-//W3C//DTD SVG 1.1//EN" "http://www.w3.org/Graphics/SVG/1.1/DTD/svg11.dtd"><svg width="100%" height="100%" viewBox="0 0 16 16" version="1.1" xmlns="http://www.w3.org/2000/svg" xmlns:xlink="http://www.w3.org/1999/xlink" xml:space="preserve" xmlns:serif="http://www.serif.com/" style="fill-rule:evenodd;clip-rule:evenodd;stroke-linejoin:round;stroke-miterlimit:2;"><g id="SmallerT"><rect x="1.047" y="7.127" width="6.025" height="1.2" style="fill:#e0e0e0;fill-rule:nonzero;"/><rect x="3.452" y="7.127" width="1.214" height="6.508" style="fill:#e0e0e0;fill-rule:nonzero;"/><rect x="2.238" y="13.171" width="3.643" height="0.465" style="fill:#e0e0e0;fill-rule:nonzero;"/><path d="M1.477,7.127l0,2.4l-0.43,0l-0,-2.4l0.43,0Z" style="fill:#e0e0e0;fill-rule:nonzero;"/><path d="M7.071,7.127l0,2.4l-0.43,0l0,-2.4l0.43,0Z" style="fill:#e0e0e0;fill-rule:nonzero;"/><path d="M1.477,8.327l0,1.2c0,-0.658 0.389,-1.2 0.861,-1.2l-0.861,0Z" style="fill:#e0e0e0;fill-rule:nonzero;"/><path d="M5.78,8.327c0.473,0 0.861,0.542 0.861,1.2l0,-1.2l-0.861,0Z" style="fill:#e0e0e0;fill-rule:nonzero;"/><path d="M2.238,13.171c0.666,-0 1.214,-0.42 1.214,-0.93l0,0.93l-1.214,-0Z" style="fill:#e0e0e0;fill-rule:nonzero;"/><path d="M5.88,13.171c-0.666,-0 -1.214,-0.42 -1.214,-0.93l0,0.93l1.214,-0Z" style="fill:#e0e0e0;fill-rule:nonzero;"/></g><g id="BiggerT"><rect x="4.563" y="2.873" width="10.773" height="1.539" style="fill:#e0e0e0;fill-rule:nonzero;"/><rect x="9.18" y="2.873" width="1.539" height="10.773" style="fill:#e0e0e0;fill-rule:nonzero;"/><rect x="7.641" y="12.877" width="4.617" height="0.769" style="fill:#e0e0e0;fill-rule:nonzero;"/><path d="M5.332,2.873l0,3.078l-0.769,0l-0,-3.078l0.769,0Z" style="fill:#e0e0e0;fill-rule:nonzero;"/><path d="M15.336,2.873l-0,3.078l-0.77,0l0,-3.078l0.77,0Z" style="fill:#e0e0e0;fill-rule:nonzero;"/><path d="M5.332,4.412l0,1.539c0,-0.844 0.695,-1.539 1.539,-1.539l-1.539,0Z" style="fill:#e0e0e0;fill-rule:nonzero;"/><path d="M13.027,4.412c0.844,0 1.539,0.695 1.539,1.539l0,-1.539l-1.539,0Z" style="fill:#e0e0e0;fill-rule:nonzero;"/><path d="M7.641,12.877c0.844,-0 1.539,-0.695 1.539,-1.539l-0,1.539l-1.539,-0Z" style="fill:#e0e0e0;fill-rule:nonzero;"/><path d="M12.258,12.877c-0.845,-0 -1.539,-0.695 -1.539,-1.539l-0,1.539l1.539,-0Z" style="fill:#e0e0e0;fill-rule:nonzero;"/></g></svg>
