<svg height="16" width="16" xml:space="preserve" xmlns="http://www.w3.org/2000/svg"><path d="M5.975 11 7.21 7.5H5.916a.478.478 0 0 0-.113.016.837.837 0 0 0-.127.043c-.044.018-.089.04-.133.066l-.043.027V9a1 1 0 0 1-1 1v1h1.475zM1.5 1v3h1a1 1 0 0 1 1-1h2v1.5h2V3h2a1 1 0 0 1 1 1h1V1h-10z" style="fill:#e0e0e0;fill-opacity:1"/><path d="m4.621 5-.705 2-.353 1h1a.84 1.192 49.998 0 1 1.353-1h2L5.8 13a.84 1.192 49.998 0 1-1.353 1l-.353 1h4l.353-1a.84 1.192 49.998 0 1-.647-1l2.116-6h2a.84 1.192 49.998 0 1 .647 1h1l.353-1 .705-2h-6z" fill="#ff5f5f"/></svg>
