<svg height="16" width="16" xml:space="preserve" xmlns="http://www.w3.org/2000/svg"><path d="M2.437 1 1.379 4h1A.84 1.192 50 0 1 3.73 3h2L3.615 9a.84 1.192 50 0 1-1.352 1l-.353 1h4l.353-1a.84 1.192 50 0 1-.648-1l2.116-6h2a.84 1.192 50 0 1 .648 1h1l1.058-3h-6Z" fill="#e0e0e0"/><path d="m4.621 5-.705 2-.353 1h1a.84 1.192 49.998 0 1 1.353-1h2L5.8 13a.84 1.192 49.998 0 1-1.353 1l-.353 1h4l.353-1a.84 1.192 49.998 0 1-.647-1l2.116-6h2a.84 1.192 49.998 0 1 .647 1h1l.353-1 .705-2h-6Z" fill="#ff5f5f"/></svg>
