<svg height="16" viewBox="0 0 16 16" width="16" xmlns="http://www.w3.org/2000/svg"><path d="m8 1a1 1 0 0 0 -1 1v4.8828l-3.5527-1.7773a1 1 0 0 0 -.48438-.10352 1 1 0 0 0 -.85742.55078 1 1 0 0 0 .44727 1.3418l3.2109 1.6055-3.2109 1.6055a1 1 0 0 0 -.44727 1.3418 1 1 0 0 0 1.3418.44726l3.5527-1.7773v3.8828a1 1 0 0 0 1 1 1 1 0 0 0 1-1v-3.8828l3.5527 1.7773a1 1 0 0 0 1.3418-.44726 1 1 0 0 0 -.44726-1.3418l-3.2109-1.6055 3.2109-1.6055a1 1 0 0 0 .44726-1.3418 1 1 0 0 0 -.88672-.55273 1 1 0 0 0 -.45508.10547l-3.5527 1.7773v-4.8828a1 1 0 0 0 -1-1z" fill="#fc9c9c" fill-rule="evenodd"/></svg>
