<svg xmlns="http://www.w3.org/2000/svg" width="128" height="128"><path fill-opacity=".294" d="M52 4a12 12 0 0 0-12 12v26.625A38 38 0 0 0 20 76v4h28.578a16 16 0 0 0 30.856 0H108v-4a38 38 0 0 0-20-33.385V16A12 12 0 0 0 76 4zM40.311 82a8 8 0 0 0-4.559 1.055l-10.393 6a8 8 0 0 0 8 13.86l10.394-6A8 8 0 0 0 40.311 82zm47.379 0a8 8 0 0 0-3.441 14.93l10.393 6a8 8 0 0 0 8-13.86l-10.393-6a8 8 0 0 0-4.559-1.054zM64 96a8 8 0 0 0-8 8v12a8 8 0 0 0 16 0v-12a8 8 0 0 0-8-8z"/><path fill="#fff" d="M52 8a8 8 0 0 0-8 8v28.875A40 36 0 0 0 24 76h28a12 12 0 0 0 24 0h28a40 36 0 0 0-20-31.141V16a8 8 0 0 0-8-8zM40.031 86a4 4 0 0 0-2.28.53l-10.392 6a4 4 0 0 0 4 6.929l10.393-6a4 4 0 0 0-1.721-7.453zm47.938 0a4 4 0 0 0-1.721 7.465l10.393 6a4 4 0 0 0 4-6.93l-10.393-6a4 4 0 0 0-2.279-.529zM64 100a4 4 0 0 0-4 4v12a4 4 0 0 0 8 0v-12a4 4 0 0 0-4-4z"/></svg>
