<svg height="128" viewBox="0 0 128 128" width="128" xmlns="http://www.w3.org/2000/svg"><path d="M64 4c-4.432 0-8 3.568-8 8v16c0 4.432 3.568 8 8 8s8-3.568 8-8V12c0-4.432-3.568-8-8-8zM27.23 19.223c-2.045 0-4.09.785-5.656 2.352a7.98 7.98 0 0 0 0 11.312L32.886 44.2c3.134 3.134 8.18 3.134 11.314 0s3.134-8.181 0-11.314L32.886 21.575a7.975 7.975 0 0 0-5.656-2.352zm73.539 0c-2.045 0-4.09.785-5.656 2.352L83.799 32.887c-3.134 3.134-3.134 8.18 0 11.314s8.18 3.134 11.314 0l11.312-11.314a7.98 7.98 0 0 0 0-11.312 7.975 7.975 0 0 0-5.656-2.352zM63.999 40a24 24 0 0 0-24 24 24 24 0 0 0 24 24 24 24 0 0 0 24-24 24 24 0 0 0-24-24zm-52 16c-4.432 0-8 3.568-8 8s3.568 8 8 8h16c4.432 0 8-3.568 8-8s-3.568-8-8-8zm88 0c-4.432 0-8 3.568-8 8s3.568 8 8 8h16c4.432 0 8-3.568 8-8s-3.568-8-8-8zM38.544 81.449a7.977 7.977 0 0 0-5.658 2.35L21.574 95.113a7.98 7.98 0 0 0 0 11.312 7.98 7.98 0 0 0 11.312 0L44.2 95.113a7.983 7.983 0 0 0 0-11.314 7.973 7.973 0 0 0-5.656-2.35zm50.91 0a7.97 7.97 0 0 0-5.656 2.35 7.983 7.983 0 0 0 0 11.314l11.314 11.312c3.134 3.133 8.178 3.133 11.312 0s3.134-8.179 0-11.312L95.112 83.799a7.977 7.977 0 0 0-5.658-2.35zM63.999 92c-4.432 0-8 3.568-8 8v16c0 4.432 3.568 8 8 8s8-3.568 8-8v-16c0-4.432-3.568-8-8-8z" fill-opacity=".294"/><path d="M64 8c-2.216 0-4 1.784-4 4v16c0 2.216 1.784 4 4 4s4-1.784 4-4V12c0-2.216-1.784-4-4-4zM27.23 23.227a3.987 3.987 0 0 0-2.828 1.176 3.99 3.99 0 0 0 0 5.656l11.312 11.314c1.567 1.567 4.091 1.567 5.658 0s1.567-4.091 0-5.658L30.058 24.403a3.987 3.987 0 0 0-2.828-1.176zm73.539 0a3.987 3.987 0 0 0-2.828 1.176L86.627 35.715c-1.567 1.567-1.567 4.091 0 5.658s4.091 1.567 5.658 0l11.313-11.314a3.99 3.99 0 0 0 0-5.656 3.987 3.987 0 0 0-2.828-1.176zM63.999 44c-11.046 0-20 8.954-20 20s8.954 20 20 20 20-8.954 20-20-8.954-20-20-20zm-52 16c-2.216 0-4 1.784-4 4s1.784 4 4 4h16c2.216 0 4-1.784 4-4s-1.784-4-4-4zm88 0c-2.216 0-4 1.784-4 4s1.784 4 4 4h16c2.216 0 4-1.784 4-4s-1.784-4-4-4zM38.544 85.453a3.99 3.99 0 0 0-2.83 1.174L24.402 97.94a3.99 3.99 0 0 0 0 5.656 3.99 3.99 0 0 0 5.656 0l11.314-11.313a3.993 3.993 0 0 0 0-5.658 3.985 3.985 0 0 0-2.828-1.174zm50.91 0c-1.022 0-2.045.39-2.828 1.174a3.993 3.993 0 0 0 0 5.658l11.314 11.313a3.99 3.99 0 0 0 5.656 0 3.99 3.99 0 0 0 0-5.656L92.283 86.628a3.99 3.99 0 0 0-2.83-1.174zM63.999 96c-2.216 0-4 1.784-4 4v16c0 2.216 1.784 4 4 4s4-1.784 4-4v-16c0-2.216-1.784-4-4-4z" fill="#fff"/></svg>
