<svg xmlns="http://www.w3.org/2000/svg" width="128" height="128"><path fill="none" stroke="#000" stroke-opacity=".3" stroke-width="8" d="M36.688 4a6.112 6.112 0 0 0-6.112 6.112v4.8h-9.6a6.112 6.112 0 0 0-6.112 6.112v9.6h-4.8a6.112 6.112 0 0 0-6.112 6.112v3.2a6.112 6.112 0 0 0 6.112 6.112h4.8v36h-4.8a6.112 6.112 0 0 0-6.112 6.112v3.2a6.112 6.112 0 0 0 6.112 6.112h4.8v9.6a6.112 6.112 0 0 0 6.112 6.112h9.6v4.8a6.112 6.112 0 0 0 6.112 6.112h3.2A6.112 6.112 0 0 0 46 117.984v-4.8h36v4.8a6.112 6.112 0 0 0 6.112 6.112h3.2a6.112 6.112 0 0 0 6.112-6.112v-4.8h9.6a6.112 6.112 0 0 0 6.112-6.112v-9.6h4.8a6.112 6.112 0 0 0 6.112-6.112v-3.2a6.112 6.112 0 0 0-6.112-6.112h-4.8v-36h4.8a6.112 6.112 0 0 0 6.112-6.112v-3.2a6.112 6.112 0 0 0-6.112-6.112h-4.8v-9.6a6.112 6.112 0 0 0-6.112-6.104h-9.6v-4.8a6.112 6.112 0 0 0-6.112-6.112h-3.2A6.112 6.112 0 0 0 82 10.12v4.8H46v-4.8a6.112 6.112 0 0 0-6.112-6.112z"/><path fill="#f7f5cf" d="M36.688 4a6.112 6.112 0 0 0-6.112 6.112v4.8h-9.6a6.112 6.112 0 0 0-6.112 6.112v9.6h-4.8a6.112 6.112 0 0 0-6.112 6.112v3.2a6.112 6.112 0 0 0 6.112 6.112h4.8v36h-4.8a6.112 6.112 0 0 0-6.112 6.112v3.2a6.112 6.112 0 0 0 6.112 6.112h4.8v9.6a6.112 6.112 0 0 0 6.112 6.112h9.6v4.8a6.112 6.112 0 0 0 6.112 6.112h3.2A6.112 6.112 0 0 0 46 117.984v-4.8h36v4.8a6.112 6.112 0 0 0 6.112 6.112h3.2a6.112 6.112 0 0 0 6.112-6.112v-4.8h9.6a6.112 6.112 0 0 0 6.112-6.112v-9.6h4.8a6.112 6.112 0 0 0 6.112-6.112v-3.2a6.112 6.112 0 0 0-6.112-6.112h-4.8v-36h4.8a6.112 6.112 0 0 0 6.112-6.112v-3.2a6.112 6.112 0 0 0-6.112-6.112h-4.8v-9.6a6.112 6.112 0 0 0-6.112-6.104h-9.6v-4.8a6.112 6.112 0 0 0-6.112-6.112h-3.2A6.112 6.112 0 0 0 82 10.12v4.8H46v-4.8a6.112 6.112 0 0 0-6.112-6.112z"/><path fill="#e1b44c" d="M88 82a18 18 0 0 0 2.484-35.814 27 30 0 0 0-52.944 0 18 18 0 0 0 2.484 35.802zm-48 6a6 6 0 0 0 0 12 6 6 0 0 0 0-12zm48 0a6 6 0 0 0 0 12 6 6 0 0 0 0-12zm-24 6a6 6 0 0 0 0 12 6 6 0 0 0 0-12z"/></svg>