<svg height="128" viewBox="0 0 128 128" width="128" xmlns="http://www.w3.org/2000/svg"><path d="M35.504 1.282c-3.57 0-6.435 2.948-6.435 6.602v4.39c0 .889.17 1.726.478 2.499H19.465c-3.57 0-6.435 2.931-6.435 6.585v7.97c-.341-.057-.649-.203-1.006-.203h-4.29c-3.57 0-6.452 2.948-6.452 6.602v3.225c0 3.653 2.881 6.585 6.452 6.585h4.29c.358 0 .664-.146 1.006-.203v38.497c-.341-.057-.649-.203-1.006-.203h-4.29c-3.57 0-6.452 2.949-6.452 6.602v3.225c0 3.654 2.881 6.585 6.452 6.585h4.29c.358 0 .664-.145 1.006-.202v9.725c0 3.654 2.865 6.602 6.435 6.602h9.604v3.951c0 3.654 2.864 6.602 6.435 6.602h3.151c3.57 0 6.452-2.948 6.452-6.602v-3.95h37.225v3.95c0 3.654 2.865 6.602 6.435 6.602h3.152c3.57 0 6.451-2.948 6.451-6.602v-3.95h10.726c3.57 0 6.451-2.95 6.451-6.603v-9.607c.15.01.277.084.43.084h4.29c3.57 0 6.451-2.931 6.451-6.585V90.23c0-3.653-2.881-6.601-6.452-6.601h-4.29c-.152 0-.28.073-.429.084v-38.26c.15.01.277.084.43.084h4.29c3.57 0 6.451-2.932 6.451-6.585v-3.225c0-3.654-2.881-6.602-6.452-6.602h-4.29c-.152 0-.28.074-.429.084v-7.851c0-3.654-2.88-6.585-6.451-6.585h-11.22a6.7 6.7 0 0 0 .494-2.5v-4.39c0-3.653-2.88-6.601-6.451-6.601h-3.152c-3.57 0-6.435 2.948-6.435 6.602v4.39c0 .889.17 1.726.478 2.499H44.612c.31-.773.495-1.61.495-2.5v-4.39c0-3.653-2.881-6.601-6.452-6.601z" fill="#f7f5cf" stroke="#b3b3b3" stroke-width="2.564"/><path d="M62.861 21.662a27.707 31.503 0 0 1 27.144 25.411 18.472 18.902 0 0 1 15.956 18.691 18.472 18.902 0 0 1-18.48 18.894H38.225a18.472 18.902 0 0 1-18.464-18.894 18.472 18.902 0 0 1 15.923-18.708A27.707 31.503 0 0 1 62.86 21.662zM38.226 90.956a6.157 6.3 0 0 1 6.155 6.298 6.157 6.3 0 0 1-6.155 6.315 6.157 6.3 0 0 1-6.154-6.315 6.157 6.3 0 0 1 6.154-6.298zm49.254 0a6.157 6.3 0 0 1 6.171 6.298 6.157 6.3 0 0 1-6.17 6.315 6.157 6.3 0 0 1-6.156-6.315 6.157 6.3 0 0 1 6.155-6.298zm-24.619 6.298a6.157 6.3 0 0 1 6.155 6.315 6.157 6.3 0 0 1-6.155 6.298 6.157 6.3 0 0 1-6.154-6.298 6.157 6.3 0 0 1 6.154-6.315z" fill="#b3b3b3"/></svg>
