<svg xmlns="http://www.w3.org/2000/svg" width="128" height="128"><path fill-opacity=".294" d="M63.998 4c-18.429.005-34.029 13.88-38.557 32.926C13.041 39.934 4.014 51.006 4 63.996V64c0 15.417 12.583 28 28 28h64c15.417 0 28-12.583 28-28v-.004c-.015-13-9.055-24.076-21.467-27.074C98.006 17.889 82.421 4.019 64.004 4zM96 92c-6.58 0-12 5.42-12 12s5.42 12 12 12 12-5.42 12-12-5.42-12-12-12zm-64 0c-6.58 0-12 5.42-12 12s5.42 12 12 12 12-5.42 12-12-5.42-12-12-12zm32 8c-6.58 0-12 5.42-12 12s5.42 12 12 12 12-5.42 12-12-5.42-12-12-12z"/><path fill="#f7f5cf" d="M64 8a36 40 0 0 0-35.311 32.256A24 24 0 0 0 8 64a24 24 0 0 0 24 24h64a24 24 0 0 0 24-24 24 24 0 0 0-20.715-23.746A36 40 0 0 0 64 8zM32 96a8 8 0 0 0-8 8 8 8 0 0 0 8 8 8 8 0 0 0 8-8 8 8 0 0 0-8-8zm64 0a8 8 0 0 0-8 8 8 8 0 0 0 8 8 8 8 0 0 0 8-8 8 8 0 0 0-8-8zm-32 8a8 8 0 0 0-8 8 8 8 0 0 0 8 8 8 8 0 0 0 8-8 8 8 0 0 0-8-8z"/></svg>
