<svg height="128" viewBox="0 0 128 128" width="128" xmlns="http://www.w3.org/2000/svg"><path d="M12 4a8 8 0 0 0-8 8v104a8 8 0 0 0 8 8h64v-16H20V20h88v7.768A36 36 0 0 0 92 24a36 36 0 0 0-36 36 36 36 0 0 0 16 29.9V98a9.977 9.977 0 0 0 8 9.8V124h24v-16.2a9.977 9.977 0 0 0 8-9.8v-8.088A36 36 0 0 0 128 60a36 36 0 0 0-19.523-32H124V12a8 8 0 0 0-8-8H12zm28.25 17.996A7.984 7.984 0 0 0 33.11 26a7.983 7.983 0 0 0 2.93 10.928l10.392 6c3.838 2.216 8.712.91 10.928-2.928s.91-8.712-2.928-10.928l-10.393-6a7.99 7.99 0 0 0-3.789-1.076zM92 44a16 16 0 0 1 16 16 16 16 0 0 1-16 16 16 16 0 0 1-16-16 16 16 0 0 1 16-16zm-60 8c-4.432 0-8 3.568-8 8s3.568 8 8 8h12c4.432 0 8-3.568 8-8s-3.568-8-8-8zm18.221 23.996a7.991 7.991 0 0 0-3.79 1.076l-10.392 6c-3.838 2.216-5.146 7.09-2.93 10.928s7.092 5.144 10.93 2.928l10.393-6A7.982 7.982 0 0 0 57.36 80a7.98 7.98 0 0 0-7.139-4.004z" fill-opacity=".294"/><path d="M12 8a4 4 0 0 0-4 4v104a4 4 0 0 0 4 4h60v-8H16V16h96v8h8V12a4 4 0 0 0-4-4zm27.715 17.951a3.843 3.843 0 0 0-3.066 1.92l-.149.258a3.844 3.844 0 0 0 1.41 5.261l10.648 6.149a3.844 3.844 0 0 0 5.262-1.41l.149-.258a3.844 3.844 0 0 0-1.41-5.262L41.91 26.461a3.84 3.84 0 0 0-2.195-.51zM92 28a32 32 0 0 0-32 32 32 32 0 0 0 16 27.668V96c0 4.432 3.568 8 8 8h16c4.432 0 8-3.568 8-8v-8.323A32 32 0 0 0 124 60a32 32 0 0 0-32-32zm0 12a20 20 0 0 1 20 20 20 20 0 0 1-20 20 20 20 0 0 1-20-20 20 20 0 0 1 20-20zM31.852 56A3.843 3.843 0 0 0 28 59.85v.297A3.843 3.843 0 0 0 31.852 64h12.297a3.843 3.843 0 0 0 3.852-3.852v-.297A3.843 3.843 0 0 0 44.149 56zm18.902 23.95a3.84 3.84 0 0 0-2.195.51L37.91 86.61a3.844 3.844 0 0 0-1.41 5.262l.148.257a3.844 3.844 0 0 0 5.262 1.41l10.648-6.148a3.844 3.844 0 0 0 1.41-5.261l-.149-.258a3.842 3.842 0 0 0-3.066-1.92zM84 112v8h16v-8z" fill="#f7f5cf"/></svg>
