<svg height="128" viewBox="0 0 128 128" width="128" xmlns="http://www.w3.org/2000/svg"><path d="M48 3.96c-24.252 0-44 19.746-44 43.998a4 4 0 0 0 4 4h16a4 4 0 0 0 4-4A19.94 19.94 0 0 1 48 27.96a19.94 19.94 0 0 1 20 19.998c0 13.174-3.206 16.05-7.68 19.78-2.06 1.716-4.628 3.22-7.596 5.364-1.446 1.044-3.33 2.468-5.098 4.7C45.662 80.282 44 83.782 44 87.958c0 4.78-.634 7.372-1.22 8.64-.588 1.266-.942 1.46-1.956 2.066-1.1.66-5.032 1.29-8.824 1.29l-.04.002H24a4 4 0 0 0-4 4v16a4 4 0 0 0 4 4h8.042c3.812 0 12.62.394 21.132-4.712 8.02-4.812 13.326-14.546 14.348-27.184 1.624-1.096 4.69-2.994 8.16-5.886C83.686 79.504 92 67.094 92 47.958 92 23.706 72.252 3.96 48 3.96zm63.614 8.004a4 4 0 0 0-2.188.534l-13.906 8.03A4 4 0 0 0 94.06 26a43.992 43.992 0 0 1 5.944 21.96 43.99 43.99 0 0 1-5.928 21.976 4 4 0 0 0 1.462 5.47l13.89 8.014a4 4 0 0 0 5.464-1.466 68.01 68.01 0 0 0 0-67.996 4 4 0 0 0-3.278-1.996z" fill-opacity=".294"/><path d="M48 7.96A40 39.998 0 0 0 8 47.958h16A24 24 0 0 1 48 23.96a24 24 0 0 1 24 23.998c0 14-4.33 18.86-9.12 22.852-2.396 1.996-5.038 3.53-7.814 5.536-1.388 1-2.866 2.126-4.304 3.94C49.322 82.102 48 84.958 48 87.958c0 10.22-2.54 12.59-5.118 14.138-2.578 1.546-6.882 1.86-10.882 1.86h-8v16h8c4 0 11.696.31 19.116-4.14 7.06-4.238 12.2-13.28 12.696-26 .184-.166.148-.156.62-.498 1.724-1.244 5.084-3.21 8.688-6.214C80.33 77.096 88 65.958 88 47.958A40 39.998 0 0 0 48 7.96zm63.426 8L97.52 23.992a48 47.998 0 0 1 6.484 23.966 48 47.998 0 0 1-6.468 23.984l13.89 8.014a64 63.996 0 0 0 0-63.996z" fill="#f7f5cf"/></svg>
