<svg xmlns="http://www.w3.org/2000/svg" width="128" height="128"><path fill-opacity=".294" d="M12 4c-4.37 0-8 3.63-8 8v28h16V20h88v8h16V12c0-4.37-3.63-8-8-8zm76 28c-4.37 0-8 3.63-8 8s3.63 8 8 8h10.035L63.549 88.236 18.828 43.513 7.516 54.829l50.828 50.828c3.254 3.251 8.737 3.04 11.73-.453L108 60.96v7.039c0 4.37 3.63 8 8 8s8-3.63 8-8v-28c0-4.37-3.63-8-8-8zM4 84v32c0 4.37 3.63 8 8 8h104c4.37 0 8-3.63 8-8V84h-16v24H20V84z"/><path fill="#f7f5cf" d="M12 8a4 4 0 0 0-4 4v24h8V16h96v8h8V12a4 4 0 0 0-4-4zm76 28a4 4 0 0 0 0 8h18.732L63.775 94.119 18.828 49.172l-5.656 5.658 48 48a4 4 0 0 0 5.865-.226L112 50.147v17.854a4 4 0 0 0 8 0v-28a4 4 0 0 0-4-4zM8 88v28a4 4 0 0 0 4 4h104a4 4 0 0 0 4-4V88h-8v24H16V88z"/></svg>