<svg height="128" viewBox="0 0 128 128" width="128" xmlns="http://www.w3.org/2000/svg"><g fill-rule="evenodd" transform="translate(0 -924.36)"><path d="m63.766 932.37c-2.0369.0594-3.9779.89602-5.4199 2.3359l-.002.002-29.656 29.658h-12.688c-4.3705.00044-7.9996 3.6295-8 8v32c.0004372 4.3705 3.6295 7.9995 8 8h12.688l29.656 29.656c2.4 2.3983 5.9795 2.8662 8.7168 1.7324 2.7373-1.1337 4.9381-3.9958 4.9395-7.3886v-96.004c-.003-4.4555-3.779-8.1211-8.2324-7.9922zm48.234 3.9941c-4.3709 0-8 3.6291-8 8v88c0 4.3709 3.6291 8 8 8s8-3.6291 8-8v-88c0-4.3709-3.6291-8-8-8zm-24 24c-4.3709 0-8 3.6291-8 8v40c0 4.3709 3.6291 8 8 8s8-3.6291 8-8v-40c0-4.3709-3.6291-8-8-8z" fill-opacity=".29412"/><path d="m63.883 12.004c-1.0195.0295-1.9892.4473-2.7109 1.168l-30.828 30.83h-14.344c-2.209.000221-3.9998 1.791-4 4v32c.000221 2.209 1.791 3.9998 4 4h14.344l30.828 30.828c2.52 2.5182 6.8267.73442 6.8281-2.8281v-96.002c-.0015-2.2541-1.8641-4.0619-4.1172-3.9961zm48.117 3.9961a4 4 0 0 0 -4 4v88a4 4 0 0 0 4 4 4 4 0 0 0 4-4v-88a4 4 0 0 0 -4-4zm-24 24a4 4 0 0 0 -4 4v40a4 4 0 0 0 4 4 4 4 0 0 0 4-4v-40a4 4 0 0 0 -4-4z" fill="#f7f5cf" transform="translate(0 924.36)"/></g></svg>
