<svg height="128" viewBox="0 0 128 128" width="128" xmlns="http://www.w3.org/2000/svg"><path d="M63.766 8a8 8 0 0 0-5.42 2.336L28.682 40H16a8 8 0 0 0-8 8v32a8 8 0 0 0 8 8h12.682l29.664 29.664A8 8 0 0 0 72 112V16a8 8 0 0 0-8.234-8zM112 12a8 8 0 0 0-8 8v88a8 8 0 0 0 16 0V20a8 8 0 0 0-8-8zM88 36a8 8 0 0 0-8 8v40a8 8 0 0 0 16 0V44a8 8 0 0 0-8-8z" fill-opacity=".294"/><path d="M63.883 12.004a4 4 0 0 0-2.71 1.168l-30.829 30.83H16a4 4 0 0 0-4 4v32a4 4 0 0 0 4 4h14.344l30.828 30.828c2.52 2.518 6.827.734 6.828-2.828V16a4 4 0 0 0-4.117-3.996zM112 16a4 4 0 0 0-4 4v88a4 4 0 0 0 4 4 4 4 0 0 0 4-4V20a4 4 0 0 0-4-4zM88 40a4 4 0 0 0-4 4v40a4 4 0 0 0 4 4 4 4 0 0 0 4-4V44a4 4 0 0 0-4-4z" fill="#f7f5cf"/></svg>
