<svg height="128" viewBox="0 0 128 128" width="128" xmlns="http://www.w3.org/2000/svg"><g transform="matrix(2 0 0 2 -16 -1964.76)"><path d="m32 984.36c-12.126.00002-22 9.8729-22 21.999.00011 1.1045.89548 1.9999 2 2h8c1.1045-.0001 1.9999-.8955 2-2 .000223-5.546 4.4536-9.999 10-9.999 5.5464.00001 9.9998 4.453 10 9.999 0 6.5873-1.6032 8.0251-3.8408 9.8897-1.0295.8579-2.3133 1.6111-3.7969 2.6826-.72285.522-1.6649 1.2341-2.5488 2.3496-.98288 1.2402-1.8135 2.99-1.8135 5.0781 0 2.3898-.31658 3.686-.61035 4.3194-.29378.6333-.4706.73-.97754 1.0341-.54947.3297-2.5162.6446-4.4121.6446-.0065.0003-.01302.0006-.01953.001h-3.9805c-1.1045.0001-1.9999.8954-2 2v8c.00011 1.1045.89548 1.9999 2 2h4c.0072-.0003.01432-.0005.02148-.001 1.9052.001 6.3098.1982 10.566-2.3555 4.0103-2.4061 6.6628-7.2724 7.1738-13.592.81224-.548 2.3445-1.497 4.0791-2.9424 4.0025-3.3353 8.1592-9.5405 8.1592-19.108-.000095-12.126-9.8735-21.999-22-21.999zm31.807 4.002c-.38259-.0177-.76221.0749-1.0938.2666l-6.9531 4.0156c-.95754.55332-1.2843 1.7787-.72949 2.7354 1.9364 3.3365 2.9609 7.1229 2.9717 10.98-.0072 3.8597-1.0296 7.6487-2.9648 10.988-.55452.9572-.22681 2.1827.73144 2.7353l6.9453 4.0069c.95656.5517 2.1792.2238 2.7314-.7325 6.0717-10.516 6.0717-23.482 0-33.998-.3406-.59005-.95812-.96615-1.6387-.99805z" fill-opacity=".29412"/><path d="m48 8a40 39.998 0 0 0 -40 39.998h16a24 23.999 0 0 1 24-23.998 24 23.999 0 0 1 24 23.998c0 13.999-4.33 18.859-9.1211 22.852-2.3955 1.9962-5.0363 3.5302-7.8125 5.5352-1.3881 1.0024-2.8661 2.126-4.3047 3.9414-1.4385 1.8152-2.7617 4.6719-2.7617 7.6719 0 10.221-2.5383 12.59-5.1172 14.137-2.5789 1.5472-6.8828 1.8594-10.883 1.8594v.00195h-8v16h8v-.00195c4 0 11.696.31158 19.117-4.1406 7.0602-4.236 12.198-13.279 12.695-26 .1835-.1636.14883-.15489.62109-.49609 1.7238-1.245 5.083-3.2112 8.6875-6.2148 7.209-6.0072 14.879-17.145 14.879-35.145a40 39.998 0 0 0 -40-39.998zm63.426 8-13.906 8.0312a48 47.998 0 0 1 6.4844 23.967 48 47.998 0 0 1 -6.4688 23.984l13.891 8.0137a64 63.997 0 0 0 0-63.996z" fill="#f7f5cf" transform="matrix(.5 0 0 .5 8 982.36)"/></g></svg>
