<svg xmlns="http://www.w3.org/2000/svg" width="128" height="128" fill="none"><path fill="#000" fill-opacity=".294" stroke="#000" stroke-opacity=".294" stroke-width="8" d="M10.5 69H21.5C23.9853 69 26 66.9853 26 64.5 26 62.0147 23.9853 60 21.5 60H10.5C8.01472 60 6 62.0147 6 64.5 6 66.9853 8.01472 69 10.5 69ZM33 87V41C33 36.5817 36.5817 33 41 33H87C91.4183 33 95 36.5817 95 41V87C95 91.4183 91.4183 95 87 95H41C36.5817 95 33 91.4183 33 87ZM117.5 69H107.5C105.015 69 103 66.9853 103 64.5 103 62.0147 105.015 60 107.5 60H117.5C119.985 60 122 62.0147 122 64.5 122 66.9853 119.985 69 117.5 69ZM69 117.5V107.5C69 105.015 66.9853 103 64.5 103 62.0147 103 60 105.015 60 107.5V117.5C60 119.985 62.0147 122 64.5 122 66.9853 122 69 119.985 69 117.5ZM29.3947 106.795 25.5947 110.795C23.4224 113.082 19.7776 113.082 17.6053 110.795 15.5849 108.668 15.5849 105.332 17.6053 103.205L21.4053 99.205C23.5776 96.9183 27.2224 96.9183 29.3947 99.205 31.4151 101.332 31.4151 104.668 29.3947 106.795ZM110.395 103.205 106.595 99.205C104.422 96.9183 100.778 96.9183 98.6053 99.205 96.5849 101.332 96.5849 104.668 98.6053 106.795L102.405 110.795C104.578 113.082 108.222 113.082 110.395 110.795 112.415 108.668 112.415 105.332 110.395 103.205ZM25.4 17.8 29.2 21.6C31.2987 23.6987 31.2987 27.1013 29.2 29.2 27.1013 31.2987 23.6987 31.2987 21.6 29.2L17.8 25.4C15.7013 23.3013 15.7013 19.8987 17.8 17.8 19.8987 15.7013 23.3013 15.7013 25.4 17.8ZM69 10.5V21.5C69 23.9853 66.9853 26 64.5 26 62.0147 26 60 23.9853 60 21.5V10.5C60 8.01472 62.0147 6 64.5 6 66.9853 6 69 8.01472 69 10.5ZM110.2 25.4 106.4 29.2C104.301 31.2987 100.899 31.2987 98.8 29.2 96.7013 27.1013 96.7013 23.6987 98.8 21.6L102.6 17.8C104.699 15.7013 108.101 15.7013 110.2 17.8 112.299 19.8987 112.299 23.3013 110.2 25.4Z"/><path fill="#fff" d="M10.5 69H21.5C23.9853 69 26 66.9853 26 64.5 26 62.0147 23.9853 60 21.5 60H10.5C8.01472 60 6 62.0147 6 64.5 6 66.9853 8.01472 69 10.5 69ZM33 87V41C33 36.5817 36.5817 33 41 33H87C91.4183 33 95 36.5817 95 41V87C95 91.4183 91.4183 95 87 95H41C36.5817 95 33 91.4183 33 87ZM117.5 69H107.5C105.015 69 103 66.9853 103 64.5 103 62.0147 105.015 60 107.5 60H117.5C119.985 60 122 62.0147 122 64.5 122 66.9853 119.985 69 117.5 69ZM69 117.5V107.5C69 105.015 66.9853 103 64.5 103 62.0147 103 60 105.015 60 107.5V117.5C60 119.985 62.0147 122 64.5 122 66.9853 122 69 119.985 69 117.5ZM29.3947 106.795 25.5947 110.795C23.4224 113.082 19.7776 113.082 17.6053 110.795 15.5849 108.668 15.5849 105.332 17.6053 103.205L21.4053 99.205C23.5776 96.9183 27.2224 96.9183 29.3947 99.205 31.4151 101.332 31.4151 104.668 29.3947 106.795ZM110.395 103.205 106.595 99.205C104.422 96.9183 100.778 96.9183 98.6053 99.205 96.5849 101.332 96.5849 104.668 98.6053 106.795L102.405 110.795C104.578 113.082 108.222 113.082 110.395 110.795 112.415 108.668 112.415 105.332 110.395 103.205ZM25.4 17.8 29.2 21.6C31.2987 23.6987 31.2987 27.1013 29.2 29.2 27.1013 31.2987 23.6987 31.2987 21.6 29.2L17.8 25.4C15.7013 23.3013 15.7013 19.8987 17.8 17.8 19.8987 15.7013 23.3013 15.7013 25.4 17.8ZM69 10.5V21.5C69 23.9853 66.9853 26 64.5 26 62.0147 26 60 23.9853 60 21.5V10.5C60 8.01472 62.0147 6 64.5 6 66.9853 6 69 8.01472 69 10.5ZM110.2 25.4 106.4 29.2C104.301 31.2987 100.899 31.2987 98.8 29.2 96.7013 27.1013 96.7013 23.6987 98.8 21.6L102.6 17.8C104.699 15.7013 108.101 15.7013 110.2 17.8 112.299 19.8987 112.299 23.3013 110.2 25.4Z"/></svg>
