<svg xmlns="http://www.w3.org/2000/svg" width="128" height="128"><path fill-opacity=".294" d="M12 4a8 8 0 0 0-8 8v104a8 8 0 0 0 8 8h64v-16H20V20h88v7.768A36 36 0 0 0 72 89.9V98a9.977 9.977 0 0 0 8 9.8V124h24v-16.2a9.977 9.977 0 0 0 8-9.8v-8.088A36 36 0 0 0 108.477 28H124V12a8 8 0 0 0-8-8H12zm34.432 38.928a8 8 0 0 0 8-13.856l-10.393-6a1 1 0 0 0-8 13.856zM92 44a16 16 0 0 1 0 32 16 16 0 0 1 0-32zm-60 8a8 8 0 0 0 0 16h12a8 8 0 0 0 0-16zm4.039 31.076a8 8 0 0 0 8 13.856l10.393-6a8 8 0 0 0-8.001-13.856z"/><path fill="#f7f5cf" d="M12 8a4 4 0 0 0-4 4v104a4 4 0 0 0 4 4h60v-8H16V16h96v8h8V12a4 4 0 0 0-4-4zm36.558 31.539a4 4 0 0 0 4-6.93L41.91 26.461a4 4 0 0 0-4 6.93zM92 28a32 32 0 0 0-16 59.668V96a8 8 0 0 0 8 8h16a8 8 0 0 0 8-8v-8.323A32 32 0 0 0 92 28zm0 12a20 20 0 0 1 0 40 20 20 0 0 1 0-40zM31.852 56a4 4 0 0 0 0 8h12.297a4 4 0 0 0 0-8zm6.058 30.61a4 4 0 0 0 4 6.93l10.648-6.148a4 4 0 0 0-4-6.93zM84 112v8h16v-8z"/></svg>
