<svg height="128" viewBox="0 0 128 128" width="128" xmlns="http://www.w3.org/2000/svg"><path d="M8 72h24V56H8zm16.4 20.28 11.32 11.312L47.032 92.28 35.72 80.968zm0-56.56 11.32 11.312L47.032 35.72 35.72 24.4zM40 64a24 24 0 0 0 48 0 24 24 0 0 0-48 0zm24 56A56 56 0 0 0 64 8v18.672a37.328 37.328 0 0 1 0 74.656z" stroke="#000" stroke-width="8" stroke-opacity=".3" fill="none"/><path d="M8 72h24V56H8zm16.4 20.28 11.32 11.312L47.032 92.28 35.72 80.968zm0-56.56 11.32 11.312L47.032 35.72 35.72 24.4zM40 64a24 24 0 0 0 48 0 24 24 0 0 0-48 0zm24 56A56 56 0 0 0 64 8v18.672a37.328 37.328 0 0 1 0 74.656z" fill="#f7f5cf"/></svg>
