<svg xmlns="http://www.w3.org/2000/svg" width="128" height="128"><mask id="b"><path fill="#fefefe" d="M0 0h16v13l-2-5a2.09 2.09 0 00-4 0l-3 7v1h-7H0z"/></mask><mask id="a"><path fill="#fefefe" stroke="#fefefe" d="M0 0h16v13l-2-5a2.09 2.09 0 00-4 0l-3 7v1h-7H0z"/></mask><path stroke="#000" stroke-linejoin="round" stroke-opacity=".294" d="m12 8-3 7 3-1.75 3 1.75z" transform="scale(8)"/><path fill="none" stroke="#000" stroke-linejoin="round" stroke-opacity=".294" stroke-width="2.5" d="m8 2 6 3.5v5L8 14l-6-3.5v-5h6zm6 3.5L8 9 2 5.5M8 9v5" mask="url(#a)" transform="scale(8)"/><path fill="#f7f5cf" d="m12 8-3 7 3-1.75 3 1.75z" transform="scale(8)"/><path fill="none" stroke="#f7f5cf" stroke-linejoin="round" stroke-width="1.5" d="m8 2 6 3.5v5L8 14l-6-3.5v-5h6zm6 3.5L8 9 2 5.5M8 9v5" mask="url(#b)" transform="scale(8)"/></svg>
