<svg height="128" viewBox="0 0 128 128" width="128" xmlns="http://www.w3.org/2000/svg"><path d="m52 4c-6.5788 0-12 5.4212-12 12v26.625c-12.263 7.2822-19.978 19.75-20 33.369l-.005859 4.0059h28.578c1.7994 6.8632 8.0265 12 15.428 12s13.628-5.1368 15.428-12h28.576l-.00391-4.0039c-.01526-13.625-7.7323-26.099-20-33.385v-26.611c0-6.5788-5.4212-12-12-12zm-11.689 78.016c-1.536-.10738-3.1419.23676-4.5586 1.0547l-10.393 6c-3.7786 2.1816-5.1117 7.1503-2.9297 10.93 2.1816 3.7786 7.1503 5.1117 10.93 2.9297l10.393-6c3.7796-2.1822 5.1087-7.1521 2.9277-10.93-1.3629-2.3605-3.8057-3.8052-6.3691-3.9844zm47.379 0c-2.5634.1792-5.0063 1.6238-6.3691 3.9844-2.181 3.7776-.85187 8.7475 2.9277 10.93l10.393 6c3.7794 2.182 8.7481.8489 10.93-2.9297 2.182-3.7794.84891-8.7481-2.9297-10.93l-10.393-6c-1.4167-.81792-3.0225-1.1621-4.5586-1.0547zm-23.689 13.984c-4.3628 0-8 3.6372-8 8v12c0 4.3628 3.6372 8 8 8s8-3.6372 8-8v-12c0-4.3628-3.6372-8-8-8z" fill-opacity=".29412"/><path d="m52 8c-4.432 0-8 3.568-8 8v12 16.875a40 36 0 0 0 -20 31.125h28a12 12 0 0 0 12 12 12 12 0 0 0 12-12h28a40 36 0 0 0 -20-31.141v-20.859-8c0-4.432-3.568-8-8-8zm-11.969 78.006c-.76793-.053681-1.5596.1138-2.2793.5293l-10.393 6c-1.9191 1.108-2.5728 3.5457-1.4648 5.4648s3.5457 2.5728 5.4648 1.4648l10.393-6c1.9191-1.108 2.5709-3.5457 1.4629-5.4648-.6925-1.1994-1.9037-1.9047-3.1836-1.9941zm47.938 0c-1.2799.08947-2.4911.7947-3.1836 1.9941-1.108 1.9191-.45622 4.3568 1.4629 5.4648l10.393 6c1.9191 1.108 4.3568.45427 5.4648-1.4648s.45427-4.3568-1.4648-5.4648l-10.393-6c-.71967-.4155-1.5114-.58298-2.2793-.5293zm-23.969 13.994c-2.216 0-4 1.784-4 4v12c0 2.216 1.784 4 4 4s4-1.784 4-4v-12c0-2.216-1.784-4-4-4z" fill="#fefefe" stroke-linecap="round" stroke-linejoin="round" stroke-width="2.1082"/></svg>
