<svg height="128" viewBox="0 0 128 128" width="128" xmlns="http://www.w3.org/2000/svg"><path d="m35.503779 1.2819066c-3.570424 0-6.435164 2.9483368-6.435164 6.6019028v4.3900146c0 .889114.169457 1.726301.478513 2.49893h-10.081759c-3.570424 0-6.435167 2.931453-6.435167 6.585021v7.969562c-.341543-.0568-.648813-.202614-1.006525-.202614h-4.2901096c-3.5704232 0-6.451665 2.948338-6.451665 6.601904v3.224972c0 3.653568 2.8812418 6.585016 6.451665 6.585016h4.2901096c.358169 0 .664563-.14568 1.006525-.202618v38.497043c-.341543-.05706-.648814-.202616-1.006525-.202616h-4.2901096c-3.5704232 0-6.451665 2.948332-6.451665 6.601908v3.224971c0 3.653575 2.8812418 6.585017 6.451665 6.585017h4.2901096c.358169 0 .664563-.145692 1.006525-.202612v9.725542c0 3.6536 2.864743 6.60193 6.435167 6.60193h9.603246v3.951c0 3.65357 2.86474 6.60192 6.435164 6.60192h3.15158c3.57042 0 6.451663-2.94836 6.451663-6.60192v-3.95104h37.224955v3.951c0 3.65358 2.86474 6.60193 6.435166 6.60193h3.151583c3.570418 0 6.451653-2.94836 6.451653-6.60193v-3.951h10.725281c3.57043 0 6.45166-2.94833 6.45166-6.60191v-9.607372c.14985.0105.27643.0846.42899.0846h4.29014c3.5704 0 6.45165-2.931432 6.45165-6.585011v-3.224992c0-3.653565-2.88125-6.601906-6.45165-6.601906h-4.29014c-.15231 0-.27938.07348-.42899.08472v-38.261071c.14985.01042.27643.08445.42899.08445h4.29014c3.5704 0 6.45165-2.931451 6.45165-6.585023v-3.224986c0-3.653566-2.88125-6.601906-6.45165-6.601906h-4.29014c-.15231 0-.27938.07392-.42899.08446v-7.851429c0-3.653567-2.88123-6.585019-6.45166-6.585021h-11.220281c.309043-.772641.494982-1.609791.494982-2.498929v-4.3900086c0-3.6535651-2.881246-6.601903-6.451662-6.601903h-3.15158c-3.570428 0-6.435167 2.9483379-6.435167 6.601903v4.3900146c0 .889115.16948 1.726301.478507 2.49893h-38.198448c.309083-.772642.495011-1.609792.495011-2.49893v-4.3900146c0-3.6535651-2.881243-6.601903-6.451663-6.601903z" fill="#f7f5cf" stroke="#b4b4b4" stroke-width="2.563805"/><g fill="#b4b4b4" stroke-width="8.546018"><path d="m62.861474 21.661698a27.707285 31.502779 0 0 1 27.143197 25.411422 18.471523 18.901669 0 0 1 15.955909 18.691329 18.471523 18.901669 0 0 1 -18.480472 18.893947h-49.25376a18.471523 18.901669 0 0 1 -18.463973-18.893947 18.471523 18.901669 0 0 1 15.922908-18.708215 27.707285 31.502779 0 0 1 27.176191-25.394536z"/><path d="m38.226348 90.956369a6.1571744 6.3005562 0 0 1 6.154657 6.297979 6.1571744 6.3005562 0 0 1 -6.154657 6.314882 6.1571744 6.3005562 0 0 1 -6.154657-6.314882 6.1571744 6.3005562 0 0 1 6.154657-6.297979z"/><path d="m87.480108 90.956369a6.1571744 6.3005562 0 0 1 6.171159 6.297979 6.1571744 6.3005562 0 0 1 -6.171159 6.314882 6.1571744 6.3005562 0 0 1 -6.154656-6.314882 6.1571744 6.3005562 0 0 1 6.154656-6.297979z"/><path d="m62.861474 97.254348a6.1571744 6.3005562 0 0 1 6.154662 6.314882 6.1571744 6.3005562 0 0 1 -6.154662 6.29797 6.1571744 6.3005562 0 0 1 -6.154651-6.29797 6.1571744 6.3005562 0 0 1 6.154651-6.314882z"/></g></svg>
