<svg xmlns="http://www.w3.org/2000/svg" width="128" height="128"><path fill="none" stroke="#000" stroke-linejoin="round" stroke-opacity=".294" stroke-width="8" d="M48 8A40 40 0 0 0 8 48h16a24 24 0 0 1 48 0c0 14-4.33 18.86-9.12 22.852-2.396 1.996-5.038 3.53-7.814 5.536-1.388 1-2.866 2.126-4.304 3.94-1.44 1.774-2.762 4.63-2.762 7.63 0 10.22-2.54 12.59-5.118 14.138-2.578 1.546-6.882 1.86-10.882 1.86h-8v16h8c4 0 11.696.31 19.116-4.14 7.06-4.238 12.2-13.28 12.696-26 .184-.166.148-.156.62-.498 1.724-1.244 5.084-3.21 8.688-6.214C80.33 77.096 88 65.958 88 47.958A40 40 0 0 0 48 8zm63.426 8L97.52 24a48 48 0 0 1 .016 47.942l13.89 8a64 64 0 0 0 0-64z"/><path fill="#f7f5cf" d="M48 8A40 40 0 0 0 8 48h16a24 24 0 0 1 48 0c0 14-4.33 18.86-9.12 22.852-2.396 1.996-5.038 3.53-7.814 5.536-1.388 1-2.866 2.126-4.304 3.94-1.44 1.774-2.762 4.63-2.762 7.63 0 10.22-2.54 12.59-5.118 14.138-2.578 1.546-6.882 1.86-10.882 1.86h-8v16h8c4 0 11.696.31 19.116-4.14 7.06-4.238 12.2-13.28 12.696-26 .184-.166.148-.156.62-.498 1.724-1.244 5.084-3.21 8.688-6.214C80.33 77.096 88 65.958 88 47.958A40 40 0 0 0 48 8zm63.426 8L97.52 24a48 48 0 0 1 .016 47.942l13.89 8a64 64 0 0 0 0-64z"/></svg>