<svg height="128" viewBox="0 0 128 128" width="128" xmlns="http://www.w3.org/2000/svg"><path d="M18 8a4 4 0 0 0-4 4l.016 20H8a4 4 0 0 0-4 4v71.076C4 116.382 11.617 124 20.924 124H82a4 4 0 0 0 4-4v-12a4 4 0 0 0-4-4H24V64h20v12a4 4 0 0 0 4 4h32a4 4 0 0 0 4-4V64h20v4c.002.726.201 1.437.576 2.059-.196-.006-.379-.059-.576-.059-10.998 0-20 9.002-20 20v.01c.009 6.273 3.083 12.01 8 15.756v2.238c0 2.884 1.66 5.346 4 6.75V120a4 4 0 0 0 4 4h8a4 4 0 0 0 4-4v-5.248c2.34-1.404 4-3.868 4-6.752v-2.234c4.918-3.748 7.993-9.487 8-15.762 0-7.935-4.719-14.774-11.459-18H120a4 4 0 0 0 4-4v-32a4 4 0 0 0-4-4L114 32V12.004a4 4 0 0 0-4-4zm8 38c1.152 0 2 .848 2 2 0 1.152-.848 2-2 2s-2-.848-2-2c0-1.152.848-2 2-2zm25 0c1.152 0 2 .848 2 2 0 1.152-.848 2-2 2s-2-.848-2-2c0-1.152.848-2 2-2zm26 0c1.152 0 2 .848 2 2 0 1.152-.848 2-2 2s-2-.848-2-2c0-1.152.848-2 2-2zm25 0c1.152 0 2 .848 2 2s-.848 2-2 2-2-.848-2-2c0-1.152.848-2 2-2zm2 38c3.361 0 6 2.639 6 6s-2.639 6-6 6-6-2.639-6-6 2.639-6 6-6z" fill-opacity=".294"/><path d="M18 12v16h92V12zM8 36v71.076C8 114.236 13.764 120 20.924 120H82v-12H20V60h88v8h12V36zm18 6a6 6 0 1 1 0 12 6 6 0 0 1 0-12zm25 0a6 6 0 1 1 0 12 6 6 0 0 1 0-12zm26 0a6 6 0 1 1 0 12 6 6 0 0 1 0-12zm25 0a6 6 0 1 1 0 12 6 6 0 0 1 0-12zM48 68v8h32v-8zm56 6c-8.836 0-16 7.163-16 16a16 16 0 0 0 8 13.834V108c0 2.216 1.784 4 4 4h8c2.216 0 4-1.784 4-4v-4.16A16.002 16.002 0 0 0 120 90c0-8.837-7.163-16-16-16zm0 6c5.523 0 10 4.477 10 10s-4.477 10-10 10-10-4.477-10-10 4.477-10 10-10zm-4 36v4h8v-4z" fill="#f7f5cf"/></svg>
