<svg height="128" viewBox="0 0 128 128" width="128" xmlns="http://www.w3.org/2000/svg"><path d="M52 4c-6.579 0-12 5.421-12 12v26.625c-12.263 7.282-19.978 19.75-20 33.369L19.994 80h28.578C50.372 86.863 56.6 92 64 92s13.628-5.137 15.428-12h28.576L108 75.996c-.015-13.625-7.732-26.099-20-33.385V16c0-6.579-5.42-12-12-12zM40.311 82.016a8.033 8.033 0 0 0-4.559 1.055l-10.393 6c-3.778 2.181-5.111 7.15-2.93 10.93 2.182 3.778 7.151 5.111 10.93 2.93l10.394-6c3.78-2.183 5.108-7.153 2.927-10.93a8.033 8.033 0 0 0-6.369-3.985zm47.379 0A8.032 8.032 0 0 0 81.32 86c-2.18 3.778-.851 8.748 2.929 10.93l10.393 6c3.779 2.182 8.748.85 10.93-2.93 2.182-3.779.849-8.747-2.93-10.93l-10.393-6a8.033 8.033 0 0 0-4.559-1.054zM64.001 96c-4.363 0-8 3.637-8 8v12c0 4.363 3.637 8 8 8s8-3.637 8-8v-12c0-4.363-3.637-8-8-8z" fill-opacity=".294"/><path d="M52 8c-4.432 0-8 3.568-8 8v28.875A40 36 0 0 0 24 76h28a12 12 0 0 0 12 12 12 12 0 0 0 12-12h28a40 36 0 0 0-20-31.141V16c0-4.432-3.568-8-8-8zM40.031 86.006a3.987 3.987 0 0 0-2.28.53l-10.392 6c-1.92 1.107-2.573 3.545-1.465 5.464s3.546 2.573 5.465 1.465l10.393-6A3.992 3.992 0 0 0 43.215 88a3.99 3.99 0 0 0-3.184-1.994zm47.938 0A3.99 3.99 0 0 0 84.785 88a3.992 3.992 0 0 0 1.463 5.465l10.393 6c1.92 1.108 4.357.454 5.465-1.465s.454-4.357-1.465-5.465l-10.393-6a3.987 3.987 0 0 0-2.279-.529zM64 100c-2.216 0-4 1.784-4 4v12c0 2.216 1.784 4 4 4s4-1.784 4-4v-12c0-2.216-1.784-4-4-4z" fill="#fff"/></svg>
