<svg xmlns="http://www.w3.org/2000/svg" width="128" height="128"><path fill="none" stroke="#000" stroke-opacity=".3" stroke-width="8" d="M8 72h24V56H8zm16.4 20.28 11.32 11.312L47.032 92.28 35.72 80.968zm0-56.56 11.32 11.312L47.032 35.72 35.72 24.4zM40 64a24 24 0 0 0 48 0 24 24 0 0 0-48 0zm24 56A56 56 0 0 0 64 8v18.672a37.328 37.328 0 0 1 0 74.656z"/><path fill="#f7f5cf" d="M8 72h24V56H8zm16.4 20.28 11.32 11.312L47.032 92.28 35.72 80.968zm0-56.56 11.32 11.312L47.032 35.72 35.72 24.4zM40 64a24 24 0 0 0 48 0 24 24 0 0 0-48 0zm24 56A56 56 0 0 0 64 8v18.672a37.328 37.328 0 0 1 0 74.656z"/></svg>
