<svg height="128" viewBox="0 0 128 128" width="128" xmlns="http://www.w3.org/2000/svg"><path d="M64 2a44 44 0 0 0-44 44 44 44 0 0 0 24 39.189v13.81a10.97 10.97 0 0 0 8 10.579v16.421h24v-16.421a10.97 10.97 0 0 0 8-10.579V85.142A44 44 0 0 0 108 46 44 44 0 0 0 64 2zm0 20a24 24 0 0 1 24 24 24 24 0 0 1-24 24 24 24 0 0 1-24-24 24 24 0 0 1 24-24z" fill-opacity=".294"/><path d="M64 6a40 40 0 0 0-40 40 40 40 0 0 0 24 36.607V98a8 8 0 0 0 8 8h16a8 8 0 0 0 8-8V82.637A40 40 0 0 0 104 46 40 40 0 0 0 64 6zm0 12a28 28 0 0 1 28 28 28 28 0 0 1-28 28 28 28 0 0 1-28-28 28 28 0 0 1 28-28zm-8 96v8h16v-8z" fill="#fff"/></svg>
