<svg height="128" viewBox="0 0 128 128" width="128" xmlns="http://www.w3.org/2000/svg"><path d="m52.789062 12.285156-.068359.001953s-2.40509.20501-4.607422 1.613282c-2.202331 1.408271-4.620558 4.01711-6.382812 8.287109l-6.40625 15.527344h-.966797v-3.986328s.05404-2.69271-1.351563-5.503907c-1.405598-2.811197-5.028556-5.923828-10.076171-5.923828-5.047616 0-8.672527 3.112631-10.078126 5.923828s-1.351562 5.503907-1.351562 5.503907v4.796875c-2.8348528 1.102579-4.8904632 3.167645-5.8632812 5.113281-1.4055984 2.811197-1.3515624 5.503906-1.3515626 5.503906v59.427732c0 5.04762 3.1145841 8.67253 5.9257818 10.07813 2.811195 1.4056 5.503906 1.35156 5.503906 1.35156h96.820316c5.04761 0 8.67252-3.11458 10.07812-5.92578s1.35156-5.50391 1.35156-5.50391v-59.427732c0-5.047615-3.11458-8.672526-5.92578-10.078125-2.81119-1.405599-5.5039-1.349609-5.5039-1.349609h-19.859379l-6.40625-15.527344c-1.693114-4.102471-4.120301-6.670605-6.261719-8.09375-2.141416-1.423145-4.378906-1.779297-4.378906-1.779297l-.242187-.029297zm.201172 8h21.722657c.009-.0059.05394-.06976.867187.470703.864378.57445 2.152133 1.720094 3.292969 4.484375l8.451172 20.47461h25.210941s1.02269.05432 1.92578.505859c.90308.451543 1.5039.540926 1.5039 2.921875v59.427732s-.0563 1.0227-.50781 1.92578c-.45154.90309-.54093 1.50391-2.92187 1.50391h-96.820316s-1.022696-.0543-1.925782-.50586c-.903086-.45154-1.503906-.54288-1.503906-2.92383v-59.427732s.05627-1.022696.507813-1.925781c.451542-.903085.540927-1.501953 2.921875-1.501953h24.960937l8.451172-20.47461c1.241133-3.007304 2.535771-4.112924 3.296875-4.599609.756188-.483541.568815-.357095.566406-.355469zm12.009766 24c-18.572491 0-33.714844 15.142353-33.714844 33.714844s15.142352 33.71484 33.714844 33.71484 33.714844-15.142349 33.714844-33.71484-15.142353-33.714844-33.714844-33.714844zm0 8c14.24897 0 25.714844 11.465874 25.714844 25.714844s-11.465875 25.71484-25.714844 25.71484-25.714844-11.46587-25.714844-25.71484 11.465874-25.714844 25.714844-25.714844z" fill-opacity=".3"/><g fill="#f7f5cf" stroke-width="8.00001"><path d="m52.857144 16.285714s-4.425182.151262-7.428572 7.428572l-7.428571 17.999668h-22.285715c-7.4285711 0-7.4285711 7.428572-7.4285711 7.428572v59.428574c0 7.42857 7.4285711 7.42857 7.4285711 7.42857h96.821434c7.42857 0 7.42857-7.42857 7.42857-7.42857v-59.428574c0-7.428572-7.42857-7.428572-7.42857-7.428572h-22.535719l-7.428571-17.999668c-2.833953-6.866759-7.428572-7.428572-7.428572-7.428572zm12.142856 31.999999c16.410747 0 29.714286 13.303539 29.714286 29.714286s-13.303539 29.714291-29.714286 29.714291-29.714286-13.303544-29.714286-29.714291 13.303539-29.714286 29.714286-29.714286z"/><path d="m15.500291 33.728577h14.857143s0-7.428572-7.428571-7.428572c-7.428572 0-7.428572 7.428572-7.428572 7.428572z"/></g></svg>
