<svg xmlns="http://www.w3.org/2000/svg" width="128" height="128"><path fill-opacity=".294" d="M56 28a8 8 0 0 0 16 0V12a8 8 0 0 0-16 0zM32.886 44.2A8 8 0 0 0 44.2 32.886L32.886 21.575a7.975 7.975 0 0 0-11.312 11.312zm50.913-11.313a8 8 0 0 0 11.314 11.314l11.312-11.314a8 8 0 0 0-11.312-11.312zM64 40a24 24 0 0 0 0 48 24 24 0 0 0 0-48zM12 56a8 8 0 0 0 0 16h16a8 8 0 0 0 0-16zm88 0a8 8 0 0 0 0 16h16a8 8 0 0 0 0-16zM21.574 95.113a7.98 7.98 0 0 0 11.312 11.312L44.2 95.113a8 8 0 0 0-11.314-11.314zm73.538 11.312a8 8 0 0 0 11.312-11.312L95.112 83.799a8 8 0 0 0-11.314 11.314zM56 116a8 8 0 0 0 16 0v-16a8 8 0 0 0-16 0z"/><path fill="#fff" d="M60 28a4 4 0 0 0 8 0V12a4 4 0 0 0-8 0zM35.714 41.373a4 4 0 0 0 5.658-5.658L30.058 24.403a4 4 0 0 0-5.656 5.656zm50.913-5.658a4 4 0 0 0 5.658 5.658l11.313-11.314a4 4 0 0 0-5.657-5.656zM64 44a20 20 0 0 0 0 40 20 20 0 0 0 0-40zM12 60a4 4 0 0 0 0 8h16a4 4 0 0 0 0-8zm88 0a1 1 0 0 0 0 8h16a1 1 0 0 0 0-8zM24.402 97.94a4 4 0 0 0 5.656 5.656l11.314-11.313a4 4 0 0 0-5.658-5.656zm73.538 5.658a4 4 0 0 0 5.656-5.656L92.283 86.628a4 4 0 0 0-5.657 5.657zM60 116a4 4 0 0 0 8 0v-16a4 4 0 0 0-8 0z"/></svg>