<svg height="128" viewBox="0 0 128 128" width="128" xmlns="http://www.w3.org/2000/svg"><path d="M63.766 8.01a8.006 8.006 0 0 0-5.42 2.336l-.002.002-29.656 29.658H16c-4.37 0-8 3.63-8 8v32c0 4.37 3.63 8 8 8h12.688l29.656 29.656c2.4 2.398 5.98 2.866 8.717 1.732 2.737-1.133 4.938-3.996 4.94-7.388V16.002c-.004-4.456-3.78-8.121-8.233-7.992zM112 12.004c-4.37 0-8 3.63-8 8v88c0 4.371 3.63 8 8 8s8-3.629 8-8v-88c0-4.37-3.63-8-8-8zm-24 24c-4.37 0-8 3.63-8 8v40c0 4.371 3.63 8 8 8s8-3.629 8-8v-40c0-4.37-3.63-8-8-8z" fill-opacity=".294"/><path d="M63.883 12.004a4 4 0 0 0-2.71 1.168l-30.829 30.83H16a4 4 0 0 0-4 4v32a4 4 0 0 0 4 4h14.344l30.828 30.828c2.52 2.518 6.827.734 6.828-2.828V16a4 4 0 0 0-4.117-3.996zM112 16a4 4 0 0 0-4 4v88a4 4 0 0 0 4 4 4 4 0 0 0 4-4V20a4 4 0 0 0-4-4zM88 40a4 4 0 0 0-4 4v40a4 4 0 0 0 4 4 4 4 0 0 0 4-4V44a4 4 0 0 0-4-4z" fill="#f7f5cf"/></svg>
