<svg height="128" viewBox="0 0 128 128" width="128" xmlns="http://www.w3.org/2000/svg"><path d="M18 8a4 4 0 0 0-4 4v20H8a4 4 0 0 0-4 4v71a17 17 0 0 0 17 17h61a4 4 0 0 0 4-4v-12a4 4 0 0 0-4-4H24V64h20v12a4 4 0 0 0 4 4h32a4 4 0 0 0 4-4V64h20v4a4 4 0 0 0 .576 2.059A20 20 0 0 0 92 105.756v2.238a8 8 0 0 0 4 6.75V120a4 4 0 0 0 4 4h8a4 4 0 0 0 4-4v-5.248a8 8 0 0 0 4-6.752v-2.234A20 20 0 0 0 112.541 72H120a4 4 0 0 0 4-4V36a4 4 0 0 0-4-4h-6V12a4 4 0 0 0-4-4zm8 38a2 2 0 0 1 0 4 2 2 0 0 1 0-4zm25 0a1 1 0 0 1 0 4 1 1 0 0 1 0-4zm26 0a1 1 0 0 1 0 4 1 1 0 0 1 0-4zm25 0a1 1 0 0 1 0 4 1 1 0 0 1 0-4zm2 38a1 1 0 0 1 0 12 1 1 0 0 1 0-12z" fill-opacity=".294"/><path d="M18 12v16h92V12zM8 36v71.076A13 13 0 0 0 20.924 120H82v-12H20V60h88v8h12V36zm18 6a6 6 0 1 1 0 12 6 6 0 0 1 0-12zm25 0a6 6 0 1 1 0 12 6 6 0 0 1 0-12zm26 0a6 6 0 1 1 0 12 6 6 0 0 1 0-12zm25 0a6 6 0 1 1 0 12 6 6 0 0 1 0-12zM48 68v8h32v-8zm48 40a4 4 0 0 0 4 4h8a4 4 0 0 0 4-4v-4.16a16 16 0 1 0-16 0zm8-28a10 10 0 0 1 0 20 10 10 0 0 1 0-20zm-4 36v4h8v-4z" fill="#f7f5cf"/></svg>
