<svg height="128" viewBox="0 0 128 128" width="128" xmlns="http://www.w3.org/2000/svg"><path d="M64 4a8 8 0 0 0-8 8v16a8 8 0 0 0 16 0V12a8 8 0 0 0-8-8zM27.23 19.223a8 8 0 0 0-5.656 13.664L32.886 44.2A8 8 0 0 0 44.2 32.886L32.886 21.575a7.975 7.975 0 0 0-5.656-2.352zm73.539 0a8 8 0 0 0-5.656 2.352L83.799 32.887a8 8 0 0 0 11.314 11.314l11.312-11.314a8 8 0 0 0-5.656-13.664zM64 40a24 24 0 0 0 0 48 24 24 0 0 0 0-48zM12 56a8 8 0 0 0 0 16h16a8 8 0 0 0 0-16zm88 0a8 8 0 0 0 0 16h16a8 8 0 0 0 0-16zM38.544 81.449a8 8 0 0 0-5.658 2.35L21.574 95.113a7.98 7.98 0 0 0 11.312 11.312L44.2 95.113a8 8 0 0 0-5.656-13.664zm50.91 0a8 8 0 0 0-5.656 13.664l11.314 11.312a8 8 0 0 0 11.312-11.312L95.112 83.799a8 8 0 0 0-5.658-2.35zM64 92a8 8 0 0 0-8 8v16a8 8 0 0 0 15.999 0v-16a8 8 0 0 0-8-8z" fill-opacity=".294"/><path d="M64 8a4 4 0 0 0-4 4v16a4 4 0 0 0 8 0V12a4 4 0 0 0-4-4zM27.23 23.227a4 4 0 0 0-2.828 6.832l11.312 11.314a4 4 0 0 0 5.658-5.658L30.058 24.403a4 4 0 0 0-2.828-1.176zm73.539 0a4 4 0 0 0-2.828 1.176L86.627 35.715a4 4 0 0 0 5.658 5.658l11.313-11.314a4 4 0 0 0-2.828-6.832zM64 44a20 20 0 0 0 0 40 20 20 0 0 0 0-40zM12 60a4 4 0 0 0 0 8h16a4 4 0 0 0 0-8zm88 0a1 1 0 0 0 0 8h16a1 1 0 0 0 0-8zM38.544 85.453a4 4 0 0 0-2.83 1.174L24.402 97.94a4 4 0 0 0 5.656 5.656l11.314-11.313a4 4 0 0 0-2.828-6.832zm50.91 0a4 4 0 0 0-2.828 6.832l11.314 11.313a4 4 0 0 0 5.656-5.656L92.283 86.628a4 4 0 0 0-2.83-1.174zM64 96a4 4 0 0 0-4 4v16a4 4 0 0 0 8 0v-16a4 4 0 0 0-4-4z" fill="#fff"/></svg>
