<svg height="128" viewBox="0 0 128 128" width="128" xmlns="http://www.w3.org/2000/svg"><path d="m12 4c-4.4183.0000095-8 3.5817-8 8v104c.0000095 4.4183 3.5817 8 8 8h64v-16h-56v-88h88v7.7676a36 36 0 0 0 -16-3.7676 36 36 0 0 0 -36 36 36 36 0 0 0 16 29.9v8.0996c0 4.8544 3.4253 8.8788 8 9.8008v16.199h24v-16.199c4.5747-.92197 8-4.9464 8-9.8008v-8.0879a36 36 0 0 0 16-29.912 36 36 0 0 0 -19.523-32h15.523v-16c-.00001-4.4183-3.5817-8-8-8h-104zm28.25 17.996c-2.8358-.076599-5.6171 1.3651-7.1406 4.0039-2.216 3.8382-.90854 8.7117 2.9297 10.928l10.393 6c3.8382 2.216 8.7117.91049 10.928-2.9277s.91049-8.7117-2.9277-10.928l-10.393-6c-1.1994-.6925-2.5-1.0414-3.7891-1.0762zm51.75 22.004a16 16 0 0 1 16 16 16 16 0 0 1 -16 16 16 16 0 0 1 -16-16 16 16 0 0 1 16-16zm-60 8c-4.432 0-8 3.568-8 8s3.568 8 8 8h12c4.432 0 8-3.568 8-8s-3.568-8-8-8zm18.221 23.996c-1.289.034818-2.5896.38367-3.7891 1.0762l-10.393 6c-3.8382 2.216-5.1457 7.0895-2.9297 10.928s7.0915 5.1437 10.93 2.9277l10.393-6c3.8382-2.216 5.1437-7.0895 2.9277-10.928-1.5235-2.6388-4.3028-4.0805-7.1387-4.0039z" fill-opacity=".29412"/><path d="m12 8a4.0004 4.0004 0 0 0 -4 4v104a4.0004 4.0004 0 0 0 4 4h60v-8h-56v-96h96v8h8v-12a4.0004 4.0004 0 0 0 -4-4zm27.715 17.951c-1.2324.08615-2.3996.76492-3.0664 1.9199l-.14844.25781c-1.0669 1.848-.43784 4.1948 1.4102 5.2617l10.648 6.1484c1.848 1.0669 4.1948.43784 5.2617-1.4102l.14844-.25781c1.0669-1.848.43784-4.1948-1.4102-5.2617l-10.648-6.1484c-.693-.4001-1.4558-.56146-2.1953-.50977zm52.285 2.0488a32 32 0 0 0 -32 32 32 32 0 0 0 16 27.668v8.332c0 4.432 3.568 8 8 8h16c4.432 0 8-3.568 8-8v-8.3223a32 32 0 0 0 16-27.678 32 32 0 0 0 -32-32zm0 12a20 20 0 0 1 20 20 20 20 0 0 1 -20 20 20 20 0 0 1 -20-20 20 20 0 0 1 20-20zm-60.148 16c-2.1339 0-3.8516 1.7177-3.8516 3.8516v.29688c0 2.1339 1.7177 3.8516 3.8516 3.8516h12.297c2.1339 0 3.8516-1.7177 3.8516-3.8516v-.29688c0-2.1339-1.7177-3.8516-3.8516-3.8516zm18.902 23.951c-.73947-.05169-1.5023.10966-2.1953.50977l-10.648 6.1484c-1.848 1.0669-2.4771 3.4137-1.4102 5.2617l.14844.25781c1.0669 1.848 3.4137 2.4771 5.2617 1.4102l10.648-6.1484c1.848-1.0669 2.4771-3.4137 1.4102-5.2617l-.14844-.25781c-.66684-1.155-1.834-1.8338-3.0664-1.9199zm33.246 32.049v8h16v-8z" fill="#f7f5cf"/></svg>
