<svg height="128" viewBox="0 0 128 128" width="128" xmlns="http://www.w3.org/2000/svg"><path d="M76 20a24 24 0 0 0-24 22.216 24 24 0 1 0-24 40.376V100a8 8 0 0 0 8 8h48a8 8 0 0 0 8-8v-8l24 16V60L92 76V61.84A24 24 0 0 0 76 20zM44 96a4 4 0 0 1-4-4V75a3 3 0 0 0-3-3 12 12 0 1 1 9-19 9.5 9.5 0 0 0 18-6 12 12 0 1 1 18 7 3 3 0 0 0-2 3v35a4 4 0 0 1-4 4z" stroke="#000" stroke-width="8" stroke-linejoin="round" stroke-opacity=".294" fill="none"/><path d="M76 20a24 24 0 0 0-24 22.216 24 24 0 1 0-24 40.376V100a8 8 0 0 0 8 8h48a8 8 0 0 0 8-8v-8l24 16V60L92 76V61.84A24 24 0 0 0 76 20zM44 96a4 4 0 0 1-4-4V75a3 3 0 0 0-3-3 12 12 0 1 1 9-19 9.5 9.5 0 0 0 18-6 12 12 0 1 1 18 7 3 3 0 0 0-2 3v35a4 4 0 0 1-4 4z" fill="#f7f5cf"/></svg>
