<svg height="128" viewBox="0 0 128 128" width="128" xmlns="http://www.w3.org/2000/svg"><path d="M52 16s-4 0-8 8l-9 18H16a8 8 0 0 0-8 8v60a8 8 0 0 0 8 8h96a8 8 0 0 0 8-8V50a8 8 0 0 0-8-8H93l-9-18c-4-8-8-8-8-8zm12 36a1 1 0 0 1 0 56 1 1 0 0 1 0-56zM15.5 37v-3c0-10 16-10 16 0z" fill="none" stroke="#000" stroke-opacity=".294" stroke-width="8"/><path d="M52 16s-4 0-8 8l-9 18H16a8 8 0 0 0-8 8v60a8 8 0 0 0 8 8h96a8 8 0 0 0 8-8V50a8 8 0 0 0-8-8H93l-9-18c-4-8-8-8-8-8zm12 36a1 1 0 0 1 0 56 1 1 0 0 1 0-56zM15.5 34c0-10 16-10 16 0z" fill="#f7f5cf"/></svg>
