<?xml version="1.0" encoding="UTF-8" standalone="no"?>
<svg
   height="64"
   viewBox="0 0 64 64"
   width="64"
   version="1.1"
   id="svg8"
   xmlns="http://www.w3.org/2000/svg"
   xmlns:svg="http://www.w3.org/2000/svg">
  <defs
     id="defs12" />
  <g
     fill-rule="nonzero"
     id="g6">
    <path
       d="m14 5c-2.199 0-4 1.801-4 4v46c0 2.199 1.801 4 4 4h36c2.199 0 4-1.801 4-4v-33h-.008c.002-.248-.079-.501-.285-.707l-16-16c-.188-.187-.442-.289-.707-.289v-.004zm0 2h22v12c0 2.199 1.801 4 4 4h12v32c0 1.125-.875 2-2 2h-36c-1.125 0-2-.875-2-2v-46c0-1.125.875-2 2-2z"
       fill="#fff"
       fill-opacity=".59"
       transform="translate(0 -.000017)"
       id="path2" />
    <rect
       width="20"
       height="20"
       style="fill:#808080;paint-order:stroke"
       x="22"
       y="27.009001"
       id="rect4" />
  </g>
</svg>
