<svg xmlns="http://www.w3.org/2000/svg" xmlns:xlink="http://www.w3.org/1999/xlink" xml:space="preserve" width="16" height="16"><defs><linearGradient id="a"><stop offset=".045" stop-color="#7f24ce"/><stop offset="1" stop-color="#f87cfe"/></linearGradient><linearGradient xlink:href="#a" id="b" x1="635.831" x2="721.822" y1="589.778" y2="368.408" gradientTransform="translate(-.047 .142)scale(.01552)" gradientUnits="userSpaceOnUse"/><linearGradient xlink:href="#a" id="c" x1="496.519" x2="635.831" y1="813.477" y2="589.778" gradientTransform="translate(-.047 .142)scale(.01552)" gradientUnits="userSpaceOnUse"/><linearGradient xlink:href="#a" id="d" x1="269.585" x2="488.27" y1="847.204" y2="393.079" gradientTransform="translate(-.047 .142)scale(.01552)" gradientUnits="userSpaceOnUse"/></defs><path fill="url(#b)" d="M 8.7398896,1.6858222 C 8.2194043,2.047309 7.7432475,2.6011904 7.5755031,3.1918975 7.4077587,3.7826045 7.3714423,4.3814734 7.5986408,5.1920407 7.8258542,6.002608 8.9171886,6.6474378 9.8189139,6.951627 10.91838,7.3309201 11.871847,8.1357068 12.339587,9.2120653 12.448701,9.4247522 12.823891,10.352895 12.782693,9.5886328 12.820132,8.2702647 12.259362,6.9448579 11.227257,6.1089365 10.465211,5.4246904 9.3887029,5.0546973 8.9178176,4.07983 8.5100704,3.3645839 8.5342264,2.4879731 8.7764906,1.7223782 l -0.018256,-0.018271 z" paint-order="stroke fill markers" style="mix-blend-mode:normal"/><path fill="url(#c)" d="M 8.0106112,9.0881702 C 9.0770258,9.0294949 10.029983,10.028967 9.9207496,11.091578 9.8840588,12.075416 8.9697838,12.940376 7.9734561,12.843392 6.816213,12.885849 5.920538,11.644187 6.1987442,10.55426 6.3640775,9.715583 7.1619004,9.0884248 8.0105662,9.0881702 Z" paint-order="stroke fill markers" style="mix-blend-mode:normal"/><path fill="url(#d)" d="m 4.5287639,1.2915673 c 0.2377512,0.3214391 0.4709124,0.6176007 0.5949246,1.0108851 0.4248646,1.1137832 0.116587,2.341817 -0.4363211,3.3516529 -0.8468837,1.6629472 -1.6687878,3.496619 -1.43187,5.4066377 0.239314,1.725441 1.4657454,3.308747 3.1537622,3.821041 1.6944863,0.565637 3.6907504,0.0022 4.8268634,-1.380563 0.779507,-0.908734 1.2335,-2.167753 1.019899,-3.364233 C 11.931017,8.8065795 10.894314,7.6994306 9.5830893,7.298737 8.788621,7.0332753 7.89049,6.5457818 7.3232351,5.9330752 7.2515907,6.3673896 7.1543226,6.9047976 7.0032164,7.4021602 6.8521101,7.8995228 6.5939566,8.6331742 6.4881972,9.1583021 6.94827,8.6759902 7.519808,8.515569 8.0490092,8.5195825 9.3774561,8.5297062 10.545362,9.7071367 10.492917,11.031121 10.482179,12.324045 9.3037001,13.472228 8.0047556,13.420411 6.7107831,13.426252 5.6017623,12.280914 5.5630198,11.003116 5.5453034,10.0334 5.9394225,9.1150818 6.2051838,8.1964937 6.7197237,6.6715039 6.9404227,5.4223541 6.9318415,4.5555825 6.9232753,3.6888108 6.7059136,2.8238132 6.1149094,2.1826906 5.5457513,1.5652666 4.7380662,1.2875088 4.5287639,1.2915673" paint-order="stroke fill markers" style="mix-blend-mode:normal"/></svg>