<svg xmlns="http://www.w3.org/2000/svg" width="64" height="64"><path fill="#fff" fill-opacity=".6" d="m 14,5 a 4,4 0 0 0 -4,4 v 46 a 4,4 0 0 0 4,4 h 36 a 4,4 0 0 0 4,-4 V 22 a 1,1 0 0 0 -0.285,-0.707 l -16,-16 A 1,1 0 0 0 37,5 Z m 0,2 h 22 v 12 a 4,4 0 0 0 4,4 h 12 v 32 a 2,2 0 0 1 -2,2 H 14 A 2,2 0 0 1 12,55 V 9 a 2,2 0 0 1 2,-2 z"/><path fill="#d848fb" d="m 32.709667,38.244209 c 3.043939,-0.167463 5.763972,2.685376 5.452125,5.718367 -0.104631,2.808242 -2.714255,5.277093 -5.558141,5.000236 -3.303132,0.121249 -5.859659,-3.422878 -5.065625,-6.533933 0.471907,-2.393884 2.749142,-4.184024 5.171641,-4.18467 z" style="mix-blend-mode:normal"/><path fill="#d848fb" d="m 22.297437,14.738893 c 0.665352,1.367314 1.751497,2.610714 2.17206,4.136722 1.212768,3.179138 0.332649,6.684263 -1.245468,9.566738 -2.417242,4.746533 -4.763227,9.980314 -4.086962,15.432214 0.683009,4.925022 4.18368,9.44428 9.001878,10.906473 4.836602,1.614505 10.534595,0.0064 13.777368,-3.940517 2.225003,-2.593923 3.520785,-6.187478 2.911075,-9.602701 -0.927618,-3.797326 -3.88675,-6.957484 -7.629318,-8.10118 -2.267768,-0.757732 -4.50345,-1.890816 -5.998433,-3.81028 -0.416889,1.222444 -0.785584,2.767485 -1.238209,4.10542 -0.41872,1.475895 -0.934235,2.894263 -1.347137,4.407103 1.241769,-0.488336 2.69879,-1.331479 4.205001,-1.21762 3.791162,-0.07349 7.125346,3.389731 6.975675,7.168764 -0.03057,3.690371 -3.394404,6.967676 -7.102016,6.819733 -3.693423,0.01671 -6.858972,-3.252458 -6.969476,-6.899754 -0.05063,-2.767751 1.074336,-5.388948 1.832952,-8.010911 1.468641,-4.352887 2.876755,-8.974501 2.308994,-13.617855 -0.289061,-3.240434 -2.525307,-6.38203 -5.803019,-7.088531 -0.575984,-0.148404 -1.167512,-0.265413 -1.764965,-0.253818 z" style="mix-blend-mode:normal"/><path fill="#d848fb" d="m 34.791315,17.115562 c -1.48563,1.031791 -2.865698,2.518163 -3.323739,4.29876 0.315137,1.890657 0.09462,3.821653 0.06606,5.709043 0.808684,2.853006 3.763566,4.154115 6.337472,5.022385 3.138169,1.082763 5.859753,3.379856 7.194756,6.452115 0.311452,0.606954 1.382281,3.256302 1.264795,1.074827 0.106777,-3.763078 -1.493799,-7.546086 -4.43971,-9.932156 -2.175157,-1.953023 -5.247862,-3.009157 -6.591876,-5.791632 -1.163835,-2.041605 -1.09493,-4.543713 -0.403422,-6.729006 l -0.05216,-0.05216 z" style="mix-blend-mode:normal"/></svg>