<svg xmlns="http://www.w3.org/2000/svg" xmlns:xlink="http://www.w3.org/1999/xlink" width="64" height="64"><defs><linearGradient xlink:href="#a" id="b" x1="455.851" x2="528.307" y1="527.88" y2="598.77" gradientTransform="translate(-126.193 -146.924)scale(.32432)" gradientUnits="userSpaceOnUse"/><linearGradient id="a"><stop offset="0" stop-color="#ff1300"/><stop offset="1" stop-color="#ff6e01"/></linearGradient></defs><path fill="url(#b)" d="m 28.199042,21.859575 -0.734883,2.322202 c -0.800503,0.346258 -1.601005,0.692466 -2.401409,1.038957 -0.849299,-0.178907 -1.700778,-0.386085 -2.561405,-0.489911 -0.135861,0.152924 -3.573395,5.440604 -3.572425,5.49524 0.158375,0.387877 0.430368,0.721517 0.636086,1.084493 l 12.503038,4.392622 12.503044,-4.392622 c 0.205716,-0.362976 0.477703,-0.696616 0.636079,-1.084493 6.14e-4,-0.05464 -3.436612,-5.342316 -3.572481,-5.49524 -0.860621,0.10383 -1.71205,0.311004 -2.561349,0.489911 -0.800404,-0.346491 -1.600906,-0.692699 -2.401403,-1.038957 L 35.93699,21.859575 Z M 20.51721,32.908159 c -0.01547,-0.0049 -0.04666,0.01829 -0.04777,0.02609 -0.150596,1.228175 -0.444932,3.685337 -0.444932,3.685337 l 0.761805,3.294066 5.763586,2.618956 5.518147,-2.063906 5.518091,2.063906 5.763591,-2.618956 0.761854,-3.294066 c 0,0 -0.294328,-2.457162 -0.444931,-3.685337 -0.0013,-0.0104 -0.05636,-0.04838 -0.05636,-0.01009 -3.773084,1.341456 -7.708834,2.640586 -11.542263,3.963752 -3.833424,-1.323166 -7.769235,-2.622296 -11.542319,-3.963752 0,-0.0096 -0.0037,-0.0143 -0.0085,-0.01602 z m 2.708673,2.797537 5.395405,1.992246 a 2.9385053,2.9385053 0 0 1 -0.140693,0.572474 2.9385053,2.9385053 0 0 1 -3.774539,1.738752 2.9385053,2.9385053 0 0 1 -1.738751,-3.77454 2.9385053,2.9385053 0 0 1 0.258578,-0.528932 z m 17.684321,0 a 2.9385053,2.9385053 0 0 1 0.258584,0.528932 2.9385053,2.9385053 0 0 1 -1.73875,3.77454 2.9385053,2.9385053 0 0 1 -3.774546,-1.738752 2.9385053,2.9385053 0 0 1 -0.140693,-0.572474 z m -21.882708,2.223055 -1.384052,1.371479 2.073454,7.270675 6.553325,2.688099 -0.35258,-5.655929 -6.214805,-2.892105 z m 26.08104,0 -0.675287,2.782219 -6.214805,2.892105 -0.35258,5.655929 6.553332,-2.688099 2.073447,-7.270675 z m -13.040492,3.744995 -4.914245,1.94493 0.298302,6.109886 4.615943,1.880586 4.615949,-1.880586 0.298295,-6.109886 z" style="font-variation-settings:normal;-inkscape-stroke:none"/></svg>