<svg xmlns="http://www.w3.org/2000/svg" width="16" height="16"><path fill="#d848fb" d="M 8.3015705,9.0810098 C 9.36577,9.0224633 10.316728,10.01985 10.207701,11.080221 10.171136,12.062019 9.258765,12.925158 8.2645048,12.828365 7.1096909,12.870756 6.2158977,11.631685 6.4935017,10.544022 6.6584857,9.7070901 7.454635,9.0812357 8.3015705,9.0810098 Z" style="mix-blend-mode:normal"/><path fill="#d848fb" d="M 4.661325,0.86325582 C 4.8939406,1.3412859 5.2736708,1.7759944 5.4207045,2.309506 5.8447038,3.4209724 5.5370024,4.6464071 4.9852738,5.6541577 4.1401756,7.3136043 3.3199895,9.1433995 3.5564191,11.049451 c 0.2387901,1.72185 1.4626684,3.301841 3.1471706,3.813043 1.6909365,0.564451 3.6830283,0.0022 4.8167403,-1.377655 0.77789,-0.906869 1.230911,-2.163221 1.017749,-3.357226 C 12.213772,8.8000204 11.179222,7.69519 9.8707734,7.2953397 9.0779322,7.0304273 8.2963102,6.6342876 7.7736446,5.9632181 7.6278953,6.3905993 7.4989964,6.9307659 7.3407522,7.398525 7.194363,7.9145155 7.014132,8.4103948 6.8697774,8.9393034 7.3039147,8.768574 7.8133074,8.4738004 8.3398978,8.5136066 9.6653357,8.4879176 10.831008,9.6986986 10.778682,11.019898 10.768024,12.310096 9.5919549,13.455883 8.2957275,13.404161 7.0044609,13.409954 5.8977441,12.267062 5.8591112,10.991922 5.8414164,10.024279 6.2347131,9.107878 6.4999337,8.1912054 7.0133885,6.669382 7.5056839,5.0536075 7.3071876,3.430233 7.2061284,2.2973364 6.4243084,1.1989955 5.2783786,0.95199352 5.0770072,0.90011004 4.870202,0.85920299 4.661325,0.86325582 Z" style="mix-blend-mode:normal"/><path fill="#d848fb" d="M 9.0293424,1.6941684 C 8.509946,2.0548963 8.0274587,2.5745513 7.8673208,3.197069 c 0.1101766,0.6609978 0.033084,1.3360987 0.023098,1.995954 0.2827258,0.9974464 1.3157883,1.4523303 2.2156592,1.7558874 1.097144,0.3785493 2.048644,1.1816409 2.515377,2.2557403 0.108892,0.2122002 0.483264,1.1384433 0.442188,0.3757739 C 13.100974,8.2648057 12.541394,6.9422185 11.511466,6.1080192 10.751004,5.4252171 9.6767484,5.0559799 9.2068635,4.0831902 8.7999732,3.3694211 8.8240613,2.4946527 9.0658233,1.7306463 l -0.018245,-0.018239 z" style="mix-blend-mode:normal"/></svg>