<svg xmlns="http://www.w3.org/2000/svg" width="16" height="16"><path fill="#fff" d="M 8.1270424,9.2186677 C 9.2328625,9.1578315 10.221014,10.194227 10.107722,11.296068 10.069716,12.316264 9.1216724,13.213163 8.0885277,13.112584 6.8885482,13.156632 5.9597979,11.869101 6.248259,10.738899 6.419696,9.8692348 7.2469827,9.218903 8.1270424,9.2186677 Z" style="mix-blend-mode:normal"/><path fill="#fff" d="M 4.3444257,0.67951609 C 4.5861392,1.176242 4.9807205,1.6279522 5.1335049,2.1823301 5.5740864,3.3372654 5.2543512,4.6106279 4.6810438,5.6577915 3.8028942,7.3821395 2.9506307,9.2834983 3.1963069,11.264097 c 0.2481291,1.789191 1.5198739,3.430974 3.2702573,3.962171 1.7570694,0.586524 3.8270698,0.0023 5.0051248,-1.431536 0.808312,-0.942335 1.279052,-2.247825 1.057552,-3.488527 C 12.19225,8.9266897 11.117239,7.7786492 9.7576167,7.3631606 8.9337674,7.0878875 8.1215759,6.6762541 7.5784695,5.9789392 7.4270197,6.4230354 7.2930789,6.9843276 7.1286455,7.4703813 6.9765314,8.0065523 6.789252,8.5218255 6.6392509,9.0714191 7.0903682,8.8940129 7.6196827,8.5877111 8.1668687,8.6290744 9.5441438,8.6023757 10.755406,9.8605158 10.701033,11.233386 10.689923,12.574045 9.4678929,13.764645 8.1209708,13.710898 6.779202,13.716966 5.6292016,12.529327 5.5890579,11.204316 5.5706668,10.19883 5.9793494,9.2465871 6.2549432,8.2940637 6.7884794,6.7127218 7.3000278,5.0337536 7.0937684,3.3468887 6.9887567,2.1696844 6.1763601,1.0283866 4.9856127,0.7717251 4.7763655,0.71781128 4.5614722,0.67530498 4.3444257,0.67951609 Z" style="mix-blend-mode:normal"/><path fill="#fff" d="M 8.8832767,1.5429262 C 8.3435679,1.9177621 7.8422092,2.4577409 7.6758092,3.1046055 c 0.1144846,0.6868495 0.034372,1.388354 0.023997,2.0740162 0.293783,1.0364564 1.3672495,1.5091314 2.3023138,1.8245607 1.140053,0.3933537 2.128767,1.2278552 2.613755,2.3439628 0.113147,0.2204991 0.502163,1.1829678 0.459481,0.3904699 C 13.114147,8.370542 12.532683,6.9962283 11.462475,6.1294034 10.67227,5.4198968 9.5560001,5.0362186 9.0677388,4.0253835 8.6449341,3.2836984 8.6699655,2.3747173 8.9211811,1.5808306 l -0.018954,-0.018952 z" style="mix-blend-mode:normal"/></svg>