<svg height="16" viewBox="0 0 16 16" width="16" xmlns="http://www.w3.org/2000/svg"><g fill="#fff" fill-rule="nonzero" transform="matrix(.0165985 0 0 .0165985 -.498437 -.50081)"><path d="m417.615 76.875c-42.392 9.424-84.326 22.545-123.642 42.334.899 34.716 3.143 67.98 7.693 101.768-15.268 9.782-31.315 18.177-45.576 29.628-14.49 11.148-29.29 21.813-42.41 34.85-26.212-17.337-53.955-33.63-82.535-48.012-30.808 33.156-59.614 68.94-83.145 108.985 18.493 29.029 38.329 58.205 56.699 80.959v245.765c.45.005.899.021 1.344.063l150.67 14.527c7.892.762 14.077 7.115 14.627 15.024l4.646 66.509 131.43 9.379 9.055-61.386c1.174-7.959 8-13.858 16.05-13.858h158.961c8.047 0 14.873 5.899 16.047 13.858l9.055 61.386 131.434-9.379 4.642-66.509c.554-7.909 6.735-14.258 14.627-15.024l150.611-14.527c.446-.042.891-.058 1.34-.063v-19.611l.063-.02v-226.134c21.216-26.71 41.307-56.172 56.699-80.959-23.523-40.045-52.345-75.829-83.152-108.985-28.573 14.382-56.325 30.675-82.537 48.012-13.117-13.037-27.89-23.702-42.401-34.85-14.257-11.451-30.323-19.846-45.562-29.628 4.537-33.788 6.78-67.052 7.683-101.768-39.32-19.789-81.249-32.91-123.662-42.334-16.933 28.46-32.419 59.279-45.906 89.408-15.993-2.672-32.06-3.662-48.149-3.853v-.026c-.112 0-.216.026-.312.026-.1 0-.205-.026-.305-.026v.026c-16.117.191-32.171 1.181-48.168 3.853-13.478-30.129-28.955-60.948-45.914-89.408zm-119.199 359.523c50.151 0 90.799 40.618 90.799 90.752 0 50.168-40.648 90.809-90.799 90.809-50.126 0-90.787-40.641-90.787-90.809 0-50.134 40.661-90.752 90.787-90.752zm427.178 0c50.122 0 90.779 40.618 90.779 90.752 0 50.168-40.657 90.809-90.779 90.809-50.16 0-90.807-40.641-90.807-90.809 0-50.134 40.647-90.752 90.807-90.752zm-213.6 53.11c16.143 0 29.254 11.908 29.254 26.56v83.59c0 14.665-13.111 26.563-29.254 26.563-16.142 0-29.226-11.898-29.226-26.563v-83.59c0-14.652 13.084-26.56 29.226-26.56z"/><path d="m0 0-1.121-16.063c-.135-1.936-1.675-3.477-3.611-3.616l-38.555-2.751c-.094-.007-.188-.01-.281-.01-1.916 0-3.569 1.406-3.852 3.33l-2.211 14.994h-31.459l-2.211-14.994c-.297-2.018-2.101-3.469-4.133-3.32l-38.555 2.751c-1.936.139-3.476 1.68-3.611 3.616l-1.121 16.063-32.547 3.138c.015-3.498.06-7.33.06-8.093 0-34.374 43.605-50.896 97.781-51.086h.133c54.176.19 97.766 16.712 97.766 51.086 0 .777.047 4.593.063 8.093z" transform="matrix(4.16261 0 0 -4.16261 784.071 718.723)"/><path d="m0 0c0-7.994-6.479-14.473-14.479-14.473-7.996 0-14.479 6.479-14.479 14.473s6.483 14.479 14.479 14.479c8 0 14.479-6.485 14.479-14.479" transform="matrix(4.16261 0 0 -4.16261 367.367 532.537)"/><path d="m0 0c0-7.994 6.477-14.473 14.471-14.473 8.002 0 14.479 6.479 14.479 14.473s-6.477 14.479-14.479 14.479c-7.994 0-14.471-6.485-14.471-14.479" transform="matrix(4.16261 0 0 -4.16261 656.641 532.537)"/></g></svg>
