<svg xmlns="http://www.w3.org/2000/svg" xmlns:xlink="http://www.w3.org/1999/xlink" width="16" height="16"><defs><linearGradient xlink:href="#a" id="b" x1="455.851" x2="528.307" y1="527.88" y2="598.77" gradientTransform="translate(-61.95 -73.03)scale(.14326)" gradientUnits="userSpaceOnUse"/><linearGradient id="a"><stop offset="0" stop-color="#ff1300"/><stop offset="1" stop-color="#ff6e01"/></linearGradient></defs><path fill="url(#b)" d="M 6.2493168,1.5253143 5.9247004,2.5510899 C 5.5710989,2.7040414 5.2174946,2.8569699 4.8639399,3.0100214 4.4887816,2.9310012 4.1126593,2.8394802 3.7324983,2.7936188 3.6724826,2.861172 2.1540383,5.1968702 2.1544707,5.2210031 2.2244293,5.3923394 2.3445719,5.5397181 2.4354428,5.7000537 L 7.9583534,7.6403864 13.481262,5.7000537 c 0.09087,-0.1603356 0.211017,-0.3077143 0.280974,-0.4790506 5.51e-4,-0.024137 -1.51804,-2.3598348 -1.578054,-2.4273843 -0.380159,0.045859 -0.756256,0.1373787 -1.131414,0.2164026 -0.353559,-0.1530515 -0.70716,-0.30598 -1.0607612,-0.4589315 L 9.6673658,1.5253143 Z M 2.8560596,6.4057538 c -0.00679,-0.0022 -0.020611,0.00808 -0.021107,0.011531 -0.066525,0.5425165 -0.196536,1.6279066 -0.196536,1.6279066 l 0.3365057,1.4550727 2.545922,1.1568589 2.4375082,-0.9116787 2.4374795,0.9116787 2.545925,-1.1568589 0.33653,-1.4550727 c 0,0 -0.130013,-1.0853901 -0.196539,-1.6279066 -5.49e-4,-0.00459 -0.02488,-0.021364 -0.02488,-0.00441 C 11.390202,7.0054335 9.6516808,7.5792891 7.9583589,8.163767 6.2650391,7.5792891 4.5264923,7.0054335 2.8598238,6.4128782 c 0,-0.00422 -0.00138,-0.00633 -0.00376,-0.00707 z M 4.0525463,7.6414963 6.4358328,8.521522 A 1.2980123,1.2980123 0 0 1 6.3736871,8.7743996 1.2980123,1.2980123 0 0 1 4.7063769,9.5424508 1.2980123,1.2980123 0 0 1 3.9383264,7.8751389 1.2980123,1.2980123 0 0 1 4.0525472,7.6414963 Z m 7.8116137,0 A 1.2980123,1.2980123 0 0 1 11.978379,7.8751389 1.2980123,1.2980123 0 0 1 11.210331,9.5424508 1.2980123,1.2980123 0 0 1 9.5430188,8.7743996 1.2980123,1.2980123 0 0 1 9.4808731,8.521522 Z M 2.198014,8.6234762 1.5866433,9.2292933 2.5025379,12.440933 5.3973113,13.628336 5.2415642,11.129969 2.4963289,9.8524523 Z m 11.520655,0 -0.298291,1.2289761 -2.745235,1.2775167 -0.155747,2.498367 2.894774,-1.187403 0.915894,-3.2116397 z M 7.9583534,10.277736 5.787609,11.13686 5.9193755,13.835752 7.9583534,14.666454 9.9973318,13.835752 10.129098,11.13686 Z" style="font-variation-settings:normal;-inkscape-stroke:none"/></svg>