<svg width="16" height="16" viewBox="0 0 16 16" xmlns="http://www.w3.org/2000/svg"><g fill="#fff" transform="scale(.01563)"><path d="m105 673 152 14q12 1 15 14l4 67 132 10 8-61q2-11 15-15h162q13 4 15 15l8 61 132-10 4-67q3-13 15-14l152-14V427q30-39 56-81-35-59-83-108-43 20-82 47-40-37-88-64 7-51 8-102-59-28-123-42-26 43-46 89-49-7-98 0-20-46-46-89-64 14-123 42 1 51 8 102-48 27-88 64-39-27-82-47-48 49-83 108 26 42 56 81zm0 33v39c0 276 813 276 813 0v-39l-134 12-5 69q-2 10-14 13l-162 11q-12 0-16-11l-10-65H447l-10 65q-4 11-16 11l-162-11q-12-3-14-13l-5-69zm378-192c3-34 55-34 58 0v86c-3 34-55 34-58 0zm152 12a90 90 0 0 1 180 0 90 90 0 0 1-180 0zm-426 0a90 90 0 0 1 180 0 90 90 0 0 1-180 0"/><circle cx="307" cy="532" r="60"/><circle cx="717" cy="532" r="60"/></g></svg>
