<svg height="16" viewBox="0 0 16 16" width="16" xmlns="http://www.w3.org/2000/svg"><g fill="#fc7f7f" fill-opacity=".996078"><path d="m8 3.0532484c-3.2888554 0-5.9733758 2.6845204-5.9733758 5.9733758 0 3.2889408 2.6845204 5.9733758 5.9733758 5.9733758 3.288855 0 5.973376-2.684435 5.973376-5.9733758 0-3.2888554-2.684521-5.9733758-5.973376-5.9733758zm-.8533394 1.79005v4.1567016c-1.1034532-.0608789-2.2238878-.2544573-3.3650586-.5900074.256693-1.7901354 1.6087154-3.2141029 3.3650586-3.5667027zm1.7066788 0c1.7535276.3520281 3.1035956 1.77213 3.3633516 3.55834-1.113266.3129793-2.2321649.5142138-3.3633516.5866709zm3.2300606 5.3599956c-.434043 1.51792-1.663927 2.690664-3.2300606 3.005035v-2.518376c1.0915918-.0617 2.1691036-.227875 3.2300606-.486668zm-8.161765.015c1.0865571.272147 2.162106.428504 3.2250256.480003v2.510013c-1.5608431-.313338-2.7870065-1.479605-3.2250256-2.990016z" stroke-width=".853339"/><circle cx="2" cy="5" r="1"/><circle cx="14" cy="5" r="1"/><circle cx="10" cy="2" r="1"/><circle cx="6" cy="2" r="1"/></g></svg>
