<svg height="16" viewBox="0 0 16 16" width="16" xmlns="http://www.w3.org/2000/svg"><ellipse cx="6.663637" cy="9.245457" fill="#fc7f7f" fill-opacity=".996078" rx="1.030661" ry=".998146"/><ellipse cx="-6.672815" cy="-9.387111" fill="none" rx="2.408711" ry="5.096776" stroke="#fc7f7f" stroke-opacity=".996078" stroke-width="1.0297" transform="matrix(-.99999945 .00104887 .00104887 -.99999945 0 0)"/><ellipse cx="9.387111" cy="-6.672815" fill="none" rx="2.408711" ry="5.096776" stroke="#fc7f7f" stroke-opacity=".996078" stroke-width="1.0297" transform="matrix(-.00104887 .99999945 -.99999945 .00104887 0 0)"/><g fill="#fc7f7f" fill-opacity=".996078"><path d="m11.8 15 2.4-2.4.8.8v-2.4h-2.4l.8.8-2.4 2.4z"/><path d="m11 6 3-3 1 1v-3h-3l1 1-3 3z"/><path d="m1.8 5 2.4-2.4.8.8v-2.4h-2.4l.8.8-2.4 2.4z"/></g></svg>
