<svg height="16" viewBox="0 0 16 16" width="16" xmlns="http://www.w3.org/2000/svg"><g fill="#e0e0e0"><path d="m3 1c-1.1046 0-2 .8954299-2 1.9999999v10.0000001c0 1.1046.89543 2 2 2h10c1.1046 0 2-.89543 2-2v-10.0000001c0-1.1046-.89543-1.9999999-2-1.9999999zm0 1.9999999h10v10.0000001h-10z"/><path d="m7.5 5.500001h1v1h-1z" stroke-width=".787342"/><path d="m3.5 3.5v9h3v-1h1v-1h-1v-1h1v-1h-1v-1h1v-1h-1v-1h1v-1h-1v-1z" stroke-width="4.09116"/><g stroke-width=".787342"><path d="m7.5 3.5h1v1h-1z"/><path d="m7.5 9.500001h1v1h-1z"/><path d="m7.5 7.500001h1v1h-1z"/><path d="m7.5 11.5h1v1h-1z"/><path d="m8.5 4.500001h1v1h-1z"/><path d="m8.5 6.500001h1v1h-1z"/><path d="m8.5 8.500002h1v1h-1z"/><path d="m8.5 10.500002h1v1h-1z"/></g></g></svg>
