<svg height="16" viewBox="0 0 16 16" width="16" xmlns="http://www.w3.org/2000/svg"><path d="M11 1c-.554 0-1 .446-1 1v3c0 .554.446 1 1 1h3c.554 0 1-.446 1-1V2c0-.554-.446-1-1-1h-3zM9 3.883L6.732 5.016c.17.292.268.628.268.984v1.117l2.268-1.133A1.964 1.964 0 019 5V3.883zM2 5c-.554 0-1 .446-1 1v4c0 .554.446 1 1 1h3c.554 0 1-.446 1-1V6c0-.554-.446-1-1-1H2zm5 3.883V10c0 .356-.099.692-.268.984L9 12.117V11c0-.356.099-.692.268-.984L7 8.883zM11 10c-.554 0-1 .446-1 1v3c0 .554.446 1 1 1h3c.554 0 1-.446 1-1v-3c0-.554-.446-1-1-1h-3z" color="#000" fill="#8eef97"/><path d="M5 3h6" fill="none"/><rect width="3" height="1" x="-5" y="6.5" ry=".5" fill="#4a4a4a"/></svg>
