<svg height="16" width="16" xmlns="http://www.w3.org/2000/svg"><path d="M2 0v2H0v1h2v4H0v1h2v4H0v1h2v2h1v-2h3.125A5.5 5 0 016 12H3V8h4v1.143a5.5 5 0 011-.99V8h.223A5.5 5 0 0111.5 7H8V3h4v4h-.5a5.5 5 0 013.297 1H15V7h-2V3h2V2h-2V0h-1v2H8V0H7v2H3V0H2zm1 3h4v4H3V3zm4 11.857V15h.117A5.5 5 0 017 14.857z" fill="#e0e0e0"/><path d="M11.485 8.261c-1.648 0-3.734 1.256-4.485 3.68a.645.645 0 00-.004.367C7.721 14.846 9.873 16 11.486 16c1.612 0 3.764-1.154 4.489-3.692a.645.645 0 000-.356c-.71-2.443-2.842-3.691-4.49-3.691zm0 1.29a2.58 2.58 0 012.58 2.58 2.58 2.58 0 01-2.58 2.58 2.58 2.58 0 01-2.58-2.58 2.58 2.58 0 012.58-2.58zm0 1.29a1.29 1.29 0 00-1.29 1.29 1.29 1.29 0 001.29 1.29 1.29 1.29 0 001.29-1.29 1.29 1.29 0 00-1.29-1.29z" fill="#e0e0e0" fill-opacity=".996" fill-rule="evenodd"/></svg>
