<svg xmlns="http://www.w3.org/2000/svg" width="16" height="16"><path fill="#e0e0e0" d="M14 2.199v2.615l-2.625 1.313V3.512zM2 6.264l2.625 1.312v2.551L2 8.814zm12 0v2.55l-2.625 1.313V7.576zM6 7.719h4v2.64H6zm-4 2.56 2.625 1.313v2.521L2 12.801zm12 0v2.522l-2.625 1.312v-2.521zm-8 1.455h4v2.641H6zm4-8.109v2.734H5.844s-.749.647-.875.641c-.131-.007-1.51-1.456-1.51-1.456L2 4.814V2.199l.117.06s-.064-.775.424-1.216L1.279.441A.626.626 0 0 0 .375 1v12c0 .237.134.453.346.559l4 2a.626.626 0 0 0 .279.066h6a.626.626 0 0 0 .279-.066l4-2a.625.625 0 0 0 .346-.559V1a.625.625 0 0 0-.904-.559l-3.869 1.934H7.888s.084.624-.218 1.25z"/><path fill="#fff" fill-opacity=".686" d="M5 6.25c-4-3.5-2-6 0-6s4 2.5 0 6z"/></svg>