<svg height="16" viewBox="0 0 16 16" width="16" xmlns="http://www.w3.org/2000/svg"><path d="M14 2.2v2.614l-2.625 1.313V3.512zM2 6.263l2.625 1.312v2.551L2 8.814zm12 0v2.55l-2.625 1.313v-2.55zM6 7.719h4v2.64H6zm-4 2.56 2.625 1.313v2.521L2 12.801zm12 0v2.522l-2.625 1.312v-2.521zm-8 1.455h4v2.641H6zm1.701-8.109H10v2.734H5.844s-.749.647-.875.641c-.13-.007-1.51-1.456-1.51-1.456L2 4.814V2.2l.068.034s.027-.457.063-.676c.034-.212.197-.592.197-.592L1.279.441A.625.625 0 0 0 .375 1v12c0 .237.134.453.346.559l4 2a.625.625 0 0 0 .279.066h6a.625.625 0 0 0 .28-.066l4-2a.625.625 0 0 0 .345-.559V1a.625.625 0 0 0-.904-.559l-3.87 1.934h-2.97s.033.417.016.625c-.03.346-.196.625-.196.625z" fill="#e0e0e0"/><path d="M5 6S2.781 3.838 2.781 2.757c0-1.08 0-2.607 2.219-2.607s2.219 1.527 2.219 2.607C7.219 3.838 5 6 5 6z" fill="#fff" fill-opacity=".686"/></svg>
