<svg xmlns="http://www.w3.org/2000/svg" width="16" height="16"><path fill="#e0e0e0" d="M2 0v2H0v1h2v4H0v1h2v4H0v1h2v2h1v-2h3.125A5.5 5 0 0 1 6 12H3V8h4v1.143a5.5 5 0 0 1 1-.99V8h.223A5.5 5 0 0 1 11.5 7H8V3h4v4h-.5a5.5 5 0 0 1 3.297 1H15V7h-2V3h2V2h-2V0h-1v2H8V0H7v2H3V0H2zm1 3h4v4H3V3zm8.485 5.261c-1.648 0-3.734 1.256-4.485 3.68a.645.645 0 0 0-.004.367C7.721 14.846 9.873 16 11.486 16c1.612 0 3.764-1.154 4.489-3.692a.645.645 0 0 0 0-.356c-.71-2.443-2.842-3.691-4.49-3.691zm0 1.29a2.58 2.58 0 0 1 0 5.16 2.58 2.58 0 0 1 0-5.16zm0 1.29a1.29 1.29 0 0 0 0 2.58 1.29 1.29 0 0 0 0-2.58z"/></svg>
