<svg clip-rule="evenodd" fill-rule="evenodd" stroke-linejoin="round" stroke-miterlimit="2" viewBox="0 0 16 16" xmlns="http://www.w3.org/2000/svg"><path clip-rule="evenodd" d="m5 6.25c-4-3.5-2-6 0-6s4 2.5 0 6z" fill="#e0e0e0" fill-rule="nonzero" stroke-linejoin="round" stroke-miterlimit="2" transform="matrix(1.22189 0 0 1.22189 -.59703 -.055474)"/><path d="m13.973 9.002v-6.004h-4.642c.005-.327-.03-.633-.096-.915-.094-.399-.25-.762-.455-1.085h6.193c.553 0 1 .448 1 1v11.99c0 .552-.447 1-1 1h-13.96c-.552 0-1-.448-1-1v-11.99c0-.552.448-1 1-1h1.232c-.205.323-.361.686-.455 1.085-.165.699-.135 1.548.223 2.504v8.401h7.012v-2.988c0-.551.447-.998.998-.998zm-2.952 3.986h2.952v-1.99h-2.952z" fill="#fff" fill-opacity=".6"/></svg>
