<svg clip-rule="evenodd" fill-rule="evenodd" stroke-linejoin="round" stroke-miterlimit="2" viewBox="0 0 16 16" xmlns="http://www.w3.org/2000/svg"><path d="m11.485 8.261c1.648 0 3.78 1.248 4.49 3.691.033.116.033.24 0 .356-.725 2.538-2.877 3.692-4.489 3.692-1.613 0-3.765-1.154-4.49-3.692-.034-.12-.033-.248.004-.367.751-2.424 2.837-3.68 4.485-3.68zm0 1.29c-1.415 0-2.58 1.165-2.58 2.58s1.165 2.58 2.58 2.58 2.58-1.165 2.58-2.58-1.165-2.58-2.58-2.58z" fill="#e0e0e0"/><path d="m11.485 10.841c-.708 0-1.29.582-1.29 1.29s.582 1.29 1.29 1.29 1.29-.582 1.29-1.29-.582-1.29-1.29-1.29z" fill="#e0e0e0" fill-rule="nonzero"/><g fill="#fff" fill-opacity=".6" stroke-width="1.30316"><circle cx="2.021873" cy="2.043098" r="1.099867"/><circle cx="2.021873" cy="6.962987" r="1.099867"/><circle cx="2.021873" cy="11.951797" r="1.099867"/><circle cx="7.052023" cy="2.043098" r="1.099867"/><circle cx="7.052023" cy="6.962987" r="1.099867"/><circle cx="12.040823" cy="2.043098" r="1.099867"/></g></svg>
