<svg height="16" viewBox="0 0 16 16" width="16" xmlns="http://www.w3.org/2000/svg"><path
   d="M5,6.25C1,2.75 3,0.25 5,0.25C7,0.25 9,2.75 5,6.25Z"
   style="fill-rule:nonzero;clip-rule:evenodd;stroke-linejoin:round;stroke-miterlimit:2;fill:rgb(224, 224, 224)"
   id="path1"
   transform="matrix(1.22189,0,0,1.22189,-0.59703,-0.0554737)" /><path
   d="M13.973,9.002L13.973,2.998L9.331,2.998C9.336,2.671 9.301,2.365 9.235,2.083C9.141,1.684 8.985,1.321 8.78,0.998L14.973,0.998C15.526,0.998 15.973,1.446 15.973,1.998L15.973,13.988C15.973,14.54 15.526,14.988 14.973,14.988L1.013,14.988C0.461,14.988 0.013,14.54 0.013,13.988L0.013,1.998C0.013,1.446 0.461,0.998 1.013,0.998L2.245,0.998C2.04,1.321 1.884,1.684 1.79,2.083C1.625,2.782 1.655,3.631 2.013,4.587L2.013,12.988L9.025,12.988L9.025,10C9.025,9.449 9.472,9.002 10.023,9.002L13.973,9.002ZM11.021,12.988L13.973,12.988L13.973,10.998L11.021,10.998L11.021,12.988Z"
   style="fill:white;fill-opacity:0.6;"
   id="path2" /></svg>
