<svg height="16" viewBox="0 0 16 16" width="16" xmlns="http://www.w3.org/2000/svg"><path d="m0 0v4h4v-4zm6 0v6h-6v10h10v-6h6v-10zm4 4h2v2h-2zm2 8v4h4v-4z" fill-opacity=".39216" stroke-linecap="round" stroke-linejoin="round" stroke-opacity=".98824" stroke-width=".5"/><path d="m7 1v6h-6v8h8v-6h6v-8zm2 2h4v4h-4z" fill="#e0e0e0"/><path d="m1 1v2c0 .0000234.446 0 1 0s1 .0000234 1 0v-2c0-.00002341-.446 0-1 0s-1-.00002341-1 0zm12 0v2c0 .0000234.446 0 1 0s1 .0000234 1 0v-2c0-.00002341-.446 0-1 0s-1-.00002341-1 0zm-12 12v2c0 .000023.446 0 1 0s1 .000023 1 0v-2c0-.000023-.446 0-1 0s-1-.000023-1 0zm12 0v2c0 .000023.446 0 1 0s1 .000023 1 0v-2c0-.000023-.446 0-1 0s-1-.000023-1 0z" fill="#fff"/></svg>
