<svg width="16" height="16" viewBox="0 0 16 16" fill="none" xmlns="http://www.w3.org/2000/svg">
<path fill-rule="evenodd" clip-rule="evenodd" d="M8.00004 3.4142L6.68981 4.72443L5.2756 3.31022L6.58583 1.99999C7.36688 1.21894 8.63321 1.21894 9.41426 2L10.7245 3.31022L9.31026 4.72443L8.00004 3.4142ZM4.72447 6.68978L3.41425 8.00001L4.72447 9.31023L3.31026 10.7244L2.00003 9.41422C1.21899 8.63317 1.21899 7.36684 2.00003 6.58579L3.31026 5.27556L4.72447 6.68978ZM12.5858 8L11.2756 6.68978L12.6898 5.27557L14 6.5858C14.7811 7.36685 14.7811 8.63317 14 9.41421L12.6898 10.7244L11.2756 9.31023L12.5858 8ZM6.68981 11.2756L8.00003 12.5858L9.31025 11.2756L10.7245 12.6898L9.41425 14C8.6332 14.781 7.36687 14.781 6.58582 14L5.2756 12.6898L6.68981 11.2756Z" fill="#E0E0E0"/>
</svg>