<svg height="16" viewBox="0 0 16 15.999999" width="16" xmlns="http://www.w3.org/2000/svg"><g transform="translate(0 -1036.4)"><path d="m8 1a7 7 0 0 0 -7 7 7 7 0 0 0 7 7 7 7 0 0 0 7-7 7 7 0 0 0 -7-7zm0 2a5 5 0 0 1 .5.025391 5 5 0 0 1 .49414.074219 5 5 0 0 1 .48438.12305 5 5 0 0 1 .46875.17188 5 5 0 0 1 .44922.2168 5 5 0 0 1 .42578.26172 5 5 0 0 1 .39844.30273 5 5 0 0 1 .36524.33984 5 5 0 0 1 .33008.37695 5 5 0 0 1 .29102.40625 5 5 0 0 1 .24805.43359 5 5 0 0 1 .20508.45508 5 5 0 0 1 .1582.47461 5 5 0 0 1 .10938.48828 5 5 0 0 1 .060547.49609 5 5 0 0 1 .011719.35352 5 5 0 0 1 -.025391.5 5 5 0 0 1 -.074218.49414 5 5 0 0 1 -.12305.48438 5 5 0 0 1 -.17188.46875 5 5 0 0 1 -.2168.44922 5 5 0 0 1 -.26172.42578 5 5 0 0 1 -.30273.39844 5 5 0 0 1 -.33984.36524 5 5 0 0 1 -.37695.33008 5 5 0 0 1 -.40625.29102 5 5 0 0 1 -.43359.24805 5 5 0 0 1 -.45508.20508 5 5 0 0 1 -.47461.1582 5 5 0 0 1 -.48828.10938 5 5 0 0 1 -.49609.060547 5 5 0 0 1 -.35352.011719 5 5 0 0 1 -.5-.025391 5 5 0 0 1 -.49414-.074218 5 5 0 0 1 -.48438-.12305 5 5 0 0 1 -.46875-.17188 5 5 0 0 1 -.44922-.2168 5 5 0 0 1 -.42578-.26172 5 5 0 0 1 -.39844-.30273 5 5 0 0 1 -.36523-.33984 5 5 0 0 1 -.33008-.37695 5 5 0 0 1 -.29102-.40625 5 5 0 0 1 -.24805-.43359 5 5 0 0 1 -.20508-.45508 5 5 0 0 1 -.1582-.47461 5 5 0 0 1 -.10938-.48828 5 5 0 0 1 -.060547-.49609 5 5 0 0 1 -.011719-.35352 5 5 0 0 1 .025391-.5 5 5 0 0 1 .074219-.49414 5 5 0 0 1 .12305-.48438 5 5 0 0 1 .17188-.46875 5 5 0 0 1 .2168-.44922 5 5 0 0 1 .26172-.42578 5 5 0 0 1 .30273-.39844 5 5 0 0 1 .33984-.36523 5 5 0 0 1 .37695-.33008 5 5 0 0 1 .40625-.29102 5 5 0 0 1 .43359-.24805 5 5 0 0 1 .45508-.20508 5 5 0 0 1 .47461-.1582 5 5 0 0 1 .48828-.10938 5 5 0 0 1 .49609-.060547 5 5 0 0 1 .35352-.011719z" fill="#e0e0e0" fill-opacity=".289256" transform="translate(0 1036.4)"/><circle cx="8" cy="1044.4" r="3" style="fill:#fff;fill-opacity:.58824;stroke-linecap:round;stroke-linejoin:round;stroke-opacity:.32549;stroke-width:3"/></g><circle cx="7.932204" cy="8" fill="#fff" fill-opacity=".78431" r="3" stroke-linejoin="round" stroke-opacity=".39216" stroke-width="3"/></svg>
