<svg clip-rule="evenodd" fill-rule="evenodd" stroke-linejoin="round" stroke-miterlimit="2" viewBox="0 0 16 16" xmlns="http://www.w3.org/2000/svg"><path d="m8 1c-3.84 0-7 3.16-7 7s3.16 7 7 7 7-3.16 7-7-3.16-7-7-7zm0 2c.167 0 .334.009.5.025.166.017.331.042.494.075.164.033.325.074.485.123.159.049.315.106.468.172.154.064.303.137.449.216.147.08.289.168.426.262.138.094.271.195.399.303.127.107.249.22.365.34s.226.245.33.377c.104.13.201.266.291.406s.173.285.248.433c.076.149.144.3.205.455.061.156.114.314.158.475.045.161.081.324.11.488.028.165.048.33.06.496.008.118.012.236.012.354 0 .167-.009.334-.025.5-.017.166-.042.331-.075.494-.032.164-.074.325-.123.485-.049.159-.106.315-.172.468-.064.154-.137.303-.216.449-.08.147-.168.289-.262.426-.094.138-.195.271-.303.399-.107.127-.22.249-.34.365s-.245.226-.377.33c-.13.104-.266.201-.406.291s-.285.173-.433.248c-.149.076-.3.144-.455.205-.156.061-.314.114-.475.158-.161.045-.324.081-.488.11-.165.028-.33.048-.496.06-.118.008-.236.012-.354.012-.167 0-.334-.009-.5-.025-.166-.017-.331-.042-.494-.075-.164-.032-.325-.074-.484-.123-.16-.049-.316-.106-.469-.172-.153-.064-.303-.137-.449-.216-.147-.08-.289-.168-.426-.262-.138-.094-.271-.195-.399-.303-.127-.107-.249-.22-.365-.34s-.226-.245-.33-.377c-.104-.13-.201-.266-.291-.406s-.173-.285-.248-.433c-.076-.149-.144-.3-.205-.455-.061-.156-.114-.314-.158-.475-.045-.161-.081-.324-.11-.488-.028-.165-.048-.33-.06-.496-.008-.118-.012-.236-.012-.354 0-.167.009-.334.025-.5.017-.166.042-.331.075-.494.033-.164.074-.325.123-.484.049-.16.106-.316.172-.469.064-.153.137-.303.216-.449.08-.147.168-.289.262-.426.094-.138.195-.271.303-.399.107-.127.22-.249.34-.365s.246-.226.377-.33c.13-.104.266-.201.406-.291s.285-.173.433-.248c.149-.076.3-.144.456-.205.155-.061.313-.114.474-.158.161-.045.324-.081.488-.11.165-.028.33-.048.496-.06.118-.008.236-.012.354-.012z" fill="#e0e0e0" fill-opacity=".29" fill-rule="nonzero"/><g fill="#fff"><circle cx="8" cy="8" fill-opacity=".59" r="3"/><circle cx="7.932" cy="8" fill-opacity=".78" r="3"/></g></svg>
