<svg enable-background="new 0 0 16 16" height="16" viewBox="0 0 16 16" width="16" xmlns="http://www.w3.org/2000/svg"><path d="m7.984 1.002c-.259.004-.507.108-.691.291l-4 4c-.398.383-.41 1.016-.027 1.414s1.016.41 1.414.027l.027-.027 3.293-3.293 3.293 3.293c.383.398 1.016.41 1.414.027s.41-1.016.027-1.414c-.01-.009-.018-.018-.027-.027l-4-4c-.191-.19-.452-.296-.723-.291zm4.006 7.984c-.264.006-.514.117-.697.307l-3.293 3.293-3.293-3.293c-.188-.193-.447-.303-.717-.303-.552 0-1 .448-1 1 0 .271.109.529.303.717l4 4c.391.391 1.023.391 1.414 0l4-4c.398-.383.41-1.016.027-1.414-.193-.202-.463-.313-.744-.307z" fill="#b3b3b3" fill-opacity=".7843"/></svg>
