<svg height="16" viewBox="0 0 16 16" width="16" xmlns="http://www.w3.org/2000/svg"><path d="m7.9844 1.002a1.0001 1.0001 0 0 0 -.69141.29102l-4 4a1.0001 1.0001 0 1 0 1.4141 1.4141l3.293-3.293 3.293 3.293a1.0001 1.0001 0 1 0 1.4141-1.4141l-4-4a1.0001 1.0001 0 0 0 -.72266-.29102zm4.0059 7.9844a1.0001 1.0001 0 0 0 -.69726.30664l-3.293 3.293-3.293-3.293a1.0001 1.0001 0 0 0 -.7168-.30273 1.0001 1.0001 0 0 0 -.69727 1.7168l4 4a1.0001 1.0001 0 0 0 1.4141 0l4-4a1.0001 1.0001 0 0 0 -.7168-1.7207z" fill="#e0e0e0" fill-opacity=".78431"/></svg>
