<svg clip-rule="evenodd" fill-rule="evenodd" stroke-linejoin="round" stroke-miterlimit="2" viewBox="0 0 14 14" xmlns="http://www.w3.org/2000/svg"><path d="m6.984 1.002c-.259.004-.507.108-.691.291l-3 3c-.388.388-.388 1.026 0 1.414s1.026.388 1.414 0l2.293-2.293 2.293 2.293c.388.388 1.026.388 1.414 0s.388-1.026 0-1.414l-3-3c-.191-.191-.452-.296-.722-.291zm3 6.998c-.259.004-.507.109-.691.293l-2.293 2.293-2.293-2.293c-.191-.19-.451-.295-.721-.291-.26.003-.509.108-.693.291-.388.388-.388 1.026 0 1.414l3 3c.388.388 1.026.388 1.414 0l3-3c.388-.388.388-1.026 0-1.414-.191-.191-.452-.297-.723-.293z" fill="#fff" fill-opacity=".59" fill-rule="nonzero"/></svg>
