<svg height="16" viewBox="0 0 16 16" width="16" xmlns="http://www.w3.org/2000/svg"><g fill="#e0e0e0"><path d="m8 3c-2.4999975 0-5.4992202.9992224-6.9492188 4.6992188a1 1 0 0 0 0 .6015624c1.4499986 3.6999968 4.4492213 4.6992188 6.9492188 4.6992188.0077113 0 .0157167.000019.0234375 0v-1.251953a3.75 3.75 0 0 1 -.0234375.001953 3.75 3.75 0 0 1 0-7.5 3.75 3.75 0 0 1 .0234375.0019531v-1.2519531c-.0077208-.0000191-.0157262 0-.0234375 0zm0 3a2 2 0 0 0 0 4 2 2 0 0 0 .0234375-.0019531v-3.9960938a2 2 0 0 0 -.0234375-.0019531z"/><path d="m8.0234375 3v1.2519531c4.8386485.1562247 4.8386485 7.3398689 0 7.4960939v1.251953c2.4953415-.0062 5.4802555-1.010635 6.9257815-4.6992188.06174-.195768.06174-.4057944 0-.6015624-1.445526-3.6885836-4.43044-4.6930526-6.9257815-4.6992188zm0 3.0039062v3.9921876c2.6287135-.000462 2.6480165-3.9877285 0-3.9921876z" fill-opacity=".392157"/></g></svg>
