<svg height="16" viewBox="0 0 16 16" width="16" xmlns="http://www.w3.org/2000/svg"><path d="m5.0293 1c-.99969-.010925-2.0096.31165-3.0293 1v7c2.0172-1.3529 4.0167-1.3136 6 0 1.9833-1.3136 3.9828-1.3529 6 0v-7c-1.0197-.68835-2.0296-1.0109-3.0293-1-.6613.007227-1.3175.1735-1.9707.46289v4.5371h-1v-4c-.98156-.64465-1.971-.98908-2.9707-1zm-5.0293 9v6h2a3 3 0 0 0 3-3 3 3 0 0 0 -3-3zm5 3a3 3 0 0 0 3 3 3 3 0 0 0 3-3 3 3 0 0 0 -3-3 3 3 0 0 0 -3 3zm6 0a3 3 0 0 0 3 3h1v-2h-1a1 1 0 0 1 -1-1 1 1 0 0 1 1-1h1v-2h-1a3 3 0 0 0 -3 3zm-9-1a1 1 0 0 1 1 1 1 1 0 0 1 -1 1zm6 0a1 1 0 0 1 1 1 1 1 0 0 1 -1 1 1 1 0 0 1 -1-1 1 1 0 0 1 1-1z" style="fill:#e0e0e0;fill-opacity:.58824;stroke-linecap:round;stroke-linejoin:round;stroke-opacity:.32549;stroke-width:2"/></svg>
