<svg clip-rule="evenodd" fill-rule="evenodd" stroke-linejoin="round" stroke-miterlimit="2" viewBox="0 0 16 16" xmlns="http://www.w3.org/2000/svg"><path d="m5.029 1c-.999-.011-2.009.312-3.029 1v7c2.017-1.353 4.017-1.314 6 0 1.983-1.314 3.983-1.353 6 0v-7c-1.02-.688-2.03-1.011-3.029-1-.662.007-1.318.173-1.971.463v4.537h-1v-4c-.982-.645-1.971-.989-2.971-1zm-5.029 9v6h2c1.646 0 3-1.354 3-3s-1.354-3-3-3zm5 3c0 1.646 1.354 3 3 3s3-1.354 3-3-1.354-3-3-3-3 1.354-3 3zm6 0c0 1.646 1.354 3 3 3h1v-2h-1c-.549 0-1-.451-1-1s.451-1 1-1h1v-2h-1c-1.646 0-3 1.354-3 3zm-9-1c.549 0 1 .451 1 1s-.451 1-1 1zm6 0c.549 0 1 .451 1 1s-.451 1-1 1-1-.451-1-1 .451-1 1-1z" fill="#e0e0e0" fill-opacity=".59" fill-rule="nonzero"/></svg>
