<svg height="16" viewBox="0 0 16 16" width="16" xmlns="http://www.w3.org/2000/svg"><path d="m9 0a4 4 0 0 0 -4 4 4 4 0 0 0 .55859 2.0273l-2.2656 2.2656 1.4141 1.4141 2.2656-2.2656a4 4 0 0 0 2.0273.55859 4 4 0 0 0 4-4 4 4 0 0 0 -4-4zm0 2a2 2 0 0 1 2 2 2 2 0 0 1 -2 2 2 2 0 0 1 -2-2 2 2 0 0 1 2-2zm-9 8v6h2c1.6569 0 3-1.3431 3-3s-1.3431-3-3-3zm5 3c0 1.6569 1.3431 3 3 3s3-1.3431 3-3-1.3431-3-3-3-3 1.3431-3 3zm6 0c0 1.6569 1.3431 3 3 3h1v-2h-1c-.55228-.00001-.99999-.44772-1-1 .00001-.55228.44772-.99999 1-1h1v-2h-1c-1.6569 0-3 1.3431-3 3zm-9-1c.55228 0 1 .44772 1 1s-.44772 1-1 1zm6 0c.55228.00001.99999.44772 1 1-.0000096.55228-.44772.99999-1 1-.55228-.00001-.99999-.44772-1-1 .0000096-.55228.44772-.99999 1-1z" fill="#e0e0e0" stroke-linecap="round" stroke-linejoin="round" stroke-opacity=".32549" stroke-width="2"/></svg>
