<svg clip-rule="evenodd" fill-rule="evenodd" stroke-linejoin="round" stroke-miterlimit="2" viewBox="0 0 16 16" xmlns="http://www.w3.org/2000/svg"><path d="m3 1c-1.097 0-2 .903-2 2v10c0 1.097.903 2 2 2h10c1.097 0 2-.903 2-2v-10c0-1.097-.903-2-2-2zm0 2h10v10h-10zm2 1c-.554 0-1 .446-1 1s.446 1 1 1h2c.554 0 1-.446 1-1s-.446-1-1-1zm4.996 0c-.554 0-1 .446-1 1s.446 1 1 1h1.004c.554 0 1-.446 1-1s-.446-1-1-1zm-4.996 3c-.554 0-1 .446-1 1s.446 1 1 1 1-.446 1-1-.446-1-1-1zm3 0c-.554 0-1 .446-1 1s.446 1 1 1h3c.554 0 1-.446 1-1s-.446-1-1-1zm-3.004 3c-.554 0-1 .446-1 1s.446 1 1 1h4.004c.554 0 1-.446 1-1s-.446-1-1-1z" fill="#8eef97" fill-rule="nonzero"/></svg>
