<svg height="16" width="16" xmlns="http://www.w3.org/2000/svg"><path d="M3 1a2 2 0 0 0-2 2v10a2 2 0 0 0 2 2h10a2 2 0 0 0 2-2V3a2 2 0 0 0-2-2H3zm0 2h10v10H3V3zm2 1c-.554 0-1 .446-1 1s.446 1 1 1h2c.554 0 1-.446 1-1s-.446-1-1-1H5zm4.996 0c-.554 0-1 .446-1 1s.446 1 1 1H11c.554 0 1-.446 1-1s-.446-1-1-1H9.996zM5 7c-.554 0-1 .446-1 1s.446 1 1 1 1-.446 1-1-.446-1-1-1zm3 0c-.554 0-1 .446-1 1s.446 1 1 1h3c.554 0 1-.446 1-1s-.446-1-1-1H8zm-3.004 3c-.554 0-1 .446-1 1s.446 1 1 1H9c.554 0 1-.446 1-1s-.446-1-1-1H4.996z" style="fill:#8eef97;fill-opacity:1"/></svg>
