<svg height="16" viewBox="0 0 16 16" width="16" xmlns="http://www.w3.org/2000/svg"><g fill="#e0e0e0" fill-opacity=".99608" transform="translate(0 -1036.4)"><path d="m9 2a6 6 0 0 0 -6 6h2a4 4 0 0 1 4-4 4 4 0 0 1 4 4 4 4 0 0 1 -4 4v2a6 6 0 0 0 6-6 6 6 0 0 0 -6-6z" transform="translate(0 1036.4)"/><path d="m4.118 1048.3-1.6771-.9683-1.6771-.9682 1.6771-.9683 1.6771-.9682-.0000001 1.9365z" transform="matrix(0 -1.1926 1.5492 0 -1617 1049.3)"/><path d="m8 1041.4h2v4h-2z"/><path d="m8 1043.4h4v2h-4z"/></g></svg>
