<svg height="16" viewBox="0 0 16 16" width="16" xmlns="http://www.w3.org/2000/svg"><path d="m15 1041.4c0-1.108-.892-2-2-2h-10c-1.108 0-2 .892-2 2v6c0 1.108.892 2 2 2h10c1.108 0 2-.892 2-2zm-1 2.9883a1.0001 1.0001 0 0 1 -.168.5664l-2 3a1.0001 1.0001 0 1 1 -1.664-1.1094l1.6289-2.4453-1.6289-2.4453a1.0001 1.0001 0 1 1 1.664-1.1094l2 3a1.0001 1.0001 0 0 1 .168.543zm-7.9922-2.9981a1.0001 1.0001 0 0 1 -.1758.5645l-1.6308 2.4453 1.6308 2.4453a1.0001 1.0001 0 1 1 -1.664 1.1094l-2-3a1.0001 1.0001 0 0 1 0-1.1094l2-3a1.0001 1.0001 0 0 1 1.8398.5449z" fill="#8eef97" transform="translate(0 -1036.4)"/></svg>
