<svg height="16" viewBox="0 0 16 16" width="16" xmlns="http://www.w3.org/2000/svg"><path d="m2 3c-.55228 0-1 .44772-1 1v2c0 .55228.44772 1 1 1s1-.44772 1-1v-2c0-.55228-.44772-1-1-1zm12 0c-.55228 0-1 .44772-1 1v2c0 .55228.44772 1 1 1s1-.44772 1-1v-2c0-.55228-.44772-1-1-1zm-6 1c-.55228 0-1 .44772-1 1s.44772 1 1 1 1-.44772 1-1-.44772-1-1-1zm5 5c-1.1046 0-2 .89543-2 2 0 1.1046.89543 2 2 2 1.0099-.000337 1.8611-.75351 1.9844-1.7559.04003-.16104.03936-.32952-.002-.49024-.12404-1.0008-.97388-1.7527-1.9824-1.7539zm-11 1c-1.3523-.019125-1.3523 2.0191 0 2h7.1309c-.085635-.32648-.1296-.66248-.13086-1 .00189-.3376.046518-.67361.13281-1z" fill="#8eef97"/></svg>
