<svg xmlns="http://www.w3.org/2000/svg" height="20px" viewBox="0 -960 960 960" width="20px" fill="#FFFFFF"><path d="m234-324 80 80q11 11 11 25.67 0 14.66-11 25.33-10.67 11-25.33 11Q274-182 263-193L121-335q-5-5.4-7.5-11.7-2.5-6.3-2.5-13.5t2.5-13.5Q116-380 121-385l142-142q11-11 25.5-11t25.98 11Q325-516 325-501.5T314-476l-80 80h258q15.3 0 25.65 10.29Q528-375.42 528-360.21t-10.35 25.71Q507.3-324 492-324H234Zm492-240H468q-15.3 0-25.65-10.29Q432-584.58 432-599.79t10.35-25.71Q452.7-636 468-636h258l-80-80q-11-11-11-25.67 0-14.66 11-25.33 10.67-11 25.33-11Q686-778 697-767l142 142q5 5.4 7.5 11.7 2.5 6.3 2.5 13.5t-2.5 13.5Q844-580 839-575L697-433q-10.64 11-24.82 10.5T646.52-434Q636-445 636-459.5t11-25.5l79-79Z"/></svg>