<svg width="16" height="16" version="1.1" viewBox="0 0 16 16" xmlns="http://www.w3.org/2000/svg">
<g transform="translate(0 -1036.4)">
<path transform="translate(0 1036.4)" d="m14.564 2l-2.2441 0.32812 0.81836 1.9004 1.7148-0.25-0.28906-1.9785zm-4.2227 0.61523l-1.9785 0.28906 0.81836 1.9023 1.9785-0.28906-0.81836-1.9023zm-3.959 0.57812l-1.9785 0.28906 0.81836 1.9023 1.9785-0.28906-0.81836-1.9023zm-3.957 0.57812l-1.7148 0.25 0.28906 1.9785 2.2441-0.32812-0.81836-1.9004zm-1.4258 3.2285v6c0 1.1046 0.89543 2 2 2h7v-1h-2v-4h2v-2h4v2h1v-3h-14z" fill="#e0e0e0"/>
<circle cx="-14" cy="1047.4" r="0" fill="#e0e0e0"/>
<path d="m13 1049.4h2v-2h-2v-2h-2v2h-2v2h2v2h2z" fill="#84ffb1" fill-rule="evenodd"/>
</g>
</svg>
