<svg width="16" height="12" version="1.1" viewBox="0 0 16 12" xmlns="http://www.w3.org/2000/svg">
<g transform="translate(0 -1040.4)">
<path transform="translate(0 1040.4)" d="m4 4a3 3 0 0 0 -3 3 3 3 0 0 0 3 3h1v-2h-1a1 1 0 0 1 -1 -1 1 1 0 0 1 1 -1h1v-2h-1z" fill="#ff7070"/>
<path transform="translate(0 1040.4)" d="m14 4a3 3 0 0 0 -3 3v3h2v-3a1 1 0 0 1 1 -1h1v-2h-1z" fill="#70bfff"/>
<path transform="translate(0 1040.4)" d="m6 2v5a3 3 0 0 0 3 3h1v-2h-1a1 1 0 0 1 -1 -1v-5h-2z" fill="#7aff70"/>
</g>
</svg>
