<svg height="16" viewBox="0 0 16 16" width="16" xmlns="http://www.w3.org/2000/svg" xmlns:xlink="http://www.w3.org/1999/xlink"><linearGradient id="a" gradientTransform="matrix(1.0096 0 0 1.0227 -.009615 -22.593)" gradientUnits="userSpaceOnUse" x1="8" x2="8" y1="1038.4" y2="1050.4"><stop offset="0" stop-color="#1ec3ff"/><stop offset="1" stop-color="#b2e1ff"/></linearGradient><g transform="translate(0 -1037.4)"><path d="m1 1039.4c4.2749 2.6091 10.765 2.7449 14 0v12c-3.5849-2.6849-9.7929-2.6544-14 0z" fill="url(#a)" stroke-width="15.242"/><path d="m11 6c-.554 0-1 .446-1 1h-1c-.554 0-1 .446-1 1s.446 1 1 1h2c.554 0 1-.446 1-1h1c.554 0 1-.446 1-1s-.446-1-1-1zm-8 3c-.554 0-1 .446-1 1s.446 1 1 1h1c.554 0 1-.446 1-1s-.446-1-1-1z" fill="#fff" transform="translate(0 1037.4)"/></g></svg>
