<svg height="16" viewBox="0 0 16 16" width="16" xmlns="http://www.w3.org/2000/svg"><g fill-opacity=".99608" transform="translate(0 -1036.4)"><path d="m27 1038.4h7v14h-7z" fill="#fff"/><path d="m1 1v14h12c1.1046 0 2-.8954 2-2v-10c0-1.1046-.89543-2-2-2zm7 1a2 2 0 0 1 2 2 2 2 0 0 1 -2 2 2 2 0 0 1 -2-2 2 2 0 0 1 2-2zm-4 4a2 2 0 0 1 2 2 2 2 0 0 1 -2 2 2 2 0 0 1 -2-2 2 2 0 0 1 2-2zm8 0a2 2 0 0 1 2 2 2 2 0 0 1 -2 2 2 2 0 0 1 -2-2 2 2 0 0 1 2-2zm-4 4a2 2 0 0 1 2 2 2 2 0 0 1 -2 2 2 2 0 0 1 -2-2 2 2 0 0 1 2-2z" fill="#e0e0e0" transform="translate(0 1036.4)"/></g></svg>
