<svg height="128" viewBox="0 0 128 128" width="128" xmlns="http://www.w3.org/2000/svg"><g transform="translate(0 -924.36)"><path d="m63.998 928.36c-18.429.005-34.029 13.88-38.557 32.926-12.4 3.0077-21.427 14.08-21.441 27.07v.004c0 15.417 12.583 28 28 28h64c15.417 0 28-12.583 28-28v-.004c-.0152-13-9.0549-24.076-21.467-27.074-4.5265-19.033-20.112-32.903-38.529-32.922zm32.002 88c-6.58 0-12 5.42-12 12s5.42 12 12 12 12-5.42 12-12-5.42-12-12-12zm-64 0c-6.58 0-12 5.42-12 12s5.42 12 12 12 12-5.42 12-12-5.42-12-12-12zm32 8c-6.58 0-12 5.42-12 12s5.42 12 12 12 12-5.42 12-12-5.42-12-12-12z" fill-opacity=".29412"/><path d="m64 8a36 40 0 0 0 -35.311 32.256 24 24 0 0 0 -20.689 23.744 24 24 0 0 0 24 24h64a24 24 0 0 0 24-24 24 24 0 0 0 -20.715-23.746 36 40 0 0 0 -35.285-32.254zm-32 88a8 8 0 0 0 -8 8 8 8 0 0 0 8 8 8 8 0 0 0 8-8 8 8 0 0 0 -8-8zm64 0a8 8 0 0 0 -8 8 8 8 0 0 0 8 8 8 8 0 0 0 8-8 8 8 0 0 0 -8-8zm-32 8a8 8 0 0 0 -8 8 8 8 0 0 0 8 8 8 8 0 0 0 8-8 8 8 0 0 0 -8-8z" fill="#f7f5cf" transform="translate(0 924.36)"/></g></svg>
