<svg width="16" height="16" version="1.1" viewBox="0 0 16 16" xmlns="http://www.w3.org/2000/svg">
<g transform="translate(0 -1036.4)">
<path transform="translate(0 1036.4)" d="m3 2c-0.5304 8.01e-5 -1.0391 0.21085-1.4141 0.58594-0.37509 0.37501-0.58586 0.88366-0.58594 1.4141v8c8.03e-5 0.5304 0.21085 1.0391 0.58594 1.4141 0.37501 0.37509 0.88366 0.58586 1.4141 0.58594h10c1.1046 0 2-0.89543 2-2v-8c0-1.1046-0.89543-2-2-2h-10zm0 1h10c0.55228 9.6e-6 0.99999 0.44772 1 1v8c-1e-5 0.55228-0.44772 0.99999-1 1h-10c-0.55228-1e-5 -0.99999-0.44772-1-1v-8c9.6e-6 -0.55228 0.44772-0.99999 1-1zm6 3v1h-1v1h-2v1h-1v1h-1v1h2 2 2 2v-2h-1v-1-1h-1v-1h-1z" fill="#e0e0e0" fill-opacity=".99608"/>
</g>
</svg>
