<svg width="16" height="16" version="1.1" viewBox="0 0 16 16" xmlns="http://www.w3.org/2000/svg">
<g transform="translate(0 -1036.4)">
<rect x="29" y="1042.4" width="1" height="1" fill="#fefeff"/>
<path transform="translate(0 1036.4)" d="m3 1a2 2 0 0 0 -1.4141 0.58594 2 2 0 0 0 -0.58594 1.4141v10a2 2 0 0 0 0.58594 1.4141 2 2 0 0 0 1.4141 0.58594h10a2 2 0 0 0 2 -2v-10a2 2 0 0 0 -2 -2h-10zm0 1h10a1 1 0 0 1 1 1v10a1 1 0 0 1 -1 1h-10a1 1 0 0 1 -1 -1v-10a1 1 0 0 1 1 -1zm0 1v2h2v-2h-2zm8 0v2h2v-2h-2zm-8 8v2h2v-2h-2zm8 0v2h2v-2h-2z" fill="#a5b7f3" fill-opacity=".98824"/>
</g>
</svg>
