<svg width="16" height="16" version="1.1" viewBox="0 0 16 16" xmlns="http://www.w3.org/2000/svg">
<g transform="translate(0 -1036.4)">
<path d="m2 1037.4a1.0001 1.0001 0 0 0 -1 1v10a1.0001 1.0001 0 0 0 1 1c2.3667 0 3.9746 0.4629 5.7246 0.9629s3.6421 1.0371 6.2754 1.0371a1.0001 1.0001 0 0 0 1 -1v-10a1.0001 1.0001 0 0 0 -1 -1c-2.3667 0-3.9746-0.4609-5.7246-0.9609-1.75-0.5-3.6421-1.0391-6.2754-1.0391zm1 2.0957c1.7984 0.1158 3.2574 0.448 4.7246 0.8672 1.4977 0.4279 3.194 0.8188 5.2754 0.9414v8.002c-1.7985-0.1158-3.2574-0.448-4.7246-0.8672-1.4977-0.4279-3.194-0.8208-5.2754-0.9434v-8z" color="#000000" color-rendering="auto" fill="#e0e0e0" fill-rule="evenodd" image-rendering="auto" shape-rendering="auto" solid-color="#000000" style="block-progression:tb;isolation:auto;mix-blend-mode:normal;text-decoration-color:#000000;text-decoration-line:none;text-decoration-style:solid;text-indent:0;text-transform:none;white-space:normal"/>
</g>
</svg>
