<svg width="128" height="128" version="1.1" viewBox="0 0 128 128" xmlns="http://www.w3.org/2000/svg">
<g transform="translate(0 -924.36)">
<path transform="translate(0 924.36)" d="m52 4c-6.5788 0-12 5.4212-12 12v26.625c-12.263 7.2822-19.978 19.75-20 33.369l-0.005859 4.0059h28.578c1.7994 6.8632 8.0265 12 15.428 12s13.628-5.1368 15.428-12h28.576l-0.00391-4.0039c-0.01526-13.625-7.7323-26.099-20-33.385v-26.611c0-6.5788-5.4212-12-12-12zm-11.689 78.016c-1.536-0.10738-3.1419 0.23676-4.5586 1.0547l-10.393 6c-3.7786 2.1816-5.1117 7.1503-2.9297 10.93 2.1816 3.7786 7.1503 5.1117 10.93 2.9297l10.393-6c3.7796-2.1822 5.1087-7.1521 2.9277-10.93-1.3629-2.3605-3.8057-3.8052-6.3691-3.9844zm47.379 0c-2.5634 0.1792-5.0063 1.6238-6.3691 3.9844-2.181 3.7776-0.85187 8.7475 2.9277 10.93l10.393 6c3.7794 2.182 8.7481 0.8489 10.93-2.9297 2.182-3.7794 0.84891-8.7481-2.9297-10.93l-10.393-6c-1.4167-0.81792-3.0225-1.1621-4.5586-1.0547zm-23.689 13.984c-4.3628 0-8 3.6372-8 8v12c0 4.3628 3.6372 8 8 8s8-3.6372 8-8v-12c0-4.3628-3.6372-8-8-8z" color="#000000" color-rendering="auto" dominant-baseline="auto" fill-opacity=".29412" image-rendering="auto" shape-rendering="auto" solid-color="#000000" style="font-feature-settings:normal;font-variant-alternates:normal;font-variant-caps:normal;font-variant-east-asian:normal;font-variant-ligatures:normal;font-variant-numeric:normal;font-variant-position:normal;isolation:auto;mix-blend-mode:normal;shape-padding:0;text-decoration-color:#000000;text-decoration-line:none;text-decoration-style:solid;text-indent:0;text-orientation:mixed;text-transform:none;white-space:normal"/>
<path transform="translate(0 924.36)" d="m52 8c-4.432 0-8 3.568-8 8v12 16.875a40 36 0 0 0 -20 31.125h28a12 12 0 0 0 12 12 12 12 0 0 0 12 -12h28a40 36 0 0 0 -20 -31.141v-20.859-8c0-4.432-3.568-8-8-8h-24zm-11.969 78.006c-0.76793-0.053681-1.5596 0.1138-2.2793 0.5293l-10.393 6c-1.9191 1.108-2.5728 3.5457-1.4648 5.4648s3.5457 2.5728 5.4648 1.4648l10.393-6c1.9191-1.108 2.5709-3.5457 1.4629-5.4648-0.6925-1.1994-1.9037-1.9047-3.1836-1.9941zm47.938 0c-1.2799 0.08947-2.4911 0.7947-3.1836 1.9941-1.108 1.9191-0.45622 4.3568 1.4629 5.4648l10.393 6c1.9191 1.108 4.3568 0.45427 5.4648-1.4648s0.45427-4.3568-1.4648-5.4648l-10.393-6c-0.71967-0.4155-1.5114-0.58298-2.2793-0.5293zm-23.969 13.994c-2.216 0-4 1.784-4 4v12c0 2.216 1.784 4 4 4s4-1.784 4-4v-12c0-2.216-1.784-4-4-4z" fill="#f7f5cf" stroke-linecap="round" stroke-linejoin="round" stroke-width="2.1082"/>
</g>
</svg>
