<svg width="128" height="128" version="1.1" viewBox="0 0 128 128" xmlns="http://www.w3.org/2000/svg">
<g transform="translate(0 -924.36)" fill-rule="evenodd" shape-rendering="auto">
<path d="m63.766 932.37c-2.0369 0.0594-3.9779 0.89602-5.4199 2.3359l-2e-3 2e-3 -29.656 29.658h-12.688c-4.3705 4.4e-4 -7.9996 3.6295-8 8v32c4.372e-4 4.3705 3.6295 7.9995 8 8h12.688l29.656 29.656c2.4 2.3983 5.9795 2.8662 8.7168 1.7324 2.7373-1.1337 4.9381-3.9958 4.9395-7.3886v-96.004c-3e-3 -4.4555-3.779-8.1211-8.2324-7.9922zm48.234 3.9941c-4.3709 0-8 3.6291-8 8v88c0 4.3709 3.6291 8 8 8s8-3.6291 8-8v-88c0-4.3709-3.6291-8-8-8zm-24 24c-4.3709 0-8 3.6291-8 8v40c0 4.3709 3.6291 8 8 8s8-3.6291 8-8v-40c0-4.3709-3.6291-8-8-8z" color="#000000" color-rendering="auto" dominant-baseline="auto" fill-opacity=".29412" image-rendering="auto" solid-color="#000000" style="font-feature-settings:normal;font-variant-alternates:normal;font-variant-caps:normal;font-variant-east-asian:normal;font-variant-ligatures:normal;font-variant-numeric:normal;font-variant-position:normal;isolation:auto;mix-blend-mode:normal;shape-padding:0;text-decoration-color:#000000;text-decoration-line:none;text-decoration-style:solid;text-indent:0;text-orientation:mixed;text-transform:none;white-space:normal"/>
<path transform="translate(0 924.36)" d="m63.883 12.004c-1.0195 0.0295-1.9892 0.4473-2.7109 1.168l-30.828 30.83h-14.344c-2.209 2.21e-4 -3.9998 1.791-4 4v32c2.21e-4 2.209 1.791 3.9998 4 4h14.344l30.828 30.828c2.52 2.5182 6.8267 0.73442 6.8281-2.8281v-96.002c-0.0015-2.2541-1.8641-4.0619-4.1172-3.9961zm48.117 3.9961a4 4 0 0 0 -4 4v88a4 4 0 0 0 4 4 4 4 0 0 0 4 -4v-88a4 4 0 0 0 -4 -4zm-24 24a4 4 0 0 0 -4 4v40a4 4 0 0 0 4 4 4 4 0 0 0 4 -4v-40a4 4 0 0 0 -4 -4z" color="#000000" color-rendering="auto" dominant-baseline="auto" fill="#f7f5cf" image-rendering="auto" solid-color="#000000" style="font-feature-settings:normal;font-variant-alternates:normal;font-variant-caps:normal;font-variant-east-asian:normal;font-variant-ligatures:normal;font-variant-numeric:normal;font-variant-position:normal;isolation:auto;mix-blend-mode:normal;shape-padding:0;text-decoration-color:#000000;text-decoration-line:none;text-decoration-style:solid;text-indent:0;text-orientation:mixed;text-transform:none;white-space:normal"/>
</g>
</svg>
