<svg clip-rule="evenodd" fill-rule="evenodd" stroke-linejoin="round" stroke-miterlimit="2" viewBox="0 0 16 16" xmlns="http://www.w3.org/2000/svg"><path d="m3 1c-1.097 0-2 .903-2 2v10c0 1.097.903 2 2 2h10c1.097 0 2-.903 2-2v-10c0-1.097-.903-2-2-2zm0 2h10v10h-10zm7.998.998c-.554 0-1 .446-1 1v4.004c0 .554.446 1 1 1s1-.446 1-1v-4.004c0-.554-.446-1-1-1zm-6 .004c-.554 0-1 .446-1 1v2c0 .554.446 1 1 1s1-.446 1-1v-2c0-.554-.446-1-1-1zm3 0c-.554 0-1 .446-1 1s.446 1 1 1 1-.446 1-1-.446-1-1-1zm0 3c-.554 0-1 .446-1 1v3c0 .554.446 1 1 1s1-.446 1-1v-3c0-.554-.446-1-1-1zm-3 1.996c-.554 0-1 .446-1 1v1.004c0 .554.446 1 1 1s1-.446 1-1v-1.004c0-.554-.446-1-1-1z" fill="#a5efac" fill-rule="nonzero"/></svg>
