<svg height="16" viewBox="0 0 16 16" width="16" xmlns="http://www.w3.org/2000/svg"><path d="m4 1c-1.645 0-3 1.355-3 3s1.355 3 3 3c.46079 0 .89328-.11549 1.2852-.30469.18147.1867.43274.30469.71484.30469.554 0 1-.446 1-1v-2-2c0-.554-.446-1-1-1-.28152 0-.53345.11683-.71484.30273-.39187-.1892-.82436-.30273-1.2852-.30273zm0 2c.56412 0 1 .4359 1 1s-.43588 1-1 1-1-.4359-1-1 .43588-1 1-1zm6.8867 3.5293-1.7891.89453.28906.57617h-2.3867v2h.82031c.13264.9292.4994 1.8938 1.1992 2.7305-.61509.163-1.3569.26523-2.2656.26953l.0097657 2c1.6777-.01 3.0414-.31328 4.1113-.83398 1.07.5208 2.4336.82608 4.1113.83398l.009766-2c-.90873 0-1.6505-.10653-2.2656-.26953.7-.8367 1.068-1.8013 1.2012-2.7305h1.0684v-2h-3.3789l-.73438-1.4707zm-1.0234 3.4707h2.0234c-.12578.5801-.37537 1.147-.83594 1.623-.05313.055-.11651.10676-.17578.16016-.05927-.053-.12265-.10516-.17578-.16016-.46056-.476-.71015-1.0429-.83594-1.623z" fill="#e0e0e0"/></svg>
