<svg width="128" height="128" version="1.1" viewBox="0 0 128 128" xmlns="http://www.w3.org/2000/svg">
<g transform="translate(0 -924.36)" shape-rendering="auto">
<path d="m12 928.36c-4.3705 4.4e-4 -7.9996 3.6295-8 8v28h16v-20h88v8h16v-16c-4.4e-4 -4.3705-3.6295-7.9996-8-8zm76 28c-4.3709 0-8 3.6291-8 8s3.6291 8 8 8h10.035l-34.486 40.236-44.721-44.723-11.312 11.316 50.828 50.828c3.2536 3.2513 8.7374 3.0394 11.73-0.4531l37.926-44.244v7.0391c0 4.3709 3.6291 8 8 8s8-3.6291 8-8v-28c-4.4e-4 -4.3705-3.6295-7.9996-8-8zm-84 52v32c4.37e-4 4.3705 3.6295 7.9996 8 8h104c4.3705-4e-4 7.9996-3.6295 8-8v-32h-16v24h-88v-24z" color="#000000" color-rendering="auto" dominant-baseline="auto" fill-opacity=".29412" image-rendering="auto" solid-color="#000000" style="font-feature-settings:normal;font-variant-alternates:normal;font-variant-caps:normal;font-variant-east-asian:normal;font-variant-ligatures:normal;font-variant-numeric:normal;font-variant-position:normal;isolation:auto;mix-blend-mode:normal;shape-padding:0;text-decoration-color:#000000;text-decoration-line:none;text-decoration-style:solid;text-indent:0;text-orientation:mixed;text-transform:none;white-space:normal"/>
<path d="m12 932.36c-2.209 2.2e-4 -3.9998 1.791-4 4v24h8v-20h96v8h8v-12c-2.2e-4 -2.209-1.791-3.9998-4-4zm76 28c-2.2091 0-4 1.7909-4 4s1.7909 4 4 4h18.732l-42.957 50.119-44.947-44.947-5.6562 5.6582 48 48c1.648 1.6468 4.3491 1.5425 5.8652-0.2266l44.963-52.457v17.854c0 2.2091 1.7909 4 4 4s4-1.7909 4-4v-28c-2.2e-4 -2.209-1.791-3.9998-4-4zm-80 52v28c2.209e-4 2.2091 1.791 3.9998 4 4h104c2.209-2e-4 3.9998-1.7909 4-4v-28h-8v24h-96v-24z" color="#000000" color-rendering="auto" dominant-baseline="auto" fill="#f7f5cf" image-rendering="auto" solid-color="#000000" style="font-feature-settings:normal;font-variant-alternates:normal;font-variant-caps:normal;font-variant-east-asian:normal;font-variant-ligatures:normal;font-variant-numeric:normal;font-variant-position:normal;isolation:auto;mix-blend-mode:normal;shape-padding:0;text-decoration-color:#000000;text-decoration-line:none;text-decoration-style:solid;text-indent:0;text-orientation:mixed;text-transform:none;white-space:normal"/>
</g>
</svg>
