<svg xmlns="http://www.w3.org/2000/svg" width="16" height="16"><path style="line-height:1.25" d="M2.542 10.68q-.232 0-.232-.088 0-.056.064-.088.064-.032.2-.056.312-.056.464-.2.16-.144.16-.424V6.72q0-.536-.04-.72-.032-.192-.128-.208-.104-.024-.248-.024-.136-.008-.32-.008h-.376q-.208 0-.392.08-.184.08-.264.232-.048.096-.152.2-.096.104-.176.104-.056 0-.056-.104 0-.08.04-.16.112-.216.16-.392.048-.184.088-.448.024-.184.136-.184.024 0 .088.088.072.088.112.168.048.08.208.12.168.04.352.04h2.816q.496 0 .76-.12.048-.024.136-.088.096-.072.176-.072.024 0 .04.064.016.056.016.12 0 .032-.032.224l-.048.24q-.032.096-.032.232V6.2q0 .08-.04.168-.032.088-.088.088-.056 0-.088-.072-.032-.08-.064-.256t-.2-.272q-.168-.096-.536-.096h-.808q-.2 0-.28.048-.072.048-.096.232-.024.176-.024.64v3.144q0 .28.16.424.16.144.472.2.136.024.2.056t.064.088q0 .088-.232.088-.296 0-.512-.024-.256-.016-.424-.016-.2 0-.488.016-.24.024-.536.024zm4.508.08q-.432 0-.768-.216-.328-.216-.512-.608-.184-.4-.184-.92 0-.448.208-.84.216-.392.568-.616.352-.232.768-.232.48 0 .784.288.312.28.312.72 0 .248-.24.248H6.298q-.112 0-.16.064-.04.056-.04.232 0 .376.16.696.168.32.448.512.288.184.624.184.472 0 .784-.36.048-.064.088-.064.064 0 .064.08 0 .152-.144.336-.176.232-.464.368-.288.128-.608.128zm-.008-2.424q.376 0 .592-.04.064-.008.064-.176 0-.232-.208-.392-.2-.168-.48-.168-.176 0-.368.112-.184.104-.304.264-.12.16-.12.32 0 .08.096.08zm1.544 2.336q-.16 0-.16-.072 0-.056.048-.088.048-.032.136-.056.136-.04.256-.136.12-.104.28-.32l.616-.856q.048-.056.048-.104 0-.04-.032-.08l-.656-1q-.096-.16-.176-.232-.072-.072-.192-.104-.088-.024-.136-.056-.048-.032-.048-.088 0-.072.16-.072.168 0 .296.016.16.016.36.016l.208-.008q.056-.008.2-.008h.024q.16 0 .16.072 0 .04-.04.064-.032.024-.104.048-.08.024-.128.056-.04.024-.04.08 0 .088.104.256l.368.552q.032.056.072 0l.408-.616q.064-.088.064-.176 0-.096-.104-.128-.096-.032-.144-.056-.04-.032-.04-.088 0-.072.16-.072.04 0 .184.016.152.008.24.008.176 0 .312-.016.136-.024.192-.024.16 0 .16.072 0 .056-.048.088-.04.024-.136.056-.384.112-.568.376l-.504.76q-.032.048.008.104l.776 1.264q.096.152.184.224.088.072.208.112.088.024.136.056.048.032.048.088 0 .072-.16.072-.152 0-.296-.016-.16-.016-.376-.016l-.296.008q-.104.008-.288.008t-.184-.08q0-.064.048-.096.048-.04.152-.064.224-.064.224-.192 0-.064-.048-.144l-.472-.768q-.008-.008-.024-.008t-.024.008l-.528.792q-.04.056-.04.152 0 .056.024.112.032.048.088.064.096.032.136.064.048.024.048.08 0 .072-.16.072-.048 0-.176-.008-.12-.008-.272-.008-.104 0-.368.024-.112.016-.168.016zm4.709.08q-.4 0-.616-.24-.216-.248-.216-.712V7.944q0-.072-.056-.096-.048-.024-.2-.024h-.048q-.04 0-.072-.048-.024-.048-.024-.112 0-.016.016-.04.024-.032.04-.048.432-.304.712-.64.032-.04.064-.064.032-.032.072-.032.112 0 .104.088l-.04.36v.032q0 .072.048.096.048.024.144.024h.912q.032 0 .056.056.024.048.024.12t-.024.144q-.024.064-.056.064h-.792q-.216 0-.272.032-.048.032-.048.192v1.576q0 .328.136.512.136.176.392.176.224 0 .352-.032.136-.032.24-.112l.032-.016q.056 0 .056.112 0 .048-.144.176-.144.12-.36.216-.208.096-.432.096z" fill="#e0e0e0"/></svg>