<svg width="16" height="16" version="1.1" viewBox="0 0 16 16" xmlns="http://www.w3.org/2000/svg">
<defs>
<clipPath id="a">
<path d="m8 1037.4a7 7 0 0 0 -7 7 7 7 0 0 0 7 7 7 7 0 0 0 7 -7 7 7 0 0 0 -7 -7zm0 3a4 4 0 0 1 4 4 4 4 0 0 1 -4 4 4 4 0 0 1 -4 -4 4 4 0 0 1 4 -4z" fill="#fff"/>
</clipPath>
</defs>
<g transform="translate(0 -1036.4)">
<circle cx="8" cy="1044.4" r="8" fill="#fff"/>
<g clip-path="url(#a)">
<path d="m6.1883 1037.6a7 7 0 0 1 3.6235 0l-1.8117 6.7615z" fill="#f00"/>
<path transform="matrix(.86603 .5 -.5 .86603 0 0)" d="m527.3 893.68a7 7 0 0 1 3.6235 0l-1.8117 6.7615z" fill="#ff4d00"/>
<path transform="matrix(.5 .86603 -.86603 .5 0 0)" d="m906.63 508.49a7 7 0 0 1 3.6235 0l-1.8117 6.7615z" fill="#f90"/>
<path transform="rotate(90)" d="m1042.6-14.761a7 7 0 0 1 3.6235 0l-1.8117 6.7615z" fill="#ffca00"/>
<path transform="matrix(-.5 .86603 -.86603 -.5 0 0)" d="m898.63-535.87a7 7 0 0 1 3.6235 0l-1.8117 6.7615z" fill="#ff0"/>
<path transform="matrix(-.86603 .5 -.5 -.86603 0 0)" d="m513.44-915.21a7 7 0 0 1 3.6235 0l-1.8117 6.7615z" fill="#9fff00"/>
<path transform="scale(-1)" d="m-9.8118-1051.1a7 7 0 0 1 3.6235 0l-1.8117 6.7615z" fill="#0f0"/>
<path transform="matrix(-.86603 -.5 .5 -.86603 0 0)" d="m-530.92-907.21a7 7 0 0 1 3.6235 0l-1.8117 6.7615z" fill="#0fa"/>
<path transform="matrix(-.5 -.86603 .86603 -.5 0 0)" d="m-910.26-522.01a7 7 0 0 1 3.6235 0l-1.8117 6.7615z" fill="#00f"/>
<path transform="rotate(-90)" d="m-1046.2 1.2385a7 7 0 0 1 3.6235 1e-7l-1.8118 6.7615z" fill="#9000ff"/>
<path transform="matrix(.5 -.86603 .86603 .5 0 0)" d="m-902.26 522.35a7 7 0 0 1 3.6235 0l-1.8117 6.7615z" fill="#f0e"/>
<path transform="matrix(.86603 -.5 .5 .86603 0 0)" d="m-517.06 901.68a7 7 0 0 1 3.6235 0l-1.8117 6.7615z" fill="#ff009a"/>
</g>
</g>
</svg>
