<svg width="16" height="16" style="isolation:isolate" viewBox="0 0 16 16" xmlns="http://www.w3.org/2000/svg">
<path d="m9 1c-0.552 0-1 0.448-1 1s0.448 1 1 1h2.586l-1.293 1.293 1.414 1.414 1.293-1.293v2.586c0 0.552 0.448 1 1 1s1-0.448 1-1v-5c0-0.552-0.448-1-1-1h-5zm-7 7c-0.552 0-1 0.448-1 1v5c0 0.552 0.448 1 1 1h5c0.552 0 1-0.448 1-1s-0.448-1-1-1h-2.586l1.293-1.293-1.414-1.414-1.293 1.293v-2.586c0-0.552-0.448-1-1-1z" fill="#e0e0e0" fill-opacity=".5" fill-rule="evenodd"/>
<path d="m5.168 7.595l2.427-2.427c0.224-0.224 0.586-0.224 0.81 0l2.427 2.427c0.224 0.224 0.224 0.586 0 0.81l-2.427 2.427c-0.224 0.224-0.586 0.224-0.81 0l-2.427-2.427c-0.224-0.224-0.224-0.586 0-0.81z" fill="#84c2ff" fill-opacity=".5"/>
</svg>
