<svg width="16" height="16" version="1.1" viewBox="0 0 16 16" xmlns="http://www.w3.org/2000/svg">
<g transform="translate(0 -1036.4)">
<path transform="translate(0 1036.4)" d="m8 1c-3.8541 0-7 3.1459-7 7 0 3.8542 3.1459 7 7 7 3.8541 0 7-3.1458 7-7 0-3.8541-3.1459-7-7-7zm-1 2.0977v4.8711c-1.2931-0.071342-2.6061-0.29819-3.9434-0.69141 0.30081-2.0978 1.8852-3.7665 3.9434-4.1797zm2 0c2.0549 0.41253 3.637 2.0767 3.9414 4.1699-1.3046 0.36677-2.6158 0.60259-3.9414 0.6875v-4.8574zm3.7852 6.2812c-0.50864 1.7788-1.9499 3.1531-3.7852 3.5215v-2.9512c1.2792-0.072301 2.5419-0.26704 3.7852-0.57031zm-9.5645 0.017578c1.2733 0.31892 2.5337 0.50215 3.7793 0.5625v2.9414c-1.8291-0.36719-3.266-1.7339-3.7793-3.5039z" color="#000000" color-rendering="auto" dominant-baseline="auto" fill="#ffd684" image-rendering="auto" shape-rendering="auto" solid-color="#000000" style="filter-blend-mode:normal;filter-gaussianBlur-deviation:0;font-feature-settings:normal;font-variant-alternates:normal;font-variant-caps:normal;font-variant-east-asian:normal;font-variant-ligatures:normal;font-variant-numeric:normal;font-variant-position:normal;isolation:auto;mix-blend-mode:normal;shape-padding:0;text-decoration-color:#000000;text-decoration-line:none;text-decoration-style:solid;text-indent:0;text-orientation:mixed;text-transform:none;white-space:normal"/>
</g>
</svg>
