<svg width="128" height="128" version="1.1" viewBox="0 0 128 128" xmlns="http://www.w3.org/2000/svg">
<g transform="translate(0 -924.36)">
<path transform="translate(0 924.36)" d="m12 8a4.0004 4.0004 0 0 0 -4 4v24h8v-20h96v8h8v-12a4.0004 4.0004 0 0 0 -4 -4h-104zm76 28a4 4 0 0 0 -4 4 4 4 0 0 0 4 4h18.732l-42.957 50.119-44.947-44.947-5.6562 5.6582 48 48a4.0004 4.0004 0 0 0 5.8652 -0.22656l44.963-52.457v17.854a4 4 0 0 0 4 4 4 4 0 0 0 4 -4v-28a4.0004 4.0004 0 0 0 -4 -4h-28zm-80 52v28a4.0004 4.0004 0 0 0 4 4h104a4.0004 4.0004 0 0 0 4 -4v-28h-8v24h-96v-24h-8z" color="#000000" color-rendering="auto" dominant-baseline="auto" fill="#f7f5cf" image-rendering="auto" shape-rendering="auto" solid-color="#000000" style="filter-blend-mode:normal;filter-gaussianBlur-deviation:0;font-feature-settings:normal;font-variant-alternates:normal;font-variant-caps:normal;font-variant-east-asian:normal;font-variant-ligatures:normal;font-variant-numeric:normal;font-variant-position:normal;isolation:auto;mix-blend-mode:normal;shape-padding:0;text-decoration-color:#000000;text-decoration-line:none;text-decoration-style:solid;text-indent:0;text-orientation:mixed;text-transform:none;white-space:normal"/>
</g>
</svg>
