<svg width="16" height="16" version="1.1" viewBox="0 0 16 16" xmlns="http://www.w3.org/2000/svg">
<path d="m6.4921 1c-0.55401 0-1 0.446-1 1v3c0 0.554 0.44599 1 1 1h1v0.9902a1.0001 1.0001 0 0 0 -0.31641 0.062l-2.0508 0.6836-0.68359-2.0508a1.0001 1.0001 0 0 0 -0.99023 -0.6972 1.0001 1.0001 0 0 0 -0.9082 1.3281l1 3a1.0001 1.0001 0 0 0 1.2656 0.6328l1.6836-0.5605v0.6113c0 0.041 0.018715 0.076 0.023437 0.1152l-4.5781 3.0528a1.0001 1.0001 0 1 0 1.1094 1.664l5.0566-3.3711 1.4941 2.9864a1.0001 1.0001 0 0 0 1.2109 0.5019l3-1a1.0001 1.0001 0 1 0 -0.63281 -1.8965l-2.1777 0.7246-0.97461-1.9511c0.2759-0.1777 0.46875-0.4723 0.46875-0.8262v-1h1.3828l0.72266 1.4473a1.0001 1.0001 0 1 0 1.7891 -0.8946l-1-2a1.0001 1.0001 0 0 0 -0.89453 -0.5527h-3v-1h1c0.55401 0 1-0.446 1-1v-3c0-0.554-0.44599-1-1-1zm0 2h1v2h-1z" fill="#a5b7f3"/>
</svg>
