<svg width="16" height="16" version="1.1" viewBox="0 0 16 16" xmlns="http://www.w3.org/2000/svg">
<g transform="translate(0 -1036.4)">
<path transform="translate(0 1036.4)" d="m5 1a2 2 0 0 0 -2 2 2 2 0 0 0 2 2 2 2 0 0 0 2 -2 2 2 0 0 0 -2 -2zm5 0c-0.55228 0-1 0.44772-1 1s0.44772 1 1 1h2c0.55228 0 1-0.44772 1-1s-0.44772-1-1-1h-2zm-4 5.8672c-0.32639 0.086294-0.6624 0.13092-1 0.13281-0.33752-0.0012549-0.67352-0.045224-1-0.13086v5 1.1309 1c-0.019125 1.3523 2.0191 1.3523 2 0v-1-1.1328-5zm5 0.13281c-0.55228 0-1 0.44772-1 1s0.44772 1 1 1 1-0.44772 1-1-0.44772-1-1-1zm-1 6c-0.55228 0-1 0.44772-1 1s0.44772 1 1 1h2c0.55228 0 1-0.44772 1-1s-0.44772-1-1-1h-2z" color="#000000" color-rendering="auto" dominant-baseline="auto" fill="#a5efac" image-rendering="auto" shape-rendering="auto" solid-color="#000000" style="font-feature-settings:normal;font-variant-alternates:normal;font-variant-caps:normal;font-variant-ligatures:normal;font-variant-numeric:normal;font-variant-position:normal;isolation:auto;mix-blend-mode:normal;shape-padding:0;text-decoration-color:#000000;text-decoration-line:none;text-decoration-style:solid;text-indent:0;text-orientation:mixed;text-transform:none;white-space:normal"/>
</g>
</svg>
