<svg width="16" height="16" version="1.1" viewBox="0 0 16 16" xmlns="http://www.w3.org/2000/svg">
<g transform="translate(0 -1036.4)">
<path transform="translate(0 1036.4)" d="m13.303 1c-0.4344 0-0.86973 0.16881-1.2012 0.50586l-1.4688 1.4941h4.3418c0.082839-0.52789-0.072596-1.0872-0.47266-1.4941-0.33144-0.33705-0.76482-0.50586-1.1992-0.50586z" fill="#ff7070"/>
<path transform="translate(0 1036.4)" d="m10.633 3-1.9668 2h4.8008l1.0352-1.0527c0.2628-0.2673 0.41824-0.60049 0.47266-0.94727h-4.3418z" fill="#ffeb70"/>
<path transform="translate(0,1036.4)" d="m8.666 5-1.9648 2h2.8809c0.25686-0.33847 0.49465-0.66934 0.68555-1 0.33885-0.5859 0.95098-0.96109 1.627-0.99609 0.44399-0.023642 0.86385 0.115 1.2188 0.35547l0.35352-0.35938h-4.8008z" fill="#9dff70"/>
</g>
<path d="m1.2617 13c-0.08284 0.52789 0.072596 1.0872 0.47266 1.4941 0.33144 0.33705 0.76484 0.50586 1.1992 0.50586 0.4344 0 0.8697-0.16881 1.2012-0.50586l1.4688-1.4941h-4.3418zm7.9219 0c0.41312 1.1628 1.5119 2 2.8164 2s2.4033-0.83718 2.8164-2h-5.6328z" fill="#ff70ac"/>
<path d="m2.7695 11-1.0352 1.0527c-0.2628 0.2673-0.41824 0.60049-0.47266 0.94727h4.3418l1.4238-1.4473c0.020288-0.18998 0.04923-0.37542 0.089844-0.55273h-4.3477zm6.4609 0c-0.13656 0.32585-0.23047 0.65576-0.23047 1 0 0.35235 0.072014 0.68593 0.18359 1h5.6328c0.11158-0.31407 0.18359-0.64765 0.18359-1 0-0.34424-0.093909-0.67415-0.23047-1h-5.5391z" fill="#9f70ff"/>
<path d="m4.7363 9-1.9668 2h4.3477c0.17955-0.78395 0.54577-1.4354 0.9375-2h-3.3184zm5.8281 0c-0.55248 0.69003-1.0583 1.3421-1.334 2h5.5391c-0.2757-0.65786-0.78149-1.31-1.334-2h-2.8711z" fill="#70deff"/>
<path d="m6.7012 7-1.9648 2h3.3184c0.14116-0.20345 0.28508-0.40233 0.42383-0.58398 0.38601-0.5053 0.7635-0.96796 1.1035-1.416h-2.8809zm5.2988 0c-0.43047 0.7456-0.94456 1.3867-1.4355 2h2.8711c-0.49104-0.6133-1.0051-1.2544-1.4355-2z" fill="#70ffb9"/>
</svg>
