<?xml version="1.0" encoding="utf-8"?>
<!-- Generator: Adobe Illustrator 16.0.5, SVG Export Plug-In . SVG Version: 6.00 Build 0)  -->
<!DOCTYPE svg PUBLIC "-//W3C//DTD SVG 1.1//EN" "http://www.w3.org/Graphics/SVG/1.1/DTD/svg11.dtd">
<svg version="1.1" xmlns="http://www.w3.org/2000/svg" xmlns:xlink="http://www.w3.org/1999/xlink" x="0px" y="0px" width="16px"
	 height="16px" viewBox="0 0 16 16" enable-background="new 0 0 16 16" xml:space="preserve">
<g id="Layer_2" display="none">
	<rect x="-48.197" y="-31.833" display="inline" fill="#46495C" width="119.333" height="81.167"/>
</g>
<g id="Layer_1">
	<g>
		<path fill="#9BA0A8" d="M11.147,3.473c1.809,0.06,3.068,0.813,3.78,2.261l-1.609,0.778c-0.446-0.881-1.092-1.32-1.936-1.32h-0.344
			c-0.061,0-0.115,0.012-0.163,0.036l-0.091,0.054l-0.09,0.037l-0.344,0.181c-0.085,0.097-0.166,0.188-0.244,0.272
			c-0.078,0.083-0.148,0.156-0.208,0.216C9.561,6.65,9.393,7.307,9.393,7.958c0,0.687,0.186,1.326,0.562,1.917
			c0.409,0.52,0.897,0.778,1.464,0.778c0.025,0,0.052-0.003,0.082-0.009c0.029-0.005,0.057-0.011,0.081-0.011
			c0.856-0.143,1.441-0.589,1.755-1.338l1.592,0.797c-0.832,1.484-1.996,2.226-3.492,2.226c-0.229,0-0.47-0.021-0.722-0.056
			c-1.882-0.386-2.956-1.573-3.22-3.563C7.457,8.446,7.439,8.193,7.439,7.941c0-0.965,0.223-1.815,0.669-2.551
			C8.784,4.196,9.797,3.557,11.147,3.473"/>
	</g>
	<g>
		<path fill="#9BA0A8" d="M1.656,3.637l6.758-0.006C7.685,4.033,7.106,4.625,6.7,5.426L6.692,5.441L1.656,5.447V3.637z"/>
		<polyline fill="#9BA0A8" points="6.556,8.846 1.656,8.852 1.656,6.851 6.556,6.845 		"/>
		<path fill="#9BA0A8" d="M8.183,12.048l-6.526,0.006v-1.799l4.958-0.006l0.103,0.178C7.124,11.127,7.617,11.663,8.183,12.048z"/>
	</g>
	<g>
	</g>
	<g>
	</g>
	<g>
	</g>
	<g>
	</g>
	<g>
	</g>
	<g>
	</g>
</g>
</svg>
