<?xml version="1.0" encoding="utf-8"?>
<!-- Generator: Adobe Illustrator 16.0.0, SVG Export Plug-In . SVG Version: 6.00 Build 0)  -->
<!DOCTYPE svg PUBLIC "-//W3C//DTD SVG 1.0//EN" "http://www.w3.org/TR/2001/REC-SVG-20010904/DTD/svg10.dtd">
<svg version="1.0" id="Layer_1" xmlns="http://www.w3.org/2000/svg" xmlns:xlink="http://www.w3.org/1999/xlink" x="0px" y="0px"
	 width="16px" height="16px" viewBox="0 0 16 16" enable-background="new 0 0 16 16" xml:space="preserve">
<g>
	<path fill="none" d="M3.5,13h9V6h-9V13z M5.293,7.793c0.391-0.391,1.023-0.391,1.414,0L8,9.086l1.293-1.293
		c0.391-0.391,1.023-0.391,1.414,0s0.391,1.023,0,1.414l-2,2C8.512,11.402,8.256,11.5,8,11.5s-0.512-0.098-0.707-0.293l-2-2
		C4.902,8.816,4.902,8.184,5.293,7.793z"/>
	<rect x="3.5" y="3" fill="none" width="9" height="1"/>
	<g>
		<path fill="none" d="M3.5,13h9V6h-9V13z M5.293,7.793c0.391-0.391,1.023-0.391,1.414,0L8,9.086l1.293-1.293
			c0.391-0.391,1.023-0.391,1.414,0s0.391,1.023,0,1.414l-2,2C8.512,11.402,8.256,11.5,8,11.5s-0.512-0.098-0.707-0.293l-2-2
			C4.902,8.816,4.902,8.184,5.293,7.793z"/>
		<rect x="3.5" y="3" fill="none" width="9" height="1"/>
		<g>
			<path fill="none" d="M3.5,13h9V6h-9V13z M5.293,7.793c0.391-0.391,1.023-0.391,1.414,0L8,9.086l1.293-1.293
				c0.391-0.391,1.023-0.391,1.414,0s0.391,1.023,0,1.414l-2,2C8.512,11.402,8.256,11.5,8,11.5s-0.512-0.098-0.707-0.293l-2-2
				C4.902,8.816,4.902,8.184,5.293,7.793z"/>
			<rect x="3.5" y="3" fill="none" width="9" height="1"/>
			<g>
				<path fill="none" d="M3.5,13h9V6h-9V13z M5.293,7.793c0.391-0.391,1.023-0.391,1.414,0L8,9.086l1.293-1.293
					c0.391-0.391,1.023-0.391,1.414,0s0.391,1.023,0,1.414l-2,2C8.512,11.402,8.256,11.5,8,11.5s-0.512-0.098-0.707-0.293l-2-2
					C4.902,8.816,4.902,8.184,5.293,7.793z"/>
				<rect x="3.5" y="3" fill="none" width="9" height="1"/>
				<g>
					<path fill="none" d="M3.5,13h9V6h-9V13z M5.293,7.793c0.391-0.391,1.023-0.391,1.414,0L8,9.086l1.293-1.293
						c0.391-0.391,1.023-0.391,1.414,0s0.391,1.023,0,1.414l-2,2C8.512,11.402,8.256,11.5,8,11.5s-0.512-0.098-0.707-0.293l-2-2
						C4.902,8.816,4.902,8.184,5.293,7.793z"/>
					<rect x="3.5" y="3" fill="none" width="9" height="1"/>
					<g>
						<path fill="none" d="M3.5,13h9V6h-9V13z M5.293,7.793c0.391-0.391,1.023-0.391,1.414,0L8,9.086l1.293-1.293
							c0.391-0.391,1.023-0.391,1.414,0s0.391,1.023,0,1.414l-2,2C8.512,11.402,8.256,11.5,8,11.5s-0.512-0.098-0.707-0.293l-2-2
							C4.902,8.816,4.902,8.184,5.293,7.793z"/>
						<rect x="3.5" y="3" fill="none" width="9" height="1"/>
						<path fill="#E0E0E0" d="M1.5,6v7c0,1.105,0.895,2,2,2h9c1.105,0,2-0.895,2-2V6c0-1.105-0.895-2-2-2h-9
							C2.395,4,1.5,4.895,1.5,6z M12.5,13h-9V6h9V13z"/>
						<path fill="#E0E0E0" d="M14.5,3c0-1.105-0.895-2-2-2h-9c-1.105,0-2,0.895-2,2v1h2V3h9v1h2V3z"/>
						<path fill="#E0E0E0" d="M7.293,11.207C7.488,11.402,7.744,11.5,8,11.5s0.512-0.098,0.707-0.293l2-2
							c0.391-0.391,0.391-1.023,0-1.414s-1.023-0.391-1.414,0L8,9.086L6.707,7.793c-0.391-0.391-1.023-0.391-1.414,0
							s-0.391,1.023,0,1.414L7.293,11.207z"/>
					</g>
				</g>
			</g>
		</g>
	</g>
</g>
</svg>
