<?xml version="1.0" encoding="UTF-8" standalone="no"?>
<!-- Created with Inkscape (http://www.inkscape.org/) -->

<svg
   xmlns:dc="http://purl.org/dc/elements/1.1/"
   xmlns:cc="http://creativecommons.org/ns#"
   xmlns:rdf="http://www.w3.org/1999/02/22-rdf-syntax-ns#"
   xmlns:svg="http://www.w3.org/2000/svg"
   xmlns="http://www.w3.org/2000/svg"
   xmlns:sodipodi="http://sodipodi.sourceforge.net/DTD/sodipodi-0.dtd"
   xmlns:inkscape="http://www.inkscape.org/namespaces/inkscape"
   version="1.1"
   id="svg2"
   width="48"
   height="16"
   viewBox="0 0 47.999999 16"
   sodipodi:docname="icon_g_l_e_s_2.svg"
   inkscape:version="0.91 r">
  <metadata
     id="metadata8">
    <rdf:RDF>
      <cc:Work
         rdf:about="">
        <dc:format>image/svg+xml</dc:format>
        <dc:type
           rdf:resource="http://purl.org/dc/dcmitype/StillImage" />
        <dc:title />
      </cc:Work>
    </rdf:RDF>
  </metadata>
  <defs
     id="defs6" />
  <sodipodi:namedview
     pagecolor="#ffffff"
     bordercolor="#666666"
     borderopacity="1"
     objecttolerance="10"
     gridtolerance="10"
     guidetolerance="10"
     inkscape:pageopacity="0"
     inkscape:pageshadow="2"
     inkscape:window-width="1920"
     inkscape:window-height="1032"
     id="namedview4"
     showgrid="false"
     inkscape:zoom="1"
     inkscape:cx="36.191532"
     inkscape:cy="-0.35516604"
     inkscape:window-x="0"
     inkscape:window-y="25"
     inkscape:window-maximized="1"
     inkscape:current-layer="svg2" />
  <path
     inkscape:connector-curvature="0"
     id="path835"
     d="m 19.228616,15.499154 c -0.0652,-0.0268 -0.141743,-0.1098 -0.170113,-0.184417 -0.03304,-0.08688 -0.05158,-0.95731 -0.05158,-5.912028 l 0,-6.2196631 0.108487,-0.1379162 c 0.150268,-0.1910365 0.418139,-0.1907342 0.568676,6.436e-4 l 0.108991,0.1385579 -0.01358,6.2990785 c -0.01194,6.8660953 -0.0921,5.3381383 -0.0921,5.9327083 -0.106573,0.104434 -0.315006,0.142158 -0.458761,0.08303 z M 4.5805978,14.575188 C 3.7306667,14.518738 2.8257568,14.196602 2.174771,13.718734 1.7764775,13.42636 1.2033006,12.787236 0.9475101,12.350269 0.438288,11.480363 0.2167979,10.580508 0.2210989,9.399057 0.2291183,7.2009406 1.1724008,5.5285643 2.8888737,4.6693537 3.9810527,4.1226444 5.4243228,4.0371807 6.6327388,4.4476602 7.3306736,4.6847376 7.6682644,4.8972607 8.220434,5.4471587 8.6060539,5.8311907 8.7336109,6.0004852 8.9106189,6.3631718 9.0332639,6.6144683 9.1678539,6.9987435 9.2198961,7.2461971 9.3454801,7.8433551 9.3701521,7.8289765 8.2215567,7.828057 7.7304567,7.8276009 7.2766574,7.8134035 7.2131129,7.7963663 7.1389873,7.7764919 7.0754555,7.6970176 7.0358524,7.5746239 6.7009872,6.5397183 5.8294975,6.0267536 4.6886339,6.193037 3.4438131,6.3744711 2.6978132,7.3344965 2.5430781,8.9541432 2.4257294,10.182472 2.7431343,11.329338 3.3778563,11.97041 c 0.46237,0.466997 0.9869175,0.673904 1.7084683,0.673904 1.2025378,0 1.9439704,-0.533034 2.1862936,-1.57178 0.055989,-0.240028 0.059178,-0.324448 0.012859,-0.341503 -0.033838,-0.01246 -0.5090515,-0.02872 -1.0560342,-0.03612 l -0.9945123,-0.01345 0,-0.8636579 0,-0.863657 1.9890278,-0.014575 c 1.0939663,-0.00802 2.0422396,-0.00163 2.1072756,0.014201 l 0.118246,0.028779 -0.01356,2.6814549 -0.01356,2.681455 -0.7170922,0.01455 c -0.8295927,0.01682 -0.7753286,0.05076 -0.8815155,-0.55106 -0.036825,-0.208719 -0.077853,-0.379487 -0.091164,-0.379487 -0.013311,0 -0.16916,0.135437 -0.3463303,0.300972 -0.3894417,0.363866 -0.8188673,0.600316 -1.3418506,0.738852 -0.4725114,0.125166 -0.8081647,0.149449 -1.4638097,0.1059 z M 32.997118,14.469781 c -0.928547,-0.194854 -1.630354,-0.56605 -2.174913,-1.150343 -0.515384,-0.552992 -0.832054,-1.344249 -0.800629,-2.000518 l 0.01549,-0.323408 1.060826,-0.01418 1.060825,-0.01418 0.05146,0.135352 c 0.0283,0.07444 0.0517,0.198593 0.05197,0.275887 8.54e-4,0.230559 0.229434,0.649361 0.479979,0.879354 0.347226,0.318744 0.735307,0.44853 1.431019,0.478576 1.267096,0.05472 2.007349,-0.393206 1.947849,-1.178652 -0.0456,-0.601928 -0.471503,-0.860841 -2.12876,-1.294103 C 33.381534,10.103917 32.74276,9.9264243 32.572738,9.8691486 31.458928,9.4939337 30.783423,8.9537559 30.479388,8.195172 30.336047,7.8375288 30.283933,7.0484225 30.37476,6.6109088 c 0.225754,-1.08745 1.197124,-1.9653035 2.541159,-2.2965148 0.600959,-0.1480943 1.712862,-0.157761 2.355429,-0.020477 1.67335,0.3575071 2.584333,1.270761 2.774448,2.7813655 0.0543,0.4314615 0.0347,0.4394334 -1.080484,0.4394334 -0.521251,0 -0.9851,-0.023133 -1.038665,-0.051802 C 35.86758,7.4313026 35.807716,7.3078793 35.773051,7.1462409 35.695435,6.7843357 35.599064,6.6147944 35.349575,6.4012402 35.04374,6.1394568 34.647548,6.029069 34.015121,6.0294329 c -0.428465,2.111e-4 -0.570793,0.021517 -0.784491,0.1172346 -0.47592,0.2131691 -0.654939,0.4628549 -0.654939,0.9134748 0,0.5904894 0.225799,0.7059322 2.58195,1.3200619 1.350552,0.3520209 1.903346,0.598685 2.415601,1.0778741 0.591219,0.5530567 0.852295,1.2543747 0.796412,2.1393787 -0.07929,1.255762 -0.891416,2.255747 -2.192274,2.699402 -0.885807,0.302103 -2.21918,0.374602 -3.180262,0.172922 z M 10.676675,14.306572 c -0.0138,-0.03619 -0.019,-2.268126 -0.01158,-4.9598581 l 0.0135,-4.8940567 1.066335,-0.01419 c 0.742348,-0.00988 1.088249,0.00399 1.138458,0.045665 0.06009,0.049873 0.07211,0.7135739 0.07211,3.9791612 l 0,3.9193056 2.293081,0 c 1.756352,0 2.314103,0.01538 2.382892,0.06567 0.07993,0.05845 0.08822,0.166396 0.07543,0.981428 l -0.01437,0.915757 -3.495384,0.01345 c -2.768549,0.01065 -3.500605,-1.69e-4 -3.520472,-0.05233 z m 11.493601,0.0026 c -0.04842,-0.04842 -0.06297,-1.193838 -0.06236,-4.9074882 4.61e-4,-2.6643823 0.01959,-4.8739347 0.04256,-4.9101166 0.03301,-0.05201 0.813774,-0.062971 3.728627,-0.052342 l 3.686862,0.013441 0,0.9421856 0,0.9421722 -2.5648,0.026171 -2.5648,0.026172 0,0.9421438 0,0.9421716 2.313597,0.026171 c 1.548367,0.017515 2.332217,0.044804 2.36989,0.082507 0.03673,0.036745 0.05127,0.3461819 0.04183,0.889829 l -0.01446,0.8334926 -2.355428,0.02617 -2.355429,0.02617 0,1.0992 0,1.099199 2.617143,0.0274 c 1.439428,0.01507 2.623562,0.03274 2.63141,0.03926 0.0078,0.0065 0.0078,0.441727 0,0.967118 l -0.01427,0.955257 -3.718613,0.01343 c -2.848812,0.01027 -3.733388,-0.0013 -3.781773,-0.04973 z m 17.753791,-0.0522 c -0.04061,-0.105824 0.0759,-0.828141 0.198829,-1.232689 0.288088,-0.948035 0.88431,-1.590368 2.319422,-2.498804 1.100465,-0.6966007 1.86374,-1.2293382 2.17747,-1.5198015 0.515251,-0.477031 0.731074,-1.0868265 0.620161,-1.7522036 -0.126353,-0.7579453 -0.607483,-1.1395703 -1.436711,-1.1395703 -0.930964,0 -1.401324,0.4507271 -1.481617,1.4197789 l -0.03634,0.4383927 -1.099202,0 -1.099196,0 -0.01524,-0.3725124 c -0.03408,-0.8332648 0.288934,-1.6827799 0.855164,-2.2490093 0.399774,-0.3997734 1.09283,-0.7574546 1.70958,-0.8822975 0.580047,-0.1174131 1.71432,-0.1077309 2.332892,0.019914 1.258364,0.2596698 2.203978,1.0560413 2.520675,2.1228587 0.104477,0.3519131 0.117355,0.4871812 0.09657,1.0144101 -0.01959,0.4962935 -0.04847,0.667451 -0.157022,0.9292002 -0.313508,0.7560998 -1.253945,1.4244147 -2.242377,2.052883 -1.507571,0.958543 -2.313189,1.132837 -2.628555,1.447093 -0.26352,0.262604 0.01049,0.05411 0.09629,0.04814 0.0842,0.0066 1.471518,-0.208145 2.662741,-0.358762 1.918296,-0.194275 2.235142,-0.309206 2.248708,-0.159727 0.02525,0.27825 0.03178,1.459339 0.03178,1.857669 0,0.398331 -0.0143,0.761495 -0.03178,0.807033 -0.0286,0.07445 -0.414152,0.0828 -3.822672,0.0828 -3.236429,0 -3.852305,-0.01475 -3.819578,-0.07475 z"
     style="fill:#5586a4;fill-opacity:1;stroke-width:0.05234285"
     sodipodi:nodetypes="ccscccccccccsscsscccccscccsccsccccccccccssscscccccccccccccscsccsccccsssscscccccccscscscccccccscccccccscccccccscccccccccccscccccsssccccscccsc" />
  <path
     style="fill:#000000;stroke-width:1.06666672"
     d=""
     id="path819"
     inkscape:connector-curvature="0" />
  <path
     style="fill:#000000;stroke-width:1.06666672"
     d=""
     id="path817"
     inkscape:connector-curvature="0" />
</svg>
