<?xml version="1.0" encoding="UTF-8" standalone="no"?>
<svg
   xmlns:dc="http://purl.org/dc/elements/1.1/"
   xmlns:cc="http://creativecommons.org/ns#"
   xmlns:rdf="http://www.w3.org/1999/02/22-rdf-syntax-ns#"
   xmlns:svg="http://www.w3.org/2000/svg"
   xmlns="http://www.w3.org/2000/svg"
   xmlns:sodipodi="http://sodipodi.sourceforge.net/DTD/sodipodi-0.dtd"
   xmlns:inkscape="http://www.inkscape.org/namespaces/inkscape"
   width="16"
   height="16"
   version="1.1"
   viewBox="0 0 16 16"
   id="svg8"
   sodipodi:docname="icon_new_root.svg"
   inkscape:version="0.92.3 (2405546, 2018-03-11)">
  <metadata
     id="metadata14">
    <rdf:RDF>
      <cc:Work
         rdf:about="">
        <dc:format>image/svg+xml</dc:format>
        <dc:type
           rdf:resource="http://purl.org/dc/dcmitype/StillImage" />
        <dc:title></dc:title>
      </cc:Work>
    </rdf:RDF>
  </metadata>
  <defs
     id="defs12" />
  <sodipodi:namedview
     pagecolor="#ffffff"
     bordercolor="#666666"
     borderopacity="1"
     objecttolerance="10"
     gridtolerance="10"
     guidetolerance="10"
     inkscape:pageopacity="0"
     inkscape:pageshadow="2"
     inkscape:window-width="1474"
     inkscape:window-height="755"
     id="namedview10"
     showgrid="false"
     inkscape:zoom="29.5"
     inkscape:cx="9.9306919"
     inkscape:cy="7.2213369"
     inkscape:window-x="67"
     inkscape:window-y="27"
     inkscape:window-maximized="0"
     inkscape:current-layer="svg8" />
  <path
     style="fill:#e0e0e0"
     d="m 2,4.7813475 v 2.0494746 c -0.6177049,0.3566305 -0.998733,1.0152377 -1,1.7285 0,1.1045694 0.8954305,1.9999999 2,1.9999999 0.7139771,-5.54e-4 1.3735116,-0.381678 1.7305,-0.9999995 h 1.3545593 c 0.3566306,0.6177035 1.0152377,0.9987325 1.7285,0.9999995 1.1045696,0 1.9999996,-0.8954305 1.9999996,-1.9999999 0,-1.1045695 -0.89543,-2 -1.9999996,-2 -0.7139771,5.537e-4 -1.3735116,0.3816774 -1.7305,1 H 4.7285 C 4.5537191,7.2563119 4.3025219,7.0044423 3.99998,6.8288521 V 4.7793775 C 3.4615087,4.8084067 2.7017179,4.8161838 2,4.7813475 Z"
     id="path2"
     inkscape:connector-curvature="0"
     sodipodi:nodetypes="cccccccscccccc" />
  <path
     style="fill:#e0e0e0"
     d="m 6.8474576,9.6288045 v 1.2020165 c -0.617705,0.35663 -0.998733,1.015237 -1,1.7285 0,1.104569 0.89543,2 2,2 0.713977,-5.54e-4 1.373512,-0.381678 1.7305,-1 h 1.2867634 c 0.35663,0.617704 1.015237,0.998733 1.7285,1 1.104569,0 1.999999,-0.895431 1.999999,-2 0,-1.10457 -0.89543,-2 -1.999999,-2 -0.713977,5.53e-4 -1.373512,0.381677 -1.7305,1 H 9.5759576 c -0.174781,-0.303011 -0.425978,-0.55488 -0.72852,-0.73047 V 9.6268345 c 0,0 -1.264363,0.03681 -1.99998,0.002 z"
     id="path827"
     inkscape:connector-curvature="0"
     sodipodi:nodetypes="cccccccsccccccc" />
  <path
     sodipodi:nodetypes="ccccccc"
     inkscape:connector-curvature="0"
     id="path829"
     d="m 2.7966098,1.3559322 c -1.104569,0 -2.00000003,0.8954305 -2.00000003,2 5.54e-4,0.7139771 0.38167803,1.3735116 1.00000003,1.7305 0.757716,0.266212 0.949133,0.2840609 1.99998,-0.00197 0.617705,-0.3566306 0.998733,-1.0152377 1,-1.7285 0,-1.1045695 -0.89543,-2 -2,-2 z"
     style="fill:#84ffb1;fill-opacity:1" />
</svg>
