<svg width="16" height="12" version="1.1" viewBox="0 0 16 12" xmlns="http://www.w3.org/2000/svg">
<g transform="translate(0 -1040.4)">
<path transform="translate(0 1040.4)" d="m0 0v2 8 2h4v-2h-2v-8h2v-2h-2-2zm12 0v2h2v8h-2v2h4v-2-10h-4z" fill="#e0e0e0"/>
<path transform="translate(0 1040.4)" d="m6 2a3 3 0 0 0 -3 3v5h2v-2h1v-2h-1v-1a1 1 0 0 1 1 -1v-2zm1 0v5a3 3 0 0 0 3 3v-2a1 1 0 0 1 -1 -1v-5h-2zm3 0v5a3 3 0 0 0 3 3v-2a1 1 0 0 1 -1 -1v-1h1v-2h-1v-2h-2z" fill="#61daf4"/>
<path d="m7 1042.4v5a3 3 0 0 0 3 3v-2a1 1 0 0 1 -1 -1v-5h-2z" fill="#fff" fill-opacity=".39216"/>
</g>
</svg>
