<svg width="16" height="16" version="1.1" viewBox="0 0 16 16" xmlns="http://www.w3.org/2000/svg">
<g transform="translate(0 -1036.4)">
<path d="m12 1047.4a4 4 0 0 1 -2 3.4641 4 4 0 0 1 -4 0 4 4 0 0 1 -2 -3.4641h4z" fill="#a5b7f3" fill-opacity=".98824"/>
<rect x="7" y="1045.4" width="2" height="4" ry="1" fill="#a5b7f3" fill-opacity=".98824"/>
<path d="m1.9378 1041.9a7 7 0 0 1 6.0622 -3.5 7 7 0 0 1 6.0622 3.5" fill="none" stroke="#a5b7f3" stroke-linecap="round" stroke-linejoin="round" stroke-width="2"/>
<path d="m5.1022 1044.6a3 3 0 0 1 2.8978 -2.2235 3 3 0 0 1 2.8978 2.2235" fill="none" stroke="#a5b7f3" stroke-linecap="round" stroke-linejoin="round" stroke-width="2"/>
</g>
</svg>
