<svg width="16" height="12" version="1.1" viewBox="0 0 16 12" xmlns="http://www.w3.org/2000/svg">
<g transform="translate(0 -1040.4)" fill="#8da6f0">
<rect transform="scale(-1,1)" x="-2" y="1044.4" width="2" height="6"/>
<rect transform="scale(-1,1)" x="-2" y="1044.4" width="1" height="2"/>
<path d="m2 1044.4a3 3 0 0 1 3 3h-2a1 1 0 0 0 -1 -1v-2z"/>
<rect transform="scale(1,-1)" x="13" y="-1047.4" width="2" height="5"/>
<path d="m2 1050.4a3 3 0 0 0 3 -3h-2a1 1 0 0 1 -1 1v2z"/>
<rect transform="scale(-1,1)" x="-2" y="1042.4" width="2" height="3.9999"/>
<path d="m16 1050.4a3 3 0 0 1 -3 -3h2a1 1 0 0 0 1 1v2z"/>
<path d="m7 1044.4a3 3 0 0 0 -3 3 3 3 0 0 0 3 3 3 3 0 0 0 3 -3 3 3 0 0 0 -3 -3zm0 2a1 1 0 0 1 1 1 1 1 0 0 1 -1 1 1 1 0 0 1 -1 -1 1 1 0 0 1 1 -1z"/>
<path d="m11 1044.4a3 3 0 0 0 -3 3 3 3 0 0 0 3 3 3 3 0 0 0 3 -3 3 3 0 0 0 -3 -3zm0 2a1 1 0 0 1 1 1 1 1 0 0 1 -1 1 1 1 0 0 1 -1 -1 1 1 0 0 1 1 -1z"/>
</g>
</svg>
