<svg width="16" height="16" version="1.1" viewBox="0 0 16 16" xmlns="http://www.w3.org/2000/svg">
<g transform="translate(0 -1036.4)">
<path transform="translate(0 1036.4)" d="m7 1l-0.56445 2.2578a5 5 0 0 0 -0.68945 0.2793l-1.9883-1.1934-1.4141 1.4141 1.1953 1.9941a5 5 0 0 0 -0.28516 0.68555l-2.2539 0.5625v2l2.2578 0.56445a5 5 0 0 0 0.2793 0.6875l-1.1934 1.9902 1.4141 1.4141 1.9941-1.1953a5 5 0 0 0 0.68555 0.28516l0.5625 2.2539v-5.2695a2 2 0 0 1 -1 -1.7305 2 2 0 0 1 1 -1.7285v-0.27148h1 4.5762a5 5 0 0 0 -0.11328 -0.25195l1.1934-1.9902-1.4141-1.4141-1.9941 1.1953a5 5 0 0 0 -0.68555 -0.28516l-0.5625-2.2539h-2zm2 7v1 5 1h5c0.55228 0 1-0.4477 1-1v-5c0-0.5523-0.44772-1-1-1v4l-1-1-1 1v-4h-3z" fill="#e0e0e0"/>
</g>
</svg>
