<svg width="16" height="12" version="1.1" viewBox="0 0 16 12" xmlns="http://www.w3.org/2000/svg">
<g transform="translate(0 -1040.4)" fill="#6993ec">
<rect transform="scale(1,-1)" x="6" y="-1047.4" width="2" height="5"/>
<rect transform="scale(1,-1)" x="8" y="-1046.4" width="2" height="2"/>
<path d="m9 1050.4a3 3 0 0 1 -3 -3h2a1 1 0 0 0 1 1v2z"/>
<rect transform="scale(1,-1)" x="11" y="-1050.4" width="2" height="8"/>
<path d="m13 1044.4a3 3 0 0 1 3 3h-2a1 1 0 0 0 -1 -1v-2z"/>
<rect transform="scale(1,-1)" x="14" y="-1050.4" width="2" height="3"/>
<path d="m2 1048.4a3 3 0 0 0 3 -3h-2a1 1 0 0 1 -1 1v2z"/>
<path d="m2 1042.4a3 3 0 0 1 3 3h-2a1 1 0 0 0 -1 -1v-2z"/>
<rect transform="scale(-1)" x="-2" y="-1050.4" width="2" height="8"/>
<rect transform="scale(1,-1)" x="9" y="-1050.4" width="1" height="2"/>
</g>
</svg>
