<svg width="16" height="16" version="1.1" viewBox="0 0 16 16" xmlns="http://www.w3.org/2000/svg">
<g transform="translate(0 -1036.4)">
<g transform="translate(0 -1.6949e-5)">
<path transform="translate(0 1036.4)" d="m2 1v8.5859l1.293-1.293a1.0001 1.0001 0 0 1 0.69141 -0.29102 1.0001 1.0001 0 0 1 0.72266 0.29102l2.293 2.293 2.293-2.293a1.0001 1.0001 0 0 1 1.4141 0l2.293 2.293 1-1v-3.5859h-5v-5h-7zm8 0v4h4l-4-4zm-6 9.4141l-2 2v2.5859h12v-2.5859l-0.29297 0.29297a1.0001 1.0001 0 0 1 -1.4141 0l-2.293-2.293-2.293 2.293a1.0001 1.0001 0 0 1 -1.4141 0l-2.293-2.293z" fill="#ff5d5d"/>
</g>
</g>
</svg>
