<svg width="16" height="12" version="1.1" viewBox="0 0 16 12" xmlns="http://www.w3.org/2000/svg">
<g transform="translate(0 -1040.4)">
<path transform="translate(0 1040.4)" d="m0 2v2h2v6h2v-6h2v-2h-6zm7 0v2a1 1 0 0 1 1 1 1 1 0 0 1 -1 1 2 2 0 0 0 -1.7324 1 2 2 0 0 0 -0.26562 1h-0.0019531v0.046875 1.9531h2 3 2a4 4 0 0 0 3.4648 -2 4 4 0 0 0 0 -4 4 4 0 0 0 -3.4648 -2h-2v6h-3a3 3 0 0 0 2.5977 -1.5 3 3 0 0 0 0 -3 3 3 0 0 0 -2.5977 -1.5zm5 2a2 2 0 0 1 1.7324 1 2 2 0 0 1 0 2 2 2 0 0 1 -1.7324 1v-4z" fill="#c4ec69"/>
<path transform="translate(0 1040.4)" d="m7 2v2a1 1 0 0 1 1 1 1 1 0 0 1 -1 1 2 2 0 0 0 -1.7324 1 2 2 0 0 0 -0.26562 1h-0.0019531v0.046875 1.9531h2 3v-2h-3a3 3 0 0 0 2.5977 -1.5 3 3 0 0 0 0 -3 3 3 0 0 0 -2.5977 -1.5z" fill="#fff" fill-opacity=".39216"/>
</g>
</svg>
