<svg width="16" height="12" version="1.1" viewBox="0 0 16 12" xmlns="http://www.w3.org/2000/svg">
<g transform="translate(0 -1040.4)">
<path transform="translate(0 1040.4)" d="m0 2v4 4h2a3 3 0 0 0 3 -3 3 3 0 0 0 -3 -3v-2h-2zm10 0v2h2v-2h-2zm-3 2a2 2 0 0 0 -1.7324 1 2 2 0 0 0 0 2 2 2 0 0 0 1.7324 1h-2v2h2a2 2 0 0 0 1.7324 -1 2 2 0 0 0 0 -2 2 2 0 0 0 -1.7324 -1h2v-2h-2zm7 0a2 2 0 0 0 -1.7324 1 2 2 0 0 0 0 2 2 2 0 0 0 1.7324 1h-2v-2h-2v4h2 2a2 2 0 0 0 1.7324 -1 2 2 0 0 0 0 -2 2 2 0 0 0 -1.7324 -1h2v-2h-2zm-12 2a1 1 0 0 1 1 1 1 1 0 0 1 -1 1v-2z" fill="#e3ec69"/>
<path d="m10 1042.4v2h2v-2zm0 4v4h2v-4z" fill="#fff" fill-opacity=".39216"/>
</g>
</svg>
