<svg width="16" height="16" version="1.1" viewBox="0 0 16 16" xmlns="http://www.w3.org/2000/svg">
<path d="m2 1c-0.55401 0-1 0.446-1 1v7c0 0.554 0.44599 1 1 1h4l1-2c0.24699-0.494 0.44772-1 1-1s0.75301 0.506 1 1l1 2h4c0.55401 0 1-0.446 1-1v-7c0-0.554-0.44599-1-1-1h-12zm2 3a2 2 0 0 1 2 2 2 2 0 0 1 -2 2 2 2 0 0 1 -2 -2 2 2 0 0 1 2 -2zm8 0a2 2 0 0 1 2 2 2 2 0 0 1 -2 2 2 2 0 0 1 -2 -2 2 2 0 0 1 2 -2zm-8 7v4h2c0.502 4e-4 0.9265-0.37144 0.99219-0.86914 0.0059-0.047 0.0085325-0.094025 0.0078125-0.14062v-2.9902h-1v3h-1v-3h-1zm5 0v4h1v-1h1v1h1v-1c-7.73e-4 -0.1811-0.05073-0.35867-0.14453-0.51367 0.08369-0.1462 0.14453-0.30573 0.14453-0.48633v-1c0-0.5523-0.4485-1.0293-1-1h-2zm1 1h1v1h-1v-1z" fill="#fc9c9c"/>
</svg>
