<svg width="16" height="12" version="1.1" viewBox="0 0 16 12" xmlns="http://www.w3.org/2000/svg">
<path d="m12 2v2h2a1 1 0 0 1 -1 1v2a1 1 0 0 1 1 1 1 1 0 0 1 -1 1h-1v2h1a3 3 0 0 0 2.5977 -1.5 3 3 0 0 0 0 -3 3 3 0 0 0 -0.36523 -0.50195 3 3 0 0 0 0.36523 -0.49805 3 3 0 0 0 0.39844 -1.5h0.003906v-2zm-11 2v6h2a3 3 0 0 0 3 -3v-3h-2v3a1 1 0 0 1 -1 1v-4zm5 3a3 3 0 0 0 3 3h1v-2h-1a1 1 0 0 1 -1 -1 1 1 0 0 1 1 -1h1v-2h-1a3 3 0 0 0 -3 3z" fill="#e286f0"/>
<path d="m12 2v2h2a1 1 0 0 1 -1 1v2a1 1 0 0 1 1 1 1 1 0 0 1 -1 1h-1v2h1a3 3 0 0 0 2.5977 -1.5 3 3 0 0 0 0 -3 3 3 0 0 0 -0.36523 -0.50195 3 3 0 0 0 0.36523 -0.49805 3 3 0 0 0 0.39844 -1.5h0.003906v-2z" fill="#fff" fill-opacity=".39216"/>
</svg>
