<?xml version="1.0" encoding="UTF-8" standalone="no"?>
<svg
   xmlns:dc="http://purl.org/dc/elements/1.1/"
   xmlns:cc="http://creativecommons.org/ns#"
   xmlns:rdf="http://www.w3.org/1999/02/22-rdf-syntax-ns#"
   xmlns:svg="http://www.w3.org/2000/svg"
   xmlns="http://www.w3.org/2000/svg"
   xmlns:sodipodi="http://sodipodi.sourceforge.net/DTD/sodipodi-0.dtd"
   xmlns:inkscape="http://www.inkscape.org/namespaces/inkscape"
   width="16"
   height="16"
   version="1.1"
   viewBox="0 0 16 16"
   id="svg6"
   sodipodi:docname="icon_bone_2d.svg"
   inkscape:version="0.92.3 (2405546, 2018-03-11)">
  <metadata
     id="metadata12">
    <rdf:RDF>
      <cc:Work
         rdf:about="">
        <dc:format>image/svg+xml</dc:format>
        <dc:type
           rdf:resource="http://purl.org/dc/dcmitype/StillImage" />
        <dc:title></dc:title>
      </cc:Work>
    </rdf:RDF>
  </metadata>
  <defs
     id="defs10" />
  <sodipodi:namedview
     pagecolor="#ffffff"
     bordercolor="#666666"
     borderopacity="1"
     objecttolerance="10"
     gridtolerance="10"
     guidetolerance="10"
     inkscape:pageopacity="0"
     inkscape:pageshadow="2"
     inkscape:window-width="836"
     inkscape:window-height="480"
     id="namedview8"
     showgrid="false"
     inkscape:zoom="14.75"
     inkscape:cx="8"
     inkscape:cy="8"
     inkscape:window-x="67"
     inkscape:window-y="27"
     inkscape:window-maximized="0"
     inkscape:current-layer="svg6" />
  <g
     transform="translate(0 -1036.4)"
     id="g4"
     style="fill:#a5b7f3;fill-opacity:1">
    <path
       d="m10.478 1037.4a2.4664 2.4663 0 0 0 -1.7804 0.7205 2.4664 2.4663 0 0 0 -0.31408 3.1041l-3.559 3.5608a2.4664 2.4663 0 0 0 -3.1023 0.3121 2.4664 2.4663 0 0 0 0 3.4876 2.4664 2.4663 0 0 0 1.397 0.6955 2.4664 2.4663 0 0 0 0.69561 1.397 2.4664 2.4663 0 0 0 3.4877 0 2.4664 2.4663 0 0 0 0.31408 -3.1041l3.5609-3.5608a2.4664 2.4663 0 0 0 3.1004 -0.3102 2.4664 2.4663 0 0 0 0 -3.4875 2.4664 2.4663 0 0 0 -1.397 -0.6974 2.4664 2.4663 0 0 0 -0.69561 -1.3971 2.4664 2.4663 0 0 0 -1.7072 -0.7205z"
       fill="#fc9c9c"
       id="path2"
       style="fill:#a5b7f3;fill-opacity:1" />
  </g>
</svg>
