<svg width="16" height="16" version="1.1" viewBox="0 0 16 16" xmlns="http://www.w3.org/2000/svg">
<g transform="translate(0 -1036.4)">
<path transform="translate(0 1036.4)" d="m13.303 1c-0.4344 0-0.86973 0.16881-1.2012 0.50586l-1.4688 1.4941h4.3418c0.082839-0.52789-0.072596-1.0872-0.47266-1.4941-0.33144-0.33705-0.76482-0.50586-1.1992-0.50586z" fill="#ff7070"/>
<path transform="translate(0 1036.4)" d="m10.633 3l-1.9668 2h4.8008l1.0352-1.0527c0.2628-0.2673 0.41824-0.60049 0.47266-0.94727h-4.3418z" fill="#ffeb70"/>
<path transform="translate(0 1036.4)" d="m8.666 5l-1.9648 2h4.7988l1.9668-2h-4.8008z" fill="#9dff70"/>
<path transform="translate(0 1036.4)" d="m6.7012 7l-1.4004 1.4238 0.56641 0.57617h3.668l1.9648-2h-4.7988z" fill="#70ffb9"/>
<path transform="translate(0 1036.4)" d="m5.8672 9l1.834 1.8652 1.834-1.8652h-3.668zm-1.752 0.57812c-0.48501-0.048725-0.90521 0.12503-1.1953 0.45508-0.21472 0.24426-0.35243 0.57797-0.39844 0.9668h3.5625c-0.10223-0.1935-0.22224-0.37965-0.38281-0.54297-0.55011-0.55955-1.1009-0.83018-1.5859-0.87891z" fill="#70deff"/>
<path transform="translate(0 1036.4)" d="m1.3242 13c0.18414 0.24071 0.43707 0.53374 0.83789 0.94141 0.88382 0.899 2.6552 0.67038 3.5391-0.22852 0.20747-0.21103 0.36064-0.45476 0.4707-0.71289h-4.8477z" fill="#ff70ac"/>
<path transform="translate(0 1036.4)" d="m2.5215 11c-0.0105 0.088737-0.021484 0.17696-0.021484 0.27148 0 1.3947-2.2782 0.28739-1.1758 1.7285h4.8477c0.27363-0.64173 0.24047-1.3785-0.087891-2h-3.5625z" fill="#9f70ff"/>
</g>
</svg>
