<svg width="16" height="12" version="1.1" viewBox="0 0 16 12" xmlns="http://www.w3.org/2000/svg">
<g transform="translate(0 -1040.4)">
<rect x="5" y="1048.4" width="5" height="2" fill="#ddf4aa"/>
<path d="m7 1050.4a2 2 0 0 1 -1.7321 -1 2 2 0 0 1 0 -2 2 2 0 0 1 1.7321 -1" fill="#ddf4aa"/>
<path d="m7 1042.4v2a1 1 0 0 1 1 1 1 1 0 0 1 -1 1v2a3 3 0 0 0 2.5977 -1.5 3 3 0 0 0 0 -3 3 3 0 0 0 -2.5977 -1.5z" fill="#ddf4aa"/>
<rect y="1042.4" width="6" height="2" fill="#c4ec69"/>
<rect x="2" y="1043.4" width="2" height="7" fill="#c4ec69"/>
<path transform="translate(0 1040.4)" d="m10 2v8h2a4 4 0 0 0 3.4648 -2 4 4 0 0 0 0 -4 4 4 0 0 0 -3.4648 -2h-2zm2 2a2 2 0 0 1 1.7324 1 2 2 0 0 1 0 2 2 2 0 0 1 -1.7324 1v-4z" fill="#c4ec69"/>
</g>
</svg>
