<?xml version="1.0" encoding="UTF-8" standalone="no"?>
<svg
   xmlns:dc="http://purl.org/dc/elements/1.1/"
   xmlns:cc="http://creativecommons.org/ns#"
   xmlns:rdf="http://www.w3.org/1999/02/22-rdf-syntax-ns#"
   xmlns:svg="http://www.w3.org/2000/svg"
   xmlns="http://www.w3.org/2000/svg"
   xmlns:sodipodi="http://sodipodi.sourceforge.net/DTD/sodipodi-0.dtd"
   xmlns:inkscape="http://www.inkscape.org/namespaces/inkscape"
   width="16"
   height="16"
   version="1.1"
   viewBox="0 0 16 16"
   id="svg18"
   sodipodi:docname="icon_o_r_m_material_3d.svg"
   inkscape:version="0.92.4 (5da689c313, 2019-01-14)">
  <metadata
     id="metadata24">
    <rdf:RDF>
      <cc:Work
         rdf:about="">
        <dc:format>image/svg+xml</dc:format>
        <dc:type
           rdf:resource="http://purl.org/dc/dcmitype/StillImage" />
        <dc:title></dc:title>
      </cc:Work>
    </rdf:RDF>
  </metadata>
  <defs
     id="defs22" />
  <sodipodi:namedview
     pagecolor="#ffffff"
     bordercolor="#666666"
     borderopacity="1"
     objecttolerance="10"
     gridtolerance="10"
     guidetolerance="10"
     inkscape:pageopacity="0"
     inkscape:pageshadow="2"
     inkscape:window-width="1010"
     inkscape:window-height="553"
     id="namedview20"
     showgrid="false"
     inkscape:zoom="7.375"
     inkscape:cx="16.698858"
     inkscape:cy="18.275823"
     inkscape:window-x="345"
     inkscape:window-y="144"
     inkscape:window-maximized="0"
     inkscape:current-layer="svg18" />
  <path
     inkscape:connector-curvature="0"
     id="path4541"
     style="font-style:normal;font-variant:normal;font-weight:normal;font-stretch:normal;font-size:40px;line-height:1.25;font-family:Uroob;-inkscape-font-specification:Uroob;letter-spacing:0px;word-spacing:0px;fill:#ff0000;fill-opacity:1;stroke:none;stroke-width:0.33291078"
     d="m 5.0534707,10.652714 q 0,0.729229 -0.4538398,1.253141 -0.4538403,0.516832 -1.0868283,0.516832 H 2.3184864 q -0.6389592,0 -1.1047425,-0.509753 -0.47175502,-0.509751 -0.47175502,-1.26022 V 5.1304021 q 0,-0.7575473 0.47175502,-1.2672998 0.4717549,-0.5097517 1.1047425,-0.5097517 h 1.1943162 q 0.6270165,0 1.0868283,0.516832 0.4538398,0.5168313 0.4538398,1.2602195 z M 3.9726148,10.419078 V 5.3640385 q 0,-0.5734707 -0.3344086,-0.8141867 Q 3.5307175,4.4648927 3.381428,4.471973 H 2.3901454 q -0.2567779,0 -0.4120391,0.2690357 -0.1552611,0.2690357 -0.1552611,0.6230298 v 5.0550395 q 0,0.559311 0.3164938,0.807108 0.1074885,0.08496 0.2508064,0.08496 H 3.381428 q 0.2746925,0 0.4359254,-0.276116 0.1552614,-0.276115 0.1552614,-0.61595 z" />
  <path
     inkscape:connector-curvature="0"
     id="path4543"
     style="font-style:normal;font-variant:normal;font-weight:normal;font-stretch:normal;font-size:40px;line-height:1.25;font-family:Uroob;-inkscape-font-specification:Uroob;letter-spacing:0px;word-spacing:0px;fill:#008000;fill-opacity:1;stroke:none;stroke-width:0.32084218"
     d="M 9.9872948,12.451006 H 8.9445586 L 7.4747449,8.5287488 H 6.6815992 V 12.451006 H 5.6721419 V 3.37459 h 2.739956 q 0.5435541,0 0.9318066,0.4601926 0.3882524,0.4601933 0.3882524,1.1540217 V 7.112771 q 0,1.0053443 -0.6766682,1.3168588 -0.2107668,0.099119 -0.4659043,0.099119 z M 8.7282467,6.808336 V 5.2224407 q 0,-0.4743524 -0.2884169,-0.6867495 -0.088743,-0.070798 -0.2052192,-0.063719 H 6.6815992 v 2.9452329 h 1.7194053 q 0.2828702,-0.00708 0.3161488,-0.389394 0.011093,-0.1132781 0.011093,-0.2194752 z" />
  <path
     inkscape:connector-curvature="0"
     id="path4545"
     style="font-style:normal;font-variant:normal;font-weight:normal;font-stretch:normal;font-size:40px;line-height:1.25;font-family:Uroob;-inkscape-font-specification:Uroob;letter-spacing:0px;word-spacing:0px;fill:#0000ff;fill-opacity:1;stroke:none;stroke-width:0.31984535"
     d="m 10.201004,3.7285848 q 0,-0.4106342 0.529158,-0.3681546 0.126777,0.014161 0.209458,0.014161 v 0.00708 h 0.115753 l 1.692202,4.9205216 1.697714,-4.9205216 h 0.06063 v -0.00708 h 0.463013 q 0.198434,0 0.297651,0.212397 0.03307,0.063719 0.03307,0.1415978 v 8.694102 h -1.01422 V 6.8224966 L 13.227119,10.050925 H 12.273535 L 11.21522,7.1198527 v 5.3028353 h -1.014218 z" />
</svg>
