<svg width="16" height="16" version="1.1" viewBox="0 0 16 16" xmlns="http://www.w3.org/2000/svg" xmlns:xlink="http://www.w3.org/1999/xlink">
<defs>
<linearGradient id="a" x1="8" x2="8" y1="1040.4" y2="1050.4" gradientUnits="userSpaceOnUse">
<stop stop-color="#1ec3ff" offset="0"/>
<stop stop-color="#b2e1ff" offset="1"/>
</linearGradient>
</defs>
<g transform="translate(0 -1037.4)">
<path d="m8 1040.4a7 7 0 0 0 -7 7 7 7 0 0 0 0.68555 3h12.631a7 7 0 0 0 0.68359 -3 7 7 0 0 0 -7 -7z" fill="url(#a)"/>
<path transform="translate(0 1037.4)" d="m10 7c-0.554 0-1 0.446-1 1h-1c-0.554 0-1 0.446-1 1s0.446 1 1 1h2c0.554 0 1-0.446 1-1h1c0.554 0 1-0.446 1-1s-0.446-1-1-1h-2zm-7 3c-0.554 0-1 0.446-1 1s0.446 1 1 1h1c0.554 0 1-0.446 1-1s-0.446-1-1-1h-1z" fill="#fff"/>
</g>
</svg>
