<svg height="16" viewBox="0 0 16 16" width="16" xmlns="http://www.w3.org/2000/svg" xmlns:xlink="http://www.w3.org/1999/xlink"><linearGradient id="a" gradientUnits="userSpaceOnUse" x1="8" x2="8" y1="1" y2="15"><stop offset="0" stop-color="#ff7a7a"/><stop offset=".5" stop-color="#e1dc7a"/><stop offset="1" stop-color="#66ff9e"/></linearGradient><path d="m12 2a-1 1 0 0 1 1 1-1 1 0 0 1 -1 1c-4.4301 0-8 3.5699-8 8a-1 1 0 0 1 -1 1-1 1 0 0 1 -1-1c0-5.511 4.489-10 10-10zm0 4a-1 1 0 0 1 1 1-1 1 0 0 1 -1 1c-2.221 0-4 1.779-4 4a-1 1 0 0 1 -1 1-1 1 0 0 1 -1-1c0-3.3018 2.6981-6 6-6zm0 4a-2 2 0 0 1 2 2-2 2 0 0 1 -2 2-2 2 0 0 1 -2-2-2 2 0 0 1 2-2z" fill="url(#a)"/></svg>
