<svg height="16" viewBox="0 0 16 16" width="16" xmlns="http://www.w3.org/2000/svg"><g transform="translate(0 -1036.4)"><path d="m1.4915254 13c0 1.104569.8954305 2 2 2 .7139771-.000554 1.3735116-.381677 1.7305-1h6.0494746c.356631.617705 1.015238.998733 1.7285 1 1.104569 0 2-.895431 2-2s-.895431-2-2-2c-.713977.000554-1.373512.381677-1.7305 1h-6.0494746c-.1747809-.30301-.8483719-1-1.7285-1-.9027301 0-2 .891221-2 2z" fill="#e0e0e0" transform="translate(0 1036.4)"/><path d="m10.421845 1038.2814-2.7947264 2.096 2.7947264 2.0961v-1.3974c2.716918 0 2.180792 1.4469 2.180792 3.9265v1.3974h1.397363v-1.3974c0-3.863.13086-5.3239-3.578155-5.3239z" fill="#84ffb1" stroke-width=".698682"/><path d="m11 9v2h-2v2h2v2h2v-2h2v-2h-2v-2z" fill="#84ffb1" transform="translate(-8.5 1028.4)"/><path d="m4.5 1047.7968v-3.1171h-2.0000005v3.1171z" fill="#e0e0e0" stroke-width=".717839"/></g></svg>
