<svg width="16" height="16" version="1.1" viewBox="0 0 16 16" xmlns="http://www.w3.org/2000/svg">
<g transform="translate(0 -1036.4)">
<path transform="translate(0 1036.4)" d="m2.9902 1.9902a1.0001 1.0001 0 0 0 -0.69727 1.7168l4.293 4.293-4.293 4.293a1.0001 1.0001 0 1 0 1.4141 1.4141l4.293-4.293 4.293 4.293a1.0001 1.0001 0 1 0 1.4141 -1.4141l-4.293-4.293 4.293-4.293a1.0001 1.0001 0 0 0 -0.72656 -1.7148 1.0001 1.0001 0 0 0 -0.6875 0.30078l-4.293 4.293-4.293-4.293a1.0001 1.0001 0 0 0 -0.7168 -0.30273z" color="#000000" color-rendering="auto" fill="#ff5d5d" fill-rule="evenodd" image-rendering="auto" shape-rendering="auto" solid-color="#000000" style="block-progression:tb;isolation:auto;mix-blend-mode:normal;text-decoration-color:#000000;text-decoration-line:none;text-decoration-style:solid;text-indent:0;text-transform:none;white-space:normal"/>
</g>
</svg>
