<svg width="16" height="128" version="1.1" viewBox="0 0 16 128" xmlns="http://www.w3.org/2000/svg" xmlns:xlink="http://www.w3.org/1999/xlink">
<defs>
<linearGradient id="a" x1="8" x2="8" y1="2" y2="126" gradientTransform="translate(0 924.36)" gradientUnits="userSpaceOnUse">
<stop stop-color="#ff8484" offset="0"/>
<stop stop-color="#e1dc7a" offset=".5"/>
<stop stop-color="#84ffb1" offset="1"/>
</linearGradient>
</defs>
<g transform="translate(0 -924.36)">
<path d="m3 926.36c-0.554 0-1 0.446-1 1s0.446 1 1 1h10c0.554 0 1-0.446 1-1s-0.446-1-1-1zm0 3c-0.554 0-1 0.446-1 1s0.446 1 1 1h10c0.554 0 1-0.446 1-1s-0.446-1-1-1zm0 3c-0.554 0-1 0.446-1 1s0.446 1 1 1h10c0.554 0 1-0.446 1-1s-0.446-1-1-1zm0 3c-0.554 0-1 0.446-1 1s0.446 1 1 1h10c0.554 0 1-0.446 1-1s-0.446-1-1-1zm0 3c-0.554 0-1 0.446-1 1s0.446 1 1 1h10c0.554 0 1-0.446 1-1s-0.446-1-1-1zm0 3c-0.554 0-1 0.446-1 1s0.446 1 1 1h10c0.554 0 1-0.446 1-1s-0.446-1-1-1zm0 3c-0.554 0-1 0.446-1 1s0.446 1 1 1h10c0.554 0 1-0.446 1-1s-0.446-1-1-1zm0 3c-0.554 0-1 0.446-1 1s0.446 1 1 1h10c0.554 0 1-0.446 1-1s-0.446-1-1-1zm0 3c-0.554 0-1 0.446-1 1s0.446 1 1 1h10c0.554 0 1-0.446 1-1s-0.446-1-1-1zm0 5c-0.554 0-1 0.446-1 1s0.446 1 1 1h10c0.554 0 1-0.446 1-1s-0.446-1-1-1zm0 3c-0.554 0-1 0.446-1 1s0.446 1 1 1h10c0.554 0 1-0.446 1-1s-0.446-1-1-1zm0 3c-0.554 0-1 0.446-1 1s0.446 1 1 1h10c0.554 0 1-0.446 1-1s-0.446-1-1-1zm0 3c-0.554 0-1 0.446-1 1s0.446 1 1 1h10c0.554 0 1-0.446 1-1s-0.446-1-1-1zm0 3c-0.554 0-1 0.446-1 1s0.446 1 1 1h10c0.554 0 1-0.446 1-1s-0.446-1-1-1zm0 3c-0.554 0-1 0.446-1 1s0.446 1 1 1h10c0.554 0 1-0.446 1-1s-0.446-1-1-1zm0 3c-0.554 0-1 0.446-1 1s0.446 1 1 1h10c0.554 0 1-0.446 1-1s-0.446-1-1-1zm0 3c-0.554 0-1 0.446-1 1s0.446 1 1 1h10c0.554 0 1-0.446 1-1s-0.446-1-1-1zm0 3c-0.554 0-1 0.446-1 1s0.446 1 1 1h10c0.554 0 1-0.446 1-1s-0.446-1-1-1zm0 3c-0.554 0-1 0.446-1 1s0.446 1 1 1h10c0.554 0 1-0.446 1-1s-0.446-1-1-1zm0 3c-0.554 0-1 0.446-1 1s0.446 1 1 1h10c0.554 0 1-0.446 1-1s-0.446-1-1-1zm0 3c-0.554 0-1 0.446-1 1s0.446 1 1 1h10c0.554 0 1-0.446 1-1s-0.446-1-1-1zm0 3c-0.554 0-1 0.446-1 1s0.446 1 1 1h10c0.554 0 1-0.446 1-1s-0.446-1-1-1zm0 3c-0.554 0-1 0.446-1 1s0.446 1 1 1h10c0.554 0 1-0.446 1-1s-0.446-1-1-1zm0 3c-0.554 0-1 0.446-1 1s0.446 1 1 1h10c0.554 0 1-0.446 1-1s-0.446-1-1-1zm0 3c-0.554 0-1 0.446-1 1s0.446 1 1 1h10c0.554 0 1-0.446 1-1s-0.446-1-1-1zm0 3c-0.554 0-1 0.446-1 1s0.446 1 1 1h10c0.554 0 1-0.446 1-1s-0.446-1-1-1zm0 3c-0.554 0-1 0.446-1 1s0.446 1 1 1h10c0.554 0 1-0.446 1-1s-0.446-1-1-1zm0 3c-0.554 0-1 0.446-1 1s0.446 1 1 1h10c0.554 0 1-0.446 1-1s-0.446-1-1-1zm0 3c-0.554 0-1 0.446-1 1s0.446 1 1 1h10c0.554 0 1-0.446 1-1s-0.446-1-1-1zm0 3c-0.554 0-1 0.446-1 1s0.446 1 1 1h10c0.554 0 1-0.446 1-1s-0.446-1-1-1zm0 3c-0.554 0-1 0.446-1 1s0.446 1 1 1h10c0.554 0 1-0.446 1-1s-0.446-1-1-1zm0 3c-0.554 0-1 0.446-1 1s0.446 1 1 1h10c0.554 0 1-0.446 1-1s-0.446-1-1-1zm0 3c-0.554 0-1 0.446-1 1s0.446 1 1 1h10c0.554 0 1-0.446 1-1s-0.446-1-1-1zm0 3c-0.554 0-1 0.446-1 1s0.446 1 1 1h10c0.554 0 1-0.446 1-1s-0.446-1-1-1zm0 3c-0.554 0-1 0.446-1 1s0.446 1 1 1h10c0.554 0 1-0.446 1-1s-0.446-1-1-1zm0 3c-0.554 0-1 0.446-1 1s0.446 1 1 1h10c0.554 0 1-0.446 1-1s-0.446-1-1-1zm0 3c-0.554 0-1 0.446-1 1s0.446 1 1 1h10c0.554 0 1-0.446 1-1s-0.446-1-1-1zm0 3c-0.554 0-1 0.446-1 1s0.446 1 1 1h10c0.554 0 1-0.446 1-1s-0.446-1-1-1zm0 3c-0.554 0-1 0.446-1 1s0.446 1 1 1h10c0.554 0 1-0.446 1-1s-0.446-1-1-1zm0 3c-0.554 0-1 0.446-1 1s0.446 1 1 1h10c0.554 0 1-0.446 1-1s-0.446-1-1-1zm0 3c-0.554 0-1 0.446-1 1s0.446 1 1 1h10c0.554 0 1-0.446 1-1s-0.446-1-1-1z" fill="url(#a)"/>
<path transform="translate(0 924.36)" d="m3 2c-0.554 0-1 0.446-1 1s0.446 1 1 1h10c0.554 0 1-0.446 1-1s-0.446-1-1-1h-10zm0 3c-0.554 0-1 0.446-1 1s0.446 1 1 1h10c0.554 0 1-0.446 1-1s-0.446-1-1-1h-10zm0 3c-0.554 0-1 0.446-1 1s0.446 1 1 1h10c0.554 0 1-0.446 1-1s-0.446-1-1-1h-10zm0 3c-0.554 0-1 0.446-1 1s0.446 1 1 1h10c0.554 0 1-0.446 1-1s-0.446-1-1-1h-10zm0 3c-0.554 0-1 0.446-1 1s0.446 1 1 1h10c0.554 0 1-0.446 1-1s-0.446-1-1-1h-10zm0 3c-0.554 0-1 0.446-1 1s0.446 1 1 1h10c0.554 0 1-0.446 1-1s-0.446-1-1-1h-10zm0 3c-0.554 0-1 0.446-1 1s0.446 1 1 1h10c0.554 0 1-0.446 1-1s-0.446-1-1-1h-10zm0 3c-0.554 0-1 0.446-1 1s0.446 1 1 1h10c0.554 0 1-0.446 1-1s-0.446-1-1-1h-10zm0 3c-0.554 0-1 0.446-1 1s0.446 1 1 1h10c0.554 0 1-0.446 1-1s-0.446-1-1-1h-10zm0 5c-0.554 0-1 0.446-1 1s0.446 1 1 1h10c0.554 0 1-0.446 1-1s-0.446-1-1-1h-10zm0 3c-0.554 0-1 0.446-1 1s0.446 1 1 1h10c0.554 0 1-0.446 1-1s-0.446-1-1-1h-10zm0 3c-0.554 0-1 0.446-1 1s0.446 1 1 1h10c0.554 0 1-0.446 1-1s-0.446-1-1-1h-10zm0 3c-0.554 0-1 0.446-1 1s0.446 1 1 1h10c0.554 0 1-0.446 1-1s-0.446-1-1-1h-10zm0 3c-0.554 0-1 0.446-1 1s0.446 1 1 1h10c0.554 0 1-0.446 1-1s-0.446-1-1-1h-10zm0 3c-0.554 0-1 0.446-1 1s0.446 1 1 1h10c0.554 0 1-0.446 1-1s-0.446-1-1-1h-10zm0 3c-0.554 0-1 0.446-1 1s0.446 1 1 1h10c0.554 0 1-0.446 1-1s-0.446-1-1-1h-10zm0 3c-0.554 0-1 0.446-1 1s0.446 1 1 1h10c0.554 0 1-0.446 1-1s-0.446-1-1-1h-10zm0 3c-0.554 0-1 0.446-1 1s0.446 1 1 1h10c0.554 0 1-0.446 1-1s-0.446-1-1-1h-10zm0 3c-0.554 0-1 0.446-1 1s0.446 1 1 1h10c0.554 0 1-0.446 1-1s-0.446-1-1-1h-10zm0 3c-0.554 0-1 0.446-1 1s0.446 1 1 1h10c0.554 0 1-0.446 1-1s-0.446-1-1-1h-10zm0 3c-0.554 0-1 0.446-1 1s0.446 1 1 1h10c0.554 0 1-0.446 1-1s-0.446-1-1-1h-10zm0 3c-0.554 0-1 0.446-1 1s0.446 1 1 1h10c0.554 0 1-0.446 1-1s-0.446-1-1-1h-10zm0 3c-0.554 0-1 0.446-1 1s0.446 1 1 1h10c0.554 0 1-0.446 1-1s-0.446-1-1-1h-10zm0 3c-0.554 0-1 0.446-1 1s0.446 1 1 1h10c0.554 0 1-0.446 1-1s-0.446-1-1-1h-10zm0 3c-0.554 0-1 0.446-1 1s0.446 1 1 1h10c0.554 0 1-0.446 1-1s-0.446-1-1-1h-10zm0 3c-0.554 0-1 0.446-1 1s0.446 1 1 1h10c0.554 0 1-0.446 1-1s-0.446-1-1-1h-10zm0 3c-0.554 0-1 0.446-1 1s0.446 1 1 1h10c0.554 0 1-0.446 1-1s-0.446-1-1-1h-10zm0 3c-0.554 0-1 0.446-1 1s0.446 1 1 1h10c0.554 0 1-0.446 1-1s-0.446-1-1-1h-10zm0 3c-0.554 0-1 0.446-1 1s0.446 1 1 1h10c0.554 0 1-0.446 1-1s-0.446-1-1-1h-10zm0 3c-0.554 0-1 0.446-1 1s0.446 1 1 1h10c0.554 0 1-0.446 1-1s-0.446-1-1-1h-10zm0 3c-0.554 0-1 0.446-1 1s0.446 1 1 1h10c0.554 0 1-0.446 1-1s-0.446-1-1-1h-10zm0 3c-0.554 0-1 0.446-1 1s0.446 1 1 1h10c0.554 0 1-0.446 1-1s-0.446-1-1-1h-10zm0 3c-0.554 0-1 0.446-1 1s0.446 1 1 1h10c0.554 0 1-0.446 1-1s-0.446-1-1-1h-10zm0 3c-0.554 0-1 0.446-1 1s0.446 1 1 1h10c0.554 0 1-0.446 1-1s-0.446-1-1-1h-10zm0 3c-0.554 0-1 0.446-1 1s0.446 1 1 1h10c0.554 0 1-0.446 1-1s-0.446-1-1-1h-10zm0 3c-0.554 0-1 0.446-1 1s0.446 1 1 1h10c0.554 0 1-0.446 1-1s-0.446-1-1-1h-10zm0 3c-0.554 0-1 0.446-1 1s0.446 1 1 1h10c0.554 0 1-0.446 1-1s-0.446-1-1-1h-10zm0 3c-0.554 0-1 0.446-1 1s0.446 1 1 1h10c0.554 0 1-0.446 1-1s-0.446-1-1-1h-10zm0 3c-0.554 0-1 0.446-1 1s0.446 1 1 1h10c0.554 0 1-0.446 1-1s-0.446-1-1-1h-10zm0 3c-0.554 0-1 0.446-1 1s0.446 1 1 1h10c0.554 0 1-0.446 1-1s-0.446-1-1-1h-10zm0 3c-0.554 0-1 0.446-1 1s0.446 1 1 1h10c0.554 0 1-0.446 1-1s-0.446-1-1-1h-10z" fill-opacity=".19608"/>
</g>
</svg>
