<svg height="16" viewBox="0 0 16 16" width="16" xmlns="http://www.w3.org/2000/svg"><path d="m2 1c-.554 0-1 .446-1 1v6c0 .554.446 1 1 1h12c.554 0 1-.446 1-1v-6c0-.554-.446-1-1-1zm2 1h2v2h2v2h-2v2h-2v-2h-2v-2h2zm9 1c.55228 0 1 .44772 1 1s-.44772 1-1 1-1-.44772-1-1 .44772-1 1-1zm-2 2c.55228 0 1 .44772 1 1s-.44772 1-1 1-1-.44772-1-1 .44772-1 1-1zm-7 7v1c0 .55228.44772 1 1 1-.55228 0-1 .44772-1 1v1h1v-1h1v1h1v-1c0-.55228-.44772-1-1-1 .55228 0 1-.44772 1-1v-1h-1v1h-1v-1zm5 0v1 3h1v-1h1v1h1v-1c-.000834-.17579-.047991-.34825-.13672-.5.088728-.15175.13588-.32421.13672-.5v-1c0-.55228-.44772-1-1-1h-1zm1 1h1v1h-1z" fill="#fc9c9c"/></svg>
