<svg width="187" height="69" version="1.1" viewBox="0 0 187 69" xmlns="http://www.w3.org/2000/svg">
<path d="m91.912 19.51c-3.5233 0-6.278 1.1097-8.2676 3.3281-1.9911 2.2193-2.9844 5.1004-2.9844 8.6465 0 4.1636 1.0165 7.3207 3.0508 9.4707 2.0379 2.1497 4.7123 3.2227 8.0293 3.2227 1.7838 0 3.3686-0.15384 4.752-0.46289 1.3848-0.30784 2.3038-0.62367 2.7617-0.94336l0.13867-10.736c0-0.62388-1.6471-0.90785-3.4941-0.93945-1.847-0.02857-3.9609 0.35742-3.9609 0.35742v3.6055h2.125l-0.023438 1.6055c0 0.59532-0.59062 0.89453-1.7676 0.89453-1.1785 0-2.2182-0.4989-3.1211-1.4941-0.90498-0.99645-1.3555-2.4517-1.3555-4.3711 0-1.9233 0.43964-3.3428 1.3203-4.2578 0.87885-0.9141 2.0322-1.3711 3.4492-1.3711 0.59532 0 1.2107 0.095008 1.8516 0.29102 0.64121 0.19418 1.0686 0.37639 1.2871 0.54688 0.21667 0.17534 0.42435 0.25781 0.61914 0.25781 0.19388 0 0.50715-0.22698 0.94141-0.68555 0.43487-0.45735 0.82427-1.1501 1.168-2.0742 0.34218-0.92899 0.51367-1.6414 0.51367-2.1465 0-0.50111-0.011023-0.84501-0.033203-1.0273-0.48045-0.52573-1.3668-0.94394-2.6602-1.2539-1.2909-0.30906-2.7387-0.46289-4.3398-0.46289zm21.049 0c-3.2367 0-5.8788 1.0413-7.9258 3.1211-2.0464 2.0826-3.0703 5.1404-3.0703 9.1797 0 4.0369 1.0128 7.1085 3.0352 9.2129 2.0251 2.1026 4.6444 3.1543 7.8574 3.1543 3.2145 0 5.8383-1.0111 7.875-3.0332 2.0367-2.0263 3.0527-5.1142 3.0527-9.2656 0-4.1484-0.99433-7.2508-2.9863-9.2969-1.9884-2.05-4.6018-3.0723-7.8379-3.0723zm45.504 0c-3.2379 0-5.8792 1.0413-7.9277 3.1211-2.0461 2.0826-3.0684 5.1404-3.0684 9.1797 0 4.0369 1.0104 7.1085 3.0352 9.2129 2.0233 2.1026 4.6432 3.1543 7.8574 3.1543 3.213 0 5.8373-1.0111 7.873-3.0332 2.0364-2.0263 3.0547-5.1142 3.0547-9.2656 0-4.1484-0.9939-7.2508-2.9844-9.2969-1.9908-2.05-4.6031-3.0723-7.8398-3.0723zm-30.105 0.30859c-0.45888 0-0.82988 0.16637-1.1152 0.49609-0.28717 0.33489-0.42969 0.78715-0.42969 1.3594v20.584c0 1.053 0.58624 1.5781 1.752 1.5781h5.8652c7.1824-1e-6 10.773-4.2092 10.773-12.627 0-3.9348-0.94335-6.8151-2.832-8.6445-1.8853-1.83-4.6472-2.7461-8.2832-2.7461h-5.7305zm42.807 0c-0.38928 0-0.66468 0.52801-0.82422 1.5801-0.0687 0.50294-0.10157 1.0191-0.10157 1.543 0 0.52694 0.03287 1.0409 0.10157 1.543 0.15954 1.0548 0.43494 1.5801 0.82422 1.5801h4.1152v17.225c0 0.45462 1.1351 0.68555 3.3984 0.68555 2.2655 0 3.3965-0.23093 3.3965-0.68555v-17.225h4.0137c0.38868 0 0.66225-0.52528 0.82422-1.5801 0.0672-0.50202 0.10156-1.016 0.10156-1.543 1e-5 -0.52391-0.03436-1.04-0.10156-1.543-0.16197-1.0521-0.43554-1.5801-0.82422-1.5801h-14.924zm-58.291 6.2793c1.0989 0 2.0193 0.49244 2.7617 1.4746 0.74331 0.98339 1.1152 2.3913 1.1152 4.2207 0 1.8309-0.35955 3.2363-1.0801 4.2188-0.72053 0.98612-1.6597 1.4785-2.8145 1.4785-1.1554 0-2.0859-0.48441-2.7949-1.459-0.71019-0.97154-1.0644-2.3663-1.0644-4.1875 0-1.8173 0.37148-3.2302 1.1133-4.2363 0.74574-1.0053 1.6663-1.5098 2.7637-1.5098zm45.504 0c1.0989 0 2.0181 0.49244 2.7617 1.4746 0.74331 0.98339 1.1152 2.3913 1.1152 4.2207 0 1.8309-0.3612 3.2363-1.082 4.2188-0.71961 0.98612-1.6574 1.4785-2.8125 1.4785-1.1554 0-2.0888-0.48441-2.7969-1.459-0.70806-0.97154-1.0625-2.3663-1.0625-4.1875 0-1.8173 0.37179-3.2302 1.1133-4.2363 0.74453-1.0053 1.666-1.5098 2.7637-1.5098zm-24.977 0.23828h0.34375c1.4638 0 2.5334 0.33466 3.209 0.99805 0.6722 0.66157 1.0098 2.0859 1.0098 4.2715 0 2.1847-0.32289 3.7447-0.97656 4.6816-0.65214 0.9378-1.6059 1.4082-2.8652 1.4082-0.34218 0-0.54909-0.063339-0.61719-0.18945-0.06873-0.12672-0.10352-0.42897-0.10352-0.9082v-10.262z" fill="#fff"/>
<path d="m137.91 48.551v1.2109h0.85938v-1.2109h-0.85938zm-52.396 0.58984c-0.99736 0-1.7963 0.32424-2.3926 0.96484-0.59745 0.64576-0.89453 1.5712-0.89453 2.7773v3.0742c0 1.2329 0.31639 2.1765 0.94727 2.832 0.6333 0.66066 1.467 0.98828 2.5039 0.98828 0.78586 0 1.4321-0.16147 1.9414-0.48633 0.50993-0.32273 0.8592-0.67938 1.0488-1.0684v-3.6875h-3.0059v0.74805h2.1465v2.6934c-0.13766 0.30115-0.38143 0.55386-0.73242 0.76172-0.34978 0.2109-0.8171 0.31445-1.3984 0.31445-0.79619 0-1.4265-0.2632-1.8945-0.78711-0.46799-0.52786-0.70312-1.2936-0.70312-2.2988v-3.0918c0-0.96941 0.21778-1.7078 0.65234-2.2168 0.43578-0.51023 1.0297-0.76367 1.7812-0.76367 0.74271 0 1.3056 0.19019 1.6836 0.56641 0.38017 0.37925 0.58276 0.91542 0.61133 1.6113h0.79492l0.013672-0.041016c-0.024311-0.90802-0.30456-1.6179-0.83789-2.127-0.53484-0.50719-1.2907-0.76367-2.2656-0.76367zm7.6133 2.6641c-0.719 0-1.3111 0.22524-1.7715 0.67773-0.46222 0.45371-0.68069 0.96571-0.6582 1.5449l0.013672 0.041015 0.79688 0.007813c0-0.42696 0.14768-0.78487 0.44336-1.0781 0.2966-0.29508 0.67455-0.44141 1.1328-0.44141 0.4926 0 0.87459 0.15388 1.1523 0.45898 0.27198 0.30906 0.41016 0.73655 0.41016 1.2793v0.94531h-1.3418c-0.85666 0-1.5379 0.21084-2.0391 0.63477-0.50142 0.42392-0.75195 0.99502-0.75195 1.707 0 0.67372 0.17358 1.2075 0.51758 1.6035 0.34613 0.39445 0.83497 0.5918 1.4707 0.5918 0.45462 0 0.86723-0.12355 1.2383-0.37305 0.37166-0.24767 0.67317-0.56424 0.90625-0.94531 0 0.17413 0.01089 0.34527 0.03125 0.51758 0.02097 0.16927 0.053163 0.38614 0.095703 0.65234h0.88867c-0.062302-0.24767-0.10234-0.49621-0.12695-0.75391-0.02401-0.25436-0.037109-0.52051-0.037109-0.79492v-3.7676c0-0.80622-0.21809-1.4265-0.65234-1.8613-0.43669-0.43061-1.0083-0.64648-1.7188-0.64648zm7.1152 0c-0.45462 0-0.85109 0.11505-1.1875 0.3457-0.33519 0.23369-0.60486 0.56357-0.80664 0.99023l-0.074219-1.1934h-0.75195v7.6816h0.85352v-5.5293c0.11791-0.47346 0.31244-0.84655 0.58594-1.1191 0.27168-0.27107 0.63379-0.4082 1.082-0.4082 0.4689 0 0.83314 0.19466 1.0957 0.58789 0.26378 0.39323 0.39258 1.0508 0.39258 1.9707v4.498h0.85351v-4.6211-0.19922c0.0623-0.64455 0.23396-1.1785 0.51172-1.6055 0.27927-0.42696 0.66855-0.63672 1.166-0.63672 0.47285 0 0.83879 0.19223 1.0938 0.57422 0.25345 0.38138 0.38281 1.0443 0.38281 1.9863v4.502h0.85742v-4.4863c0-1.1332-0.18468-1.9728-0.55664-2.5195-0.37044-0.54548-0.89268-0.81836-1.5664-0.81836-0.48897 0-0.91182 0.1465-1.2598 0.43945-0.34796 0.29234-0.61537 0.69589-0.80469 1.207-0.148-0.55369-0.38151-0.966-0.69726-1.2383-0.31543-0.2732-0.70589-0.4082-1.1699-0.4082zm10.316 0c-0.74423-1e-6 -1.3797 0.32125-1.9082 0.96094-0.52725 0.64273-0.78906 1.4505-0.78906 2.4199v1.2754c0 0.96758 0.26259 1.762 0.7871 2.3828 0.52604 0.62206 1.2032 0.93359 2.0312 0.93359 0.5157 0 0.95833-0.090281 1.3242-0.26562 0.36679-0.17626 0.66658-0.41287 0.89844-0.70703l-0.34961-0.60547c-0.21728 0.27441-0.4784 0.4836-0.7832 0.63281-0.3048 0.14586-0.66987 0.2207-1.0898 0.2207-0.60443 0-1.0864-0.24489-1.4414-0.74023-0.35433-0.49412-0.53321-1.1138-0.53321-1.8574v-0.63867h4.3965v-0.84375c0-0.96667-0.22381-1.7371-0.66992-2.3105-0.44519-0.57253-1.0684-0.85742-1.873-0.85742zm9.4727 0c-0.74423-1e-6 -1.3782 0.32125-1.9082 0.96094-0.52603 0.64273-0.79101 1.4505-0.79101 2.4199v1.2754c0 0.96758 0.26241 1.762 0.78906 2.3828 0.52512 0.62206 1.2028 0.93359 2.0312 0.93359 0.51601 0 0.95639-0.090281 1.3223-0.26562 0.36741-0.17626 0.66822-0.41287 0.90039-0.70703l-0.34766-0.60547c-0.21972 0.27441-0.4811 0.4836-0.78711 0.63281-0.30389 0.14586-0.66639 0.2207-1.0879 0.2207-0.60656 0-1.0883-0.24489-1.4414-0.74023-0.35646-0.49412-0.5332-1.1138-0.5332-1.8574v-0.63867h4.3945v-0.84375c0-0.96667-0.22338-1.7371-0.66797-2.3105-0.44398-0.57253-1.0699-0.85742-1.873-0.85742zm6.8672 0c-0.45614 0-0.85274 0.12451-1.1894 0.36914-0.33975 0.24342-0.60962 0.5923-0.81445 1.043l-0.07031-1.2695h-0.76172v7.6816h0.85351v-5.4824c0.14617-0.47923 0.36569-0.85918 0.66016-1.1445 0.29325-0.28809 0.65767-0.42969 1.0938-0.42969 0.48622 0 0.85922 0.17765 1.1133 0.5332 0.25557 0.35555 0.38477 0.96807 0.38477 1.8457v4.6777h0.85937v-4.6855c0-1.0736-0.18381-1.866-0.55273-2.375-0.36497-0.50993-0.89-0.76367-1.5762-0.76367zm6.2539 0c-0.77674 0-1.386 0.32888-1.8242 0.98437-0.44186 0.65883-0.66211 1.5326-0.66211 2.6211l0.00196 1.0508c0 1.0031 0.21834 1.8072 0.65625 2.4102 0.43699 0.60413 1.0429 0.90625 1.8144 0.90625 0.41602 0 0.78387-0.091234 1.0996-0.27539 0.31695-0.18324 0.58484-0.4491 0.80273-0.79492v0.92969c0 0.75881-0.14785 1.3303-0.4414 1.7266-0.29235 0.39111-0.74301 0.58789-1.3535 0.58789-0.30359 0-0.59763-0.04082-0.88086-0.125-0.28565-0.081443-0.54279-0.19619-0.77344-0.3457l-0.23632 0.74805c0.27047 0.15164 0.57916 0.27315 0.92773 0.36523 0.34795 0.092075 0.67388 0.13867 0.97656 0.13867 0.84208 0 1.494-0.27297 1.9531-0.81055 0.45857-0.53971 0.68554-1.3009 0.68554-2.2852v-7.6895h-0.72265l-0.08399 1.0684c-0.21485-0.38533-0.48269-0.68758-0.80664-0.89453-0.32334-0.2109-0.70159-0.31641-1.1328-0.31641zm10.467 0c-0.45401 0-0.85062 0.12451-1.1895 0.36914-0.33914 0.24342-0.60902 0.5923-0.81445 1.043l-0.07031-1.2695h-0.75977v7.6816h0.85352v-5.4824c0.14556-0.47923 0.3663-0.85918 0.66016-1.1445 0.29295-0.28809 0.65797-0.42969 1.0937-0.42969 0.48775 0 0.85711 0.17765 1.1133 0.5332 0.25496 0.35555 0.38476 0.96807 0.38476 1.8457v4.6777h0.85742v-4.6855c0-1.0736-0.18081-1.866-0.54882-2.375-0.36588-0.50993-0.8939-0.76367-1.5801-0.76367zm6.4043 0c-0.74271-1e-6 -1.3778 0.32125-1.9062 0.96094-0.52724 0.64273-0.79101 1.4505-0.79101 2.4199v1.2754c0 0.96758 0.26334 1.762 0.78906 2.3828 0.52361 0.62206 1.2007 0.93359 2.0312 0.93359 0.5154 0 0.9567-0.090281 1.3223-0.26562 0.3668-0.17626 0.6667-0.41287 0.90039-0.70703l-0.34961-0.60547c-0.2194 0.27441-0.47958 0.4836-0.78711 0.63281-0.30359 0.14586-0.66597 0.2207-1.0859 0.2207-0.60717 0-1.089-0.24489-1.4434-0.74023-0.35464-0.49412-0.5332-1.1138-0.5332-1.8574v-0.63867h4.3965v-0.84375c0-0.96667-0.22369-1.7371-0.66797-2.3105-0.44551-0.57253-1.0709-0.85742-1.875-0.85742zm-12.113 0.14258v7.6816h0.85938v-7.6816h-0.85938zm-27.352 0.60938c0.53029 0 0.9445 0.20789 1.2441 0.62695 0.29781 0.41876 0.44531 0.94616 0.44531 1.5801v0.33008h-3.543c0.01429-0.71688 0.19281-1.3186 0.53711-1.8066 0.34401-0.48622 0.78217-0.73047 1.3164-0.73047zm9.4727 0c0.52998 0 0.94406 0.20789 1.2422 0.62695 0.29963 0.41876 0.44727 0.94616 0.44727 1.5801v0.33008h-3.543c0.0155-0.71688 0.19298-1.3186 0.53516-1.8066 0.3437-0.48622 0.7826-0.73047 1.3184-0.73047zm29.992 0c0.53089 0 0.94602 0.20789 1.2441 0.62695 0.29902 0.41876 0.44532 0.94616 0.44532 1.5801v0.33008h-3.543c0.01519-0.71688 0.19402-1.3186 0.53711-1.8066 0.34218-0.48622 0.78064-0.73047 1.3164-0.73047zm-16.686 0.015625c0.42119 0 0.77033 0.1246 1.0469 0.375 0.27684 0.25466 0.4967 0.58706 0.65625 0.99609v3.8047c-0.16593 0.39718-0.39 0.70872-0.67383 0.93359-0.28475 0.22488-0.63089 0.33594-1.043 0.33594-0.6014 0-1.0536-0.22975-1.3496-0.69531-0.29964-0.4613-0.44727-1.0819-0.44727-1.8613v-1.0508c0-0.84177 0.15149-1.527 0.45508-2.0527 0.30146-0.52482 0.75528-0.78516 1.3555-0.78516zm-40.057 3.3281h1.3652v1.6621c-0.15286 0.42089-0.40964 0.76752-0.77734 1.041-0.3671 0.27228-0.78783 0.40625-1.2598 0.40625-0.39262 0-0.69782-0.12824-0.91602-0.38867-0.2185-0.25952-0.32617-0.59591-0.32617-1.0059 0-0.48531 0.17262-0.89402 0.52148-1.2207 0.34795-0.32881 0.81215-0.49414 1.3926-0.49414z" fill="#e0e0e0"/>
<path d="m27 3c-3.0948 0.68801-6.1571 1.6452-9.0273 3.0898 0.06564 2.5344 0.23035 4.963 0.5625 7.4297-1.1147 0.71414-2.287 1.3281-3.3281 2.1641-1.0578 0.81382-2.1378 1.5912-3.0957 2.543-1.9136-1.2657-3.9389-2.454-6.0254-3.5039-2.2491 2.4205-4.3524 5.0317-6.0703 7.9551 1.2924 2.0908 2.6428 4.0523 4.0996 5.9121h0.041016v14.438 1.834 1.6699c0.03282 3.04e-4 0.06514 8.06e-4 0.097656 0.003906l11 1.0605c0.57617 0.05561 1.0282 0.52027 1.0684 1.0977l0.33789 4.8555 9.5957 0.68359 0.66016-4.4805c0.0857-0.58104 0.58415-1.0117 1.1719-1.0117h11.605c0.58742 0 1.0862 0.43068 1.1719 1.0117l0.66016 4.4805 9.5957-0.68359 0.33789-4.8555c0.04042-0.57739 0.49219-1.0417 1.0684-1.0977l10.996-1.0605c0.032519-3e-3 0.064836-0.003606 0.097656-0.003906v-1.4316l0.003906-0.001953v-16.508h0.041016c1.4571-1.8598 2.8066-3.8214 4.0996-5.9121-1.7173-2.9234-3.8232-5.5346-6.0723-7.9551-2.0859 1.0499-4.1118 2.2382-6.0254 3.5039-0.95756-0.95178-2.0363-1.7292-3.0957-2.543-1.0408-0.836-2.2136-1.4499-3.3262-2.1641 0.33124-2.4667 0.49656-4.8952 0.5625-7.4297-2.8706-1.4447-5.933-2.4018-9.0293-3.0898-1.2362 2.0777-2.367 4.3278-3.3516 6.5273-1.1675-0.1951-2.3391-0.26727-3.5137-0.28125v-0.0019532c-0.0082 0-0.016447 0.0019531-0.023437 0.0019532-0.0073 0-0.014194-0.0019532-0.021484-0.0019532v0.0019532c-1.1767 0.013979-2.3497 0.086153-3.5176 0.28125-0.98399-2.1996-2.1135-4.4497-3.3516-6.5273zm-22.863 45.904c0.0045599 1.063 0.019531 2.2271 0.019531 2.459 0 10.446 13.251 15.468 29.715 15.525h0.019531 0.019531c16.464-0.05774 29.711-5.0795 29.711-15.525 0-0.23612 0.014661-1.3954 0.019531-2.459l-9.8867 0.95312-0.3418 4.8809c-0.04102 0.58833-0.50933 1.0574-1.0977 1.0996l-11.717 0.83594c-0.02857 0.0021-0.055724 0.003906-0.083984 0.003906-0.58225 0-1.0859-0.42704-1.1719-1.0117l-0.67188-4.5566h-9.5586l-0.67188 4.5566c-0.09025 0.61325-0.63836 1.0531-1.2559 1.0078l-11.717-0.83594c-0.58833-0.04224-1.0566-0.51128-1.0977-1.0996l-0.3418-4.8809-9.8906-0.95312z" fill="#478cbf"/>
<path d="m18.299 29.246c-3.6594 0-6.6289 2.9669-6.6289 6.627 0 3.6625 2.9695 6.6289 6.6289 6.6289 3.6613 0 6.627-2.9664 6.627-6.6289 0-3.66-2.9657-6.627-6.627-6.627zm31.186 0c-3.6619 0-6.6289 2.9669-6.6289 6.627 0 3.6625 2.967 6.6289 6.6289 6.6289 3.6591 0 6.627-2.9664 6.627-6.6289 0-3.66-2.9678-6.627-6.627-6.627zm-15.594 3.8789c-1.1785 0-2.1348 0.86781-2.1348 1.9375v6.1035c0 1.0706 0.95628 1.9395 2.1348 1.9395s2.1348-0.86885 2.1348-1.9395v-6.1035c0-1.0697-0.95628-1.9375-2.1348-1.9375z" fill="#f6f6f6"/>
<path d="m18.932 31.865c-2.4299 0-4.4004 1.9711-4.4004 4.4004s1.9705 4.3984 4.4004 4.3984c2.4311 0 4.4004-1.9691 4.4004-4.3984s-1.9693-4.4004-4.4004-4.4004zm29.916 0c-2.4293 0-4.3984 1.9711-4.3984 4.4004s1.9691 4.3984 4.3984 4.3984c2.4317 0 4.4004-1.9691 4.4004-4.3984s-1.9687-4.4004-4.4004-4.4004z" fill="#414042"/>
</svg>
