<svg width="128" height="128" version="1.1" viewBox="0 0 128 128" xmlns="http://www.w3.org/2000/svg">
<g transform="translate(0 -924.36)">
<path transform="translate(0 924.36)" d="m64 4a8 8 0 0 0 -8 8v12a8 8 0 0 0 8 8 8 8 0 0 0 8 -8v-12a8 8 0 0 0 -8 -8zm-36.887 15.23a8 8 0 0 0 -5.5391 2.3438 8 8 0 0 0 0 11.312l8.4844 8.4863a8 8 0 0 0 11.314 0 8 8 0 0 0 0 -11.314l-8.4863-8.4844a8 8 0 0 0 -5.7734 -2.3438zm73.539 0a8 8 0 0 0 -5.5391 2.3438l-8.4863 8.4844a8 8 0 0 0 0 11.314 8 8 0 0 0 11.314 0l8.4844-8.4863a8 8 0 0 0 0 -11.312 8 8 0 0 0 -5.7734 -2.3438zm-36.652 20.77a24 24 0 0 0 -24 24 24 24 0 0 0 24 24 24 24 0 0 0 24 -24 24 24 0 0 0 -24 -24zm-52 16a8 8 0 0 0 -8 8 8 8 0 0 0 8 8h12a8 8 0 0 0 8 -8 8 8 0 0 0 -8 -8h-12zm92 0a8 8 0 0 0 -8 8 8 8 0 0 0 8 8h12a8 8 0 0 0 8 -8 8 8 0 0 0 -8 -8h-12zm-68.4 28.285a8 8 0 0 0 -5.541 2.3418l-8.4844 8.4863a8 8 0 0 0 0 11.312 8 8 0 0 0 11.312 0l8.4863-8.4844a8 8 0 0 0 0 -11.314 8 8 0 0 0 -5.7734 -2.3418zm56.568 0a8 8 0 0 0 -5.541 2.3418 8 8 0 0 0 0 11.314l8.4863 8.4844a8 8 0 0 0 11.312 0 8 8 0 0 0 0 -11.312l-8.4844-8.4863a8 8 0 0 0 -5.7734 -2.3418zm-28.168 11.715a8 8 0 0 0 -8 8v12a8 8 0 0 0 8 8 8 8 0 0 0 8 -8v-12a8 8 0 0 0 -8 -8z" fill="#f7f5cf"/>
</g>
</svg>
