<svg height="16" viewBox="0 0 16 16" width="16" xmlns="http://www.w3.org/2000/svg"><path d="m8 2c-2.5567 0-5.7907 1.9477-6.9551 5.7051a1.0001 1.0001 0 0 0 -.00586.57031c1.1244 3.9354 4.4609 5.7246 6.9609 5.7246s5.8365-1.7892 6.9609-5.7246a1.0001 1.0001 0 0 0 0-.55273c-1.1003-3.7876-4.4066-5.7227-6.9609-5.7227zm0 2a4 4 0 0 1 4 4 4 4 0 0 1 -4 4 4 4 0 0 1 -4-4 4 4 0 0 1 4-4zm0 2a2 2 0 0 0 -2 2 2 2 0 0 0 2 2 2 2 0 0 0 2-2 2 2 0 0 0 -2-2z" fill="#e0e0e0" fill-opacity=".99608" fill-rule="evenodd"/></svg>