<svg width="16" height="16" version="1.1" viewBox="0 0 16 16" xmlns="http://www.w3.org/2000/svg">
<g transform="translate(0 -1036.4)">
<path transform="translate(0 1036.4)" d="m7 3a1 1 0 0 0 -0.12695 0.0078125c-1.0208 0.043703-1.957 0.60248-2.4707 1.4922-0.5351 0.9268-0.5351 2.0732 0 3 0.5351 0.9268 1.5275 1.5 2.5977 1.5h2c0.35887 0 0.6858 0.1892 0.86523 0.5 0.17943 0.3108 0.17943 0.6892 0 1-0.17943 0.3108-0.50637 0.5-0.86523 0.5h-3a1 1 0 0 0 -1 1 1 1 0 0 0 1 1h3c1.0702 0 2.0626-0.5732 2.5977-1.5s0.5351-2.0732 0-3-1.5275-1.5-2.5977-1.5h-2c-0.35887 0-0.6858-0.1892-0.86523-0.5s-0.17943-0.6892 0-1 0.50637-0.5 0.86523-0.5h3a1 1 0 0 0 1 -1 1 1 0 0 0 -1 -1h-3z" color="#000000" color-rendering="auto" dominant-baseline="auto" fill="#e0e0e0" image-rendering="auto" shape-rendering="auto" solid-color="#000000" style="filter-blend-mode:normal;filter-gaussianBlur-deviation:0;font-feature-settings:normal;font-variant-alternates:normal;font-variant-caps:normal;font-variant-east-asian:normal;font-variant-ligatures:normal;font-variant-numeric:normal;font-variant-position:normal;isolation:auto;mix-blend-mode:normal;shape-padding:0;text-decoration-color:#000000;text-decoration-line:none;text-decoration-style:solid;text-indent:0;text-orientation:mixed;text-transform:none;white-space:normal"/>
</g>
</svg>
