<svg width="16" height="16" version="1.1" viewBox="0 0 16 16" xmlns="http://www.w3.org/2000/svg">
<g transform="translate(0 -1036.4)">
<path transform="translate(0,1036.4)" d="m9.5 4e-5c-1.5691 0.0017903-2.8718 1.2125-2.9883 2.7773-0.55103-0.49952-1.268-0.77655-2.0117-0.77734-1.6569 0-3 1.3431-3 3 0.00179 1.2698 0.80282 2.4009 2 2.8242v2.1758c0 0.554 0.44599 1 1 1h6c0.55401 0 0.9853-0.4462 1-1v-1l3 2v-6l-3 2v-1.7695c0.63486-0.56783 0.99842-1.3788 1-2.2305 0-1.6569-1.3431-3-3-3zm-6 12v4h1v-4zm3 0v4h1v-1h1c0.55228 0 1-0.44772 1-1v-1c0-0.55228-0.44824-1.024-1-1h-1zm5 0c-0.55228 0-1 0.44772-1 1v2c0 0.55228 0.44772 1 1 1h1c0.55228 0 1-0.44772 1-1v-2c0-0.55228-0.44772-1-1-1zm-4 1h1v1h-1zm4 0h1v2h-1z" fill="#fc9c9c"/>
</g>
</svg>
