<svg width="16" height="16" version="1.1" viewBox="0 0 16 16" xmlns="http://www.w3.org/2000/svg">
<path d="m2.8642 9.9954v6h2a3 3 0 0 0 3-3v-3h-2v3a1 1 0 0 1-1 1v-4z" fill="#e0e0e0"/>
<path d="m10.864 9.9954a2 2 0 0 0-1.7324 1 2 2 0 0 0 0 2 2 2 0 0 0 1.7324 1h-2v2h2a2 2 0 0 0 1.7324-1 2 2 0 0 0 0-2 2 2 0 0 0-1.7324-1h2v-2z" fill="#e0e0e0"/>
<path d="m2 1c-0.55226 1e-4 -0.99994 0.4477-1 1v7h2v-6h6v3c0 0.554 0.44599 1 1 1h3v2h2v-3l-5-5z" fill="#e0e0e0"/>
<path d="m4 6h2v1h-2z" fill="#ffeb70"/>
<path d="m8 8h4v1h-4z" fill="#9dff70"/>
<path d="m7 6h1v1h-1z" fill="#70deff"/>
<path d="m4 4h3v1h-3z" fill="#ff7070"/>
<path d="m4 8h3v1h-3z" fill="#70ffb9"/>
</svg>
