<svg width="16" height="12" version="1.1" viewBox="0 0 16 12" xmlns="http://www.w3.org/2000/svg">
<g transform="translate(0 -1040.4)">
<path d="m5 1041.4a3 3 0 0 0 -3 3 3 3 0 0 0 3 3h2v-6h-2zm0 2v2a1 1 0 0 1 -1 -1 1 1 0 0 1 1 -1z" fill="#ee7991"/>
<path d="m3 1046.4a3 3 0 0 0 -3 3 3 3 0 0 0 3 3h2v-6h-2zm0 2v2a1 1 0 0 1 -1 -1 1 1 0 0 1 1 -1z" fill="#f39bad"/>
<path d="m13 1043.4a3 3 0 0 1 3 3h-2a1 1 0 0 0 -1 -1v-2z" fill="#ee7991"/>
<path d="m13 1049.4a3 3 0 0 0 3 -3h-2a1 1 0 0 1 -1 1v2z" fill="#ee7991"/>
<rect transform="matrix(0,1,1,0,0,0)" x="1041.4" y="11" width="8" height="2" fill="#ee7991"/>
<path d="m8 1044.4v8h2a3 3 0 0 0 3 -3 3 3 0 0 0 -3 -3v-2h-2zm2 4a1 1 0 0 1 1 1 1 1 0 0 1 -1 1v-2z" fill="#f39bad"/>
</g>
</svg>
