<svg width="16" height="16" version="1.1" viewBox="0 0 16 16" xmlns="http://www.w3.org/2000/svg">
<g transform="translate(0 -1036.4)">
<path transform="translate(0 1036.4)" d="m7 1l-0.5 2h3l-0.5-2h-2zm-3.2422 1.3438l-0.65625 0.65625h1.75l-1.0938-0.65625zm8.4844 0l-1.0957 0.65625h1.752l-0.65625-0.65625z" fill="#ff7070"/>
<path transform="translate(0 1036.4)" d="m3.1016 3l-0.75781 0.75781 0.74414 1.2422h9.8242l0.74414-1.2422-0.75781-0.75781h-1.752l-0.89844 0.53906a5 5 0 0 0 -0.68555 -0.28516l-0.0625-0.25391h-3l-0.064453 0.25781a5 5 0 0 0 -0.68945 0.2793l-0.89453-0.53711h-1.75z" fill="#ffeb70"/>
<path transform="translate(0 1036.4)" d="m3.0879 5l0.45117 0.75195a5 5 0 0 0 -0.28516 0.68555l-2.2539 0.5625h5.2695a2 2 0 0 1 1.7305 -1 2 2 0 0 1 1.7285 1h5.2715l-2.2578-0.56445a5 5 0 0 0 -0.2793 -0.6875l0.44922-0.74805h-9.8242z" fill="#9dff70"/>
<path transform="translate(0 1036.4)" d="m1 7v2h5.2715a2 2 0 0 1 -0.27148 -1 2 2 0 0 1 0.26953 -1h-5.2695zm8.7285 0a2 2 0 0 1 0.27148 1 2 2 0 0 1 -0.26953 1h5.2695v-2h-5.2715z" fill="#70ffb9"/>
<path transform="translate(0 1036.4)" d="m1 9l2.2578 0.56445a5 5 0 0 0 0.2793 0.6875l-0.44922 0.74805h9.8242l-0.45117-0.75195a5 5 0 0 0 0.28516 -0.68555l2.2539-0.5625h-5.2695a2 2 0 0 1 -1.7305 1 2 2 0 0 1 -1.7285 -1h-5.2715z" fill="#70deff"/>
<path transform="translate(0 1036.4)" d="m3.1016 13l0.65625 0.65625 1.0957-0.65625h-1.752zm3.3984 0l0.5 2h2l0.5-2h-3zm4.6484 0l1.0938 0.65625 0.65625-0.65625h-1.75z" fill="#ff70ac"/>
<path transform="translate(0 1036.4)" d="m3.0879 11l-0.74414 1.2422 0.75781 0.75781h1.752l0.89844-0.53906a5 5 0 0 0 0.68555 0.28516l0.0625 0.25391h3l0.064453-0.25781a5 5 0 0 0 0.6875 -0.2793l0.89648 0.53711h1.75l0.75781-0.75781-0.74414-1.2422h-9.8242z" fill="#9f70ff"/>
</g>
</svg>
