<svg width="16" height="16" version="1.1" viewBox="0 0 16 16" xmlns="http://www.w3.org/2000/svg">
<path d="m6 1c-0.55401 0-1 0.44599-1 1v3c0 0.55401 0.44599 1 1 1h1v0.99023a1.0001 1.0001 0 0 0 -0.31641 0.0625l-2.0508 0.68359-0.68359-2.0508a1.0001 1.0001 0 0 0 -0.99023 -0.69727 1.0001 1.0001 0 0 0 -0.9082 1.3281l1 3a1.0001 1.0001 0 0 0 1.2656 0.63281l1.6836-0.56055v0.61133c0 0.04088 0.018715 0.07566 0.023437 0.11523l-4.5781 3.0527a1.0001 1.0001 0 1 0 1.1094 1.6641l5.0566-3.3711 1.4941 2.9863a1.0001 1.0001 0 0 0 1.2109 0.50195l3-1a1.0001 1.0001 0 1 0 -0.63281 -1.8965l-2.1777 0.72461-0.97461-1.9512c0.2759-0.17764 0.46875-0.47227 0.46875-0.82617v-1h1.3828l0.72266 1.4473a1.0001 1.0001 0 1 0 1.7891 -0.89453l-1-2a1.0001 1.0001 0 0 0 -0.89453 -0.55273h-3v-1h1c0.55401 0 1-0.44599 1-1v-3c0-0.55401-0.44599-1-1-1zm0 2h1v2h-1z" fill="#fc9c9c" fill-opacity=".99608"/>
</svg>
