<svg width="16" height="16" version="1.1" viewBox="0 0 16 16" xmlns="http://www.w3.org/2000/svg">
<g transform="translate(0 -1036.4)">
<path transform="scale(1,-1)" d="m10.828-1039.5a4 4 0 0 1 -2.8284 1.1716 4 4 0 0 1 -2.8284 -1.1716" fill="none" stroke="#e0e0e0" stroke-linecap="round" stroke-linejoin="round" stroke-width="2"/>
<ellipse cx="8" cy="1047.4" rx="3.6445" ry="1.6348" fill="none" stroke-width="0"/>
<circle cx="8" cy="1047.4" r="4" fill="#e0e0e0" stroke-width="0"/>
<path d="m5 1047.4h-3" fill="none" stroke="#e0e0e0" stroke-linecap="round" stroke-width="2"/>
<path d="m10 1047.4h4" fill="none" stroke="#e0e0e0" stroke-linecap="round" stroke-width="2"/>
<path d="m6 1045.4c-2 0-3-2-3-3" fill="none" stroke="#e0e0e0" stroke-linecap="round" stroke-width="2"/>
<path d="m10 1045.4c2 0 3-2 3-3" fill="none" stroke="#e0e0e0" stroke-linecap="round" stroke-width="2"/>
<path d="m6 1049.4c-1 0-2 1-3 2" fill="none" stroke="#e0e0e0" stroke-linecap="round" stroke-width="2"/>
<path d="m10 1049.4c1 0 2 1 3 2" fill="none" stroke="#e0e0e0" stroke-linecap="round" stroke-width="2"/>
<circle cx="8" cy="1043.4" r="2" fill="#e0e0e0"/>
</g>
</svg>
