<svg width="16" height="16" version="1.1" viewBox="0 0 16 16" xmlns="http://www.w3.org/2000/svg">
<g transform="translate(0 -1036.4)">
<path transform="translate(0 1036.4)" d="m8 1a1 1 0 0 0 -1 1v9.5859l-1.293-1.293a1 1 0 0 0 -0.7207 -0.29102 1 1 0 0 0 -0.69336 0.29102 1 1 0 0 0 0 1.4141l3 3a1.0001 1.0001 0 0 0 0.0039062 0.003907 1 1 0 0 0 0.050781 0.044921 1.0001 1.0001 0 0 0 0.03125 0.027344 1 1 0 0 0 0.048828 0.035156 1.0001 1.0001 0 0 0 0.023438 0.015625 1 1 0 0 0 0.076172 0.044922 1.0001 1.0001 0 0 0 0.0058593 0.003906 1 1 0 0 0 0.013672 0.007813 1.0001 1.0001 0 0 0 0.078125 0.035156 1 1 0 0 0 0.074219 0.025391 1.0001 1.0001 0 0 0 0.025391 0.009766 1 1 0 0 0 0.039062 0.009765 1.0001 1.0001 0 0 0 0.068359 0.013672 1.0001 1.0001 0 0 0 0.097656 0.011719 1.0001 1.0001 0 0 0 0.0078125 0 1 1 0 0 0 0.0625 0.003906 1 1 0 0 0 0.015625 -0.001953 1.0001 1.0001 0 0 0 0.083984 -0.003906 1 1 0 0 0 0.015625 -0.001953 1.0001 1.0001 0 0 0 0.083984 -0.013672 1.0001 1.0001 0 0 0 0.052734 -0.013672 1 1 0 0 0 0.058594 -0.015625 1.0001 1.0001 0 0 0 0.078125 -0.029297 1 1 0 0 0 0.013672 -0.00586 1.0001 1.0001 0 0 0 0.076172 -0.037109 1 1 0 0 0 0.013672 -0.007812 1.0001 1.0001 0 0 0 0.072266 -0.044922 1 1 0 0 0 0.011719 -0.007813 1.0001 1.0001 0 0 0 0.068359 -0.052734 1 1 0 0 0 0.011719 -0.009766 1.0001 1.0001 0 0 0 0.050781 -0.046875l0.0097657-0.011719 2.9902-2.9883a1 1 0 0 0 0 -1.4141 1 1 0 0 0 -1.4141 0l-1.293 1.293v-9.5859a1 1 0 0 0 -1 -1z" color="#000000" color-rendering="auto" dominant-baseline="auto" fill="#68b6ff" fill-rule="evenodd" image-rendering="auto" shape-rendering="auto" solid-color="#000000" style="filter-blend-mode:normal;filter-gaussianBlur-deviation:0;font-feature-settings:normal;font-variant-alternates:normal;font-variant-caps:normal;font-variant-east-asian:normal;font-variant-ligatures:normal;font-variant-numeric:normal;font-variant-position:normal;isolation:auto;mix-blend-mode:normal;shape-padding:0;text-decoration-color:#000000;text-decoration-line:none;text-decoration-style:solid;text-indent:0;text-orientation:mixed;text-transform:none;white-space:normal"/>
</g>
</svg>
