<svg width="16" height="16" version="1.1" viewBox="0 0 16 16" xmlns="http://www.w3.org/2000/svg" xmlns:xlink="http://www.w3.org/1999/xlink">
<defs>
<linearGradient id="a" x1="9" x2="9" y1="1037.4" y2="1051.4" gradientTransform="translate(0 -1036.4)" gradientUnits="userSpaceOnUse">
<stop stop-color="#ff8484" offset="0"/>
<stop stop-color="#e1dc7a" offset=".5"/>
<stop stop-color="#84ffb1" offset="1"/>
</linearGradient>
</defs>
<g transform="translate(0 -1036.4)">
<path transform="translate(0 1036.4)" d="m2 1v8h2v-2h2v-2h-2v-2h3v-2zm6 0 2 4-2 4h2l1-2 1 2h2l-2-4 2-4h-2l-1 2-1-2zm-6 9v1h2v-1zm2 1v1h-2v-1h-1v4h1v-2h2v2h1v-4zm2-1v5h1v-4h1v4h1v-4h1v-1zm4 1v4h1v-4zm2-1v5h1v-2h2v-3zm1 1h1v1h-1z" fill="url(#a)"/>
</g>
</svg>
