<svg width="16" height="16" version="1.1" viewBox="0 0 16 16" xmlns="http://www.w3.org/2000/svg">
<g transform="translate(0 -1036.4)">
<path transform="translate(0 1036.4)" d="m8 1a1 1 0 0 0 -1 1v4.8828l-3.5527-1.7773a1 1 0 0 0 -0.48438 -0.10352 1 1 0 0 0 -0.85742 0.55078 1 1 0 0 0 0.44727 1.3418l3.2109 1.6055-3.2109 1.6055a1 1 0 0 0 -0.44727 1.3418 1 1 0 0 0 1.3418 0.44726l3.5527-1.7773v3.8828a1 1 0 0 0 1 1 1 1 0 0 0 1 -1v-3.8828l3.5527 1.7773a1 1 0 0 0 1.3418 -0.44726 1 1 0 0 0 -0.44726 -1.3418l-3.2109-1.6055 3.2109-1.6055a1 1 0 0 0 0.44726 -1.3418 1 1 0 0 0 -0.88672 -0.55273 1 1 0 0 0 -0.45508 0.10547l-3.5527 1.7773v-4.8828a1 1 0 0 0 -1 -1z" color="#000000" color-rendering="auto" dominant-baseline="auto" fill="#fc9c9c" fill-rule="evenodd" image-rendering="auto" shape-rendering="auto" solid-color="#000000" style="filter-blend-mode:normal;filter-gaussianBlur-deviation:0;font-feature-settings:normal;font-variant-alternates:normal;font-variant-caps:normal;font-variant-east-asian:normal;font-variant-ligatures:normal;font-variant-numeric:normal;font-variant-position:normal;isolation:auto;mix-blend-mode:normal;shape-padding:0;text-decoration-color:#000000;text-decoration-line:none;text-decoration-style:solid;text-indent:0;text-orientation:mixed;text-transform:none;white-space:normal"/>
</g>
</svg>
