<svg width="16" height="16" version="1.1" viewBox="0 0 16 16" xmlns="http://www.w3.org/2000/svg">
<g transform="translate(0 -1036.4)" fill="#e0e0e0">
<path d="m7 1037.4v2 4h-4-1-1v2 4h1 1v-4h4v4h-4c-2.34e-5 0 0 0.446 0 1s-2.34e-5 1 0 1h4 1 1v-2-4h4 1 1v-2-4h-1-1v4h-4v-4h4c2.3e-5 0 0-0.446 0-1s2.3e-5 -1 0-1h-4-1-1z" fill-opacity=".39216"/>
<rect x="1" y="1049.4" width="2" height="2" rx="2.5" ry="4.2249e-5"/>
<rect x="1" y="1043.4" width="2" height="2" rx="2.5" ry="4.225e-5"/>
<rect x="13" y="1037.4" width="2" height="2" rx="2.5" ry="4.225e-5"/>
<rect x="7" y="1049.4" width="2" height="2" rx="2.5" ry="4.225e-5"/>
<rect x="7" y="1037.4" width="2" height="2" rx="2.5" ry="4.225e-5"/>
<rect x="7" y="1043.4" width="2" height="2" rx="2.5" ry="4.225e-5"/>
<rect x="13" y="1043.4" width="2" height="2" rx="2.5" ry="4.225e-5"/>
</g>
</svg>
