<svg width="16" height="12" version="1.1" viewBox="0 0 16 12" xmlns="http://www.w3.org/2000/svg">
<g transform="translate(0 -1040.4)" fill="#adf18f">
<path d="m10 1050.4a3 3 0 0 0 3 -3h-2a1 1 0 0 1 -1 1v2z"/>
<path d="m10 1044.4a3 3 0 0 1 3 3h-2a1 1 0 0 0 -1 -1v-2z"/>
<rect transform="scale(-1)" x="-10" y="-1052.4" width="2" height="8"/>
<rect y="1046.4" width="2" height="3.9999"/>
<rect x="3" y="1044.4" width="2" height="6"/>
<path d="m5 1044.4a3 3 0 0 1 3 3h-2a1 1 0 0 0 -1 -1v-2z"/>
<rect x="6" y="1047.4" width="2" height="3"/>
<rect y="1042.4" width="2" height="2"/>
<rect transform="scale(1,-1)" x="13" y="-1047.4" width="2" height="5"/>
<rect transform="scale(1,-1)" x="15" y="-1046.4" width="1" height="2"/>
<path d="m16 1050.4a3 3 0 0 1 -3 -3h2a1 1 0 0 0 1 1v2z"/>
</g>
</svg>
