<svg width="16" height="16" version="1.1" viewBox="0 0 16 16" xmlns="http://www.w3.org/2000/svg">
<g transform="translate(0 -1036.4)">
<path transform="translate(0 1036.4)" d="m7.9824 1a1.0001 1.0001 0 0 0 -0.81445 0.44531l-4.7012 7.0527c-0.80117 0.58197-1.3801 1.3563-1.4492 2.3145a1.0001 1.0001 0 0 0 -0.017578 0.1875c0 0.21449 0.033976 0.41628 0.082031 0.61328 0.0071983 0.028314 0.015306 0.055972 0.023438 0.083985 0.053631 0.19149 0.1274 0.37452 0.2207 0.54883 0.19678 0.36764 0.47105 0.69651 0.80273 0.98633 0.007988 0.007025 0.013442 0.016473 0.021484 0.023437 0.016953 0.014679 0.03747 0.026532 0.054688 0.041016 0.10299 0.086112 0.21259 0.16531 0.32422 0.24414 0.23883 0.16992 0.49083 0.33075 0.76953 0.4707 0.0025295 0.00127 0.0052799 0.002638 0.0078125 0.003906 0.001313 6.58e-4 0.0025928 0.001296 0.0039063 0.001953 0.0085785 0.00429 0.018732 0.007456 0.027344 0.011719 0.26499 0.13103 0.55174 0.24596 0.84961 0.35156 0.10487 0.037634 0.21202 0.071147 0.32031 0.10547 0.072945 0.022902 0.1402 0.050715 0.21484 0.072266 0.16777 0.04843 0.34161 0.086385 0.51367 0.12695 0.093562 0.021905 0.18185 0.048745 0.27734 0.068359 0.010733 0.002205 0.022447 0.003684 0.033203 0.00586 0.34623 0.071177 0.69974 0.12196 1.0566 0.16211 0.057889 0.006228 0.11544 0.01213 0.17383 0.017578 0.81052 0.079498 1.6348 0.079498 2.4453 0 0.058387-0.005448 0.11594-0.01135 0.17383-0.017578 0.3569-0.040146 0.71041-0.090932 1.0566-0.16211 0.010948-0.002251 0.022269-0.003578 0.033203-0.00586 0.095491-0.019614 0.18378-0.046454 0.27734-0.068359 0.17206-0.040568 0.3459-0.078523 0.51367-0.12695 0.074642-0.021551 0.1419-0.049364 0.21484-0.072266 0.10829-0.034322 0.21544-0.067835 0.32031-0.10547 0.29787-0.1056 0.58462-0.22053 0.84961-0.35156 0.009951-0.00492 0.021348-0.008715 0.03125-0.013672 0.002626-0.001315 0.005189-0.002588 0.007813-0.003906 0.2787-0.13995 0.5307-0.30078 0.76953-0.4707 0.11163-0.07883 0.22123-0.15803 0.32422-0.24414 0.017218-0.014484 0.037734-0.026337 0.054687-0.041016 0.008042-0.006964 0.013497-0.016412 0.021485-0.023437 0.33169-0.28982 0.60596-0.61869 0.80273-0.98633 0.093299-0.17431 0.16707-0.35733 0.2207-0.54883 0.008132-0.028013 0.016239-0.055671 0.023438-0.083985 0.048055-0.197 0.082031-0.39879 0.082031-0.61328a1.0001 1.0001 0 0 0 -0.017578 -0.18164 1.0001 1.0001 0 0 0 -0.001953 -0.017578c-0.073081-0.95265-0.64941-1.7232-1.4473-2.3027l-4.7012-7.0527a1.0001 1.0001 0 0 0 -0.84961 -0.44531zm-0.98242 4.3027v1.7461c-0.43911 0.033461-0.86366 0.087835-1.2734 0.16406l1.2734-1.9102zm2 0l1.2734 1.9102c-0.40978-0.076228-0.83432-0.1306-1.2734-0.16406v-1.7461zm-2 3.748v1.9492a1.0001 1.0001 0 1 0 2 0v-1.9492c1.1126 0.10487 2.0951 0.37277 2.7949 0.72266 0.12146 0.060728 0.20622 0.12218 0.30664 0.18359l0.80078 1.2012c-0.032965 0.14677-0.089654 0.30658-0.30469 0.51758-0.051464 0.049149-0.10034 0.098137-0.16406 0.14844-0.045193 0.035312-0.091373 0.070148-0.14258 0.10547-0.11245 0.07827-0.24511 0.15838-0.39062 0.23633-0.075428 0.040204-0.1553 0.078371-0.23828 0.11719-0.16195 0.075482-0.33452 0.14662-0.52148 0.21289-0.070588 0.025324-0.14454 0.048409-0.21875 0.072265-0.23425 0.074473-0.48077 0.14392-0.74414 0.20117-0.021343 0.004579-0.041038 0.011189-0.0625 0.015625-0.2559 0.05368-0.53101 0.090517-0.80859 0.125-0.856 0.10229-1.7573 0.10229-2.6133 0-0.27759-0.034483-0.5527-0.07132-0.80859-0.125-0.021462-0.004436-0.041156-0.011046-0.0625-0.015625-0.26337-0.057254-0.50989-0.1267-0.74414-0.20117-0.074211-0.023856-0.14816-0.046941-0.21875-0.072265-0.18697-0.066266-0.35954-0.13741-0.52148-0.21289-0.082979-0.038816-0.16285-0.076983-0.23828-0.11719-0.14552-0.077951-0.27818-0.15806-0.39062-0.23633-0.051205-0.035321-0.097386-0.070157-0.14258-0.10547-0.06372-0.050301-0.1126-0.099289-0.16406-0.14844-0.21503-0.21099-0.27173-0.37081-0.30469-0.51758l0.80078-1.2012c0.10043-0.061415 0.18518-0.12287 0.30664-0.18359 0.69978-0.34989 1.6823-0.61778 2.7949-0.72266z" color="#000000" color-rendering="auto" dominant-baseline="auto" fill="#fc9c9c" image-rendering="auto" shape-rendering="auto" solid-color="#000000" style="font-feature-settings:normal;font-variant-alternates:normal;font-variant-caps:normal;font-variant-ligatures:normal;font-variant-numeric:normal;font-variant-position:normal;isolation:auto;mix-blend-mode:normal;shape-padding:0;text-decoration-color:#000000;text-decoration-line:none;text-decoration-style:solid;text-indent:0;text-orientation:mixed;text-transform:none;white-space:normal"/>
</g>
</svg>
