<svg width="16" height="16" version="1.1" viewBox="0 0 16 16" xmlns="http://www.w3.org/2000/svg">
<g transform="translate(0 -1036.4)">
<path transform="translate(0 1036.4)" d="m6 2a4 4 0 0 0 -4 4 4 4 0 0 0 2 3.4531v3.5469a2 2 0 0 0 1 1.7324 2 2 0 0 0 1 0.26562v0.001953h4v-0.001953a2 2 0 0 0 1 -0.26562 2 2 0 0 0 1 -1.7324v-3.5469a4 4 0 0 0 2 -3.4531 4 4 0 0 0 -4 -4h-4zm-1 3a1 1 0 0 1 1 1 1 1 0 0 1 -1 1 1 1 0 0 1 -1 -1 1 1 0 0 1 1 -1zm6 0a1 1 0 0 1 1 1 1 1 0 0 1 -1 1 1 1 0 0 1 -1 -1 1 1 0 0 1 1 -1zm-4 2h2v1h-2v-1zm-2 2h1v1h1v-1h1 1v1h1v-1h1v0.86719 3.1328h-1v-1h-1v1h-1-1v-1h-1v1h-1v-3.1309-0.86914z" fill="#fc9c9c" fill-opacity=".99608"/>
</g>
</svg>
