<svg width="16" height="16" version="1.1" viewBox="0 0 16 16" xmlns="http://www.w3.org/2000/svg">
<g transform="translate(0 -1036.4)">
<path transform="translate(0 1036.4)" d="m8 1a7 7 0 0 0 -7 7 7 7 0 0 0 1.2227 3.9531 7 7 0 0 0 0.30273 0.4082c7.85e-4 -0.00256 0.0011667-0.005252 0.0019532-0.007812a7 7 0 0 0 5.4727 2.6465 7 7 0 0 0 3.2422 -0.80273c0.001375 3.93e-4 0.002531 0.00156 0.003906 0.001953a7 7 0 0 0 0.035156 -0.021485 7 7 0 0 0 0.42578 -0.25 7 7 0 0 0 0.16992 -0.10352 7 7 0 0 0 0.36914 -0.26953 7 7 0 0 0 0.20508 -0.15625 7 7 0 0 0 0.3418 -0.30859 7 7 0 0 0 0.16406 -0.1543 7 7 0 0 0 0.33008 -0.36133 7 7 0 0 0 0.14062 -0.16016 7 7 0 0 0 0.27734 -0.37305 7 7 0 0 0 0.13867 -0.19531 7 7 0 0 0 0.21875 -0.36133 7 7 0 0 0 0.14258 -0.25 7 7 0 0 0 0.15625 -0.33398 7 7 0 0 0 0.13867 -0.31055 7 7 0 0 0 0.10742 -0.30859 7 7 0 0 0 0.11914 -0.35352 7 7 0 0 0 0.087891 -0.36914 7 7 0 0 0 0.066406 -0.29297 7 7 0 0 0 0.056641 -0.40039 7 7 0 0 0 0.037109 -0.3125 7 7 0 0 0 0.025391 -0.55273 7 7 0 0 0 -4.3926 -6.4922 7 7 0 0 0 -0.001953 0 7 7 0 0 0 -0.66016 -0.22852 7 7 0 0 0 -0.0058594 -0.0019531 7 7 0 0 0 -0.55078 -0.13086 7 7 0 0 0 -0.14062 -0.03125 7 7 0 0 0 -0.55078 -0.072266 7 7 0 0 0 -0.14258 -0.017578 7 7 0 0 0 -0.55469 -0.025391zm1.9512 1.334a6 6 0 0 1 4.0488 5.666h-7a2 2 0 0 0 -0.94922 -1.6992c1.3464-2.0289 2.6038-3.2631 3.9004-3.9668zm-6.8281 2.1797c0.14632 0.65093 0.35776 1.2833 0.68359 1.8848a2 2 0 0 0 -0.80664 1.6016h-1a6 6 0 0 1 1.123 -3.4863zm1.877 1.4863a2 2 0 0 0 -0.10938 0.0039062 2 2 0 0 1 0.10938 -0.0039062zm-0.18945 0.011719a2 2 0 0 0 -0.12109 0.013672 2 2 0 0 1 0.12109 -0.013672zm-0.44141 0.09375a2 2 0 0 0 -0.056641 0.019531 2 2 0 0 1 0.056641 -0.019531zm-1.3594 2.0605a2 2 0 0 0 0.013672 0.11914 2 2 0 0 1 -0.013672 -0.11914zm0.027344 0.20898a2 2 0 0 0 0.017578 0.080078 2 2 0 0 1 -0.017578 -0.080078zm0.73438 1.1992a2 2 0 0 0 1.2285 0.42578 2 2 0 0 0 1.0508 -0.30078c1.345 2.0268 2.6013 3.2645 3.8965 3.9688a6 6 0 0 1 -1.9473 0.33203 6 6 0 0 1 -5.0547 -2.7695c0.23771-0.5785 0.50336-1.1403 0.82617-1.6563z" fill="#a5b7f3" fill-opacity=".98824"/>
</g>
</svg>
