<svg width="16" height="16" version="1.1" viewBox="0 0 16 16" xmlns="http://www.w3.org/2000/svg">
<g transform="translate(0 -1036.4)">
<path transform="translate(0 1036.4)" d="m12 1c-0.554 0-1 0.446-1 1v2h4v-2c0-0.554-0.446-1-1-1h-2zm-7 3c-0.195 0-0.38964 0.07519-0.53906 0.22461l-3.2363 3.2363c-0.29884 0.29884-0.29884 0.77929 0 1.0781l3.2363 3.2363c0.29884 0.29884 0.77929 0.29884 1.0781 0l3.2363-3.2363c0.29884-0.29884 0.29884-0.77929 0-1.0781l-3.2363-3.2363c-0.14942-0.14942-0.34406-0.22461-0.53906-0.22461zm6 1v7l2 3 2-3v-7h-4zm1 1h1v5h-1v-5z" fill="#e0e0e0"/>
</g>
</svg>
