<svg width="16" height="12" version="1.1" viewBox="0 0 16 12" xmlns="http://www.w3.org/2000/svg">
<path d="m3 2c-0.5304 8.01e-5 -1.0391 0.21085-1.4141 0.58594-0.37509 0.37501-0.58586 0.88366-0.58594 1.4141v1c-0.2652 4.01e-5 -0.51953 0.10542-0.70703 0.29297-0.18755 0.18751-0.29293 0.44183-0.29297 0.70703 4.0076e-5 0.2652 0.10542 0.51953 0.29297 0.70703 0.18751 0.18755 0.44183 0.29293 0.70703 0.29297v1c8.01e-5 0.5304 0.21085 1.0391 0.58594 1.4141 0.37501 0.37509 0.88366 0.58586 1.4141 0.58594h1v-2h-1v-4h1v-2zm3 0v8h4v-2h-2v-1h2v-2h-2v-1h2v-2zm6 0v2h1v4h-1v2h1c0.5304-8.03e-5 1.0391-0.21085 1.4141-0.58594 0.37509-0.37501 0.58586-0.88366 0.58594-1.4141v-1c0.2652-4.01e-5 0.51953-0.10542 0.70703-0.29297 0.18755-0.18751 0.29293-0.44183 0.29297-0.70703-4e-5 -0.2652-0.10542-0.51953-0.29297-0.70703-0.1875-0.18755-0.44183-0.29293-0.70703-0.29297v-1c-8e-5 -0.5304-0.21085-1.0391-0.58594-1.4141-0.37501-0.37509-0.88366-0.58586-1.4141-0.58594z" fill="#e0e0e0"/>
</svg>
