<svg height="16" viewBox="0 0 16 16" width="16" xmlns="http://www.w3.org/2000/svg"><g fill="#e0e0e0" transform="matrix(.0279396 0 0 .02755726 .914016 .7343)"><path d="m276.193 58.507v-18.118h14.578c11.153 0 20.194-9.042 20.194-20.194s-9.042-20.195-20.194-20.195h-69.544c-11.153 0-20.194 9.042-20.194 20.194s9.042 20.194 20.194 20.194h14.578v18.118c-115.853 10.254-207.006 107.821-207.006 226.293 0 125.279 101.922 227.201 227.201 227.201s227.201-101.922 227.201-227.201c-.001-118.472-91.155-216.039-207.008-226.292zm0 412.009v-20.124c0-11.153-9.042-20.194-20.194-20.194-11.153 0-20.194 9.042-20.194 20.194v20.124c-86.91-9.385-156.137-78.614-165.522-165.522h20.124c11.153 0 20.194-9.042 20.194-20.194s-9.042-20.194-20.194-20.194h-20.125c9.385-86.91 78.614-156.137 165.522-165.523v20.124c0 11.153 9.042 20.194 20.194 20.194 11.153 0 20.194-9.042 20.194-20.194v-20.126c86.91 9.385 156.137 78.614 165.522 165.523h-20.124c-11.153 0-20.194 9.042-20.194 20.194s9.042 20.194 20.194 20.194h20.126c-9.385 86.911-78.613 156.14-165.523 165.524z"/><path d="m317.248 194.99-58.179 58.18c-1.011-.097-2.034-.151-3.071-.151-17.552 0-31.779 14.229-31.779 31.779 0 17.552 14.228 31.779 31.779 31.779s31.779-14.229 31.779-31.779c0-1.037-.054-2.06-.151-3.07l58.178-58.18c7.887-7.885 7.887-20.672 0-28.559-7.882-7.886-20.669-7.886-28.556.001z"/></g></svg>
