<svg width="16" height="16" version="1.1" viewBox="0 0 16 16" xmlns="http://www.w3.org/2000/svg">
<g transform="translate(0 -1036.4)" fill="#e0e0e0">
<path d="m9 1037.4v3.0547a4 4 0 0 1 1.0273 0.4258l2.1582-2.1582a7 7 0 0 0 -3.1855 -1.3223z" fill-opacity=".19608"/>
<path d="m7 1037.4a7 7 0 0 0 -3.1855 1.3203l2.1582 2.1582a4 4 0 0 1 1.0273 -0.4277v-3.0508z" fill-opacity=".19608"/>
<path d="m2.4004 1040.2a7 7 0 0 0 -1.3223 3.1855h3.0547a4 4 0 0 1 0.42578 -1.0273l-2.1582-2.1582z" fill-opacity=".99608"/>
<path d="m13.6 1040.2-2.1582 2.1582a4 4 0 0 1 0.42774 1.0273h3.0508a7 7 0 0 0 -1.3203 -3.1855z" fill-opacity=".19608"/>
<path d="m1.0801 1045.4a7 7 0 0 0 1.3203 3.1855l2.1582-2.1582a4 4 0 0 1 -0.42773 -1.0273h-3.0508z" fill-opacity=".19608"/>
<path d="m11.867 1045.4a4 4 0 0 1 -0.42578 1.0273l2.1582 2.1582a7 7 0 0 0 1.3223 -3.1855h-3.0547z" fill-opacity=".19608"/>
<path d="m5.9727 1047.8-2.1582 2.1582a7 7 0 0 0 3.1855 1.3223v-3.0547a4 4 0 0 1 -1.0273 -0.4258z" fill-opacity=".19608"/>
<path d="m10.027 1047.8a4 4 0 0 1 -1.0273 0.4277v3.0508a7 7 0 0 0 3.1855 -1.3203l-2.1582-2.1582z" fill-opacity=".19608"/>
</g>
</svg>
