<svg width="16" height="16" version="1.1" viewBox="0 0 16 16" xmlns="http://www.w3.org/2000/svg">
<g transform="translate(0 -1036.4)" fill="#fc9c9c" fill-opacity=".99608">
<path transform="translate(0 1036.4)" d="m3 1a2 2 0 0 0 -2 2 2 2 0 0 0 1 1.7305v6.541a2 2 0 0 0 -1 1.7285 2 2 0 0 0 2 2 2 2 0 0 0 1.7305 -1h2.5078l0.75-2h-3.2598a2 2 0 0 0 -0.72852 -0.73047v-5.8555l4.6973 4.6973 0.77148-2.0566-4.0547-4.0547h5.8574a2 2 0 0 0 0.72852 0.73047v0.27148a2.0002 2.0002 0 0 1 0.023438 0 2.0002 2.0002 0 0 1 1.8496 1.2969l0.12695 0.33789v-1.9082a2 2 0 0 0 1 -1.7285 2 2 0 0 0 -2 -2 2 2 0 0 0 -1.7305 1h-6.541a2 2 0 0 0 -1.7285 -1z"/>
<path d="m15 1051.4-3-8-3 8 3-2z" fill-rule="evenodd"/>
<rect x="12" y="1040.4" width="2" height="1"/>
<rect x="12" y="1040.4" width="2" height="1"/>
</g>
</svg>
