<svg height="128" viewBox="0 0 128 128" width="128" xmlns="http://www.w3.org/2000/svg"><path d="m64 8.0195312c-12.43753 0-23.589964 6.6011958-31.417969 16.7871098-7.828004 10.185914-12.529297 24.008895-12.529297 39.193359-.000001 15.184465 4.701292 29.007444 12.529297 39.19336 7.828005 10.18591 18.980438 16.78711 31.417969 16.78711 12.437533 0 23.589962-6.6012 31.417969-16.78711 7.828011-10.185916 12.529301-24.008893 12.529301-39.19336 0-15.184466-4.70129-29.007445-12.529301-39.193359-7.828007-10.185915-18.980437-16.787113-31.417969-16.7871098zm0 22.8515628c4.94429-.000001 9.753307 3.104902 13.587891 9.044922 3.834584 5.940019 6.380859 14.529037 6.380859 24.083984 0 9.554948-2.546275 18.143964-6.380859 24.083984-3.834585 5.940021-8.6436 9.044923-13.587891 9.044922-4.94429 0-9.753307-3.104901-13.587891-9.044922-3.834584-5.94002-6.380859-14.529037-6.380859-24.083984 0-9.554946 2.546276-18.143965 6.380859-24.083984 3.834584-5.94002 8.643601-9.044922 13.587891-9.044922z" fill-opacity=".294118"/><path d="m64.000002 12.020316c-22.062147 0-39.94705 23.272097-39.94705 51.979684-.000003 28.707589 17.884902 51.97969 39.94705 51.97969 22.062151.00001 39.947058-23.272097 39.947058-51.97969 0-28.707591-17.884908-51.97969-39.947058-51.979684zm0 14.85134c13.237288-.000001 23.96823 16.622925 23.968231 37.128344.000001 20.505422-10.730942 37.12835-23.968231 37.12835-13.237288 0-23.96823-16.62293-23.968229-37.12835.000001-20.505418 10.730942-37.128343 23.968229-37.128344z" fill="#f7f5cf"/></svg>
