<svg width="16" height="16" version="1.1" viewBox="0 0 16 16" xmlns="http://www.w3.org/2000/svg">
<path d="m10.135 3.002c-1.5244-0.04132-2.9843 0.61528-3.9648 1.7832-1.5607 1.8591-1.5607 4.5706 0 6.4297 1.5599 1.8584 4.229 2.3286 6.3301 1.1152l-1.0039-1.7363c-0.45449 0.26416-0.97042 0.40425-1.4961 0.40625-1.6569 0-3-1.3431-3-3-1e-7 -1.6569 1.3431-3 3-3 0.5255 0.0014061 1.0414 0.14082 1.4961 0.4043l1.0039-1.7344c-0.72056-0.41598-1.5335-0.64557-2.3652-0.66797zm-7.1348 7.998c-0.55228 0-1 0.44772-1 1-1e-7 0.55228 0.44772 1 1 1s1-0.44772 1-1c1e-7 -0.55228-0.44772-1-1-1z" fill="#e0e0e0" stroke-width="0"/>
</svg>
