<svg width="42" height="26" version="1.1" viewBox="0 0 42 25.999998" xmlns="http://www.w3.org/2000/svg">
<g transform="translate(0 -1026.4)">
<path d="m13 1027.4c-6.6307 0-12 5.3663-12 11.998 0 6.6318 5.3693 12.002 12 12.002h16c6.6307 0 12-5.3702 12-12.002 0-6.6317-5.3693-11.998-12-11.998zm0 2.0003h16c5.5573 0 10 4.4395 10 9.9977 0 5.5583-4.4427 10.002-10 10.002h-16c-5.5573 0-10-4.4434-10-10.002 0-5.5582 4.4427-9.9977 10-9.9977zm7 4.9969a1.0001 1.0003 0 0 0 -1 1.0002v8.0013a1 1.0002 0 0 0 1 1.0002 1 1.0002 0 0 0 1 -1.0002v-3.0005h2a1 1.0002 0 0 0 1 -1.0002 1 1.0002 0 0 0 -1 -1.0001h-2v-2.0003h4a1 1.0002 0 0 0 1 -1.0002 1 1.0002 0 0 0 -1 -1.0002zm9 0a1.0001 1.0003 0 0 0 -1 1.0002v8.0013a1 1.0002 0 0 0 1 1.0002 1 1.0002 0 0 0 1 -1.0002v-3.0005h2a1 1.0002 0 0 0 1 -1.0002 1 1.0002 0 0 0 -1 -1.0001h-2v-2.0003h4a1 1.0002 0 0 0 1 -1.0002 1 1.0002 0 0 0 -1 -1.0002zm-17 0c-2.7496 0-5 2.2508-5 5.0008 0 2.7501 2.2504 5.0009 5 5.0009s5-2.2508 5-5.0009c0-2.75-2.2504-5.0008-5-5.0008zm0 2.0004c1.6687 0 3 1.3315 3 3.0004 0 1.669-1.3313 3.0005-3 3.0005s-3-1.3315-3-3.0005c0-1.6689 1.3313-3.0004 3-3.0004z" color="#000000" color-rendering="auto" dominant-baseline="auto" fill="#e0e0e0" fill-opacity=".78431" image-rendering="auto" shape-rendering="auto" solid-color="#000000" style="font-feature-settings:normal;font-variant-alternates:normal;font-variant-caps:normal;font-variant-ligatures:normal;font-variant-numeric:normal;font-variant-position:normal;isolation:auto;mix-blend-mode:normal;shape-padding:0;text-decoration-color:#000000;text-decoration-line:none;text-decoration-style:solid;text-indent:0;text-orientation:mixed;text-transform:none;white-space:normal"/>
</g>
</svg>
