<svg width="16" height="16" version="1.1" viewBox="0 0 16 16" xmlns="http://www.w3.org/2000/svg">
<g transform="translate(0 -1036.4)">
<path transform="translate(0 1036.4)" d="m2 1c-0.55226 1e-4 -0.99994 0.4477-1 1v1h14v-1c-5.5e-5 -0.5523-0.44774-0.9999-1-1h-12z" fill="#ff7070"/>
<path transform="translate(0 1036.4)" d="m1 3v2h14v-2h-14z" fill="#ffeb70"/>
<path transform="translate(0 1036.4)" d="m1 5v2h8.582c0.25686-0.33847 0.49465-0.66934 0.68555-1 0.33885-0.5859 0.95103-0.96109 1.627-0.99609 0.7512-0.04 1.4613 0.34489 1.8379 0.99609 0.18899 0.32737 0.42831 0.66049 0.68555 1h0.58203v-2h-14z" fill="#9dff70"/>
<path transform="translate(0 1036.4)" d="m1 7v2h7.0547c0.14116-0.20345 0.28508-0.40233 0.42383-0.58398 0.38601-0.5053 0.76348-0.96794 1.1035-1.416h-8.582zm11 0c-0.43047 0.7456-0.94451 1.3867-1.4355 2h2.8711c-0.49104-0.6133-1.0051-1.2544-1.4355-2zm2.418 0c0.18626 0.24583 0.37928 0.49419 0.58203 0.75v-0.75h-0.58203z" fill="#70ffb9"/>
<path transform="translate(0 1036.4)" d="m1 9v2h6.1172c0.17955-0.78395 0.54577-1.4354 0.9375-2h-7.0547zm9.5645 0c-0.55248 0.69003-1.0583 1.3421-1.334 2h5.5391c-0.2757-0.65786-0.78151-1.31-1.334-2h-2.8711z" fill="#70deff"/>
<path transform="translate(0 1036.4)" d="m1 13v1c5.52e-5 0.5523 0.44774 0.9999 1 1h6.0371c-0.44511-0.58388-0.76161-1.2639-0.91992-2h-6.1172zm8.1836 0c0.41312 1.1628 1.5119 2 2.8164 2s2.4033-0.83718 2.8164-2h-5.6328z" fill="#ff70ac"/>
<path transform="translate(0 1036.4)" d="m1 11v2h6.1172c-0.06966-0.3239-0.11719-0.65596-0.11719-1 0-0.35655 0.045474-0.68688 0.11719-1h-6.1172zm8.2305 0c-0.13656 0.32585-0.23047 0.65576-0.23047 1 0 0.35235 0.07201 0.68593 0.18359 1h5.6328c0.11158-0.31407 0.18359-0.64765 0.18359-1 0-0.34424-0.093909-0.67415-0.23047-1h-5.5391z" fill="#9f70ff"/>
</g>
</svg>
