<svg width="16" height="16" version="1.1" viewBox="0 0 16 16" xmlns="http://www.w3.org/2000/svg">
<g>
<path d="m6 0c-3.3019 0-6 2.6981-6 6s2.6981 6 6 6h0.00195c0.88828 0 1.737-0.2588 2.5332-0.6367l3.8281 3.8281c0.39053 0.3904 1.0235 0.3904 1.4141 0l1.4141-1.4141c0.39033-0.3905 0.39033-1.0235 0-1.414l-3.791-3.791c0.02779-0.058 0.06588-0.1109 0.0918-0.17 0.05554-0.1268 0.08414-0.2638 0.08398-0.4023h1.4238c0.55226-1e-4 0.99994-0.4477 1-1v-1h1c0.55226-1e-4 0.99994-0.4477 1-1v-2c-5.5e-5 -0.5523-0.44774-0.9999-1-1h-1v-1c-5.5e-5 -0.5523-0.44774-0.9999-1-1h-2c-0.55226 1e-4 -0.99994 0.4477-1 1v1h-0.00977c1.44e-4 -0.3151-0.14822-0.6118-0.40039-0.8008-1.0353-0.7764-2.2938-1.1967-3.5879-1.1992h-0.00195z" color="#000000" color-rendering="auto" dominant-baseline="auto" image-rendering="auto" shape-rendering="auto" solid-color="#000000" style="font-feature-settings:normal;font-variant-alternates:normal;font-variant-caps:normal;font-variant-ligatures:normal;font-variant-numeric:normal;font-variant-position:normal;isolation:auto;mix-blend-mode:normal;shape-padding:0;text-decoration-color:#000000;text-decoration-line:none;text-decoration-style:solid;text-indent:0;text-orientation:mixed;text-transform:none;white-space:normal"/>
<path d="m6 1a5 5 0 0 0 -5 5 5 5 0 0 0 5 5 5 5 0 0 0 2.752 -0.83398l4.3184 4.3184 1.4141-1.4141-4.3184-4.3184a5 5 0 0 0 0.41016 -0.75195h-0.57617v-2h-1a3 3 0 0 1 -3 3 3 3 0 0 1 -3 -3 3 3 0 0 1 3 -3 3 3 0 0 1 2 0.76758v-1.7676h0.99023a5 5 0 0 0 -2.9902 -1zm5 0v2h-2v2h2v2h2v-2h2v-2h-2v-2z" fill="#fff"/>
</g>
</svg>
