<svg height="16" viewBox="0 0 16 16" width="16" xmlns="http://www.w3.org/2000/svg"><path d="m13 1a2 2 0 0 0 -1.730469 1h-3.0273435a4.5 4.5 0 0 1 .7285156 2h2.3007809a2 2 0 0 0 .728516.7304688v5.8554692l-3.6933594-3.6933599a4.5 4.5 0 0 1 -1.4140625 1.4140625l3.6933599 3.6933594h-5.8574224a2 2 0 0 0 -.7285156-.730469v-2.3046872a4.5 4.5 0 0 1 -2-.7285157v3.0351559a2 2 0 0 0 -1 1.728516 2 2 0 0 0 2 2 2 2 0 0 0 1.7304688-1h6.5410152a2 2 0 0 0 1.728516 1 2 2 0 0 0 2-2 2 2 0 0 0 -1.03125-1.75h.03125v-6.5214844a2 2 0 0 0 1-1.7285156 2 2 0 0 0 -2-2z" fill="#ffd684"/></svg>
