<svg width="16" height="16" version="1.1" viewBox="0 0 16 16" xmlns="http://www.w3.org/2000/svg">
<path d="m6 15a1.0001 1.0001 0 1 1 0 -2h4a1.0001 1.0001 0 1 1 0 2zm2-4c-0.55231 0-1-0.4477-1-1v-5.1484l-2.2188 2.7734c-0.34504 0.4317-0.97482 0.50165-1.4062 0.15625-0.4305-0.3449-0.5004-0.9732-0.15625-1.4043l4-5c0.18868-0.2369 0.4745-0.37695 0.77734-0.37695 0.30559-9e-4 0.59477 0.13795 0.78516 0.37695l4 5c0.34415 0.4311 0.27424 1.0594-0.15625 1.4043-0.43143 0.3454-1.0612 0.27545-1.4062-0.15625l-2.2188-2.7734v5.1484c0 0.5523-0.44769 1-1 1z" color="#000000" color-rendering="auto" dominant-baseline="auto" fill="#e0e0e0" fill-opacity=".99608" image-rendering="auto" shape-rendering="auto" solid-color="#000000" style="font-feature-settings:normal;font-variant-alternates:normal;font-variant-caps:normal;font-variant-ligatures:normal;font-variant-numeric:normal;font-variant-position:normal;isolation:auto;mix-blend-mode:normal;shape-padding:0;text-decoration-color:#000000;text-decoration-line:none;text-decoration-style:solid;text-indent:0;text-orientation:mixed;text-transform:none;white-space:normal"/>
</svg>
