<svg width="16" height="16" version="1.1" viewBox="0 0 16 16" xmlns="http://www.w3.org/2000/svg">
<g transform="translate(0 -1036.4)">
<path transform="translate(0 1036.4)" d="m6 0c-0.55228 0-1 0.4477-1 1s0.44772 1 1 1c4.4301 0 8 3.5699 8 8 0 0.5523 0.44772 1 1 1s1-0.4477 1-1c0-5.511-4.489-10-10-10zm0 4c-0.55228 0-1 0.4477-1 1s0.44772 1 1 1c2.221 0 4 1.779 4 4 0 0.5523 0.44772 1 1 1s1-0.4477 1-1c0-3.3018-2.6981-6-6-6zm-5 4a1.0001 1.0001 0 0 0 -1 1v6a1.0001 1.0001 0 0 0 1 1h6a1.0001 1.0001 0 0 0 1 -1v-6a1.0001 1.0001 0 0 0 -1 -1h-6zm1 2h4v4h-4v-4z" fill="#e0e0e0"/>
</g>
</svg>
