<svg width="16" height="16" version="1.1" viewBox="0 0 16 16" xmlns="http://www.w3.org/2000/svg">
<path d="m3 1c-1.1046 0-2 0.89543-2 2 5.649e-4 0.71397 0.38169 1.3735 1 1.7305v6.541c-0.61771 0.35663-0.99874 1.0152-1 1.7285 0 1.1046 0.89543 2 2 2 0.71397-5.65e-4 1.3735-0.38169 1.7305-1h6.541c0.35663 0.61771 1.0152 0.99874 1.7285 1 1.1046 0 2-0.89543 2-2 1.01e-4 -0.72747-0.39481-1.3976-1.0312-1.75h0.03125v-6.5215c0.61771-0.35663 0.99874-1.0152 1-1.7285 0-1.1046-0.89543-2-2-2-0.71397 5.648e-4 -1.3735 0.38169-1.7305 1h-6.541c-0.35663-0.61771-1.0152-0.99874-1.7285-1zm1.7266 3h0.6875 5.168 0.68945c0.17478 0.30301 0.42598 0.55488 0.72852 0.73047v0.68359 5.1719 0.68555c-0.30301 0.17478-0.55488 0.42598-0.73047 0.72852h-0.68359-5.1719-0.68555c-0.17478-0.30301-0.42598-0.55488-0.72852-0.73047v-0.6875l-0.0039062 0.003907v-5.8574c0.30302-0.17478 0.55488-0.42598 0.73047-0.72852zm4.0859 2.25v0.70117h-0.8125v0.69922h-1.625v0.69922h-0.8125v0.69922h-0.8125v0.70117h1.625 1.625 1.625 1.625v-1.4004h-0.8125v-1.3984h-0.8125v-0.70117h-0.8125z" fill="#e0e0e0" fill-opacity=".99608"/>
</svg>
