<svg width="16" height="12" version="1.1" viewBox="0 0 16 12" xmlns="http://www.w3.org/2000/svg">
<path d="m0 0v12h4v-2h-2v-8h2v-2zm12 0v2h2v8h-2v2h4v-12z" fill="#e0e0e0"/>
<path d="m8 1v2h2c0 0.55228-0.44772 1-1 1v2c0.55228 0 1 0.44772 1 1s-0.44772 1-1 1h-1v2h1c1.0716-1.501e-4 2.0618-0.57193 2.5977-1.5 0.5359-0.9282 0.5359-2.0718 0-3-0.10406-0.1795-0.22646-0.34772-0.36523-0.50195 0.13856-0.15301 0.26095-0.31991 0.36523-0.49805 0.26209-0.45639 0.3995-0.97371 0.39844-1.5h0.003906v-2zm0 2h-2v3c-9.6e-6 0.55228-0.44772 0.99999-1 1v-4h-2v6h2c1.6569 0 3-1.3431 3-3z" fill="#e286f0"/>
<path d="m8 1v2h2c0 0.55228-0.44772 1-1 1v2c0.55228 0 1 0.44772 1 1s-0.44772 1-1 1h-1v2h1c1.0716-1.501e-4 2.0618-0.57193 2.5977-1.5 0.5359-0.9282 0.5359-2.0718 0-3-0.10406-0.1795-0.22646-0.34772-0.36523-0.50195 0.13856-0.15301 0.26095-0.31991 0.36523-0.49805 0.26209-0.45639 0.3995-0.97371 0.39844-1.5h0.003906v-2z" fill="#fff" fill-opacity=".39216"/>
</svg>
