<svg height="16" viewBox="0 0 16 16" width="16" xmlns="http://www.w3.org/2000/svg"><g fill="#e0e0e0"><path d="m2 1c-.5522847 0-1 .4477153-1 1v12c0 .552285.4477153 1 1 1h12c.552285 0 1-.447715 1-1v-12c0-.5522847-.447715-1-1-1zm1 2h10v8h-10z" fill-opacity=".99608" transform="translate(.359546 -.287637)"/><g fill-opacity=".996078" stroke-width=".203212" transform="scale(.9167105 1.0908569)"><path d="m5.8175194 8.9717502q-.2194689 0-.4633233-.032514-.2438544-.0243854-.4714519-.0731562-.2275974-.0487709-.4145524-.1056703-.1869551-.0568993-.2926253-.1056702l.2357259-1.0079315q.2113405.089413.5364797.1950835.3332677.097542.8209765.097542.5608651 0 .8209764-.2113404.2601114-.2113405.2601114-.5689936 0-.219469-.097542-.3657816-.089413-.1544415-.2519826-.2438547-.1625696-.0975418-.3901671-.1300557-.2194689-.0406424-.4714518-.0406424h-.4714519v-.9754176h.5364797q.1788266 0 .3413962-.032514.1706981-.032514.3007537-.1056703.1300557-.081285.203212-.2113404.081285-.1381842.081285-.3413962 0-.1544411-.065028-.2682398-.0650278-.1137987-.1706981-.186955-.0975417-.0731563-.2357259-.1056702-.1300557-.0406424-.2682398-.0406424-.3495247 0-.6502784.1056702-.2926253.1056703-.5364797.2601114l-.4308095-.8860043q.1300557-.0812848.3007538-.1706981.1788266-.0894133.390167-.1625696.2113405-.0731563.4470664-.1219272.2438544-.048771.5120943-.048771.4958373 0 .8534904.1219272.3657816.1137987.6015075.3332677.2357259.2113405.3495246.5039657.1137987.2844968.1137987.625893 0 .3332677-.186955.6502784-.186955.3088822-.5039657.4714518.4389379.1788266.6746638.5364797.2438544.3495246.2438544.8453619 0 .3901671-.1300557.7234347-.1300557.3251393-.406424.5689937-.2763683.235726-.7071777.3739101-.422681.1300557-1.0079316.1300557z"/><path d="m10.502445 7.817506q.08941.00813.203212.016257.121927 0 .284497 0 .951032 0 1.406227-.4795803.463323-.4795803.463323-1.3249422 0-.8860044-.438938-1.3411992-.438938-.4551949-1.38997-.4551949-.130055 0-.26824.00813-.138184 0-.260111.016257zm3.665945-1.7882655q0 .7315631-.227598 1.2761713-.227597.5446082-.650278.9022613-.414553.3576531-1.01606.5364797-.601508.1788265-1.349328.1788265-.341396 0-.796591-.032514-.4551948-.0243853-.8941328-.1137986v-5.486724q.438938-.081285.9103898-.1056702.47958-.032514.820976-.032514.723435 0 1.308686.1625696.593379.1625696 1.01606.5120943.422681.3495246.650278.8941328.227598.5446081.227598 1.3086853z"/></g></g></svg>
