<svg width="16" height="16" version="1.1" viewBox="0 0 16 16" xmlns="http://www.w3.org/2000/svg">
<path d="m3.9844 1.002a1.0001 1.0001 0 0 0 -0.69141 0.29102l-2 2a1 1 0 0 0 0 1.4141 1 1 0 0 0 1.4141 0l0.29297-0.29297v8.5859h8.5859l-0.29297 0.29297a1 1 0 0 0 0 1.4141 1 1 0 0 0 1.4141 0l2-2a1.0001 1.0001 0 0 0 0 -1.4141l-2-2a1 1 0 0 0 -0.7207 -0.29102 1 1 0 0 0 -0.69336 0.29102 1 1 0 0 0 0 1.4141l0.29297 0.29297h-6.5859v-6.5859l0.29297 0.29297a1 1 0 0 0 1.4141 0 1 1 0 0 0 0 -1.4141l-2-2a1.0001 1.0001 0 0 0 -0.72266 -0.29102z" color="#000000" color-rendering="auto" dominant-baseline="auto" fill="#e0e0e0" image-rendering="auto" shape-rendering="auto" solid-color="#000000" style="filter-blend-mode:normal;filter-gaussianBlur-deviation:0;font-feature-settings:normal;font-variant-alternates:normal;font-variant-caps:normal;font-variant-east-asian:normal;font-variant-ligatures:normal;font-variant-numeric:normal;font-variant-position:normal;isolation:auto;mix-blend-mode:normal;shape-padding:0;text-decoration-color:#000000;text-decoration-line:none;text-decoration-style:solid;text-indent:0;text-orientation:mixed;text-transform:none;white-space:normal"/>
</svg>
