<svg height="16" viewBox="0 0 16 16" width="16" xmlns="http://www.w3.org/2000/svg"><g transform="translate(0 -1036.4)"><path d="m27 1038.4h7v14h-7z" fill="#fff" fill-opacity=".99608"/><g fill="#e0e0e0"><path d="m3 1a2 2 0 0 0 -2 2v10a2 2 0 0 0 2 2h12v-14zm4 2h2a1 1 0 0 1 1 1v2h2a1 1 0 0 1 1 1v2a1 1 0 0 1 -1 1h-2v2a1 1 0 0 1 -1 1h-2a1 1 0 0 1 -1-1v-2h-2a1 1 0 0 1 -1-1v-2a1 1 0 0 1 1-1h2v-2a1 1 0 0 1 1-1z" fill-opacity=".99608" transform="translate(0 1036.4)"/><circle cx="8" cy="1044.4" r="1"/></g></g></svg>
