<svg width="16" height="16" version="1.1" viewBox="0 0 16 16" xmlns="http://www.w3.org/2000/svg">
<g>
<path d="m1 1v2h7v-2zm9 0v2h5v-2zm-9 4v2h11v-2zm0 4v2h4v-2zm6 0v2h1c-0.044949-0.094701-0.088906-0.20229-0.125-0.3418-0.077717-0.30039-0.10439-0.81722 0.16406-1.293 0.081489-0.1441 0.18202-0.26127 0.28906-0.36523zm-6 4v2h8.2812c-0.066517-0.011548-0.1231-0.014758-0.20117-0.037109-0.30195-0.08645-0.76491-0.33245-1.0352-0.80664-0.23366-0.4121-0.24101-0.84933-0.18945-1.1562z" fill="#e0e0e0"/>
<path d="m12.216 8.598a0.53334 3.2001 0 0 0-0.50976 2.2754 3.2001 0.53334 30 0 0-2.2656-0.71484 3.2001 0.53334 30 0 0 1.75 1.6016 0.53334 3.2001 60 0 0-1.7461 1.5996 0.53334 3.2001 60 0 0 2.2578-0.71094 0.53334 3.2001 0 0 0 0.51367 2.3496 0.53334 3.2001 0 0 0 0.51367-2.3516 3.2001 0.53334 30 0 0 2.2539 0.71094 3.2001 0.53334 30 0 0-1.7441-1.5977 0.53334 3.2001 60 0 0 1.748-1.5996 0.53334 3.2001 60 0 0-2.2617 0.71484 0.53334 3.2001 0 0 0-0.50977-2.2773z" fill="#cea4f1" stroke-width="1.0667"/>
</g>
</svg>
