<svg width="16" height="16" version="1.1" viewBox="0 0 14.999999 14.999999" xmlns="http://www.w3.org/2000/svg">
<g transform="translate(0 -1037.4)">
<path transform="matrix(.9375 0 0 .9375 0 1037.4)" d="m8 1c-1.7469 0-3.328 0.22648-4.5586 0.63672-0.61528 0.20512-1.1471 0.45187-1.5898 0.80078s-0.85156 0.88101-0.85156 1.5625v8c0 0.68149 0.40884 1.2155 0.85156 1.5645s0.97457 0.59577 1.5898 0.80078c1.2306 0.41024 2.8117 0.63477 4.5586 0.63477s3.328-0.22453 4.5586-0.63477c0.61527-0.20501 1.1471-0.45187 1.5898-0.80078 0.44272-0.34891 0.85156-0.88296 0.85156-1.5645v-8c0-0.68149-0.40884-1.2136-0.85156-1.5625-0.44272-0.34891-0.97457-0.59566-1.5898-0.80078-1.2306-0.41024-2.8117-0.63672-4.5586-0.63672zm0 2c1.5668 0 2.9867 0.22145 3.9277 0.53516 0.46368 0.15456 0.80138 0.33741 0.96875 0.4668-0.16752 0.12928-0.50546 0.3105-0.96875 0.46484-0.94102 0.31371-2.361 0.5332-3.9277 0.5332s-2.9867-0.2195-3.9277-0.5332c-0.46329-0.15435-0.80123-0.33556-0.96875-0.46484 0.16737-0.12939 0.50507-0.31224 0.96875-0.4668 0.94102-0.31371 2.361-0.53516 3.9277-0.53516zm-5 3.1875c0.1468 0.059071 0.2835 0.12512 0.44141 0.17773 1.2306 0.41024 2.8117 0.63477 4.5586 0.63477s3.328-0.22453 4.5586-0.63477c0.15791-0.052617 0.29461-0.11866 0.44141-0.17773v5.8125c-0.16752 0.12928-0.60898 0.31245-1.0723 0.4668-0.94102 0.31371-2.361 0.5332-3.9277 0.5332s-2.9867-0.2195-3.9277-0.5332c-0.46329-0.15435-0.90474-0.33752-1.0723-0.4668z" color="#000000" color-rendering="auto" dominant-baseline="auto" fill="#ffd684" image-rendering="auto" shape-rendering="auto" solid-color="#000000" style="font-feature-settings:normal;font-variant-alternates:normal;font-variant-caps:normal;font-variant-east-asian:normal;font-variant-ligatures:normal;font-variant-numeric:normal;font-variant-position:normal;isolation:auto;mix-blend-mode:normal;shape-padding:0;text-decoration-color:#000000;text-decoration-line:none;text-decoration-style:solid;text-indent:0;text-orientation:mixed;text-transform:none;white-space:normal"/>
</g>
</svg>
