<svg height="16" viewBox="0 0 16 16" width="16" xmlns="http://www.w3.org/2000/svg"><g stroke-linecap="round" stroke-linejoin="round" stroke-width="2"><circle cx="8" cy="8.000025" fill-opacity=".39216" r="8" stroke-opacity=".98824"/><path d="m8 1c-3.865993 0-7 3.134-7 7s3.134007 7 7 7 7-3.134 7-7-3.134007-7-7-7zm-4 3h2.8574219l-1.0253907 1.0253906 1.4296876 1.4277344-.8085938.8085938-1.4277344-1.4296876-1.0253906 1.0253907zm5.1425781 0h2.8574219v2.8574219l-1.025391-1.0253907-1.427734 1.4296876-.8085938-.8085938 1.4296878-1.4277344zm-2.6894531 4.7382812.8085938.8085938-1.4296876 1.427734 1.0253907 1.025391h-2.8574219v-2.8574219l1.0253906 1.0253909zm3.09375 0 1.427734 1.4296878 1.025391-1.0253909v2.8574219h-2.8574219l1.0253909-1.025391-1.4296878-1.427734z" fill="#e0e0e0"/></g></svg>