<svg height="64" viewBox="0 0 64 64" width="64" xmlns="http://www.w3.org/2000/svg"><path d="m14 993.36c-2.1987 0-4 1.8013-4 4v46c0 2.1987 1.8013 4 4 4h36c2.1987 0 4-1.8013 4-4v-33h-.0078c.002-.2483-.0793-.501-.28516-.707l-16-16c-.18788-.18693-.44247-.28939-.70704-.28907v-.004zm0 2h22v12c0 2.1987 1.8013 4 4 4h12v32c0 1.1253-.87472 2-2 2h-36c-1.1253 0-2-.8747-2-2v-46c0-1.1253.87472-2 2-2zm2.9512 22.002a1 1 0 0 0 -.60938.2461 1 1 0 0 0 -.09375 1.4121l2.9238 3.3398-2.9238 3.3418a1 1 0 0 0 .09375 1.4121 1 1 0 0 0 1.4102-.094l2.748-3.1407 2.748 3.1407a1 1 0 0 0 1.4102.094 1 1 0 0 0 .09375-1.4121l-2.9238-3.3418 2.9238-3.3398a1 1 0 0 0 -.09375-1.4121 1 1 0 0 0 -.63867-.2461 1 1 0 0 0 -.77148.3398l-2.748 3.1406-2.748-3.1406a1 1 0 0 0 -.80078-.3398zm23 0a1 1 0 0 0 -.60938.2461 1 1 0 0 0 -.09375 1.4121l2.9238 3.3398-2.9238 3.3418a1 1 0 0 0 .09375 1.4121 1 1 0 0 0 1.4102-.094l2.748-3.1407 2.748 3.1407a1 1 0 0 0 1.4102.094 1 1 0 0 0 .09375-1.4121l-2.9238-3.3418 2.9238-3.3398a1 1 0 0 0 -.09375-1.4121 1 1 0 0 0 -.63867-.2461 1 1 0 0 0 -.77148.3398l-2.748 3.1406-2.748-3.1406a1 1 0 0 0 -.80078-.3398zm-18.951 13.998a1 1 0 0 0 -1 1 1 1 0 0 0 1 1h3v3c0 2.7527 2.2473 5 5 5s5-2.2473 5-5v-3h9a1 1 0 0 0 1-1 1 1 0 0 0 -1-1zm5 2h6v3c0 1.6793-1.3207 3-3 3s-3-1.3207-3-3z" fill="#ff5d5d" transform="translate(0 -988.360017)"/></svg>
