<svg width="16" height="16" version="1.1" viewBox="0 0 16 16" xmlns="http://www.w3.org/2000/svg">
<g transform="translate(0 -1036.4)">
<path transform="translate(0 1036.4)" d="m4 3a1.0001 1.0001 0 0 0 -1 1v8a1.0001 1.0001 0 0 0 1 1h2a1 1 0 0 0 1 -1v-8a1 1 0 0 0 -1 -1h-2zm6 0a1 1 0 0 0 -1 1v8a1 1 0 0 0 1 1h2a1.0001 1.0001 0 0 0 1 -1v-8a1.0001 1.0001 0 0 0 -1 -1h-2z" color="#000000" color-rendering="auto" fill="#e0e0e0" fill-rule="evenodd" image-rendering="auto" shape-rendering="auto" solid-color="#000000" style="block-progression:tb;isolation:auto;mix-blend-mode:normal;text-decoration-color:#000000;text-decoration-line:none;text-decoration-style:solid;text-indent:0;text-transform:none;white-space:normal"/>
</g>
</svg>
