<svg width="16" height="16" version="1.1" viewBox="0 0 16 16" xmlns="http://www.w3.org/2000/svg">
<g transform="translate(0 -1036.4)">
<path transform="translate(0 1036.4)" d="m3 3a1 1 0 0 0 -1 1v8a1 1 0 0 0 1 1h1c0.55226-1e-4 0.99994-0.4477 1-1v-8c-5.5e-5 -0.5523-0.44774-0.9999-1-1h-1zm4.9746 0c-0.54154 0.014-0.97365 0.45635-0.97461 0.99805v8c-3.92e-4 0.8389 0.97003 1.3054 1.625 0.78125l5-4c0.49938-0.4004 0.49938-1.1601 0-1.5605l-5-4c-0.18422-0.1473-0.41459-0.22485-0.65039-0.21875z" color="#000000" color-rendering="auto" dominant-baseline="auto" fill="#e0e0e0" fill-rule="evenodd" image-rendering="auto" shape-rendering="auto" solid-color="#000000" style="font-feature-settings:normal;font-variant-alternates:normal;font-variant-caps:normal;font-variant-east-asian:normal;font-variant-ligatures:normal;font-variant-numeric:normal;font-variant-position:normal;isolation:auto;mix-blend-mode:normal;shape-padding:0;text-decoration-color:#000000;text-decoration-line:none;text-decoration-style:solid;text-indent:0;text-orientation:mixed;text-transform:none;white-space:normal"/>
</g>
</svg>
