<svg width="16" height="16" version="1.1" viewBox="0 0 16 16" xmlns="http://www.w3.org/2000/svg">
<g transform="translate(0 -1036.4)">
<path transform="translate(0 1036.4)" d="m2 1a1.0001 1.0001 0 0 0 -1 1v12a1.0001 1.0001 0 0 0 1 1h12a1.0001 1.0001 0 0 0 1 -1v-12a1.0001 1.0001 0 0 0 -1 -1h-12zm1 2h10v10h-10v-10zm1 1v2h2v-2h-2zm3 0v2h2v-2h-2zm3 0v2h2v-2h-2zm-6 3v2h2v-2h-2zm3 0v2h2v-2h-2zm3 0v2h2v-2h-2zm-6 3v2h2v-2h-2zm3 0v2h2v-2h-2z" color="#000000" color-rendering="auto" dominant-baseline="auto" fill="#e0e0e0" fill-rule="evenodd" image-rendering="auto" shape-rendering="auto" solid-color="#000000" style="filter-blend-mode:normal;filter-gaussianBlur-deviation:0;font-feature-settings:normal;font-variant-alternates:normal;font-variant-caps:normal;font-variant-east-asian:normal;font-variant-ligatures:normal;font-variant-numeric:normal;font-variant-position:normal;isolation:auto;mix-blend-mode:normal;shape-padding:0;text-decoration-color:#000000;text-decoration-line:none;text-decoration-style:solid;text-indent:0;text-orientation:mixed;text-transform:none;white-space:normal"/>
</g>
</svg>
