<?xml version="1.0" encoding="UTF-8" standalone="no"?>
<svg
   xmlns:dc="http://purl.org/dc/elements/1.1/"
   xmlns:cc="http://creativecommons.org/ns#"
   xmlns:rdf="http://www.w3.org/1999/02/22-rdf-syntax-ns#"
   xmlns:svg="http://www.w3.org/2000/svg"
   xmlns="http://www.w3.org/2000/svg"
   xmlns:sodipodi="http://sodipodi.sourceforge.net/DTD/sodipodi-0.dtd"
   xmlns:inkscape="http://www.inkscape.org/namespaces/inkscape"
   width="16"
   height="16"
   version="1.1"
   viewBox="0 0 16 16"
   id="svg6"
   sodipodi:docname="icon_auto_key.svg"
   inkscape:version="0.92.4 (5da689c313, 2019-01-14)">
  <metadata
     id="metadata12">
    <rdf:RDF>
      <cc:Work
         rdf:about="">
        <dc:format>image/svg+xml</dc:format>
        <dc:type
           rdf:resource="http://purl.org/dc/dcmitype/StillImage" />
        <dc:title></dc:title>
      </cc:Work>
    </rdf:RDF>
  </metadata>
  <defs
     id="defs10" />
  <sodipodi:namedview
     pagecolor="#ffffff"
     bordercolor="#666666"
     borderopacity="1"
     objecttolerance="10"
     gridtolerance="10"
     guidetolerance="10"
     inkscape:pageopacity="0"
     inkscape:pageshadow="2"
     inkscape:window-width="1854"
     inkscape:window-height="1016"
     id="namedview8"
     showgrid="false"
     inkscape:zoom="10.429825"
     inkscape:cx="10.199345"
     inkscape:cy="-4.0344119"
     inkscape:window-x="66"
     inkscape:window-y="27"
     inkscape:window-maximized="1"
     inkscape:current-layer="svg6" />
  <path
     style="fill:#e0e0e0;fill-opacity:1;stroke-width:0.0333107"
     d="M 3.5469681,13.426786 C 2.7965829,13.263778 2.2774312,12.503915 2.4037297,11.753472 c 0.1081234,-0.642451 0.6006808,-1.135008 1.2431317,-1.243131 0.9667125,-0.162696 1.8555225,0.726112 1.6928259,1.692826 -0.103766,0.616558 -0.5592173,1.098057 -1.1588427,1.225117 -0.2719576,0.05763 -0.3626872,0.05741 -0.6338765,-0.0014 z m 8.0861339,-0.08275 c -0.746862,-0.13829 -1.23937,-0.720718 -1.23937,-1.465649 0,-0.527377 0.244831,-0.978806 0.679757,-1.253362 0.471386,-0.297574 1.114188,-0.297574 1.585574,0 0.682727,0.430986 0.892336,1.362194 0.460575,2.046149 -0.307786,0.487563 -0.940521,0.773963 -1.486536,0.672862 z M 0.60726032,9.8305658 V 7.7161233 L 1.1770842,7.7070075 1.7469079,7.6978939 3.1889882,5.1995916 4.6310686,2.7012893 h 3.1726318 3.1726316 l 1.442755,2.4983023 1.442755,2.4983023 0.651097,0.00903 0.651096,0.00903 v 2.1145264 2.1145257 h -0.566282 -0.566281 v -0.161225 c 0,-0.234927 -0.113135,-0.639704 -0.255664,-0.914727 -0.16895,-0.326004 -0.574198,-0.731251 -0.900202,-0.9002019 -0.656732,-0.3403483 -1.428549,-0.3403483 -2.085281,0 -0.326004,0.1689519 -0.731252,0.5741989 -0.9002019,0.9002029 -0.1425297,0.275023 -0.2556639,0.6798 -0.2556639,0.914727 v 0.161225 H 7.8570969 6.0797346 L 6.0617736,11.686851 C 6.006289,10.889347 5.447548,10.170679 4.6603773,9.884336 4.4466221,9.8065798 4.3737631,9.797427 3.9716406,9.7978134 3.5871254,9.7981885 3.4905638,9.809405 3.3054265,9.8752358 2.5067319,10.159236 1.9362359,10.884501 1.8813215,11.68568 l -0.017772,0.259329 H 1.2354063 0.60726287 Z M 12.399247,7.7466889 c 0,-0.037287 -0.02623,-0.1073444 -0.0583,-0.1556843 -0.03206,-0.04834 -0.561225,-0.958444 -1.17592,-2.0224529 L 10.047407,3.6339894 7.6977565,3.6254406 C 5.4917229,3.6174174 5.3450379,3.6204563 5.2979001,3.6754094 5.1898818,3.8013046 2.9723198,7.6840061 2.9723198,7.7472381 c 0,0.067139 0.00758,0.067247 4.7134636,0.067247 h 4.7134636 z"
     id="path6243"
     inkscape:connector-curvature="0" />
</svg>
