<svg id="svg2" width="16" height="16" version="1.1" viewBox="0 0 16 16" xmlns="http://www.w3.org/2000/svg" xmlns:cc="http://creativecommons.org/ns#" xmlns:dc="http://purl.org/dc/elements/1.1/" xmlns:rdf="http://www.w3.org/1999/02/22-rdf-syntax-ns#">
<g id="g4" transform="translate(0 -1036.4)" fill="#9c27b0">
<path id="path6" transform="translate(0 1036.4)" d="m2 1a1 1 0 0 0-1 1v12a1 1 0 0 0 1 1h12a1 1 0 0 0 1-1v-12a1 1 0 0 0-1-1h-12zm1 2h10v8h-10v-8zm6 2-1.5 2.5-0.70117 1.168-0.099609-0.16797-0.89844-1.5-1.8008 3h8l-3-5z" fill="#9c27b0"/>
</g>
</svg>
