<svg width="16" height="16" version="1.1" viewBox="0 0 16 16" xmlns="http://www.w3.org/2000/svg">
<g transform="translate(0 -1036.4)">
<path transform="translate(0 1036.4)" d="m1 1v2h2v-2h-2zm2 2v2h2v-2h-2zm2 0h2v-2h-2v2zm2 0v2h2v-2h-2zm2 0h2v-2h-2v2zm2 0v2h2v-2h-2zm2 0h2v-2h-2v2zm0 2v2h2v-2h-2zm0 2h-2v2h2v-2zm0 2v2h2v-2h-2zm0 2h-2v2h2v-2zm0 2v2h2v-2h-2zm-2 0h-2v2h2v-2zm-2 0v-2h-2v2h2zm-2 0h-2v2h2v-2zm-2 0v-2h-2v2h2zm-2 0h-2v2h2v-2zm0-2v-2h-2v2h2zm0-2h2v-2h-2v2zm0-2v-2h-2v2h2zm2 0h2v-2h-2v2zm2 0v2h2v-2h-2zm2 0h2v-2h-2v2zm0 2v2h2v-2h-2zm-2 0h-2v2h2v-2z" fill="#e0e0e0"/>
</g>
</svg>
