<svg width="16" height="16" version="1.1" viewBox="0 0 16 16" xmlns="http://www.w3.org/2000/svg">
<g transform="translate(0 -1036.4)">
<path transform="translate(0 1036.4)" d="m3 2c-1.1046 0-2 0.8954-2 2v9c0 1.1046 0.89543 2 2 2h9c1.1046 0 1.8184-0.91043 2-2l1-6c0.003977-0.18354-0.042648-0.3412-0.13477-0.5-0.17849-0.30916-0.50825-0.49972-0.86523-0.5h-8c-0.35698 2.824e-4 -0.68674 0.19084-0.86523 0.5-0.092118 0.1588-0.13874 0.3399-0.13477 0.52344l-1 5.9766c-0.091144 0.54473-0.44772 1-1 1s-1-0.4477-1-1v-9c0-0.5523 0.44772-1 1-1h2c0.55228 0 1 0.4477 1 1a1 1 0 0 0 0.29297 0.70703 1 1 0 0 0 0.70703 0.29297h4 1a1 1 0 0 0 -0.29297 -0.70703 1 1 0 0 0 -0.70703 -0.29297h-4c0-1.1046-0.89543-2-2-2h-2z" fill="#e0e0e0"/>
</g>
</svg>
