<svg width="32" height="128" version="1.1" viewBox="0 0 32 128" xmlns="http://www.w3.org/2000/svg" xmlns:xlink="http://www.w3.org/1999/xlink">
<defs>
<linearGradient id="a" x1="16" x2="16" y2="128" gradientUnits="userSpaceOnUse">
<stop stop-color="#ff8484" offset="0"/>
<stop stop-color="#e1dc7a" offset=".5"/>
<stop stop-color="#84ffb1" offset="1"/>
</linearGradient>
</defs>
<g transform="translate(0 -924.36)">
<path transform="translate(0 924.36)" d="m1.5 0c-0.831 0-1.5 0.669-1.5 1.5 0 0.831 0.669 1.5 1.5 1.5h2c0.831 0 1.5-0.669 1.5-1.5 0-0.831-0.669-1.5-1.5-1.5h-2zm0 7c-0.831 0-1.5 0.669-1.5 1.5s0.669 1.5 1.5 1.5 1.5-0.669 1.5-1.5-0.669-1.5-1.5-1.5zm22.5 3.75c-1.5 0-3 1.3056-3 3.25-0.01912 1.3523 2.0191 1.3523 2 0 0-1.0556 0.5-1.25 1-1.25s1 0.19444 1 1.25c0 0.59157-0.35893 1.156-1.1914 1.8633-0.83248 0.70724-2.0616 1.4518-3.3574 2.3008-0.82974 0.54516-0.44398 1.8356 0.54883 1.8359h5c1.3523 0.01912 1.3523-2.0191 0-2h-1.7852c0.28375-0.20667 0.63106-0.39443 0.88867-0.61328 1.0302-0.87519 1.8965-1.9783 1.8965-3.3867 0-1.9444-1.5-3.25-3-3.25zm-7.0293 0.25195c-0.14519 0.0037-0.28782 0.03907-0.41797 0.10352l-2 1c-1.1924 0.59646-0.29787 2.3855 0.89453 1.7891l0.55273-0.27539v5.3809c-0.01913 1.3523 2.0191 1.3523 2 0v-7c-9.16e-4 -0.56314-0.4664-1.0145-1.0293-0.99805zm-15.471 2.998c-0.831 0-1.5 0.669-1.5 1.5s0.669 1.5 1.5 1.5h2c0.831 0 1.5-0.669 1.5-1.5s-0.669-1.5-1.5-1.5h-2zm0 7c-0.831 0-1.5 0.669-1.5 1.5s0.669 1.5 1.5 1.5 1.5-0.669 1.5-1.5-0.669-1.5-1.5-1.5zm21.5 3c-0.554 0-1 0.446-1 1v1 2h-0.92969c-0.02343-8.24e-4 -0.046882-8.24e-4 -0.070312 0-1.0702 0-2.0626 0.57318-2.5977 1.5-0.5351 0.92681-0.5351 2.0732 0 3 0.5351 0.92681 1.5275 1.5 2.5977 1.5h2c0.554 0 1-0.446 1-1v-8c0-0.554-0.446-1-1-1zm4 0c-0.554 0-1 0.446-1 1v8c0 0.554 0.446 1 1 1h2c1.0702 0 2.0626-0.57319 2.5977-1.5 0.5351-0.92682 0.5351-2.0732 0-3-0.10504-0.18193-0.23173-0.34698-0.36914-0.5 0.1378-0.15331 0.26385-0.31764 0.36914-0.5 0.5351-0.92682 0.5351-2.0732 0-3-0.5351-0.92682-1.5275-1.5-2.5977-1.5h-2zm-14 1c-1.6447 0-3 1.3553-3 3v3c0 1.6447 1.3553 3 3 3s3-1.3553 3-3v-3c0-1.6447-1.3553-3-3-3zm15 1h1c0.35887 0 0.6858 0.18921 0.86523 0.5 0.17944 0.31079 0.17944 0.68921 0 1-0.17943 0.31079-0.50636 0.5-0.86523 0.5h-0.070312-0.92969v-2zm-15 1c0.5713 0 1 0.4287 1 1v3c0 0.5713-0.4287 1-1 1s-1-0.4287-1-1v-3c0-0.5713 0.4287-1 1-1zm-11.5 1c-0.831 0-1.5 0.669-1.5 1.5s0.669 1.5 1.5 1.5h2c0.831 0 1.5-0.669 1.5-1.5s-0.669-1.5-1.5-1.5h-2zm19.5 2h1v2h-0.92969c-0.02343-8.24e-4 -0.046882-8.24e-4 -0.070312 0-0.35887 0-0.6858-0.18921-0.86523-0.5-0.17944-0.31079-0.17944-0.68921 0-1 0.17943-0.31079 0.50636-0.5 0.86523-0.5zm7 0h1c0.35887 0 0.6858 0.18921 0.86523 0.5 0.17944 0.31079 0.17944 0.68921 0 1-0.17943 0.31079-0.50636 0.5-0.86523 0.5h-1v-2zm-26.5 5c-0.831 0-1.5 0.669-1.5 1.5s0.669 1.5 1.5 1.5 1.5-0.669 1.5-1.5-0.669-1.5-1.5-1.5zm22.5 2.75c-1.5 0-3 1.3056-3 3.25-0.01912 1.3523 2.0191 1.3523 2 0 0-1.0556 0.5-1.25 1-1.25s1 0.19444 1 1.25c0 0.59157-0.35893 1.156-1.1914 1.8633-0.83248 0.70724-2.0616 1.4518-3.3574 2.3008-0.82974 0.54516-0.44398 1.8356 0.54883 1.8359h5c1.3523 0.01913 1.3523-2.0191 0-2h-1.7852c0.28375-0.20667 0.63106-0.39443 0.88867-0.61328 1.0302-0.87519 1.8965-1.9783 1.8965-3.3867 0-1.9444-1.5-3.25-3-3.25zm-7.0293 0.25195c-0.14519 0.0037-0.28782 0.03907-0.41797 0.10352l-2 1c-1.1924 0.59646-0.29787 2.3855 0.89453 1.7891l0.55273-0.27539v5.3809c-0.01913 1.3523 2.0191 1.3523 2 0v-7c-9.16e-4 -0.56314-0.4664-1.0145-1.0293-0.99805zm-15.471 3.998c-0.831 0-1.5 0.669-1.5 1.5s0.669 1.5 1.5 1.5h2c0.831 0 1.5-0.669 1.5-1.5s-0.669-1.5-1.5-1.5h-2zm7.5 1v2h3v-2h-3zm-7 6c-0.831 0-1.5 0.669-1.5 1.5s0.669 1.5 1.5 1.5 1.5-0.669 1.5-1.5-0.669-1.5-1.5-1.5zm15.986 3.75c-1.5 0-3 1.3056-3 3.25-0.01913 1.3523 2.0191 1.3523 2 0 0-1.0556 0.5-1.25 1-1.25s1 0.19444 1 1.25c0 0.59157-0.35893 1.156-1.1914 1.8633s-2.0616 1.4518-3.3574 2.3008c-0.82974 0.54516-0.44398 1.8356 0.54883 1.8359h5c1.3523 0.01913 1.3523-2.0191 0-2h-1.7871c0.2841-0.20689 0.63273-0.39419 0.89062-0.61328 1.0302-0.87519 1.8965-1.9783 1.8965-3.3867 0-1.9444-1.5-3.25-3-3.25zm7.0469 0.23828c-0.36561-0.0093-0.70715 0.18167-0.89062 0.49805l-3 5c-0.39877 0.66633 0.080888 1.5131 0.85742 1.5137h3v1c-0.01912 1.3523 2.0191 1.3523 2 0v-2c-5.5e-5 -0.55226-0.44774-0.99994-1-1h-2.2324l2.0898-3.4844c0.40768-0.65656-0.05163-1.5077-0.82422-1.5273zm-23.533 3.0117c-0.831 0-1.5 0.669-1.5 1.5s0.669 1.5 1.5 1.5h2c0.831 0 1.5-0.669 1.5-1.5s-0.669-1.5-1.5-1.5h-2zm7.5 2v2h3v-2h-3zm-7.5 5c-0.831 0-1.5 0.669-1.5 1.5s0.669 1.5 1.5 1.5 1.5-0.669 1.5-1.5-0.669-1.5-1.5-1.5zm24.547 4.9961c-0.12355-0.0037-0.24673 0.01547-0.36328 0.05664 0 0-0.98349 0.3331-1.8906 1.2402-0.90714 0.90717-1.793 2.457-1.793 4.707-6.13e-4 0.07218 0.006604 0.14421 0.021484 0.21484 0.11389 1.5445 1.4072 2.7852 2.9785 2.7852 1.645 0 3-1.355 3-3 0-1.645-1.355-3-3-3-0.01533 0-0.029642 0.003706-0.044922 0.003906 0.084-0.10099 0.16695-0.21188 0.25195-0.29688 0.59286-0.59287 1.1094-0.75781 1.1094-0.75781 1.0726-0.33926 0.85487-1.9171-0.26953-1.9531zm-9.0605 0.005859c-1.0407 0.006928-2.0405 0.55674-2.584 1.498a1 1 0 0 0 0.36523 1.3672 1 1 0 0 0 1.3672 -0.36719c0.24596-0.42602 0.74477-0.6077 1.207-0.43945 0.46226 0.16824 0.728 0.62882 0.64258 1.1133-0.085422 0.48445-0.49245 0.82617-0.98438 0.82617a1 1 0 0 0 -1 1 1 1 0 0 0 1 1c0.49193 0 0.89896 0.34368 0.98438 0.82812 0.085422 0.48446-0.18032 0.94508-0.64258 1.1133-0.46226 0.1683-0.96107-0.015436-1.207-0.44141-0.27644-0.47871-0.88884-0.6423-1.3672-0.36523-0.47752 0.27639-0.64095 0.88733-0.36523 1.3652 0.72462 1.2553 2.2612 1.816 3.623 1.3203 1.3618-0.4956 2.1813-1.9126 1.9297-3.3398-0.1003-0.56884-0.37254-1.0676-0.74023-1.4746 0.37098-0.40777 0.63937-0.91234 0.74023-1.4844 0.25166-1.4272-0.56786-2.8442-1.9297-3.3398-0.34046-0.12392-0.69218-0.182-1.0391-0.17969zm-15.486 1.998c-0.831 0-1.5 0.669-1.5 1.5s0.669 1.5 1.5 1.5h2c0.831 0 1.5-0.669 1.5-1.5s-0.669-1.5-1.5-1.5h-2zm7.5 2v2h3v-2h-3zm16 1c0.56413 0 1 0.43587 1 1s-0.43587 1-1 1-1-0.43587-1-1 0.43587-1 1-1zm-23.5 4c-0.831 0-1.5 0.669-1.5 1.5s0.669 1.5 1.5 1.5 1.5-0.669 1.5-1.5-0.669-1.5-1.5-1.5zm16.533 3.9883c-0.36561-0.0093-0.70715 0.18167-0.89062 0.49805l-3 5c-0.39877 0.66633 0.080888 1.5131 0.85742 1.5137h3v1c-0.01912 1.3523 2.0191 1.3523 2 0v-2c-5.5e-5 -0.55226-0.44774-0.99994-1-1h-2.2324l2.0898-3.4844c0.40768-0.65656-0.05163-1.5077-0.82422-1.5273zm6.9668 0.011719c-1.645 0-3 1.355-3 3 0 0.769 0.30369 1.4666 0.78711 2-0.48282 0.53332-0.78711 1.2315-0.78711 2 0 1.645 1.355 3 3 3s3-1.355 3-3c0-0.76846-0.30429-1.4667-0.78711-2 0.48342-0.53345 0.78711-1.231 0.78711-2 0-1.645-1.355-3-3-3zm0 2c0.56413 0 1 0.4359 1 1 0 0.5642-0.43587 1-1 1s-1-0.4358-1-1c0-0.5641 0.43587-1 1-1zm-23.5 1c-0.831 0-1.5 0.669-1.5 1.5s0.669 1.5 1.5 1.5h2c0.831 0 1.5-0.669 1.5-1.5s-0.669-1.5-1.5-1.5h-2zm7.5 2v2h3v-2h-3zm16 1c0.56413 0 1 0.4359 1 1 0 0.5642-0.43587 1-1 1s-1-0.4358-1-1c0-0.5641 0.43587-1 1-1zm-23.5 4c-0.831 0-1.5 0.669-1.5 1.5s0.669 1.5 1.5 1.5 1.5-0.669 1.5-1.5-0.669-1.5-1.5-1.5zm16.447 3.9824c-0.08995 0.0063-0.17865 0.024647-0.26367 0.054687 0 0-0.98349 0.33509-1.8906 1.2422-0.90714 0.9068-1.793 2.457-1.793 4.707-6.13e-4 0.0722 0.006604 0.14421 0.021484 0.21484 0.11389 1.5445 1.4072 2.7852 2.9785 2.7852 1.645 0 3-1.355 3-3 0-1.6451-1.355-3-3-3-0.01533 0-0.029642 0.003706-0.044922 0.003906 0.084-0.10099 0.16695-0.21187 0.25195-0.29688 0.59286-0.5929 1.1094-0.75781 1.1094-0.75781 1.0726-0.33926 0.85487-1.9171-0.26953-1.9531-0.03318-0.0017-0.066429-0.0017-0.099609 0zm7.0527 0.017578c-1.6447 0-3 1.3553-3 3v3c0 1.6447 1.3553 3 3 3s3-1.3553 3-3v-3c0-1.6447-1.3553-3-3-3zm0 2c0.5713 0 1 0.4287 1 1v3c0 0.5713-0.4287 1-1 1s-1-0.4287-1-1v-3c0-0.5713 0.4287-1 1-1zm-23.5 1c-0.831 0-1.5 0.669-1.5 1.5 0 0.831 0.669 1.5 1.5 1.5h2c0.831 0 1.5-0.669 1.5-1.5 0-0.831-0.669-1.5-1.5-1.5h-2zm15.5 1.9863c0.56413 0 1 0.4358 1 1 0 0.5641-0.43587 1-1 1s-1-0.4359-1-1c0-0.5642 0.43587-1 1-1zm-8 0.013672v2h3v-2h-3zm-7.5 5c-0.831 0-1.5 0.669-1.5 1.5s0.669 1.5 1.5 1.5 1.5-0.669 1.5-1.5-0.669-1.5-1.5-1.5zm22.5 3.75c-1.5 0-3 1.3056-3 3.25-0.01912 1.3523 2.0191 1.3523 2 0 0-1.0555 0.5-1.25 1-1.25s1 0.1945 1 1.25c0 0.5916-0.35893 1.1561-1.1914 1.8633-0.83248 0.7072-2.0616 1.4518-3.3574 2.3008-0.82975 0.54515-0.44398 1.8356 0.54883 1.8359h5c1.3523 0.0191 1.3523-2.0191 0-2h-1.7852c0.28375-0.2066 0.63106-0.39438 0.88867-0.61328 1.0302-0.8751 1.8965-1.9782 1.8965-3.3867 0-1.9444-1.5-3.25-3-3.25zm-10 0.25c-1.3523-0.0191-1.3523 2.0191 0 2h3.3828l-3.2773 6.5527c-0.59596 1.1926 1.1931 2.0871 1.7891 0.89454l4-8c0.33239-0.66495-0.15113-1.4472-0.89453-1.4473h-5zm-12.5 3c-0.831 0-1.5 0.669-1.5 1.5s0.669 1.5 1.5 1.5h2c0.831 0 1.5-0.669 1.5-1.5s-0.669-1.5-1.5-1.5h-2zm7.5 2v2h3v-2h-3zm-7.5 5c-0.831 0-1.5 0.669-1.5 1.5s0.669 1.5 1.5 1.5 1.5-0.669 1.5-1.5-0.669-1.5-1.5-1.5z" fill="url(#a)"/>
</g>
</svg>
