<svg width="16" height="16" version="1.1" viewBox="0 0 16 16" xmlns="http://www.w3.org/2000/svg">
<g transform="translate(0 -1036.4)">
<path d="m7.9964 1037.4a1.0002 1.0001 0 0 0 -0.77739 0.377l-4.0002 5a1.0001 1 0 0 0 0.15626 1.4043 1.0001 1 0 0 0 1.4063 -0.1563l2.2189-2.7734v5.1484a1.0001 1 0 0 0 1.0001 1 1.0001 1 0 0 0 1.0001 -1v-5.1484l2.2189 2.7734a1.0001 1 0 0 0 1.4063 0.1563 1.0001 1 0 0 0 0.15626 -1.4043l-4.0002-5a1.0002 1.0001 0 0 0 -0.7852 -0.377zm0.00391 12a1.0001 1 0 0 0 -1.0001 1 1.0001 1 0 0 0 1.0001 1 1.0001 1 0 0 0 1.0001 -1 1.0001 1 0 0 0 -1.0001 -1z" color="#000000" color-rendering="auto" dominant-baseline="auto" fill="#e0e0e0" fill-opacity=".99608" image-rendering="auto" shape-rendering="auto" solid-color="#000000" style="font-feature-settings:normal;font-variant-alternates:normal;font-variant-caps:normal;font-variant-east-asian:normal;font-variant-ligatures:normal;font-variant-numeric:normal;font-variant-position:normal;isolation:auto;mix-blend-mode:normal;shape-padding:0;text-decoration-color:#000000;text-decoration-line:none;text-decoration-style:solid;text-indent:0;text-orientation:mixed;text-transform:none;white-space:normal"/>
</g>
</svg>
