<?xml version="1.0" encoding="UTF-8" standalone="no"?>
<svg
   xmlns:dc="http://purl.org/dc/elements/1.1/"
   xmlns:cc="http://creativecommons.org/ns#"
   xmlns:rdf="http://www.w3.org/1999/02/22-rdf-syntax-ns#"
   xmlns:svg="http://www.w3.org/2000/svg"
   xmlns="http://www.w3.org/2000/svg"
   xmlns:sodipodi="http://sodipodi.sourceforge.net/DTD/sodipodi-0.dtd"
   xmlns:inkscape="http://www.inkscape.org/namespaces/inkscape"
   width="16"
   height="16"
   version="1.1"
   viewBox="0 0 16 16"
   id="svg8"
   sodipodi:docname="icon_tool_add_node.svg"
   inkscape:version="0.92.3 (2405546, 2018-03-11)">
  <metadata
     id="metadata14">
    <rdf:RDF>
      <cc:Work
         rdf:about="">
        <dc:format>image/svg+xml</dc:format>
        <dc:type
           rdf:resource="http://purl.org/dc/dcmitype/StillImage" />
        <dc:title></dc:title>
      </cc:Work>
    </rdf:RDF>
  </metadata>
  <defs
     id="defs12" />
  <sodipodi:namedview
     pagecolor="#ffffff"
     bordercolor="#666666"
     borderopacity="1"
     objecttolerance="10"
     gridtolerance="10"
     guidetolerance="10"
     inkscape:pageopacity="0"
     inkscape:pageshadow="2"
     inkscape:window-width="1516"
     inkscape:window-height="747"
     id="namedview10"
     showgrid="false"
     inkscape:zoom="14.75"
     inkscape:cx="8"
     inkscape:cy="8"
     inkscape:window-x="67"
     inkscape:window-y="27"
     inkscape:window-maximized="0"
     inkscape:current-layer="g4" />
  <g
     transform="translate(0 -1036.4)"
     id="g6">
    <g
       transform="translate(-26.001 -9.8683)"
       id="g4">
      <path
         style="fill:#e0e0e0;fill-opacity:1"
         d="m 27.917081,1047.5557 c -0.422624,0 -0.763672,0.3411 -0.763672,0.7637 v 11.8301 c 0,0.4226 0.341048,0.7637 0.763672,0.7637 h 12.507813 c 0.422624,0 0.761719,-0.3411 0.761719,-0.7637 v -11.8301 c 0,-0.4226 -0.339095,-0.7637 -0.761719,-0.7637 z m 1.898438,1.6954 h 8.642578 c 0.422624,0 0.763672,0.341 0.763672,0.7636 v 8.5078 c 0,0.4227 -0.341048,0.7618 -0.763672,0.7618 h -8.642578 c -0.422625,0 -0.763672,-0.3391 -0.763672,-0.7618 v -8.5078 c 0,-0.4226 0.341047,-0.7636 0.763672,-0.7636 z"
         id="rect821"
         inkscape:connector-curvature="0" />
      <rect
         style="fill:#e0e0e0;fill-opacity:1"
         id="rect826"
         width="7.7966104"
         height="2.3728814"
         x="30.20439"
         y="1052.9802"
         ry="0.76286" />
      <rect
         style="fill:#e0e0e0;fill-opacity:1;stroke-width:0.88253576"
         id="rect828"
         width="2.3728814"
         height="7.5254235"
         x="32.916256"
         y="1050.3361"
         ry="0.72997814" />
    </g>
  </g>
</svg>
