<svg width="16" height="16" version="1.1" viewBox="0 0 16 16" xmlns="http://www.w3.org/2000/svg">
<g transform="translate(0 -1036.4)" stroke-linecap="round" stroke-linejoin="round" stroke-width="2">
<path transform="translate(0 1036.4)" d="m8 1a7 7 0 0 0 -7 7 7 7 0 0 0 7 7 7 7 0 0 0 7 -7 7 7 0 0 0 -7 -7zm-1.7305 2.3125c-0.83125 1.5372-1.2685 3.1037-1.2695 4.6816-0.64057-0.11251-1.3005-0.27158-1.9766-0.47266a5 5 0 0 1 3.2461 -4.209zm3.4629 0.0039062a5 5 0 0 1 3.2383 4.1875c-0.65187 0.17448-1.3077 0.32867-1.9727 0.44922-0.00845-1.5627-0.44294-3.1141-1.2656-4.6367zm-1.7324 0.0078126c1.0126 1.593 1.5 3.1425 1.5 4.6758 0 0.054042-0.0066161 0.10803-0.0078125 0.16211-0.96392 0.096801-1.9566 0.1103-2.9844 0.027344-0.0016335-0.063192-0.0078125-0.12632-0.0078125-0.18945 0-1.5333 0.48744-3.0828 1.5-4.6758zm4.8789 5.7578a5 5 0 0 1 -3.1484 3.6055c0.57106-1.0564 0.95277-2.1268 1.1367-3.2051 0.68204-0.10905 1.3556-0.23789 2.0117-0.40039zm-9.7461 0.033203c0.68377 0.18153 1.3555 0.33345 2.0098 0.43164 0.18781 1.0551 0.56647 2.1026 1.125 3.1367a5 5 0 0 1 -3.1348 -3.5684zm6.168 0.55469c-0.22615 0.98866-0.65424 1.9884-1.3008 3.0059-0.63811-1.0042-1.0645-1.9908-1.293-2.9668 0.89027 0.054126 1.7517 0.029377 2.5938-0.039062z" fill="#fc9c9c" fill-opacity=".99608"/>
<path transform="translate(0 1036.4)" d="m8 1v2.3242c1.0126 1.593 1.5 3.1425 1.5 4.6758 0 0.054042-0.0066161 0.10803-0.0078125 0.16211-0.4894 0.049148-0.98713 0.077552-1.4922 0.082031v1.4922c0.43915-0.0075968 0.87287-0.031628 1.3008-0.066406-0.22615 0.98866-0.65424 1.9884-1.3008 3.0059v2.3242a7 7 0 0 0 7 -7 7 7 0 0 0 -7 -7zm1.7324 2.3164a5 5 0 0 1 3.2383 4.1875c-0.65187 0.17448-1.3077 0.32867-1.9727 0.44922-0.00845-1.5627-0.44294-3.1141-1.2656-4.6367zm3.1465 5.7656a5 5 0 0 1 -3.1484 3.6055c0.57106-1.0564 0.95277-2.1268 1.1367-3.2051 0.68204-0.10905 1.3556-0.23789 2.0117-0.40039z" fill="#a5b7f3"/>
</g>
</svg>
