<svg width="16" height="16" version="1.1" viewBox="0 0 16 16" xmlns="http://www.w3.org/2000/svg">
<path d="m2 1c-0.554 0-1 0.446-1 1v6c0 0.554 0.446 1 1 1h12c0.554 0 1-0.446 1-1v-6c0-0.554-0.446-1-1-1h-12zm2 1h2v2h2v2h-2v2h-2v-2h-2v-2h2v-2zm9 1c0.55228 0 1 0.44772 1 1s-0.44772 1-1 1-1-0.44772-1-1 0.44772-1 1-1zm-2 2c0.55228 0 1 0.44772 1 1s-0.44772 1-1 1-1-0.44772-1-1 0.44772-1 1-1zm-7 7v1c0 0.55228 0.44772 1 1 1-0.55228 0-1 0.44772-1 1v1h1v-1h1v1h1v-1c0-0.55228-0.44772-1-1-1 0.55228 0 1-0.44772 1-1v-1h-1v1h-1v-1h-1zm5 0v1 3h1v-1h1v1h1v-1c-8.34e-4 -0.17579-0.047991-0.34825-0.13672-0.5 0.088728-0.15175 0.13588-0.32421 0.13672-0.5v-1c0-0.55228-0.44772-1-1-1h-1-1zm1 1h1v1h-1v-1z" fill="#fc9c9c"/>
</svg>
