<svg height="16" viewBox="0 0 16 16" width="16" xmlns="http://www.w3.org/2000/svg"><path d="m3.1035 3a7 7 0 0 0 -1.418 2h12.631a7 7 0 0 0 -1.4277-2h-9.7852z" fill="#ffeb70"/><path d="m1.6855 5a7 7 0 0 0 -.60547 2h13.842a7 7 0 0 0 -.60547-2h-12.631z" fill="#9dff70"/><path d="m1.0801 7a7 7 0 0 0 -.080078 1 7 7 0 0 0 .078125 1h13.842a7 7 0 0 0 .080078-1 7 7 0 0 0 -.078125-1z" fill="#70ffb9"/><path d="m1.0781 9a7 7 0 0 0 .60547 2h12.631a7 7 0 0 0 .60547-2h-13.842z" fill="#70deff"/><path d="m3.1113 13a7 7 0 0 0 4.8887 2 7 7 0 0 0 4.8965-2z" fill="#ff70ac"/><path d="m1.6836 11a7 7 0 0 0 1.4277 2h9.7852a7 7 0 0 0 1.418-2h-12.631z" fill="#9f70ff"/><path d="m8 1a7 7 0 0 0 -4.8965 2h9.7852a7 7 0 0 0 -4.8887-2z" fill="#ff7070"/></svg>
