<svg width="16" height="16" version="1.1" viewBox="0 0 16 16" xmlns="http://www.w3.org/2000/svg">
<path d="m13 1c-1.108 0-2 0.892-2 2v2h-1v2h1v5a2 2 0 0 0 1 1.7285v1.2715h2v-1.2695a2 2 0 0 0 1 -1.7305v-5h1v-2h-1v-2c0-1.108-0.892-2-2-2zm-9 1v3.1328l-1.4453-0.96484-1.1094 1.6641 3 2c0.3359 0.2239 0.77347 0.2239 1.1094 0l3-2-1.1094-1.6641-1.4453 0.96484v-3.1328h-2zm8 5h2v5a1 1 0 0 1 -1 1 1 1 0 0 1 -1 -1v-5zm-8.5 3c-0.831 0-1.5 0.669-1.5 1.5v0.5 1h-1v2h8v-2h-1v-1-0.5c0-0.831-0.669-1.5-1.5-1.5h-3z" fill="#a5efac"/>
</svg>
