<svg width="16" height="16" version="1.1" viewBox="0 0 16 16" xmlns="http://www.w3.org/2000/svg">
<path d="m6.0215 3c-0.40133-0.0028518-0.79916 0.074854-1.1699 0.22852-1.1208 0.46444-1.8516 1.5582-1.8516 2.7715v7h2v-3h2v-2h-2v-2c0-0.55228 0.44772-1 1-1 0.2652 4.01e-5 0.51953 0.10542 0.70703 0.29297l1.4141-1.4141c-0.55724-0.5574-1.3115-0.87312-2.0996-0.87891zm2.9785 3c-1.3263 2.6586-1.3404 4.3252 0 7h2c-1.3404-2.6748-1.3263-4.3414 0-7h-2zm4 0c1.3263 2.6586 1.3404 4.3252 0 7h2c1.3404-2.6748 1.3263-4.3414 0-7h-2zm-12 5a1 1 0 0 0 -1 1 1 1 0 0 0 1 1 1 1 0 0 0 1 -1 1 1 0 0 0 -1 -1z" fill="#e0e0e0" stroke-width="0"/>
</svg>
