<svg width="16" height="16" version="1.1" viewBox="0 0 16 16" xmlns="http://www.w3.org/2000/svg">
<g transform="translate(0 -1036.4)">
<path transform="translate(0 1036.4)" d="m3 3c-1.1046 0-2 0.89543-2 2v6c0 1.1046 0.89543 2 2 2h5 1 1 2 1c1.1046 0 2-0.89543 2-2v-6c0-1.1046-0.89543-2-2-2h-1-2-1-1-5zm8 2.9863a1.0001 1.0001 0 0 1 0.7168 1.7207l-3 3a1.0001 1.0001 0 0 1 -1.4141 0l-3-3a1.0001 1.0001 0 0 1 0.69727 -1.7168 1.0001 1.0001 0 0 1 0.7168 0.30273l2.293 2.293 2.293-2.293a1.0001 1.0001 0 0 1 0.69727 -0.30664z" fill="#a5efac"/>
<rect x="4" y="1042.4" width="4" height="4" fill="none"/>
</g>
</svg>
