<svg width="16" height="16" version="1.1" viewBox="0 0 16 16" xmlns="http://www.w3.org/2000/svg">
<g transform="translate(0 -1036.4)">
<path transform="translate(0 1036.4)" d="m1 1v3h1v-2h2v-1h-3zm11 0v1h2v2h1v-3h-3zm-4 1c-2.5567 0-5.7907 1.9477-6.9551 5.7051a1.0001 1.0001 0 0 0 -0.0058594 0.57031c1.1244 3.9354 4.4609 5.7246 6.9609 5.7246s5.8365-1.7892 6.9609-5.7246a1.0001 1.0001 0 0 0 0 -0.55273c-1.1003-3.7876-4.4066-5.7227-6.9609-5.7227zm0 2a4 4 0 0 1 4 4 4 4 0 0 1 -4 4 4 4 0 0 1 -4 -4 4 4 0 0 1 4 -4zm0 2a2 2 0 0 0 -2 2 2 2 0 0 0 2 2 2 2 0 0 0 2 -2 2 2 0 0 0 -2 -2zm-7 6v3h3v-1h-2v-2h-1zm13 0v2h-2v1h3v-3h-1z" color="#000000" color-rendering="auto" fill="#a5b7f3" fill-opacity=".98824" fill-rule="evenodd" image-rendering="auto" shape-rendering="auto" solid-color="#000000" style="isolation:auto;mix-blend-mode:normal;text-decoration-color:#000000;text-decoration-line:none;text-decoration-style:solid;text-indent:0;text-transform:none;white-space:normal"/>
</g>
</svg>
