<svg width="16" height="16" version="1.1" viewBox="0 0 16 16" xmlns="http://www.w3.org/2000/svg">
<path d="m8 2a6 6 0 0 0 -6 6 6 6 0 0 0 6 6 6 6 0 0 0 4 -1.5352v1.5352h0.001953a2 2 0 0 0 0.26562 1 2 2 0 0 0 1.7324 1h1v-1-1h-0.5a0.5 0.49999 0 0 1 -0.5 -0.5v-0.5-5a6 6 0 0 0 -6 -6zm0 1a1 1 0 0 1 1 1 1 1 0 0 1 -1 1 1 1 0 0 1 -1 -1 1 1 0 0 1 1 -1zm3.4414 2a1 1 0 0 1 0.88867 0.5 1 1 0 0 1 -0.36523 1.3652 1 1 0 0 1 -1.3672 -0.36523 1 1 0 0 1 0.36719 -1.3652 1 1 0 0 1 0.47656 -0.13477zm-6.9531 0.0019531a1 1 0 0 1 0.54688 0.13281 1 1 0 0 1 0.36719 1.3652 1 1 0 0 1 -1.3672 0.36523 1 1 0 0 1 -0.36523 -1.3652 1 1 0 0 1 0.81836 -0.49805zm0.023438 3.998a1 1 0 0 1 0.89062 0.5 1 1 0 0 1 -0.36719 1.3652 1 1 0 0 1 -1.3652 -0.36523 1 1 0 0 1 0.36523 -1.3652 1 1 0 0 1 0.47656 -0.13477zm6.9043 0.0019531a1 1 0 0 1 0.54883 0.13281 1 1 0 0 1 0.36523 1.3652 1 1 0 0 1 -1.3652 0.36523 1 1 0 0 1 -0.36719 -1.3652 1 1 0 0 1 0.81836 -0.49805zm-3.416 1.998a1 1 0 0 1 1 1 1 1 0 0 1 -1 1 1 1 0 0 1 -1 -1 1 1 0 0 1 1 -1z" fill="#e0e0e0"/>
</svg>
