<svg width="16" height="16" version="1.1" viewBox="0 0 16 16" xmlns="http://www.w3.org/2000/svg">
<g transform="translate(0 -1036.4)">
<path transform="translate(0 1036.4)" d="m7.9844 1.002a1.0001 1.0001 0 0 0 -0.69141 0.29102l-4 4a1.0001 1.0001 0 1 0 1.4141 1.4141l3.293-3.293 3.293 3.293a1.0001 1.0001 0 1 0 1.4141 -1.4141l-4-4a1.0001 1.0001 0 0 0 -0.72266 -0.29102zm4.0059 7.9844a1.0001 1.0001 0 0 0 -0.69726 0.30664l-3.293 3.293-3.293-3.293a1.0001 1.0001 0 0 0 -0.7168 -0.30273 1.0001 1.0001 0 0 0 -0.69727 1.7168l4 4a1.0001 1.0001 0 0 0 1.4141 0l4-4a1.0001 1.0001 0 0 0 -0.7168 -1.7207z" color="#000000" color-rendering="auto" dominant-baseline="auto" fill="#e0e0e0" fill-opacity=".78431" image-rendering="auto" shape-rendering="auto" solid-color="#000000" style="font-feature-settings:normal;font-variant-alternates:normal;font-variant-caps:normal;font-variant-ligatures:normal;font-variant-numeric:normal;font-variant-position:normal;isolation:auto;mix-blend-mode:normal;shape-padding:0;text-decoration-color:#000000;text-decoration-line:none;text-decoration-style:solid;text-indent:0;text-orientation:mixed;text-transform:none;white-space:normal"/>
</g>
</svg>
