<svg width="16" height="16" version="1.1" viewBox="0 0 16 16" xmlns="http://www.w3.org/2000/svg">
<g transform="translate(0 -1036.4)">
<path transform="translate(0 1036.4)" d="m10 2a1.0001 1.0001 0 1 0 0 2h1.5859l-4.5195 4.5195-4.2988-5.1582-1.5352 1.2793 5 6a1.0001 1.0001 0 0 0 1.4746 0.064453l5.293-5.293v1.5879a1.0001 1.0001 0 1 0 2 0v-4a1.0001 1.0001 0 0 0 -1 -1h-4zm-9 7v5a1.0001 1.0001 0 0 0 1 1h12a1.0001 1.0001 0 0 0 1 -1v-4h-2v3h-10v-4h-2z" color="#000000" color-rendering="auto" dominant-baseline="auto" fill="#fc9c9c" fill-opacity=".99608" image-rendering="auto" shape-rendering="auto" solid-color="#000000" style="font-feature-settings:normal;font-variant-alternates:normal;font-variant-caps:normal;font-variant-ligatures:normal;font-variant-numeric:normal;font-variant-position:normal;isolation:auto;mix-blend-mode:normal;shape-padding:0;text-decoration-color:#000000;text-decoration-line:none;text-decoration-style:solid;text-indent:0;text-orientation:mixed;text-transform:none;white-space:normal"/>
</g>
</svg>
