<svg height="16" viewBox="0 0 16 16" width="16" xmlns="http://www.w3.org/2000/svg"><path d="m7.9628906 1.0019531c-.1425373.00487-.2823815.0401577-.4101562.1035157l-6 3c-.3387788.1694423-.55276062.5157413-.5527344.8945312v6c-.00002622.37879.2139556.725089.5527344.894531l6 3c.2815593.140782.6129719.140782.8945312 0l6.0000004-3c.338779-.169442.55276-.515741.552734-.894531v-6c.000026-.3787899-.213955-.7250889-.552734-.8945312l-6.0000004-3c-.1502255-.0745765-.316789-.11017047-.484375-.1035157zm-3.9628906 2.9980469h1.7109375l2.2890625 2 2-2h2v8h-2v-5l-2 2-2-2v5h-2z" fill="#fc9c9c" fill-opacity=".996078"/></svg>
