<svg width="64" height="64" version="1.1" viewBox="0 0 64 64" xmlns="http://www.w3.org/2000/svg">
<g transform="translate(0 -988.36)">
<g transform="translate(0 -1.6949e-5)">
<path transform="translate(0 988.36)" d="m14 5c-2.1987 0-4 1.8013-4 4v26.172a1.0001 1.0001 0 0 0 1.707 0.70703l3.293-3.293 9.293 9.293a1.0001 1.0001 0 0 0 1.4141 0l9.293-9.293 9.293 9.293a1.0001 1.0001 0 0 0 1.4141 0l8-8a1.0001 1.0001 0 0 0 0.29297 -0.70703v-11.172a1.0001 1.0001 0 0 0 -0.29297 -0.70703l-16-16a1.0001 1.0001 0 0 0 -0.70703 -0.29297h-23zm0 2h22v12c0 2.1987 1.8013 4 4 4h12v9.7578l-7 7-9.293-9.293a1.0001 1.0001 0 0 0 -1.4141 0l-9.293 9.293-9.293-9.293a1.0001 1.0001 0 0 0 -1.4141 0l-2.293 2.293v-23.758c0-1.1253 0.87473-2 2-2zm0.98438 28.83a1.0001 1.0001 0 0 0 -0.69141 0.29297l-4 4a1.0001 1.0001 0 0 0 -0.29297 0.70703v14.17c0 2.1987 1.8013 4 4 4h36c2.1987 0 4-1.8013 4-4v-16.17a1.0001 1.0001 0 0 0 -1.707 -0.70703l-7.293 7.293-9.293-9.293a1.0001 1.0001 0 0 0 -1.4141 0l-9.293 9.293-9.293-9.293a1.0001 1.0001 0 0 0 -0.72266 -0.29297zm0.015625 2.4141l9.293 9.293a1.0001 1.0001 0 0 0 1.4141 0l9.293-9.293 9.293 9.293a1.0001 1.0001 0 0 0 1.4141 0l6.293-6.293v13.756c0 1.1253-0.87473 2-2 2h-36c-1.1253 0-2-0.87473-2-2v-13.756l3-3z" color="#000000" color-rendering="auto" dominant-baseline="auto" fill="#ff8484" image-rendering="auto" shape-rendering="auto" solid-color="#000000" style="filter-blend-mode:normal;filter-gaussianBlur-deviation:0;font-feature-settings:normal;font-variant-alternates:normal;font-variant-caps:normal;font-variant-east-asian:normal;font-variant-ligatures:normal;font-variant-numeric:normal;font-variant-position:normal;isolation:auto;mix-blend-mode:normal;shape-padding:0;text-decoration-color:#000000;text-decoration-line:none;text-decoration-style:solid;text-indent:0;text-orientation:mixed;text-transform:none;white-space:normal"/>
</g>
</g>
</svg>
