<svg height="16" viewBox="0 0 16 16" width="16" xmlns="http://www.w3.org/2000/svg"><path d="m9 1v2h6v-2zm-5.0156.0019531a1.0001 1.0001 0 0 0 -.69141.29102l-2 2a1 1 0 0 0 0 1.4141 1 1 0 0 0 1.4141 0l.29297-.29297v7.1719l-.29297-.29297a1 1 0 0 0 -.7207-.29102 1 1 0 0 0 -.69336.29102 1 1 0 0 0 0 1.4141l2 2a1.0001 1.0001 0 0 0 1.4141 0l2-2a1 1 0 0 0 0-1.4141 1 1 0 0 0 -1.4141 0l-.29297.29297v-7.1719l.29297.29297a1 1 0 0 0 1.4141 0 1 1 0 0 0 0-1.4141l-2-2a1.0001 1.0001 0 0 0 -.72266-.29102zm5.0156 5.998v2h4v-2zm0 6v2h2v-2z" fill="#e0e0e0"/></svg>
