<svg height="14" viewBox="0 0 14 14" width="14" xmlns="http://www.w3.org/2000/svg"><g fill="#b8ea68" transform="translate(0 -1038.3622)"><path d="m6 1042.3622h2v4.999982h-2z"/><path d="m9.0703125 1a3 3 0 0 0 -1.5703125.4023438 3 3 0 0 0 -1.5 2.5976562h2a1 1 0 0 1 1-1 1 1 0 0 1 1 1h2a3 3 0 0 0 -1.5-2.5976562 3 3 0 0 0 -1.4296875-.4023438z" transform="translate(0 1038.3622)"/><path d="m10 1042.3622h2v1.000017h-2z"/><path d="m2 10a3 3 0 0 0 1.5 2.597656 3 3 0 0 0 3 0 3 3 0 0 0 1.5-2.597656h-2a1 1 0 0 1 -1 1 1 1 0 0 1 -1-1z" transform="translate(0 1038.3622)"/><path d="m6-1048.3622h2v1.000017h-2z" transform="scale(1 -1)"/><path d="m4 1044.3622h6v2h-6z"/></g></svg>
