<svg width="16" height="16" version="1.1" viewBox="0 0 16 16" xmlns="http://www.w3.org/2000/svg">
<g transform="translate(0 -1036.4)" stroke-linecap="round" stroke-linejoin="round" stroke-width="2">
<circle cx="8" cy="1044.4" r="8" fill-opacity=".39216" stroke-opacity=".98824"/>
<path transform="translate(0 1036.4)" d="m8 1a7 7 0 0 0 -7 7 7 7 0 0 0 7 7 7 7 0 0 0 7 -7 7 7 0 0 0 -7 -7zm-0.029297 3.002a1.0001 1.0001 0 0 1 1.0293 0.99805v7h-2v-5.1309l-1.4453 0.96289-1.1094-1.6641 3-2a1.0001 1.0001 0 0 1 0.52539 -0.16602z" fill="#e0e0e0"/>
</g>
</svg>
