<svg xmlns="http://www.w3.org/2000/svg" width="16" height="16"><path style="line-height:1.25" d="M2.542 10.68q-.232 0-.232-.088 0-.056.064-.088.064-.032.2-.056.312-.056.464-.2.16-.144.16-.424V6.72q0-.536-.04-.72-.032-.192-.128-.208-.104-.024-.248-.024-.136-.008-.32-.008h-.376q-.208 0-.392.08-.184.08-.264.232-.048.096-.152.2-.096.104-.176.104-.056 0-.056-.104 0-.08.04-.16.112-.216.16-.392.048-.184.088-.448.024-.184.136-.184.024 0 .088.088.072.088.112.168.048.08.208.12.168.04.352.04h2.816q.496 0 .76-.12.048-.024.136-.088.096-.072.176-.072.024 0 .04.064.016.056.016.12 0 .032-.032.224l-.048.24q-.032.096-.032.232V6.2q0 .08-.04.168-.032.088-.088.088-.056 0-.088-.072-.032-.08-.064-.256t-.2-.272q-.168-.096-.536-.096h-.808q-.2 0-.28.048-.072.048-.096.232-.024.176-.024.64v3.144q0 .28.16.424.16.144.472.2.136.024.2.056t.064.088q0 .088-.232.088-.296 0-.512-.024-.256-.016-.424-.016-.2 0-.488.016-.24.024-.536.024z" fill="#ff8b84"/><path style="line-height:1.25" d="M13.295 10.68q-.4 0-.616-.24-.216-.248-.216-.712V7.872q0-.072-.056-.096-.048-.024-.2-.024h-.048q-.04 0-.072-.048-.024-.048-.024-.112 0-.016.016-.04.024-.032.04-.048.432-.304.712-.64.032-.04.064-.064.032-.032.072-.032.112 0 .104.088l-.04.36v.032q0 .072.048.096.048.024.144.024h.912q.032 0 .056.056.024.048.024.12t-.024.144q-.024.064-.056.064h-.792q-.216 0-.272.032-.048.032-.048.192v1.576q0 .328.136.512.136.176.392.176.224 0 .352-.032.136-.032.24-.112l.032-.016q.056 0 .056.112 0 .048-.144.176-.144.12-.36.216-.208.096-.432.096zm-7.066 0q-.184 0-.384-.128-.192-.136-.328-.336-.128-.208-.128-.416 0-.576.296-1.184Q5.989 8 6.477 7.6q.488-.408 1.024-.408.336 0 .512.136.184.136.184.36 0 .464-.512.728-.512.256-1.336.416-.048.008-.072.024-.016.008-.032.048-.12.392-.128.592 0 .288.128.456.128.168.368.168t.424-.112q.192-.12.376-.312.08-.088.136-.088.08 0 .08.08 0 .056-.016.08-.536.912-1.384.912zm.176-2.072q.208-.024.488-.128.28-.112.496-.312.224-.2.232-.488 0-.104-.056-.176-.056-.08-.16-.08-.192 0-.44.208-.24.2-.424.48-.176.272-.192.448 0 .064.056.048z" fill="#e0e0e0"/><path style="line-height:1.25" d="M8.738 10.68q-.124 0-.124-.06 0-.044.02-.064.02-.024.07-.044.054-.02.108-.07.055-.05.144-.173l.476-.645q.03-.04.03-.064 0-.025-.025-.065L9.07 8.96q-.084-.13-.129-.179-.044-.055-.119-.08-.05-.02-.07-.039-.019-.025-.019-.07 0-.059.124-.059.09 0 .164.01.079.005.109.005.104.015.243.015t.258-.015q.253-.015.297-.015.045 0 .08.02.04.015.04.05 0 .03-.02.05-.02.014-.055.029l-.045.015q-.07.025-.109.054-.035.025-.035.075 0 .05.065.148l.228.333q.01.015.02.02.015 0 .025-.02l.129-.238q.074-.144.069-.243 0-.085-.094-.12l-.04-.014q-.03-.015-.045-.03-.014-.02-.014-.05 0-.034.034-.05.04-.019.085-.019l.337.005q.089 0 .163-.005l.154-.01q.124 0 .124.06 0 .044-.02.069-.02.02-.07.04-.049.02-.103.07-.055.049-.149.173l-.367.476q-.035.05-.035.08 0 .024.03.069l.402.624q.07.105.158.189.095.08.184.114.05.02.07.045.02.02.02.064 0 .06-.125.06-.09 0-.183-.005-.095-.01-.134-.01-.14-.015-.288-.015-.144 0-.278.015-.044 0-.143.01-.095.005-.179.005-.06 0-.09-.02-.029-.02-.029-.05 0-.04.025-.054.025-.02.084-.04.07-.02.104-.065.04-.044.04-.138 0-.06-.015-.1-.01-.04-.05-.099l-.242-.347q-.005-.005-.015-.005-.01 0-.015.005l-.213.392q-.08.134-.08.218 0 .114.094.154.015.005.045.02.035.01.05.03.014.014.014.044 0 .035-.04.05-.034.02-.079.02l-.198-.006q-.045-.005-.114-.005-.159 0-.352.01z" fill="#84c2ff"/></svg>