<svg height="16" viewBox="0 0 16 16" width="16" xmlns="http://www.w3.org/2000/svg"><path d="m2 1c-.55228 0-1 .44772-1 1v12c0 .55228.44772 1 1 1h12c.55228 0 1-.44772 1-1v-12c0-.55228-.44772-1-1-1zm1 2h10v8h-10zm5.8184 1.0039c-.85534.0009758-1.5654.66069-1.6289 1.5137-.30036-.27229-.69029-.4234-1.0957-.42383-.90315 0-1.6367.73162-1.6367 1.6348.0009732.69217.43922 1.3103 1.0918 1.541v1.1855c0 .30198.24293.54492.54492.54492h3.2695c.30199 0 .54492-.24294.54492-.54492v-.54492l1.6367 1.0898v-3.2715l-1.6367 1.0918v-.96484c.34606-.30952.54406-.75251.54492-1.2168 0-.90315-.73162-1.6348-1.6348-1.6348z" fill="#e0e0e0" fill-opacity=".99608"/></svg>
