<svg width="16" height="16" version="1.1" viewBox="0 0 16 16" xmlns="http://www.w3.org/2000/svg">
<g transform="translate(0 -1036.4)" fill="#a5b7f3" fill-opacity=".98824" fill-rule="evenodd">
<path transform="translate(0 1036.4)" d="m2 1a1.0001 1.0001 0 0 0 -1 1v12a1.0001 1.0001 0 0 0 1 1h4.9023a2.1002 2.1002 0 0 1 0.13086 -0.73633l0.47461-1.2637h-4.5078v-10h8.5859l-4.293 4.293a1.0001 1.0001 0 0 0 0 1.4141l1.3262 1.3262 1.4141-3.7695a2.1002 2.1002 0 0 1 1.9922 -1.3613 2.1002 2.1002 0 0 1 0.43555 0.050781l2.2461-2.2461a1.0001 1.0001 0 0 0 -0.70703 -1.707h-12z" color="#000000" color-rendering="auto" image-rendering="auto" shape-rendering="auto" solid-color="#000000" style="block-progression:tb;isolation:auto;mix-blend-mode:normal;text-decoration-color:#000000;text-decoration-line:none;text-decoration-style:solid;text-indent:0;text-transform:none;white-space:normal"/>
<path d="m15 1051.4-3-8-3 8 3-2z"/>
</g>
</svg>
