<svg width="16" height="16" version="1.1" viewBox="0 0 16 16" xmlns="http://www.w3.org/2000/svg">
<g transform="translate(0 -1036.4)">
<path transform="translate(0 1036.4)" d="m7.2832 1.3281a1.0001 1.0001 0 0 0 -0.88086 0.51172l-3.6895 6.3906c0.40599-0.13877 0.83411-0.23047 1.2871-0.23047 0.37043 0 0.72206 0.067873 1.0625 0.16211l3.0723-5.3223a1.0001 1.0001 0 0 0 -0.85156 -1.5117zm-3.2832 7.6719a3 3 0 0 0 -3 3 3 3 0 0 0 3 3h10a1 1 0 0 0 1 -1 1 1 0 0 0 -1 -1h-7.1738a3 3 0 0 0 0.17383 -1 3 3 0 0 0 -3 -3zm0 2a1 1 0 0 1 1 1 1 1 0 0 1 -1 1 1 1 0 0 1 -1 -1 1 1 0 0 1 1 -1z" fill="#fc9c9c"/>
</g>
</svg>
