<svg height="16" viewBox="0 0 16 16" width="16" xmlns="http://www.w3.org/2000/svg"><path d="m4.5587261.60940813c-.4226244 0-.7617187.3410473-.7617187.76367177v.5078126c0 .1028478.020058.199689.056641.2890624h-1.1933597c-.4226245 0-.7617188.3390944-.7617188.7617188v.921875c-.040428-.00657-.0767989-.0234375-.1191406-.0234375h-.5078125c-.42262448 0-.76367188.3410475-.76367188.7636719v.3730468c0 .4226245.3410474.7617188.76367188.7617188h.5078125c.042396 0 .078663-.016851.1191406-.023437v4.4531248c-.040428-.0066-.076799-.02344-.1191406-.02344h-.5078125c-.42262448 0-.76367188.341047-.76367188.763672v.373047c0 .422625.3410474.761718.76367188.761718h.5078125c.042396 0 .078663-.01685.1191406-.02344v1.125c0 .422624.3390944.763672.7617188.763672h1.1367187v.457031c0 .422624.3390943.763672.7617187.763672h.3730469c.4226244 0 .7636719-.341048.7636719-.763672v-.457031h4.4062501v.457031c0 .422624.339094.763672.761719.763672h.373047c.422624 0 .763671-.341048.763671-.763672v-.457031h1.269532c.422625 0 .763672-.341048.763672-.763672v-1.111328c.01774.0012.03272.0098.05078.0098h.507812c.422624 0 .763672-.339093.763672-.761718v-.373047c0-.422624-.341048-.763672-.763672-.763672h-.507812c-.01803 0-.03307.0085-.05078.0098v-4.4258454c.01774.00122.03272.00977.05078.00977h.507812c.422624 0 .763672-.3390943.763672-.7617188v-.3730512c0-.4226244-.341048-.7636719-.763672-.7636719h-.507812c-.01803 0-.03307.00855-.05078.00977v-.9082075c0-.4226244-.341047-.7617187-.763672-.7617188h-1.328125c.03658-.089375.05859-.1862118.05859-.2890624v-.5078126c0-.42262437-.341047-.76367177-.763671-.76367177h-.373047c-.422625 0-.761719.3410474-.761719.76367177v.5078126c0 .1028478.02006.1996891.05664.2890624h-4.5214809c.036585-.0893749.0585938-.1862118.0585938-.2890624v-.5078126c0-.42262437-.3410475-.76367177-.7636719-.76367177zm3.2382813 2.35742177a3.279661 3.6440678 0 0 1 3.2128906 2.9394532 2.1864407 2.1864407 0 0 1 1.888672 2.1621094 2.1864407 2.1864407 0 0 1 -2.1875 2.1855475h-5.8300782a2.1864407 2.1864407 0 0 1 -2.1855469-2.1855475 2.1864407 2.1864407 0 0 1 1.8847656-2.1640626 3.279661 3.6440678 0 0 1 3.2167969-2.9375zm-2.9160156 8.0156251a.72881355.72881355 0 0 1 .7285156.728516.72881355.72881355 0 0 1 -.7285156.730469.72881355.72881355 0 0 1 -.7285157-.730469.72881355.72881355 0 0 1 .7285157-.728516zm5.8300782 0a.72881355.72881355 0 0 1 .730469.728516.72881355.72881355 0 0 1 -.730469.730469.72881355.72881355 0 0 1 -.7285157-.730469.72881355.72881355 0 0 1 .7285157-.728516zm-2.9140626.728516a.72881355.72881355 0 0 1 .7285156.730469.72881355.72881355 0 0 1 -.7285156.728515.72881355.72881355 0 0 1 -.7285156-.728515.72881355.72881355 0 0 1 .7285156-.730469z" fill="#a5b7f3" fill-opacity=".992157"/></svg>
