<svg width="16" height="16" version="1.1" viewBox="0 0 16 16" xmlns="http://www.w3.org/2000/svg">
<g transform="translate(0 -1036.4)">
<g transform="matrix(.017241 0 0 .017241 -.82759 1033.7)" stroke-width=".32031">
<g transform="matrix(4.1626 0 0 -4.1626 919.24 771.67)">
<path d="m0 0s-0.325 1.994-0.515 1.976l-36.182-3.491c-2.879-0.278-5.115-2.574-5.317-5.459l-0.994-14.247-27.992-1.997-1.904 12.912c-0.424 2.872-2.932 5.037-5.835 5.037h-38.188c-2.902 0-5.41-2.165-5.834-5.037l-1.905-12.912-27.992 1.997-0.994 14.247c-0.202 2.886-2.438 5.182-5.317 5.46l-36.2 3.49c-0.187 0.018-0.324-1.978-0.511-1.978l-0.049-7.83 30.658-4.944 1.004-14.374c0.203-2.91 2.551-5.263 5.463-5.472l38.551-2.75c0.146-0.01 0.29-0.016 0.434-0.016 2.897 0 5.401 2.166 5.825 5.038l1.959 13.286h28.005l1.959-13.286c0.423-2.871 2.93-5.037 5.831-5.037 0.142 0 0.284 5e-3 0.423 0.015l38.556 2.75c2.911 0.209 5.26 2.562 5.463 5.472l1.003 14.374 30.645 4.966z" fill="#fff"/>
</g>
<g transform="matrix(4.1626 0 0 -4.1626 104.7 525.91)">
<path d="m0 0v-59.041c0.108-1e-3 0.216-5e-3 0.323-0.015l36.196-3.49c1.896-0.183 3.382-1.709 3.514-3.609l1.116-15.978 31.574-2.253 2.175 14.747c0.282 1.912 1.922 3.329 3.856 3.329h38.188c1.933 0 3.573-1.417 3.855-3.329l2.175-14.747 31.575 2.253 1.115 15.978c0.133 1.9 1.618 3.425 3.514 3.609l36.182 3.49c0.107 0.01 0.214 0.014 0.322 0.015v4.711l0.015 5e-3v54.325h0.134c4.795 6.12 9.232 12.569 13.487 19.449-5.651 9.62-12.575 18.217-19.976 26.182-6.864-3.455-13.531-7.369-19.828-11.534-3.151 3.132-6.7 5.694-10.186 8.372-3.425 2.751-7.285 4.768-10.946 7.118 1.09 8.117 1.629 16.108 1.846 24.448-9.446 4.754-19.519 7.906-29.708 10.17-4.068-6.837-7.788-14.241-11.028-21.479-3.842 0.642-7.702 0.88-11.567 0.926v6e-3c-0.027 0-0.052-6e-3 -0.075-6e-3 -0.024 0-0.049 6e-3 -0.073 6e-3v-6e-3c-3.872-0.046-7.729-0.284-11.572-0.926-3.238 7.238-6.956 14.642-11.03 21.479-10.184-2.264-20.258-5.416-29.703-10.17 0.216-8.34 0.755-16.331 1.848-24.448-3.668-2.35-7.523-4.367-10.949-7.118-3.481-2.678-7.036-5.24-10.188-8.372-6.297 4.165-12.962 8.079-19.828 11.534-7.401-7.965-14.321-16.562-19.974-26.182 4.253-6.88 8.693-13.329 13.487-19.449z" fill="#478cbf"/>
</g>
<g transform="matrix(4.1626 0 0 -4.1626 784.07 817.24)">
<path d="m0 0-1.121-16.063c-0.135-1.936-1.675-3.477-3.611-3.616l-38.555-2.751c-0.094-7e-3 -0.188-0.01-0.281-0.01-1.916 0-3.569 1.406-3.852 3.33l-2.211 14.994h-31.459l-2.211-14.994c-0.297-2.018-2.101-3.469-4.133-3.32l-38.555 2.751c-1.936 0.139-3.476 1.68-3.611 3.616l-1.121 16.063-32.547 3.138c0.015-3.498 0.06-7.33 0.06-8.093 0-34.374 43.605-50.896 97.781-51.086h0.133c54.176 0.19 97.766 16.712 97.766 51.086 0 0.777 0.047 4.593 0.063 8.093z" fill="#478cbf"/>
</g>
<g transform="matrix(4.1626 0 0 -4.1626 389.21 625.67)">
<path d="m0 0c0-12.052-9.765-21.815-21.813-21.815-12.042 0-21.81 9.763-21.81 21.815 0 12.044 9.768 21.802 21.81 21.802 12.048 0 21.813-9.758 21.813-21.802" fill="#fff"/>
</g>
<g transform="matrix(4.1626 0 0 -4.1626 367.37 631.06)">
<path d="m0 0c0-7.994-6.479-14.473-14.479-14.473-7.996 0-14.479 6.479-14.479 14.473s6.483 14.479 14.479 14.479c8 0 14.479-6.485 14.479-14.479" fill="#414042"/>
</g>
<g transform="matrix(4.1626 0 0 -4.1626 511.99 724.74)">
<path d="m0 0c-3.878 0-7.021 2.858-7.021 6.381v20.081c0 3.52 3.143 6.381 7.021 6.381s7.028-2.861 7.028-6.381v-20.081c0-3.523-3.15-6.381-7.028-6.381" fill="#fff"/>
</g>
<g transform="matrix(4.1626 0 0 -4.1626 634.79 625.67)">
<path d="m0 0c0-12.052 9.765-21.815 21.815-21.815 12.041 0 21.808 9.763 21.808 21.815 0 12.044-9.767 21.802-21.808 21.802-12.05 0-21.815-9.758-21.815-21.802" fill="#fff"/>
</g>
<g transform="matrix(4.1626 0 0 -4.1626 656.64 631.06)">
<path d="m0 0c0-7.994 6.477-14.473 14.471-14.473 8.002 0 14.479 6.479 14.479 14.473s-6.477 14.479-14.479 14.479c-7.994 0-14.471-6.485-14.471-14.479" fill="#414042"/>
</g>
</g>
</g>
</svg>
