<svg width="64" height="64" version="1.1" viewBox="0 0 64 64" xmlns="http://www.w3.org/2000/svg">
<g transform="translate(0 -988.36)">
<g transform="translate(0 -1.6949e-5)">
<path d="m14 993.36c-2.1987 0-4 1.8013-4 4v46c0 2.1987 1.8013 4 4 4h36c2.1987 0 4-1.8013 4-4v-33h-0.0078c2e-3 -0.2483-0.0793-0.501-0.28516-0.707l-16-16c-0.18788-0.18693-0.44247-0.28939-0.70704-0.28907v-4e-3zm0 2h22v12c0 2.1987 1.8013 4 4 4h12v32c0 1.1253-0.87472 2-2 2h-36c-1.1253 0-2-0.8747-2-2v-46c0-1.1253 0.87472-2 2-2zm2.9512 22.002a1 1 0 0 0 -0.60938 0.2461 1 1 0 0 0 -0.09375 1.4121l2.9238 3.3398-2.9238 3.3418a1 1 0 0 0 0.09375 1.4121 1 1 0 0 0 1.4102 -0.094l2.748-3.1407 2.748 3.1407a1 1 0 0 0 1.4102 0.094 1 1 0 0 0 0.09375 -1.4121l-2.9238-3.3418 2.9238-3.3398a1 1 0 0 0 -0.09375 -1.4121 1 1 0 0 0 -0.63867 -0.2461 1 1 0 0 0 -0.77148 0.3398l-2.748 3.1406-2.748-3.1406a1 1 0 0 0 -0.80078 -0.3398zm23 0a1 1 0 0 0 -0.60938 0.2461 1 1 0 0 0 -0.09375 1.4121l2.9238 3.3398-2.9238 3.3418a1 1 0 0 0 0.09375 1.4121 1 1 0 0 0 1.4102 -0.094l2.748-3.1407 2.748 3.1407a1 1 0 0 0 1.4102 0.094 1 1 0 0 0 0.09375 -1.4121l-2.9238-3.3418 2.9238-3.3398a1 1 0 0 0 -0.09375 -1.4121 1 1 0 0 0 -0.63867 -0.2461 1 1 0 0 0 -0.77148 0.3398l-2.748 3.1406-2.748-3.1406a1 1 0 0 0 -0.80078 -0.3398zm-18.951 13.998a1 1 0 0 0 -1 1 1 1 0 0 0 1 1h3v3c0 2.7527 2.2473 5 5 5s5-2.2473 5-5v-3h9a1 1 0 0 0 1 -1 1 1 0 0 0 -1 -1zm5 2h6v3c0 1.6793-1.3207 3-3 3s-3-1.3207-3-3z" color="#000000" color-rendering="auto" dominant-baseline="auto" fill="#ff5d5d" image-rendering="auto" shape-rendering="auto" solid-color="#000000" style="font-feature-settings:normal;font-variant-alternates:normal;font-variant-caps:normal;font-variant-ligatures:normal;font-variant-numeric:normal;font-variant-position:normal;isolation:auto;mix-blend-mode:normal;shape-padding:0;text-decoration-color:#000000;text-decoration-line:none;text-decoration-style:solid;text-indent:0;text-orientation:mixed;text-transform:none;white-space:normal"/>
</g>
</g>
</svg>
