<svg width="16" height="16" version="1.1" viewBox="0 0 16 16" xmlns="http://www.w3.org/2000/svg">
<g transform="translate(0 -1036.4)">
<path d="m8 1037.4c-2.7527 0-5 2.2419-5 4.9903v4.0175c0 2.7484 2.2473 4.9922 5 4.9922 2.7527 0 5-2.2438 5-4.9922v-4.0175c0-2.7484-2.2473-4.9903-5-4.9903zm-1.0059 2.1264v4.8576c-0.66556-0.1047-1.2973-0.372-1.9941-0.6618v-1.3222c0-1.3474 0.79838-2.4648 1.9941-2.8736zm2.0118 0c1.1957 0.4088 1.9941 1.5262 1.9941 2.8736v1.3451c-0.68406 0.3054-1.3142 0.5732-1.9941 0.6663zm-4.0059 6.334c0.67836 0.2231 1.3126 0.447 1.9941 0.5264v2.8848c-1.1957-0.4092-1.9941-1.5242-1.9941-2.8716zm6 0.03v0.5094c0 1.3474-0.79838 2.4619-1.9941 2.8711v-2.8711c0.68606-0.068 1.3207-0.2828 1.9941-0.5094z" color="#000000" color-rendering="auto" dominant-baseline="auto" fill="#ffd684" image-rendering="auto" shape-rendering="auto" solid-color="#000000" style="font-feature-settings:normal;font-variant-alternates:normal;font-variant-caps:normal;font-variant-east-asian:normal;font-variant-ligatures:normal;font-variant-numeric:normal;font-variant-position:normal;isolation:auto;mix-blend-mode:normal;shape-padding:0;text-decoration-color:#000000;text-decoration-line:none;text-decoration-style:solid;text-indent:0;text-orientation:mixed;text-transform:none;white-space:normal"/>
</g>
</svg>
