<svg width="16" height="16" version="1.1" viewBox="0 0 16 16" xmlns="http://www.w3.org/2000/svg">
<path d="m4 1c-2.2091-6.6e-7 -4.069 1.7919-4 4v10h2v-4h4v4h2v-10c0-2.2091-1.7909-4-4-4zm5 11c0 1.6569 1.3431 3 3 3 0.3409-0.0014 0.67908-0.0608 1-0.17578v0.17578h2v-6c0-1.6569-1.3431-3-3-3h-1v2h1c0.55228 0 1 0.44772 1 1v0.17383c-0.32104-0.11432-0.65921-0.1731-1-0.17383-1.6569 0-3 1.3431-3 3zm-5-9c1.1046-1e-7 1.914 0.89879 2 2v4h-4v-4c0-1.1046 0.89543-2 2-2zm8 8c0.55228 0 1 0.44772 1 1s-0.44772 1-1 1-1-0.44772-1-1 0.44772-1 1-1z" fill="#e0e0e0" stroke-width="0"/>
</svg>
