<svg width="32" height="32" version="1.1" viewBox="0 0 32 32" xmlns="http://www.w3.org/2000/svg">
<g transform="translate(0 -1020.4)">
<g transform="translate(0 -1.6949e-5)">
<path transform="translate(0 1020.4)" d="m5 1c-1.6447 0-3 1.3553-3 3v24c0 1.6447 1.3553 3 3 3h22c1.6447 0 3-1.3553 3-3v-16.809c-5.1e-5 -0.2652-0.10543-0.51952-0.29297-0.70703l-9.1816-9.1895c-0.18719-0.18825-0.44155-0.29435-0.70703-0.29492zm0 2h14v6c0 1.6447 1.3553 3 3 3h6v16c0 0.5713-0.42868 1-1 1h-22c-0.57133 0-1-0.4287-1-1v-24c0-0.5713 0.42867-1 1-1z" color="#000000" color-rendering="auto" dominant-baseline="auto" fill="#fff" fill-opacity=".58824" image-rendering="auto" shape-rendering="auto" solid-color="#000000" style="font-feature-settings:normal;font-variant-alternates:normal;font-variant-caps:normal;font-variant-east-asian:normal;font-variant-ligatures:normal;font-variant-numeric:normal;font-variant-position:normal;isolation:auto;mix-blend-mode:normal;shape-padding:0;text-decoration-color:#000000;text-decoration-line:none;text-decoration-style:solid;text-indent:0;text-orientation:mixed;text-transform:none;white-space:normal"/>
</g>
</g>
</svg>
