<svg width="16" height="16" version="1.1" viewBox="0 0 16 16" xmlns="http://www.w3.org/2000/svg">
<g transform="translate(0 -1036.4)" fill="#fc9c9c" fill-opacity=".99608">
<path transform="translate(0 1036.4)" d="m6 2a4 4 0 0 0 -4 4 4 4 0 0 0 3 3.8691v-0.86914h1v1h1v-1h1 1v1h1v-1h1v0.86719a4 4 0 0 0 3 -3.8672 4 4 0 0 0 -4 -4h-4zm-1 3a1 1 0 0 1 1 1 1 1 0 0 1 -1 1 1 1 0 0 1 -1 -1 1 1 0 0 1 1 -1zm6 0a1 1 0 0 1 1 1 1 1 0 0 1 -1 1 1 1 0 0 1 -1 -1 1 1 0 0 1 1 -1zm-4 2h2v1h-2v-1z"/>
<path transform="translate(0 1036.4)" d="m4 9v4h1v-4h-1zm7 0v4h1v-4h-1zm-5 3v1 2h4v-2-1h-1v1h-2v-1h-1z"/>
<path d="m8 1049.4a2 2 0 0 1 -1 1.732 2 2 0 0 1 -2 0 2 2 0 0 1 -1 -1.732h2z"/>
<path d="m12 1049.4a2 2 0 0 1 -1 1.732 2 2 0 0 1 -2 0 2 2 0 0 1 -1 -1.732h2z"/>
</g>
</svg>
