<?xml version="1.0" encoding="UTF-8" standalone="no"?>
<svg
   xmlns:dc="http://purl.org/dc/elements/1.1/"
   xmlns:cc="http://creativecommons.org/ns#"
   xmlns:rdf="http://www.w3.org/1999/02/22-rdf-syntax-ns#"
   xmlns:svg="http://www.w3.org/2000/svg"
   xmlns="http://www.w3.org/2000/svg"
   xmlns:sodipodi="http://sodipodi.sourceforge.net/DTD/sodipodi-0.dtd"
   xmlns:inkscape="http://www.inkscape.org/namespaces/inkscape"
   width="16"
   height="16"
   version="1.1"
   viewBox="0 0 16 16"
   id="svg913"
   sodipodi:docname="icon_snap_grid.svg"
   inkscape:version="0.92.2 5c3e80d, 2017-08-06">
  <metadata
     id="metadata919">
    <rdf:RDF>
      <cc:Work
         rdf:about="">
        <dc:format>image/svg+xml</dc:format>
        <dc:type
           rdf:resource="http://purl.org/dc/dcmitype/StillImage" />
        <dc:title></dc:title>
      </cc:Work>
    </rdf:RDF>
  </metadata>
  <defs
     id="defs917" />
  <sodipodi:namedview
     pagecolor="#ffffff"
     bordercolor="#666666"
     borderopacity="1"
     objecttolerance="10"
     gridtolerance="10"
     guidetolerance="10"
     inkscape:pageopacity="0"
     inkscape:pageshadow="2"
     inkscape:window-width="2558"
     inkscape:window-height="1422"
     id="namedview915"
     showgrid="false"
     inkscape:pagecheckerboard="true"
     inkscape:zoom="52.635261"
     inkscape:cx="6.4374987"
     inkscape:cy="5.7074131"
     inkscape:window-x="1366"
     inkscape:window-y="16"
     inkscape:window-maximized="1"
     inkscape:current-layer="svg913" />
  <g
     transform="translate(0 -1036.4)"
     id="g911">
    <path
       d="m3 1036.4v3h-3v2h3v4h-3v2h3v3h2v-3-2-4h4 2 3v-2h-3v-3h-2v3h-4v-3h-2z"
       fill="#f3f3f3"
       id="path899" />
    <path
       d="m11 1043.4a4 4 0 0 0 -4 4h2a2 2 0 0 1 2 -2 2 2 0 0 1 2 2h2a4 4 0 0 0 -4 -4z"
       fill="#ff8484"
       id="path901" />
    <rect
       x="7"
       y="1047.4"
       width="2"
       height="2"
       fill="#ff8484"
       id="rect903" />
    <rect
       x="13"
       y="1047.4"
       width="2"
       height="2"
       fill="#ff8484"
       id="rect905" />
    <rect
       x="7"
       y="1049.4"
       width="2"
       height="2"
       fill="#fff"
       id="rect907" />
    <rect
       x="13"
       y="1049.4"
       width="2"
       height="2"
       fill="#fff"
       id="rect909" />
  </g>
</svg>
