<svg width="16" height="16" version="1.1" viewBox="0 0 16 16" xmlns="http://www.w3.org/2000/svg">
<g transform="translate(0 -1036.4)">
<path transform="translate(0 1036.4)" d="m1 1v2h1v-1h1v-1zm12 0v1h1v1h1v-2zm-5.0371 0.00195c-0.14254 0.00487-0.28238 0.04016-0.41016 0.10352l-6 3c-0.33878 0.16944-0.55276 0.51574-0.55273 0.89453v6c-2.576e-5 0.37879 0.21395 0.72509 0.55273 0.89453l6 3c0.28156 0.14078 0.61297 0.14078 0.89453 0l6-3c0.33878-0.16944 0.55276-0.51574 0.55273-0.89453v-6c2.6e-5 -0.37879-0.21395-0.72509-0.55273-0.89453l-6-3c-0.15022-0.074574-0.31679-0.11017-0.48438-0.10352zm1.0371 2.6172l4 2v3.7637l-4-2zm-1 5.5l3.7637 1.8809-3.7637 1.8828-3.7637-1.8828zm-7 3.8809v2h2v-1h-1v-1zm13 0v1h-1v1h2v-2z" color="#000000" color-rendering="auto" fill="#e0e0e0" fill-rule="evenodd" image-rendering="auto" shape-rendering="auto" solid-color="#000000" style="isolation:auto;mix-blend-mode:normal;text-decoration-color:#000000;text-decoration-line:none;text-decoration-style:solid;text-indent:0;text-transform:none;white-space:normal"/>
</g>
</svg>
