<svg width="16" height="12" version="1.1" viewBox="0 0 16 12" xmlns="http://www.w3.org/2000/svg">
<g transform="translate(0 -1040.4)" fill="#7dc6ef">
<rect x="1" y="1046.4" width="2" height="3.9999"/>
<rect x="4" y="1044.4" width="2" height="6"/>
<path d="m7 1044.4a3 3 0 0 1 3 3h-2a1 1 0 0 0 -1 -1v-2z"/>
<rect x="8" y="1047.4" width="2" height="3"/>
<rect x="1" y="1042.4" width="2" height="2"/>
<rect transform="scale(1,-1)" x="12" y="-1047.4" width="2" height="5"/>
<rect transform="scale(1,-1)" x="14" y="-1046.4" width="2" height="2"/>
<path d="m15 1050.4a3 3 0 0 1 -3 -3h2a1 1 0 0 0 1 1v2z"/>
<rect x="5" y="1044.4" width="2" height="2"/>
<rect transform="scale(1,-1)" x="15" y="-1050.4" width="1" height="2"/>
</g>
</svg>
