<svg clip-rule="evenodd" fill-rule="evenodd" stroke-linejoin="round" stroke-miterlimit="2" viewBox="0 0 16 16" xmlns="http://www.w3.org/2000/svg"><path d="m8 1.745c-.595 0-1.084.489-1.084 1.084v3.699l-3.851-1.927c-.163-.08-.343-.119-.525-.112-.395.015-.752.244-.929.597-.076.151-.115.317-.115.485 0 .41.233.786.599.97l3.481 1.74-3.481 1.74c-.366.184-.599.56-.599.97 0 .168.039.334.115.485.183.367.559.599.969.599.168 0 .334-.039.485-.114l3.851-1.927v3.111c0 .594.489 1.084 1.084 1.084s1.084-.49 1.084-1.084v-3.111l3.851 1.927c.151.075.317.114.485.114.41 0 .786-.232.969-.599.076-.151.115-.317.115-.485 0-.41-.233-.786-.599-.97l-3.481-1.74 3.481-1.74c.366-.184.599-.56.599-.97 0-.168-.039-.334-.115-.485-.182-.364-.554-.596-.961-.599-.171-.001-.34.038-.493.114l-3.851 1.927v-3.699c0-.595-.489-1.084-1.084-1.084z" fill="#a5efac"/><g fill-rule="nonzero"><path d="m8 1.745v1.783h-1.084v-.699c0-.595.489-1.084 1.084-1.084z" fill="#ff7070"/><path d="m1.528 5.312h2.957l-1.42-.711c-.163-.08-.343-.119-.525-.112-.395.015-.752.244-.929.597-.036.072-.064.148-.083.226zm5.388-1.784h1.084v1.784h-1.084z" fill="#ffeb70"/><path d="m6.916 5.312h1.084v1.783h-4.796l-1.109-.554c-.366-.184-.599-.56-.599-.97 0-.088.011-.175.032-.259h2.957l2.431 1.216z" fill="#9dff70"/><path d="m3.204 7.095h4.796v1.783h-3.619l1.195-.597z" fill="#70ffb9"/><path d="m4.381 8.878h3.619v1.784h-1.084v-.628l-1.255.628h-4.114c.088-.274.283-.508.548-.641z" fill="#70deff"/><path d="m6.916 12.445h1.084v1.784c-.595-.001-1.084-.49-1.084-1.084z" fill="#ff70ac"/><path d="m6.916 10.662h1.084v1.783h-1.084zm-1.255 0h-4.114c-.033.105-.051.216-.051.329 0 .168.039.334.115.485.183.367.559.599.969.599.168 0 .334-.039.485-.114z" fill="#9f70ff"/></g></svg>
