<svg width="16" height="16" version="1.1" viewBox="0 0 16 16" xmlns="http://www.w3.org/2000/svg">
<path d="m3.6348 0.50977c-2.9641 2.866 0.53553 8.9289 2.7676 8.7949l0.44141 0.76562-0.56445 0.97852a3 3 0 0 0 -2.2793 -1.0488 3 3 0 0 0 -3 3 3 3 0 0 0 3 3 3 3 0 0 0 2.5938 -1.502l0.0039062 0.001953 1.4023-2.4277 1.4023 2.4277 0.0019531-0.001953a3 3 0 0 0 2.5957 1.502 3 3 0 0 0 3 -3 3 3 0 0 0 -3 -3 3 3 0 0 0 -2.2773 1.0527l-0.56641-0.98242 0.44141-0.76562c2.2321 0.13397 5.7317-5.9289 2.7676-8.7949l-4.3652 7.5605-4.3652-7.5605zm0.36523 11.49a1 1 0 0 1 1 1 1 1 0 0 1 -0.12305 0.47852l-0.011719 0.021484a1 1 0 0 1 -0.86523 0.5 1 1 0 0 1 -1 -1 1 1 0 0 1 1 -1zm8 0a1 1 0 0 1 1 1 1 1 0 0 1 -1 1 1 1 0 0 1 -1 -1 1 1 0 0 1 1 -1z" fill="#e0e0e0"/>
</svg>
