<svg height="17.067" viewBox="0 0 16 16" width="17.067" xmlns="http://www.w3.org/2000/svg"><g transform="translate(0 -1036.4)"><path d="m6 1v1c-.55228 0-1 .44772-1 1v10h-1v-2h-2v2c.0002826.35698.19084.68674.5.86523.15194.088045.32439.13452.5.13477v1h6v-5l3-2v-3h3v-2c0-1.1046-.89543-2-2-2z" fill="#a5efac" transform="translate(0 1036.4)"/><path d="m6 1c-1.1046 0-2 .89543-2 2v7h-3v3c0 1.1046.89543 2 2 2s2-.89543 2-2v-10c0-.55228.44772-1 1-1s1 .44772 1 1v3h5v-1h-4v-2c0-1.1046-.89543-2-2-2zm-4 10h2v2c0 .55228-.44772 1-1 1s-1-.44772-1-1z" fill="#87e29f" transform="translate(0 1036.4)"/><circle cx="3" cy="1048.4" fill="#e0e0e0" r="0"/><g fill="#87e29f"><ellipse cx="12" cy="1048.4" rx=".5" ry="3"/><ellipse cx="913.91" cy="513.79" rx=".5" ry="3" transform="matrix(.5 .8660254 -.8660254 .5 0 0)"/><ellipse cx="901.91" cy="-534.57" rx=".5" ry="3" transform="matrix(-.5 .8660254 -.8660254 -.5 0 0)"/></g></g></svg>
