<svg width="16" height="12" version="1.1" viewBox="0 0 16 12" xmlns="http://www.w3.org/2000/svg">
<g transform="translate(0 -1040.4)">
<path transform="translate(0 1040.4)" d="m0 2v4 4h2a3 3 0 0 0 2.5 -1.3457 3 3 0 0 0 2.5 1.3457 3 3 0 0 0 2 -0.76758 3 3 0 0 0 2 0.76758 3 3 0 0 0 2.5 -1.3457 3 3 0 0 0 2.5 1.3457v-2a1 1 0 0 1 -1 -1v-5h-2v2.7695a3 3 0 0 0 -2 -0.76953 3 3 0 0 0 -2 0.76758 3 3 0 0 0 -2 -0.76758 3 3 0 0 0 -2.5 1.3457 3 3 0 0 0 -2.5 -1.3457v-2h-2zm2 4a1 1 0 0 1 1 1 1 1 0 0 1 -1 1v-2zm5 0a1 1 0 0 1 1 1 1 1 0 0 1 -1 1 1 1 0 0 1 -1 -1 1 1 0 0 1 1 -1zm4 0a1 1 0 0 1 1 1 1 1 0 0 1 -1 1 1 1 0 0 1 -1 -1 1 1 0 0 1 1 -1z" fill="#8da6f0"/>
</g>
</svg>
