<svg width="128" height="128" version="1.1" viewBox="0 0 128 128" xmlns="http://www.w3.org/2000/svg">
<g transform="translate(0 -924.36)">
<path transform="translate(0 924.36)" d="m76 16a28 28 0 0 0 -26.631 19.4 28 28 0 0 0 -13.369 -3.4004 28 28 0 0 0 -28 28 28 28 0 0 0 16 25.26v14.74c0 6.648 5.352 12 12 12h48c6.648 0 12-5.352 12-12l24 16v-64l-24 16v-4.4434a28 28 0 0 0 8 -19.557 28 28 0 0 0 -28 -28z" fill-opacity=".29412" stroke-linecap="round" stroke-linejoin="round" stroke-opacity=".98824" stroke-width="2"/>
<path d="m76 944.36a24 24 0 0 0 -23.906 22.219 24 24 0 0 0 -16.094 -6.2192 24 24 0 0 0 -24 24 24 24 0 0 0 16 22.594v17.406c0 4.432 3.5679 8 8 8h48c4.4321 0 8-3.568 8-8v-8l24 16v-48l-24 16v-14.156a24 24 0 0 0 8 -17.844 24 24 0 0 0 -24 -24z" fill="#f7f5cf"/>
</g>
</svg>
