<svg width="16" height="16" version="1.1" viewBox="0 0 16 16" xmlns="http://www.w3.org/2000/svg">
<g transform="translate(0 -1036.4)">
<g transform="translate(0,-3)" fill="#e0e0e0">
<rect x="3" y="1044.4" width="2" height="6"/>
<rect x="6" y="1044.4" width="2" height="6"/>
<rect x="3" y="1044.4" width="1" height="2"/>
<path d="m3 1044.4a3 3 0 0 0 -3 3h2a1 1 0 0 1 1 -1z"/>
<path d="m14 1050.4a3 3 0 0 1 -3 -3h2a1 1 0 0 0 1 1z"/>
<rect transform="scale(1,-1)" x="14" y="-1052.4" width="2" height="8"/>
<rect transform="scale(1,-1)" x="11" y="-1047.4" width="2" height="3"/>
<path d="m3 1050.4a3 3 0 0 1 -3 -3h2a1 1 0 0 0 1 1z"/>
<path d="m8 1044.4a3 3 0 0 1 3 3h-2a1 1 0 0 0 -1 -1z"/>
<rect x="9" y="1047.4" width="2" height="3"/>
</g>
</g>
</svg>
