<svg width="16" height="12" version="1.1" viewBox="0 0 16 12" xmlns="http://www.w3.org/2000/svg">
<path d="m0 0v12h4v-2h-2v-8h2v-2zm12 0v2h2v8h-2v2h4v-12z" fill="#e0e0e0"/>
<path d="m9 2v2h1a1 1 0 0 1 1 1 1 1 0 0 1 -1 1 2 2 0 0 0 -1.7324 1 2 2 0 0 0 -0.26562 1h-0.0019531v2h5v-2h-3a3 3 0 0 0 2.5977 -1.5 3 3 0 0 0 0 -3 3 3 0 0 0 -2.5977 -1.5zm-6 1v6h2a3 3 0 0 0 3 -3v-3h-2v3a1 1 0 0 1 -1 1v-4z" fill="#bd91f1"/>
<path d="m9 2v2h1a1 1 0 0 1 1 1 1 1 0 0 1 -1 1 2 2 0 0 0 -1.7324 1 2 2 0 0 0 -0.26562 1h-0.00195v2.0001h5v-2h-3a3 3 0 0 0 2.5977 -1.5 3 3 0 0 0 0 -3 3 3 0 0 0 -2.5977 -1.5001z" fill="#fff" fill-opacity=".39216"/>
</svg>
