<svg width="16" height="16" version="1.1" viewBox="0 0 16 16" xmlns="http://www.w3.org/2000/svg">
<g transform="translate(0 -1036.4)">
<path transform="translate(0 1036.4)" d="m6 1a1 1 0 0 0 -1 1v3.6934c-1.7861 0.86608-3 2.4605-3 4.3066h4a2 2 0 0 0 2 2 2 2 0 0 0 2 -2h4c0-1.8462-1.2139-3.4406-3-4.3066v-3.6934a1 1 0 0 0 -1 -1h-4zm-1.0977 9.6348l-1.7324 1 1 1.7305 1.7324-1-1-1.7305zm6.1953 0l-1 1.7305 1.7324 1 1-1.7305-1.7324-1zm-4.0977 2.3652v2h2v-2h-2z" fill="#fc9c9c" fill-opacity=".99608"/>
</g>
</svg>
