<svg height="16" viewBox="0 0 16 16" width="16" xmlns="http://www.w3.org/2000/svg"><path d="m8 1a7 7 0 0 0 -7 7 7 7 0 0 0 1.2227 3.9531 7 7 0 0 0 .30273.4082c.000785-.00256.0011667-.005252.0019532-.007812a7 7 0 0 0 5.4727 2.6465 7 7 0 0 0 3.2422-.80273c.001375.000393.002531.00156.003906.001953a7 7 0 0 0 .035156-.021485 7 7 0 0 0 .42578-.25 7 7 0 0 0 .16992-.10352 7 7 0 0 0 .36914-.26953 7 7 0 0 0 .20508-.15625 7 7 0 0 0 .3418-.30859 7 7 0 0 0 .16406-.1543 7 7 0 0 0 .33008-.36133 7 7 0 0 0 .14062-.16016 7 7 0 0 0 .27734-.37305 7 7 0 0 0 .13867-.19531 7 7 0 0 0 .21875-.36133 7 7 0 0 0 .14258-.25 7 7 0 0 0 .15625-.33398 7 7 0 0 0 .13867-.31055 7 7 0 0 0 .10742-.30859 7 7 0 0 0 .11914-.35352 7 7 0 0 0 .087891-.36914 7 7 0 0 0 .066406-.29297 7 7 0 0 0 .056641-.40039 7 7 0 0 0 .037109-.3125 7 7 0 0 0 .025391-.55273 7 7 0 0 0 -4.3926-6.4922 7 7 0 0 0 -.001953 0 7 7 0 0 0 -.66016-.22852 7 7 0 0 0 -.0058594-.0019531 7 7 0 0 0 -.55078-.13086 7 7 0 0 0 -.14062-.03125 7 7 0 0 0 -.55078-.072266 7 7 0 0 0 -.14258-.017578 7 7 0 0 0 -.55469-.025391zm1.9512 1.334a6 6 0 0 1 4.0488 5.666h-7a2 2 0 0 0 -.94922-1.6992c1.3464-2.0289 2.6038-3.2631 3.9004-3.9668zm-6.8281 2.1797c.14632.65093.35776 1.2833.68359 1.8848a2 2 0 0 0 -.80664 1.6016h-1a6 6 0 0 1 1.123-3.4863zm1.877 1.4863a2 2 0 0 0 -.10938.0039062 2 2 0 0 1 .10938-.0039062zm-.18945.011719a2 2 0 0 0 -.12109.013672 2 2 0 0 1 .12109-.013672zm-.44141.09375a2 2 0 0 0 -.056641.019531 2 2 0 0 1 .056641-.019531zm-1.3594 2.0605a2 2 0 0 0 .013672.11914 2 2 0 0 1 -.013672-.11914zm.027344.20898a2 2 0 0 0 .017578.080078 2 2 0 0 1 -.017578-.080078zm.73438 1.1992a2 2 0 0 0 1.2285.42578 2 2 0 0 0 1.0508-.30078c1.345 2.0268 2.6013 3.2645 3.8965 3.9688a6 6 0 0 1 -1.9473.33203 6 6 0 0 1 -5.0547-2.7695c.23771-.5785.50336-1.1403.82617-1.6563z" fill="#a5b7f3" fill-opacity=".98824"/></svg>
