<svg width="16" height="16" version="1.1" viewBox="0 0 16 16" xmlns="http://www.w3.org/2000/svg">
<g transform="translate(0 -1036.4)" fill-rule="evenodd">
<path transform="translate(0 1036.4)" d="m8 1l-7 3v8l7 3 7-3v-8l-7-3z" fill="#2998ff"/>
<path d="m8 1037.4-7 3v8l7 3 7-3v-8l-7-3z" fill="#2998ff"/>
<path d="m3 1041.4v6l5 2 5-2v-6l-5-2z" fill="#2998ff"/>
<path d="m8 1049.4 5-2-5-2-5 2z" fill="#a2d2ff"/>
<path d="m8 1045.4 5 2v-6l-5-2z" fill="#68b6ff"/>
<path transform="translate(0 1036.4)" d="m8 1-7 3 2 1 5-2 5 2 2-1z" fill="#a2d2ff"/>
<path transform="translate(0 1036.4)" d="m1 4v8l7 3v-2l-5-2v-6z" fill="#68b6ff"/>
<path transform="translate(0 1036.4)" d="m15 4-2 1v6l-5 2v2l7-3z" fill="#2998ff"/>
</g>
</svg>
