<svg width="16" height="16" version="1.1" viewBox="0 0 16 16" xmlns="http://www.w3.org/2000/svg">
<g transform="translate(0 -1036.4)">
<path transform="translate(0 1036.4)" d="m5 3c-0.55226 5.52e-5 -0.99994 0.44774-1 1v8c5.52e-5 0.55226 0.44774 0.99994 1 1h4c1.0702 0 2.0645-0.5732 2.5996-1.5 0.5351-0.9268 0.5351-2.0732 0-3-0.40058-0.69381-1.058-1.1892-1.8125-1.3945 0.33452-0.84425 0.27204-1.8062-0.18945-2.6055-0.5351-0.9268-1.5275-1.5-2.5977-1.5zm1 2h1c0.35887 0 0.6858 0.1892 0.86523 0.5s0.17943 0.6892 0 1-0.50637 0.5-0.86523 0.5h-1zm0 4h1 2c0.35887 0 0.68775 0.1892 0.86719 0.5 0.17943 0.3108 0.17943 0.6892 0 1-0.17944 0.3108-0.50832 0.5-0.86719 0.5h-3z" color="#000000" color-rendering="auto" dominant-baseline="auto" fill="#e0e0e0" image-rendering="auto" shape-rendering="auto" solid-color="#000000" style="font-feature-settings:normal;font-variant-alternates:normal;font-variant-caps:normal;font-variant-east-asian:normal;font-variant-ligatures:normal;font-variant-numeric:normal;font-variant-position:normal;isolation:auto;mix-blend-mode:normal;shape-padding:0;text-decoration-color:#000000;text-decoration-line:none;text-decoration-style:solid;text-indent:0;text-orientation:mixed;text-transform:none;white-space:normal"/>
</g>
</svg>
