<svg width="16" height="16" version="1.1" viewBox="0 0 16 16" xmlns="http://www.w3.org/2000/svg">
<g transform="translate(0 -1036.4)">
<path transform="translate(0 1036.4)" d="m8 1c-2.8565 0-5.4995 1.5262-6.9277 4a1 1 0 0 0 0.36523 1.3672 1 1 0 0 0 1.3672 -0.36719c1.0726-1.8578 3.0501-3 5.1953-3 2.1452 0 4.1227 1.1422 5.1953 3a1 1 0 0 0 1.3672 0.36719 1 1 0 0 0 0.36523 -1.3672c-1.4283-2.4738-4.0712-4-6.9277-4zm0 4c-1.8056 0-3.396 1.2207-3.8633 2.9648a1 1 0 0 0 0.70703 1.2246 1 1 0 0 0 1.2246 -0.70703c0.23553-0.8791 1.0216-1.4824 1.9316-1.4824s1.6961 0.60332 1.9316 1.4824a1 1 0 0 0 1.2246 0.70703 1 1 0 0 0 0.70703 -1.2246c-0.46732-1.7441-2.0577-2.9648-3.8633-2.9648zm0 4c-0.554 0-1 0.446-1 1v1h-3a4 4 0 0 0 2 3.4648 4 4 0 0 0 4 0 4 4 0 0 0 2 -3.4648h-3v-1c0-0.554-0.446-1-1-1z" fill="#a5b7f3" fill-opacity=".98824"/>
</g>
</svg>
