<svg width="16" height="16" version="1.1" viewBox="0 0 16 16" xmlns="http://www.w3.org/2000/svg">
<g transform="translate(0 -1036.4)">
<path transform="translate(0 1036.4)" d="m1 1v2 1h1a1 1 0 0 1 1 -1h2v6a1 1 0 0 1 -1 1v1h1 2 1v-1a1 1 0 0 1 -1 -1v-6h2a1 1 0 0 1 1 1h1v-1-2h-4-2-4zm0 5v2h2v-2h-2zm0 3v2h2v-2h-2zm0 3v2h2v-2h-2zm3 0v2h2v-2h-2z" fill="#e0e0e0"/>
<path transform="translate(0 1036.4)" d="m4 5v2 1h1a1 1 0 0 1 1 -1h2v6a1 1 0 0 1 -1 1v1h1 2 1v-1a1 1 0 0 1 -1 -1v-6h2a1 1 0 0 1 1 1h1v-1-2h-4-2-4z" fill="#ff8484"/>
</g>
</svg>
