<svg width="16" height="16" version="1.1" viewBox="0 0 16 16" xmlns="http://www.w3.org/2000/svg">
<g transform="translate(0 -1036.4)">
<path transform="translate(0 1036.4)" d="m1 1v14h8.2578l-0.82227-2h-5.4355v-2h4.6113l-0.82227-2h-3.7891v-2h3.8867a1.5002 1.5002 0 0 1 1.0977 -0.49805v-0.0019531a1.5002 1.5002 0 0 1 0.58594 0.11133l0.94531 0.38867h0.48438v0.19922l2 0.82227v-7.0215h-11zm2 2h7v2h-7v-2zm5 5l3.291 8 0.94726-2.8203 1.8828 1.8828 0.94336-0.94141-1.8848-1.8828 2.8203-0.94726-8-3.291z" fill="#e0e0e0" fill-opacity=".99608"/>
</g>
</svg>
