<svg width="16" height="16" version="1.1" viewBox="0 0 16 16" xmlns="http://www.w3.org/2000/svg">
<path d="m2 1c-0.55226 1e-4 -0.99994 0.4477-1 1v8c5.52e-5 0.5523 0.44774 0.9999 1 1h3v0.27148a2 2 0 0 0 -1 1.7285 2 2 0 0 0 2 2 2 2 0 0 0 2 -2 2 2 0 0 0 -1 -1.7305v-0.26953h3c0.55226-1e-4 0.99994-0.4477 1-1v-3h0.27148a2 2 0 0 0 1.7285 1 2 2 0 0 0 2 -2 2 2 0 0 0 -2 -2 2 2 0 0 0 -1.7305 1h-0.26953v-3c-5.5e-5 -0.5523-0.44774-0.9999-1-1h-8z" color="#000000" color-rendering="auto" dominant-baseline="auto" fill="#e0e0e0" fill-opacity=".99608" fill-rule="evenodd" image-rendering="auto" shape-rendering="auto" solid-color="#000000" style="font-feature-settings:normal;font-variant-alternates:normal;font-variant-caps:normal;font-variant-ligatures:normal;font-variant-numeric:normal;font-variant-position:normal;isolation:auto;mix-blend-mode:normal;shape-padding:0;text-decoration-color:#000000;text-decoration-line:none;text-decoration-style:solid;text-indent:0;text-orientation:mixed;text-transform:none;white-space:normal"/>
</svg>
