<svg height="16" viewBox="0 0 16 16" width="16" xmlns="http://www.w3.org/2000/svg"><path d="m5 3c-.55226.0000552-.99994.44774-1 1v8c.0000552.55226.44774.99994 1 1h4c1.0702 0 2.0645-.5732 2.5996-1.5s.5351-2.0732 0-3c-.40058-.69381-1.058-1.1892-1.8125-1.3945.33452-.84425.27204-1.8062-.18945-2.6055-.5351-.9268-1.5275-1.5-2.5977-1.5zm1 2h1c.35887 0 .6858.1892.86523.5s.17943.6892 0 1-.50637.5-.86523.5h-1zm0 4h1 2c.35887 0 .68775.1892.86719.5.17943.3108.17943.6892 0 1-.17944.3108-.50832.5-.86719.5h-3z" fill="#e0e0e0"/></svg>
