<svg width="16" height="16" version="1.1" viewBox="0 0 16 16" xmlns="http://www.w3.org/2000/svg" xmlns:xlink="http://www.w3.org/1999/xlink">
<defs>
<linearGradient id="a" x1="8" x2="8" y1="1038.4" y2="1050.4" gradientTransform="matrix(1.0096 0 0 1.0227 -.0096153 -22.593)" gradientUnits="userSpaceOnUse">
<stop stop-color="#1ec3ff" offset="0"/>
<stop stop-color="#b2e1ff" offset="1"/>
</linearGradient>
</defs>
<g transform="translate(0 -1037.4)">
<path d="m1 1039.4c4.2749 2.6091 10.765 2.7449 14 0v12c-3.5849-2.6849-9.7929-2.6544-14 0z" fill="url(#a)" stroke-width="15.242"/>
<path transform="translate(0 1037.4)" d="m11 6c-0.554 0-1 0.446-1 1h-1c-0.554 0-1 0.446-1 1s0.446 1 1 1h2c0.554 0 1-0.446 1-1h1c0.554 0 1-0.446 1-1s-0.446-1-1-1h-2zm-8 3c-0.554 0-1 0.446-1 1s0.446 1 1 1h1c0.554 0 1-0.446 1-1s-0.446-1-1-1h-1z" fill="#fff"/>
</g>
</svg>
