<svg width="16" height="16" version="1.1" viewBox="0 0 16 16" xmlns="http://www.w3.org/2000/svg">
<g transform="translate(0 -1036.4)">
<path transform="translate(0 1036.4)" d="m3 2a2 2 0 0 0 -2 2 2 2 0 0 0 1 1.7305v5.541a2 2 0 0 0 -1 1.7285 2 2 0 0 0 2 2 2 2 0 0 0 1.7305 -1h6.541a2 2 0 0 0 1.7285 1 2 2 0 0 0 2 -2 2 2 0 0 0 -2 -2 2 2 0 0 0 -1.7305 1h-6.541a2 2 0 0 0 -0.72852 -0.73047v-5.541a2 2 0 0 0 1 -1.7285 2 2 0 0 0 -2 -2z" fill="#e0e0e0"/>
<path transform="translate(0 1036.4)" d="m9 1l-4 3 4 3v-2a3 3 0 0 1 3 3v2h2v-2a5 5 0 0 0 -5 -5v-2z" fill="#84ffb1"/>
</g>
</svg>
