<svg width="16" height="16" version="1.1" viewBox="0 0 16 16" xmlns="http://www.w3.org/2000/svg">
<g transform="translate(0 -1036.4)">
<path transform="translate(0 1036.4)" d="m8 1a7 7 0 0 0 -7 7 7 7 0 0 0 7 7 7 7 0 0 0 1.2129 -0.10742l-2.5996-6.3203a1.5002 1.5002 0 0 1 1.3711 -2.0703v-0.0019531a1.5002 1.5002 0 0 1 0.58594 0.11133l6.3184 2.5996a7 7 0 0 0 0.11133 -1.2109 7 7 0 0 0 -7 -7zm2.7559 9.7559l0.52344 1.2734a1.5002 1.5002 0 0 1 0.48047 -0.26953 1.5002 1.5002 0 0 1 0.26953 -0.47852l-1.2734-0.52539z" fill="#fff"/>
<path transform="translate(0 1036.4)" d="m8 3a5 5 0 0 0 -5 5 5 5 0 0 0 5 5 5 5 0 0 0 0.42578 -0.021484l-1.8125-4.4063a1.5002 1.5002 0 0 1 1.3711 -2.0703v-0.0019531a1.5002 1.5002 0 0 1 0.58594 0.11133l4.4082 1.8125a5 5 0 0 0 0.021484 -0.42383 5 5 0 0 0 -5 -5zm2.7559 7.7559l0.44336 1.0801a5 5 0 0 0 0.63867 -0.63281l-1.082-0.44727z" fill="#ff8484"/>
<path d="m16 1047.7-8-3.291 3.291 8 0.9471-2.8201 1.8836 1.8835 0.9418-0.9418-1.8836-1.8835z" fill="#e0e0e0"/>
</g>
</svg>
