<svg width="16" height="16" version="1.1" viewBox="0 0 16 16" xmlns="http://www.w3.org/2000/svg">
<g transform="translate(0 -1036.4)">
<path transform="translate(0 1036.4)" d="m10.479 1a2.4664 2.4663 0 0 0 -1.7813 0.7207 2.4664 2.4663 0 0 0 -0.31445 3.1035l-1.0723 1.0723 2.791 2.791 1.0762-1.0742a2.4664 2.4663 0 0 0 3.0996 -0.31055 2.4664 2.4663 0 0 0 0 -3.4883 2.4664 2.4663 0 0 0 -1.3965 -0.69727 2.4664 2.4663 0 0 0 -0.69531 -1.3965 2.4664 2.4663 0 0 0 -1.707 -0.7207zm-4.582 6.3105l-1.0723 1.0742a2.4664 2.4663 0 0 0 -3.1016 0.3125 2.4664 2.4663 0 0 0 0 3.4883 2.4664 2.4663 0 0 0 1.3965 0.69531 2.4664 2.4663 0 0 0 0.69531 1.3965 2.4664 2.4663 0 0 0 3.4883 0 2.4664 2.4663 0 0 0 0.31445 -3.1035l1.0703-1.0723-2.791-2.791z" fill="#e0e0e0" fill-opacity=".99608"/>
</g>
</svg>
