<svg width="16" height="16" version="1.1" viewBox="0 0 16 16" xmlns="http://www.w3.org/2000/svg">
<g transform="translate(0 -1036.4)" fill="#a5b7f3" fill-opacity=".98824">
<path transform="translate(0 1036.4)" d="m8 1a3 7 0 0 0 -3 7 3 7 0 0 0 3 7 3 7 0 0 0 3 -7 3 7 0 0 0 -3 -7zm0 1a2 6 0 0 1 2 6 2 6 0 0 1 -2 6 2 6 0 0 1 -2 -6 2 6 0 0 1 2 -6z"/>
<path d="m1 1044.4a7 3 0 0 0 7 3 7 3 0 0 0 7 -3 7 3 0 0 0 -7 -3 7 3 0 0 0 -7 3zm1 0a6 2 0 0 1 6 -2 6 2 0 0 1 6 2 6 2 0 0 1 -6 2 6 2 0 0 1 -6 -2z"/>
<path d="m3.0503 1049.3a3 7 45 0 0 7.0711 -2.8284 3 7 45 0 0 2.8284 -7.071 3 7 45 0 0 -7.0711 2.8284 3 7 45 0 0 -2.8284 7.071zm0.70711-0.7071a2 6 45 0 1 2.8284 -5.6568 2 6 45 0 1 5.6569 -2.8284 2 6 45 0 1 -2.8284 5.6568 2 6 45 0 1 -5.6569 2.8284z"/>
<path d="m12.95 1049.3a7 3 45 0 0 -2.8284 -7.071 7 3 45 0 0 -7.071 -2.8284 7 3 45 0 0 2.8284 7.071 7 3 45 0 0 7.071 2.8284zm-0.7071-0.7071a6 2 45 0 1 -5.6568 -2.8284 6 2 45 0 1 -2.8284 -5.6568 6 2 45 0 1 5.6568 2.8284 6 2 45 0 1 2.8284 5.6568z"/>
<circle cx="8" cy="1044.4" r="1"/>
</g>
</svg>
