<?xml version="1.0" encoding="UTF-8" ?>
<!DOCTYPE svg PUBLIC "-//W3C//DTD SVG 1.1//EN" "http://www.w3.org/Graphics/SVG/1.1/DTD/svg11.dtd">
<svg width="256pt" height="256pt" viewBox="0 0 256 256" version="1.1" xmlns="http://www.w3.org/2000/svg">
<g id="#478cbfff">
<path fill="#478cbf" opacity="1.00" d=" M 147.09 43.01 C 153.63 32.51 164.29 23.83 176.84 22.24 C 186.51 20.85 196.47 24.89 202.95 32.07 C 211.46 41.32 215.22 53.86 217.07 66.04 C 219.35 80.45 217.54 95.65 210.87 108.71 C 202.40 125.44 187.23 138.07 170.30 145.70 C 183.53 144.16 196.19 138.89 206.67 130.68 C 208.45 129.53 211.98 126.33 213.18 129.70 C 215.06 137.35 215.13 145.79 211.92 153.12 C 206.05 166.41 191.90 173.12 178.72 177.03 C 186.82 177.57 195.11 176.91 202.69 173.81 C 204.23 173.24 207.38 172.16 207.35 174.88 C 206.86 181.53 203.94 187.70 201.92 194.00 C 197.59 206.75 186.64 215.91 175.05 221.98 C 157.52 230.95 137.54 234.47 117.95 233.96 C 112.36 233.89 106.84 232.93 101.27 232.61 C 112.30 230.67 122.26 223.46 127.53 213.57 C 136.25 196.95 135.37 174.15 121.34 160.63 C 110.46 149.82 93.74 145.59 78.95 149.35 C 72.38 151.02 66.09 154.52 61.98 160.02 C 57.27 166.25 55.96 174.68 57.79 182.20 C 59.19 187.90 63.25 192.97 68.76 195.14 C 73.79 197.27 79.48 196.82 84.62 195.34 C 80.65 195.14 76.38 195.56 72.83 193.43 C 61.77 187.34 61.04 168.59 72.24 162.27 C 81.89 156.71 94.60 155.87 104.36 161.63 C 115.25 167.71 121.61 180.82 119.63 193.14 C 117.99 204.12 110.01 213.22 100.58 218.56 C 90.84 224.12 78.88 224.78 68.21 221.79 C 58.55 219.63 51.12 212.07 45.95 204.00 C 37.23 189.30 35.68 170.66 41.49 154.61 C 47.22 138.33 59.46 124.94 73.92 115.84 C 81.58 110.83 90.18 107.57 98.15 103.15 C 107.79 97.96 116.97 91.48 123.70 82.73 C 133.14 70.53 139.27 56.23 147.09 43.01 Z" />
</g>
</svg>
