<svg width="16" height="16" version="1.1" viewBox="0 0 16 16" xmlns="http://www.w3.org/2000/svg">
<g transform="translate(0 -1036.4)">
<path transform="translate(0 1036.4)" d="m5.0156 0.98633a1.0001 1.0001 0 0 0 -0.25977 0.029297 2 2 0 0 0 -1.7559 1.9844 2 2 0 0 0 2 2 2 2 0 0 0 2 -2 2 2 0 0 0 -1.7539 -1.9824 1.0001 1.0001 0 0 0 -0.23047 -0.03125zm4.9844 0.013672a1 1 0 0 0 -1 1 1 1 0 0 0 1 1h2a1 1 0 0 0 1 -1 1 1 0 0 0 -1 -1h-2zm-4 5.8672a4 4 0 0 1 -1 0.13281 4 4 0 0 1 -1 -0.13086v5 1.1309 1a1.0001 1.0001 0 1 0 2 0v-1-1.1328-5zm5 0.13281a1 1 0 0 0 -1 1 1 1 0 0 0 1 1 1 1 0 0 0 1 -1 1 1 0 0 0 -1 -1zm-1 6a1 1 0 0 0 -1 1 1 1 0 0 0 1 1h2a1 1 0 0 0 1 -1 1 1 0 0 0 -1 -1h-2z" color="#000000" color-rendering="auto" dominant-baseline="auto" fill="#a5efac" image-rendering="auto" shape-rendering="auto" solid-color="#000000" style="font-feature-settings:normal;font-variant-alternates:normal;font-variant-caps:normal;font-variant-ligatures:normal;font-variant-numeric:normal;font-variant-position:normal;isolation:auto;mix-blend-mode:normal;shape-padding:0;text-decoration-color:#000000;text-decoration-line:none;text-decoration-style:solid;text-indent:0;text-orientation:mixed;text-transform:none;white-space:normal"/>
</g>
</svg>
