<?xml version="1.0" encoding="UTF-8" standalone="no"?>
<svg
   xmlns:dc="http://purl.org/dc/elements/1.1/"
   xmlns:cc="http://creativecommons.org/ns#"
   xmlns:rdf="http://www.w3.org/1999/02/22-rdf-syntax-ns#"
   xmlns:svg="http://www.w3.org/2000/svg"
   xmlns="http://www.w3.org/2000/svg"
   xmlns:sodipodi="http://sodipodi.sourceforge.net/DTD/sodipodi-0.dtd"
   xmlns:inkscape="http://www.inkscape.org/namespaces/inkscape"
   width="16"
   height="16"
   version="1.1"
   viewBox="0 0 16 16"
   id="svg2"
   inkscape:version="0.91 r13725"
   sodipodi:docname="icon_GUI_visibility_hidden.svg">
  <metadata
     id="metadata12">
    <rdf:RDF>
      <cc:Work
         rdf:about="">
        <dc:format>image/svg+xml</dc:format>
        <dc:type
           rdf:resource="http://purl.org/dc/dcmitype/StillImage" />
        <dc:title />
      </cc:Work>
    </rdf:RDF>
  </metadata>
  <defs
     id="defs10" />
  <sodipodi:namedview
     pagecolor="#ffffff"
     bordercolor="#666666"
     borderopacity="1"
     objecttolerance="10"
     gridtolerance="10"
     guidetolerance="10"
     inkscape:pageopacity="0"
     inkscape:pageshadow="2"
     inkscape:window-width="1920"
     inkscape:window-height="1027"
     id="namedview8"
     showgrid="false"
     inkscape:zoom="14.75"
     inkscape:cx="18.882384"
     inkscape:cy="7.2939487"
     inkscape:window-x="-8"
     inkscape:window-y="-8"
     inkscape:window-maximized="1"
     inkscape:current-layer="svg2" />
  <path
     style="color:#000000;text-indent:0;text-decoration:none;text-decoration-line:none;text-decoration-style:solid;text-decoration-color:#000000;text-transform:none;white-space:normal;isolation:auto;mix-blend-mode:normal;solid-color:#000000;fill:#e0e0e0;fill-opacity:1;fill-rule:evenodd;color-rendering:auto;image-rendering:auto;shape-rendering:auto"
     d="M 8.3320312 2.1328125 C 8.1166713 2.129146 7.900423 2.1368613 7.6855469 2.1542969 C 4.8418629 2.3850399 2.1034153 4.4237115 1.0449219 7.5722656 C 0.98765482 7.7577705 0.9856205 7.9559357 1.0390625 8.1425781 C 1.2458895 8.8664725 1.5352035 9.5092453 1.8730469 10.089844 L 12.501953 3.7890625 C 11.256805 2.6845102 9.797893 2.1577685 8.3320312 2.1328125 z M 14.554688 3.3046875 L 0.7421875 11.507812 L 1.4453125 12.695312 L 15.257812 4.4921875 L 14.554688 3.3046875 z M 14.169922 5.8847656 L 3.6171875 12.140625 C 4.9944165 13.294116 6.6188565 13.867188 8 13.867188 C 10.5 13.867188 13.836536 12.077978 14.960938 8.1425781 C 15.012856 7.9619931 15.012856 7.7704285 14.960938 7.5898438 C 14.731965 6.9583712 14.46336 6.3981967 14.169922 5.8847656 z "
     id="path6" />
</svg>
