<svg width="16" height="16" version="1.1" viewBox="0 0 16 16" xmlns="http://www.w3.org/2000/svg">
<g fill="#fc9c9c">
<path d="m5 1c-2.216 0-4 1.784-4 4v6c0 2.216 1.784 4 4 4h6c2.216 0 4-1.784 4-4v-6c0-2.216-1.784-4-4-4zm-1 5c0.554 0 1 0.446 1 1v2c0 0.554-0.446 1-1 1s-1-0.446-1-1v-2c0-0.554 0.446-1 1-1zm8 0c0.554 0 1 0.446 1 1v2c0 0.554-0.446 1-1 1s-1-0.446-1-1v-2c0-0.554 0.446-1 1-1zm-1.8887 5.1074a1.0001 1.0001 0 0 1 0.7168 1.7207c-0.74987 0.74987-1.7676 1.1719-2.8281 1.1719s-2.0783-0.422-2.8281-1.1719a1.0001 1.0001 0 0 1 0.69727 -1.7168 1.0001 1.0001 0 0 1 0.7168 0.30273c0.37534 0.37535 0.88325 0.58594 1.4141 0.58594s1.0387-0.21059 1.4141-0.58594a1.0001 1.0001 0 0 1 0.69727 -0.30664z" fill="#fc9c9c"/>
</g>
</svg>
