<svg width="16" height="16" version="1.1" viewBox="0 0 16 16" xmlns="http://www.w3.org/2000/svg">
<g transform="translate(0 -1036.4)">
<path transform="translate(0 1036.4)" d="m4 1c-1.645 0-3 1.355-3 3s1.355 3 3 3c0.46079 0 0.89328-0.11549 1.2852-0.30469 0.18147 0.1867 0.43274 0.30469 0.71484 0.30469 0.554 0 1-0.446 1-1v-2-2c0-0.554-0.446-1-1-1-0.28152 0-0.53345 0.11683-0.71484 0.30273-0.39187-0.1892-0.82436-0.30273-1.2852-0.30273zm0 2c0.56412 0 1 0.4359 1 1s-0.43588 1-1 1-1-0.4359-1-1 0.43588-1 1-1zm6.8867 3.5293l-1.7891 0.89453 0.28906 0.57617h-2.3867v2h0.82031c0.13264 0.9292 0.4994 1.8938 1.1992 2.7305-0.61509 0.163-1.3569 0.26523-2.2656 0.26953l0.0097657 2c1.6777-0.01 3.0414-0.31328 4.1113-0.83398 1.07 0.5208 2.4336 0.82608 4.1113 0.83398l0.009766-2c-0.90873 0-1.6505-0.10653-2.2656-0.26953 0.7-0.8367 1.068-1.8013 1.2012-2.7305h1.0684v-2h-3.3789l-0.73438-1.4707zm-1.0234 3.4707h2.0234c-0.12578 0.5801-0.37537 1.147-0.83594 1.623-0.05313 0.055-0.11651 0.10676-0.17578 0.16016-0.05927-0.053-0.12265-0.10516-0.17578-0.16016-0.46056-0.476-0.71015-1.0429-0.83594-1.623z" color="#000000" color-rendering="auto" dominant-baseline="auto" fill="#e0e0e0" image-rendering="auto" shape-rendering="auto" solid-color="#000000" style="font-feature-settings:normal;font-variant-alternates:normal;font-variant-caps:normal;font-variant-ligatures:normal;font-variant-numeric:normal;font-variant-position:normal;isolation:auto;mix-blend-mode:normal;shape-padding:0;text-decoration-color:#000000;text-decoration-line:none;text-decoration-style:solid;text-indent:0;text-orientation:mixed;text-transform:none;white-space:normal"/>
</g>
</svg>
