<svg enable-background="new" height="16" viewBox="0 0 16 16" width="16" xmlns="http://www.w3.org/2000/svg"><path d="m13.370548 12.198712 1.078638-.0225c-.004-.738576-.008-1.477152-.01198-2.215728-1.429703.011985-2.859406.02397-4.289109.035955.004.759672.008 1.519344.01198 2.279016.40349-.01135.806981-.02271 1.210471-.03406v3.755044h2m-7.2700003-3.749287c.332722.21587.665444.431741.998166.647611-.3328629.218648-.6657258.437297-.9985887.655945-.0000001.818044-.0000002 1.636088-.0000003 2.454132.5662705-.533749 1.1325409-1.067498 1.6988114-1.601247.6353035.532396 1.2706071 1.064791 1.9059106 1.597187-.00095-.757409-.0019-1.514817-.00285-2.272226-.2987204-.278501-.5974407-.557002-.8961611-.835503.2983766-.205775.5967531-.41155.8951297-.617325.00283-.73844.00565-1.476881.00848-2.215321-.63732.474447-1.27464.948893-1.91196 1.42334-.5656447-.504299-1.1312895-1.008599-1.6969342-1.5128982m-1.4606388 2.2314242c.3595459-.0075.7190917-.015 1.0786376-.0225-.00399-.738576-.00799-1.477152-.011985-2.2157276-1.4297028.011985-2.8594057.02397-4.2891085.035955.00399.7596716.00799 1.5193436.011985 2.2790156.4034903-.01135.8069806-.02271 1.2104709-.03406v3.755044h2m2.3600877-14.999998c-.18815.7526-.3763 1.5052-.56445 2.2578-.3833928.1379205-.7411891.4041566-1.0765556.0469548-.5337315-.3203516-1.0674629-.6407032-1.6011944-.9610548-.4713667.4713667-.9427333.9427333-1.4141 1.4141.3984333.6647.7968667 1.3294 1.1953 1.9941-.1706946.369732-.2331288.8106877-.7232054.7948719-.6052849.1510593-1.2105697.3021187-1.8158546.4531781v2h5.2715c-.6869282-1.0800497-.0133438-2.6625661 1.2286888-2.9370347 1.2082391-.3582 2.5455142.6777799 2.4998312 1.9370347.104409.4657408-.6052318 1.1778026.181951 1h4.818019c0-.6666667 0-1.3333333 0-2-.7526-.18815-1.5052-.3763-2.2578-.56445-.138671-.3826756-.40361-.7396543-.047118-1.0747035.320406-.5343322.640812-1.0686643.961218-1.6029965-.471367-.4713667-.942733-.9427333-1.4141-1.4141-.6647.3984333-1.3294.7968667-1.9941 1.1953-.3697319-.1706947-.8106877-.2331288-.7948719-.7232054-.1510593-.6052849-.3021187-1.2105697-.4531781-1.8158546-.6666322.00004002-1.3334865-.00008002-1.99998.00006z" fill="#e0e0e0"/></svg>
