<?xml version="1.0" encoding="UTF-8" standalone="no"?>
<svg
   xmlns:dc="http://purl.org/dc/elements/1.1/"
   xmlns:cc="http://creativecommons.org/ns#"
   xmlns:rdf="http://www.w3.org/1999/02/22-rdf-syntax-ns#"
   xmlns:svg="http://www.w3.org/2000/svg"
   xmlns="http://www.w3.org/2000/svg"
   xmlns:sodipodi="http://sodipodi.sourceforge.net/DTD/sodipodi-0.dtd"
   xmlns:inkscape="http://www.inkscape.org/namespaces/inkscape"
   width="16"
   height="16"
   version="1.1"
   viewBox="0 0 16 16"
   id="svg6"
   sodipodi:docname="icon_sprite_sheet.svg"
   inkscape:version="0.92.3 (2405546, 2018-03-11)">
  <metadata
     id="metadata12">
    <rdf:RDF>
      <cc:Work
         rdf:about="">
        <dc:format>image/svg+xml</dc:format>
        <dc:type
           rdf:resource="http://purl.org/dc/dcmitype/StillImage" />
        <dc:title></dc:title>
      </cc:Work>
    </rdf:RDF>
  </metadata>
  <defs
     id="defs10" />
  <sodipodi:namedview
     pagecolor="#ffffff"
     bordercolor="#666666"
     borderopacity="1"
     objecttolerance="10"
     gridtolerance="10"
     guidetolerance="10"
     inkscape:pageopacity="0"
     inkscape:pageshadow="2"
     inkscape:window-width="773"
     inkscape:window-height="480"
     id="namedview8"
     showgrid="false"
     inkscape:zoom="14.75"
     inkscape:cx="8"
     inkscape:cy="8"
     inkscape:window-x="551"
     inkscape:window-y="278"
     inkscape:window-maximized="0"
     inkscape:current-layer="g4" />
  <g
     transform="translate(0 -1036.4)"
     id="g4">
    <path
       transform="translate(0 1036.4)"
       d="m3 1c-1.1046 0-2 0.89543-2 2v10c0 1.1046 0.89543 2 2 2h10c1.1046 0 2-0.89543 2-2v-10c0-1.1046-0.89543-2-2-2h-10zm0 2h2v2h-2v-2zm4 0h2v2h-2v-2zm4 0h2v2h-2v-2zm-8 4h2v2h-2v-2zm4 0h2v2h-2v-2zm4 0h2v2h-2v-2zm-8 4h2v2h-2v-2zm4 0h2v2h-2v-2zm4 0h2v2h-2v-2z"
       fill="#a5efac"
       id="path2"
       style="fill:#e0e0e0;fill-opacity:1" />
  </g>
</svg>
