<svg clip-rule="evenodd" fill-rule="evenodd" stroke-linejoin="round" stroke-miterlimit="2" viewBox="0 0 16 16" xmlns="http://www.w3.org/2000/svg"><g fill-rule="nonzero"><path d="m11.299 3c.772.513 1.42 1.199 1.888 2h-2.553c-.706-.621-1.629-1-2.634-1s-1.928.379-2.634 1h-2.553c.468-.801 1.116-1.487 1.888-2z" fill="#ffeb70"/><path d="m5.366 5c-.593.522-1.033 1.216-1.238 2h-2.043c.122-.717.373-1.392.728-2zm7.821 0c.355.608.606 1.283.728 2h-2.043c-.205-.784-.645-1.478-1.238-2z" fill="#9dff70"/><path d="m13.915 7c.056.326.085.66.085 1s-.029.674-.085 1h-2.043c.083-.32.128-.655.128-1s-.045-.68-.128-1zm-9.787 0c-.083.32-.128.655-.128 1s.045.68.128 1h-2.043c-.056-.326-.085-.66-.085-1s.029-.674.085-1z" fill="#70ffb9"/><path d="m4.128 9c.205.784.645 1.478 1.238 2h-2.553c-.355-.608-.606-1.283-.728-2zm9.787 0c-.122.717-.373 1.392-.728 2h-2.553c.593-.522 1.033-1.216 1.238-2z" fill="#70deff"/><path d="m11.299 13h-6.598c.949.631 2.084 1 3.299 1s2.35-.369 3.299-1z" fill="#ff70ac"/><path d="m13.187 11c-.468.801-1.116 1.487-1.888 2h-6.598c-.772-.513-1.42-1.199-1.888-2h2.553c.706.621 1.629 1 2.634 1s1.928-.379 2.634-1z" fill="#9f70ff"/><path d="m4.701 3h6.598c-.949-.631-2.084-1-3.299-1s-2.35.369-3.299 1z" fill="#ff7070"/></g></svg>
