<svg height="16" viewBox="0 0 16 16" width="16" xmlns="http://www.w3.org/2000/svg"><path d="m8 2a6 6 0 0 0 -6 6 6 6 0 0 0 6 6 6 6 0 0 0 4-1.5352v1.5352h.001953a2 2 0 0 0 .26562 1 2 2 0 0 0 1.7324 1h1v-1-1h-.5a.5.49999 0 0 1 -.5-.5v-.5-5a6 6 0 0 0 -6-6zm0 1a1 1 0 0 1 1 1 1 1 0 0 1 -1 1 1 1 0 0 1 -1-1 1 1 0 0 1 1-1zm3.4414 2a1 1 0 0 1 .88867.5 1 1 0 0 1 -.36523 1.3652 1 1 0 0 1 -1.3672-.36523 1 1 0 0 1 .36719-1.3652 1 1 0 0 1 .47656-.13477zm-6.9531.0019531a1 1 0 0 1 .54688.13281 1 1 0 0 1 .36719 1.3652 1 1 0 0 1 -1.3672.36523 1 1 0 0 1 -.36523-1.3652 1 1 0 0 1 .81836-.49805zm.023438 3.998a1 1 0 0 1 .89062.5 1 1 0 0 1 -.36719 1.3652 1 1 0 0 1 -1.3652-.36523 1 1 0 0 1 .36523-1.3652 1 1 0 0 1 .47656-.13477zm6.9043.0019531a1 1 0 0 1 .54883.13281 1 1 0 0 1 .36523 1.3652 1 1 0 0 1 -1.3652.36523 1 1 0 0 1 -.36719-1.3652 1 1 0 0 1 .81836-.49805zm-3.416 1.998a1 1 0 0 1 1 1 1 1 0 0 1 -1 1 1 1 0 0 1 -1-1 1 1 0 0 1 1-1z" fill="#e0e0e0"/></svg>
