<svg width="16" height="16" version="1.1" viewBox="0 0 16 16" xmlns="http://www.w3.org/2000/svg">
<g transform="translate(0 -1036.4)">
<path transform="translate(0 1036.4)" d="m11 1.1738c-1.1979 0.4235-1.999 1.5557-2 2.8262 9.552e-4 1.2705 0.80214 2.4027 2 2.8262v7.1738c0 0.554 0.446 1 1 1s1-0.446 1-1v-7.1758c1.1972-0.4232 1.9982-1.5544 2-2.8242-0.0018-1.2698-0.80282-2.401-2-2.8242v2.8242c0 0.5523-0.44772 1-1 1s-1-0.4477-1-1zm-7 1.8262v3.1328l-1.4453-0.96484-1.1094 1.6641 3 2c0.3359 0.22389 0.77347 0.22389 1.1094 0l3-2-1.1094-1.6641-1.4453 0.96484v-3.1328zm-0.5 8c-0.831 0-1.5 0.669-1.5 1.5v0.5h-1v2h8v-2h-1v-0.5c0-0.831-0.669-1.5-1.5-1.5z" fill="#a5efac"/>
</g>
</svg>
