<svg height="16" viewBox="0 0 16 16" width="16" xmlns="http://www.w3.org/2000/svg"><g fill="#fc9c9c" fill-opacity=".99608" fill-rule="evenodd" stroke-width=".428588"><path d="m3.9841079 1.0003375a.4286146.4286463 0 0 0 -.1757831.04437l-2.5714304 1.2858095a.4286146.4286463 0 0 0 -.2368844.3833985v2.5716206a.4286146.4286463 0 0 0 .2368844.3833988l2.5714304 1.2858102a.4286146.4286463 0 0 0 .3833703 0l2.5714305-1.2858102a.4286146.4286463 0 0 0 .2368844-.3833988v-2.5716206a.4286146.4286463 0 0 0 -.2368844-.3833985l-2.5714305-1.2858104a.4286146.4286463 0 0 0 -.2075916-.0443691zm.4444717 1.121741 1.7142869.8572068v1.6131347l-1.7142869-.8572067zm-.4285717 2.3573191 1.6130154.8061599-1.6130154.8069746-1.6130156-.8069746z"/><path d="m11.9841 1.0003375a.4286146.4286463 0 0 0 -.175783.04437l-2.5714305 1.2858095a.4286146.4286463 0 0 0 -.2368844.3833985v2.5716206a.4286146.4286463 0 0 0 .2368844.3833988l2.5714305 1.2858102a.4286146.4286463 0 0 0 .38337 0l2.571431-1.2858102a.4286146.4286463 0 0 0 .236884-.3833988v-2.5716206a.4286146.4286463 0 0 0 -.236884-.3833985l-2.571431-1.2858104a.4286146.4286463 0 0 0 -.207591-.044369zm.444472 1.121741 1.714287.8572068v1.6131347l-1.714287-.8572067zm-.428572 2.3573191 1.613015.8061599-1.613015.8069746-1.613016-.8069746z"/><path d="m3.9841079 9.0003376a.4286146.4286463 0 0 0 -.1757831.04437l-2.5714304 1.2858094a.4286146.4286463 0 0 0 -.2368844.383399v2.57162a.4286146.4286463 0 0 0 .2368844.383399l2.5714304 1.28581a.4286146.4286463 0 0 0 .3833703 0l2.5714305-1.28581a.4286146.4286463 0 0 0 .2368844-.383399v-2.57162a.4286146.4286463 0 0 0 -.2368844-.383399l-2.5714305-1.2858103a.4286146.4286463 0 0 0 -.2075916-.0443691zm.4444717 1.1217414 1.7142869.857206v1.613135l-1.7142869-.857207zm-.4285717 2.357319 1.6130154.80616-1.6130154.806974-1.6130156-.806974z"/><path d="m11.9841 9.0003376a.4286146.4286463 0 0 0 -.175783.04437l-2.5714305 1.2858094a.4286146.4286463 0 0 0 -.2368844.383399v2.57162a.4286146.4286463 0 0 0 .2368844.383399l2.5714305 1.28581a.4286146.4286463 0 0 0 .38337 0l2.571431-1.28581a.4286146.4286463 0 0 0 .236884-.383399v-2.57162a.4286146.4286463 0 0 0 -.236884-.383399l-2.571431-1.2858103a.4286146.4286463 0 0 0 -.207591-.044369zm.444472 1.1217414 1.714287.857206v1.613135l-1.714287-.857207zm-.428572 2.357319 1.613015.80616-1.613015.806974-1.613016-.806974z"/></g></svg>
