<svg width="64" height="64" version="1.1" viewBox="0 0 64 64" xmlns="http://www.w3.org/2000/svg">
<g transform="translate(0 -988.36)">
<g transform="translate(0 -1.6949e-5)">
<path transform="translate(0 988.36)" d="m14 5c-2.1987 0-4 1.8013-4 4v46c0 2.1987 1.8013 4 4 4h36c2.1987 0 4-1.8013 4-4v-33h-0.007812c0.00212-0.24832-0.079273-0.50098-0.28516-0.70703l-16-16c-0.18786-0.18693-0.44246-0.28939-0.70703-0.28906v-0.0039062h-23zm0 2h22v2 10c0 2.1987 1.8013 4 4 4h10 2v32c0 1.1253-0.87472 2-2 2h-36c-1.1253 0-2-0.8747-2-2v-46c0-1.1253 0.87472-2 2-2z" color="#000000" color-rendering="auto" dominant-baseline="auto" fill="#fff" fill-opacity=".58824" image-rendering="auto" shape-rendering="auto" solid-color="#000000" style="font-feature-settings:normal;font-variant-alternates:normal;font-variant-caps:normal;font-variant-ligatures:normal;font-variant-numeric:normal;font-variant-position:normal;isolation:auto;mix-blend-mode:normal;shape-padding:0;text-decoration-color:#000000;text-decoration-line:none;text-decoration-style:solid;text-indent:0;text-orientation:mixed;text-transform:none;white-space:normal"/>
</g>
</g>
</svg>
