<?xml version="1.0" encoding="utf-8"?>
<!-- Generator: Adobe Illustrator 19.0.0, SVG Export Plug-In . SVG Version: 6.00 Build 0)  -->
<svg version="1.0" id="Layer_1" xmlns="http://www.w3.org/2000/svg" xmlns:xlink="http://www.w3.org/1999/xlink" x="0px" y="0px"
	 viewBox="-297 389 16 16" style="enable-background:new -297 389 16 16;" xml:space="preserve">
<style type="text/css">
	.st0{fill-rule:evenodd;clip-rule:evenodd;fill:#E0E0E0;fill-opacity:0.7843;}
</style>
<path class="st0" d="M-283,405h-8c-0.6,0-1-0.4-1-1v-2h-3c-0.6,0-1-0.4-1-1v-11c0-0.6,0.4-1,1-1h8c0.6,0,1,0.4,1,1v3l4,4v7
	C-282,404.6-282.4,405-283,405z M-288,391h-6v2h3h3V391z M-284,398h-2c-0.6,0-1-0.4-1-1v-2h-3v8h6V398z"/>
</svg>
