<svg height="16" viewBox="0 0 16 16" width="16" xmlns="http://www.w3.org/2000/svg"><g fill="#fc9c9c" transform="translate(-2.5625 -18.4375)"><path d="m13.107422 19.382812a2.4664 2.4663 0 0 0 -1.78125.720704 2.4664 2.4663 0 0 0 -.185547.21289l1.332031 2.433594-1.605469.603516-3.414062 3.414062a2.4664 2.4663 0 0 0 -3.1015625.3125 2.4664 2.4663 0 0 0 0 3.488281 2.4664 2.4663 0 0 0 1.3964844.695313 2.4664 2.4663 0 0 0 .6953125 1.396484 2.4664 2.4663 0 0 0 3.4882812 0 2.4664 2.4663 0 0 0 .3144534-3.103515l3.560547-3.560547a2.4664 2.4663 0 0 0 3.099609-.310547 2.4664 2.4663 0 0 0 0-3.488281 2.4664 2.4663 0 0 0 -1.396484-.697266 2.4664 2.4663 0 0 0 -.695313-1.396484 2.4664 2.4663 0 0 0 -1.707031-.720704z"/><path d="m3.7211033 21.208326.9608286 4.82644 1.3962404-.524494z"/><path d="m6.4843278 19.465234.9608285 4.82644 1.3962404-.524494z"/><path d="m9.6964655 19.33678.7108285 3.51394 1.39624-.524494z"/></g></svg>
