<svg width="16" height="16" version="1.1" viewBox="0 0 16 16" xmlns="http://www.w3.org/2000/svg">
<g transform="translate(0 -1036.4)">
<rect x="2" y="1047.4" width="6" height="4" ry="1.5" fill="#a5efac"/>
<rect x="1" y="1049.4" width="8" height="2" ry="0" fill="#a5efac"/>
<path d="m2 1042.4 3 2 3-2" fill="none" stroke="#a5efac" stroke-linejoin="round" stroke-width="2"/>
<path d="m5 1039.4v5" fill="none" stroke="#a5efac" stroke-width="2"/>
<g transform="translate(9,-1)" fill="#a5efac">
<path d="m2 1038.5c-1.1979 0.4235-1.999 1.5557-2 2.8262 9.552e-4 1.2705 0.80214 2.4027 2 2.8262v7.1738c0 0.554 0.446 1 1 1s1-0.446 1-1v-7.1758c1.1972-0.4232 1.9982-1.5544 2-2.8242-0.00178-1.2698-0.80282-2.401-2-2.8242v2.8242c0 0.5523-0.44772 1-1 1s-1-0.4477-1-1z" fill="#a5efac"/>
</g>
</g>
</svg>
