<svg width="16" height="16" style="isolation:isolate" viewBox="0 0 16 16" xmlns="http://www.w3.org/2000/svg">
<path d="m7.984 1.002c-0.259 4e-3 -0.507 0.108-0.691 0.291l-2 2 1.414 1.414 1.293-1.293 1.293 1.293 1.414-1.414-2-2c-0.191-0.191-0.452-0.296-0.722-0.291h-1e-3zm-4.691 4.291l-2 2c-0.39 0.391-0.39 1.024 0 1.414l2 2 1.414-1.414-1.293-1.293 1.293-1.293-1.414-1.414zm9.414 0l-1.414 1.414 1.293 1.293-1.293 1.293 1.414 1.414 2-2c0.39-0.39 0.39-1.023 0-1.414l-2-2zm-6 6l-1.414 1.414 2 2c0.391 0.391 1.024 0.391 1.414 0l2-2-1.414-1.414-1.293 1.293-1.293-1.293z" fill="#e0e0e0" fill-opacity=".99608" fill-rule="evenodd"/>
<path d="m5.168 7.595l2.427-2.427c0.224-0.224 0.586-0.224 0.81 0l2.427 2.427c0.224 0.224 0.224 0.586 0 0.81l-2.427 2.427c-0.224 0.224-0.586 0.224-0.81 0l-2.427-2.427c-0.224-0.224-0.224-0.586 0-0.81z" fill="#84C2FF"/>
</svg>
