<svg height="16" viewBox="0 0 16 16" width="16" xmlns="http://www.w3.org/2000/svg"><path d="m6 1a5 5 0 0 0 -5 5h2a3 3 0 0 1 3-3 3 3 0 0 1 3 3c0 1.75-.54175 2.3583-1.1406 2.8574-.29944.2495-.62954.44071-.97656.69141-.17351.1253-.35729.26529-.53711.49219-.17982.227-.3457.58398-.3457.95898 0 1.2778-.31632 1.5742-.63867 1.7676-.32236.1934-.86133.23242-1.3613.23242h-1v2h1c.5 0 1.461.038922 2.3887-.51758.87316-.5239 1.4826-1.6633 1.5566-3.2266.011365-.0098.027247-.024684.10938-.083984.21547-.1556.63537-.40194 1.0859-.77734.90112-.751 1.8594-2.1445 1.8594-4.3945a5 5 0 0 0 -5-5zm7.9277 1-1.7383 1.0039a6 6 0 0 1 .81055 2.9961 6 6 0 0 1 -.80859 2.998l1.7363 1.002a8 8 0 0 0 0-8z" fill="#fc9c9c"/></svg>
