<svg width="16" height="16" version="1.1" viewBox="0 0 16 16" xmlns="http://www.w3.org/2000/svg">
<g transform="translate(0 -1036.4)" stroke-width="0">
<path transform="translate(0 1036.4)" d="m6.7246 3c-0.52985 0.78935-0.96267 1.4021-1.3945 2h5.3398c-0.43187-0.59786-0.86468-1.2107-1.3945-2h-2.5508z" fill="#ffeb70"/>
<path transform="translate(0 1036.4)" d="m5.3301 5c-0.52617 0.72841-1.0198 1.4208-1.375 2h8.0898c-0.35516-0.57924-0.84883-1.2716-1.375-2h-5.3398z" fill="#9dff70"/>
<path transform="translate(0 1036.4)" d="m3.9551 7c-0.41451 0.67603-0.71534 1.3082-0.85547 2h9.8008c-0.14013-0.69181-0.44096-1.324-0.85547-2h-8.0898z" fill="#70ffb9"/>
<path transform="translate(0 1036.4)" d="m3.0996 9c-0.063989 0.3159-0.099609 0.64498-0.099609 1 0 0.34242 0.034776 0.67693 0.10156 1h9.7969c0.066786-0.32307 0.10156-0.65758 0.10156-1 0-0.35502-0.03562-0.6841-0.099609-1h-9.8008z" fill="#70deff"/>
<path transform="translate(0 1036.4)" d="m3.1016 11c0.15381 0.74405 0.48967 1.4159 0.93555 2h7.9258c0.44588-0.5841 0.78173-1.2559 0.93555-2h-9.7969z" fill="#9f70ff"/>
<path transform="translate(0 1036.4)" d="m4.0371 13c0.9218 1.2076 2.3612 2 3.9629 2s3.0411-0.79243 3.9629-2h-7.9258z" fill="#ff70ac"/>
<path transform="translate(0 1036.4)" d="m8 1c-0.45196 0.75327-0.87224 1.3994-1.2754 2h2.5508c-0.40315-0.6006-0.82343-1.2467-1.2754-2z" fill="#ff7070"/>
</g>
</svg>
