<svg width="16" height="16" version="1.1" viewBox="0 0 16 16" xmlns="http://www.w3.org/2000/svg">
<path d="m7 1l-0.56445 2.2578c-0.23643 0.075851-0.46689 0.16921-0.68945 0.2793l-1.9883-1.1934-1.4141 1.4141 1.1953 1.9941c-0.11191 0.22113-0.20723 0.45028-0.28516 0.68555l-2.2539 0.5625v2l2.2578 0.56445c0.048141 0.14946 0.11579 0.29137 0.17773 0.43555h0.58789c0.51595-0.6841 1.1988-1.2456 2.0195-1.5957-0.028019-0.13296-0.042416-0.26842-0.042969-0.4043 9.6e-6 -1.1046 0.89543-2 2-2 1.1046 9.6e-6 2 0.89543 2 2-1.737e-4 0.1345-0.013915 0.26865-0.041016 0.40039 0.82295 0.35108 1.509 0.91301 2.0254 1.5996h0.58008c0.063668-0.14463 0.13192-0.2874 0.18164-0.4375l2.2539-0.5625v-2l-2.2578-0.56445c-0.075942-0.23577-0.1693-0.46557-0.2793-0.6875l1.1934-1.9902-1.4141-1.4141-1.9941 1.1953c-0.22113-0.11191-0.45028-0.20723-0.68555-0.28516l-0.5625-2.2539h-2zm1 6a1 1 0 0 0 -0.99805 0.92969 1 1 0 0 0 -0.0019531 0.070312v2.1738a3 3 0 0 0 -2 2.8262h1v2h1v-2h2v2h1v-2h1a3 3 0 0 0 -0.015625 -0.29883 3 3 0 0 0 -1.9844 -2.5254v-2.1758a1 1 0 0 0 -1 -1z" fill="#e0e0e0"/>
</svg>
