<?xml version="1.0" encoding="UTF-8" ?>
<!DOCTYPE svg PUBLIC "-//W3C//DTD SVG 1.1//EN" "http://www.w3.org/Graphics/SVG/1.1/DTD/svg11.dtd">
<svg width="64pt" height="64pt" viewBox="0 0 64 64" version="1.1" xmlns="http://www.w3.org/2000/svg">
<g id="#273f53f2">
<path fill="#273f53" opacity="0.95" d=" M 6.47 0.00 L 57.62 0.00 C 60.50 0.83 62.76 2.87 64.00 5.58 L 64.00 58.52 C 62.99 61.02 61.03 62.91 58.59 64.00 L 5.82 64.00 C 3.04 62.96 1.05 60.70 0.00 57.96 L 0.00 6.30 C 1.10 3.32 3.40 0.94 6.47 0.00 M 6.26 2.18 C 3.20 3.44 1.37 6.71 1.67 9.98 C 1.69 24.33 1.74 38.69 1.65 53.05 C 1.66 55.81 1.82 59.00 4.20 60.84 C 5.99 62.61 8.66 62.40 10.97 62.48 C 25.33 62.38 39.69 62.41 54.05 62.47 C 56.29 62.47 58.81 62.33 60.40 60.50 C 62.65 58.66 62.44 55.58 62.48 52.96 C 62.34 38.29 62.48 23.61 62.42 8.94 C 62.78 4.88 58.99 1.45 55.03 1.71 C 40.67 1.62 26.32 1.79 11.96 1.64 C 10.06 1.69 8.10 1.60 6.26 2.18 Z" />
</g>
<g id="#355570ff">
<path fill="#355570" opacity="1.00" d=" M 6.26 2.18 C 8.10 1.60 10.06 1.69 11.96 1.64 C 26.32 1.79 40.67 1.62 55.03 1.71 C 58.99 1.45 62.78 4.88 62.42 8.94 C 62.48 23.61 62.34 38.29 62.48 52.96 C 62.44 55.58 62.65 58.66 60.40 60.50 C 58.81 62.33 56.29 62.47 54.05 62.47 C 39.69 62.41 25.33 62.38 10.97 62.48 C 8.66 62.40 5.99 62.61 4.20 60.84 C 1.82 59.00 1.66 55.81 1.65 53.05 C 1.74 38.69 1.69 24.33 1.67 9.98 C 1.37 6.71 3.20 3.44 6.26 2.18 M 42.30 7.00 C 34.96 10.32 34.54 19.85 28.24 24.28 C 24.67 26.81 20.45 28.30 17.01 31.04 C 13.26 33.87 10.69 38.34 10.35 43.05 C 10.31 48.54 14.01 54.86 19.99 55.20 C 25.74 56.02 32.33 50.05 29.91 44.15 C 28.19 39.04 20.14 37.44 17.28 42.30 C 15.77 45.45 18.93 47.50 20.95 49.25 C 17.97 48.63 14.54 46.68 15.14 43.10 C 16.08 36.42 25.25 35.46 29.73 39.22 C 35.89 44.01 33.92 54.91 26.67 57.62 C 33.58 58.03 41.15 57.44 46.62 52.69 C 49.65 50.40 50.52 46.55 51.62 43.14 C 49.33 43.67 47.02 44.06 44.70 44.42 C 47.40 42.68 50.96 41.56 52.39 38.42 C 53.48 36.36 52.91 34.00 52.78 31.80 C 49.64 33.96 46.30 35.90 42.53 36.70 C 45.35 34.49 48.68 32.80 50.85 29.87 C 54.45 25.21 54.31 18.72 52.72 13.33 C 51.35 9.28 46.81 4.74 42.30 7.00 Z" />
</g>
<g id="#478cbfff">
<path fill="#478cbf" opacity="1.00" d=" M 42.30 7.00 C 46.81 4.74 51.35 9.28 52.72 13.33 C 54.31 18.72 54.45 25.21 50.85 29.87 C 48.68 32.80 45.35 34.49 42.53 36.70 C 46.30 35.90 49.64 33.96 52.78 31.80 C 52.91 34.00 53.48 36.36 52.39 38.42 C 50.96 41.56 47.40 42.68 44.70 44.42 C 47.02 44.06 49.33 43.67 51.62 43.14 C 50.52 46.55 49.65 50.40 46.62 52.69 C 41.15 57.44 33.58 58.03 26.67 57.62 C 33.92 54.91 35.89 44.01 29.73 39.22 C 25.25 35.46 16.08 36.42 15.14 43.10 C 14.54 46.68 17.97 48.63 20.95 49.25 C 18.93 47.50 15.77 45.45 17.28 42.30 C 20.14 37.44 28.19 39.04 29.91 44.15 C 32.33 50.05 25.74 56.02 19.99 55.20 C 14.01 54.86 10.31 48.54 10.35 43.05 C 10.69 38.34 13.26 33.87 17.01 31.04 C 20.45 28.30 24.67 26.81 28.24 24.28 C 34.54 19.85 34.96 10.32 42.30 7.00 Z" />
</g>
</svg>
