<svg width="16" height="16" version="1.1" viewBox="0 0 14.999999 14.999999" xmlns="http://www.w3.org/2000/svg">
<g>
<path transform="scale(.9375)" d="m8 1c-1.7469 0-3.328 0.22648-4.5586 0.63672-0.61528 0.20512-1.1471 0.45187-1.5898 0.80078-0.44272 0.34891-0.85156 0.88101-0.85156 1.5625v8c0 0.68149 0.40884 1.2155 0.85156 1.5645 0.44272 0.34891 0.97457 0.59577 1.5898 0.80078 1.2306 0.41024 2.8117 0.63477 4.5586 0.63477 0.095648 0 0.18467-0.008426 0.2793-0.009766-0.1722-0.29446-0.2793-0.62995-0.2793-0.99023v-1c-1.5668 0-2.9867-0.2195-3.9277-0.5332-0.46329-0.15435-0.90474-0.33752-1.0723-0.4668v-5.8125c0.1468 0.058667 0.2835 0.12515 0.44141 0.17773 1.2306 0.41024 2.8117 0.63477 4.5586 0.63477s3.328-0.22453 4.5586-0.63477c0.15791-0.052267 0.29461-0.11864 0.44141-0.17773v1.8125h1c0.36396 0 0.70348 0.10774 1 0.2832v-4.2832c0-0.68149-0.40884-1.2136-0.85156-1.5625-0.44272-0.34891-0.97457-0.59566-1.5898-0.80078-1.2306-0.41024-2.8117-0.63672-4.5586-0.63672zm0 2c1.5668 0 2.9867 0.22145 3.9277 0.53516 0.46368 0.15456 0.80138 0.33741 0.96875 0.4668-0.16752 0.12928-0.50546 0.3105-0.96875 0.46484-0.94102 0.31371-2.361 0.5332-3.9277 0.5332s-2.9867-0.2195-3.9277-0.5332c-0.46329-0.15435-0.80123-0.33556-0.96875-0.46484 0.16737-0.12939 0.50507-0.31224 0.96875-0.4668 0.94102-0.31371 2.361-0.53516 3.9277-0.53516z" fill="#fc9c9c" stroke-width="1.0667"/>
<path d="m11.25 8.4375c-0.51938 0-0.9375 0.41812-0.9375 0.9375v0.9375h1.875v1.875h0.9375c0.51938 0 0.9375-0.41812 0.9375-0.9375v-1.875c0-0.51938-0.41812-0.9375-0.9375-0.9375zm0.9375 3.75h-1.875v-1.875h-0.9375c-0.51938 0-0.9375 0.41812-0.9375 0.9375v1.875c0 0.51938 0.41812 0.9375 0.9375 0.9375h1.875c0.51938 0 0.9375-0.41812 0.9375-0.9375z" fill="#84c2ff"/>
</g>
</svg>
