<svg width="16" height="16" version="1.1" viewBox="0 0 16 16" xmlns="http://www.w3.org/2000/svg">
<g transform="translate(0 -1036.4)">
<path transform="translate(0 1036.4)" d="m13 1a2 2 0 0 0 -2 2 2 2 0 0 0 0.84961 1.6328c-0.19239 0.88508-0.55317 1.3394-0.98633 1.6426-0.64426 0.451-1.7129 0.60547-2.9629 0.73047s-2.6814 0.22053-3.9121 1.082c-0.89278 0.62493-1.5321 1.6522-1.8184 3.0957a2 2 0 0 0 -1.1699 1.8164 2 2 0 0 0 2 2 2 2 0 0 0 2 -2 2 2 0 0 0 -0.84961 -1.6328c0.19235-0.88496 0.55306-1.3373 0.98633-1.6406 0.64426-0.451 1.7129-0.60547 2.9629-0.73047s2.6814-0.22053 3.9121-1.082c0.8927-0.62488 1.5321-1.6538 1.8184-3.0977a2 2 0 0 0 1.1699 -1.8164 2 2 0 0 0 -2 -2z" fill="#a5b7f3" fill-opacity=".98824"/>
</g>
</svg>
