<svg width="16" height="16" version="1.1" viewBox="0 0 16 16" xmlns="http://www.w3.org/2000/svg">
<g transform="translate(0 -1036.4)">
<path transform="translate(0 1036.4)" d="m8 1c-1.3257 0-2.5977 0.52744-3.5352 1.4648a1 1 0 0 0 0 1.4141 1 1 0 0 0 0.69141 0.29297 1 1 0 0 0 0.72266 -0.29297c0.56288-0.5628 1.3251-0.87891 2.1211-0.87891s1.5582 0.31611 2.1211 0.87891a1 1 0 0 0 1.4141 0 1 1 0 0 0 0 -1.4141c-0.93741-0.9374-2.2095-1.4648-3.5352-1.4648zm-5 3.9961a1 1 0 0 0 -1 1c0 0.8334 0.32654 1.6973 0.96875 2.5 0.33016 0.41272 0.7705 0.79575 1.3008 1.0723a4 4 0 0 0 -0.13672 0.43164h-2.1328a1 1 0 0 0 -1 1 1 1 0 0 0 1 1h2.1309a4 4 0 0 0 0.17969 0.53711c-0.14177 0.089422-0.27868 0.1846-0.41016 0.2832-0.58533 0.439-1.1074 0.96875-1.6074 1.4688a1 1 0 0 0 0 1.4141 1 1 0 0 0 1.4141 0c0.5-0.5 0.97791-0.9722 1.3926-1.2832 0.1693-0.12693 0.3098-0.20282 0.44336-0.26953a4 4 0 0 0 2.457 0.84961 4 4 0 0 0 2.459 -0.84766c0.13307 0.066645 0.27298 0.14126 0.44141 0.26758 0.41467 0.311 0.89258 0.7832 1.3926 1.2832a1 1 0 0 0 1.4141 0 1 1 0 0 0 0 -1.4141c-0.5-0.5-1.0221-1.0297-1.6074-1.4688-0.13076-0.098068-0.26727-0.19224-0.4082-0.28125a4 4 0 0 0 0.17578 -0.53906h2.1328a1 1 0 0 0 1 -1 1 1 0 0 0 -1 -1h-2.1309a4 4 0 0 0 -0.13477 -0.43359c0.52857-0.27637 0.96751-0.65858 1.2969-1.0703 0.64221-0.8027 0.96875-1.6666 0.96875-2.5a1 1 0 0 0 -1 -1 1 1 0 0 0 -1 1c0 0.1667-0.17346 0.8028-0.53125 1.25-0.25089 0.31365-0.54884 0.54907-0.93164 0.66602a4 4 0 0 0 -0.60352 -0.41211 2 2 0 0 0 0.066406 -0.5 2 2 0 0 0 -2 -2 2 2 0 0 0 -2 2 2 2 0 0 0 0.066406 0.50391 4 4 0 0 0 -0.60352 0.4082c-0.3828-0.11694-0.68075-0.35236-0.93164-0.66602-0.35779-0.4472-0.53125-1.0833-0.53125-1.25a1 1 0 0 0 -1 -1z" color="#000000" color-rendering="auto" dominant-baseline="auto" fill="#e0e0e0" image-rendering="auto" shape-rendering="auto" solid-color="#000000" style="filter-blend-mode:normal;filter-gaussianBlur-deviation:0;font-feature-settings:normal;font-variant-alternates:normal;font-variant-caps:normal;font-variant-east-asian:normal;font-variant-ligatures:normal;font-variant-numeric:normal;font-variant-position:normal;isolation:auto;mix-blend-mode:normal;shape-padding:0;text-decoration-color:#000000;text-decoration-line:none;text-decoration-style:solid;text-indent:0;text-orientation:mixed;text-transform:none;white-space:normal"/>
</g>
</svg>
