<svg width="16" height="16" version="1.1" viewBox="0 0 16 16" xmlns="http://www.w3.org/2000/svg">
<path d="m7 1v3h2v-3h-2zm-4 4v2h3v-2h-3zm5 0c-0.55228 0-1 0.44772-1 1s0.44772 1 1 1 1-0.44772 1-1-0.44772-1-1-1zm2 0v2h3v-2h-3zm-3 3v3h2v-3h-2zm-3 4v1c0 0.55228 0.44772 1 1 1-0.55228 0-1 0.44772-1 1v1h1v-1h1v1h1v-1c0-0.55228-0.44772-1-1-1 0.55228 0 1-0.44772 1-1v-1h-1v1h-1v-1h-1zm5 0v1 3h1v-1h1v1h1v-1c-8.34e-4 -0.17579-0.047991-0.34825-0.13672-0.5 0.088728-0.15175 0.13588-0.32421 0.13672-0.5v-1c0-0.55228-0.44772-1-1-1h-1-1zm1 1h1v1h-1v-1z" fill="#fc9c9c"/>
</svg>
