<svg width="16" height="16" version="1.1" viewBox="0 0 16 16" xmlns="http://www.w3.org/2000/svg">
<g transform="translate(0 -1036.4)">
<path transform="translate(0,1036.4)" d="m2 1c-0.55228 0-1 0.44772-1 1v12c0 0.55228 0.44772 1 1 1h12c0.55228 0 1-0.44772 1-1v-12c0-0.55228-0.44772-1-1-1h-12zm1 2h10v8h-10v-8zm5.8184 1.0039c-0.85534 9.758e-4 -1.5654 0.66069-1.6289 1.5137-0.30036-0.27229-0.69029-0.4234-1.0957-0.42383-0.90315 0-1.6367 0.73162-1.6367 1.6348 9.732e-4 0.69217 0.43922 1.3103 1.0918 1.541v1.1855c0 0.30198 0.24293 0.54492 0.54492 0.54492h3.2695c0.30199 0 0.54492-0.24294 0.54492-0.54492v-0.54492l1.6367 1.0898v-3.2715l-1.6367 1.0918v-0.96484c0.34606-0.30952 0.54406-0.75251 0.54492-1.2168 0-0.90315-0.73162-1.6348-1.6348-1.6348z" fill="#e0e0e0" fill-opacity=".99608"/>
</g>
</svg>
