<svg width="16" height="16" version="1.1" viewBox="0 0 16 16" xmlns="http://www.w3.org/2000/svg">
<g transform="translate(0 -1036.4)">
<path transform="translate(0 1036.4)" d="m2 2a1.0001 1.0001 0 0 0 -1 1v10a1.0001 1.0001 0 0 0 1 1h8a1.0001 1.0001 0 0 0 0.78125 -0.375l4-5a1.0001 1.0001 0 0 0 0 -1.248l-4-5a1.0001 1.0001 0 0 0 -0.78125 -0.37695h-8zm1 2h6.5195l3.1992 4-3.1992 4h-6.5195v-8zm3 1c-1.1046 0-2 0.8954-2 2v4h1v-2h2v2h1v-4c0-1.1046-0.89543-2-2-2zm0 1a1 1 0 0 1 1 1v1h-2v-1a1 1 0 0 1 1 -1zm3 0v4l2-2-2-2z" color="#000000" color-rendering="auto" fill="#e0e0e0" fill-rule="evenodd" image-rendering="auto" shape-rendering="auto" solid-color="#000000" style="block-progression:tb;isolation:auto;mix-blend-mode:normal;text-decoration-color:#000000;text-decoration-line:none;text-decoration-style:solid;text-indent:0;text-transform:none;white-space:normal"/>
</g>
</svg>
