<svg width="16" height="16" version="1.1" viewBox="0 0 16 16" xmlns="http://www.w3.org/2000/svg">
<g transform="translate(0 -1036.4)">
<path transform="translate(0,1036.4)" d="m14.564 2-2.2441 0.32812 0.81836 1.9004 1.7148-0.25zm-4.2227 0.61523-1.9785 0.28906 0.81836 1.9023 1.9785-0.28906zm-3.959 0.57812-1.9785 0.28906 0.81836 1.9023 1.9785-0.28906zm-3.957 0.57812-1.7148 0.25 0.28906 1.9785 2.2441-0.32812zm-1.4258 3.2285v6c0 1.1046 0.89543 2 2 2h12v-8zm7.3932 0.9182c1.5298-4.448e-4 3.1456 1.0613 3.2225 2.9835 0.04361 1.9324-1.4836 2.993-3.2115 2.9926l0.033146-1.5309c0.95305-0.022169 1.5474-0.61535 1.5474-1.4727-0.032486-0.71636-0.55015-1.329-1.5916-1.307-0.89558 6.7e-5 -1.5442 0.68912-1.5584 1.3011h1.0571l-0.92538 1.0116-0.84609 0.88098-0.93447-0.86993-1.0027-1.0227 0.96735-0.011049c-0.019408-1.7644 1.5833-2.977 3.2427-2.9555z" fill="#e0e0e0"/>
</g>
</svg>
