<svg width="16" height="16" version="1.1" viewBox="0 0 16 16" xmlns="http://www.w3.org/2000/svg">
<g transform="translate(0 -1036.4)">
<path transform="translate(0 1036.4)" d="m8 1c-0.195 0-0.38964 0.07519-0.53906 0.22461l-3.2363 3.2363c-0.29884 0.29884-0.29884 0.77929 0 1.0781l3.2363 3.2363c0.29884 0.29884 0.77929 0.29884 1.0781 0l3.2363-3.2363c0.29884-0.29884 0.29884-0.77929 0-1.0781l-3.2363-3.2363c-0.14942-0.14942-0.34406-0.22461-0.53906-0.22461zm3 7v5c0 1.6569 1.3431 3 3 3h1v-2h-1c-0.55228-1e-5 -0.99999-0.44772-1-1v-5h-2zm-8 2c-0.71466-1e-4 -1.3751 0.3811-1.7324 1-0.35727 0.6188-0.35727 1.3812 0 2 0.35733 0.6189 1.0178 1.0001 1.7324 1h-2v2h2c0.71466 1e-4 1.3751-0.3811 1.7324-1 0.35727-0.6188 0.35727-1.3812 0-2-0.35733-0.6189-1.0178-1.0001-1.7324-1h2v-2h-2zm6 0c-1.6569 0-3 1.3431-3 3s1.3431 3 3 3h1v-2h-1c-0.55228-1e-5 -0.99999-0.44772-1-1 9.6e-6 -0.55228 0.44772-0.99999 1-1h1v-2h-1z" fill="#e0e0e0" fill-opacity=".99608"/>
</g>
</svg>
