<svg width="16" height="16" version="1.1" viewBox="0 0 16 16" xmlns="http://www.w3.org/2000/svg">
<g transform="translate(0 -1036.4)">
<path transform="translate(0 1036.4)" d="m8 1c-0.195 0-0.38964 0.07519-0.53906 0.22461l-3.2363 3.2363c-0.29884 0.29884-0.29884 0.77929 0 1.0781l3.2363 3.2363c0.29884 0.29884 0.77929 0.29884 1.0781 0l3.2363-3.2363c0.29884-0.29884 0.29884-0.77929 0-1.0781l-3.2363-3.2363c-0.14942-0.14942-0.34406-0.22461-0.53906-0.22461zm-7 7v5c0 1.6569 1.3471 3.114 3 3h1v-2h-1c-0.55228-1e-5 -0.99999-0.44772-1-1v-5h-2zm7 2c-1.645 0-3 1.355-3 3s1.355 3 3 3 3-1.355 3-3-1.355-3-3-3zm3 3c0 1.6569 1.3431 3 3 3h1v-2h-1c-0.55228-1e-5 -0.99999-0.44772-1-1 1e-5 -0.55228 0.44772-0.99999 1-1h1v-2h-1c-1.6569 0-3 1.3431-3 3zm-3-1c0.56413 0 1 0.4359 1 1 0 0.5642-0.43587 1-1 1s-1-0.4358-1-1c0-0.5641 0.43587-1 1-1z" fill="#e0e0e0" fill-opacity=".99608"/>
</g>
</svg>
