<svg width="16" height="16" version="1.1" viewBox="0 0 16 16" xmlns="http://www.w3.org/2000/svg">
<g transform="translate(0 -1036.4)">
<path d="m5 1047.4 6-6" fill="none" stroke="#e0e0e0" stroke-linecap="round" stroke-width="2"/>
<path transform="translate(0 1036.4)" d="m11 1c-2.1973 0-4 1.8027-4 4 0 0.35477 0.062329 0.69321 0.15039 1.0215l2.3945-2.3945c0.36302-0.38506 0.87563-0.62695 1.4551-0.62695 1.1164 0 2 0.8836 2 2 0 0.57388-0.23667 1.0829-0.61523 1.4453l-2.4043 2.4043c0.32773 0.087749 0.66541 0.15039 1.0195 0.15039 2.1973 0 4-1.8027 4-4s-1.8027-4-4-4zm-6 6c-2.1973 0-4 1.8027-4 4s1.8027 4 4 4 4-1.8027 4-4c0-0.35412-0.062641-0.6918-0.15039-1.0195l-2.4043 2.4043c-0.36245 0.37857-0.87143 0.61523-1.4453 0.61523-1.1164 0-2-0.8836-2-2 0-0.57944 0.24189-1.0921 0.62695-1.4551l2.3945-2.3945c-0.32827-0.088062-0.66671-0.15039-1.0215-0.15039z" color="#000000" color-rendering="auto" fill="#e0e0e0" image-rendering="auto" shape-rendering="auto" solid-color="#000000" style="block-progression:tb;isolation:auto;mix-blend-mode:normal;text-decoration-color:#000000;text-decoration-line:none;text-decoration-style:solid;text-indent:0;text-transform:none;white-space:normal"/>
</g>
</svg>
