<svg width="128" height="128" version="1.1" viewBox="0 0 128 128" xmlns="http://www.w3.org/2000/svg">
<path d="m18 8c-2.209 2.2e-4 -3.9998 1.791-4 4l0.01563 20h-6.0156c-2.209 2.2e-4 -3.9998 1.791-4 4v71.076c0 9.3065 7.6174 16.924 16.924 16.924h61.076c2.209-2e-4 3.9998-1.791 4-4v-12c-2.21e-4 -2.209-1.791-3.9998-4-4h-58v-40h20v12c2.21e-4 2.209 1.791 3.9998 4 4h32c2.209-2e-4 3.9998-1.791 4-4v-12h20v4c2e-3 0.72576 0.20093 1.4374 0.57617 2.0586-0.19584-6e-3 -0.37901-0.058594-0.57617-0.058594-10.998 0-20 9.0016-20 20-4e-6 0-4e-6 0.0098 0 0.0098 0.0088 6.2734 3.0833 12.01 8 15.756v2.2383c0 2.8834 1.66 5.3456 4 6.75v5.2461c2.21e-4 2.209 1.791 3.9998 4 4h8c2.209-2e-4 3.9998-1.791 4-4v-5.248c2.3405-1.4043 4-3.8682 4-6.752v-2.2344c4.9179-3.7475 7.9931-9.4866 8-15.762 0-7.935-4.7186-14.774-11.459-18h7.459c2.209-2.2e-4 3.9998-1.791 4-4v-32c-2.2e-4 -2.209-1.791-3.9998-4-4l-6-0.003906v-19.996c-2.2e-4 -2.209-1.791-3.9998-4-4zm8 38c1.1519 0 2 0.84806 2 2 3e-6 1.1519-0.84806 2-2 2s-2-0.84806-2-2c-3e-6 -1.1519 0.84806-2 2-2zm25 0c1.1519 0 2 0.84806 2 2 3e-6 1.1519-0.84806 2-2 2s-2-0.84806-2-2c-3e-6 -1.1519 0.84806-2 2-2zm26 0c1.1519 0 2 0.84806 2 2 3e-6 1.1519-0.84806 2-2 2s-2-0.84806-2-2c-3e-6 -1.1519 0.84806-2 2-2zm25 0c1.1519 0 2 0.84806 2 2s-0.84806 2-2 2-2-0.84806-2-2c-3e-6 -1.1519 0.84806-2 2-2zm2 38c3.3611 0 6 2.6388 6 6 0 3.361-2.639 6-6 6-3.361 0-6-2.639-6-6 0-3.3612 2.6389-6 6-6z" color="#000000" color-rendering="auto" dominant-baseline="auto" fill-opacity=".29412" image-rendering="auto" shape-rendering="auto" solid-color="#000000" style="font-feature-settings:normal;font-variant-alternates:normal;font-variant-caps:normal;font-variant-ligatures:normal;font-variant-numeric:normal;font-variant-position:normal;isolation:auto;mix-blend-mode:normal;shape-padding:0;text-decoration-color:#000000;text-decoration-line:none;text-decoration-style:solid;text-indent:0;text-orientation:mixed;text-transform:none;white-space:normal"/>
<path d="m18 12v16h92v-16zm-10 24v71.076c0 7.1594 5.7644 12.924 12.924 12.924h61.076v-12h-62v-48h88v8h12v-32zm18 6c3.3137-1e-5 6 2.6863 6 6 9e-6 3.3137-2.6863 6-6 6-3.3137 1e-5 -6-2.6863-6-6-9e-6 -3.3137 2.6863-6 6-6zm25 0c3.3137-1e-5 6 2.6863 6 6 9e-6 3.3137-2.6863 6-6 6-3.3137 1e-5 -6-2.6863-6-6-9e-6 -3.3137 2.6863-6 6-6zm26 0c3.3137-1e-5 6 2.6863 6 6 9e-6 3.3137-2.6863 6-6 6-3.3137 1e-5 -6-2.6863-6-6-9e-6 -3.3137 2.6863-6 6-6zm25 0c3.3137-1e-5 6 2.6863 6 6 1e-5 3.3137-2.6863 6-6 6-3.3137 1e-5 -6-2.6863-6-6-9e-6 -3.3137 2.6863-6 6-6zm-54 26v8h32v-8zm56 6c-8.8365 0-16 7.1634-16 16 8e-3 5.7082 3.0565 10.98 8 13.834v4.166c0 2.216 1.784 4 4 4h8c2.216 0 4-1.784 4-4v-4.1602c4.945-2.855 7.9937-8.1299 8-13.84 0-8.8366-7.1635-16-16-16zm0 6c5.5228 0 10 4.4771 10 10 0 5.5228-4.4772 10-10 10-5.5228 0-10-4.4772-10-10 0-5.5229 4.4772-10 10-10zm-4 36v4h8v-4z" fill="#f7f5cf"/>
</svg>
