<svg height="14" viewBox="0 0 14 14" width="14" xmlns="http://www.w3.org/2000/svg"><path d="m2 0c-1.1045695 0-2 .8954-2 2v10c0 1.1046.8954305 2 2 2h10c1.104569 0 2-.8954 2-2v-10c0-1.1046-.895431-2-2-2zm4.9726562 2a.71438238.71438238 0 0 1 .3476563.0742188l4.2851565 2.1425781a.71438238.71438238 0 0 1 .394531.640625v4.2851562a.71438238.71438238 0 0 1 -.394531.6386719l-4.2851565 2.142578a.71438238.71438238 0 0 1 -.640625 0l-4.2851563-2.142578a.71438238.71438238 0 0 1 -.3945312-.6386719v-4.2851562a.71438238.71438238 0 0 1 .3945312-.640625l4.2851563-2.1425781a.71438238.71438238 0 0 1 .2929687-.0742188zm.0273438 1.5136719-2.6894531 1.34375 2.6894531 1.34375 2.6894531-1.34375zm-3.5722656 2.4980469v2.6894531l2.8574218 1.4277341v-2.6874998zm7.1445316 0-2.8574222 1.4296874v2.6874998l2.8574222-1.4277341z" fill="#eac968"/></svg>
