<svg height="16" viewBox="0 0 16 16" width="16" xmlns="http://www.w3.org/2000/svg"><g fill="#e0e0e0"><path d="m2 1c-.5522847 0-1 .4477153-1 1v12c0 .552285.4477153 1 1 1h12c.552285 0 1-.447715 1-1v-12c0-.5522847-.447715-1-1-1zm1 2h10v8h-10z" fill-opacity=".99608" transform="translate(.359546 -.287637)"/><g fill-opacity=".996078" stroke-width=".207395" transform="matrix(1.6197742 0 0 .750929 -3.723153 1.832957)"><path d="m4.7302951 2.4553483h2.2481639v.9872012h-1.0701592v6.0559397h1.0701592v.9872008h-2.2481639z"/><path d="m10.138643 10.48569h-2.2481636v-.9872008h1.0701592v-6.0559397h-1.0701592v-.9872012h2.2481636z"/></g></g></svg>
