<svg height="16" viewBox="0 0 16 16" width="16" xmlns="http://www.w3.org/2000/svg"><g transform="translate(0 -1036.4)"><path d="m3 1a2 2 0 0 0 -2 2 2 2 0 0 0 1 1.7305v6.541a2 2 0 0 0 -1 1.7285 2 2 0 0 0 2 2 2 2 0 0 0 2-2 2 2 0 0 0 -1-1.7305v-5.8555l4.793 4.793 1.4141-1.4141-4.793-4.793h5.8574a2 2 0 0 0 1.7285 1 2 2 0 0 0 2-2 2 2 0 0 0 -2-2 2 2 0 0 0 -1.7305 1h-6.541a2 2 0 0 0 -1.7285-1zm10.656 6.9297-.70703.70703 1.4141 1.4141.70703-.70703zm-1.4141 1.4141-3.8887 3.8887-.35352 1.7676 1.7676-.35352 3.8887-3.8887-1.4141-1.4141z" fill="#a5efac" transform="translate(0 1036.4)"/><ellipse cx="3" cy="1039.4" fill="#6e6e6e"/></g></svg>
