<svg height="16" viewBox="0 0 16 16" width="16" xmlns="http://www.w3.org/2000/svg"><path d="m8 1a1 1 0 0 0 -1 1v9.5859l-1.293-1.293a1 1 0 0 0 -.7207-.29102 1 1 0 0 0 -.69336.29102 1 1 0 0 0 0 1.4141l3 3a1.0001 1.0001 0 0 0 .0039062.003907 1 1 0 0 0 .050781.044921 1.0001 1.0001 0 0 0 .03125.027344 1 1 0 0 0 .048828.035156 1.0001 1.0001 0 0 0 .023438.015625 1 1 0 0 0 .076172.044922 1.0001 1.0001 0 0 0 .0058593.003906 1 1 0 0 0 .013672.007813 1.0001 1.0001 0 0 0 .078125.035156 1 1 0 0 0 .074219.025391 1.0001 1.0001 0 0 0 .025391.009766 1 1 0 0 0 .039062.009765 1.0001 1.0001 0 0 0 .068359.013672 1.0001 1.0001 0 0 0 .097656.011719 1.0001 1.0001 0 0 0 .0078125 0 1 1 0 0 0 .0625.003906 1 1 0 0 0 .015625-.001953 1.0001 1.0001 0 0 0 .083984-.003906 1 1 0 0 0 .015625-.001953 1.0001 1.0001 0 0 0 .083984-.013672 1.0001 1.0001 0 0 0 .052734-.013672 1 1 0 0 0 .058594-.015625 1.0001 1.0001 0 0 0 .078125-.029297 1 1 0 0 0 .013672-.00586 1.0001 1.0001 0 0 0 .076172-.037109 1 1 0 0 0 .013672-.007812 1.0001 1.0001 0 0 0 .072266-.044922 1 1 0 0 0 .011719-.007813 1.0001 1.0001 0 0 0 .068359-.052734 1 1 0 0 0 .011719-.009766 1.0001 1.0001 0 0 0 .050781-.046875l.0097657-.011719 2.9902-2.9883a1 1 0 0 0 0-1.4141 1 1 0 0 0 -1.4141 0l-1.293 1.293v-9.5859a1 1 0 0 0 -1-1z" fill="#68b6ff" fill-rule="evenodd"/></svg>
