<svg height="16" viewBox="0 0 16 16" width="16" xmlns="http://www.w3.org/2000/svg"><path d="m8 1a3 7 0 0 0 -2.0801 1.9668 7 3 45 0 0 -2.8691.083984 7 3 45 0 0 -.080078 2.8633 7 3 0 0 0 -1.9707 2.0859 7 3 0 0 0 1.9668 2.0801 3 7 45 0 0 .083984 2.8691 3 7 45 0 0 2.8633.080078 3 7 0 0 0 2.0859 1.9707 3 7 0 0 0 2.0801-1.9668 7 3 45 0 0 2.8691-.083984 7 3 45 0 0 .080078-2.8633 7 3 0 0 0 1.9707-2.0859 7 3 0 0 0 -1.9668-2.0801 3 7 45 0 0 -.083984-2.8691 3 7 45 0 0 -2.8633-.080078 3 7 0 0 0 -2.0859-1.9707zm0 1a2 6 0 0 1 1.2598 1.3438 3 7 45 0 0 -1.2578.75977 7 3 45 0 0 -1.2637-.75781 2 6 0 0 1 1.2617-1.3457zm-3.6348 1.5293a6 2 45 0 1 1.2344.28906 3 7 0 0 0 -.35352 1.4238 7 3 0 0 0 -1.4297.35742 6 2 45 0 1 -.058594-1.8418 6 2 45 0 1 .60742-.22852zm7.0762.0039062a2 6 45 0 1 .80078.22461 2 6 45 0 1 -.060547 1.8418 7 3 0 0 0 -1.4238-.35352 3 7 0 0 0 -.35742-1.4297 2 6 45 0 1 1.041-.2832zm-4.998.70703a6 2 45 0 1 .74023.4707 3 7 45 0 0 -.41211.33984 7 3 0 0 0 -.52344.048828 2 6 0 0 1 .19531-.85938zm3.1152.0019531a2 6 0 0 1 .18945.85547 7 3 0 0 0 -.5293-.050781 7 3 45 0 0 -.4043-.33594 2 6 45 0 1 .74414-.46875zm-1.5586 1.7578a6 2 0 0 1 .82031.021484 6 2 45 0 1 .59375.56445 6 2 45 0 1 .56445.59375 2 6 0 0 1 .021484.82031 2 6 0 0 1 -.021484.82031 2 6 45 0 1 -.56445.59375 2 6 45 0 1 -.59375.56445 6 2 0 0 1 -.82031.021484 6 2 0 0 1 -.82031-.021484 6 2 45 0 1 -.59375-.56445 6 2 45 0 1 -.56445-.59375 2 6 0 0 1 -.021484-.82031 2 6 0 0 1 .021484-.82031 2 6 45 0 1 .56445-.59375 2 6 45 0 1 .59375-.56445 6 2 0 0 1 .82031-.021484zm2.9004.24805a6 2 0 0 1 .85938.19531 2 6 45 0 1 -.4707.74023 7 3 45 0 0 -.33984-.41211 3 7 0 0 0 -.048828-.52344zm-5.8027.0039062a3 7 0 0 0 -.050781.5293 3 7 45 0 0 -.33594.4043 6 2 45 0 1 -.46875-.74414 6 2 0 0 1 .85547-.18945zm7.5566.48633a6 2 0 0 1 1.3457 1.2617 6 2 0 0 1 -1.3438 1.2598 7 3 45 0 0 -.75977-1.2578 3 7 45 0 0 .75781-1.2637zm-9.3105.0019532a7 3 45 0 0 .75977 1.2578 3 7 45 0 0 -.75781 1.2637 6 2 0 0 1 -1.3457-1.2617 6 2 0 0 1 1.3438-1.2598zm4.6562.25977a1 1 0 0 0 -1 1 1 1 0 0 0 1 1 1 1 0 0 0 1-1 1 1 0 0 0 -1-1zm3.2891 1.8145a6 2 45 0 1 .46875.74414 6 2 0 0 1 -.85547.18945 3 7 0 0 0 .050781-.5293 3 7 45 0 0 .33594-.4043zm-6.5781.0019531a7 3 45 0 0 .33984.41211 3 7 0 0 0 .048828.52344 6 2 0 0 1 -.85938-.19531 2 6 45 0 1 .4707-.74023zm-.89258 1.584a7 3 0 0 0 1.4238.35352 3 7 0 0 0 .35742 1.4297 2 6 45 0 1 -1.8418.058594 2 6 45 0 1 .060547-1.8418zm8.3652 0a6 2 45 0 1 .058594 1.8418 6 2 45 0 1 -1.8418-.060547 3 7 0 0 0 .35352-1.4238 7 3 0 0 0 1.4297-.35742zm-2.4316.5a2 6 0 0 1 -.19531.85938 6 2 45 0 1 -.74023-.4707 3 7 45 0 0 .41211-.33984 7 3 0 0 0 .52344-.048828zm-3.5.001953a7 3 0 0 0 .5293.050781 7 3 45 0 0 .4043.33594 2 6 45 0 1 -.74414.46875 2 6 0 0 1 -.18945-.85547zm1.7461.99414a7 3 45 0 0 1.2637.75781 2 6 0 0 1 -1.2617 1.3457 2 6 0 0 1 -1.2598-1.3438 3 7 45 0 0 1.2578-.75977z" fill="#a5b7f3" fill-opacity=".98824"/></svg>
