<svg width="128" height="4" version="1.1" viewBox="0 0 128 4" xmlns="http://www.w3.org/2000/svg" xmlns:xlink="http://www.w3.org/1999/xlink">
<defs>
<linearGradient id="a" x2="128" y1="2" y2="2" gradientUnits="userSpaceOnUse">
<stop stop-color="#84ffb1" offset="0"/>
<stop stop-color="#e1dc7a" offset=".5"/>
<stop stop-color="#ff8484" offset="1"/>
</linearGradient>
</defs>
<g transform="translate(0 -1048.4)">
<path transform="translate(0 1048.4)" d="m2 0a2 2 0 0 0 -2 2 2 2 0 0 0 2 2h75 3 2 3 15v-4h-15-3-2-3-75zm100 0v4h24a2 2 0 0 0 2 -2 2 2 0 0 0 -2 -2h-24z" fill="url(#a)"/>
<path transform="translate(0 1048.4)" d="m2 0a2 2 0 0 0 -2 2 2 2 0 0 0 2 2h75 3 2 3 15v-4h-15-3-2-3-75zm100 0v4h24a2 2 0 0 0 2 -2 2 2 0 0 0 -2 -2h-24z" fill-opacity=".23529"/>
</g>
</svg>
