<svg width="16" height="16" xmlns="http://www.w3.org/2000/svg">
<rect x="-1" y="-1" width="582" height="402" fill="none"/>
<path d="m3 1c-1.1046 0-2 0.89543-2 2 5.6e-4 0.71397 0.38169 1.3735 1 1.7305v6.541c-0.61771 0.35664-0.99874 1.0152-1 1.7285 0 1.1046 0.89543 2 2 2 0.71397-5.6e-4 1.3735-0.38169 1.7305-1h1.2695v-2h-1.2715c-0.17478-0.30301-0.42598-0.55488-0.72852-0.73047v-5.8555l3.5859 3.5859h1.4141v-1.4141l-3.5859-3.5859h5.8574c0.17532 0.30158 0.42647 0.55205 0.72852 0.72656v1.2734h2v-1.2695c0.61831-0.35698 0.99944-1.0165 1-1.7305 0-1.1046-0.89543-2-2-2-0.71397 5.6e-4 -1.3735 0.38169-1.7305 1h-6.541c-0.35664-0.61771-1.0152-0.99874-1.7285-1zm8 7v3h-3v2h3v3h2v-3h3v-2h-3v-3h-2z" fill="#a5b7f3" stroke-linecap="round" stroke-linejoin="round" stroke-width="2"/>
</svg>
