<?xml version="1.0" encoding="UTF-8" standalone="no"?>
<svg
   xmlns:dc="http://purl.org/dc/elements/1.1/"
   xmlns:cc="http://creativecommons.org/ns#"
   xmlns:rdf="http://www.w3.org/1999/02/22-rdf-syntax-ns#"
   xmlns:svg="http://www.w3.org/2000/svg"
   xmlns="http://www.w3.org/2000/svg"
   xmlns:sodipodi="http://sodipodi.sourceforge.net/DTD/sodipodi-0.dtd"
   xmlns:inkscape="http://www.inkscape.org/namespaces/inkscape"
   width="16"
   height="16"
   version="1.1"
   viewBox="0 0 16 15.999999"
   id="svg8"
   sodipodi:docname="icon_GUI_slider_grabber.svg"
   inkscape:version="0.92.3 (2405546, 2018-03-11)">
  <metadata
     id="metadata14">
    <rdf:RDF>
      <cc:Work
         rdf:about="">
        <dc:format>image/svg+xml</dc:format>
        <dc:type
           rdf:resource="http://purl.org/dc/dcmitype/StillImage" />
        <dc:title></dc:title>
      </cc:Work>
    </rdf:RDF>
  </metadata>
  <defs
     id="defs12" />
  <sodipodi:namedview
     pagecolor="#ffffff"
     bordercolor="#666666"
     borderopacity="1"
     objecttolerance="10"
     gridtolerance="10"
     guidetolerance="10"
     inkscape:pageopacity="0"
     inkscape:pageshadow="2"
     inkscape:window-width="1211"
     inkscape:window-height="644"
     id="namedview10"
     showgrid="false"
     inkscape:zoom="14.75"
     inkscape:cx="-5.7627119"
     inkscape:cy="8"
     inkscape:window-x="67"
     inkscape:window-y="27"
     inkscape:window-maximized="0"
     inkscape:current-layer="g6" />
  <g
     transform="translate(0 -1036.4)"
     id="g6">
    <path
       transform="translate(0 1036.4)"
       d="m8 1a7 7 0 0 0 -7 7 7 7 0 0 0 7 7 7 7 0 0 0 7 -7 7 7 0 0 0 -7 -7zm0 2a5 5 0 0 1 0.5 0.025391 5 5 0 0 1 0.49414 0.074219 5 5 0 0 1 0.48438 0.12305 5 5 0 0 1 0.46875 0.17188 5 5 0 0 1 0.44922 0.2168 5 5 0 0 1 0.42578 0.26172 5 5 0 0 1 0.39844 0.30273 5 5 0 0 1 0.36524 0.33984 5 5 0 0 1 0.33008 0.37695 5 5 0 0 1 0.29102 0.40625 5 5 0 0 1 0.24805 0.43359 5 5 0 0 1 0.20508 0.45508 5 5 0 0 1 0.1582 0.47461 5 5 0 0 1 0.10938 0.48828 5 5 0 0 1 0.060547 0.49609 5 5 0 0 1 0.011719 0.35352 5 5 0 0 1 -0.025391 0.5 5 5 0 0 1 -0.074218 0.49414 5 5 0 0 1 -0.12305 0.48438 5 5 0 0 1 -0.17188 0.46875 5 5 0 0 1 -0.2168 0.44922 5 5 0 0 1 -0.26172 0.42578 5 5 0 0 1 -0.30273 0.39844 5 5 0 0 1 -0.33984 0.36524 5 5 0 0 1 -0.37695 0.33008 5 5 0 0 1 -0.40625 0.29102 5 5 0 0 1 -0.43359 0.24805 5 5 0 0 1 -0.45508 0.20508 5 5 0 0 1 -0.47461 0.1582 5 5 0 0 1 -0.48828 0.10938 5 5 0 0 1 -0.49609 0.060547 5 5 0 0 1 -0.35352 0.011719 5 5 0 0 1 -0.5 -0.025391 5 5 0 0 1 -0.49414 -0.074218 5 5 0 0 1 -0.48438 -0.12305 5 5 0 0 1 -0.46875 -0.17188 5 5 0 0 1 -0.44922 -0.2168 5 5 0 0 1 -0.42578 -0.26172 5 5 0 0 1 -0.39844 -0.30273 5 5 0 0 1 -0.36523 -0.33984 5 5 0 0 1 -0.33008 -0.37695 5 5 0 0 1 -0.29102 -0.40625 5 5 0 0 1 -0.24805 -0.43359 5 5 0 0 1 -0.20508 -0.45508 5 5 0 0 1 -0.1582 -0.47461 5 5 0 0 1 -0.10938 -0.48828 5 5 0 0 1 -0.060547 -0.49609 5 5 0 0 1 -0.011719 -0.35352 5 5 0 0 1 0.025391 -0.5 5 5 0 0 1 0.074219 -0.49414 5 5 0 0 1 0.12305 -0.48438 5 5 0 0 1 0.17188 -0.46875 5 5 0 0 1 0.2168 -0.44922 5 5 0 0 1 0.26172 -0.42578 5 5 0 0 1 0.30273 -0.39844 5 5 0 0 1 0.33984 -0.36523 5 5 0 0 1 0.37695 -0.33008 5 5 0 0 1 0.40625 -0.29102 5 5 0 0 1 0.43359 -0.24805 5 5 0 0 1 0.45508 -0.20508 5 5 0 0 1 0.47461 -0.1582 5 5 0 0 1 0.48828 -0.10938 5 5 0 0 1 0.49609 -0.060547 5 5 0 0 1 0.35352 -0.011719z"
       fill="#e0e0e0"
       id="path2"
       style="fill:#e0e0e0;fill-opacity:0.28925619" />
    <circle
       cx="8"
       cy="1044.4"
       r="3"
       fill="#fff"
       fill-opacity=".58824"
       stroke-linecap="round"
       stroke-linejoin="round"
       stroke-opacity=".32549"
       stroke-width="3"
       id="circle4" />
  </g>
  <g
     transform="translate(-0.06779632,-1036.4)"
     id="g18">
    <circle
       style="fill:#ffffff;fill-opacity:0.78430996;stroke-width:3;stroke-linejoin:round;stroke-opacity:0.39216003"
       cx="8"
       cy="1044.4"
       r="3"
       id="circle16" />
  </g>
</svg>
