<svg width="16" height="16" version="1.1" viewBox="0 0 16 16" xmlns="http://www.w3.org/2000/svg">
<g transform="translate(0 -1036.4)">
<path d="m5 1049.4c-2-9-1-10 8-8" fill="none" stroke="#f5f5f5" stroke-opacity=".39216" stroke-width="2"/>
<path d="m5 1039.4a2 2 0 0 0 -2 2 2 2 0 0 0 2 2 2 2 0 0 0 2 -2 2 2 0 0 0 -2 -2zm4.8789 5.4648-1.4141 1.4141 2.1211 2.1211-2.1211 2.1211 1.4141 1.4141l2.1211-2.1211 2.1211 2.1211 1.4141-1.4141-2.1211-2.1211 2.1211-2.1211-1.4141-1.4141-2.1211 2.1211z" fill="#ff8484"/>
<path d="m13 1039.4a2 2 0 0 0 -2 2 2 2 0 0 0 2 2 2 2 0 0 0 2 -2 2 2 0 0 0 -2 -2zm-8 8a2 2 0 0 0 -2 2 2 2 0 0 0 2 2 2 2 0 0 0 2 -2 2 2 0 0 0 -2 -2z" fill="#f5f5f5"/>
</g>
</svg>
