<?xml version="1.0" encoding="utf-8"?>
<!-- Generator: Adobe Illustrator 16.0.5, SVG Export Plug-In . SVG Version: 6.00 Build 0)  -->
<!DOCTYPE svg PUBLIC "-//W3C//DTD SVG 1.1//EN" "http://www.w3.org/Graphics/SVG/1.1/DTD/svg11.dtd">
<svg version="1.1" xmlns="http://www.w3.org/2000/svg" xmlns:xlink="http://www.w3.org/1999/xlink" x="0px" y="0px" width="16px"
	 height="16px" viewBox="0 0 16 16" enable-background="new 0 0 16 16" xml:space="preserve">
<g id="Layer_1" display="none">
	<rect x="-54.197" y="-45.833" display="inline" fill="#46495C" width="119.333" height="81.167"/>
</g>
<g id="Layer_2">
	<g>
		<g>
			<path fill="#BFBFBF" d="M1.786,3.5h3.836c0.05,0.009,0.089,0.016,0.115,0.021C5.761,3.526,5.779,3.528,5.79,3.528
				c0.01,0,0.02-0.002,0.03-0.008c0.01-0.004,0.02-0.007,0.031-0.007L6.153,3.57c0.092,0.029,0.172,0.053,0.243,0.071
				C6.466,3.66,6.527,3.679,6.578,3.698c1.345,0.631,2.018,1.569,2.018,2.813c0,0.077-0.004,0.156-0.009,0.241
				C8.583,6.836,8.575,6.921,8.565,7.006C8.109,8.702,7.013,9.551,5.273,9.551c-0.091,0-0.185-0.003-0.281-0.007
				C4.896,9.539,4.798,9.531,4.698,9.522h-1.29v2.603h-1.79v-0.617V8.829V7.6V3.796V3.5H1.786z M3.377,8.066h1.729
				c0.061,0,0.114,0.002,0.16,0.007C5.311,8.078,5.359,8.085,5.41,8.095c0.021-0.019,0.035-0.028,0.045-0.028h0.016l0.182-0.029
				L5.804,8.01c0.749-0.358,1.123-0.838,1.123-1.442c0-0.208-0.045-0.434-0.136-0.679C6.588,5.55,6.331,5.296,6.017,5.126
				c-0.07-0.019-0.139-0.038-0.205-0.057C5.747,5.05,5.683,5.031,5.622,5.012H5.486L5.333,4.984H3.377V8.066z"/>
		</g>
		<g>
			<path fill="#BFBFBF" d="M1.949,3.5h3.837C5.836,3.509,5.874,3.516,5.9,3.521c0.025,0.005,0.042,0.008,0.053,0.008
				c0.009,0,0.02-0.002,0.03-0.008c0.01-0.004,0.02-0.007,0.03-0.007L6.316,3.57c0.092,0.029,0.172,0.053,0.243,0.071
				C6.63,3.66,6.69,3.679,6.742,3.698c1.345,0.631,2.017,1.569,2.017,2.813c0,0.077-0.004,0.156-0.008,0.241
				C8.746,6.836,8.738,6.921,8.729,7.006C8.272,8.702,7.176,9.551,5.437,9.551c-0.091,0-0.185-0.003-0.281-0.007
				C5.06,9.539,4.961,9.531,4.861,9.522h-1.29v2.603h-1.79v-0.617V8.829V7.6V3.796V3.5H1.949z M3.541,8.066H5.27
				c0.061,0,0.114,0.002,0.16,0.007c0.044,0.004,0.093,0.012,0.144,0.021c0.021-0.019,0.035-0.028,0.045-0.028h0.016l0.182-0.029
				L5.967,8.01C6.716,7.651,7.09,7.171,7.09,6.568c0-0.208-0.046-0.434-0.137-0.679C6.751,5.55,6.494,5.296,6.18,5.126
				c-0.07-0.019-0.139-0.038-0.204-0.057C5.91,5.05,5.846,5.031,5.786,5.012H5.649L5.497,4.984H3.541V8.066z"/>
		</g>
		<rect x="8.208" y="10.521" fill="#BFBFBF" width="6.575" height="1.604"/>
		<path fill="#BFBFBF" d="M10.055,7.208c0,0.002-0.001,0.014-0.001,0.014l-0.03,0.133C9.887,7.983,9.686,8.541,9.439,9.044h5.344
			V7.208H10.055z"/>
		<path fill="#BFBFBF" d="M9.238,3.807C9.588,4.36,9.832,4.975,9.97,5.644h4.813V3.807H9.238z"/>
	</g>
	<g>
	</g>
	<g>
	</g>
	<g>
	</g>
	<g>
	</g>
	<g>
	</g>
	<g>
	</g>
</g>
</svg>
