<svg height="16" viewBox="0 0 16 16" width="16" xmlns="http://www.w3.org/2000/svg"><g fill="#ffd684" stroke-linejoin="round"><path d="m8.2421875 2a4.5 4.5 0 0 1 .7578125 2.5 4.5 4.5 0 0 1 -4.5 4.5 4.5 4.5 0 0 1 -2.5-.7636719v5.7636719h12l-6-6 6-6z" stroke-width="2"/><path d="m7.328125 1c.6472144.5230929 1.136703 1.2154082 1.4140625 2h2.8437505l-2.7675786 2.767578c-.2943505.9927946-.9220914 1.8536963-1.7773438 2.4375.0343146.1879491.1217471.3621363.2519532.501953l4.2929692 4.292969h-8.585938v-4.267578c-.785054-.2784421-1.4774185-.7693178-2-1.417969v6.685547c.0000552.552262.4477381.999945 1 1h12c.890637-.00035 1.336587-1.077036.707031-1.707031l-5.2929685-5.292969 5.2929685-5.292969c.629556-.6299945.183606-1.7066812-.707031-1.707031z"/></g></svg>
