<svg width="128" height="128" version="1.1" viewBox="0 0 128 128" xmlns="http://www.w3.org/2000/svg">
<g transform="translate(0 -924.36)">
<g transform="translate(2.3875 -1.9542)" fill="#f7f5cf" stroke="#000" stroke-opacity=".29412" stroke-width="4.6">
<g transform="matrix(.71838 0 0 .71838 -121.07 312.9)" style="paint-order:stroke markers fill">
<path d="m237.69 1021.4c-4.4477 7.3236-17.12 0.9312-25.688 0.9312s-21.24 6.3924-25.688-0.9312c-4.5795-7.5399 6.9169-16.281 11.345-23.912 4.197-7.2321 5.9809-20.58 14.343-20.58s10.146 13.348 14.343 20.58c4.428 7.6308 15.924 16.372 11.345 23.912z" stroke-width="4.6" style="paint-order:stroke markers fill"/>
<g transform="matrix(5.864 0 0 5.864 164.06 937.71)" stroke-width=".78445" style="paint-order:stroke markers fill">
<ellipse cx="5.7961" cy="3.5861" rx="1.4552" ry="2.4739" style="paint-order:stroke markers fill"/>
<ellipse cx="10.556" cy="3.5406" rx="1.4552" ry="2.4739" style="paint-order:stroke markers fill"/>
</g>
<g transform="matrix(5.864 0 0 5.864 163.8 937.71)" stroke-width=".78445" style="paint-order:stroke markers fill">
<ellipse cx="2.854" cy="7.7244" rx="1.4552" ry="2.4739" style="paint-order:stroke markers fill"/>
<ellipse cx="13.586" cy="7.7244" rx="1.4552" ry="2.4739" style="paint-order:stroke markers fill"/>
</g>
</g>
<g transform="matrix(.71838 0 0 .71838 -60.297 253.3)" style="paint-order:stroke markers fill">
<path d="m237.69 1021.4c-4.4477 7.3236-17.12 0.9312-25.688 0.9312s-21.24 6.3924-25.688-0.9312c-4.5795-7.5399 6.9169-16.281 11.345-23.912 4.197-7.2321 5.9809-20.58 14.343-20.58s10.146 13.348 14.343 20.58c4.428 7.6308 15.924 16.372 11.345 23.912z" stroke-width="4.6" style="paint-order:stroke markers fill"/>
<g transform="matrix(5.864 0 0 5.864 164.06 937.71)" stroke-width=".78445" style="paint-order:stroke markers fill">
<ellipse cx="5.7961" cy="3.5861" rx="1.4552" ry="2.4739" style="paint-order:stroke markers fill"/>
<ellipse cx="10.556" cy="3.5406" rx="1.4552" ry="2.4739" style="paint-order:stroke markers fill"/>
</g>
<g transform="matrix(5.864 0 0 5.864 163.8 937.71)" stroke-width=".78445" style="paint-order:stroke markers fill">
<ellipse cx="2.854" cy="7.7244" rx="1.4552" ry="2.4739" style="paint-order:stroke markers fill"/>
<ellipse cx="13.586" cy="7.7244" rx="1.4552" ry="2.4739" style="paint-order:stroke markers fill"/>
</g>
</g>
</g>
</g>
</svg>
