<svg width="16" height="16" version="1.1" viewBox="0 0 16 16" xmlns="http://www.w3.org/2000/svg">
<g transform="translate(0 -1036.4)">
<path d="m8 1037.4a7 7 0 0 0 -7 7 7 7 0 0 0 7 7 7 7 0 0 0 7 -7 7 7 0 0 0 -7 -7zm0 1a6 6 0 0 1 6 6 6 6 0 0 1 -6 6 6 6 0 0 1 -6 -6 6 6 0 0 1 6 -6z" fill="#a5b7f3" fill-opacity=".98824"/>
<path d="m8 1037.4a7 7 0 0 0 -5.0879 2.2051c0.10495 1.1207 0.35417 2.1959 0.89453 3.1933a2 2 0 0 1 1.1934 -0.3984 2 2 0 0 1 1.0508 0.3008c1.7873-2.6932 3.4181-3.9904 5.1914-4.4981a7 7 0 0 0 -3.2422 -0.8027zm-7 7a7 7 0 0 0 1.5254 4.3613c0.30281-0.9877 0.71628-1.9403 1.2461-2.7871a2 2 0 0 1 -0.77148 -1.5742h-2zm6 0a2 2 0 0 1 -0.94922 1.6992c1.7887 2.6953 3.4204 3.9932 5.1953 4.5a7 7 0 0 0 3.7539 -6.1992h-8z" fill="#a5b7f3" fill-opacity=".98824"/>
<circle cx="5" cy="1044.4" r="2" fill="#a5b7f3" fill-opacity=".98824"/>
<path d="m45 1037.4a7 7 0 0 0 -7 7 7 7 0 0 0 7 7 7 7 0 0 0 7 -7 7 7 0 0 0 -7 -7zm0 1a6 6 0 0 1 6 6 6 6 0 0 1 -6 6 6 6 0 0 1 -6 -6 6 6 0 0 1 6 -6z" fill="#a5b7f3" fill-opacity=".98824"/>
<path d="m38 1044.4c5 0.01 9 0.01 14 0-2-2.9934-5-4-7-4s-5 1.0066-7 4z" fill="#a5b7f3" fill-opacity=".98824" fill-rule="evenodd"/>
<path d="m38 1044.4c0 3.866 3.134 7 7 7s7-3.134 7-7c-2 2.9933-5 4-7 4s-5-1.0067-7-4z" fill="#a3b6f2"/>
<path d="m-9 1037.4a7 7 0 0 0 -7 7 7 7 0 0 0 7 7 7 7 0 0 0 7 -7 7 7 0 0 0 -7 -7zm0 1a6 6 0 0 1 6 6 6 6 0 0 1 -6 6 6 6 0 0 1 -6 -6 6 6 0 0 1 6 -6z" fill="#a3b6f2"/>
<circle cx="-9" cy="1044.4" r="2" fill="#a3b6f2"/>
<path d="m-9 1037.4a7 7 0 0 0 -3.5 0.9375l3.5 6.0625 3.5-6.0625a7 7 0 0 0 -3.5 -0.9375zm0 7 3.5 6.0625a7 7 0 0 0 2.5625 -2.5625 7 7 0 0 0 0.9375 -3.5h-7zh-7a7 7 0 0 0 0.9375 3.5 7 7 0 0 0 2.5625 2.5625l3.5-6.0625z" fill="#a3b6f2"/>
</g>
</svg>
