<svg xmlns="http://www.w3.org/2000/svg" width="16" height="16"><path d="M2 1v14h12V6H9V1H2zm8 0v4h4l-4-4zM7.322 9.03c.185 0 .334.01.448.03.117.018.285.055.501.108.05.014.087.036.108.064a.22.22 0 0 1 .047.118c.028.277.045.481.049.613.003.021-.006.04-.028.058a.1.1 0 0 1-.064.022c-.046 0-.076-.024-.09-.074a1.546 1.546 0 0 0-.133-.364.617.617 0 0 0-.197-.23 1.097 1.097 0 0 0-.326-.133 1.617 1.617 0 0 0-.405-.047c-.27 0-.513.071-.73.213-.217.142-.39.33-.514.565-.124.23-.185.479-.185.742 0 .295.06.58.185.853.125.27.297.49.518.66.224.168.48.252.764.252.245 0 .452-.055.619-.166.17-.113.317-.281.441-.502a.104.104 0 0 1 .049-.046.108.108 0 0 1 .059-.022c.02 0 .038.007.052.022.014.014.022.036.022.064 0 .043-.017.12-.05.234a2.84 2.84 0 0 1-.095.282.588.588 0 0 1-.062.097.312.312 0 0 1-.108.047c-.124.05-.277.089-.459.114a3.532 3.532 0 0 1-.549.04c-.334 0-.65-.073-.945-.222a1.876 1.876 0 0 1-.713-.64 1.688 1.688 0 0 1-.267-.94c0-.338.094-.642.283-.916.188-.278.441-.496.758-.656a2.22 2.22 0 0 1 1.017-.24zm-3.8.052c.099 0 .211.005.34.012l.283.004.255-.004c.114-.007.223-.012.327-.012.103 0 .154.02.154.059 0 .05-.059.086-.176.107-.139.025-.236.066-.293.123-.057.053-.086.14-.086.262v2.41c0 .12.034.211.102.271a.71.71 0 0 0 .32.123c.06.011.104.023.133.038.028.014.043.033.043.058 0 .04-.051.059-.154.059-.132 0-.246-.005-.342-.016a4.826 4.826 0 0 0-.283-.012c-.09 0-.199.005-.327.012-.106.01-.224.016-.355.016-.103 0-.156-.02-.156-.059 0-.025.014-.044.043-.058a.515.515 0 0 1 .132-.037.675.675 0 0 0 .317-.124c.067-.06.1-.15.1-.271v-2.41c0-.125-.027-.214-.08-.268-.05-.053-.143-.092-.278-.117-.117-.021-.176-.058-.176-.107 0-.04.053-.059.156-.059zm5.57 0l.23.006c.114.007.209.01.283.01l.256-.004c.043-.004.1-.006.17-.006.103 0 .155.02.155.058 0 .022-.013.039-.038.053a.784.784 0 0 1-.138.055c-.05.014-.099.058-.149.133a.425.425 0 0 0-.076.25v1.5c0 .412.102.721.305.927.203.207.475.309.816.309.356 0 .62-.122.795-.367.178-.249.266-.59.266-1.02 0-.217-.007-.599-.022-1.146a1.325 1.325 0 0 0-.058-.385c-.036-.11-.09-.176-.16-.197-.118-.032-.176-.067-.176-.106 0-.039.053-.058.156-.058l.398.004c.068 0 .153-.003.252-.01l.182-.006c.103 0 .154.02.154.059 0 .046-.058.082-.175.107-.168.032-.257.166-.268.4-.014.217-.024.439-.031.666-.004.224-.008.375-.012.454 0 .103-.003.258-.01.464-.007.27-.073.514-.197.73a1.36 1.36 0 0 1-.502.503c-.21.117-.444.176-.703.176-.466 0-.823-.122-1.068-.364-.246-.241-.368-.572-.368-.992V9.648c0-.117-.022-.207-.068-.267a.308.308 0 0 0-.178-.123c-.117-.032-.175-.071-.175-.117 0-.04.05-.059.154-.059z" fill="#e0e0e0"/></svg>