<svg width="16" height="12" version="1.1" viewBox="0 0 16 12" xmlns="http://www.w3.org/2000/svg">
<g transform="translate(0 -1040.4)">
<rect y="1050.4" width="4" height="2" fill="#e0e0e0"/>
<rect y="1040.4" width="2" height="12" fill="#e0e0e0"/>
<rect y="1040.4" width="4" height="2" fill="#e0e0e0"/>
<rect transform="scale(-1,1)" x="-16" y="1050.4" width="4" height="2" fill="#e0e0e0"/>
<rect transform="scale(-1,1)" x="-16" y="1040.4" width="2" height="12" fill="#e0e0e0"/>
<rect transform="scale(-1,1)" x="-16" y="1040.4" width="4" height="2" fill="#e0e0e0"/>
<path transform="translate(0 1040.4)" d="m3 3v6h2a3 3 0 0 0 3 -3v-3h-2v3a1 1 0 0 1 -1 1v-4h-2z" fill="#e286f0"/>
<path transform="translate(0 1040.4)" d="m8 1v2h1 1a1 1 0 0 1 -1 1v2a1 1 0 0 1 1 1 1 1 0 0 1 -1 1h-1v2h1a3 3 0 0 0 2.5977 -1.5 3 3 0 0 0 0 -3 3 3 0 0 0 -0.36523 -0.50195 3 3 0 0 0 0.36523 -0.49805 3 3 0 0 0 0.39844 -1.5h0.003906v-2h-0.76562-2.2344-1z" fill="#eeb9f6"/>
</g>
</svg>
