<svg width="14" height="14" version="1.1" viewBox="0 0 14 14" xmlns="http://www.w3.org/2000/svg">
<g transform="translate(0 -1038.4)">
<path transform="translate(0 1038.4)" d="m6.9844 1.002a1.0001 1.0001 0 0 0 -0.69141 0.29102l-3 3a1 1 0 0 0 0 1.4141 1 1 0 0 0 1.4141 0l2.293-2.293 2.293 2.293a1 1 0 0 0 1.4141 0 1 1 0 0 0 0 -1.4141l-3-3a1.0001 1.0001 0 0 0 -0.72266 -0.29102zm3 6.998a1 1 0 0 0 -0.69141 0.29297l-2.293 2.293-2.293-2.293a1 1 0 0 0 -0.7207 -0.29102 1 1 0 0 0 -0.69336 0.29102 1 1 0 0 0 0 1.4141l3 3a1.0001 1.0001 0 0 0 1.4141 0l3-3a1 1 0 0 0 0 -1.4141 1 1 0 0 0 -0.72266 -0.29297z" color="#000000" color-rendering="auto" dominant-baseline="auto" fill="#fff" fill-opacity=".58824" image-rendering="auto" shape-rendering="auto" solid-color="#000000" style="filter-blend-mode:normal;filter-gaussianBlur-deviation:0;font-feature-settings:normal;font-variant-alternates:normal;font-variant-caps:normal;font-variant-east-asian:normal;font-variant-ligatures:normal;font-variant-numeric:normal;font-variant-position:normal;isolation:auto;mix-blend-mode:normal;shape-padding:0;text-decoration-color:#000000;text-decoration-line:none;text-decoration-style:solid;text-indent:0;text-orientation:mixed;text-transform:none;white-space:normal"/>
</g>
</svg>
