<svg width="16" height="16" version="1.1" viewBox="0 0 16 16" xmlns="http://www.w3.org/2000/svg">
<g transform="translate(0 -1036.4)">
<path d="m11.012 1048.4a1.0001 1.0001 0 0 0 -1.7168 -0.6973l-0.29297 0.293v-7.1719l0.29297 0.293a1.0001 1.0001 0 0 0 1.7148 -0.7266 1.0001 1.0001 0 0 0 -0.30078 -0.6875l-2-2a1.0001 1.0001 0 0 0 -1.4141 0l-2 2a1.0001 1.0001 0 1 0 1.4141 1.4141l0.29297-0.293v7.1719l-0.29297-0.293a1.0001 1.0001 0 1 0 -1.4141 1.4141l2 2a1.0001 1.0001 0 0 0 1.4141 0l2-2a1.0001 1.0001 0 0 0 0.30273 -0.7168z" color="#000000" color-rendering="auto" dominant-baseline="auto" fill="#e0e0e0" fill-opacity=".99608" image-rendering="auto" shape-rendering="auto" solid-color="#000000" style="font-feature-settings:normal;font-variant-alternates:normal;font-variant-caps:normal;font-variant-ligatures:normal;font-variant-numeric:normal;font-variant-position:normal;isolation:auto;mix-blend-mode:normal;shape-padding:0;text-decoration-color:#000000;text-decoration-line:none;text-decoration-style:solid;text-indent:0;text-orientation:mixed;text-transform:none;white-space:normal"/>
</g>
</svg>
