<svg height="16" viewBox="0 0 4.233 4.233" width="16" xmlns="http://www.w3.org/2000/svg"><path d="m3.967.263-3.704.001v2.646h1.427a.993.993 0 0 1 -.022-.096.993.993 0 0 1 -.012-.099.993.993 0 0 1 -.002-.07.993.993 0 0 1 .005-.1.993.993 0 0 1 .014-.097.993.993 0 0 1 .025-.096.993.993 0 0 1 .034-.093.993.993 0 0 1 .043-.09.993.993 0 0 1 .052-.085.993.993 0 0 1 .06-.079.993.993 0 0 1 .068-.072.993.993 0 0 1 .074-.066.993.993 0 0 1 .08-.057.993.993 0 0 1 .087-.05.993.993 0 0 1 .09-.04.993.993 0 0 1 .095-.031.993.993 0 0 1 .096-.022.993.993 0 0 1 .099-.012.993.993 0 0 1 .07-.003.993.993 0 0 1 .099.006.993.993 0 0 1 .098.014.993.993 0 0 1 .096.025.993.993 0 0 1 .094.034.993.993 0 0 1 .089.043.993.993 0 0 1 .084.052.993.993 0 0 1 .08.06.993.993 0 0 1 .072.068.993.993 0 0 1 .065.074.993.993 0 0 1 .058.08.993.993 0 0 1 .05.087.993.993 0 0 1 .04.09.993.993 0 0 1 .031.095.993.993 0 0 1 .022.096.993.993 0 0 1 .012.099.993.993 0 0 1 .002.07.993.993 0 0 1 -.004.1.993.993 0 0 1 -.015.097.993.993 0 0 1 -.017.068h.365z" fill="#e0e0e0"/><g fill="#ff8484"><path d="m2.116 3.175v.793l.53-.253.529.253v-.793z"/><circle cx="2.646" cy="2.645" r=".794"/></g></svg>
