<svg width="16" height="16" version="1.1" viewBox="0 0 16 16" xmlns="http://www.w3.org/2000/svg">
<g transform="translate(0 -1036.4)">
<path transform="translate(0 1036.4)" d="m7.9629 1.002a1.0001 1.0001 0 0 0 -0.41016 0.10352l-6 3a1.0001 1.0001 0 0 0 -0.55273 0.89453v6a1.0001 1.0001 0 0 0 0.55273 0.89453l6 3a1.0001 1.0001 0 0 0 0.89453 0l6-3a1.0001 1.0001 0 0 0 0.55273 -0.89453v-6a1.0001 1.0001 0 0 0 -0.55273 -0.89453l-6-3a1.0001 1.0001 0 0 0 -0.48438 -0.10352zm0.037109 2.1172l3.7637 1.8809-3.7637 1.8828-3.7637-1.8828 3.7637-1.8809zm-5 3.498l4 2v3.7656l-4-2v-3.7656z" fill="#e0e0e0" fill-rule="evenodd"/>
</g>
</svg>
