<svg height="16" viewBox="0 0 16 16" width="16" xmlns="http://www.w3.org/2000/svg" xmlns:xlink="http://www.w3.org/1999/xlink"><linearGradient id="a" gradientUnits="userSpaceOnUse" x1="8" x2="8" y1="1" y2="15"><stop offset="0" stop-color="#ff7a7a"/><stop offset=".5" stop-color="#e1dc7a"/><stop offset="1" stop-color="#66ff9e"/></linearGradient><path d="m7.9999997 1c6.6837543 0 7.0000003.3165085 7.0000003 7.0057779 0 6.6877711-.286255 6.9755641-6.9367525 6.9938021-3.0191555.008313-4.4456225-.105997-5.1863245-.415726-1.570375-.65669-1.876923-1.727949-1.876923-6.5780761 0-6.6892694.316247-7.0057779 6.9999997-7.0057779zm3.5299143 1.7638478c-1.5662016 0-2.4379256 1.7724432-1.475213 2.9973439.738933.9401693 2.041543 1.025967 2.876923.1899002 1.183646-1.1846229.303279-3.1872441-1.40171-3.1872441zm-3.5760682 3.2710739c-1.5661974 0-2.4379268 1.7707341-1.4752138 2.9956331.7389365.9401892 2.0415435 1.0276772 2.8769233.191611 1.1836457-1.1846231.3032798-3.1872441-1.4017095-3.1872441zm-3.5538458 3.4729499c-.958537.031867-1.875214.7423284-1.875214 1.8493884 0 1.564955 2.248443 2.516522 3.249573 1.375494.7905175-.900982.8551191-1.664857.208547-2.487522-.416627-.5300879-1.007786-.7565128-1.582906-.7373604z" fill="url(#a)"/></svg>
