<svg width="16" height="16" version="1.1" viewBox="0 0 16 16" xmlns="http://www.w3.org/2000/svg">
<g transform="translate(0 -1036.4)" fill="#a5b7f3">
<path transform="translate(0 1036.4)" d="m10.5 0a5.5 5.5 0 0 0 -5.3301 4.1699 5.5 5.5 0 0 1 1.3301 -0.16992 5.5 5.5 0 0 1 5.5 5.5 5.5 5.5 0 0 1 -0.16992 1.3301 5.5 5.5 0 0 0 4.1699 -5.3301 5.5 5.5 0 0 0 -5.5 -5.5z" fill-opacity=".39216"/>
<path transform="translate(0 1036.4)" d="m8.5 2a5.5 5.5 0 0 0 -4.7559 2.748 5.5 5.5 0 0 1 2.7559 -0.74805 5.5 5.5 0 0 1 5.5 5.5 5.5 5.5 0 0 1 -0.74414 2.752 5.5 5.5 0 0 0 2.7441 -4.752 5.5 5.5 0 0 0 -5.5 -5.5z" fill-opacity=".58824"/>
<path transform="translate(0 1036.4)" d="m6.5 4a5.5 5.5 0 0 0 -5.5 5.5 5.5 5.5 0 0 0 5.5 5.5 5.5 5.5 0 0 0 5.5 -5.5 5.5 5.5 0 0 0 -5.5 -5.5zm-2.5 4a1 1 0 0 1 1 1 1 1 0 0 1 -1 1 1 1 0 0 1 -1 -1 1 1 0 0 1 1 -1zm5 0a1 1 0 0 1 1 1 1 1 0 0 1 -1 1 1 1 0 0 1 -1 -1 1 1 0 0 1 1 -1zm-5 3h5a2.5 2 0 0 1 -1.25 1.7324 2.5 2 0 0 1 -2.5 0 2.5 2 0 0 1 -1.25 -1.7324z"/>
</g>
</svg>
