<svg width="16" height="16" version="1.1" viewBox="0 0 4.2333333 4.2333333" xmlns="http://www.w3.org/2000/svg">
<path d="m1.5875 0c-0.28858 0-0.52917 0.24059-0.52917 0.52917v0.61132c-0.085589-0.051-0.18113-0.0891-0.28525-0.0853-0.34849 0.0127-0.5952 0.37346-0.48059 0.70278l0.26355 0.79066c0.048664 0.14623 0.15979 0.24805 0.29249 0.30644l-0.60927 0.40669c-0.13121 0.0845-0.22102 0.22389-0.24133 0.3633-0.020312 0.13941 0.017471 0.26985 0.087333 0.37465s0.17614 0.19045 0.31264 0.22532c0.13634 0.0348 0.29946 6e-3 0.42788-0.0827h5.159e-4l1.0852-0.72348 0.26097 0.52192c0.11682 0.23391 0.39274 0.34829 0.64079 0.26561l0.79375-0.26458-0.00775 3e-3c0.15105-0.0454 0.27732-0.15615 0.33486-0.2863 0.057538-0.13015 0.055144-0.26773 0.014986-0.38809-0.03156-0.0946-0.10972-0.1687-0.19275-0.23617 0.069099-0.0546 0.1445-0.10364 0.18035-0.19325 0.051761-0.12941 0.045257-0.29292-0.02377-0.43098l-0.26459-0.52946c-0.089407-0.17933-0.27348-0.29308-0.47335-0.29305h-0.1111c0.052029-0.0817 0.1111-0.16214 0.1111-0.26458v-0.79375c0-0.28858-0.24059-0.52917-0.52917-0.52917z" color="#000000" color-rendering="auto" dominant-baseline="auto" image-rendering="auto" shape-rendering="auto" solid-color="#000000" style="font-feature-settings:normal;font-variant-alternates:normal;font-variant-caps:normal;font-variant-ligatures:normal;font-variant-numeric:normal;font-variant-position:normal;isolation:auto;mix-blend-mode:normal;shape-padding:0;text-decoration-color:#000000;text-decoration-line:none;text-decoration-style:solid;text-indent:0;text-orientation:mixed;text-transform:none;white-space:normal"/>
<path d="m1.5875 0.26458c-0.14658 0-0.26458 0.118-0.26458 0.26459v0.79375c0 0.14658 0.118 0.26458 0.26458 0.26458h0.26458v0.262a0.26461 0.26461 0 0 0 -0.083716 0.0165l-0.5426 0.18086-0.18087-0.5426a0.26461 0.26461 0 0 0 -0.262 -0.18448 0.26461 0.26461 0 0 0 -0.2403 0.3514l0.26458 0.79375a0.26461 0.26461 0 0 0 0.33486 0.16743l0.44545-0.14831v0.16174c0 0.0108 0.00495 0.02 0.0062 0.0305l-1.2113 0.80771a0.26461 0.26461 0 1 0 0.29352 0.44028l1.3379-0.89194 0.39532 0.79014a0.26461 0.26461 0 0 0 0.32039 0.1328l0.79375-0.26458a0.26461 0.26461 0 1 0 -0.16743 -0.50175l-0.57619 0.19172-0.25787-0.51625c0.072998-0.047 0.12402-0.12495 0.12402-0.21859v-0.26458h0.36587l0.1912 0.38292a0.26461 0.26461 0 1 0 0.47336 -0.23668l-0.26458-0.52916a0.26461 0.26461 0 0 0 -0.23668 -0.14625h-0.79375v-0.26458h0.26458c0.14658 0 0.26458-0.118 0.26458-0.26458v-0.79375c0-0.14659-0.118-0.26459-0.26458-0.26459zm0 0.52917h0.26458v0.52917h-0.26458z" fill="#fff" fill-opacity=".99608"/>
</svg>
