<?xml version="1.0" encoding="UTF-8" standalone="no"?>
<svg
   xmlns:dc="http://purl.org/dc/elements/1.1/"
   xmlns:cc="http://creativecommons.org/ns#"
   xmlns:rdf="http://www.w3.org/1999/02/22-rdf-syntax-ns#"
   xmlns:svg="http://www.w3.org/2000/svg"
   xmlns="http://www.w3.org/2000/svg"
   xmlns:sodipodi="http://sodipodi.sourceforge.net/DTD/sodipodi-0.dtd"
   xmlns:inkscape="http://www.inkscape.org/namespaces/inkscape"
   width="16"
   height="16"
   version="1.1"
   viewBox="0 0 16 16"
   id="svg2"
   inkscape:version="0.91 r13725"
   sodipodi:docname="icon_GUI_visibility_xray.svg">
  <metadata
     id="metadata12">
    <rdf:RDF>
      <cc:Work
         rdf:about="">
        <dc:format>image/svg+xml</dc:format>
        <dc:type
           rdf:resource="http://purl.org/dc/dcmitype/StillImage" />
        <dc:title />
      </cc:Work>
    </rdf:RDF>
  </metadata>
  <defs
     id="defs10" />
  <sodipodi:namedview
     pagecolor="#ffffff"
     bordercolor="#666666"
     borderopacity="1"
     objecttolerance="10"
     gridtolerance="10"
     guidetolerance="10"
     inkscape:pageopacity="0"
     inkscape:pageshadow="2"
     inkscape:window-width="1920"
     inkscape:window-height="1027"
     id="namedview8"
     showgrid="false"
     inkscape:zoom="7.375"
     inkscape:cx="43.019438"
     inkscape:cy="-8.9853027"
     inkscape:window-x="-8"
     inkscape:window-y="-8"
     inkscape:window-maximized="1"
     inkscape:current-layer="svg2" />
  <g
     transform="translate(0.20338214,-1036.671)"
     id="g4"
     style="fill:#e0e0e0;fill-opacity:1" />
  <path
     id="path4154"
     style="opacity:1;fill:#e0e0e0;fill-opacity:1;fill-rule:nonzero;stroke:none;stroke-width:1.42799997;stroke-linecap:square;stroke-linejoin:miter;stroke-miterlimit:4;stroke-dasharray:none;stroke-dashoffset:0;stroke-opacity:1"
     d="m 5.0107427,7.1191578 c -0.084872,0.2859445 -0.1282828,0.5825859 -0.128907,0.8808593 8.579e-4,0.263009 0.034983,0.5248532 0.101563,0.7792969 l 6.0312493,0 C 11.081887,8.5249547 11.116668,8.2631092 11.118164,8.0000171 11.11754,7.7017437 11.074129,7.4051023 10.989257,7.1191578 Z M 7.9999096,2.000005 c -2.5567,0 -5.7907,1.9477 -6.9551,5.7051 -0.057267,0.1855049 -0.059303,0.3836676 -0.00586,0.57031 1.1244,3.9354 4.4609,5.7246 6.9609,5.7246 2.4999994,0 5.8364994,-1.7892 6.9608994,-5.7246 0.05192,-0.180585 0.05192,-0.372145 0,-0.55273 -1.1003,-3.7876 -4.4066,-5.7227 -6.9608994,-5.7227 z m 0,2 c 2.2091384,0 3.9999994,1.790861 3.9999994,4 0,2.209139 -1.790861,4 -3.9999994,4 -2.209139,0 -4,-1.790861 -4,-4 0,-2.209139 1.790861,-4 4,-4 z"
     inkscape:connector-curvature="0"
     sodipodi:nodetypes="ccccccccccsccccsssss" />
</svg>
