<svg width="16" height="12" version="1.1" viewBox="0 0 16 12" xmlns="http://www.w3.org/2000/svg">
<g transform="translate(0 -1040.4)">
<rect y="1050.4" width="4" height="2" fill="#e0e0e0"/>
<rect y="1040.4" width="2" height="12" fill="#e0e0e0"/>
<rect y="1040.4" width="4" height="2" fill="#e0e0e0"/>
<rect transform="scale(-1,1)" x="-16" y="1050.4" width="4" height="2" fill="#e0e0e0"/>
<rect transform="scale(-1,1)" x="-16" y="1040.4" width="2" height="12" fill="#e0e0e0"/>
<rect transform="scale(-1,1)" x="-16" y="1040.4" width="4" height="2" fill="#e0e0e0"/>
<path d="m6 1042.4a3 3 0 0 0 -3 3v5h2v-2h1v-2h-1v-1a1 1 0 0 1 1 -1v-2z" fill="#61daf4"/>
<path d="m10 1042.4v5a3 3 0 0 0 3 3v-2a1 1 0 0 1 -1 -1v-1h1v-2h-1v-2h-2z" fill="#61daf4"/>
<path d="m7 1042.4v5a3 3 0 0 0 3 3v-2a1 1 0 0 1 -1 -1v-5h-2z" fill="#c6f2fb"/>
</g>
</svg>
