<svg width="128" height="128" version="1.1" viewBox="0 0 128 128" xmlns="http://www.w3.org/2000/svg">
<g transform="translate(0 -924.36)" shape-rendering="auto">
<path transform="translate(0 924.36)" d="m99.645 6.0059c-0.9956 0.029687-1.9837 0.18322-2.9414 0.45703l-56 16c-5.1336 1.4668-8.7021 6.198-8.7031 11.537v44.203c-11.16 1.0331-20 10.379-20 21.797 1.1e-5 12.103 9.8971 22 22 22 12.103-1e-5 22-9.8971 22-22v-56.947l32-9.1426v28.293c-11.16 1.0331-20 10.379-20 21.797 1.1e-5 12.103 9.8971 22 22 22 12.103-1e-5 22-9.8971 22-22v-66c-0.00104-6.7137-5.6428-12.192-12.354-11.994z" color="#000000" color-rendering="auto" dominant-baseline="auto" fill-opacity=".29412" image-rendering="auto" solid-color="#000000" style="font-feature-settings:normal;font-variant-alternates:normal;font-variant-caps:normal;font-variant-east-asian:normal;font-variant-ligatures:normal;font-variant-numeric:normal;font-variant-position:normal;isolation:auto;mix-blend-mode:normal;shape-padding:0;text-decoration-color:#000000;text-decoration-line:none;text-decoration-style:solid;text-indent:0;text-orientation:mixed;text-transform:none;white-space:normal"/>
<path transform="translate(0 924.36)" d="m99.764 10.004a8.0008 8.0008 0 0 0 -1.9609 0.30469l-56 16a8.0008 8.0008 0 0 0 -5.8027 7.6914v48.121a18 18 0 0 0 -2 -0.12109 18 18 0 0 0 -18 18 18 18 0 0 0 18 18 18 18 0 0 0 18 -18v-59.965l40-11.428v37.514a18 18 0 0 0 -2 -0.12109 18 18 0 0 0 -18 18 18 18 0 0 0 18 18 18 18 0 0 0 18 -18v-66a8.0008 8.0008 0 0 0 -8.2363 -7.9961z" color="#000000" color-rendering="auto" dominant-baseline="auto" fill="#f7f5cf" image-rendering="auto" solid-color="#000000" style="filter-blend-mode:normal;filter-gaussianBlur-deviation:0;font-feature-settings:normal;font-variant-alternates:normal;font-variant-caps:normal;font-variant-east-asian:normal;font-variant-ligatures:normal;font-variant-numeric:normal;font-variant-position:normal;isolation:auto;mix-blend-mode:normal;shape-padding:0;text-decoration-color:#000000;text-decoration-line:none;text-decoration-style:solid;text-indent:0;text-orientation:mixed;text-transform:none;white-space:normal"/>
</g>
</svg>
