<svg height="16" viewBox="0 0 16 16" width="16" xmlns="http://www.w3.org/2000/svg"><g transform="translate(0 -1036.4)"><path d="m29 1042.4h1v1h-1z" fill="#fefeff"/><path d="m3 1a2 2 0 0 0 -1.4141.58594 2 2 0 0 0 -.58594 1.4141v10a2 2 0 0 0 .58594 1.4141 2 2 0 0 0 1.4141.58594h10a2 2 0 0 0 2-2v-10a2 2 0 0 0 -2-2h-10zm0 1h10a1 1 0 0 1 1 1v10a1 1 0 0 1 -1 1h-10a1 1 0 0 1 -1-1v-10a1 1 0 0 1 1-1zm0 1v2h2v-2zm8 0v2h2v-2zm-8 8v2h2v-2zm8 0v2h2v-2z" fill="#a5b7f3" fill-opacity=".98824" transform="translate(0 1036.4)"/></g></svg>
