<svg clip-rule="evenodd" fill-rule="evenodd" stroke-linecap="round" stroke-linejoin="round" stroke-miterlimit="1.5" viewBox="0 0 16 16" xmlns="http://www.w3.org/2000/svg"><g fill="#e0e0e0" fill-rule="nonzero"><path d="m3.755 1.396c-1.599 0-2.914 1.315-2.914 2.913 0 1.599 1.315 2.914 2.914 2.914 1.598 0 2.913-1.315 2.913-2.914 0-1.598-1.315-2.913-2.913-2.913zm0 1.462c.796 0 1.451.655 1.451 1.451 0 .797-.655 1.452-1.451 1.452-.797 0-1.452-.655-1.452-1.452 0-.796.655-1.451 1.452-1.451z"/><path d="m12.073 8.956c-1.599 0-2.914 1.316-2.914 2.914s1.315 2.914 2.914 2.914c1.598 0 2.914-1.316 2.914-2.914s-1.316-2.914-2.914-2.914zm0 1.463c.796 0 1.451.655 1.451 1.451s-.655 1.451-1.451 1.451-1.451-.655-1.451-1.451.655-1.451 1.451-1.451z"/><path d="m12.073 1.396c-1.599 0-2.914 1.315-2.914 2.913 0 1.599 1.315 2.914 2.914 2.914 1.598 0 2.914-1.315 2.914-2.914 0-1.598-1.316-2.913-2.914-2.913zm0 1.462c.796 0 1.451.655 1.451 1.451 0 .797-.655 1.452-1.451 1.452s-1.451-.655-1.451-1.452c0-.796.655-1.451 1.451-1.451z"/></g><path d="m9.159 11.87h-2.491l-2.913-2.914v-1.733" fill="none" stroke="#e0e0e0" stroke-width="1.5"/><path d="m9.159 4.309h-2.491" fill="none" stroke="#e0e0e0" stroke-width="1.5"/></svg>
