<svg clip-rule="evenodd" fill-rule="evenodd" stroke-linejoin="round" stroke-miterlimit="2" viewBox="0 0 16 16" xmlns="http://www.w3.org/2000/svg"><g fill-rule="nonzero"><path d="m4.607 8.379c-1.798.928-3.607 2.072-3.607 2.621 0 1 6 4 7 4s7-3 7-4c0-.549-1.809-1.693-3.607-2.621l.607 1.621c2 4-10 4-8 0z" fill="#fff" fill-opacity=".39"/><path d="m8 .875c-.375 0-.75.375-1 1.125l-3 8c-2 4 10 4 8 0l-3-8c-.25-.75-.625-1.125-1-1.125zm-1.5 4.125c1 .5 2 .5 3 0l1 3.5c-1.5 1-3.5 1-5 0z" fill="#e0e0e0"/></g></svg>
