<svg width="16" height="16" version="1.1" viewBox="0 0 16 16" xmlns="http://www.w3.org/2000/svg">
<g transform="translate(0 -1036.4)">
<path transform="translate(0 1036.4)" d="m3 1a1.0001 1.0001 0 0 0 -0.38672 0.078125 1.0001 1.0001 0 0 0 -0.0019531 0c-0.0022762 9.545e-4 -0.0035918 0.0029354-0.0058593 0.0039062a1.0001 1.0001 0 0 0 -0.31055 0.20898c-0.0012857 0.0012787-0.0026276 0.0026206-0.0039063 0.0039063a1.0001 1.0001 0 0 0 -0.20508 0.30469c-0.0029915 0.0068502-0.0069239 0.012601-0.0097656 0.019531a1.0001 1.0001 0 0 0 -0.076172 0.38086c0 1.5 0.96697 2.6247 1.873 3.6602 0.76081 0.8695 1.4161 1.6425 1.875 2.3398-0.45889 0.6974-1.1141 1.4723-1.875 2.3418-0.90608 1.0355-1.873 2.1582-1.873 3.6582a1.0001 1.0001 0 0 0 0.078125 0.38867v0.001953c9.292e-4 0.002204 0.0029617 0.003663 0.0039062 0.005859a1.0001 1.0001 0 0 0 0.20898 0.30664c0.0010185 0.001027 0.0028834 0.004836 0.0039063 0.005859a1.0001 1.0001 0 0 0 0.30078 0.20312c0.0093182 0.004119 0.017877 0.007879 0.027344 0.011719a1.0001 1.0001 0 0 0 0.37695 0.076172h10a1.0001 1.0001 0 0 0 0.375 -0.074219c0.010174-0.0041 0.019294-0.009251 0.029297-0.013672a1.0001 1.0001 0 0 0 0.29297 -0.19922c0.004786-0.004679 0.00898-0.008899 0.013672-0.013672a1.0001 1.0001 0 0 0 0.20117 -0.29492c0.004119-0.009318 0.007879-0.017877 0.011719-0.027344a1.0001 1.0001 0 0 0 0.076172 -0.37695c0-1.5-0.96697-2.6227-1.873-3.6582-0.76087-0.8695-1.4161-1.6444-1.875-2.3418 0.4589-0.6973 1.1142-1.4703 1.875-2.3398 0.90608-1.0355 1.873-2.1602 1.873-3.6602a1.0001 1.0001 0 0 0 -0.078125 -0.39062 1.0001 1.0001 0 0 0 -0.21484 -0.31641 1.0001 1.0001 0 0 0 -0.31055 -0.21094 1.0001 1.0001 0 0 0 -0.011718 -0.0058593 1.0001 1.0001 0 0 0 -0.38477 -0.076172h-10zm1.5879 2h6.8242c-0.2378 0.4408-0.3055 0.7892-0.78906 1.3418-0.84392 0.9645-1.8983 1.9723-2.5176 3.2109a1.0001 1.0001 0 0 0 -0.10547 0.44727 1.0001 1.0001 0 0 0 -0.10547 -0.44727c-0.61926-1.2386-1.6737-2.2464-2.5176-3.2109-0.48356-0.5526-0.55126-0.901-0.78906-1.3418z" fill="#e0e0e0"/>
</g>
</svg>
