<?xml version="1.0" encoding="UTF-8" standalone="no"?>
<!-- Created with Inkscape (http://www.inkscape.org/) -->

<svg
   xmlns:dc="http://purl.org/dc/elements/1.1/"
   xmlns:cc="http://creativecommons.org/ns#"
   xmlns:rdf="http://www.w3.org/1999/02/22-rdf-syntax-ns#"
   xmlns:svg="http://www.w3.org/2000/svg"
   xmlns="http://www.w3.org/2000/svg"
   xmlns:sodipodi="http://sodipodi.sourceforge.net/DTD/sodipodi-0.dtd"
   xmlns:inkscape="http://www.inkscape.org/namespaces/inkscape"
   version="1.1"
   id="svg2"
   width="48"
   height="16"
   viewBox="0 0 47.999999 16"
   sodipodi:docname="icon_g_l_e_s_3.svg"
   inkscape:version="0.92.3 (2405546, 2018-03-11)">
  <metadata
     id="metadata8">
    <rdf:RDF>
      <cc:Work
         rdf:about="">
        <dc:format>image/svg+xml</dc:format>
        <dc:type
           rdf:resource="http://purl.org/dc/dcmitype/StillImage" />
        <dc:title></dc:title>
      </cc:Work>
    </rdf:RDF>
  </metadata>
  <defs
     id="defs6" />
  <sodipodi:namedview
     pagecolor="#ffffff"
     bordercolor="#666666"
     borderopacity="1"
     objecttolerance="10"
     gridtolerance="10"
     guidetolerance="10"
     inkscape:pageopacity="0"
     inkscape:pageshadow="2"
     inkscape:window-width="1484"
     inkscape:window-height="697"
     id="namedview4"
     showgrid="false"
     inkscape:zoom="13.520979"
     inkscape:cx="20.549976"
     inkscape:cy="7.9399684"
     inkscape:window-x="67"
     inkscape:window-y="27"
     inkscape:window-maximized="0"
     inkscape:current-layer="svg2" />
  <path
     style="fill:#6aa455;fill-opacity:1;stroke-width:0.05234285"
     d="M 20.011719 2.9023438 C 19.90715 2.9022255 19.801697 2.9494036 19.726562 3.0449219 L 19.619141 3.1835938 L 19.619141 9.4023438 C 19.619141 14.357062 19.636882 15.227573 19.669922 15.314453 C 19.698292 15.38907 19.774644 15.4732 19.839844 15.5 C 19.9836 15.559128 20.192255 15.52045 20.298828 15.416016 C 20.298828 14.821446 20.378685 16.35047 20.390625 9.484375 L 20.404297 3.1835938 L 20.294922 3.0449219 C 20.219653 2.949233 20.116287 2.902462 20.011719 2.9023438 z M 33.578125 4.1972656 C 33.144709 4.2010336 32.716495 4.240406 32.416016 4.3144531 C 31.071981 4.6456644 30.100754 5.5238781 29.875 6.6113281 C 29.784173 7.0488418 29.835175 7.8376693 29.978516 8.1953125 C 30.282551 8.9538964 30.958456 9.4939257 32.072266 9.8691406 C 32.242288 9.9264163 32.881487 10.104023 33.492188 10.263672 C 35.149445 10.696934 35.575494 10.956666 35.621094 11.558594 C 35.680594 12.34404 34.940924 12.791048 33.673828 12.736328 C 32.978116 12.706282 32.589413 12.576557 32.242188 12.257812 C 31.991643 12.02782 31.762573 11.609465 31.761719 11.378906 C 31.761449 11.301612 31.739238 11.176002 31.710938 11.101562 L 31.658203 10.966797 L 30.597656 10.980469 L 29.537109 10.996094 L 29.521484 11.318359 C 29.490059 11.974628 29.806882 12.767321 30.322266 13.320312 C 30.866825 13.904606 31.5695 14.275849 32.498047 14.470703 C 33.459129 14.672381 34.791927 14.598978 35.677734 14.296875 C 36.978592 13.85322 37.789851 12.853418 37.869141 11.597656 C 37.925024 10.712652 37.665438 10.012041 37.074219 9.4589844 C 36.561964 8.9797953 36.008755 8.7328803 34.658203 8.3808594 C 32.302052 7.7667297 32.076172 7.6510363 32.076172 7.0605469 C 32.076172 6.609927 32.254549 6.3596535 32.730469 6.1464844 C 32.944167 6.0507668 33.08716 6.029508 33.515625 6.0292969 C 34.148052 6.028933 34.543774 6.1386072 34.849609 6.4003906 C 35.099098 6.6139448 35.195822 6.7845792 35.273438 7.1464844 C 35.308103 7.3081228 35.366714 7.4312793 35.425781 7.4628906 C 35.479346 7.4915596 35.943593 7.515625 36.464844 7.515625 C 37.580028 7.515625 37.599222 7.5076334 37.544922 7.0761719 C 37.354807 5.5655674 36.444834 4.6504759 34.771484 4.2929688 C 34.450201 4.2243268 34.011541 4.1934977 33.578125 4.1972656 z M 5.5175781 4.1992188 C 4.8691862 4.2376134 4.2355426 4.3965672 3.6894531 4.6699219 C 1.9729802 5.5291325 1.0295038 7.2003211 1.0214844 9.3984375 C 1.0171834 10.579889 1.2388248 11.479703 1.7480469 12.349609 C 2.0038374 12.786576 2.5763159 13.426376 2.9746094 13.71875 C 3.6255952 14.196618 4.5309283 14.517769 5.3808594 14.574219 C 6.0365058 14.617758 6.3712386 14.593916 6.84375 14.46875 C 7.3667333 14.330214 7.7980583 14.094335 8.1875 13.730469 C 8.3646703 13.564934 8.5198921 13.429688 8.5332031 13.429688 C 8.5465141 13.429688 8.588175 13.599875 8.625 13.808594 C 8.7311869 14.410414 8.6762667 14.376195 9.5058594 14.359375 L 10.222656 14.345703 L 10.236328 11.664062 L 10.25 8.9824219 L 10.130859 8.953125 C 10.065823 8.937294 9.1174038 8.9314331 8.0234375 8.9394531 L 6.0351562 8.9550781 L 6.0351562 9.8183594 L 6.0351562 10.681641 L 7.0292969 10.695312 C 7.5762795 10.702722 8.0520995 10.718009 8.0859375 10.730469 C 8.1322565 10.747524 8.1282546 10.832238 8.0722656 11.072266 C 7.8299424 12.111012 7.0892565 12.644531 5.8867188 12.644531 C 5.1651679 12.644531 4.6401044 12.4377 4.1777344 11.970703 C 3.5430124 11.329631 3.2264013 10.183407 3.34375 8.9550781 C 3.4984851 7.3354314 4.2434605 6.3747935 5.4882812 6.1933594 C 6.6291449 6.027076 7.5010723 6.5393131 7.8359375 7.5742188 C 7.8755406 7.6966124 7.9395463 7.7770006 8.0136719 7.796875 C 8.0772164 7.8139122 8.5303844 7.8276689 9.0214844 7.828125 C 10.17008 7.8290445 10.145115 7.8432518 10.019531 7.2460938 C 9.967489 6.9986401 9.8335825 6.6145778 9.7109375 6.3632812 C 9.5339295 6.0005947 9.4071043 5.8312976 9.0214844 5.4472656 C 8.4693148 4.8973676 8.1315285 4.684343 7.4335938 4.4472656 C 6.8293858 4.2420259 6.16597 4.1608241 5.5175781 4.1992188 z M 42.03125 4.2617188 L 41.537109 4.4335938 C 40.933232 4.6433398 40.657695 4.8014669 40.300781 5.1386719 C 39.969225 5.4519119 39.761404 5.8046136 39.621094 6.2910156 C 39.502474 6.7023596 39.433137 7.3494687 39.498047 7.4492188 C 39.531044 7.4999487 39.783863 7.5127831 40.576172 7.5019531 L 41.611328 7.4863281 L 41.691406 7.0703125 C 41.808812 6.4678105 41.927622 6.2685471 42.265625 6.0957031 C 42.510424 5.9705181 42.604184 5.953125 43.019531 5.953125 C 43.426321 5.953125 43.533311 5.9721266 43.765625 6.0878906 C 44.253715 6.3311276 44.455638 6.904517 44.273438 7.53125 C 44.105442 8.109131 43.697334 8.363965 42.791016 8.453125 C 42.521874 8.479605 42.288464 8.51424 42.271484 8.53125 C 42.225224 8.577174 42.232777 9.7874244 42.279297 9.8339844 C 42.301291 9.8559744 42.598053 9.8907794 42.939453 9.9121094 C 43.836652 9.9681724 44.239534 10.166191 44.525391 10.691406 C 44.916028 11.409137 44.561069 12.318315 43.787109 12.582031 C 43.476088 12.688024 42.767292 12.688624 42.470703 12.583984 C 42.00204 12.418633 41.795632 12.174325 41.642578 11.597656 L 41.560547 11.285156 L 40.46875 11.285156 L 39.376953 11.285156 L 39.361328 11.527344 C 39.352678 11.660649 39.384791 11.918152 39.431641 12.099609 C 39.739925 13.294376 40.783209 14.156157 42.212891 14.396484 C 42.284425 14.408514 42.682741 14.422181 43.097656 14.425781 C 44.074936 14.434074 44.653306 14.320796 45.308594 13.996094 C 46.07786 13.61492 46.610204 13.058412 46.847656 12.382812 C 47.087412 11.700564 47.08166 10.999125 46.833984 10.333984 C 46.695621 9.962377 46.130198 9.3782416 45.6875 9.1503906 C 45.523031 9.0657476 45.386773 8.9810006 45.386719 8.9628906 C 45.386654 8.9447846 45.539488 8.8195027 45.724609 8.6835938 C 46.129744 8.3861558 46.390215 8.064434 46.53125 7.6875 C 46.963216 6.532963 46.370297 5.2063894 45.166016 4.6308594 C 44.482944 4.3044164 44.23589 4.2611938 43.072266 4.2617188 L 42.03125 4.2617188 z M 12.544922 4.4375 L 11.478516 4.453125 L 11.464844 9.3476562 C 11.457424 12.039388 11.462763 14.270451 11.476562 14.306641 C 11.49643 14.358812 12.229498 14.370075 14.998047 14.359375 L 18.492188 14.345703 L 18.507812 13.429688 C 18.520602 12.614656 18.511571 12.507669 18.431641 12.449219 C 18.362852 12.398929 17.80518 12.382812 16.048828 12.382812 L 13.755859 12.382812 L 13.755859 8.4628906 C 13.755859 5.1973033 13.743684 4.534248 13.683594 4.484375 C 13.633385 4.4427 13.28727 4.42762 12.544922 4.4375 z M 25.378906 4.4394531 C 22.464053 4.4288241 21.683401 4.4401775 21.650391 4.4921875 C 21.627421 4.5283694 21.607883 6.7379615 21.607422 9.4023438 C 21.606812 13.115994 21.621502 14.260174 21.669922 14.308594 C 21.718307 14.357024 22.60236 14.369645 25.451172 14.359375 L 29.169922 14.345703 L 29.185547 13.390625 C 29.193347 12.865234 29.193347 12.430328 29.185547 12.423828 C 29.177699 12.417308 27.992162 12.399836 26.552734 12.384766 L 23.935547 12.355469 L 23.935547 11.257812 L 23.935547 10.158203 L 26.291016 10.132812 L 28.646484 10.105469 L 28.662109 9.2714844 C 28.671549 8.7278373 28.655871 8.4195575 28.619141 8.3828125 C 28.581468 8.3451095 27.798367 8.3182962 26.25 8.3007812 L 23.935547 8.2734375 L 23.935547 7.3320312 L 23.935547 6.3886719 L 26.501953 6.3632812 L 29.066406 6.3378906 L 29.066406 5.3945312 L 29.066406 4.453125 L 25.378906 4.4394531 z "
     id="path3424" />
  <path
     style="fill:#000000;stroke-width:1.06666672"
     d=""
     id="path819"
     inkscape:connector-curvature="0" />
  <path
     style="fill:#000000;stroke-width:1.06666672"
     d=""
     id="path817"
     inkscape:connector-curvature="0" />
</svg>
