<svg width="128" height="128" version="1.1" viewBox="0 0 128 128" xmlns="http://www.w3.org/2000/svg">
<g transform="translate(0 -924.36)">
<path transform="translate(0 924.36)" d="m52 8c-4.432 0-8 3.568-8 8v12 16.875a40 36 0 0 0 -20 31.125h28a12 12 0 0 0 12 12 12 12 0 0 0 12 -12h28a40 36 0 0 0 -20 -31.141v-20.859-8c0-4.432-3.568-8-8-8h-24zm-11.969 78.006c-0.76793-0.053681-1.5596 0.1138-2.2793 0.5293l-10.393 6c-1.9191 1.108-2.5728 3.5457-1.4648 5.4648s3.5457 2.5728 5.4648 1.4648l10.393-6c1.9191-1.108 2.5709-3.5457 1.4629-5.4648-0.6925-1.1994-1.9037-1.9047-3.1836-1.9941zm47.938 0c-1.2799 0.08947-2.4911 0.7947-3.1836 1.9941-1.108 1.9191-0.45622 4.3568 1.4629 5.4648l10.393 6c1.9191 1.108 4.3568 0.45427 5.4648-1.4648s0.45427-4.3568-1.4648-5.4648l-10.393-6c-0.71967-0.4155-1.5114-0.58298-2.2793-0.5293zm-23.969 13.994c-2.216 0-4 1.784-4 4v12c0 2.216 1.784 4 4 4s4-1.784 4-4v-12c0-2.216-1.784-4-4-4z" fill="#f7f5cf" stroke-linecap="round" stroke-linejoin="round" stroke-width="2.1082"/>
</g>
</svg>
