<svg width="16" height="16" version="1.1" viewBox="0 0 16 16" xmlns="http://www.w3.org/2000/svg">
<g transform="translate(0 -1036.4)">
<path transform="translate(0 1036.4)" d="m6 1v2h-2a2 2 0 0 0 -1.7324 1 2 2 0 0 0 -0.26562 1h-0.0019531v0.046875 5.2246a2 2 0 0 0 -1 1.7285 2 2 0 0 0 2 2 2 2 0 0 0 2 -2 2 2 0 0 0 -1 -1.7305v-3.2695-2h2v2l4-3-4-3zm7 1a2 2 0 0 0 -2 2 2 2 0 0 0 1 1.7305v3.2695 2h-2v-2l-4 3 4 3v-2h2a2 2 0 0 0 1.7324 -1 2 2 0 0 0 0.26562 -1h0.001953v-5.2715a2 2 0 0 0 1 -1.7285 2 2 0 0 0 -2 -2z" fill="#e0e0e0" fill-opacity=".99608"/>
</g>
</svg>
