<svg height="16" viewBox="0 0 16 16" width="16" xmlns="http://www.w3.org/2000/svg"><path d="m1 1v14h14v-14zm2 2h10v10h-10zm7.5 1c-.82843.0000048-1.5.67157-1.5 1.5.0000048.82843.67157 1.5 1.5 1.5.82842-.0000048 1.5-.67157 1.5-1.5-.000005-.82843-.67158-1.5-1.5-1.5zm-5 5c-.82843-.0000048-1.5.67157-1.5 1.5-.0000048.82843.67157 1.5 1.5 1.5.82843.000005 1.5-.67157 1.5-1.5.0000048-.82843-.67157-1.5-1.5-1.5zm5 0c-.82843.0000048-1.5.67157-1.5 1.5.0000048.82842.67157 1.5 1.5 1.5.82842-.000005 1.5-.67158 1.5-1.5-.000005-.82843-.67158-1.5-1.5-1.5z" fill="#fc9c9c" fill-opacity=".99608"/></svg>
