<svg width="16" height="12" version="1.1" viewBox="0 0 16 12" xmlns="http://www.w3.org/2000/svg">
<g transform="translate(0 -1040.4)" fill="#93f1b9">
<rect y="1045.4" width="2" height="3.9999"/>
<rect x="3" y="1043.4" width="2" height="6"/>
<path d="m5 1043.4a3 3 0 0 1 3 3h-2a1 1 0 0 0 -1 -1v-2z"/>
<rect x="6" y="1046.4" width="2" height="3"/>
<rect y="1041.4" width="2" height="2"/>
<rect x="6" y="1043.4" width="2" height="6"/>
<path d="m8 1043.4a3 3 0 0 1 3 3h-2a1 1 0 0 0 -1 -1v-2z"/>
<rect x="9" y="1046.4" width="2" height="3"/>
<path d="m14 1049.4a3 3 0 0 1 -3 -3h2a1 1 0 0 0 1 1v2z"/>
<path d="m14 1043.4a3 3 0 0 0 -3 3h2a1 1 0 0 1 1 -1v-2z"/>
<rect transform="scale(1,-1)" x="14" y="-1049.4" width="2" height="6"/>
<path d="m13 1052.4a3 3 0 0 0 3 -3h-2a1 1 0 0 1 -1 1v2z"/>
<rect x="12" y="1050.4" width="1" height="2"/>
</g>
</svg>
