<svg width="16" height="12" version="1.1" viewBox="0 0 16 12" xmlns="http://www.w3.org/2000/svg">
<g transform="translate(0 -1040.4)" fill="#f77070">
<path d="m3 1048.4a3 3 0 0 0 3 -3h-2a1 1 0 0 1 -1 1v2z"/>
<path d="m3 1042.4a3 3 0 0 1 3 3h-2a1 1 0 0 0 -1 -1v-2z"/>
<rect transform="scale(-1)" x="-3" y="-1050.4" width="2" height="8"/>
<rect transform="scale(1,-1)" x="7" y="-1047.4" width="2" height="5"/>
<path d="m10 1050.4a3 3 0 0 1 -3 -3h2a1 1 0 0 0 1 1v2z"/>
<rect x="11" y="1044.4" width="2" height="6"/>
<path d="m13 1044.4a3 3 0 0 1 3 3h-2a1 1 0 0 0 -1 -1v-2z"/>
<rect x="14" y="1047.4" width="2" height="3"/>
</g>
</svg>
