<svg width="16" height="12" version="1.1" viewBox="0 0 16 12" xmlns="http://www.w3.org/2000/svg">
<g transform="translate(0 -1040.4)">
<path transform="translate(0 1040.4)" d="m12 2v2h1a1 1 0 0 1 1 1 1 1 0 0 1 -1 1 2 2 0 0 0 -1.7324 1 2 2 0 0 0 -0.26562 1h-0.001953v2h5v-2h-3a3 3 0 0 0 2.5977 -1.5 3 3 0 0 0 0 -3 3 3 0 0 0 -2.5977 -1.5h-1zm-11 2v6h2a3 3 0 0 0 3 -3v-3h-2v3a1 1 0 0 1 -1 1v-4h-2zm5 3a3 3 0 0 0 3 3h1v-2h-1a1 1 0 0 1 -1 -1 1 1 0 0 1 1 -1h1v-2h-1a3 3 0 0 0 -3 3z" fill="#bd91f1"/>
<path transform="translate(0 1040.4)" d="m12 2v2h1a1 1 0 0 1 1 1 1 1 0 0 1 -1 1 2 2 0 0 0 -1.7324 1 2 2 0 0 0 -0.26562 1h-0.001953v2h5v-2h-3a3 3 0 0 0 2.5977 -1.5 3 3 0 0 0 0 -3 3 3 0 0 0 -2.5977 -1.5h-1z" fill="#fff" fill-opacity=".39216"/>
</g>
</svg>
