<svg width="16" height="16" version="1.1" viewBox="0 0 16 16" xmlns="http://www.w3.org/2000/svg">
<g transform="translate(0 -1036.4)">
<path transform="translate(0 1036.4)" d="m1 1v14h14v-14zm2 2h10v10h-10zm7.5 1c-0.82843 4.8e-6 -1.5 0.67157-1.5 1.5 4.8e-6 0.82843 0.67157 1.5 1.5 1.5 0.82842-4.8e-6 1.5-0.67157 1.5-1.5-5e-6 -0.82843-0.67158-1.5-1.5-1.5zm-5 5c-0.82843-4.8e-6 -1.5 0.67157-1.5 1.5-4.8e-6 0.82843 0.67157 1.5 1.5 1.5 0.82843 5e-6 1.5-0.67157 1.5-1.5 4.8e-6 -0.82843-0.67157-1.5-1.5-1.5zm5 0c-0.82843 4.8e-6 -1.5 0.67157-1.5 1.5 4.8e-6 0.82842 0.67157 1.5 1.5 1.5 0.82842-5e-6 1.5-0.67158 1.5-1.5-5e-6 -0.82843-0.67158-1.5-1.5-1.5z" fill="#fc9c9c" fill-opacity=".99608"/>
</g>
</svg>
