<svg width="16" height="16" version="1.1" viewBox="0 0 16 16" xmlns="http://www.w3.org/2000/svg">
<g transform="translate(0 -1036.4)">
<path transform="translate(0 1036.4)" d="m12 9c-0.55401 0-1 0.44599-1 1v1h2v2h1c0.55401 0 1-0.44599 1-1v-2c0-0.55401-0.44599-1-1-1h-2zm1 4h-2v-2h-1c-0.55401 0-1 0.44599-1 1v2c0 0.55401 0.44599 1 1 1h2c0.55401 0 1-0.44599 1-1v-1z" fill="#84c2ff"/>
<g fill="#fc9c9c">
<path transform="translate(0 1036.4)" d="m3 1c-1.1046 0-2 0.89543-2 2h2zm2 0v2h2v-2zm4 0v2h2v-2zm4 0v2h2c0-1.1046-0.89543-2-2-2zm-12 4v2h2v-2zm12 0v2h2v-2zm-12 4v2h2v-2zm0 4c0 1.1046 0.89543 2 2 2v-2zm4 0v2h2v-2z" fill="#fc9c9c"/>
</g>
</g>
</svg>
