<?xml version="1.0" encoding="UTF-8" standalone="no"?>
<svg
   xmlns:dc="http://purl.org/dc/elements/1.1/"
   xmlns:cc="http://creativecommons.org/ns#"
   xmlns:rdf="http://www.w3.org/1999/02/22-rdf-syntax-ns#"
   xmlns:svg="http://www.w3.org/2000/svg"
   xmlns="http://www.w3.org/2000/svg"
   xmlns:sodipodi="http://sodipodi.sourceforge.net/DTD/sodipodi-0.dtd"
   xmlns:inkscape="http://www.inkscape.org/namespaces/inkscape"
   width="24"
   height="24"
   version="1.1"
   viewBox="0 0 24 24"
   id="svg2"
   inkscape:version="0.91 r13725"
   sodipodi:docname="icon_viewport_zoom.svg">
  <metadata
     id="metadata12">
    <rdf:RDF>
      <cc:Work
         rdf:about="">
        <dc:format>image/svg+xml</dc:format>
        <dc:type
           rdf:resource="http://purl.org/dc/dcmitype/StillImage" />
        <dc:title></dc:title>
      </cc:Work>
    </rdf:RDF>
  </metadata>
  <defs
     id="defs10" />
  <sodipodi:namedview
     pagecolor="#ffffff"
     bordercolor="#666666"
     borderopacity="1"
     objecttolerance="10"
     gridtolerance="10"
     guidetolerance="10"
     inkscape:pageopacity="0"
     inkscape:pageshadow="2"
     inkscape:window-width="1920"
     inkscape:window-height="1017"
     id="namedview8"
     showgrid="true"
     inkscape:zoom="32"
     inkscape:cx="12.62433"
     inkscape:cy="11.793762"
     inkscape:window-x="-8"
     inkscape:window-y="32"
     inkscape:window-maximized="1"
     inkscape:current-layer="g4">
    <inkscape:grid
       type="xygrid"
       id="grid4798" />
  </sodipodi:namedview>
  <g
     transform="translate(0,-1028.4)"
     id="g4">
    <path
       d="m 8.9917563,1029.9083 a 7.4877313,7.4846399 0 0 0 -7.4877312,7.4847 7.4877313,7.4846399 0 0 0 7.4877312,7.4847 7.4877313,7.4846399 0 0 0 4.1240927,-1.2455 l 6.464009,6.4613 2.11768,-2.1168 -6.464008,-6.4613 a 7.4877313,7.4846399 0 0 0 1.246002,-4.1224 7.4877313,7.4846399 0 0 0 -7.4877307,-7.4847 z m 0,2.9939 a 4.4926389,4.4907841 0 0 1 4.4926387,4.4908 4.4926389,4.4907841 0 0 1 -4.4926387,4.4909 4.4926389,4.4907841 0 0 1 -4.4926386,-4.4909 4.4926389,4.4907841 0 0 1 4.4926386,-4.4908 z"
       id="path6"
       style="fill:#e0e0e0;fill-opacity:0.99607999;stroke:#000000;stroke-width:1;stroke-miterlimit:4;stroke-dasharray:none;stroke-opacity:1"
       inkscape:connector-curvature="0" />
  </g>
</svg>
