<svg width="14" height="14" version="1.1" viewBox="0 0 14 14" xmlns="http://www.w3.org/2000/svg">
<g transform="translate(0 -1038.4)" fill-rule="evenodd" shape-rendering="auto">
<path transform="translate(0 1038.4)" d="m3 7v2h-2v2h2v1c5.52e-5 0.5523 0.44774 0.9999 1 1h6c0.55226-1e-4 0.99994-0.4477 1-1v-4h2v-1h-4l-4 3v-3h-2z" color="#000000" color-rendering="auto" fill="#cf68ea" image-rendering="auto" solid-color="#000000" style="block-progression:tb;isolation:auto;mix-blend-mode:normal;text-decoration-color:#000000;text-decoration-line:none;text-decoration-style:solid;text-indent:0;text-transform:none;white-space:normal"/>
<path d="m3 1045.4v-2h-2v-2h2v-1c5.52e-5 -0.5523 0.44774-0.9999 1-1h6c0.55226 1e-4 0.99994 0.4477 1 1v4h2v1h-4l-4-3v3h-2z" color="#000000" color-rendering="auto" fill="#b8ea68" image-rendering="auto" solid-color="#000000" style="block-progression:tb;isolation:auto;mix-blend-mode:normal;text-decoration-color:#000000;text-decoration-line:none;text-decoration-style:solid;text-indent:0;text-transform:none;white-space:normal"/>
</g>
</svg>
