<svg width="16" height="16" style="isolation:isolate" viewBox="0 0 16 16" xmlns="http://www.w3.org/2000/svg">
<path d="m8.088 1.001c-0.102-1e-3 -0.203 0-0.305 2e-3 -0.233 8e-3 -0.466 0.027-0.697 0.057-2.973 0.392-5.366 2.633-5.951 5.574-0.46 2.319 0.281 4.712 1.97 6.365h-1.105v2h4c0.308 1e-3 0.599-0.141 0.788-0.384 0.19-0.243 0.257-0.559 0.183-0.858l-1-4-1.942 0.487 0.281 1.121c-0.84-0.92-1.308-2.12-1.31-3.366 0-2.761 2.239-5 5-5 1.326 0 2.598 0.527 3.536 1.465 0.937 0.938 1.464 2.209 1.464 3.535-1e-3 1.326-0.529 2.597-1.467 3.534l1.416 1.416c2.12-2.121 2.654-5.356 1.328-8.045-1.165-2.362-3.556-3.869-6.189-3.903z" fill="#e0e0e0" fill-opacity=".5"/>
<path d="m5.168 7.595l2.427-2.427c0.224-0.224 0.586-0.224 0.81 0l2.427 2.427c0.224 0.224 0.224 0.586 0 0.81l-2.427 2.427c-0.224 0.224-0.586 0.224-0.81 0l-2.427-2.427c-0.224-0.224-0.224-0.586 0-0.81z" fill="#84c2ff" fill-opacity=".5"/>
</svg>
