<svg clip-rule="evenodd" fill-rule="evenodd" stroke-linejoin="round" stroke-miterlimit="2" viewBox="0 0 16 16" xmlns="http://www.w3.org/2000/svg"><g fill-rule="nonzero"><path d="m4.6074219 8.3789062c-1.798.9280001-3.6074219 2.0720938-3.6074219 2.6210938 0 1 6 4 7 4v-2c-2.5 0-5-1-4-3z" fill="#e0e0e0" fill-opacity=".501961"/><path d="m8 .875c-.375 0-.75.375-1 1.125l-3 8c-1 2 1.5 3 4 3v-3.75c-.875 0-1.75-.25-2.5-.75l1-3.5c.5.25 1 .375 1.5.375z" fill="#e0e0e0"/><g fill="#fc9c9c"><path d="m11.392578 8.3789062.607422 1.6210938c1.002342 2.004685-1.511742 3.004696-4.0175781 3v1.998047c.0053893.000157.0124503.001953.0175781.001953 1 0 7-3 7-4 0-.549-1.809422-1.6930938-3.607422-2.6210938z" fill-opacity=".501961"/><path d="m8 .875c-.00585 0-.011729.001771-.017578.001953v4.498047c.5058535.0029611 1.0117243-.1220732 1.517578-.375l1 3.5c-.7550159.5033439-1.6367318.7533663-2.5175781.75v3.75c2.5058361.004696 5.0199201-.995315 4.0175781-3l-3-8c-.25-.75-.625-1.125-1-1.125z"/></g></g></svg>
