<svg width="16" height="16" version="1.1" viewBox="0 0 16 16" xmlns="http://www.w3.org/2000/svg">
<g fill="#a5b7f3">
<path d="m7 0c-1.108 0-2 0.89199-2 2h7c1.108 0 2 0.89199 2 2v6c1.108 0 2-0.89199 2-2v-6c0-1.108-0.89199-2-2-2z" fill-opacity=".39216"/>
<path d="m5 2c-1.108 0-2 0.89199-2 2h7c1.108 0 2 0.89199 2 2v7c1.108 0 2-0.89199 2-2v-7c0-1.108-0.89199-2-2-2h-7z" fill-opacity=".58824"/>
<path d="m3 4c-1.108 0-2 0.89199-2 2v7c0 1.108 0.89199 2 2 2h7c1.108 0 2-0.89199 2-2v-7c0-1.108-0.89199-2-2-2h-7zm0 4c0.554 0 1 0.446 1 1v1c0 0.554-0.446 1-1 1s-1-0.446-1-1v-1c0-0.554 0.446-1 1-1zm7 0c0.554 0 1 0.446 1 1v1c0 0.554-0.446 1-1 1s-1-0.446-1-1v-1c0-0.554 0.446-1 1-1zm-6 4h5a2.5 2 0 0 1 -1.25 1.7324 2.5 2 0 0 1 -2.5 0 2.5 2 0 0 1 -1.25 -1.7324z"/>
</g>
</svg>
