<?xml version="1.0" encoding="UTF-8" standalone="no"?>
<!-- Created with Inkscape (http://www.inkscape.org/) -->

<svg
   xmlns:dc="http://purl.org/dc/elements/1.1/"
   xmlns:cc="http://creativecommons.org/ns#"
   xmlns:rdf="http://www.w3.org/1999/02/22-rdf-syntax-ns#"
   xmlns:svg="http://www.w3.org/2000/svg"
   xmlns="http://www.w3.org/2000/svg"
   xmlns:sodipodi="http://sodipodi.sourceforge.net/DTD/sodipodi-0.dtd"
   xmlns:inkscape="http://www.inkscape.org/namespaces/inkscape"
   version="1.1"
   id="svg2"
   width="48"
   height="16"
   viewBox="0 0 47.999999 16"
   sodipodi:docname="icon_g_l_e_s_3.svg"
   inkscape:version="0.91 r">
  <metadata
     id="metadata8">
    <rdf:RDF>
      <cc:Work
         rdf:about="">
        <dc:format>image/svg+xml</dc:format>
        <dc:type
           rdf:resource="http://purl.org/dc/dcmitype/StillImage" />
        <dc:title />
      </cc:Work>
    </rdf:RDF>
  </metadata>
  <defs
     id="defs6" />
  <sodipodi:namedview
     pagecolor="#ffffff"
     bordercolor="#666666"
     borderopacity="1"
     objecttolerance="10"
     gridtolerance="10"
     guidetolerance="10"
     inkscape:pageopacity="0"
     inkscape:pageshadow="2"
     inkscape:window-width="1920"
     inkscape:window-height="1032"
     id="namedview4"
     showgrid="false"
     inkscape:zoom="1"
     inkscape:cx="23.323444"
     inkscape:cy="6.8305813"
     inkscape:window-x="0"
     inkscape:window-y="25"
     inkscape:window-maximized="1"
     inkscape:current-layer="svg2" />
  <path
     style="fill:#6aa455;fill-opacity:1;stroke-width:0.05234285"
     d="m 19.4,2.9731719 c -0.104569,-1.183e-4 -0.210022,0.04706 -0.285157,0.1425781 l -0.107421,0.1386719 0,6.21875 c 0,4.9547181 0.01774,5.8252291 0.05078,5.9121091 0.02837,0.07462 0.104722,0.158747 0.169922,0.185547 0.143756,0.05913 0.352411,0.02045 0.458984,-0.08398 0,-0.59457 0.07986,0.934454 0.0918,-5.9316409 L 19.792578,3.2544219 19.683203,3.11575 C 19.607934,3.0200611 19.504568,2.9732901 19.4,2.9731719 Z m 14.803595,1.2721079 c -0.433416,0.00377 -0.86163,0.04314 -1.162109,0.1171875 -1.344035,0.3312113 -2.315262,1.209425 -2.541016,2.296875 -0.09083,0.4375137 -0.03983,1.2263412 0.103516,1.5839844 0.304035,0.7585839 0.97994,1.2986132 2.09375,1.6738281 0.170022,0.057276 0.809221,0.2348822 1.419922,0.3945312 1.657257,0.433262 2.083306,0.692994 2.128906,1.294922 0.0595,0.785446 -0.68017,1.232454 -1.947266,1.177734 -0.695712,-0.03005 -1.084415,-0.159771 -1.43164,-0.478516 -0.250544,-0.229992 -0.479615,-0.648347 -0.480469,-0.878906 -2.7e-4,-0.07729 -0.02248,-0.202904 -0.05078,-0.277344 l -0.05273,-0.134765 -1.060547,0.01367 -1.060547,0.01563 -0.01563,0.322265 c -0.03143,0.656269 0.285398,1.448962 0.800782,2.001953 0.544559,0.584294 1.247234,0.955537 2.175781,1.150391 0.961082,0.201678 2.29388,0.128275 3.179687,-0.173828 1.300858,-0.443655 2.112117,-1.443457 2.191407,-2.699219 0.05588,-0.885004 -0.203703,-1.585615 -0.794922,-2.1386714 -0.512255,-0.4791921 -1.065465,-0.7261071 -2.416017,-1.078128 -2.35615,-0.6141297 -2.582031,-0.7298231 -2.582031,-1.3203125 0,-0.4506199 0.178377,-0.7008934 0.654297,-0.9140625 0.213698,-0.095718 0.356691,-0.1169764 0.785156,-0.1171875 0.632427,-3.639e-4 1.028149,0.1093103 1.333984,0.3710937 0.249489,0.2135542 0.346213,0.3841886 0.423829,0.7460938 0.03467,0.1616384 0.09328,0.2847949 0.152343,0.3164062 0.05356,0.028669 0.517812,0.052734 1.039063,0.052734 1.115184,0 1.134378,-0.00799 1.080078,-0.4394531 C 37.980277,5.6135816 37.070304,4.6984901 35.396954,4.340983 35.075671,4.272341 34.637011,4.2415119 34.203595,4.2452798 Z M 4.7169299,4.3194999 C 4.068538,4.3578945 3.4348944,4.5168483 2.8888049,4.790203 1.172332,5.6494136 0.2288556,7.3206022 0.2208362,9.5187186 0.2165352,10.70017 0.4381766,11.599984 0.9473987,12.46989 c 0.2557905,0.436967 0.828269,1.076767 1.2265625,1.369141 0.6509858,0.477868 1.5563189,0.799019 2.40625,0.855469 0.6556464,0.04354 0.9903792,0.0197 1.4628906,-0.105469 0.5229833,-0.138536 0.9543083,-0.374415 1.34375,-0.738281 0.1771703,-0.165535 0.3323921,-0.300781 0.3457031,-0.300781 0.013311,0 0.054972,0.170187 0.091797,0.378906 0.1061869,0.60182 0.051267,0.567601 0.8808594,0.550781 l 0.7167966,-0.01367 0.013672,-2.681641 0.013672,-2.68164 -0.119141,-0.029297 C 9.2651748,9.0575751 8.3167556,9.0517142 7.2227893,9.0597342 l -1.9882813,0.015625 0,0.8632813 0,0.8632815 0.9941407,0.01367 c 0.5469826,0.0074 1.0228026,0.0227 1.0566406,0.03516 0.046319,0.01706 0.042317,0.101769 -0.013672,0.341797 -0.2423232,1.038746 -0.9830091,1.572265 -2.1855468,1.572265 -0.7215509,0 -1.2466144,-0.206831 -1.7089844,-0.673828 C 2.7423642,11.449912 2.4257531,10.303688 2.5431018,9.0753592 2.6978369,7.4557125 3.4428123,6.4950746 4.687633,6.3136405 5.8284967,6.1473571 6.7004241,6.6595942 7.0352893,7.6944999 c 0.039603,0.1223936 0.1036088,0.2027818 0.1777344,0.2226562 0.063544,0.017037 0.5167125,0.030794 1.0078125,0.03125 1.1485956,9.195e-4 1.1236306,0.015127 0.9980466,-0.5820312 C 9.1668408,7.1189212 9.0329343,6.7348589 8.9102893,6.4835623 8.7332813,6.1208758 8.6064561,5.9515787 8.2208362,5.5675467 7.6686666,5.0176487 7.3308803,4.8046241 6.6329456,4.5675467 6.0287376,4.362307 5.3653218,4.2811052 4.7169299,4.3194999 Z M 42.65672,4.309733 42.162579,4.481608 c -0.603876,0.209746 -0.879413,0.3678731 -1.236328,0.7050781 -0.331556,0.31324 -0.539377,0.6659417 -0.679687,1.1523437 -0.11862,0.411344 -0.187957,1.0584531 -0.123047,1.1582032 0.033,0.05073 0.285816,0.063564 1.078125,0.052734 l 1.035156,-0.015625 0.08008,-0.4160156 c 0.117406,-0.602502 0.236215,-0.8017654 0.574218,-0.9746094 0.244799,-0.125185 0.338559,-0.1425781 0.753907,-0.1425781 0.40679,0 0.513779,0.019002 0.746093,0.1347656 0.48809,0.243237 0.690013,0.8166264 0.507813,1.4433594 -0.167996,0.577881 -0.576104,0.832715 -1.482422,0.921875 -0.269142,0.02648 -0.502552,0.061115 -0.519531,0.078125 -0.04626,0.045924 -0.03871,1.2561744 0.0078,1.3027344 0.02199,0.02199 0.318756,0.056795 0.660156,0.078125 0.897199,0.056063 1.300081,0.2540817 1.585938,0.7792967 0.390637,0.717731 0.03568,1.626909 -0.738282,1.890625 -0.311021,0.105993 -1.019817,0.106593 -1.316406,0.002 -0.468663,-0.165351 -0.675071,-0.409659 -0.828125,-0.986328 l -0.08203,-0.3125 -1.091797,0 -1.091797,0 -0.01563,0.242188 c -0.0087,0.133305 0.02346,0.390808 0.07031,0.572265 0.308284,1.194767 1.351568,2.056548 2.78125,2.296875 0.07153,0.01203 0.469851,0.0257 0.884766,0.0293 0.97728,0.0083 1.55565,-0.104985 2.210937,-0.429687 0.769267,-0.381174 1.30161,-0.937682 1.539063,-1.613282 0.239756,-0.682248 0.234003,-1.383687 -0.01367,-2.048828 -0.138347,-0.371657 -0.703771,-0.9557922 -1.146469,-1.1836432 -0.164468,-0.084643 -0.300727,-0.16939 -0.300781,-0.1875 -6.5e-5,-0.018106 0.152769,-0.1433879 0.33789,-0.2792968 C 46.755214,8.43417 47.015685,8.1124482 47.15672,7.7355142 47.588687,6.5809772 46.995767,5.2544036 45.791486,4.6788736 45.108415,4.3524306 44.86136,4.309208 43.697736,4.309733 Z m -30.912446,0.2480481 -1.066406,0.015625 -0.01367,4.8945312 c -0.0074,2.6917317 -0.0021,4.9227947 0.01172,4.9589847 0.01987,0.05217 0.752936,0.06343 3.521485,0.05273 l 3.494141,-0.01367 0.01562,-0.916015 c 0.01279,-0.815032 0.0038,-0.922019 -0.07617,-0.980469 -0.06879,-0.05029 -0.626461,-0.06641 -2.382813,-0.06641 l -2.292969,0 0,-3.9199213 c 0,-3.2655873 -0.01218,-3.9286426 -0.07226,-3.9785156 -0.05021,-0.041675 -0.396324,-0.056755 -1.138678,-0.04687 z m 14.260102,-0.070314 c -2.914853,-0.010629 -3.695505,7.244e-4 -3.728515,0.052734 -0.02297,0.036182 -0.04251,2.245774 -0.04297,4.9101563 -6.1e-4,3.7136506 0.01408,4.8578306 0.0625,4.9062506 0.04838,0.04843 0.932438,0.06105 3.78125,0.05078 l 3.71875,-0.01367 0.01563,-0.955078 c 0.0078,-0.525391 0.0078,-0.960297 0,-0.966797 -0.0078,-0.0065 -1.193385,-0.02399 -2.632813,-0.03906 l -2.617187,-0.0293 0,-1.097657 0,-1.099609 2.355469,-0.02539 2.355468,-0.02734 0.01563,-0.833985 c 0.0094,-0.5436471 -0.0062,-0.8519269 -0.04297,-0.8886719 -0.03768,-0.037707 -0.820781,-0.06452 -2.369148,-0.082035 l -2.314453,-0.027344 0,-0.9414063 0,-0.9433593 2.566406,-0.025391 2.564453,-0.025391 0,-0.9433594 0,-0.9414062 z"
     id="path3424"
     inkscape:connector-curvature="0"
     sodipodi:nodetypes="sccsccccccsssssscsssccccccsssssssscsscssssssssscssssccccccccccccsssssscsssssccscccccsscscccsscsccccccccsccccscsccccccccccscsccccscccccccccccccccccccccc" />
  <path
     style="fill:#000000;stroke-width:1.06666672"
     d=""
     id="path819"
     inkscape:connector-curvature="0" />
  <path
     style="fill:#000000;stroke-width:1.06666672"
     d=""
     id="path817"
     inkscape:connector-curvature="0" />
</svg>
