<svg width="16" height="12" version="1.1" viewBox="0 0 16 12" xmlns="http://www.w3.org/2000/svg">
<g transform="translate(0 -1040.4)">
<path transform="translate(0 1040.4)" d="m0 0v2 8 2h2 2v-2h-2v-8h2v-2h-4zm12 0v2h2v8h-2v2h4v-2-8-2h-2-2z" fill="#e0e0e0"/>
<path transform="translate(0 1040.4)" d="m3 2v2h2v-2h-2zm2 2v2h-2v4h2 2v-4a1 1 0 0 1 1 1v3h2v-3a3 3 0 0 0 -3 -3h-2zm5 3a3 3 0 0 0 3 3v-2a1 1 0 0 1 -1 -1v-1h1v-2h-1v-2h-2v5z" fill="#7dc6ef"/>
<path transform="translate(0 1040.4)" d="m5 4v6h2v-4a1 1 0 0 1 1 1v3h2v-3a3 3 0 0 0 -3 -3h-2z" fill="#fff" fill-opacity=".39216"/>
</g>
</svg>
