<svg width="16" height="16" version="1.1" viewBox="0 0 16 16" xmlns="http://www.w3.org/2000/svg">
<path d="m7 1v2h-2v2h2v3.2656l-2.5527-1.2773c-0.15005-0.075253-0.31662-0.11152-0.48438-0.10547-0.36536 0.013648-0.69415 0.2256-0.85742 0.55273-0.24709 0.49403-0.046823 1.0948 0.44727 1.3418l4.4473 2.2227 4.4473-2.2227c0.49409-0.24697 0.69435-0.84777 0.44726-1.3418-0.24697-0.49409-0.84777-0.69435-1.3418-0.44727l-2.5527 1.2773v-3.2656h2v-2h-2v-2zm-3 11v1c0 0.55228 0.44772 1 1 1-0.55228 0-1 0.44772-1 1v1h1v-1h1v1h1v-1c0-0.55228-0.44772-1-1-1 0.55228 0 1-0.44772 1-1v-1h-1v1h-1v-1zm5 0v4h1v-1h1v1h1v-1c-8.34e-4 -0.17579-0.047991-0.34825-0.13672-0.5 0.088728-0.15175 0.13588-0.32421 0.13672-0.5v-1c0-0.55228-0.44772-1-1-1h-1zm1 1h1v1h-1z" fill="#fc9c9c"/>
</svg>
