<svg width="16" height="16" version="1.1" viewBox="0 0 14.999999 14.999999" xmlns="http://www.w3.org/2000/svg">
<path d="m7.5 0.9375c-1.6377 0-3.12 0.2123-4.2737 0.5969-0.57682 0.1923-1.0754 0.4237-1.4905 0.7508-0.41505 0.3271-0.79834 0.8259-0.79834 1.4648v7.5c0 0.6389 0.38329 1.1396 0.79834 1.4667 0.41505 0.3271 0.91366 0.5585 1.4905 0.7507 1.1536 0.3846 2.6359 0.5951 4.2737 0.5951s3.12-0.2105 4.2737-0.5951c0.57682-0.1922 1.0754-0.4236 1.4905-0.7507 0.41505-0.3271 0.79834-0.8278 0.79834-1.4667v-7.5c0-0.6389-0.38329-1.1377-0.79834-1.4648-0.41505-0.3271-0.91366-0.5585-1.4905-0.7508-1.1536-0.3846-2.6359-0.5969-4.2737-0.5969zm0 1.875c1.4689 0 2.8 0.2076 3.6823 0.5017 0.4347 0.1449 0.7513 0.3163 0.9082 0.4376-0.15705 0.1212-0.47387 0.2911-0.9082 0.4358-0.88221 0.2941-2.2134 0.4999-3.6823 0.4999s-2.8-0.2058-3.6823-0.4999c-0.43433-0.1447-0.75115-0.3146-0.9082-0.4358 0.15691-0.1213 0.47351-0.2927 0.9082-0.4376 0.88221-0.2941 2.2134-0.5017 3.6823-0.5017zm-4.6875 2.9883c0.13762 0.055 0.26578 0.1173 0.41382 0.1666 1.1536 0.3846 2.6359 0.5951 4.2737 0.5951s3.12-0.2105 4.2737-0.5951c0.14804-0.049 0.2762-0.1112 0.41382-0.1666v5.4492c-0.15705 0.1212-0.57092 0.2929-1.0052 0.4376-0.88221 0.2941-2.2134 0.4999-3.6823 0.4999s-2.8-0.2058-3.6823-0.4999c-0.43433-0.1447-0.8482-0.3164-1.0052-0.4376z" fill="#ffd684"/>
</svg>
