<svg width="17.067" height="17.067" version="1.1" viewBox="0 0 16 16" xmlns="http://www.w3.org/2000/svg">
<g transform="translate(0 -1036.4)">
<path transform="translate(0 1036.4)" d="m6 1v1c-0.55228 0-1 0.44772-1 1v10h-1v-2h-2v2c2.826e-4 0.35698 0.19084 0.68674 0.5 0.86523 0.15194 0.088045 0.32439 0.13452 0.5 0.13477v1h6v-5l3-2v-3h3v-2c0-1.1046-0.89543-2-2-2z" fill="#a5efac"/>
<path transform="translate(0 1036.4)" d="m6 1c-1.1046 0-2 0.89543-2 2v7h-3v3c0 1.1046 0.89543 2 2 2s2-0.89543 2-2v-10c0-0.55228 0.44772-1 1-1s1 0.44772 1 1v3h5v-1h-4v-2c0-1.1046-0.89543-2-2-2zm-4 10h2v2c0 0.55228-0.44772 1-1 1s-1-0.44772-1-1z" fill="#87e29f"/>
<circle cx="3" cy="1048.4" r="0" fill="#e0e0e0"/>
<ellipse cx="12" cy="1048.4" rx=".5" ry="3" fill="#87e29f"/>
<ellipse transform="rotate(60)" cx="913.91" cy="513.79" rx=".5" ry="3" fill="#87e29f"/>
<ellipse transform="rotate(120)" cx="901.91" cy="-534.57" rx=".5" ry="3" fill="#87e29f"/>
</g>
</svg>
