<svg height="16" viewBox="0 0 16 16" width="16" xmlns="http://www.w3.org/2000/svg"><g transform="translate(0 -1036.4)"><path d="m7 1037.4v6h-6v8h8v-6h6v-8zm2 2h4v4h-4z" fill="#e0e0e0" fill-opacity=".39216"/><path d="m7 1v2c0 .0000234.446 0 1 0s1 .0000234 1 0v-2c0-.00002341-.446 0-1 0s-1-.00002341-1 0zm6 0v2c0 .0000234.446 0 1 0s1 .0000234 1 0v-2c0-.00002341-.446 0-1 0s-1-.00002341-1 0zm-12 6v2c0 .0000234.446 0 1 0s1 .0000234 1 0v-2c0-.0000234-.446 0-1 0s-1-.0000234-1 0zm6 0v2c0 .0000234.446 0 1 0s1 .0000234 1 0v-2c0-.0000234-.446 0-1 0s-1-.0000234-1 0zm6 0v2c0 .0000234.446 0 1 0s1 .0000234 1 0v-2c0-.0000234-.446 0-1 0s-1-.0000234-1 0zm-12 6v2c0 .000023.446 0 1 0s1 .000023 1 0v-2c0-.000023-.446 0-1 0s-1-.000023-1 0zm6 0v2c0 .000023.446 0 1 0s1 .000023 1 0v-2c0-.000023-.446 0-1 0s-1-.000023-1 0z" fill="#fff" transform="translate(0 1036.4)"/></g></svg>
