<svg height="16" viewBox="0 0 16 16" width="16" xmlns="http://www.w3.org/2000/svg"><path d="m6.4921 1c-.55401 0-1 .446-1 1v3c0 .554.44599 1 1 1h1v.9902a1.0001 1.0001 0 0 0 -.31641.062l-2.0508.6836-.68359-2.0508a1.0001 1.0001 0 0 0 -.99023-.6972 1.0001 1.0001 0 0 0 -.9082 1.3281l1 3a1.0001 1.0001 0 0 0 1.2656.6328l1.6836-.5605v.6113c0 .041.018715.076.023437.1152l-4.5781 3.0528a1.0001 1.0001 0 1 0 1.1094 1.664l5.0566-3.3711 1.4941 2.9864a1.0001 1.0001 0 0 0 1.2109.5019l3-1a1.0001 1.0001 0 1 0 -.63281-1.8965l-2.1777.7246-.97461-1.9511c.2759-.1777.46875-.4723.46875-.8262v-1h1.3828l.72266 1.4473a1.0001 1.0001 0 1 0 1.7891-.8946l-1-2a1.0001 1.0001 0 0 0 -.89453-.5527h-3v-1h1c.55401 0 1-.446 1-1v-3c0-.554-.44599-1-1-1zm0 2h1v2h-1z" fill="#a5b7f3"/></svg>
