<svg height="16" viewBox="0 0 16 16" width="16" xmlns="http://www.w3.org/2000/svg"><path d="m2 1c-.55226.0001-.99994.4477-1 1v1h14v-1c-.000055-.5523-.44774-.9999-1-1z" fill="#ff7070"/><path d="m1 3v2h14v-2z" fill="#ffeb70"/><path d="m1 5v2h8.582c.25686-.33847.49465-.66934.68555-1 .33885-.5859.95103-.96109 1.627-.99609.7512-.04 1.4613.34489 1.8379.99609.18899.32737.42831.66049.68555 1h.58203v-2h-14z" fill="#9dff70"/><path d="m1 7v2h7.0547c.14116-.20345.28508-.40233.42383-.58398.38601-.5053.76348-.96794 1.1035-1.416h-8.582zm11 0c-.43047.7456-.94451 1.3867-1.4355 2h2.8711c-.49104-.6133-1.0051-1.2544-1.4355-2zm2.418 0c.18626.24583.37928.49419.58203.75v-.75z" fill="#70ffb9"/><path d="m1 9v2h6.1172c.17955-.78395.54577-1.4354.9375-2zm9.5645 0c-.55248.69003-1.0583 1.3421-1.334 2h5.5391c-.2757-.65786-.78151-1.31-1.334-2z" fill="#70deff"/><path d="m1 13v1c.0000552.5523.44774.9999 1 1h6.0371c-.44511-.58388-.76161-1.2639-.91992-2h-6.1172zm8.1836 0c.41312 1.1628 1.5119 2 2.8164 2s2.4033-.83718 2.8164-2z" fill="#ff70ac"/><path d="m1 11v2h6.1172c-.06966-.3239-.11719-.65596-.11719-1 0-.35655.045474-.68688.11719-1zm8.2305 0c-.13656.32585-.23047.65576-.23047 1 0 .35235.07201.68593.18359 1h5.6328c.11158-.31407.18359-.64765.18359-1 0-.34424-.093909-.67415-.23047-1h-5.5391z" fill="#9f70ff"/></svg>
