<svg width="16" height="16" version="1.1" viewBox="0 0 16 16" xmlns="http://www.w3.org/2000/svg">
<g transform="translate(0 -1036.4)">
<path transform="translate(0 1036.4)" d="m2 1a1.0001 1.0001 0 0 0 -1 1v1h2 10 2v-1a1.0001 1.0001 0 0 0 -1 -1h-12z" fill="#ff7070"/>
<path transform="translate(0 1036.4)" d="m1 3v2h2v-2h-2zm12 0v2h2v-2h-2zm-4 1v1h1v-1h-1z" fill="#ffeb70"/>
<path transform="translate(0 1036.4)" d="m1 5v2h2v-2h-2zm7 0v1h-2v1h3.543c0.26215-0.34438 0.50373-0.68039 0.69727-1.0156a2.0315 2.0315 0 0 1 0.75977 -0.75195v-0.23242h-1-1-1zm5 0v0.23242a2.0315 2.0315 0 0 1 0.75977 0.75195c0.19142 0.33153 0.43699 0.67033 0.69922 1.0156h0.54102v-2h-2z" fill="#9dff70"/>
<path transform="translate(0 1036.4)" d="m1 7v2h2v-2h-2zm4 0v1h-1v1h4.0156c0.14585-0.2113 0.29419-0.41592 0.4375-0.60352 0.38121-0.49904 0.75394-0.95521 1.0898-1.3965h-3.543-1zm7 0c-0.43047 0.7456-0.94451 1.3867-1.4355 2h2.8711c-0.49104-0.6133-1.0051-1.2544-1.4355-2zm2.459 0c0.17438 0.22962 0.352 0.46082 0.54102 0.69922v-0.69922h-0.54102z" fill="#70ffb9"/>
<path transform="translate(0 1036.4)" d="m1 9v2h2v-2h-2zm9.5645 0c-0.55248 0.69003-1.0583 1.3421-1.334 2h5.5391c-0.2757-0.65786-0.78151-1.31-1.334-2h-2.8711z" fill="#70deff"/>
<path transform="translate(0 1036.4)" d="m1 13v1a1.0001 1.0001 0 0 0 1 1h5.998c-0.4429-0.5864-0.77294-1.2592-0.92578-2h-4.0723-2zm8.1836 0c0.41312 1.1628 1.5119 2 2.8164 2s2.4033-0.83718 2.8164-2h-5.6328z" fill="#ff70ac"/>
<path transform="translate(0 1036.4)" d="m1 11v2h2v-2h-2zm8.2305 0c-0.13656 0.32585-0.23047 0.65576-0.23047 1 0 0.35235 0.07201 0.68593 0.18359 1h5.6328c0.11158-0.31407 0.18359-0.64765 0.18359-1 0-0.34424-0.093909-0.67415-0.23047-1h-5.5391z" fill="#9f70ff"/>
</g>
</svg>
