<svg width="16" height="16" version="1.1" viewBox="0 0 16 16" xmlns="http://www.w3.org/2000/svg">
<g transform="translate(0 -1036.4)">
<path transform="translate(0 1036.4)" d="m6 3a5 5 0 0 0 -4.3301 2.5 5 5 0 0 0 0 5 5 5 0 0 0 4.3301 2.5h1v-2h-1a3 3 0 0 1 -3 -3 3 3 0 0 1 3 -3h1v-2h-1zm3 0v2h1a3 3 0 0 1 3 3 3 3 0 0 1 -3 3h-1v2h1a5 5 0 0 0 4.3301 -2.5 5 5 0 0 0 0 -5 5 5 0 0 0 -4.3301 -2.5h-1zm-3 4a0.99998 0.99998 0 0 0 -1 1 0.99998 0.99998 0 0 0 1 1h4a0.99998 0.99998 0 0 0 1 -1 0.99998 0.99998 0 0 0 -1 -1h-4z" fill="#a5efac"/>
</g>
</svg>
