<svg width="16" height="16" version="1.1" viewBox="0 0 16 16" xmlns="http://www.w3.org/2000/svg">
<g transform="translate(0 -1036.4)">
<g transform="translate(0 -1.6949e-5)">
<path transform="translate(0 1036.4)" d="m2 1v14h12v-9h-5v-5zm8 0v4h4zm-6.0078 6c0.1353-0.0020779 0.26567 0.050774 0.36133 0.14648l0.64648 0.64648 0.64648-0.64648c0.09183-0.091882 0.21582-0.14442 0.3457-0.14648 0.1353-0.00208 0.26567 0.050774 0.36133 0.14648 0.19521 0.19525 0.19521 0.51178 0 0.70703l-0.64648 0.64648 0.64648 0.64648c0.19521 0.19525 0.19521 0.51178 0 0.70703-0.19525 0.19521-0.51178 0.19521-0.70703 0l-0.64648-0.64648-0.64648 0.64648c-0.19525 0.19521-0.51178 0.19521-0.70703 0-0.19521-0.19525-0.19521-0.51178 0-0.70703l0.64648-0.64648-0.64648-0.64648c-0.19521-0.19525-0.19521-0.51178 0-0.70703 0.09183-0.091882 0.21582-0.14442 0.3457-0.14648zm6 0c0.1353-0.00208 0.26567 0.050774 0.36133 0.14648l0.64648 0.64648 0.64648-0.64648c0.09183-0.091883 0.21582-0.14442 0.3457-0.14648 0.1353-0.00208 0.26567 0.050774 0.36133 0.14648 0.19521 0.19525 0.19521 0.51178 0 0.70703l-0.64648 0.64648 0.64648 0.64648c0.19521 0.19525 0.19521 0.51178 0 0.70703-0.19525 0.19521-0.51178 0.19521-0.70703 0l-0.64648-0.64648-0.64648 0.64648c-0.19525 0.19521-0.51178 0.19521-0.70703 0-0.19521-0.19525-0.19521-0.51178 0-0.70703l0.64648-0.64648-0.64648-0.64648c-0.19521-0.19525-0.19521-0.51178 0-0.70703 0.09183-0.091882 0.21582-0.14442 0.3457-0.14648zm-6.4922 4h9c0.277 0 0.5 0.223 0.5 0.5s-0.223 0.5-0.5 0.5h-4.5c0 1.1046-0.89543 2-2 2s-2-0.8954-2-2h-0.5c-0.277 0-0.5-0.223-0.5-0.5s0.223-0.5 0.5-0.5zm1.5 1c-1.9e-5 0.5523 0.44771 1 1 1s1-0.4477 1-1z" fill="#ff8484"/>
</g>
</g>
</svg>
