<svg width="16" height="16" version="1.1" viewBox="0 0 16 16" xmlns="http://www.w3.org/2000/svg">
<g transform="translate(0 -1036.4)">
<path transform="translate(0 1036.4)" d="m5 1c-1.108 0-2 0.89199-2 2v10c0 1.108 0.89199 2 2 2h6c1.108 0 2-0.89199 2-2v-10c0-1.108-0.89199-2-2-2h-6zm2.9883 1a1.0001 1.0001 0 0 1 0.56641 0.16797l3 2a1.0001 1.0001 0 1 1 -1.1094 1.6641l-2.4453-1.6289-2.4453 1.6289a1.0001 1.0001 0 1 1 -1.1094 -1.6641l3-2a1.0001 1.0001 0 0 1 0.54297 -0.16797zm-2.998 7.9922a1.0001 1.0001 0 0 1 0.56445 0.17578l2.4453 1.6309 2.4453-1.6309a1.0001 1.0001 0 1 1 1.1094 1.6641l-3 2a1.0001 1.0001 0 0 1 -1.1094 0l-3-2a1.0001 1.0001 0 0 1 0.54492 -1.8398z" fill="#a5efac"/>
</g>
</svg>
