<svg height="14" viewBox="0 0 14 14" width="14" xmlns="http://www.w3.org/2000/svg"><g transform="translate(0 -1038.3622)"><path d="m2 1038.3622c-1.10457 0-2 .8954-2 2v10c0 1.1046.89543 2 2 2h10c1.104569 0 2-.8954 2-2v-10c0-1.1046-.895431-2-2-2z" fill="#fff"/><g fill-opacity=".392157"><path d="m7 2a3 3 0 0 0 -3 3 3 3 0 0 0 .2109375 1.1054688 3 3 0 0 0 -2.2109375 2.8945312 3 3 0 0 0 3 3 3 3 0 0 0 2-.767578 3 3 0 0 0 2 .767578 3 3 0 0 0 3-3 3 3 0 0 0 -2.2148438-2.890625 3 3 0 0 0 .2148438-1.109375 3 3 0 0 0 -3-3z" fill="#fff" transform="translate(0 1038.3622)"/><circle cx="7" cy="1043.3622" fill="#f00" r="3"/><circle cx="5" cy="1047.3622" fill="#00f" r="3"/><circle cx="9" cy="1047.3622" fill="#0f0" r="3"/><circle cx="7" cy="1043.3622" fill="#f00" r="3"/><circle cx="5" cy="1047.3622" fill="#00f" r="3"/><circle cx="9" cy="1047.3622" fill="#0f0" r="3"/></g></g></svg>
