<svg width="16" height="16" version="1.1" viewBox="0 0 16 16" xmlns="http://www.w3.org/2000/svg">
<g transform="translate(0 -1036.4)" fill="#e0e0e0">
<path transform="translate(0 1036.4)" d="m9 1.0781v3.0547a4 4 0 0 1 1.0273 0.42578l2.1582-2.1582a7 7 0 0 0 -3.1855 -1.3223zm-2 0.0019531a7 7 0 0 0 -3.1855 1.3203l2.1582 2.1582a4 4 0 0 1 1.0273 -0.42773v-3.0508zm6.5996 2.7344l-2.1582 2.1582a4 4 0 0 1 0.42774 1.0273h3.0508a7 7 0 0 0 -1.3203 -3.1855zm-12.52 5.1855a7 7 0 0 0 1.3203 3.1855l2.1582-2.1582a4 4 0 0 1 -0.42773 -1.0273h-3.0508zm10.787 0a4 4 0 0 1 -0.42578 1.0273l2.1582 2.1582a7 7 0 0 0 1.3223 -3.1855h-3.0547zm-5.8945 2.4414l-2.1582 2.1582a7 7 0 0 0 3.1855 1.3223v-3.0547a4 4 0 0 1 -1.0273 -0.42578zm4.0547 0a4 4 0 0 1 -1.0273 0.42774v3.0508a7 7 0 0 0 3.1855 -1.3203l-2.1582-2.1582z" fill-opacity=".19608"/>
<path d="m2.4004 1040.2a7 7 0 0 0 -1.3223 3.1855h3.0547a4 4 0 0 1 0.42578 -1.0273l-2.1582-2.1582z" fill-opacity=".99608"/>
</g>
</svg>
