<svg width="16" height="16" version="1.1" viewBox="0 0 16 16" xmlns="http://www.w3.org/2000/svg">
<path d="m9.5 0a3 3 0 0 0 -2.9883 2.7773 3 3 0 0 0 -2.0117 -0.77734 3 3 0 0 0 -3 3 3 3 0 0 0 2 2.8242v2.1758c0 0.554 0.44599 1 1 1h6c0.55401 0 1-0.446 1-1v-1l3 2v-6l-3 2v-1.7695a3 3 0 0 0 1 -2.2305 3 3 0 0 0 -3 -3zm-5.5 12v1c0 0.55228 0.44772 1 1 1-0.55228 0-1 0.44772-1 1v1h1v-1h1v1h1v-1c0-0.55228-0.44772-1-1-1 0.55228 0 1-0.44772 1-1v-1h-1v1h-1v-1h-1zm5 0v1 3h1v-1h1v1h1v-1c-8.34e-4 -0.17579-0.047991-0.34825-0.13672-0.5 0.088728-0.15175 0.13588-0.32421 0.13672-0.5v-1c0-0.55228-0.44772-1-1-1h-1-1zm1 1h1v1h-1v-1z" fill="#fc9c9c"/>
</svg>
