<svg height="128" viewBox="0 0 128 128" width="128" xmlns="http://www.w3.org/2000/svg"><path d="m99.645 6.0059c-.9956.029687-1.9837.18322-2.9414.45703l-56 16c-5.1336 1.4668-8.7021 6.198-8.7031 11.537v44.203c-11.16 1.0331-20 10.379-20 21.797.000011 12.103 9.8971 22 22 22 12.103-.00001 22-9.8971 22-22v-56.947l32-9.1426v28.293c-11.16 1.0331-20 10.379-20 21.797.000011 12.103 9.8971 22 22 22 12.103-.00001 22-9.8971 22-22v-66c-.00104-6.7137-5.6428-12.192-12.354-11.994z" fill-opacity=".29412"/><path d="m99.764 10.004a8.0008 8.0008 0 0 0 -1.9609.30469l-56 16a8.0008 8.0008 0 0 0 -5.8027 7.6914v48.121a18 18 0 0 0 -2-.12109 18 18 0 0 0 -18 18 18 18 0 0 0 18 18 18 18 0 0 0 18-18v-59.965l40-11.428v37.514a18 18 0 0 0 -2-.12109 18 18 0 0 0 -18 18 18 18 0 0 0 18 18 18 18 0 0 0 18-18v-66a8.0008 8.0008 0 0 0 -8.2363-7.9961z" fill="#f7f5cf"/></svg>