<svg width="16" height="16" version="1.1" viewBox="0 0 16 16" xmlns="http://www.w3.org/2000/svg">
<g transform="translate(0 -1036.4)">
<path transform="translate(0 1036.4)" d="m6 1a5 5 0 0 0 -5 5h2a3 3 0 0 1 3 -3 3 3 0 0 1 3 3c0 1.75-0.54175 2.3583-1.1406 2.8574-0.29944 0.2495-0.62954 0.44071-0.97656 0.69141-0.17351 0.1253-0.35729 0.26529-0.53711 0.49219-0.17982 0.227-0.3457 0.58398-0.3457 0.95898 0 1.2778-0.31632 1.5742-0.63867 1.7676-0.32236 0.1934-0.86133 0.23242-1.3613 0.23242h-1v2h1c0.5 0 1.461 0.038922 2.3887-0.51758 0.87316-0.5239 1.4826-1.6633 1.5566-3.2266 0.011365-0.0098 0.027247-0.024684 0.10938-0.083984 0.21547-0.1556 0.63537-0.40194 1.0859-0.77734 0.90112-0.751 1.8594-2.1445 1.8594-4.3945a5 5 0 0 0 -5 -5zm7.9277 1l-1.7383 1.0039a6 6 0 0 1 0.81055 2.9961 6 6 0 0 1 -0.80859 2.998l1.7363 1.002a8 8 0 0 0 0 -8z" fill="#fc9c9c"/>
</g>
</svg>
