<?xml version="1.0" encoding="utf-8"?>
<!-- Generator: Adobe Illustrator 19.0.0, SVG Export Plug-In . SVG Version: 6.00 Build 0)  -->
<svg version="1.0" id="Layer_1" xmlns="http://www.w3.org/2000/svg" xmlns:xlink="http://www.w3.org/1999/xlink" x="0px" y="0px"
	 viewBox="-297 389 16 16" style="enable-background:new -297 389 16 16;" xml:space="preserve">
<style type="text/css">
	.st0{fill:#E0E0E0;fill-opacity:0.7843;}
</style>
<path class="st0" d="M-282,401.1c0-1.6-1.3-3-2.8-3c-0.4,0-0.7,0.1-1.1,0.2l-2.1-1.3l3-3c0.5-0.6,1-2.2,1-3l0-0.2
	c0-0.9-0.4-1.1-0.9-0.5l-4.1,4.7l-4-4.7c-0.5-0.6-0.9-0.4-0.9,0.4l0,0.1c0,0.8,0.5,2.6,1,3.2l3,3l-2.1,1.3c-0.3-0.2-0.7-0.2-1.1-0.2
	c-1.5,0-2.8,1.3-2.8,2.9c0,1.6,1.3,3,2.8,3c1.5,0,2.8-1.3,2.8-2.9c0-0.4-0.1-0.9-0.3-1.2l1.7-1.8l1.6,1.8c-0.2,0.4-0.2,0.8-0.2,1.2
	c0,1.6,1.3,3,2.8,3C-283.2,404-282,402.7-282,401.1L-282,401.1z M-293.2,402.4c-0.8,0-1.4-0.7-1.4-1.5c0-0.8,0.6-1.5,1.4-1.5
	c0.8,0,1.4,0.7,1.4,1.5C-291.8,401.8-292.4,402.5-293.2,402.4L-293.2,402.4z M-284.8,402.5c-0.8,0-1.4-0.7-1.4-1.5
	c0-0.8,0.6-1.5,1.4-1.5c0.8,0,1.4,0.7,1.4,1.5C-283.4,401.9-284,402.5-284.8,402.5L-284.8,402.5z M-284.8,402.5"/>
</svg>
