<svg width="16" height="16" version="1.1" viewBox="0 0 16 16" xmlns="http://www.w3.org/2000/svg">
<g transform="translate(0 -1036.4)">
<path d="m8.0039 1037.4a1.0001 1.0001 0 0 0 -0.45117 0.1113l-6 3a1.0001 1.0001 0 0 0 0 1.7891l6 3a1.0001 1.0001 0 0 0 0.89453 0l4.5527-2.2754v3.7636l-5 2.5-5.5527-2.7773a1.0001 1.0001 0 0 0 -0.89453 1.7891l6 3a1.0001 1.0001 0 0 0 0.89453 0l6-3a1.0001 1.0001 0 0 0 0.55273 -0.8946v-6a1.0001 1.0001 0 0 0 -1.4473 -0.8945l-5.5527 2.7773-3.7637-1.8828 4.2109-2.1054a1.0001 1.0001 0 0 0 -0.44336 -1.9004z" color="#000000" color-rendering="auto" fill="#e0e0e0" fill-rule="evenodd" image-rendering="auto" shape-rendering="auto" solid-color="#000000" style="block-progression:tb;isolation:auto;mix-blend-mode:normal;text-decoration-color:#000000;text-decoration-line:none;text-decoration-style:solid;text-indent:0;text-transform:none;white-space:normal"/>
</g>
</svg>
