<svg width="42" height="26" version="1.1" viewBox="0 0 42 25.999998" xmlns="http://www.w3.org/2000/svg">
<g transform="translate(0 -1026.4)">
<path d="m13 1027.4c-6.6307 0-12 5.3662-12 11.998s5.3693 12.002 12 12.002h16c6.6307 0 12-5.3702 12-12.002s-5.3693-11.998-12-11.998zm17 6.9972a1 1.0002 0 0 1 1 1.0001v8.0014a1.0001 1.0003 0 0 1 -1.752 0.6623l-5.248-6.001v5.3387a1 1.0002 0 0 1 -1 1.0001 1 1.0002 0 0 1 -1 -1.0001v-8.0014a1.0001 1.0003 0 0 1 1.752 -0.6583l5.248 6.001v-5.3427a1 1.0002 0 0 1 1 -1.0001zm-15 0c2.7496 0 5 2.2507 5 5.0008s-2.2504 5.0008-5 5.0008-5-2.2507-5-5.0008 2.2504-5.0008 5-5.0008zm0 2.0003c-1.6687 0-3 1.3315-3 3.0005s1.3313 3.0005 3 3.0005 3-1.3315 3-3.0005-1.3313-3.0005-3-3.0005z" color="#000000" color-rendering="auto" dominant-baseline="auto" fill="#e0e0e0" fill-opacity=".78431" image-rendering="auto" shape-rendering="auto" solid-color="#000000" style="font-feature-settings:normal;font-variant-alternates:normal;font-variant-caps:normal;font-variant-ligatures:normal;font-variant-numeric:normal;font-variant-position:normal;isolation:auto;mix-blend-mode:normal;shape-padding:0;text-decoration-color:#000000;text-decoration-line:none;text-decoration-style:solid;text-indent:0;text-orientation:mixed;text-transform:none;white-space:normal"/>
</g>
</svg>
