<svg height="16" viewBox="0 0 16 16" width="16" xmlns="http://www.w3.org/2000/svg"><g fill="#e0e0e0"><path d="m11.585938 3.00165-.292969-.292969c-.390423-.3905069-.390423-1.0235551 0-1.414062.390507-.39042326 1.023555-.39042326 1.414062 0l2 2c.390423.3905069.390423 1.0235551 0 1.414062l-2 2.0000002c-.191166.190216-.451056.295158-.720703.2910157-.260179-.00311-.508902-.1074996-.693359-.2910157-.390423-.390507-.390423-1.0235552 0-1.4140622l.292969-.2929661-.585938-.0016529-3.5 6 4.085938.0017-.292969-.292969c-.390423-.390507-.390423-1.0235551 0-1.414062.390507-.3904233 1.023555-.3904233 1.414062 0l2 2c.390423.390507.390423 1.023555 0 1.414062l-2 2c-.191166.190216-.451056.295158-.720703.291016-.260179-.0031-.508902-.1075-.693359-.291016-.390423-.390507-.390423-1.023555 0-1.414062l.292969-.293016-8.585938-.001653v-2h2l3.5-6h-5.5v-2z"/><circle cx="3" cy="4" r="2"/><circle cx="3" cy="12" r="2"/></g></svg>
