<svg height="16" viewBox="0 0 16 16" width="16" xmlns="http://www.w3.org/2000/svg"><path d="M4.55 5a.85.85 0 0 0-.85.85v7.65a.85.85 0 0 0 .85.85h6.8a.85.85 0 0 0 .85-.85V5.85a.85.85 0 0 0-.85-.85zM7 7h2.55L8.7 9.55h1.7L7 12.95l.85-2.55h-1.7z" fill="#69c4d4"/><path d="M2 6.36v7.65a1.7 1.7 0 0 0 1.7 1.7h8.5a1.7 1.7 0 0 0 1.7-1.7V6.36h-.85v7.65a.85.85 0 0 1-.85.85H3.7a.85.85 0 0 1-.85-.85V6.36z" fill="#e0e0e0"/><path d="m10.5 3.6.75-1.5M5.5 3.6l-.75-1.5M8 3.2V1.5" stroke-width="1.25" stroke-linecap="round" stroke="#69c4d4" fill="none"/></svg>
