<svg height="16" viewBox="0 0 16 16" width="16" xmlns="http://www.w3.org/2000/svg"><path d="M8.5 14.5v-4H9v-4h1.5v4h.5v4z" fill="#69c4d4" fill-opacity=".8"/><path d="M.5 15.5h15v-9a2 2 0 0 0-2-2h-11a2 2 0 0 0-2 2zm1-1v-8h2v4H4v4zm3.5 0v-4h.5v-4H7v4h.5v4zm7 0v-4h.5v-4h2v8zm-3.5 0v-4H9v-4h1.5v4h.5v4z" fill="#e0e0e0"/><path d="M4.5 4.127a2 2 0 0 0-2-2 2 2 0 0 1-2-2" stroke-linecap="square" stroke="#e0e0e0" fill="none"/><path d="m11.75 3.3.75-1.5M7.75 3.3 7 1.8m2.75 1.1V1.2" stroke-width="1.25" stroke-linecap="round" stroke="#69c4d4"/></svg>
