<svg xmlns="http://www.w3.org/2000/svg" width="16" height="16"><path fill="#69c4d4" fill-opacity=".8" d="M8.5 14.5v-4H9v-4h1.5v4h.5v4z"/><path fill="#e0e0e0" d="M.5 15.5h15v-9a2 2 0 0 0-2-2h-11a2 2 0 0 0-2 2zm1-1v-8h2v4H4v4zm3.5 0v-4h.5v-4H7v4h.5v4zm7 0v-4h.5v-4h2v8zm-3.5 0v-4H9v-4h1.5v4h.5v4z"/><path fill="none" stroke="#e0e0e0" stroke-linecap="square" d="M4.5 4.127a2 2 0 0 0-2-2 2 2 0 0 1-2-2"/><path stroke="#69c4d4" stroke-linecap="round" stroke-width="1.25" d="m11.75 3.3.75-1.5M7.75 3.3 7 1.8m2.75 1.1V1.2"/></svg>