<svg height="16" viewBox="0 0 16 16" width="16" xmlns="http://www.w3.org/2000/svg"><linearGradient id="a" gradientUnits="userSpaceOnUse" x1="0.5" x2="6"><stop offset="0" stop-color="#69c4d4" stop-opacity="0"/><stop offset=".6" stop-color="#69c4d4"/></linearGradient><path d="M6 8v3a4 4 0 0 0 8 0V8a4 4 0 0 0-3-3.873V7.5a1 1 0 0 1-2 0V4.127A4 4 0 0 0 6 8" fill="#e0e0e0"/><path d="M10 4.127a2 2 0 0 0-2-2H7a2 2 0 0 1-2-2" stroke-linecap="round" stroke="#e0e0e0" fill="none"/><path d="M5 6a4 4 0 0 0-.4 1.5v4a4 4 0 0 0 1.2 2.8l-4 .8q-1.3.26-1.3-2V8q0-1.1 1.3-1.36Z" fill="url(#a)"/></svg>
