<svg height="16" viewBox="0 0 16 16" width="16" xmlns="http://www.w3.org/2000/svg"><path d="M5.25 3h2.3A1.15 1.15 0 0 1 8.7 4.15v9.2a1.15 1.15 0 0 1-1.15 1.15h-2.3a1.15 1.15 0 0 1-1.15-1.15v-2.3H1.8A1.15 1.15 0 0 1 .65 9.9V7.6A1.15 1.15 0 0 1 1.8 6.45h2.3v-2.3A1.15 1.15 0 0 1 5.25 3zM6.4 7.025a1.15 1.15 0 0 0 0 3.45 1.15 1.15 0 0 0 0-3.45Z" fill="#e0e0e0"/><path d="M8.7 6.3H11a1.15 1.15 0 0 1 1.15 1.15v2.3A1.15 1.15 0 0 1 11 10.9H8.7" fill="#69c4d4"/><path d="m13.25 7.25 1.7-.4m-2.2-1.35 1.3-1.3M11 5l.4-1.7" stroke-width="1.25" stroke-linecap="round" stroke="#69c4d4"/></svg>
