<svg xmlns="http://www.w3.org/2000/svg" width="16" height="16"><path fill="#e0e0e0" d="M.997 4v2h1v2h3v-2h2.133c.553 2.139 2.734 3.426 4.873 2.873s3.425-2.734 2.872-4.873-2.734-3.425-4.873-2.873c-1.408.364-2.509 1.464-2.873 2.873zm9.999-1c1.104 0 2 .896 2 2s-.896 2-2 2-2-.896-2-2 .896-2 2-2zM5.169 12.594c-.224.222-.225.583-.003.807 0 0 .001.002.003.002l2.426 2.43c.222.223.583.224.807.002 0-.001.001-.002.002-.002l2.427-2.429c.225-.222.225-.583.003-.807-.001-.001-.001-.002-.003-.002l-2.426-2.428c-.222-.225-.582-.227-.806-.005-.001.002-.002.003-.004.005z"/></svg>
