<svg height="16" viewBox="0 0 16 16" width="16" xmlns="http://www.w3.org/2000/svg"><circle cx="4" cy="12" fill="none" r="2"/><path d="m11.99.99023a1.0001 1.0001 0 0 0 -.69726 1.7168l.29297.29297h-2.5859v2h2.5859l-.29297.29297a1.0001 1.0001 0 1 0 1.4141 1.4141l2-2a1.0001 1.0001 0 0 0 0-1.4141l-2-2a1.0001 1.0001 0 0 0 -.7168-.30273zm-8.9902.0097656c-1.108 0-2 .892-2 2v2c0 1.108.892 2 2 2h2c1.108 0 2-.892 2-2v-2c0-1.108-.892-2-2-2z" fill="#e0e0e0"/><path d="m11 9v2h-2v2h2v2h2v-2h2v-2h-2v-2z" fill="#84ffb1"/></svg>
