<svg xmlns="http://www.w3.org/2000/svg" width="16" height="16"><path fill="#e0e0e0" d="M 8.5350177,0.7594329 C 8.1797596,1.6974118 7.4718721,3.5743571 7.4718721,3.5743571 L 5.9588839,4.3081396 5.6501289,4.1595451 1.782042,2.2227163 C 0.95848895,1.8181818 0.12974969,2.5253112 0.55267876,3.5059663 L 1.6860166,7.0181032 v 5.1674898 c 0,0.3 0.2,0.7 0.5,0.8 l 5.4,2.7 c 0.3,0.1 0.6,0.1 0.8,0 l 5.4000004,-2.7 c 0.3,-0.2 0.49956,-0.5 0.5,-0.8 l 0.0081,-5.1689173 1.286349,-2.8441484 C 15.842894,3.5088929 15.689806,3.1280955 15.111221,2.8289115 L 9.9625306,0.24087087 C 9.3069134,-0.09155475 8.7289326,0.14998593 8.5350177,0.7594329 Z m -1.4490011,12.6261601 -3.6,-1.8 V 8.1855933 l 3.6,1.8 z m 5.4000004,-1.8 -3.6000004,1.8 V 9.9855933 l 3.6000004,-1.8 z M 6.3060973,7.5787649 3.2401615,6.0669811 2.8732909,4.7828151 c 1.1641728,0.5826574 0.00909,0.00451 3.0960194,1.5362696 z m 6.7597497,-2.2671729 -3.6000002,-1.8 0.5716902,-1.2447053 3.6,1.8 z"/></svg>
