<svg height="16" viewBox="0 0 16 16" width="16" xmlns="http://www.w3.org/2000/svg"><path d="m11 1c-2.1973 0-4 1.8027-4 4 0 .35477.062329.69321.15039 1.0215l2.3945-2.3945c.36302-.38506.87563-.62695 1.4551-.62695 1.1164 0 2 .8836 2 2 0 .57388-.23667 1.0829-.61523 1.4453l-2.4043 2.4043c.32773.087749.66541.15039 1.0195.15039 2.1973 0 4-1.8027 4-4s-1.8027-4-4-4zm-.013672 3.002a1 1 0 0 0 -.69336.29102l-6 6a1 1 0 0 0 0 1.4141 1 1 0 0 0 1.4141 0l6-6a1 1 0 0 0 0-1.4141 1 1 0 0 0 -.7207-.29102zm-5.9863 2.998c-2.1973 0-4 1.8027-4 4s1.8027 4 4 4 4-1.8027 4-4c0-.35412-.062641-.6918-.15039-1.0195l-2.4043 2.4043c-.36245.37857-.87143.61523-1.4453.61523-1.1164 0-2-.8836-2-2 0-.57944.24189-1.0921.62695-1.4551l2.3945-2.3945c-.32827-.088062-.66671-.15039-1.0215-.15039z" fill="#e0e0e0" fill-rule="evenodd"/></svg>
