<svg height="8" viewBox="0 0 16 8" width="16" xmlns="http://www.w3.org/2000/svg"><path d="m1 1v6h2v-2.9863-3.0137zm2 3.0137a1.0001 1.0001 0 0 0 .29297.69336l2 2a1 1 0 0 0 1.4141 0 1 1 0 0 0 0-1.4141l-.29297-.29297h3.1719l-.29297.29297a1 1 0 0 0 0 1.4141 1 1 0 0 0 1.4141 0l2-2a1.0001 1.0001 0 0 0 .29297-.72266 1.0001 1.0001 0 0 0 -.29297-.69141l-2-2a1 1 0 0 0 -.7207-.29102 1 1 0 0 0 -.69336.29102 1 1 0 0 0 0 1.4141l.29297.29297h-3.1719l.29297-.29297a1 1 0 0 0 0-1.4141 1 1 0 0 0 -.7207-.29102 1 1 0 0 0 -.69336.29102l-2 2a1.0001 1.0001 0 0 0 -.29297.7207zm10-.029297v3.0156h2v-6h-2z" fill="#e0e0e0"/></svg>
