<svg xmlns="http://www.w3.org/2000/svg" xml:space="preserve" width="16" height="16" viewBox="0 0 4.233 4.233"><path fill="#e0e0e0" d="M1.795.265a.53.53 0 0 0-.53.529v2.645c0 .293.237.53.53.53h1.587a.53.53 0 0 0 .53-.53V.794a.53.53 0 0 0-.53-.53zm0 .529h.256v.165a.247.247 0 0 0 .247.248h.58A.247.247 0 0 0 3.126.96V.794h.256v2.645H1.795z"/><path d="M1.034 2.457a.444.444 0 0 1-.159-.34.444.444 0 0 1 .16-.34m-.286 1.02a.889.889 0 0 1-.318-.68.889.889 0 0 1 .318-.681" style="fill:none;fill-opacity:.996078;stroke:#e0e0e0;stroke-width:.222194;stroke-linecap:round;stroke-linejoin:round;stroke-miterlimit:4;stroke-dasharray:none;stroke-dashoffset:16.5;stroke-opacity:1;paint-order:stroke markers fill"/></svg>
