<svg xmlns="http://www.w3.org/2000/svg" xml:space="preserve" width="16" height="16" viewBox="0 0 4.233 4.233"><path fill="#e0e0e0" d="M1.795.265a.53.53 0 0 0-.53.529v2.645c0 .293.237.53.53.53h1.587a.53.53 0 0 0 .53-.53V.794a.53.53 0 0 0-.53-.53zm0 .529h.256v.165a.247.247 0 0 0 .247.248h.58A.247.247 0 0 0 3.126.96V.794h.256v2.645H1.795z"/><path fill="#e0e0e0" d="M1.743 2.964a.178.178 0 0 0-.178-.178H1.18a.534.534 0 0 0-.503-.356v.178H.32v.178h.356v.356H.32v.178h.356v.178a.533.533 0 0 0 .502-.356h.387c.099 0 .178-.08.178-.178z" style="stroke-width:.177922"/></svg>
