<svg xmlns="http://www.w3.org/2000/svg" height="16" viewBox="0 0 4.233 4.233" width="16"><path d="M1.399.735H.32v2.763h1.078c0-.004-.006-.006-.006-.01V.745c0-.004.006-.006.006-.01z" fill="#4bb7f8"/><path d="M.49.9v2.432h.62v-.18H.67v-.35h.44v-.18H.67V1.08h.44V.9H.49z" fill="#e0e0e0"/><path d="M1.795.265a.53.53 0 0 0-.53.529v2.645c0 .293.237.53.53.53h1.587a.53.53 0 0 0 .53-.53V.794a.53.53 0 0 0-.53-.53zm0 .529h.256v.165a.247.247 0 0 0 .247.248h.58A.247.247 0 0 0 3.126.96V.794h.256v2.645H1.795z" fill="#e0e0e0"/></svg>
