<svg height="16" viewBox="0 0 16 16" width="16" xmlns="http://www.w3.org/2000/svg"><g fill="#e0e0e0"><path d="m5.2902433 14.98657h1.9512087v2.441414h-1.9512087zm0-11.909101h1.9512087v6.2957719l-.1922373 3.4314361h-1.5571222l-.2018492-3.4314361z" transform="matrix(1.2172834 0 0 .60107067 .478728 1.839214)"/><path d="m8.0503291 1.1522775a6.8983747 6.8983747 0 0 0 -6.8980516 6.8980516 6.8983747 6.8983747 0 0 0 6.8980516 6.8997839 6.8983747 6.8983747 0 0 0 6.8997839-6.8997839 6.8983747 6.8983747 0 0 0 -6.8997839-6.8980516zm-.0294418 1.1430364a5.6659852 5.6659852 0 0 1 5.6666897 5.6649578 5.6659852 5.6659852 0 0 1 -5.6666897 5.6666893 5.6659852 5.6659852 0 0 1 -5.6666896-5.6666893 5.6659852 5.6659852 0 0 1 5.6666896-5.6649578z" stroke-width=".886719"/></g></svg>
