<svg height="16" viewBox="0 0 16 16" width="16" xmlns="http://www.w3.org/2000/svg"><path d="m1 3c-.55226.0000552-.99994.44774-1 1v8c.0000552.55226.44774.99994 1 1h14c.55226-.000055.99994-.44774 1-1v-8c-.000055-.55226-.44774-.99994-1-1zm2 2h2v2h2v2h-2v2h-2v-2h-2v-2h2zm10.5 0a1.5 1.5 0 0 1 1.5 1.5 1.5 1.5 0 0 1 -1.5 1.5 1.5 1.5 0 0 1 -1.5-1.5 1.5 1.5 0 0 1 1.5-1.5zm-3 3a1.5 1.5 0 0 1 1.5 1.5 1.5 1.5 0 0 1 -1.5 1.5 1.5 1.5 0 0 1 -1.5-1.5 1.5 1.5 0 0 1 1.5-1.5z" fill="#e0e0e0" fill-opacity=".99608" fill-rule="evenodd"/></svg>
