<svg height="8" viewBox="0 0 8 8" width="8" xmlns="http://www.w3.org/2000/svg"><path d="m3.9960938-.03710938c-.1950007 0-.3896403.07518711-.5390626.22460938l-3.23632808 3.2363281c-.29883746.2988375-.29884453.7812336 0 1.0800781l3.23632808 3.2363282c.2988375.2988374.7812407.2988374 1.0800782 0l3.2363281-3.2363282c.2988445-.2988445.2988375-.7812406 0-1.0800781l-3.2363281-3.2363281c-.1494223-.14942227-.346015-.22460938-.5410156-.22460938zm.0292968.8515625c.1516192 0 .3037416.05796444.4199219.17382813l2.515625 2.50781255c.2323605.2317273.2323605.6061632 0 .8378906l-2.515625 2.5097656c-.2323605.2317274-.6074832.2317274-.8398437 0l-2.515625-2.5097656c-.23236057-.2317274-.23236057-.6061633 0-.8378906l2.515625-2.50781255c.1161802-.11586369.2683026-.17382813.4199218-.17382813z" fill="#e0e0e0"/></svg>
