<svg height="16" width="16" xmlns="http://www.w3.org/2000/svg"><g fill-opacity=".996"><path d="m4 2a1 1 0 0 0 -1 1v9.084c0 .506.448.916 1 .916h8c.552 0 1-.41 1-.916v-9.084a1 1 0 0 0 -1-1zm1.543 1.139h1.393l1.834 4.199h1.295v.437c.708.052 1.246.239 1.61.559.368.316.55.747.55 1.295 0 .552-.182.99-.55 1.314-.368.32-.906.505-1.61.553v.467h-1.294v-.473c-.708-.06-1.247-.248-1.615-.564-.364-.316-.545-.75-.545-1.297 0-.548.181-.977.545-1.29.368-.315.907-.504 1.615-.564v-.437h-1.464l-.282-.733h-1.595l-.284.733h-1.439l1.836-4.2zm.684 1.39-.409 1.057h.817zm3.84 4.338v1.526c.28-.04.483-.12.607-.24.124-.125.185-.302.185-.53 0-.224-.063-.396-.191-.516-.124-.12-.326-.2-.602-.24zm-1.296.006c-.284.04-.487.12-.61.24-.12.116-.182.288-.182.516 0 .22.065.392.193.512.132.12.331.202.6.246v-1.514z" fill="#e0e0e0"/><path d="m27 2h7v14h-7z" fill="#fff"/><path d="m1 4v9a2 2 0 0 0 2 2h10a2 2 0 0 0 2-2v-9h-1v9a1 1 0 0 1 -1 1h-10a1 1 0 0 1 -1-1v-9z" fill="#e0e0e0"/></g></svg>
