<svg xmlns="http://www.w3.org/2000/svg" width="16" height="16"><path fill="#e0e0e0" d="M4 1.977a1 1 0 0 0-1 1v9a1 1 0 0 0 1 1h8a1 1 0 0 0 1-1v-9a1 1 0 0 0-1-1zm5.8 2 .58.58-.58.58-.58-.58zm-.6 1 .6.6-.6.6-.6-.6zm1.2 0 .6.6-.6.6-.6-.6zm.717 1.436h1.06c.053.217.093.428.122.63.028.201.043.395.043.58a2.363 2.363 0 0 1-.133.724 1.425 1.425 0 0 1-.31.515c-.249.265-.598.399-1.05.399-.331 0-.594-.08-.785-.235a1.091 1.091 0 0 1-.236-.275c-.063.1-.14.19-.236.265-.206.163-.467.245-.787.245-.252 0-.457-.057-.614-.166a2.75 2.75 0 0 1-.095.42 1.936 1.936 0 0 1-.403.722c-.2.22-.452.383-.756.49-.303.11-.654.166-1.052.166-.466 0-.865-.089-1.2-.265a1.817 1.817 0 0 1-.765-.752c-.18-.327-.27-.715-.27-1.164 0-.256.027-.525.082-.809.055-.284.126-.545.21-.781h1.001c-.062.232-.112.46-.15.684a3.87 3.87 0 0 0-.053.613c0 .37.1.643.3.82.204.177.523.264.96.264.222 0 .425-.03.61-.092a.97.97 0 0 0 .439-.299.803.803 0 0 0 .166-.521 5.463 5.463 0 0 0-.051-.725 11.61 11.61 0 0 0-.068-.482A26.51 26.51 0 0 0 7 6.778h1.135l.043.276c.047.32.123.532.228.634.105.1.24.15.402.15.165 0 .284-.04.358-.124.076-.086.115-.224.115-.412v-.524h1.027v.524c0 .203.032.351.096.447.065.095.202.142.412.142a.637.637 0 0 0 .33-.078c.089-.052.133-.15.133-.297 0-.128-.019-.295-.054-.498zM1 4v9a2 2 0 0 0 2 2h10a2 2 0 0 0 2-2V4h-1v9a1 1 0 0 1-1 1H3a1 1 0 0 1-1-1V4z"/></svg>