<svg xmlns="http://www.w3.org/2000/svg" width="16" height="16"><path fill="#e0e0e0" d="M6.584 5.135 6.17 4.059l-.412 1.076h.826zm3.203 2.976a.95 1.06 0 0 0 0 2.14.95 1.06 0 0 0 0-2.14zM4 2a1 1 0 0 0-1 1v9a1 1 0 0 0 .995 1h8a1 1 0 0 0 1-1V3A1 1 0 0 0 12 2.007H4Zm1.475.646H6.89l1.865 4.27H7.268l-.286-.744H5.36l-.287.744H3.61l1.866-4.27Zm2.939 8.401a2.42 2.24 0 1 1 2.41.168c.296.465.837-.109 1.06-.007l.544.642c-.64.756-1.883.677-2.605.084-.394-.448-.866-.673-1.409-.887ZM1 4v9a2 2 0 0 0 2 2h10a2 2 0 0 0 2-2V4h-1v9a1 1 0 0 1-1 1H3a1 1 0 0 1-1-1V4Z"/></svg>
