<svg xmlns="http://www.w3.org/2000/svg" width="16" height="16"><path fill="#ff5f5f" d="M4 2a1 1 0 0 0-1 1v9a1 1 0 0 0 1 1h8a1 1 0 0 0 1-1V3a1 1 0 0 0-1-1H4Zm4.223 1.262c1.06.005 2.29.257 2.92 1.197.532.862.275 2.057-.484 2.703-.346.382-.862.629-1.075 1.117.055.345-.33.172-.537.213H7.148c-.037-.749.503-1.335 1.026-1.796.406-.253.744-1.002.129-1.22-.626-.25-1.374.117-1.645.715l-2.08-1.039c.599-1.147 1.868-1.818 3.136-1.872.17-.013.339-.018.509-.018Zm.127 5.697c.798-.057 1.616.616 1.54 1.45-.023.81-.841 1.413-1.623 1.328-.833.022-1.6-.771-1.443-1.613.097-.721.83-1.195 1.526-1.165zM1 4v9a2 2 0 0 0 2 2h10a2 2 0 0 0 2-2V4h-1v9a1 1 0 0 1-1 1H3a1 1 0 0 1-1-1V4Z"/></svg>