<svg xmlns="http://www.w3.org/2000/svg" xml:space="preserve" width="16" height="16"><path fill="#e0e0e0" d="M6.584 5.135 6.17 4.059l-.412 1.076h.826zm3.203 2.976a1.032 1.032 0 0 0-.287.041.953.953 0 0 0-.09.034c-.028.012-.057.024-.084.039a.912.912 0 0 0-.152.107.988.988 0 0 0-.23.305.937.937 0 0 0-.04.097 1.017 1.017 0 0 0-.068.323 1.553 1.553 0 0 0 0 .244 1.374 1.374 0 0 0 .068.328 1.03 1.03 0 0 0 .201.336c.023.022.045.044.069.064a.96.96 0 0 0 .152.104c.027.015.056.027.084.039.03.012.06.024.09.033a.965.965 0 0 0 .19.035 1.028 1.028 0 0 0 .197 0 .974.974 0 0 0 .36-.107.876.876 0 0 0 .077-.049.872.872 0 0 0 .074-.055.882.882 0 0 0 .13-.136.978.978 0 0 0 .177-.368 1.225 1.225 0 0 0 .035-.224 1.61 1.61 0 0 0 0-.244 1.361 1.361 0 0 0-.035-.223 1.092 1.092 0 0 0-.121-.285.87.87 0 0 0-.12-.15.862.862 0 0 0-.14-.124c-.025-.017-.05-.035-.078-.05-.027-.015-.056-.027-.086-.04a.892.892 0 0 0-.373-.074z"/><path fill="#e0e0e0" d="M4 2c-.616-.02-1.084.59-1 1.178.003 3-.007 6 .005 9 .057.577.672.889 1.203.822 2.631-.003 5.263.006 7.894-.005a.973.973 0 0 0 .898-1.09c-.003-3.002.007-6.005-.005-9.007-.042-.592-.643-.976-1.203-.898H4Zm1.475.646H6.89l1.865 4.27H7.268l-.286-.744H5.36l-.287.744H3.61l1.866-4.27Zm4.312 4.301c1.069-.042 2.164.679 2.363 1.766.232 1.01-.34 2.144-1.326 2.502.296.465.837-.109 1.06-.007l.544.642c-.64.756-1.883.677-2.605.084-.394-.448-.866-.673-1.409-.887-1.175-.66-1.391-2.456-.43-3.39.463-.486 1.141-.716 1.803-.71Z"/><path fill="#e0e0e0" d="M1 4v9a2 2 0 0 0 2 2h10a2 2 0 0 0 2-2V4h-1v9a1 1 0 0 1-1 1H3a1 1 0 0 1-1-1V4Z"/></svg>
