<svg height="16" viewBox="0 0 16 16" width="16" xmlns="http://www.w3.org/2000/svg"><path d="m8 1c-.195 0-.38964.07519-.53906.22461l-3.2363 3.2363c-.29884.29884-.29884.77929 0 1.0781l3.2363 3.2363c.29884.29884.77929.29884 1.0781 0l3.2363-3.2363c.29884-.29884.29884-.77929 0-1.0781l-3.2363-3.2363c-.14942-.14942-.34406-.22461-.53906-.22461zm3 7v5c0 1.6569 1.3431 3 3 3h1v-2h-1c-.55228 0-.99999-.4477-1-1v-1h2v-2h-2v-2zm0 5c0-1.645-1.355-3-3-3s-3 1.355-3 3 1.355 3 3 3 3-1.355 3-3zm-7-3c-1.6569 0-3 1.3431-3 3v3h2v-3c.0000096-.5523.44772-1 1-1h1v-2zm4 2c.56413 0 1 .4359 1 1 0 .5642-.43587 1-1 1s-1-.4358-1-1c0-.5641.43587-1 1-1z" fill="#e0e0e0" fill-opacity=".99608"/></svg>
