<svg height="16" viewBox="0 0 16 16" width="16" xmlns="http://www.w3.org/2000/svg"><path d="m8 1c-.195 0-.38964.07519-.53906.22461l-3.2363 3.2363c-.29884.29884-.29884.77929 0 1.0781l3.2363 3.2363c.29884.29884.77929.29884 1.0781 0l3.2363-3.2363c.29884-.29884.29884-.77929 0-1.0781l-3.2363-3.2363c-.14942-.14942-.34406-.22461-.53906-.22461zm3 7v5c0 1.6569 1.3431 3 3 3h1v-2h-1c-.55228-.00001-.99999-.44772-1-1v-5zm-8 2c-.71466-.0001-1.3751.3811-1.7324 1-.35727.6188-.35727 1.3812 0 2 .35733.6189 1.0178 1.0001 1.7324 1h-2v2h2c.71466.0001 1.3751-.3811 1.7324-1 .35727-.6188.35727-1.3812 0-2-.35733-.6189-1.0178-1.0001-1.7324-1h2v-2zm6 0c-1.6569 0-3 1.3431-3 3s1.3431 3 3 3h1v-2h-1c-.55228-.00001-.99999-.44772-1-1 .0000096-.55228.44772-.99999 1-1h1v-2z" fill="#e0e0e0" fill-opacity=".99608"/></svg>
