<svg height="10" viewBox="0 0 10 10" width="10" xmlns="http://www.w3.org/2000/svg"><ellipse cx="-.88987" cy="6.095995" fill="none" rx="1.249577" ry="1.086747"/><path d="m5.5742494.94786723a.58774585.58774585 0 0 0 -.5877458.58774577.58774585.58774585 0 0 0 .5877458.5877459h1.519852l-.7599554.7599553.8311314.8311314.7599554-.7599553v1.5198519a.58774585.58774585 0 0 0 .5877459.5877459.58774585.58774585 0 0 0 .5877458-.5877459v-2.9387292a.58780462.58780462 0 0 0 -.5877458-.58774577zm-.5877458 2.93872917a1.1754917 1.1754917 0 0 0 -1.1754917 1.1754917 1.1754917 1.1754917 0 0 0 1.1754917 1.1754917 1.1754917 1.1754917 0 0 0 1.1754917-1.1754917 1.1754917 1.1754917 0 0 0 -1.1754917-1.1754917zm-3.5264751 1.1754917a.58774585.58774585 0 0 0 -.5877459.5877458v2.9387299a.58780462.58780462 0 0 0 .5877459.5877454h2.9387292a.58774585.58774585 0 0 0 .5877459-.5877454.58774585.58774585 0 0 0 -.5877459-.5877465h-1.519852l.7599554-.7599554-.8311314-.8311314-.7599554.7599554v-1.519852a.58774585.58774585 0 0 0 -.5877458-.5877458z" fill="#eac840" stroke-width=".587745"/></svg>
