<svg height="10" viewBox="0 0 10 10" width="10" xmlns="http://www.w3.org/2000/svg"><ellipse cx="-.88987" cy="6.095995" fill="none" rx="1.249577" ry="1.086747"/><path d="m4.5230825 1.1341567c-2.1310744.017055-3.86718737 1.7635044-3.86718737 3.8984375 0 1.8778511 1.34348597 3.4523891 3.11718737 3.8164061l.1796875-1.269531c-1.1597709-.2699031-2.0175779-1.3014258-2.0175779-2.5468751 0-1.4262775 1.123493-2.5732858 2.5390622-2.6152344v.017578h.2011719l.1796875-1.28125h-.3320312v-.011719c0-.00263-.0000264-.00518 0-.00781zm1.6816406.019531-.1796875 1.28125h1.3085937c.078866 0 .1230469.044181.1230469.1230469v4.9882815c0 .07887-.044181.121093-.1230469.121094h-2.0449218l-.1796875 1.2812502h2.2246093c.7663818 0 1.4042969-.635962 1.4042969-1.402344v-4.9882815c0-.7663818-.637915-1.4042969-1.4042969-1.4042969z" fill="#5ad5c4" stroke-linejoin="round"/></svg>
