<svg height="10" viewBox="0 0 10 10" width="10" xmlns="http://www.w3.org/2000/svg"><ellipse cx="-.88987" cy="6.095995" fill="none" rx="1.249577" ry="1.086747"/><path d="m5.0711986.88214062a4.1086779 4.1086779 0 0 0 -.178839.00115 4.1086779 4.1086779 0 0 0 -.409265.033245 4.1086779 4.1086779 0 0 0 -3.49308098 3.27179898 4.1086779 4.1086779 0 0 0 1.15670998 3.7360798h-.648877v1.1739077h2.347816a.58701268.58701268 0 0 0 .569756-.729119l-.586953-2.3478164-1.139514.2854534.165082.6580347a2.9347699 2.9347699 0 0 1 -.769204-1.9752178 2.9347699 2.9347699 0 0 1 2.93477-2.93477 2.9347699 2.9347699 0 0 1 2.93477 2.93477 2.9347699 2.9347699 0 0 1 -.860944 2.0738257l.831127.8311266a4.1086779 4.1086779 0 0 0 .779534-4.7219857 4.1086779 4.1086779 0 0 0 -3.632953-2.29047068zm-.05159 2.93359608a1.173908 1.173908 0 0 0 -1.173907 1.173908 1.173908 1.173908 0 0 0 1.173907 1.173908 1.173908 1.173908 0 0 0 1.173909-1.173908 1.173908 1.173908 0 0 0 -1.173909-1.173908z" fill="#ff2b88" stroke-width=".586954"/></svg>
