<svg height="10" viewBox="0 0 10 10" width="10" xmlns="http://www.w3.org/2000/svg"><ellipse cx="-.88987" cy="6.095995" fill="none" rx="1.249577" ry="1.086747"/><path d="m4.949661.60426977a.6444116.6444116 0 0 0 -.445508.1875179l-1.288694 1.28869423.911171.9111713.83314-.8331408.833141.8331408.911172-.9111713-1.288695-1.28869423a.6444116.6444116 0 0 0 -.465644-.1875179zm-3.02289 2.76489363-1.288694 1.2886943a.6444116.6444116 0 0 0 0 .9111713l1.288694 1.2886943.911171-.9111713-.833141-.8331409.833141-.8331409-.911171-.9111713zm6.065948 0-.911171.9111713.83314.8331409-.83314.8331408.911171.9111714 1.288694-1.2886944a.6444116.6444116 0 0 0 0-.9111713l-1.288694-1.2886943zm-3.032942.4555727a1.2886943 1.2886943 0 0 0 -1.288694 1.2886944 1.2886943 1.2886943 0 0 0 1.288694 1.2886943 1.2886943 1.2886943 0 0 0 1.288694-1.2886943 1.2886943 1.2886943 0 0 0 -1.288694-1.2886944zm-.83314 3.4105296-.911172.9111715 1.288694 1.288694a.6444116.6444116 0 0 0 .911171 0l1.288695-1.288694-.911172-.9111715-.833141.8331405-.83314-.8331405z" fill="#ea7940" stroke-width=".644347"/></svg>
