<svg xmlns="http://www.w3.org/2000/svg" width="10" height="10"><g fill="#ea7940"><circle cx="5" cy="5" r="1.25"/><path d="M5 .625a.625.625 0 0 0-.432.182l-1.25 1.25.884.884.808-.808.808.808.884-.884-1.25-1.25A.625.625 0 0 0 5 .625zM2.068 3.307l-1.25 1.25a.625.625 0 0 0 0 .884l1.25 1.25.884-.884-.808-.808.808-.808-.884-.884zm5.884 0-.884.884.808.808-.808.808.884.883 1.25-1.25a.625.625 0 0 0 0-.883l-1.25-1.25zm-3.75 3.75-.884.884 1.25 1.25a.625.625 0 0 0 .884 0l1.25-1.25-.884-.884-.808.808-.808-.808z"/></g></svg>