<svg height="16" viewBox="0 0 16 16" width="16" xmlns="http://www.w3.org/2000/svg"><linearGradient x2="0" y2="16" gradientUnits="userSpaceOnUse" id="a"><stop offset=".1875" stop-color="#ff4545"/><stop stop-color="#ffe345"/><stop offset=".3125" stop-color="#ffe345"/><stop stop-color="#80ff45"/><stop offset=".4375" stop-color="#80ff45"/><stop stop-color="#45ffa2"/><stop offset=".5625" stop-color="#45ffa2"/><stop stop-color="#45d7ff"/><stop offset=".6875" stop-color="#45d7ff"/><stop stop-color="#8045ff"/><stop offset=".8125" stop-color="#8045ff"/><stop stop-color="#ff4596"/></linearGradient><path d="M6 3a1 1 0 0 0-.707.293l-4 4a1 1 0 0 0 0 1.414l4 4A1 1 0 0 0 6 13h2.184C7.25 10.75 9.75 8.75 11.25 6.5a.85.85 0 0 1 1.5 0c1.5 2.25 2 2.5 2.25 3V4a1 1 0 0 0-1-1H6zM5 7a1 1 0 0 1 0 2 1 1 0 0 1 0-2z" fill="#8eef97"/><path d="M12 7c-.429.746-.946 1.387-1.429 2-.571.69-1.066 1.342-1.34 2-.138.326-.231.656-.231 1s.072.686.184 1c.413 1.163 1.512 2 2.816 2s2.402-.837 2.816-2c.112-.314.184-.656.184-1s-.094-.674-.231-1c-.275-.658-.77-1.31-1.34-2-.484-.613-1-1.254-1.43-2z" fill="url(#a)"/></svg>
