<svg height="16" width="16" xml:space="preserve" xmlns="http://www.w3.org/2000/svg"><path d="M6 3a1 1 0 0 0-.707.293l-4 4a1 1 0 0 0 0 1.414l4 4A1 1 0 0 0 6 13h2.076a3.766 3.766 0 0 1-.058-.496c-.003-.058-.006-.115-.006-.174a2.606 2.606 0 0 1 .05-.508 3.212 3.212 0 0 1 .133-.496 5.104 5.104 0 0 1 .451-.982 8.303 8.303 0 0 1 .422-.656 14.41 14.41 0 0 1 .489-.667c.172-.223.351-.45.535-.68.163-.203.327-.408.492-.618a27.639 27.639 0 0 0 .732-.977 16.04 16.04 0 0 0 .465-.697c.075-.12.147-.242.219-.365a12.399 12.399 0 0 0 .684 1.062 27.555 27.555 0 0 0 .73.977c.165.21.331.415.494.619a43.298 43.298 0 0 1 .787 1.013c.082.111.16.222.237.332L15 9.79V4a1 1 0 0 0-1-1H6zM5 7a1 1 0 0 1 1 1 1 1 0 0 1-1 1 1 1 0 0 1-1-1 1 1 0 0 1 1-1z" fill="#8eef97"/><path d="M9.184 13A2.99 2.99 0 0 0 12 15a2.99 2.99 0 0 0 2.816-2z" fill="#ff4596"/><path d="M9.23 11c-.136.326-.23.656-.23 1 0 .352.072.686.184 1h5.632c.112-.314.184-.648.184-1 0-.344-.094-.674-.23-1H9.23z" fill="#8045ff"/><path d="M10.564 9c-.552.69-1.058 1.342-1.334 2h5.54c-.276-.658-.782-1.31-1.335-2Z" fill="#45d7ff"/><path d="M12 7c-.43.746-.945 1.387-1.435 2h2.87c-.49-.613-1.005-1.254-1.435-2Z" fill="#45ffa2"/></svg>
