<svg xmlns="http://www.w3.org/2000/svg" width="16" height="16"><path fill="#8eef97" d="M1.3 12.362a1.041 1.041 0 0 0 0 1.465l.865.874a1.041 1.041 0 0 0 1.465 0l2.935-2.944a1.041 1.041 0 0 0 0-1.505l2.07-2.07 1.02 1.02a.38.38 0 0 0 .549 0l-.242.242a.784.784 0 0 0 0 1.1l.457.457a.784.784 0 0 0 1.097 0l3.3-3.3a.784.784 0 0 0 0-1.1l-.457-.457a.784.784 0 0 0-1.1 0l-.242.242a.38.38 0 0 0 0-.549l-2.815-2.815a.38.38 0 0 0-.549 0l.242-.242a.784.784 0 0 0 0-1.1l-.457-.457a.784.784 0 0 0-1.1 0l-3.3 3.3a.784.784 0 0 0 0 1.1l.457.457a.784.784 0 0 0 1.1 0l.242-.242a.38.38 0 0 0 0 .55l1.019 1.02-2.07 2.07a1.041 1.041 0 0 0-1.553 0z"/></svg>