<svg height="16" viewBox="0 0 16 16" width="16" xmlns="http://www.w3.org/2000/svg"><path d="m1 9h3v-2h-3zm2.050781 2.535156 1.414063 1.414063 1.414062-1.414063-1.414062-1.414062zm0-7.070312 1.414063 1.414062 1.414062-1.414062-1.414062-1.414063zm1.949219 3.535156c0 1.6569 1.3432 3 3 3s3-1.3431 3-3-1.3432-3-3-3-3 1.3431-3 3zm3 7c3.865993 0 7-3.134007 7-7s-3.134007-7-7-7v2.333984c2.577329 0 4.666016 2.088687 4.666016 4.666016s-2.088687 4.666016-4.666016 4.666016z" fill="#fc7f7f" fill-opacity=".996078" stroke-width="1.16667"/></svg>
