<svg clip-rule="evenodd" fill-rule="evenodd" stroke-linejoin="round" stroke-miterlimit="2" viewBox="0 0 16 16" xmlns="http://www.w3.org/2000/svg" xmlns:xlink="http://www.w3.org/1999/xlink"><clipPath id="a"><path clip-rule="evenodd" d="m0 0h16v16h-16z"/></clipPath><path d="m0 0h16v16h-16z" fill="none"/><g clip-path="url(#a)"><path d="m8 0c4.415 0 8 3.585 8 8s-3.585 8-8 8-8-3.585-8-8 3.585-8 8-8zm2.357 8 2.357-2.357-2.357-2.357-2.357 2.357-2.357-2.357-2.357 2.357 2.357 2.357-2.357 2.357 2.357 2.357 2.357-2.357 2.357 2.357 2.357-2.357z" fill="#fc7f7f"/></g><path d="m22.481 21.885 2.357-2.357-2.357-2.357-2.357 2.357-2.357-2.357-2.357 2.357 2.357 2.357-2.357 2.357 2.357 2.357 2.357-2.357 2.357 2.357 2.357-2.357z" fill="#8eef97" fill-rule="nonzero"/></svg>