<svg enable-background="new 0 0 16 16" viewBox="0 0 16 16" xmlns="http://www.w3.org/2000/svg"><path d="m13.5 10.85c-.43 0-.81.18-1.08.47l-2.52-1.13c.04-.18.06-.36.06-.54 0-.68-.27-1.3-.71-1.75l2.11-3.11c.12.03.24.05.38.05.83 0 1.5-.67 1.5-1.5s-.67-1.5-1.5-1.5-1.5.67-1.5 1.5c0 .33.11.64.3.89l-2.12 3.11c-.3-.12-.62-.19-.96-.19-.35 0-.68.07-.98.2l-2.77-3.98c.18-.24.29-.54.29-.87 0-.83-.67-1.5-1.5-1.5s-1.5.67-1.5 1.5.67 1.5 1.5 1.5c.14 0 .27-.02.39-.06l2.76 3.98c-.43.45-.7 1.05-.7 1.72 0 .4.1.77.27 1.1l-1.92 1.49c-.23-.14-.5-.23-.8-.23-.83 0-1.5.67-1.5 1.5s.67 1.5 1.5 1.5 1.5-.67 1.5-1.5c0-.16-.03-.32-.08-.47l1.92-1.49c.44.37 1 .61 1.62.61.84 0 1.57-.41 2.03-1.05l2.53 1.13c0 .04-.01.08-.01.12 0 .83.67 1.5 1.5 1.5s1.5-.67 1.5-1.5-.68-1.5-1.51-1.5z" fill="#e0e0e0"/></svg>