<svg enable-background="new 0 0 16 16" viewBox="0 0 16 16" xmlns="http://www.w3.org/2000/svg"><g fill="#e0e0e0"><path d="m7.82 4.9c0-1.6-1.3-2.9-2.9-2.9-1.61 0-2.92 1.3-2.92 2.89 0 1.64 1.29 2.93 2.93 2.93 1.6 0 2.89-1.31 2.89-2.92zm-2.89 2.19c-1.23 0-2.2-.97-2.2-2.2 0-1.2.98-2.17 2.19-2.17 1.2 0 2.17.98 2.17 2.17.01 1.22-.97 2.21-2.16 2.2z"/><path d="m14 11.08c0-1.6-1.3-2.9-2.9-2.9-1.61 0-2.93 1.3-2.92 2.89 0 1.64 1.29 2.93 2.93 2.93 1.6 0 2.89-1.31 2.89-2.92zm-2.89 2.19c-1.23 0-2.2-.97-2.2-2.2 0-1.2.98-2.17 2.19-2.17 1.2 0 2.17.98 2.17 2.17 0 1.22-.97 2.2-2.16 2.2z"/><path d="m.72 7.27h14.56v1.46h-14.56z" transform="matrix(.7071 -.7071 .7071 .7071 -3.3139 8.0001)"/></g></svg>