<svg enable-background="new 0 0 16 16" viewBox="0 0 16 16" xmlns="http://www.w3.org/2000/svg"><g fill="#e0e0e0"><path d="m10.23 4.83-3.03 4.7-1.44-2.12-.93.65 1.92 2.82c.11.15.28.25.47.25h.01c.19 0 .36-.1.47-.26l3.42-5.32.07-.1z"/><path d="m14.67 0h-4.35c-.61 0-1.11.43-1.25 1h1.26 3.79.55c.18 0 .33.15.33.33v1.21 3.14 1.26c.57-.15 1-.64 1-1.26v-4.35c0-.74-.59-1.33-1.33-1.33z"/><path d="m1.48 15h-.15c-.18 0-.33-.15-.33-.33v-2.05-2.3-1.25c-.57.15-1 .64-1 1.26v4.35c0 .73.59 1.32 1.33 1.32h4.35c.62 0 1.11-.43 1.26-1h-1.27z"/><path d="m11.62 2.25h-1.62-1-4.62c-1.17 0-2.13.95-2.13 2.13v4.62 1 1.62c0 1.17.95 2.13 2.13 2.13h1.62 1 1.29 3.33c1.17 0 2.13-.95 2.13-2.13v-4.62-1-1.62c0-1.18-.95-2.13-2.13-2.13zm.63 9.37c0 .35-.28.63-.63.63h-7.24c-.35 0-.63-.28-.63-.63v-7.24c0-.35.28-.63.63-.63h7.25c.34 0 .63.28.63.63v7.24z"/></g></svg>