<svg xmlns="http://www.w3.org/2000/svg" width="16" height="16"><g fill="#fc7f7f"><path d="m9.427 16-.252-.252c-1.563-1.557-1.567-4.095-.011-5.658 1.559-1.563 4.098-1.567 5.66-.01.756.754 1.174 1.758 1.176 2.827.002 1.067-.411 2.074-1.168 2.831l-.252.253-.263-.243-.857-.857.507-.505.592.59c.398-.494.644-1.086.709-1.713h-.982v-.716h.98c-.068-.628-.315-1.217-.717-1.706l-.582.583-.507-.505.582-.58c-.498-.396-1.085-.625-1.686-.691v.981h-.715v-.982c-.601.066-1.188.295-1.685.691l.579.58-.505.505-.582-.583c-.408.501-.647 1.097-.715 1.706h.979v.716h-.98c.064.611.301 1.21.708 1.713l.591-.59.505.505z"/><path d="M11.499 12.578c-.189.266-.129.636.138.825.266.188.633.127.822-.139.06-.08.095-.176.107-.276l.274-1.733-.386-.146zM8.456 9.384c.622-.625 1.388-1.042 2.217-1.266l.502-.501c1.134.753 2.665.445 3.419-.689s.446-2.665-.688-3.419c-.309-.205-.66-.338-1.026-.389-.188-1.349-1.433-2.291-2.782-2.103s-2.29 1.433-2.103 2.782c.051.367.184.717.389 1.026l-3.56 3.56c-1.134-.755-2.665-.447-3.419.687s-.446 2.664.688 3.419c.308.204.659.338 1.026.389.188 1.349 1.433 2.29 2.782 2.103.519-.072.976-.303 1.333-.634-.509-1.703-.117-3.62 1.222-4.965z"/></g></svg>
