<svg height="16" viewBox="0 0 16 16" width="16" xmlns="http://www.w3.org/2000/svg"><path d="m3 2c-1.1046 0-2 .8954-2 2v9c0 1.1046.89543 2 2 2h9c1.1046 0 1.8184-.91043 2-2l1-6c.003977-.18354-.042648-.3412-.13477-.5-.17849-.30916-.50825-.49972-.86523-.5h-8c-.35698.0002824-.68674.19084-.86523.5-.092118.1588-.13874.3399-.13477.52344l-1 5.9766c-.091144.54473-.44772 1-1 1s-1-.4477-1-1v-9c0-.5523.44772-1 1-1h2c.55228 0 1 .4477 1 1a1 1 0 0 0 .29297.70703 1 1 0 0 0 .70703.29297h4 1a1 1 0 0 0 -.29297-.70703 1 1 0 0 0 -.70703-.29297h-4c0-1.1046-.89543-2-2-2h-2z" fill="#e0e0e0"/></svg>
