<svg width="16" height="16" viewBox="0 0 16 16" fill="none" xmlns="http://www.w3.org/2000/svg">
<path d="M10 1C11.3261 1 12.5975 1.52716 13.5352 2.46484C14.4728 3.40253 15 4.67392 15 6V8H16V15H4.24902L6.7998 11.5996L8 10H5V6C5 4.67392 5.52716 3.40253 6.46484 2.46484C7.40253 1.52716 8.67392 1 10 1ZM9 10V13H11V10H9ZM10 3C9.20435 3 8.44152 3.3163 7.87891 3.87891C7.3163 4.44152 7 5.20435 7 6V8H13V6C13 5.20435 12.6837 4.44152 12.1211 3.87891C11.5585 3.3163 10.7956 3 10 3Z" fill="#E0E0E0"/>
<path d="M2 5V11H0L1.5 13L3 15L4.5 13L6 11H4V5H2Z" fill="#E0E0E0"/>
</svg>
