<svg xmlns="http://www.w3.org/2000/svg" width="16" height="16" viewBox="0 0 256 256"><path fill="#01a607" d="M25,3c-6.63672,0 -12,5.36328 -12,12v5h-4c-1.69922,0 -3,1.30078 -3,3v24c0,1.69922 1.30078,3 3,3h32c1.69922,0 3,-1.30078 3,-3v-24c0,-1.69922 -1.30078,-3 -3,-3h-4v-5c0,-6.63672 -5.36328,-12 -12,-12zM25,5c5.56641,0 10,4.43359 10,10v5h-20v-5c0,-5.56641 4.43359,-10 10,-10zM25,30c1.69922,0 3,1.30078 3,3c0,0.89844 -0.39844,1.6875 -1,2.1875v2.8125c0,1.10156 -0.89844,2 -2,2c-1.10156,0 -2,-0.89844 -2,-2v-2.8125c-0.60156,-0.5 -1,-1.28906 -1,-2.1875c0,-1.69922 1.30078,-3 3,-3z" font-family="none" font-size="none" font-weight="none" style="mix-blend-mode:normal" text-anchor="none" transform="scale(5.12)"/></svg>
