<svg height="69" viewBox="0 0 187 69" width="187" xmlns="http://www.w3.org/2000/svg"><path d="m91.912 19.51c-3.5233 0-6.278 1.1097-8.2676 3.3281-1.9911 2.2193-2.9844 5.1004-2.9844 8.6465 0 4.1636 1.0165 7.3207 3.0508 9.4707 2.0379 2.1497 4.7123 3.2227 8.0293 3.2227 1.7838 0 3.3686-.15384 4.752-.46289 1.3848-.30784 2.3038-.62367 2.7617-.94336l.13867-10.736c0-.62388-1.6471-.90785-3.4941-.93945-1.847-.02857-3.9609.35742-3.9609.35742v3.6055h2.125l-.023438 1.6055c0 .59532-.59062.89453-1.7676.89453-1.1785 0-2.2182-.4989-3.1211-1.4941-.90498-.99645-1.3555-2.4517-1.3555-4.3711 0-1.9233.43964-3.3428 1.3203-4.2578.87885-.9141 2.0322-1.3711 3.4492-1.3711.59532 0 1.2107.095008 1.8516.29102.64121.19418 1.0686.37639 1.2871.54688.21667.17534.42435.25781.61914.25781.19388 0 .50715-.22698.94141-.68555.43487-.45735.82427-1.1501 1.168-2.0742.34218-.92899.51367-1.6414.51367-2.1465 0-.50111-.011023-.84501-.033203-1.0273-.48045-.52573-1.3668-.94394-2.6602-1.2539-1.2909-.30906-2.7387-.46289-4.3398-.46289zm21.049 0c-3.2367 0-5.8788 1.0413-7.9258 3.1211-2.0464 2.0826-3.0703 5.1404-3.0703 9.1797 0 4.0369 1.0128 7.1085 3.0352 9.2129 2.0251 2.1026 4.6444 3.1543 7.8574 3.1543 3.2145 0 5.8383-1.0111 7.875-3.0332 2.0367-2.0263 3.0527-5.1142 3.0527-9.2656 0-4.1484-.99433-7.2508-2.9863-9.2969-1.9884-2.05-4.6018-3.0723-7.8379-3.0723zm45.504 0c-3.2379 0-5.8792 1.0413-7.9277 3.1211-2.0461 2.0826-3.0684 5.1404-3.0684 9.1797 0 4.0369 1.0104 7.1085 3.0352 9.2129 2.0233 2.1026 4.6432 3.1543 7.8574 3.1543 3.213 0 5.8373-1.0111 7.873-3.0332 2.0364-2.0263 3.0547-5.1142 3.0547-9.2656 0-4.1484-.9939-7.2508-2.9844-9.2969-1.9908-2.05-4.6031-3.0723-7.8398-3.0723zm-30.105.30859c-.45888 0-.82988.16637-1.1152.49609-.28717.33489-.42969.78715-.42969 1.3594v20.584c0 1.053.58624 1.5781 1.752 1.5781h5.8652c7.1824-.000001 10.773-4.2092 10.773-12.627 0-3.9348-.94335-6.8151-2.832-8.6445-1.8853-1.83-4.6472-2.7461-8.2832-2.7461h-5.7305zm42.807 0c-.38928 0-.66468.52801-.82422 1.5801-.0687.50294-.10157 1.0191-.10157 1.543 0 .52694.03287 1.0409.10157 1.543.15954 1.0548.43494 1.5801.82422 1.5801h4.1152v17.225c0 .45462 1.1351.68555 3.3984.68555 2.2655 0 3.3965-.23093 3.3965-.68555v-17.225h4.0137c.38868 0 .66225-.52528.82422-1.5801.0672-.50202.10156-1.016.10156-1.543.00001-.52391-.03436-1.04-.10156-1.543-.16197-1.0521-.43554-1.5801-.82422-1.5801h-14.924zm-58.291 6.2793c1.0989 0 2.0193.49244 2.7617 1.4746.74331.98339 1.1152 2.3913 1.1152 4.2207 0 1.8309-.35955 3.2363-1.0801 4.2188-.72053.98612-1.6597 1.4785-2.8145 1.4785-1.1554 0-2.0859-.48441-2.7949-1.459-.71019-.97154-1.0644-2.3663-1.0644-4.1875 0-1.8173.37148-3.2302 1.1133-4.2363.74574-1.0053 1.6663-1.5098 2.7637-1.5098zm45.504 0c1.0989 0 2.0181.49244 2.7617 1.4746.74331.98339 1.1152 2.3913 1.1152 4.2207 0 1.8309-.3612 3.2363-1.082 4.2188-.71961.98612-1.6574 1.4785-2.8125 1.4785-1.1554 0-2.0888-.48441-2.7969-1.459-.70806-.97154-1.0625-2.3663-1.0625-4.1875 0-1.8173.37179-3.2302 1.1133-4.2363.74453-1.0053 1.666-1.5098 2.7637-1.5098zm-24.977.23828h.34375c1.4638 0 2.5334.33466 3.209.99805.6722.66157 1.0098 2.0859 1.0098 4.2715 0 2.1847-.32289 3.7447-.97656 4.6816-.65214.9378-1.6059 1.4082-2.8652 1.4082-.34218 0-.54909-.063339-.61719-.18945-.06873-.12672-.10352-.42897-.10352-.9082v-10.262z" fill="#fff"/><path d="m137.91 48.551v1.2109h.85938v-1.2109zm-52.396.58984c-.99736 0-1.7963.32424-2.3926.96484-.59745.64576-.89453 1.5712-.89453 2.7773v3.0742c0 1.2329.31639 2.1765.94727 2.832.6333.66066 1.467.98828 2.5039.98828.78586 0 1.4321-.16147 1.9414-.48633.50993-.32273.8592-.67938 1.0488-1.0684v-3.6875h-3.0059v.74805h2.1465v2.6934c-.13766.30115-.38143.55386-.73242.76172-.34978.2109-.8171.31445-1.3984.31445-.79619 0-1.4265-.2632-1.8945-.78711-.46799-.52786-.70312-1.2936-.70312-2.2988v-3.0918c0-.96941.21778-1.7078.65234-2.2168.43578-.51023 1.0297-.76367 1.7812-.76367.74271 0 1.3056.19019 1.6836.56641.38017.37925.58276.91542.61133 1.6113h.79492l.013672-.041016c-.024311-.90802-.30456-1.6179-.83789-2.127-.53484-.50719-1.2907-.76367-2.2656-.76367zm7.6133 2.6641c-.719 0-1.3111.22524-1.7715.67773-.46222.45371-.68069.96571-.6582 1.5449l.013672.041015.79688.007813c0-.42696.14768-.78487.44336-1.0781.2966-.29508.67455-.44141 1.1328-.44141.4926 0 .87459.15388 1.1523.45898.27198.30906.41016.73655.41016 1.2793v.94531h-1.3418c-.85666 0-1.5379.21084-2.0391.63477-.50142.42392-.75195.99502-.75195 1.707 0 .67372.17358 1.2075.51758 1.6035.34613.39445.83497.5918 1.4707.5918.45462 0 .86723-.12355 1.2383-.37305.37166-.24767.67317-.56424.90625-.94531 0 .17413.01089.34527.03125.51758.02097.16927.053163.38614.095703.65234h.88867c-.062302-.24767-.10234-.49621-.12695-.75391-.02401-.25436-.037109-.52051-.037109-.79492v-3.7676c0-.80622-.21809-1.4265-.65234-1.8613-.43669-.43061-1.0083-.64648-1.7188-.64648zm7.1152 0c-.45462 0-.85109.11505-1.1875.3457-.33519.23369-.60486.56357-.80664.99023l-.074219-1.1934h-.75195v7.6816h.85352v-5.5293c.11791-.47346.31244-.84655.58594-1.1191.27168-.27107.63379-.4082 1.082-.4082.4689 0 .83314.19466 1.0957.58789.26378.39323.39258 1.0508.39258 1.9707v4.498h.85351v-4.6211-.19922c.0623-.64455.23396-1.1785.51172-1.6055.27927-.42696.66855-.63672 1.166-.63672.47285 0 .83879.19223 1.0938.57422.25345.38138.38281 1.0443.38281 1.9863v4.502h.85742v-4.4863c0-1.1332-.18468-1.9728-.55664-2.5195-.37044-.54548-.89268-.81836-1.5664-.81836-.48897 0-.91182.1465-1.2598.43945-.34796.29234-.61537.69589-.80469 1.207-.148-.55369-.38151-.966-.69726-1.2383-.31543-.2732-.70589-.4082-1.1699-.4082zm10.316 0c-.74423-.000001-1.3797.32125-1.9082.96094-.52725.64273-.78906 1.4505-.78906 2.4199v1.2754c0 .96758.26259 1.762.7871 2.3828.52604.62206 1.2032.93359 2.0312.93359.5157 0 .95833-.090281 1.3242-.26562.36679-.17626.66658-.41287.89844-.70703l-.34961-.60547c-.21728.27441-.4784.4836-.7832.63281-.3048.14586-.66987.2207-1.0898.2207-.60443 0-1.0864-.24489-1.4414-.74023-.35433-.49412-.53321-1.1138-.53321-1.8574v-.63867h4.3965v-.84375c0-.96667-.22381-1.7371-.66992-2.3105-.44519-.57253-1.0684-.85742-1.873-.85742zm9.4727 0c-.74423-.000001-1.3782.32125-1.9082.96094-.52603.64273-.79101 1.4505-.79101 2.4199v1.2754c0 .96758.26241 1.762.78906 2.3828.52512.62206 1.2028.93359 2.0312.93359.51601 0 .95639-.090281 1.3223-.26562.36741-.17626.66822-.41287.90039-.70703l-.34766-.60547c-.21972.27441-.4811.4836-.78711.63281-.30389.14586-.66639.2207-1.0879.2207-.60656 0-1.0883-.24489-1.4414-.74023-.35646-.49412-.5332-1.1138-.5332-1.8574v-.63867h4.3945v-.84375c0-.96667-.22338-1.7371-.66797-2.3105-.44398-.57253-1.0699-.85742-1.873-.85742zm6.8672 0c-.45614 0-.85274.12451-1.1894.36914-.33975.24342-.60962.5923-.81445 1.043l-.07031-1.2695h-.76172v7.6816h.85351v-5.4824c.14617-.47923.36569-.85918.66016-1.1445.29325-.28809.65767-.42969 1.0938-.42969.48622 0 .85922.17765 1.1133.5332.25557.35555.38477.96807.38477 1.8457v4.6777h.85937v-4.6855c0-1.0736-.18381-1.866-.55273-2.375-.36497-.50993-.89-.76367-1.5762-.76367zm6.2539 0c-.77674 0-1.386.32888-1.8242.98437-.44186.65883-.66211 1.5326-.66211 2.6211l.00196 1.0508c0 1.0031.21834 1.8072.65625 2.4102.43699.60413 1.0429.90625 1.8144.90625.41602 0 .78387-.091234 1.0996-.27539.31695-.18324.58484-.4491.80273-.79492v.92969c0 .75881-.14785 1.3303-.4414 1.7266-.29235.39111-.74301.58789-1.3535.58789-.30359 0-.59763-.04082-.88086-.125-.28565-.081443-.54279-.19619-.77344-.3457l-.23632.74805c.27047.15164.57916.27315.92773.36523.34795.092075.67388.13867.97656.13867.84208 0 1.494-.27297 1.9531-.81055.45857-.53971.68554-1.3009.68554-2.2852v-7.6895h-.72265l-.08399 1.0684c-.21485-.38533-.48269-.68758-.80664-.89453-.32334-.2109-.70159-.31641-1.1328-.31641zm10.467 0c-.45401 0-.85062.12451-1.1895.36914-.33914.24342-.60902.5923-.81445 1.043l-.07031-1.2695h-.75977v7.6816h.85352v-5.4824c.14556-.47923.3663-.85918.66016-1.1445.29295-.28809.65797-.42969 1.0937-.42969.48775 0 .85711.17765 1.1133.5332.25496.35555.38476.96807.38476 1.8457v4.6777h.85742v-4.6855c0-1.0736-.18081-1.866-.54882-2.375-.36588-.50993-.8939-.76367-1.5801-.76367zm6.4043 0c-.74271-.000001-1.3778.32125-1.9062.96094-.52724.64273-.79101 1.4505-.79101 2.4199v1.2754c0 .96758.26334 1.762.78906 2.3828.52361.62206 1.2007.93359 2.0312.93359.5154 0 .9567-.090281 1.3223-.26562.3668-.17626.6667-.41287.90039-.70703l-.34961-.60547c-.2194.27441-.47958.4836-.78711.63281-.30359.14586-.66597.2207-1.0859.2207-.60717 0-1.089-.24489-1.4434-.74023-.35464-.49412-.5332-1.1138-.5332-1.8574v-.63867h4.3965v-.84375c0-.96667-.22369-1.7371-.66797-2.3105-.44551-.57253-1.0709-.85742-1.875-.85742zm-12.113.14258v7.6816h.85938v-7.6816zm-27.352.60938c.53029 0 .9445.20789 1.2441.62695.29781.41876.44531.94616.44531 1.5801v.33008h-3.543c.01429-.71688.19281-1.3186.53711-1.8066.34401-.48622.78217-.73047 1.3164-.73047zm9.4727 0c.52998 0 .94406.20789 1.2422.62695.29963.41876.44727.94616.44727 1.5801v.33008h-3.543c.0155-.71688.19298-1.3186.53516-1.8066.3437-.48622.7826-.73047 1.3184-.73047zm29.992 0c.53089 0 .94602.20789 1.2441.62695.29902.41876.44532.94616.44532 1.5801v.33008h-3.543c.01519-.71688.19402-1.3186.53711-1.8066.34218-.48622.78064-.73047 1.3164-.73047zm-16.686.015625c.42119 0 .77033.1246 1.0469.375.27684.25466.4967.58706.65625.99609v3.8047c-.16593.39718-.39.70872-.67383.93359-.28475.22488-.63089.33594-1.043.33594-.6014 0-1.0536-.22975-1.3496-.69531-.29964-.4613-.44727-1.0819-.44727-1.8613v-1.0508c0-.84177.15149-1.527.45508-2.0527.30146-.52482.75528-.78516 1.3555-.78516zm-40.057 3.3281h1.3652v1.6621c-.15286.42089-.40964.76752-.77734 1.041-.3671.27228-.78783.40625-1.2598.40625-.39262 0-.69782-.12824-.91602-.38867-.2185-.25952-.32617-.59591-.32617-1.0059 0-.48531.17262-.89402.52148-1.2207.34795-.32881.81215-.49414 1.3926-.49414z" fill="#e0e0e0"/><path d="m0 0s-.325 1.994-.515 1.976l-36.182-3.491c-2.879-.278-5.115-2.574-5.317-5.459l-.994-14.247-27.992-1.997-1.904 12.912c-.424 2.872-2.932 5.037-5.835 5.037h-38.188c-2.902 0-5.41-2.165-5.834-5.037l-1.905-12.912-27.992 1.997-.994 14.247c-.202 2.886-2.438 5.182-5.317 5.46l-36.2 3.49c-.187.018-.324-1.978-.511-1.978l-.049-7.83 30.658-4.944 1.004-14.374c.203-2.91 2.551-5.263 5.463-5.472l38.551-2.75c.146-.01.29-.016.434-.016 2.897 0 5.401 2.166 5.825 5.038l1.959 13.286h28.005l1.959-13.286c.423-2.871 2.93-5.037 5.831-5.037.142 0 .284.005.423.015l38.556 2.75c2.911.209 5.26 2.562 5.463 5.472l1.003 14.374 30.645 4.966z" fill="#fff" transform="matrix(.30389749 0 0 -.30389749 63.620953 46.532114)"/><path d="m0 0v-47.514-6.035-5.492c.108-.001.216-.005.323-.015l36.196-3.49c1.896-.183 3.382-1.709 3.514-3.609l1.116-15.978 31.574-2.253 2.175 14.747c.282 1.912 1.922 3.329 3.856 3.329h38.188c1.933 0 3.573-1.417 3.855-3.329l2.175-14.747 31.575 2.253 1.115 15.978c.133 1.9 1.618 3.425 3.514 3.609l36.182 3.49c.107.01.214.014.322.015v4.711l.015.005v54.325c5.09692 6.4164715 9.92323 13.494208 13.621 19.449-5.651 9.62-12.575 18.217-19.976 26.182-6.864-3.455-13.531-7.369-19.828-11.534-3.151 3.132-6.7 5.694-10.186 8.372-3.425 2.751-7.285 4.768-10.946 7.118 1.09 8.117 1.629 16.108 1.846 24.448-9.446 4.754-19.519 7.906-29.708 10.17-4.068-6.837-7.788-14.241-11.028-21.479-3.842.642-7.702.88-11.567.926v.006c-.027 0-.052-.006-.075-.006-.024 0-.049.006-.073.006v-.006c-3.872-.046-7.729-.284-11.572-.926-3.238 7.238-6.956 14.642-11.03 21.479-10.184-2.264-20.258-5.416-29.703-10.17.216-8.34.755-16.331 1.848-24.448-3.668-2.35-7.523-4.367-10.949-7.118-3.481-2.678-7.036-5.24-10.188-8.372-6.297 4.165-12.962 8.079-19.828 11.534-7.401-7.965-14.321-16.562-19.974-26.182 4.4426579-6.973692 9.2079702-13.9828876 13.621-19.449z" fill="#478cbf" transform="matrix(.30389749 0 0 -.30389749 4.154146 28.589689)"/><path d="m0 0-1.121-16.063c-.135-1.936-1.675-3.477-3.611-3.616l-38.555-2.751c-.094-.007-.188-.01-.281-.01-1.916 0-3.569 1.406-3.852 3.33l-2.211 14.994h-31.459l-2.211-14.994c-.297-2.018-2.101-3.469-4.133-3.32l-38.555 2.751c-1.936.139-3.476 1.68-3.611 3.616l-1.121 16.063-32.547 3.138c.015-3.498.06-7.33.06-8.093 0-34.374 43.605-50.896 97.781-51.086h.066.067c54.176.19 97.766 16.712 97.766 51.086 0 .777.047 4.593.063 8.093z" fill="#478cbf" transform="matrix(.30389749 0 0 -.30389749 53.752732 49.859089)"/><path d="m0 0c0-12.052-9.765-21.815-21.813-21.815-12.042 0-21.81 9.763-21.81 21.815 0 12.044 9.768 21.802 21.81 21.802 12.048 0 21.813-9.758 21.813-21.802" fill="#fff" transform="matrix(.30389749 0 0 -.30389749 24.925648 35.87311)"/><path d="m0 0c0-7.994-6.479-14.473-14.479-14.473-7.996 0-14.479 6.479-14.479 14.473s6.483 14.479 14.479 14.479c8 0 14.479-6.485 14.479-14.479" fill="#414042" transform="matrix(.30389749 0 0 -.30389749 23.330605 36.266305)"/><path d="m0 0c-3.878 0-7.021 2.858-7.021 6.381v20.081c0 3.52 3.143 6.381 7.021 6.381s7.028-2.861 7.028-6.381v-20.081c0-3.523-3.15-6.381-7.028-6.381" fill="#fff" transform="matrix(.30389749 0 0 -.30389749 33.889273 43.105751)"/><path d="m0 0c0-12.052 9.765-21.815 21.815-21.815 12.041 0 21.808 9.763 21.808 21.815 0 12.044-9.767 21.802-21.808 21.802-12.05 0-21.815-9.758-21.815-21.802" fill="#fff" transform="matrix(.30389749 0 0 -.30389749 42.854008 35.87311)"/><path d="m0 0c0-7.994 6.477-14.473 14.471-14.473 8.002 0 14.479 6.479 14.479 14.473s-6.477 14.479-14.479 14.479c-7.994 0-14.471-6.485-14.471-14.479" fill="#414042" transform="matrix(.30389749 0 0 -.30389749 44.449454 36.266305)"/></svg>
