<svg xmlns="http://www.w3.org/2000/svg" width="187" height="69"><text xml:space="preserve" x="63.792" y="41.931" fill="#fff" stroke-width=".208" font-family="'Inter Alia'" font-size="2.491" font-weight="700" style="-inkscape-font-specification:&quot;Inter Alia, Bold&quot;;font-variant-ligatures:normal;font-variant-caps:normal;font-variant-numeric:normal;font-variant-east-asian:normal;text-align:start"><tspan x="63.792" y="41.931" font-size="30.442" style="-inkscape-font-specification:&quot;Inter Alia, Bold&quot;;font-variant-ligatures:normal;font-variant-caps:normal;font-variant-numeric:normal;font-variant-east-asian:normal">Blazium</tspan></text><text xml:space="preserve" x="64.895" y="59.395" fill="#dedede" stroke-width=".208" font-family="'Inter Alia'" font-size="16.605" font-weight="500" style="-inkscape-font-specification:&quot;Inter Alia, Medium&quot;;font-variant-ligatures:normal;font-variant-caps:normal;font-variant-numeric:normal;font-variant-east-asian:normal;text-align:start"><tspan x="64.895" y="59.395" font-size="13.838" font-weight="400" style="-inkscape-font-specification:&quot;Inter Alia, Normal&quot;;font-variant-ligatures:normal;font-variant-caps:normal;font-variant-numeric:normal;font-variant-east-asian:normal">Game engine</tspan></text><path fill="#d848fb" d="m 33.049345,38.899246 c 4.896505,-0.269395 9.271978,4.319709 8.770319,9.198596 -0.168401,4.517363 -4.366133,8.488762 -8.940881,8.043406 -5.313412,0.195041 -9.42584,-5.506059 -8.148571,-10.510518 0.759137,-3.850815 4.422313,-6.730443 8.319133,-6.731484 z" style="mix-blend-mode:normal"/><path fill="#d848fb" d="m 16.300191,1.0884362 c 1.070265,2.1994704 2.817445,4.1996133 3.493946,6.6543608 1.950873,5.113981 0.53511,10.752342 -2.003461,15.389117 -3.888355,7.635302 -7.662141,16.054396 -6.574301,24.824351 1.098701,7.922426 6.729911,15.192142 14.480484,17.54424 7.780206,2.597103 16.946036,0.01004 22.162364,-6.338745 3.579159,-4.172607 5.663555,-9.953224 4.682782,-15.446976 -1.492187,-6.1084 -6.252268,-11.191851 -12.272593,-13.031606 -3.647947,-1.21889 -7.244268,-3.041574 -9.649132,-6.129239 -0.670566,1.966428 -1.263649,4.451792 -1.991777,6.604005 -0.673556,2.374132 -1.502815,4.655727 -2.166985,7.089297 1.997482,-0.785548 4.341288,-2.141832 6.764187,-1.95868 6.0985,-0.118203 11.461878,5.452742 11.221102,11.531727 -0.04923,5.936347 -5.460278,11.208241 -11.424333,10.970263 -5.941278,0.02668 -11.033421,-5.23192 -11.211162,-11.098984 -0.08144,-4.452234 1.728178,-8.668698 2.948484,-12.886409 2.362489,-7.002083 4.627571,-14.436442 3.714295,-21.90577 C 28.009102,7.6868022 24.411861,2.6332125 19.139307,1.4967284 18.212782,1.2580088 17.261226,1.0697911 16.300191,1.0884362 Z" style="mix-blend-mode:normal"/><path fill="#d848fb" d="m 36.397897,4.9115589 c -2.389772,1.6597498 -4.609762,4.0507407 -5.346584,6.9150151 0.50695,3.041324 0.152296,6.147539 0.106284,9.183606 1.300827,4.589366 6.054099,6.68234 10.194501,8.079039 5.048066,1.741747 9.426024,5.436863 11.573548,10.378914 0.501015,0.976355 2.223534,5.238103 2.034519,1.728977 C 55.131787,35.1438 52.557234,29.058428 47.818456,25.220185 44.319448,22.078531 39.376703,20.379631 37.214686,15.903717 35.34254,12.619584 35.45338,8.5946771 36.565745,5.0793971 l -0.08375,-0.083924 z" style="mix-blend-mode:normal"/></svg>