<svg height="69" viewBox="0 0 187 69" width="187" xmlns="http://www.w3.org/2000/svg"><path fill="#fff" d="M96.116 30.781c-1.847-.029-3.96.356-3.96.356v3.605h2.125l-.024 1.606c0 .595-.59.894-1.767.894-1.178 0-2.218-.499-3.12-1.493-.906-.997-1.356-2.453-1.356-4.372 0-1.923.44-3.34 1.32-4.255.88-.914 2.03-1.372 3.448-1.372a6.32 6.32 0 0 1 1.852.292c.64.194 1.069.376 1.287.546.217.176.422.258.618.258.194 0 .507-.226.94-.685.436-.457.826-1.15 1.169-2.074.342-.929.514-1.64.514-2.145 0-.501-.011-.847-.034-1.029-.48-.526-1.366-.942-2.66-1.252-1.29-.31-2.737-.463-4.338-.463-3.522 0-6.276 1.11-8.265 3.327-1.991 2.219-2.985 5.099-2.985 8.644 0 4.163 1.017 7.318 3.051 9.467 2.037 2.15 4.712 3.223 8.028 3.223 1.783 0 3.366-.154 4.75-.463 1.384-.307 2.304-.623 2.762-.943l.137-10.734c0-.623-1.646-.906-3.492-.938zm17.018-5.01c-1.098 0-2.016.504-2.762 1.509-.742 1.006-1.114 2.417-1.114 4.234 0 1.82.354 3.215 1.064 4.186.709.974 1.64 1.46 2.795 1.46 1.154 0 2.092-.492 2.812-1.478.72-.982 1.082-2.388 1.082-4.218s-.373-3.237-1.116-4.22c-.742-.982-1.663-1.473-2.761-1.473m-.017 18.074c-3.212 0-5.832-1.05-7.856-3.153-2.022-2.104-3.033-5.174-3.033-9.21 0-4.038 1.022-7.096 3.068-9.178 2.047-2.079 4.688-3.12 7.924-3.12 3.235 0 5.849 1.022 7.837 3.072 1.991 2.045 2.985 5.146 2.985 9.294 0 4.15-1.017 7.237-3.053 9.263-2.036 2.021-4.659 3.032-7.872 3.032M133.71 26.01v10.26c0 .478.035.78.104.907.068.126.274.189.616.189 1.26 0 2.213-.47 2.865-1.408.653-.936.976-2.496.976-4.68 0-2.185-.338-3.609-1.01-4.27-.675-.663-1.745-.998-3.208-.998zm-6.585 15.917V21.348c0-.573.142-1.024.43-1.359.285-.33.656-.497 1.114-.497h5.728c3.635 0 6.397.917 8.281 2.747 1.888 1.829 2.832 4.708 2.832 8.642 0 8.415-3.59 12.622-10.772 12.622h-5.864c-1.165 0-1.75-.524-1.75-1.577m31.623-16.155c-1.098 0-2.02.504-2.763 1.509-.742 1.006-1.113 2.417-1.113 4.234 0 1.82.355 3.215 1.063 4.186.708.974 1.64 1.46 2.795 1.46s2.093-.492 2.813-1.478c.72-.982 1.081-2.388 1.081-4.218s-.372-3.237-1.115-4.22c-.743-.982-1.663-1.473-2.761-1.473m-.018 18.074c-3.213 0-5.83-1.05-7.854-3.153-2.024-2.104-3.036-5.174-3.036-9.21 0-4.038 1.023-7.096 3.069-9.178 2.048-2.079 4.688-3.12 7.925-3.12 3.236 0 5.847 1.022 7.837 3.072 1.99 2.045 2.984 5.146 2.984 9.294 0 4.15-1.017 7.237-3.053 9.263-2.035 2.021-4.66 3.032-7.872 3.032m23.773-.842c0 .454-1.13.685-3.395.685-2.263 0-3.397-.23-3.397-.685v-17.22h-4.115c-.39 0-.663-.525-.823-1.58a11.366 11.366 0 0 1-.101-1.542c0-.524.032-1.04.1-1.543.16-1.05.435-1.58.824-1.58h14.92c.39 0 .663.529.825 1.58a11.642 11.642 0 0 1 0 3.086c-.162 1.054-.435 1.579-.824 1.579h-4.014z"/><path fill="#e0e0e0" d="M88.866 57.973c-.19.39-.538.746-1.048 1.069-.51.324-1.156.486-1.942.486-1.036 0-1.87-.327-2.503-.987-.63-.655-.947-1.6-.947-2.833v-3.073c0-1.206.298-2.13.895-2.776.596-.64 1.395-.966 2.392-.966.974 0 1.73.257 2.265.764.533.51.813 1.22.837 2.128l-.013.04h-.796c-.028-.695-.23-1.232-.61-1.612-.378-.376-.94-.566-1.683-.566-.751 0-1.347.254-1.782.765-.435.508-.651 1.246-.651 2.215v3.091c0 1.005.234 1.771.702 2.3.468.523 1.098.785 1.894.785.581 0 1.049-.103 1.398-.313.351-.208.595-.462.732-.763v-2.692h-2.144v-.748h3.004zm3.95.789c.472 0 .892-.134 1.26-.406.367-.274.625-.62.777-1.04v-1.661H93.49c-.58 0-1.045.164-1.393.493a1.604 1.604 0 0 0-.522 1.22c0 .41.108.746.327 1.006.218.26.523.388.915.388m2.165.62a20.049 20.049 0 0 1-.097-.652 4.392 4.392 0 0 1-.03-.518 3.003 3.003 0 0 1-.906.945c-.37.25-.783.373-1.238.373-.636 0-1.124-.197-1.47-.591-.344-.396-.518-.93-.518-1.603 0-.712.25-1.283.751-1.707.501-.424 1.182-.636 2.038-.636h1.342v-.943c0-.543-.138-.97-.41-1.28-.278-.304-.66-.459-1.152-.459-.458 0-.836.146-1.133.441a1.457 1.457 0 0 0-.442 1.078l-.797-.007-.014-.042c-.022-.578.197-1.09.659-1.544.46-.452 1.051-.677 1.77-.677.71 0 1.282.216 1.719.646.433.435.651 1.055.651 1.86v3.767c0 .274.013.54.037.795a5.02 5.02 0 0 0 .127.753zm3.415-7.698.072 1.191a2.46 2.46 0 0 1 .808-.989c.336-.23.732-.345 1.186-.345.464 0 .855.135 1.17.408.316.272.55.684.697 1.237.19-.51.457-.914.805-1.207.348-.292.77-.438 1.259-.438.673 0 1.196.272 1.566.818.372.546.557 1.385.557 2.518v4.485h-.857v-4.5c0-.942-.13-1.605-.384-1.987-.255-.381-.62-.574-1.093-.574-.497 0-.885.21-1.165.637-.278.427-.449.96-.511 1.605v4.82h-.853v-4.497c0-.92-.13-1.578-.393-1.97a1.246 1.246 0 0 0-1.096-.59c-.449 0-.811.138-1.083.409-.273.272-.467.645-.585 1.119v5.528h-.853v-7.679zm12.414.61c-.534 0-.973.243-1.317.73s-.522 1.089-.536 1.805h3.542v-.328c0-.634-.148-1.162-.446-1.58-.3-.42-.713-.627-1.243-.627m.12 7.218c-.827 0-1.504-.311-2.03-.933-.525-.621-.787-1.415-.787-2.382V54.92c0-.969.263-1.777.79-2.42.528-.64 1.163-.959 1.907-.959.804 0 1.428.286 1.872.858.447.573.67 1.343.67 2.31v.842h-4.395v.639c0 .743.178 1.362.532 1.856.355.495.837.74 1.442.74.42 0 .785-.073 1.09-.22a2.246 2.246 0 0 0 .783-.632l.349.604a2.51 2.51 0 0 1-.9.708c-.365.175-.807.265-1.322.265m9.375-7.218c-.536 0-.976.243-1.32.73-.341.487-.52 1.089-.535 1.805h3.543V54.5c0-.634-.148-1.162-.447-1.58-.298-.42-.711-.627-1.241-.627m.12 7.218c-.829 0-1.505-.311-2.03-.933-.526-.621-.79-1.415-.79-2.382V54.92c0-.969.265-1.777.79-2.42.53-.64 1.166-.959 1.91-.959.803 0 1.428.286 1.872.858.445.573.668 1.343.668 2.31v.842h-4.395v.639c0 .743.179 1.362.535 1.856.353.495.833.74 1.44.74.42 0 .785-.073 1.088-.22a2.268 2.268 0 0 0 .787-.632l.347.604a2.51 2.51 0 0 1-.9.708c-.365.175-.807.265-1.322.265m4.684-7.828.07 1.269c.204-.45.475-.8.814-1.044a1.972 1.972 0 0 1 1.19-.368c.685 0 1.211.254 1.576.763.369.51.551 1.3.551 2.374v4.684h-.858v-4.677c0-.877-.128-1.49-.384-1.845-.254-.356-.627-.533-1.113-.533-.436 0-.802.142-1.095.43-.294.285-.514.665-.66 1.144v5.481h-.852v-7.678zm6.72 4.523c0 .78.148 1.4.447 1.86.296.466.747.696 1.348.696.412 0 .759-.11 1.044-.335.283-.225.507-.538.673-.935V53.69c-.16-.41-.378-.74-.655-.994-.276-.25-.626-.377-1.047-.377-.6 0-1.054.262-1.355.786-.304.526-.455 1.211-.455 2.053zm-.86-1.05c0-1.087.22-1.961.66-2.62.439-.656 1.048-.984 1.825-.984.43 0 .81.105 1.132.316.324.207.592.51.807.895l.083-1.068h.723v7.686c0 .983-.228 1.746-.686 2.286-.46.537-1.111.81-1.953.81-.303 0-.628-.048-.976-.14a3.95 3.95 0 0 1-.927-.365l.236-.748a2.85 2.85 0 0 0 .774.347 3.066 3.066 0 0 0 .879.124c.61 0 1.063-.196 1.355-.587.293-.396.44-.969.44-1.727v-.93a2.325 2.325 0 0 1-.802.795 2.15 2.15 0 0 1-1.1.276c-.771 0-1.376-.302-1.813-.906-.438-.603-.658-1.407-.658-2.41zm8.12 4.226h-.862v-7.7h.862zm0-9.892h-.862v-1.213h.862zm2.782 2.193.07 1.269c.205-.45.475-.8.813-1.044a1.982 1.982 0 0 1 1.19-.368c.686 0 1.214.254 1.58.763.368.51.549 1.3.549 2.374v4.684h-.858v-4.677c0-.877-.129-1.49-.384-1.845-.256-.356-.626-.533-1.114-.533-.436 0-.8.142-1.093.43-.294.285-.514.665-.66 1.144v5.481h-.853v-7.678zm8.499.61c-.536 0-.975.243-1.317.73-.343.487-.522 1.089-.537 1.805h3.543V54.5c0-.634-.148-1.162-.446-1.58-.298-.42-.712-.627-1.243-.627m.122 7.218c-.83 0-1.506-.311-2.03-.933-.526-.621-.788-1.415-.788-2.382V54.92c0-.969.263-1.777.79-2.42.528-.64 1.163-.959 1.906-.959.804 0 1.43.286 1.875.858.444.573.667 1.343.667 2.31v.842h-4.396v.639c0 .743.18 1.362.534 1.856.354.495.835.74 1.442.74.42 0 .783-.073 1.087-.22a2.254 2.254 0 0 0 .787-.632l.348.604a2.53 2.53 0 0 1-.9.708c-.365.175-.807.265-1.322.265"/><g fill="#fefefe"><path d="M4.901 46.266v2.4q29.597 25.743 59.194 0v-2.4z"/><path fill="#478cbf" d="m4.901 46.266 11.054 1.018q.872.073 1.09 1.018l.291 4.872 9.6.728.581-4.436q.146-.8 1.091-1.091h11.78q.946.29 1.091 1.09l.582 4.437 9.6-.728.29-4.872q.218-.945 1.091-1.018l11.053-1.018V28.377q2.182-2.836 4.073-5.89-2.545-4.29-6.036-7.854-3.127 1.454-5.963 3.418-2.909-2.69-6.4-4.654.51-3.71.582-7.418-4.29-2.036-8.944-3.054-1.891 3.127-3.345 6.472-3.564-.509-7.127 0-1.454-3.345-3.345-6.472-4.654 1.018-8.945 3.054.073 3.709.582 7.418-3.49 1.963-6.4 4.654-2.835-1.964-5.962-3.418-3.49 3.563-6.036 7.854 1.89 3.054 4.072 5.89zm0 2.4v2.836c0 20.07 59.122 20.07 59.122 0v-2.836l-9.745.872-.363 5.018q-.146.727-1.018.946l-11.781.8q-.873 0-1.164-.8l-.727-4.727h-9.453l-.728 4.727q-.29.8-1.163.8l-11.78-.8q-.873-.219-1.019-.946l-.363-5.018z"/><path d="M32.39 40.958c.218 2.472 4 2.472 4.217 0v-6.254c-.218-2.473-4-2.473-4.218 0z"/><circle cx="49.988" cy="35.576" r="6.545"/><circle cx="18.988" cy="35.576" r="6.545"/></g><g fill="#414042"><circle cx="19.591" cy="36.013" r="4.363"/><circle cx="49.406" cy="36.013" r="4.363"/></g></svg>
