<svg xmlns="http://www.w3.org/2000/svg" width="187" height="69"><path fill="#fff" d="m 73.905884,35.152898 q 0,1.60534 -0.654027,2.868802 -0.639164,1.263462 -1.768847,2.09586 -1.308055,0.981041 -2.883666,1.397241 Q 67.038597,41.931 64.630587,41.931 H 54.96882 V 19.79812 h 8.591541 q 2.675566,0 3.909299,0.178371 1.248598,0.178371 2.467467,0.787806 1.263462,0.639163 1.872897,1.724254 0.624298,1.070226 0.624298,2.452602 0,1.60534 -0.847262,2.839074 -0.847263,1.218869 -2.393146,1.902625 v 0.118914 q 2.170182,0.431063 3.433644,1.783711 1.278326,1.352647 1.278326,3.567421 z m -7.313215,-9.096925 q 0,-0.549978 -0.282421,-1.099955 -0.267556,-0.549978 -0.966176,-0.817535 -0.624299,-0.237828 -1.560748,-0.252692 -0.921583,-0.02973 -2.601245,-0.02973 h -0.535113 v 4.682241 h 0.891856 q 1.352647,0 2.303959,-0.04459 0.951313,-0.04459 1.501291,-0.297285 0.772941,-0.341878 1.010769,-0.876991 0.237828,-0.549978 0.237828,-1.263462 z m 1.39724,9.00774 q 0,-1.055363 -0.416199,-1.620204 -0.401335,-0.579706 -1.382376,-0.862127 -0.668891,-0.193236 -1.843168,-0.2081 -1.174276,-0.01486 -2.452602,-0.01486 h -1.248598 v 5.514639 h 0.416199 q 2.40801,0 3.448508,-0.01486 1.040498,-0.01486 1.917489,-0.386471 0.891856,-0.371606 1.218869,-0.981041 0.341878,-0.624298 0.341878,-1.426968 z m 15.221,6.867287 H 77.859777 V 18.802215 h 5.351132 z m 15.161542,-4.355228 v -3.478236 q -1.08509,0.08919 -2.34855,0.252692 -1.26346,0.148643 -1.91749,0.356743 -0.80267,0.252692 -1.23373,0.743212 -0.4162,0.475657 -0.4162,1.263462 0,0.520249 0.0892,0.847263 0.0892,0.327014 0.44593,0.624299 0.34188,0.297285 0.81754,0.445928 0.47565,0.133778 1.48642,0.133778 0.80267,0 1.62021,-0.327014 0.83239,-0.327013 1.45669,-0.862127 z m 0,2.586381 q -0.43106,0.327014 -1.07022,0.787806 -0.63917,0.460792 -1.20401,0.728348 -0.7878,0.356743 -1.63507,0.520249 -0.84726,0.178371 -1.85803,0.178371 -2.37828,0 -3.98362,-1.471561 -1.60534,-1.471562 -1.60534,-3.760657 0,-1.828304 0.817534,-2.987716 0.817536,-1.159412 2.318826,-1.828304 1.48642,-0.668891 3.68633,-0.951312 2.19991,-0.282421 4.56333,-0.416199 v -0.08919 q 0,-1.382376 -1.12968,-1.902625 -1.12969,-0.535113 -3.3296,-0.535113 -1.32292,0 -2.82421,0.475656 -1.50129,0.460792 -2.15531,0.713485 h -0.49052 v -4.028214 q 0.84726,-0.222964 2.74988,-0.520249 1.91749,-0.31215 3.83498,-0.31215 4.56333,0 6.584869,1.412105 2.0364,1.39724 2.0364,4.39982 V 41.931 H 98.372451 Z M 123.00253,41.931 h -15.68179 v -3.433644 l 8.79964,-9.349618 h -8.4429 v -3.909299 h 15.16154 v 3.374186 l -8.66586,9.334754 h 8.82937 z m 9.11179,0 h -5.35113 V 25.238439 h 5.35113 z m 0.14864,-19.070843 h -5.64842 v -4.057942 h 5.64842 z M 153.80127,41.931 h -5.35114 v -1.843168 q -1.48642,1.129683 -2.72016,1.724254 -1.23373,0.579706 -2.94312,0.579706 -2.76475,0 -4.26604,-1.590476 -1.48643,-1.590475 -1.48643,-4.697105 V 25.238439 h 5.38086 v 8.279391 q 0,1.263462 0.0743,2.110725 0.0892,0.832398 0.38647,1.382376 0.28242,0.549977 0.84726,0.802669 0.57971,0.252693 1.60534,0.252693 0.68375,0 1.51615,-0.252693 0.8324,-0.252692 1.60534,-0.743212 V 25.238439 h 5.35114 z m 21.3748,-11.831949 V 41.931 h -5.38086 v -8.338849 q 0,-1.218869 -0.0594,-2.066132 -0.0595,-0.862126 -0.32702,-1.39724 -0.26755,-0.535113 -0.81753,-0.772941 -0.53511,-0.252692 -1.51616,-0.252692 -0.7878,0 -1.53101,0.327013 -0.74322,0.31215 -1.33779,0.668892 V 41.931 h -5.35113 V 25.238439 h 5.35113 v 1.843167 q 1.38238,-1.08509 2.64584,-1.694525 1.26346,-0.609434 2.79448,-0.609434 1.64993,0 2.9134,0.743212 1.26346,0.728349 1.97694,2.155318 1.60534,-1.352648 3.1215,-2.125589 1.51615,-0.772941 2.97285,-0.772941 2.70529,0 4.10253,1.620204 1.41211,1.620204 1.41211,4.667376 V 41.931 h -5.38086 v -8.338849 q 0,-1.233733 -0.0595,-2.080996 -0.0446,-0.847262 -0.31215,-1.382376 -0.25269,-0.535113 -0.80267,-0.772941 -0.54998,-0.252692 -1.54588,-0.252692 -0.6689,0 -1.30806,0.237828 -0.63916,0.222963 -1.56075,0.758077 z" aria-label="Blazium" font-family="Inter Alia" font-size="30.442" font-weight="700" style="-inkscape-font-specification:&quot;Inter Alia, Bold&quot;"/><path fill="#dedede" d="m 62.990965,58.651748 q -0.824334,0.378383 -1.804075,0.66217 -0.972984,0.277031 -1.885157,0.277031 -1.17569,0 -2.155431,-0.324328 -0.979741,-0.324329 -1.668938,-0.972985 -0.695955,-0.655413 -1.074337,-1.635154 -0.378383,-0.986498 -0.378383,-2.304081 0,-2.412191 1.405422,-3.804099 1.412178,-1.398665 3.871667,-1.398665 0.858118,0 1.75002,0.209462 0.89866,0.202705 1.932455,0.695954 v 1.587856 H 62.862585 Q 62.653123,51.482745 62.25447,51.219229 61.855817,50.955712 61.470677,50.780034 61.004455,50.570573 60.409854,50.435436 59.822009,50.293542 59.072,50.293542 q -1.689209,0 -2.675707,1.087851 -0.979741,1.081094 -0.979741,2.932467 0,1.952725 1.027039,3.040576 1.027039,1.081094 2.79733,1.081094 0.648657,0 1.290556,-0.12838 0.648656,-0.12838 1.135148,-0.331085 V 55.50982 h -2.695977 v -1.17569 h 4.020317 z M 71.092412,59.395 h -1.263529 v -0.804063 q -0.168921,0.114866 -0.459465,0.324328 -0.283787,0.202705 -0.55406,0.324328 -0.317571,0.155407 -0.729738,0.25676 -0.412167,0.108109 -0.966228,0.108109 -1.020282,0 -1.72975,-0.675683 -0.709468,-0.675684 -0.709468,-1.722993 0,-0.858119 0.364869,-1.385152 0.371626,-0.53379 1.054067,-0.837848 0.689197,-0.304057 1.655425,-0.412167 0.966227,-0.108109 2.074348,-0.162164 v -0.195948 q 0,-0.432437 -0.155407,-0.716224 -0.14865,-0.283788 -0.432438,-0.445952 -0.270273,-0.155407 -0.648656,-0.209462 -0.378383,-0.05405 -0.79055,-0.05405 -0.500005,0 -1.114878,0.135136 -0.614872,0.12838 -1.270285,0.378383 h -0.06757 v -1.290555 q 0.371626,-0.101353 1.074337,-0.222976 0.702711,-0.121623 1.385151,-0.121623 0.797307,0 1.385152,0.135137 0.594601,0.12838 1.027039,0.445951 0.42568,0.310814 0.648656,0.804063 0.222976,0.493249 0.222976,1.222988 z m -1.263529,-1.858129 v -2.101376 q -0.581088,0.03378 -1.371637,0.101352 -0.783793,0.06757 -1.243258,0.195948 -0.547304,0.155408 -0.885146,0.486492 -0.337842,0.324329 -0.337842,0.89866 0,0.648656 0.391897,0.979741 0.391896,0.324328 1.19596,0.324328 0.668927,0 1.222987,-0.25676 0.554061,-0.263516 1.027039,-0.628385 z M 84.552029,59.395 h -1.270285 v -4.297347 q 0,-0.486492 -0.0473,-0.939201 -0.04054,-0.452708 -0.182435,-0.722981 -0.155407,-0.290544 -0.445951,-0.439194 -0.290544,-0.148651 -0.837847,-0.148651 -0.533791,0 -1.067581,0.270274 -0.53379,0.263516 -1.06758,0.675683 0.02027,0.155408 0.03379,0.364869 0.01351,0.202706 0.01351,0.405411 V 59.395 h -1.270285 v -4.297347 q 0,-0.500006 -0.0473,-0.945957 -0.04054,-0.452708 -0.182434,-0.722982 -0.155408,-0.290544 -0.445952,-0.432437 -0.290544,-0.148651 -0.837847,-0.148651 -0.520277,0 -1.04731,0.25676 -0.520276,0.25676 -1.040553,0.655413 V 59.395 h -1.270285 v -7.547385 h 1.270285 v 0.837847 q 0.594602,-0.493249 1.182447,-0.770279 0.594601,-0.27703 1.263528,-0.27703 0.770279,0 1.304069,0.324328 0.540547,0.324328 0.804064,0.898659 0.770279,-0.648656 1.405422,-0.932443 0.635142,-0.290544 1.358124,-0.290544 1.243258,0 1.831102,0.756765 0.594602,0.750009 0.594602,2.101376 z m 8.763612,-3.641934 h -5.560872 q 0,0.695954 0.209462,1.21623 0.209462,0.51352 0.57433,0.844605 0.35136,0.324328 0.83109,0.486492 0.48649,0.162164 1.06758,0.162164 0.77028,0 1.54732,-0.304058 0.78379,-0.310814 1.11488,-0.608115 h 0.0676 v 1.385152 q -0.6419,0.270273 -1.31082,0.452708 -0.66893,0.182434 -1.40542,0.182434 -1.8784,0 -2.932471,-1.013525 -1.054066,-1.020282 -1.054066,-2.891926 0,-1.851373 1.006768,-2.939224 1.013529,-1.08785 2.662189,-1.08785 1.52705,0 2.35138,0.891902 0.83109,0.891902 0.83109,2.533814 z m -1.2365,-0.972985 q -0.007,-1.000011 -0.50676,-1.547315 -0.49325,-0.547304 -1.50677,-0.547304 -1.02029,0 -1.6284,0.601359 -0.60136,0.601358 -0.682442,1.49326 z m 14.344769,0.972985 h -5.56088 q 0,0.695954 0.20946,1.21623 0.20946,0.51352 0.57433,0.844605 0.35136,0.324328 0.83109,0.486492 0.4865,0.162164 1.06758,0.162164 0.77028,0 1.54732,-0.304058 0.78379,-0.310814 1.11488,-0.608115 h 0.0676 v 1.385152 q -0.6419,0.270273 -1.31083,0.452708 -0.66893,0.182434 -1.40542,0.182434 -1.8784,0 -2.93247,-1.013525 -1.054069,-1.020282 -1.054069,-2.891926 0,-1.851373 1.006769,-2.939224 1.01353,-1.08785 2.6622,-1.08785 1.52704,0 2.35137,0.891902 0.8311,0.891902 0.8311,2.533814 z m -1.23651,-0.972985 q -0.007,-1.000011 -0.50676,-1.547315 -0.49325,-0.547304 -1.50677,-0.547304 -1.02028,0 -1.6284,0.601359 -0.60136,0.601358 -0.68244,1.49326 z m 9.47309,4.614919 h -1.27028 v -4.297347 q 0,-0.520277 -0.0608,-0.972985 -0.0608,-0.459465 -0.22298,-0.716224 -0.16892,-0.283787 -0.48649,-0.418924 -0.31757,-0.141894 -0.82434,-0.141894 -0.52027,0 -1.08785,0.25676 -0.56757,0.25676 -1.08785,0.655413 V 59.395 h -1.27029 v -7.547385 h 1.27028 v 0.837847 q 0.5946,-0.493249 1.22975,-0.770279 0.63514,-0.27703 1.30407,-0.27703 1.22298,0 1.86488,0.736495 0.6419,0.736495 0.6419,2.121646 z m 8.56767,-0.858118 q 0,1.918942 -0.87163,2.817601 -0.87163,0.898659 -2.68247,0.898659 -0.60135,0 -1.17569,-0.08784 -0.56757,-0.08108 -1.12163,-0.236489 V 60.6315 h 0.0676 q 0.31081,0.121624 0.9865,0.297301 0.67568,0.182435 1.35136,0.182435 0.64866,0 1.07434,-0.155407 0.42568,-0.155408 0.66217,-0.432438 0.23649,-0.263517 0.33784,-0.635143 0.10135,-0.371625 0.10135,-0.83109 V 58.36796 q -0.57433,0.459465 -1.10136,0.689198 -0.52028,0.222975 -1.3311,0.222975 -1.35136,0 -2.14867,-0.972984 -0.79055,-0.979741 -0.79055,-2.756789 0,-0.972985 0.27027,-1.675696 0.27703,-0.709467 0.75001,-1.222987 0.4392,-0.479735 1.06758,-0.743252 0.62839,-0.270273 1.25002,-0.270273 0.65541,0 1.0946,0.135136 0.44596,0.12838 0.9392,0.398654 l 0.0811,-0.324328 h 1.1892 z m -1.27029,-1.21623 v -4.114913 q -0.50676,-0.229733 -0.94595,-0.324329 -0.43244,-0.101352 -0.86488,-0.101352 -1.04731,0 -1.64867,0.702711 -0.60135,0.702711 -0.60135,2.040564 0,1.270286 0.44595,1.925699 0.44595,0.655413 1.47974,0.655413 0.55406,0 1.10813,-0.209462 0.56081,-0.216219 1.02703,-0.574331 z m 5.1352,-6.736566 h -1.43245 v -1.317583 h 1.43245 z m -0.0811,8.810914 h -1.27029 v -7.547385 h 1.27029 z m 8.82442,0 h -1.27028 v -4.297347 q 0,-0.520277 -0.0608,-0.972985 -0.0608,-0.459465 -0.22298,-0.716224 -0.16892,-0.283787 -0.48649,-0.418924 -0.31757,-0.141894 -0.82433,-0.141894 -0.52028,0 -1.08785,0.25676 -0.56758,0.25676 -1.08786,0.655413 V 59.395 h -1.27028 v -7.547385 h 1.27028 v 0.837847 q 0.59461,-0.493249 1.22975,-0.770279 0.63514,-0.27703 1.30407,-0.27703 1.22299,0 1.86489,0.736495 0.64189,0.736495 0.64189,2.121646 z m 8.76362,-3.641934 h -5.56088 q 0,0.695954 0.20947,1.21623 0.20946,0.51352 0.57433,0.844605 0.35135,0.324328 0.83109,0.486492 0.48649,0.162164 1.06758,0.162164 0.77028,0 1.54731,-0.304058 0.7838,-0.310814 1.11488,-0.608115 h 0.0676 v 1.385152 q -0.6419,0.270273 -1.31083,0.452708 -0.66892,0.182434 -1.40542,0.182434 -1.8784,0 -2.93247,-1.013525 -1.05406,-1.020282 -1.05406,-2.891926 0,-1.851373 1.00677,-2.939224 1.01352,-1.08785 2.66219,-1.08785 1.52705,0 2.35138,0.891902 0.83109,0.891902 0.83109,2.533814 z m -1.2365,-0.972985 q -0.007,-1.000011 -0.50676,-1.547315 -0.49325,-0.547304 -1.50678,-0.547304 -1.02028,0 -1.6284,0.601359 -0.60135,0.601358 -0.68244,1.49326 z" aria-label="Game engine" font-family="Inter Alia" font-size="13.838" style="-inkscape-font-specification:&quot;Inter Alia, Normal&quot;"/><path fill="#d848fb" d="m 23.76332,38.899246 c 4.896505,-0.269395 9.271978,4.319709 8.770319,9.198596 -0.168401,4.517363 -4.366133,8.488762 -8.940881,8.043406 -5.313412,0.195041 -9.42584,-5.506059 -8.148571,-10.510518 0.759137,-3.850815 4.422313,-6.730443 8.319133,-6.731484 z" style="mix-blend-mode:normal"/><path fill="#d848fb" d="m 7.0141659,1.0884362 c 1.070265,2.1994704 2.817445,4.1996133 3.4939461,6.6543608 1.950873,5.113981 0.53511,10.752342 -2.0034611,15.389117 -3.888355,7.635302 -7.662141,16.054396 -6.574301,24.824351 1.098701,7.922426 6.729911,15.192142 14.4804841,17.54424 7.780206,2.597103 16.946036,0.01004 22.162364,-6.338745 3.579159,-4.172607 5.663555,-9.953224 4.682782,-15.446976 -1.492187,-6.1084 -6.252268,-11.191851 -12.272593,-13.031606 -3.647947,-1.21889 -7.244268,-3.041574 -9.649132,-6.129239 -0.670566,1.966428 -1.263649,4.451792 -1.991777,6.604005 -0.673556,2.374132 -1.502815,4.655727 -2.166985,7.089297 1.997482,-0.785548 4.341288,-2.141832 6.764187,-1.95868 6.0985,-0.118203 11.461878,5.452742 11.221102,11.531727 -0.04923,5.936347 -5.460278,11.208241 -11.424333,10.970263 -5.941278,0.02668 -11.033421,-5.23192 -11.211162,-11.098984 -0.08144,-4.452234 1.728178,-8.668698 2.948484,-12.886409 2.362489,-7.002083 4.627571,-14.436442 3.714295,-21.90577 C 18.723077,7.6868022 15.125836,2.6332125 9.8532819,1.4967284 8.9267569,1.2580088 7.9752009,1.0697911 7.0141659,1.0884362 Z" style="mix-blend-mode:normal"/><path fill="#d848fb" d="M 27.111872,4.9115589 C 24.7221,6.5713087 22.50211,8.9622996 21.765288,11.826574 c 0.50695,3.041324 0.152296,6.147539 0.106284,9.183606 1.300827,4.589366 6.054099,6.68234 10.194501,8.079039 5.048066,1.741747 9.426024,5.436863 11.573548,10.378914 0.501015,0.976355 2.223534,5.238103 2.034519,1.728977 C 45.845762,35.1438 43.271209,29.058428 38.532431,25.220185 35.033423,22.078531 30.090678,20.379631 27.928661,15.903717 26.056515,12.619584 26.167355,8.5946771 27.27972,5.0793971 l -0.08375,-0.083924 z" style="mix-blend-mode:normal"/></svg>