<svg xmlns="http://www.w3.org/2000/svg" xmlns:xlink="http://www.w3.org/1999/xlink" xml:space="preserve" width="187" height="69"><defs><linearGradient id="a"><stop offset=".045" stop-color="#7f24ce"/><stop offset="1" stop-color="#f87cfe"/></linearGradient><linearGradient xlink:href="#a" id="d" x1="269.585" x2="488.27" y1="847.204" y2="393.079" gradientTransform="translate(-13.356 -2.725)scale(.07162)" gradientUnits="userSpaceOnUse"/><linearGradient xlink:href="#a" id="c" x1="496.519" x2="635.831" y1="813.477" y2="589.778" gradientTransform="translate(-13.356 -2.725)scale(.07162)" gradientUnits="userSpaceOnUse"/><linearGradient xlink:href="#a" id="b" x1="635.831" x2="721.822" y1="589.778" y2="368.408" gradientTransform="translate(-13.356 -2.725)scale(.07162)" gradientUnits="userSpaceOnUse"/></defs><path fill="url(#b)" d="m 27.197127,4.3982854 c -2.402147,1.668336 -4.599709,4.2246128 -5.373883,6.9508476 -0.774175,2.726234 -0.941783,5.490137 0.106785,9.231072 1.048636,3.740935 6.085369,6.716956 10.247017,8.120852 5.074262,1.750516 9.474708,5.464772 11.633426,10.432388 0.503583,0.981593 2.235161,5.265163 2.045021,1.737936 C 46.028285,34.786841 43.440214,28.669817 38.676838,24.811867 35.159841,21.653931 30.191534,19.946337 28.018301,15.447124 26.136464,12.146116 26.247949,8.1003768 27.366048,4.566999 l -0.08425,-0.084322 z" paint-order="stroke fill markers" style="mix-blend-mode:normal"/><path fill="url(#c)" d="m 23.831357,38.561643 c 4.921722,-0.270798 9.319818,4.341973 8.815681,9.24614 -0.169335,4.540614 -4.388903,8.53258 -8.98716,8.084981 -5.340914,0.195945 -9.474639,-5.534579 -8.19066,-10.564815 0.763047,-3.870667 4.445164,-6.765131 8.361931,-6.766306 z" paint-order="stroke fill markers" style="mix-blend-mode:normal"/><path fill="url(#d)" d="M 7.7619157,2.5787181 C 8.8591863,4.0622256 9.9352734,5.4290721 10.507615,7.2441606 12.468453,12.384499 11.045688,18.052128 8.4939038,22.712728 4.5853612,30.387571 0.79210507,38.850343 1.8855294,47.665472 2.9900123,55.628739 8.6502455,62.93602 16.44079,65.30036 c 7.820403,2.610533 17.033574,0.01023 22.276965,-6.371581 3.597587,-4.193994 5.692856,-10.004625 4.707046,-15.526625 -1.499968,-6.14011 -6.284563,-11.249829 -12.336134,-13.099113 -3.666635,-1.22516 -7.811694,-3.475043 -10.429692,-6.30281 -0.330654,2.00445 -0.779566,4.484699 -1.476952,6.780129 -0.697387,2.295431 -1.888818,5.681383 -2.37692,8.104956 2.123331,-2.225968 4.761096,-2.966345 7.203469,-2.947822 6.131055,0.04672 11.521181,5.480807 11.279134,11.591265 -0.04956,5.967111 -5.488478,11.26621 -11.483374,11.027067 -5.971949,0.02695 -11.090308,-5.259012 -11.269113,-11.156315 -0.08176,-4.475437 1.737176,-8.713665 2.963719,-12.953138 2.374708,-7.038141 3.393279,-12.803224 3.353675,-16.803554 C 18.813078,13.64249 17.809909,9.6503479 15.082304,6.6914353 12.455522,3.8418968 8.727889,2.5599875 7.7619157,2.5787181" paint-order="stroke fill markers" style="mix-blend-mode:normal"/><path fill="#fefefe" d="M434.022 203.716q0 39.284-49.857 39.284H331.3V110.291h47.67q24.518 0 38.372 9.024 13.945 9.023 13.945 27.617 0 9.024-4.192 16.771-4.193 7.656-14.493 11.576 11.758 3.007 16.589 11.21 4.83 8.112 4.83 17.227zm-70.73-68.724v30.625h15.495q11.12 0 15.769-3.737 4.74-3.737 4.74-11.12 0-15.768-20.326-15.768zm38.92 68.268q0-7.656-3.828-12.122-3.828-4.557-12.943-4.557h-22.149v31.81h20.873q9.753 0 13.854-4.375 4.193-4.467 4.193-10.756M478.785 103v140h-30.807V103Zm70.375 140q-1.732-3.555-2.826-8.841-3.554 4.466-9.205 7.565-5.56 3.099-14.492 3.099-13.672 0-23.607-8.203-9.844-8.295-9.844-21.42 0-15.22 11.21-23.789 11.212-8.659 35.001-8.659h9.48v-5.195q0-6.198-2.735-9.844-2.643-3.737-9.024-3.737-10.937 0-10.937 10.756h-30.716q0-13.763 11.757-22.97 11.758-9.205 31.537-9.205 17.591 0 29.258 8.841 11.758 8.75 11.758 26.341v40.378q0 9.662 1.093 14.675 1.094 4.922 3.1 8.659V243Zm-19.232-20.052q5.651 0 9.48-2.37 3.828-2.46 5.468-5.469v-15.95h-9.661q-8.66 0-12.032 4.466-3.28 4.375-3.28 9.935 0 4.193 2.825 6.836 2.916 2.552 7.2 2.552m58.162-54.87V144.38h80.937v16.589l-43.84 58.333h44.752V243h-83.672v-17.135l43.659-57.787zm92.706-49.128q0-6.562 4.74-10.755 4.739-4.193 12.304-4.193t12.305 4.193 4.74 10.755q0 6.563-4.74 10.756-4.74 4.192-12.305 4.192t-12.305-4.192-4.74-10.756zm32.63 25.43V243h-30.807v-98.62zM787.903 243l-.912-10.573q-9.661 12.396-26.25 12.396-14.674 0-23.88-8.568-9.115-8.568-9.115-28.073V144.38h30.717v63.985q0 12.76 12.395 12.76 10.756 0 15.04-7.747V144.38h30.807V243Zm86.143-76.745q-8.659 0-13.398 8.112V243H829.93v-98.62h28.803l1.093 11.576q10.209-13.399 28.073-13.399 8.66 0 15.13 3.555 6.563 3.554 10.118 11.302 4.648-6.927 11.849-10.846 7.291-4.01 17.044-4.01 13.49 0 22.148 8.476 8.66 8.476 8.66 29.896V243H942.04v-62.07q0-9.206-3.19-11.94-3.1-2.735-8.568-2.735-9.206 0-13.672 8.112.091 1.367.091 2.826V243h-30.716v-61.888q0-9.388-3.19-12.123-3.099-2.734-8.75-2.734z" aria-label="Blazium" font-family="Roboto" font-size="186.667" font-weight="900" letter-spacing="-4" paint-order="stroke fill markers" style="line-height:1.25;-inkscape-font-specification:&quot;Roboto Heavy&quot;" transform="translate(-7.627 -5.47)scale(.19277)"/><path fill="#fefefe" d="M371.952 296.056q-2.165-4.555-6.272-7.019-4.106-2.538-9.557-2.538-5.45 0-9.856 2.538-4.33 2.464-6.87 7.168-2.463 4.63-2.463 10.752t2.464 10.752q2.538 4.63 6.869 7.168 4.405 2.464 9.856 2.464 7.616 0 12.544-4.554t5.75-12.32h-20.758v-5.526h28v5.227q-.597 6.421-4.032 11.797-3.435 5.302-9.035 8.438-5.6 3.061-12.469 3.061-7.243 0-13.216-3.36-5.973-3.435-9.483-9.483-3.434-6.048-3.434-13.664t3.434-13.664q3.51-6.122 9.483-9.482 5.973-3.435 13.216-3.435 8.288 0 14.635 4.107 6.421 4.106 9.333 11.573zm16.128 16.352q0-6.272 2.539-10.976 2.539-4.779 6.944-7.392 4.48-2.613 9.93-2.613 5.377 0 9.334 2.314t5.899 5.824V292.1h6.869v40.917h-6.87V325.4q-2.015 3.584-6.047 5.973-3.958 2.315-9.259 2.315-5.45 0-9.856-2.688t-6.944-7.541-2.539-11.051m34.646.075q0-4.63-1.867-8.064t-5.077-5.227q-3.136-1.867-6.944-1.867t-6.944 1.792-5.003 5.227-1.867 8.064q0 4.704 1.867 8.213 1.867 3.435 5.003 5.302 3.136 1.792 6.944 1.792t6.944-1.792q3.21-1.867 5.077-5.302 1.867-3.509 1.867-8.138m67.573-21.131q4.779 0 8.512 2.016 3.733 1.941 5.899 5.899 2.165 3.957 2.165 9.632v24.117h-6.72v-23.147q0-6.122-3.061-9.333-2.987-3.285-8.139-3.285-5.301 0-8.437 3.434-3.136 3.36-3.136 9.782v22.549h-6.72v-23.147q0-6.122-3.062-9.333-2.986-3.285-8.138-3.285-5.302 0-8.438 3.434-3.136 3.36-3.136 9.782v22.549h-6.794v-40.917h6.794v5.898q2.016-3.21 5.376-4.928 3.435-1.717 7.542-1.717 5.152 0 9.11 2.315 3.956 2.314 5.898 6.794 1.717-4.33 5.674-6.72t8.811-2.389m65.035 19.637q0 1.942-.224 4.107h-32.704q.373 6.048 4.106 9.483 3.808 3.36 9.184 3.36 4.406 0 7.318-2.016 2.987-2.091 4.181-5.526h7.318q-1.643 5.899-6.571 9.632-4.928 3.659-12.246 3.659-5.824 0-10.453-2.613-4.555-2.614-7.168-7.392-2.613-4.854-2.613-11.2 0-6.347 2.538-11.126 2.54-4.778 7.094-7.317 4.63-2.613 10.602-2.613 5.825 0 10.305 2.538 4.48 2.539 6.869 7.019 2.464 4.405 2.464 10.005m-7.019-1.418q0-3.883-1.717-6.646-1.717-2.837-4.704-4.256-2.912-1.493-6.496-1.493-5.152 0-8.81 3.285-3.585 3.286-4.107 9.11zm42.71-23.072v17.397h18.965v5.6h-18.965v17.92h21.205v5.6h-28v-52.117h28v5.6zm51.445 4.853q7.467 0 12.096 4.555 4.63 4.48 4.63 12.992v24.117h-6.72v-23.147q0-6.122-3.062-9.333-3.061-3.285-8.363-3.285-5.376 0-8.586 3.36-3.136 3.36-3.136 9.781v22.624h-6.795v-40.917h6.795v5.824q2.016-3.136 5.45-4.854 3.51-1.717 7.691-1.717m44.725.075q5.302 0 9.259 2.314 4.032 2.315 5.973 5.824V292.1h6.87v41.813q0 5.6-2.39 9.93-2.389 4.406-6.869 6.87-4.405 2.464-10.304 2.464-8.064 0-13.44-3.808t-6.347-10.379h6.72q1.12 3.734 4.63 5.974 3.509 2.314 8.437 2.314 5.6 0 9.11-3.509 3.583-3.51 3.583-9.856v-8.587q-2.016 3.584-5.973 5.974t-9.259 2.39q-5.45 0-9.93-2.689-4.406-2.688-6.944-7.541-2.539-4.854-2.539-11.051 0-6.272 2.539-10.976 2.538-4.779 6.944-7.392 4.48-2.613 9.93-2.613zm15.232 21.056q0-4.63-1.866-8.064t-5.078-5.227q-3.136-1.867-6.944-1.867t-6.944 1.792-5.002 5.227-1.867 8.064q0 4.704 1.867 8.213 1.866 3.435 5.002 5.302 3.136 1.792 6.944 1.792t6.944-1.792q3.211-1.867 5.078-5.302 1.866-3.509 1.866-8.138m21.878-27.03q-1.942 0-3.286-1.344t-1.344-3.285 1.344-3.285 3.286-1.344q1.866 0 3.136 1.344 1.344 1.344 1.344 3.285t-1.344 3.285q-1.27 1.344-3.136 1.344m3.285 6.646v40.917h-6.795V292.1Zm31.51-.747q7.466 0 12.095 4.555 4.63 4.48 4.63 12.992v24.117h-6.72V309.87q0-6.122-3.062-9.333-3.06-3.285-8.362-3.285-5.376 0-8.587 3.36-3.136 3.36-3.136 9.781v22.624h-6.795V292.1h6.795v5.824q2.016-3.136 5.45-4.854 3.51-1.717 7.691-1.717zm65.183 19.637q0 1.942-.224 4.107h-32.704q.374 6.048 4.107 9.483 3.808 3.36 9.184 3.36 4.405 0 7.317-2.016 2.987-2.09 4.182-5.526h7.317q-1.643 5.9-6.57 9.632-4.929 3.66-12.246 3.66-5.824 0-10.453-2.614-4.555-2.614-7.168-7.392-2.614-4.854-2.614-11.2 0-6.347 2.539-11.126t7.093-7.317q4.63-2.613 10.603-2.613 5.824 0 10.304 2.538 4.48 2.539 6.87 7.019 2.463 4.405 2.463 10.005m-7.018-1.418q0-3.883-1.718-6.646-1.717-2.837-4.704-4.256-2.912-1.493-6.496-1.493-5.152 0-8.81 3.285-3.584 3.286-4.107 9.11z" aria-label="Game Engine" font-family="Poppins" font-size="74.667" paint-order="stroke fill markers" style="line-height:1.25;-inkscape-font-specification:Poppins" transform="translate(-7.627 -5.47)scale(.19277)"/></svg>