<svg xmlns="http://www.w3.org/2000/svg" width="187" height="69"><path fill="#fff" d="M96.116 30.781c-1.847-.029-3.96.356-3.96.356v3.605h2.125l-.024 1.606q0 .893-1.767.894-1.767-.001-3.12-1.493-1.358-1.495-1.356-4.372 0-2.884 1.32-4.255 1.32-1.372 3.448-1.372a6.3 6.3 0 0 1 1.852.292q.96.291 1.287.546c.217.176.422.258.618.258q.29.002.94-.685.654-.687 1.169-2.074c.342-.929.514-1.64.514-2.145 0-.501-.011-.847-.034-1.029q-.72-.788-2.66-1.252-1.936-.464-4.338-.463-5.282 0-8.265 3.327-2.986 3.328-2.985 8.644 0 6.244 3.051 9.467 3.055 3.224 8.028 3.223 2.674 0 4.75-.463 2.075-.462 2.762-.943l.137-10.734c0-.623-1.646-.906-3.492-.938m17.018-5.01q-1.645 0-2.762 1.509-1.114 1.509-1.114 4.234 0 2.73 1.064 4.186 1.063 1.46 2.795 1.46t2.812-1.478q1.081-1.473 1.082-4.218c.001-2.745-.373-3.237-1.116-4.22q-1.114-1.473-2.761-1.473m-.017 18.074q-4.819 0-7.856-3.153-3.033-3.156-3.033-9.21 0-6.056 3.068-9.178 3.07-3.12 7.924-3.12 4.854-.002 7.837 3.072c1.991 2.045 2.985 5.146 2.985 9.294q0 6.224-3.053 9.263-3.053 3.032-7.872 3.032M133.71 26.01v10.26q0 .717.104.907.103.189.616.189 1.888 0 2.865-1.408.978-1.404.976-4.68-.001-3.278-1.01-4.27-1.013-.996-3.208-.998zm-6.585 15.917V21.348q-.001-.858.43-1.359.427-.496 1.114-.497h5.728q5.454.001 8.281 2.747 2.832 2.742 2.832 8.642 0 12.622-10.772 12.622h-5.864q-1.749.001-1.75-1.577m31.623-16.155q-1.648 0-2.763 1.509-1.113 1.509-1.113 4.234 0 2.73 1.063 4.186 1.062 1.46 2.795 1.46c1.733 0 2.093-.492 2.813-1.478q1.08-1.473 1.081-4.218c.001-2.745-.372-3.237-1.115-4.22q-1.114-1.473-2.761-1.473m-.018 18.074q-4.819 0-7.854-3.153-3.036-3.156-3.036-9.21 0-6.056 3.069-9.178 3.07-3.12 7.925-3.12 4.853-.002 7.837 3.072c1.99 2.045 2.984 5.146 2.984 9.294q0 6.224-3.053 9.263-3.053 3.032-7.872 3.032m23.773-.842c0 .454-1.13.685-3.395.685q-3.396-.001-3.397-.685v-17.22h-4.115q-.584.001-.823-1.58a11 11 0 0 1-.101-1.542q-.001-.787.1-1.543c.16-1.05.435-1.58.824-1.58h14.92q.584.002.825 1.58a11.6 11.6 0 0 1 0 3.086q-.242 1.58-.824 1.579h-4.014z"/><path fill="#e0e0e0" d="M88.866 57.973q-.284.585-1.048 1.069-.764.486-1.942.486-1.554.002-2.503-.987-.946-.983-.947-2.833v-3.073q0-1.808.895-2.776c.596-.64 1.395-.966 2.392-.966q1.462.002 2.265.764.8.765.837 2.128l-.013.04h-.796q-.041-1.042-.61-1.612-.568-.565-1.683-.566-1.128 0-1.782.765-.652.762-.651 2.215v3.091q0 1.507.702 2.3.701.785 1.894.785.873.001 1.398-.313.526-.312.732-.763v-2.692h-2.144v-.748h3.004zm3.95.789q.708.001 1.26-.406.55-.41.777-1.04v-1.661H93.49q-.87 0-1.393.493a1.6 1.6 0 0 0-.522 1.22q0 .616.327 1.006.327.389.915.388m2.165.62a20 20 0 0 1-.097-.652 4 4 0 0 1-.03-.518 3 3 0 0 1-.906.945q-.555.374-1.238.373-.952 0-1.47-.591-.517-.594-.518-1.603 0-1.07.751-1.707.753-.636 2.038-.636h1.342v-.943q-.001-.815-.41-1.28-.415-.457-1.152-.459-.687 0-1.133.441a1.46 1.46 0 0 0-.442 1.078l-.797-.007-.014-.042q-.033-.865.659-1.544.69-.678 1.77-.677 1.064 0 1.719.646.65.653.651 1.86v3.767q0 .412.037.795a5 5 0 0 0 .127.753zm3.415-7.698.072 1.191a2.46 2.46 0 0 1 .808-.989q.505-.345 1.186-.345.697 0 1.17.408.475.408.697 1.237.284-.766.805-1.207.524-.438 1.259-.438 1.01 0 1.566.818.557.819.557 2.518v4.485h-.857v-4.5q-.001-1.413-.384-1.987-.383-.573-1.093-.574-.745-.002-1.165.637-.417.639-.511 1.605v4.82h-.853v-4.497q0-1.381-.393-1.97a1.25 1.25 0 0 0-1.096-.59q-.674.001-1.083.409t-.585 1.119v5.528h-.853v-7.679zm12.414.61q-.801 0-1.317.73c-.516.73-.522 1.089-.536 1.805h3.542v-.328q0-.952-.446-1.58-.449-.628-1.243-.627m.12 7.218q-1.24 0-2.03-.933-.787-.931-.787-2.382V54.92q0-1.454.79-2.42.792-.96 1.907-.959 1.206 0 1.872.858.67.86.67 2.31v.842h-4.395v.639q0 1.115.532 1.856.534.741 1.442.74.631 0 1.09-.22a2.25 2.25 0 0 0 .783-.632l.349.604a2.5 2.5 0 0 1-.9.708q-.548.264-1.322.265m9.375-7.218q-.804 0-1.32.73-.512.73-.535 1.805h3.543V54.5q0-.952-.447-1.58-.446-.629-1.241-.627m.12 7.218q-1.243 0-2.03-.933-.79-.932-.79-2.382V54.92q.001-1.454.79-2.42.794-.96 1.91-.959 1.205 0 1.872.858.668.86.668 2.31v.842h-4.395v.639q0 1.115.535 1.856.53.741 1.44.74.632 0 1.088-.22a2.3 2.3 0 0 0 .787-.632l.347.604a2.5 2.5 0 0 1-.9.708q-.548.264-1.322.265m4.684-7.828.07 1.269q.306-.677.814-1.044a1.97 1.97 0 0 1 1.19-.368q1.028 0 1.576.763.552.764.551 2.374v4.684h-.858v-4.677q0-1.314-.384-1.845-.382-.534-1.113-.533-.655-.001-1.095.43-.441.426-.66 1.144v5.481h-.852v-7.678zm6.72 4.523q0 1.17.447 1.86.445.697 1.348.696.617.001 1.044-.335.424-.338.673-.935V53.69q-.24-.614-.655-.994-.415-.376-1.047-.377-.902 0-1.355.786-.456.79-.455 2.053zm-.86-1.05q0-1.631.66-2.62.659-.984 1.825-.984c.43 0 .81.105 1.132.316.324.207.592.51.807.895l.083-1.068h.723v7.686q0 1.475-.686 2.286c-.46.537-1.111.81-1.953.81q-.454-.001-.976-.14a4 4 0 0 1-.927-.365l.236-.748a2.9 2.9 0 0 0 .774.347 3 3 0 0 0 .879.124q.916 0 1.355-.587.44-.592.44-1.727v-.93a2.3 2.3 0 0 1-.802.795 2.15 2.15 0 0 1-1.1.276q-1.157 0-1.813-.906-.657-.905-.658-2.41zm8.12 4.226h-.862v-7.7h.862zm0-9.892h-.862v-1.213h.862zm2.782 2.193.07 1.269q.307-.677.813-1.044a2 2 0 0 1 1.19-.368q1.03 0 1.58.763.55.764.549 2.374v4.684h-.858v-4.677q0-1.314-.384-1.845-.383-.534-1.114-.533-.654-.001-1.093.43-.441.426-.66 1.144v5.481h-.853v-7.678zm8.499.61q-.804 0-1.317.73-.514.73-.537 1.805h3.543V54.5q0-.952-.446-1.58-.447-.629-1.243-.627m.122 7.218q-1.245 0-2.03-.933-.789-.932-.788-2.382V54.92q0-1.454.79-2.42.792-.96 1.906-.959 1.207 0 1.875.858.666.86.667 2.31v.842h-4.396v.639q.002 1.115.534 1.856.531.741 1.442.74.63 0 1.087-.22a2.25 2.25 0 0 0 .787-.632l.348.604a2.5 2.5 0 0 1-.9.708q-.548.264-1.322.265"/><g fill="#fefefe" transform="translate(-2.69 -2.69)scale(.0727)"><path d="M105 673v33q407 354 814 0v-33z"/><path fill="#478cbf" d="m105 673 152 14q12 1 15 14l4 67 132 10 8-61q2-11 15-15h162q13 4 15 15l8 61 132-10 4-67q3-13 15-14l152-14V427q30-39 56-81-35-59-83-108-43 20-82 47-40-37-88-64 7-51 8-102-59-28-123-42-26 43-46 89-49-7-98 0-20-46-46-89-64 14-123 42 1 51 8 102-48 27-88 64-39-27-82-47-48 49-83 108 26 42 56 81zm0 33v39c0 276 813 276 814 0v-39l-134 12-5 69q-2 10-14 13l-162 11q-12 0-16-11l-10-65H446l-10 65q-4 11-16 11l-162-11q-12-3-14-13l-5-69z"/><path d="M483 600c0 34 58 34 58 0v-86c0-34-58-34-58 0z"/><circle cx="725" cy="526" r="90"/><circle cx="299" cy="526" r="90"/></g><g fill="#414042" transform="translate(-2.69 -2.69)scale(.0727)"><circle cx="307" cy="532" r="60"/><circle cx="717" cy="532" r="60"/></g></svg>