<svg xmlns="http://www.w3.org/2000/svg" xmlns:xlink="http://www.w3.org/1999/xlink" width="187" height="69"><defs><linearGradient xlink:href="#a" id="b" x1="455.851" x2="528.307" y1="527.88" y2="598.77" gradientTransform="translate(-304.656 -360.155)scale(.69693)" gradientUnits="userSpaceOnUse"/><linearGradient id="a"><stop offset="0" stop-color="#ff1300"/><stop offset="1" stop-color="#ff6e01"/></linearGradient></defs><path fill="url(#b)" d="m 27.119331,2.5462178 -1.579211,4.990214 c -1.7202,0.744077 -3.440418,1.488047 -5.160404,2.232616 -1.825075,-0.384441 -3.654838,-0.829654 -5.504248,-1.052756 -0.29196,0.32861 -7.6789104,11.6913782 -7.6768204,11.8087722 0.34033,0.833527 0.92481,1.550492 1.36688,2.330494 l 26.8679534,9.439363 26.86794,-9.439363 c 0.442073,-0.780002 1.02655,-1.496967 1.366876,-2.330494 0.0019,-0.117394 -7.384977,-11.4801622 -7.676934,-11.8087722 -1.849412,0.223102 -3.679051,0.668315 -5.504127,1.052756 -1.719995,-0.744569 -3.440213,-1.488539 -5.160412,-2.232616 L 43.747502,2.5462178 Z M 10.611748,26.288668 c -0.0333,-0.01075 -0.10027,0.03932 -0.10267,0.05614 -0.32362,2.639247 -0.9561104,7.919464 -0.9561104,7.919464 l 1.6370404,7.078667 12.385446,5.627902 11.858027,-4.435147 11.857888,4.435147 12.385452,-5.627902 1.637162,-7.078667 c 0,0 -0.632486,-5.280217 -0.956121,-7.919464 -0.0037,-0.02249 -0.121076,-0.103926 -0.121076,-0.02165 -8.108019,2.882672 -16.565611,5.67438 -24.803305,8.517754 -8.237694,-2.843374 -16.695416,-5.635082 -24.803443,-8.517754 0,-0.02049 -0.007,-0.03082 -0.0183,-0.03448 z m 5.8207,6.011651 11.594245,4.281171 a 6.3145914,6.3145914 0 0 1 -0.302334,1.230204 6.3145914,6.3145914 0 0 1 -8.111156,3.736421 6.3145914,6.3145914 0 0 1 -3.736435,-8.111155 6.3145914,6.3145914 0 0 1 0.55568,-1.136641 z m 38.002052,0 A 6.3145914,6.3145914 0 0 1 54.990169,33.43696 6.3145914,6.3145914 0 0 1 51.25375,41.548115 6.3145914,6.3145914 0 0 1 43.142593,37.811694 6.3145914,6.3145914 0 0 1 42.84025,36.58149 Z m -47.0240324,4.777159 -2.9742,2.947191 4.45566,15.62404 L 22.97447,61.425197 22.216798,49.271107 8.8617176,43.05622 Z m 56.0458844,0 -1.451127,5.978742 -13.35507,6.214887 -0.757673,12.15409 14.082536,-5.776488 4.455665,-15.62404 z m -28.022871,8.047669 -10.560284,4.179486 0.641012,13.129607 9.919272,4.041219 9.919254,-4.041219 0.641021,-13.129607 z" style="font-variation-settings:normal;-inkscape-stroke:none"/><text xml:space="preserve" x="86.679" y="60.23" fill="#f2f2f2" stroke-width=".724" font-family="Futura" font-size="19.304" font-weight="700" style="-inkscape-font-specification:&quot;Futura, Bold&quot;;font-variant-ligatures:normal;font-variant-caps:normal;font-variant-numeric:normal;font-variant-east-asian:normal"><tspan x="86.679" y="60.23">ENGINE</tspan></text><text xml:space="preserve" x="71.947" y="36.541" fill="#fff" stroke-width="1.161" font-family="Futura" font-size="30.962" font-weight="700" style="-inkscape-font-specification:&quot;Futura, Bold&quot;;font-variant-ligatures:normal;font-variant-caps:normal;font-variant-numeric:normal;font-variant-east-asian:normal"><tspan x="71.947" y="36.541">REDOT</tspan></text></svg>