<svg height="16" width="16" xmlns="http://www.w3.org/2000/svg"><path d="M8 2a6 6 0 0 0-6 6 6 6 0 0 0 6 6 6 6 0 0 0 4-1.535V14h.002a2 2 0 0 0 .266 1A2 2 0 0 0 14 16h1v-2h-.5a.5.5 0 0 1-.5-.5V8a6 6 0 0 0-6-6zm0 1a1 1 0 0 1 1 1 1 1 0 0 1-1 1 1 1 0 0 1-1-1 1 1 0 0 1 1-1zm3.441 2a1 1 0 0 1 .89.5 1 1 0 0 1-.366 1.365 1 1 0 0 1-1.367-.365 1 1 0 0 1 .367-1.365A1 1 0 0 1 11.44 5zm-6.953.002a1 1 0 0 1 .547.133A1 1 0 0 1 5.402 6.5a1 1 0 0 1-1.367.365A1 1 0 0 1 3.67 5.5a1 1 0 0 1 .818-.498zM4.512 9a1 1 0 0 1 .89.5 1 1 0 0 1-.367 1.365A1 1 0 0 1 3.67 10.5a1 1 0 0 1 .365-1.365A1 1 0 0 1 4.512 9zm6.904.002a1 1 0 0 1 .549.133 1 1 0 0 1 .365 1.365 1 1 0 0 1-1.365.365 1 1 0 0 1-.367-1.365 1 1 0 0 1 .818-.498zM8 11a1 1 0 0 1 1 1 1 1 0 0 1-1 1 1 1 0 0 1-1-1 1 1 0 0 1 1-1z" fill="#e0e0e0" style="fill:#ee5353;fill-opacity:1"/></svg>
