<svg xmlns="http://www.w3.org/2000/svg" width="16" height="16"><path fill="#e0e0e0" d="M5.2 1A3.2 3.4285713 0 0 0 2 4.4285713V13H3.6V9.571427H6.8V13H8.4V4.4285713A3.2 3.4285713 0 0 0 5.2 1Zm4.0000001 9.428573A2.4 2.5714284 0 0 0 12.4 12.849143V13H14V7.857142A2.4 2.5714284 0 0 0 11.599999 5.285714H10.8v1.7142858h.799999A.80000001.85714283 0 0 1 12.4 7.857142V8.0062848A2.4 2.5714284 0 0 0 9.2000001 10.428573ZM5.2 2.7142856A1.6 1.7142856 0 0 1 6.8 4.4285713V7.857142H3.6V4.4285713A1.6 1.7142856 0 0 1 5.2 2.7142856Zm6.399999 6.8571414a.80000112.857144 0 1 1 0 1.714288.80000112.857144 0 0 1 0-1.714288zM0 14H16V15H0zM0 13H1V14H0zM15 13H16V14H15z"/></svg>
