<svg height="16" viewBox="0 0 16 16" width="16" xmlns="http://www.w3.org/2000/svg"><path d="m4 1c-2.2091-.00000066-4.069 1.7919-4 4v10h2v-4h4v4h2v-10c0-2.2091-1.7909-4-4-4zm5 11c0 1.6569 1.3431 3 3 3 .3409-.0014.67908-.0608 1-.17578v.17578h2v-6c0-1.6569-1.3431-3-3-3h-1v2h1c.55228 0 1 .44772 1 1v.17383c-.32104-.11432-.65921-.1731-1-.17383-1.6569 0-3 1.3431-3 3zm-5-9c1.1046-.0000001 1.914.89879 2 2v4h-4v-4c0-1.1046.89543-2 2-2zm8 8c.55228 0 1 .44772 1 1s-.44772 1-1 1-1-.44772-1-1 .44772-1 1-1z" fill="#e0e0e0"/></svg>
