<svg xmlns="http://www.w3.org/2000/svg" width="16" height="16"><g fill="none" stroke="#000" stroke-linejoin="round" stroke-opacity=".8" stroke-width="2"><path d="M7 1v2h2V1zM3.758 2.344 2.344 3.758l1.414 1.414 1.414-1.414zm8.484 0-1.414 1.414 1.414 1.414 1.414-1.414zM8 4a4 4 0 0 0 0 8 4 4 0 0 0 0-8zM1 7v2h2V7zm12 0v2h2V7zm-9.242 3.828-1.414 1.414 1.414 1.414 1.414-1.414zm8.484 0-1.414 1.414 1.414 1.414 1.414-1.414zM7 13v2h2v-2z"/><circle cx="8" cy="8" r="3.5" fill="#000"/></g><path fill="#f9f9f9" d="M7 1v2h2V1zM3.758 2.344 2.344 3.758l1.414 1.414 1.414-1.414zm8.484 0-1.414 1.414 1.414 1.414 1.414-1.414zM8 4a4 4 0 0 0 0 8 4 4 0 0 0 0-8zM1 7v2h2V7zm12 0v2h2V7zm-9.242 3.828-1.414 1.414 1.414 1.414 1.414-1.414zm8.484 0-1.414 1.414 1.414 1.414 1.414-1.414zM7 13v2h2v-2zm1-7.875a.75.75 0 0 1 1.145.625V11h-1.5V7.152l-1 .667-.75-1.2z"/></svg>
