<svg height="16" viewBox="0 0 16 16" width="16" xmlns="http://www.w3.org/2000/svg"><path d="m6.0215 3c-.40133-.0028518-.79916.074854-1.1699.22852-1.1208.46444-1.8516 1.5582-1.8516 2.7715v7h2v-3h2v-2h-2v-2c0-.55228.44772-1 1-1 .2652.0000401.51953.10542.70703.29297l1.4141-1.4141c-.55724-.5574-1.3115-.87312-2.0996-.87891zm2.9785 3c-1.3263 2.6586-1.3404 4.3252 0 7h2c-1.3404-2.6748-1.3263-4.3414 0-7zm4 0c1.3263 2.6586 1.3404 4.3252 0 7h2c1.3404-2.6748 1.3263-4.3414 0-7zm-12 5a1 1 0 0 0 -1 1 1 1 0 0 0 1 1 1 1 0 0 0 1-1 1 1 0 0 0 -1-1z" fill="#e0e0e0"/></svg>
