<svg xmlns="http://www.w3.org/2000/svg" width="16" height="16"><g fill="#fc7f7f"><path d="M12 9h1v2h-1zM9 12h2v1h-2zM14 12h2v1h-2zM12 14h1v2h-1z"/><path d="m14.594 6.927c.754-1.134.446-2.665-.688-3.419-.309-.205-.66-.338-1.026-.389-.188-1.349-1.433-2.291-2.782-2.103s-2.29 1.433-2.103 2.782c.051.367.184.717.389 1.026l-3.56 3.56c-1.134-.754-2.665-.446-3.419.688s-.446 2.664.688 3.419c.308.205.659.338 1.026.389.188 1.349 1.433 2.29 2.782 2.103 1.349-.188 2.291-1.433 2.103-2.781-.051-.367-.184-.718-.389-1.026l3.56-3.56c1.134.753 2.665.445 3.419-.689z"/></g></svg>
