<svg xmlns="http://www.w3.org/2000/svg" width="16" height="16"><path fill="#e0e0e0" d="M10.865 1.803c.185.576.237 1.174.237 1.697 0 .773-.11 1.712-.604 2.5H13a5 5 0 0 0-2.135-4.197m-5.736.02A5 5 0 0 0 3 6h2.502c-.495-.788-.604-1.727-.604-2.5 0-.517.051-1.107.23-1.678M3 8v2a5 5 0 0 0 10 0V8z"/><path fill="#ff5f5f" d="m 7,2.2017622 c 0.552,-0.2690163 1.448,-0.2690163 2,0 0.743,0.3618055 1,1.1523107 1,1.7982377 0,0.6459271 -0.257,1.4364323 -1,1.7982377 -0.552,0.2690165 -1.448,0.2690165 -2,0 C 6.257,5.4364322 6,4.645927 6,3.9999999 6,3.3540729 6.257,2.5635677 7,2.2017622" paint-order="stroke fill markers"/><path fill="#ff5f5f" stroke="#fff" stroke-linecap="round" stroke-linejoin="round" stroke-width="2" d="m 5.9999592,1 c -0.0083,0.041472 0,6 0,6 L 2.9999586,3.999796 Z" paint-order="stroke fill markers"/></svg>
