<svg height="16" viewBox="0 0 16 16" width="16" xmlns="http://www.w3.org/2000/svg"><path d="m1 10a1.0001 1.0001 0 1 0 2 0v-4a1.0001 1.0001 0 1 0 -2 0zm4-2c0 .55231.4477 1 1 1h5.1484l-2.7734 2.2188c-.4317.34504-.50165.97482-.15625 1.4062.3449.4305.9732.5004 1.4043.15625l5-4c.2369-.18868.37695-.4745.37695-.77734.0009-.30559-.13795-.59477-.37695-.78516l-5-4c-.4311-.34415-1.0594-.27424-1.4043.15625-.3454.43143-.27545 1.0612.15625 1.4062l2.7734 2.2188h-5.1484c-.5523 0-1 .44769-1 1z" fill="#e0e0e0" fill-opacity=".99608"/></svg>
