<svg height="16" viewBox="0 0 16 16" width="16" xmlns="http://www.w3.org/2000/svg"><path d="m6 15a1.0001 1.0001 0 1 1 0-2h4a1.0001 1.0001 0 1 1 0 2zm2-4c-.55231 0-1-.4477-1-1v-5.1484l-2.2188 2.7734c-.34504.4317-.97482.50165-1.4062.15625-.4305-.3449-.5004-.9732-.15625-1.4043l4-5c.18868-.2369.4745-.37695.77734-.37695.30559-.0009.59477.13795.78516.37695l4 5c.34415.4311.27424 1.0594-.15625 1.4043-.43143.3454-1.0612.27545-1.4062-.15625l-2.2188-2.7734v5.1484c0 .5523-.44769 1-1 1z" fill="#e0e0e0" fill-opacity=".99608"/></svg>
