<svg height="16" viewBox="0 0 16 16" width="16" xmlns="http://www.w3.org/2000/svg"><g transform="translate(0 -1036.4)"><path d="m8 1a7 7 0 0 0 -7 7 7 7 0 0 0 7 7 7 7 0 0 0 1.2129-.10742l-2.5996-6.3203a1.5002 1.5002 0 0 1 1.3711-2.0703v-.0019531a1.5002 1.5002 0 0 1 .58594.11133l6.3184 2.5996a7 7 0 0 0 .11133-1.2109 7 7 0 0 0 -7-7zm2.7559 9.7559.52344 1.2734a1.5002 1.5002 0 0 1 .48047-.26953 1.5002 1.5002 0 0 1 .26953-.47852l-1.2734-.52539z" fill="#fff" transform="translate(0 1036.4)"/><path d="m8 3a5 5 0 0 0 -5 5 5 5 0 0 0 5 5 5 5 0 0 0 .42578-.021484l-1.8125-4.4063a1.5002 1.5002 0 0 1 1.3711-2.0703v-.0019531a1.5002 1.5002 0 0 1 .58594.11133l4.4082 1.8125a5 5 0 0 0 .021484-.42383 5 5 0 0 0 -5-5zm2.7559 7.7559.44336 1.0801a5 5 0 0 0 .63867-.63281l-1.082-.44727z" fill="#ff8484" transform="translate(0 1036.4)"/><path d="m16 1047.7-8-3.291 3.291 8 .9471-2.8201 1.8836 1.8835.9418-.9418-1.8836-1.8835z" fill="#e0e0e0"/></g></svg>
