<?xml version="1.0" encoding="UTF-8" standalone="no"?>
<svg
   id="Layer_1"
   data-name="Layer 1"
   viewBox="0 0 16.000001 16.002002"
   version="1.1"
   sodipodi:docname="MultiLayerIcon.svg"
   width="16"
   height="16.002001"
   inkscape:version="1.3.2 (091e20e, 2023-11-25, custom)"
   xmlns:inkscape="http://www.inkscape.org/namespaces/inkscape"
   xmlns:sodipodi="http://sodipodi.sourceforge.net/DTD/sodipodi-0.dtd"
   xmlns="http://www.w3.org/2000/svg"
   xmlns:svg="http://www.w3.org/2000/svg"
   xmlns:rdf="http://www.w3.org/1999/02/22-rdf-syntax-ns#"
   xmlns:cc="http://creativecommons.org/ns#"
   xmlns:dc="http://purl.org/dc/elements/1.1/">
  <defs
     id="defs1" />
  <sodipodi:namedview
     id="namedview1"
     pagecolor="#ffffff"
     bordercolor="#999999"
     borderopacity="1"
     inkscape:showpageshadow="2"
     inkscape:pageopacity="0"
     inkscape:pagecheckerboard="0"
     inkscape:deskcolor="#d1d1d1"
     showgrid="false"
     inkscape:zoom="20.551719"
     inkscape:cx="10.266781"
     inkscape:cy="14.767621"
     inkscape:window-width="1920"
     inkscape:window-height="1017"
     inkscape:window-x="-8"
     inkscape:window-y="-8"
     inkscape:window-maximized="1"
     inkscape:current-layer="Layer_1" />
  <title
     id="title1">multiple-layers</title>
  <path
     d="m 15.704111,5.6452968 -7.5063589,4.0326 a 0.489375,0.52875 0 0 1 -0.434565,0 l -7.52593505,-4.04247 a 0.49329,0.53298 0 0 1 -0.02349,-0.94047 l 7.52593505,-4.5543 a 0.49329,0.53298 0 0 1 0.486765,0 l 7.5272389,4.5543 a 0.491985,0.53157 0 0 1 -0.04306,0.95034 z m -1.274985,5.7711302 a 0.49112102,0.53063651 0 0 1 0.4698,-0.93201 l 0.836505,0.47658 a 0.491985,0.53157 0 0 1 0.20619,0.71769 0.49851,0.53862 0 0 1 -0.22707,0.23829 l -7.5167989,4.0326 a 0.489375,0.52875 0 0 1 -0.434565,0 l -7.52593505,-4.04247 a 0.491985,0.53157 0 0 1 -0.223155,-0.705 0.481545,0.52029 0 0 1 0.210105,-0.24111 L 1.007202,10.518257 a 0.49068,0.53016 0 0 1 0.522,0.89535 l 6.4519201,3.46437 6.4480039,-3.46437 z m 0.01958,-3.2091602 a 0.49068,0.53016 0 0 1 0.56898,-0.846 l 0.716445,0.40749 a 0.49068,0.53016 0 0 1 -0.02088,0.95034 L 8.1977571,12.751697 a 0.489375,0.52875 0 0 1 -0.434565,0 L 0.23725705,8.7092268 a 0.49329,0.53298 0 0 1 -0.223155,-0.705 0.48546,0.52452 0 0 1 0.210105,-0.24111 l 0.76995,-0.43851 a 0.491985,0.53157 0 0 1 0.53504995,0.88971 l 6.4558351,3.4686002 z m -6.4675789,0.40185 6.4675789,-3.47847 -6.4675789,-3.91698 -6.4741051,3.91698 z"
     id="path1"
     style="fill:#f9f9f9;stroke-width:0.135648" />
  <metadata
     id="metadata1">
    <rdf:RDF>
      <cc:Work
         rdf:about="">
        <dc:title>multiple-layers</dc:title>
      </cc:Work>
    </rdf:RDF>
  </metadata>
</svg>
