<svg height="16" width="16" xmlns="http://www.w3.org/2000/svg"><path d="m2.5 1.5h11c.554 0 1 .446 1 1v8c0 .554-.446 1-1 1h-11c-.554 0-1-.446-1-1v-8c0-.554.446-1 1-1z" fill="none" stroke-width="1.5"/><path d="m2.5.75c-.9565261 0-1.75.7934739-1.75 1.75v8c0 .956526.7934739 1.75 1.75 1.75h4.75v2h-4.25a.75.75 0 0 0 -.75.75.75.75 0 0 0 .75.75h10a.75.75 0 0 0 .75-.75.75.75 0 0 0 -.75-.75h-4.25v-2h4.75c.956526 0 1.75-.793474 1.75-1.75v-8c0-.9565261-.793474-1.75-1.75-1.75zm0 1.5h11c.151473 0 .25.098527.25.25v8c0 .151473-.09853.25-.25.25h-11c-.1514728 0-.25-.09853-.25-.25v-8c0-.1514728.098527-.25.25-.25zm1.5390625 1.1503906c-.27 0-.5.1996875-.5.4296875v5.140625c0 .23.23.4296875.5.4296875h7.9999995c.270001 0 .5-.1996875.5-.4296875v-3.4316406c0-.23-.23-.4296875-.5-.4296875h-2c-1.9199995-.01-1.6399995-1.6889844-3.4999995-1.7089844z" fill="#fff"/></svg>
