<svg xmlns="http://www.w3.org/2000/svg" width="16" height="16"><path fill="#fc7f7f" d="M2 1a1 1 0 0 0-1 1v12a1 1 0 0 0 1 1h3.2a3.25 3.25 0 0 1-.2-5l5-5a3.25 3.25 0 0 1 5 .2V2a1 1 0 0 0-1-1zm7.15 6.65a2 2 0 0 1 1.207.207l1.25-1.25a1 1 0 0 1 1.75 1.75l-2 2a1 1 0 0 1-1.5 0 .5.5 0 0 0-.707.707 2 2 0 0 0 2.914 0l2-2A2 2 0 0 0 10.9 5.9zm1.628 4.628a2 2 0 0 1-1.207-.207l-1.25 1.25a1.237 1.237 0 0 1-1.75-1.75l2-2a1 1 0 0 1 1.5 0 .5.5 0 0 0 .707-.707 2 2 0 0 0-2.914 0l-2 2a2.237 2.237 0 0 0 3.164 3.164z"/></svg>
