<svg height="16" viewBox="0 0 16 16" width="16" xmlns="http://www.w3.org/2000/svg"><path d="m2 1c-.1339223.0000569-.2535666.0306675-.3652344.0742188-.022275.0088111-.0410424.0209185-.0625.03125-.0889622.0424668-.1681009.0954994-.2382812.1601562-.0215322.0195204-.0427394.0372854-.0625.0585938-.0741112.0810923-.13722.1698052-.1816406.2695312-.0034324.0076504-.0084746.0137334-.0117188.0214844l-.0019531.0019531c-.0452252.1091882-.0629923.2268973-.0683594.3457031-.0005086.0130821-.0078112.023903-.0078125.0371094v12c.0000552.552262.4477381.999945 1 1h4.8847656a2.1184381 2.1184381 0 0 1 .1328125-.744141l2.9999999-7.9999996a2.1184381 2.1184381 0 0 1 2.007813-1.3730469 2.1184381 2.1184381 0 0 1 1.957031 1.3730469l1.017578 2.7128906v-6.96875c-.000001-.0132064-.007305-.0240273-.007812-.0371094-.005369-.1188058-.023135-.2365149-.06836-.3457031l-.001953-.0019531c-.003155-.0075626-.008384-.0139987-.011719-.0214844-.044421-.099726-.107529-.188439-.18164-.2695312-.019761-.0213083-.040968-.0390734-.0625-.0585938-.070181-.0646568-.149319-.1176895-.238282-.1601562-.021457-.0103315-.040225-.022439-.0625-.03125-.111667-.0435511-.231312-.0741619-.365234-.0742188zm10 6-3 8 3-2 3 2z" fill="#8da5f3" fill-opacity=".98824" fill-rule="evenodd"/></svg>
