<svg height="16" viewBox="0 0 16 16" width="16" xmlns="http://www.w3.org/2000/svg"><path d="m3 1a2 2 0 0 0 -2 2 2 2 0 0 0 1 1.7305v6.541a2 2 0 0 0 -1 1.7285 2 2 0 0 0 2 2 2 2 0 0 0 1.7305-1h2.5078l.75-2h-3.2598a2 2 0 0 0 -.72852-.73047v-5.8555l4.6973 4.6973.77148-2.0566-4.0547-4.0547h5.8574a2 2 0 0 0 .72852.73047v.27148a2.0002 2.0002 0 0 1 .023438 0 2.0002 2.0002 0 0 1 1.8496 1.2969l.12695.33789v-1.9082a2 2 0 0 0 1-1.7285 2 2 0 0 0 -2-2 2 2 0 0 0 -1.7305 1h-6.541a2 2 0 0 0 -1.7285-1zm9 6-3 8 3-2 3 2z" fill="#ffca5f"/></svg>
