<svg height="16" width="16" viewBox="0 0 16 16" xmlns="http://www.w3.org/2000/svg"><g fill="#e0e0e0"><path d="M4.607 8.379C2.81 9.307 1 10.45 1 11c0 1 6 4 7 4v-2c-2.5 0-5-1-4-3z" fill-opacity=".5"/><path d="M8 .875c-.375 0-.75.375-1 1.125l-3 8c-1 2 1.5 3 4 3V9.25c-.875 0-1.75-.25-2.5-.75l1-3.5c.5.25 1 .375 1.5.375z"/></g><g fill="#fc7f7f"><path d="M11.393 8.379 12 10c1.002 2.005-1.512 3.005-4.018 3v1.998L8 15c1 0 7-3 7-4 0-.549-1.81-1.693-3.607-2.621z" fill-opacity=".5"/><path d="m8 .875-.018.002v4.498A3.323 3.323 0 0 0 9.5 5l1 3.5a4.508 4.508 0 0 1-2.518.75V13c2.506.005 5.02-.995 4.018-3L9 2C8.75 1.25 8.375.875 8 .875z"/></g></svg>
