<svg version="1.1" viewBox="0 0 16 16" xmlns="http://www.w3.org/2000/svg">
<path d="m12.386 5.3097c-0.69157-0.021112-1.3071 0.36382-1.7492 0.86685-0.58 0.58-1.16 1.16-1.74 1.74 0.4588-0.28502 1.0599-0.064948 1.4771-0.037996 0.45549-0.44357 0.89024-0.91006 1.3596-1.3383 0.56256-0.44564 1.4906-0.15731 1.7028 0.52802 0.18967 0.4871-0.049221 1.0098-0.43284 1.3208-0.70048 0.68896-1.3789 1.4022-2.0935 2.0755-0.47999 0.3725-1.2044 0.226-1.5679-0.24034-0.38763-0.38194-1.0641 0.16031-0.78317 0.6241 0.6767 0.94379 2.1573 1.1282 3.0411 0.36751 0.80287-0.7704 1.5793-1.5696 2.3665-2.3564 0.79925-0.83719 0.70104-2.3112-0.19552-3.0393-0.38108-0.32877-0.8822-0.5119-1.385-0.51049zm-3.051 3.051c-0.69157-0.021106-1.3071 0.36382-1.7492 0.86685-0.67513 0.68452-1.37 1.3506-2.0319 2.0474-0.75433 0.87744-0.58087 2.3428 0.34933 3.0252 0.84748 0.68613 2.192 0.54839 2.8998-0.27341 0.63032-0.63031 1.2606-1.2606 1.8909-1.8909-0.4587 0.28554-1.0602 0.0659-1.477 0.038069-0.45445 0.44348-0.88773 0.91034-1.3564 1.3383-0.56256 0.44565-1.4906 0.15731-1.7028-0.52802-0.18967-0.4871 0.049229-1.0098 0.43284-1.3208 0.70048-0.68896 1.3789-1.4022 2.0935-2.0755 0.48-0.3725 1.2044-0.22601 1.5679 0.24036 0.38733 0.38325 1.064-0.16067 0.78313-0.6241-0.39353-0.52481-1.0429-0.84871-1.7002-0.8434z" fill="#fc7e7e" fill-opacity=".99608" stroke-linecap="round" stroke-linejoin="round" stroke-width=".013911"/>
<path d="m2 1c-0.61942-0.0066969-1.0877 0.60314-1 1.198 0.00345 3.968-0.006897 7.9364 0.00517 11.904 0.043388 0.62851 0.69346 0.98513 1.272 0.89776h2.5896c-0.77174-0.5015-1.2078-1.2613-1.3143-2.3356-0.11601-1.1701 0.63729-2.024 1.6748-3.1566 0.65335-0.71326 1.4757-1.5822 2.3587-2.3316 0.76308-0.64765 1.7509-1.679 2.9376-2.578 0.91259-0.69136 2.2893-0.74691 3.1014-0.33143 0.91184 0.46649 1.2635 1.1209 1.4067 1.3826-0.0052-2.335-0.02135-1.3526-0.03955-3.6863 5e-3 -0.64349-0.67497-1.0568-1.2694-0.96289z" fill="#fc7d7d" fill-opacity=".99608"/>
</svg>
