<svg height="16" viewBox="0 0 4.2333332 4.2333335" width="16" xmlns="http://www.w3.org/2000/svg"><g transform="scale(.26458333)"><path d="m4.6074219 8.3789062c-1.7979243.927604-3.60742192 2.0716858-3.6074219 2.6210938 0 .999987 6.0000005 4 7 4 1.0000006 0 7-3.000013 7-4 0-.549408-1.809498-1.6934898-3.607422-2.6210938l.607422 1.6210938c2 4.000025-9.9999999 4.000025-8 0z" fill="#fff" fill-opacity=".392157"/><path d="m8 .875c-.375 0-.7499997.3749906-1 1.125l-3 8c-1.9999998 4.000025 10 4.000025 8 0l-3-8c-.2499997-.7500094-.625-1.125-1-1.125zm-1.5 4.125c.9999999.4999937 2.0000001.4999937 3 0l1 3.5c-1.4999996.9999874-3.4999996.9999874-5 0z" fill="#e0e0e0"/></g></svg>
