<svg height="16" viewBox="0 0 16 16" width="16" xmlns="http://www.w3.org/2000/svg"><path d="m2 1c-.1339223.0000569-.2535666.030668-.3652344.074219-.022275.00881-.041042.020919-.0625.03125-.088962.042467-.1681009.095499-.2382812.1601562-.021532.01952-.042739.037285-.0625.058594-.074111.081092-.13722.1698052-.1816406.2695312-.00343.00765-.00847.013733-.011719.021484l-.00195.00195c-.0452281.1091913-.0629952.2269004-.0683623.3457062-.0005086.0130821-.0078112.023903-.0078125.0371094v12c.0000552.552262.4477381.999945 1 1h4.8847656a2.1184381 2.1184381 0 0 1 .1328125-.744141l2.9999999-7.9999996a2.1184381 2.1184381 0 0 1 2.007813-1.3730469 2.1184381 2.1184381 0 0 1 1.957031 1.3730469l1.017578 2.7128906v-6.96875c-.000001-.013206-.0073-.024027-.0078-.037109-.0054-.1188058-.02313-.2365149-.06836-.3457031l-.002-.00195c-.0032-.00756-.0084-.013999-.01172-.021484-.04442-.099726-.107529-.188439-.18164-.2695312-.01976-.021308-.04097-.039073-.0625-.058594-.07018-.064657-.149319-.1176895-.238282-.1601562-.02146-.010331-.04022-.022439-.0625-.03125-.111631-.0435548-.231276-.0741656-.365198-.0742225zm10 6-3 8 3-2 3 2z" fill="#fc9c9c" fill-opacity=".996078" fill-rule="evenodd"/></svg>
