<svg height="16" viewBox="0 0 16 16" width="16" xmlns="http://www.w3.org/2000/svg"><g fill="#e0e0e0" fill-rule="evenodd" transform="translate(0 -1036.4)"><path d="m2 1a1.0001 1.0001 0 0 0 -1 1v12a1.0001 1.0001 0 0 0 1 1h4.9023a2.1002 2.1002 0 0 1 .13086-.73633l.47461-1.2637h-4.5078v-10h8.5859l-4.293 4.293a1.0001 1.0001 0 0 0 0 1.4141l1.3262 1.3262 1.4141-3.7695a2.1002 2.1002 0 0 1 1.9922-1.3613 2.1002 2.1002 0 0 1 .43555.050781l2.2461-2.2461a1.0001 1.0001 0 0 0 -.70703-1.707h-12z" transform="translate(0 1036.4)"/><path d="m15 1051.4-3-8-3 8 3-2z"/></g></svg>
