<svg xmlns="http://www.w3.org/2000/svg" width="16" height="16"><path fill="#fc7f7f" d="m4 11.5v-1.5h-4v1.5h1.25v3h-1.25v1.5h4v-1.5h-1.25v-3zm6 .001v-1.501h-1.5l-2 1.691v-1.691h-1.5v6h1.5v-1.688l2 1.688h1.5v-1.499h-.949l-1.776-1.501 1.774-1.499z"/><path fill="#e0e0e0" d="m10.169 12.594c-.225.223-.226.584-.003.807 0 0 .001.002.003.002l2.426 2.431c.222.224.583.224.807.002 0-.001.001-.002.002-.002l2.428-2.429c.225-.223.225-.584.003-.807-.001-.002-.001-.002-.003-.002l-2.427-2.429c-.222-.226-.581-.228-.806-.005-.001.002-.002.003-.004.005z"/><path fill="#5fff97" d="m13.333 5v1.333h-1.333v1.333h1.333v1.334h1.334v-1.334h1.333v-1.333h-1.333v-1.333z"/><path fill="#e0e0e0" d="m12.333 8.666h-1.333v-1.666c-.001 0-.003 0-.004 0-1.104 0-2-.896-2-2s.896-2 2-2c.738 0 1.376.405 1.723 1h2.156c-.553-2.139-2.734-3.425-4.873-2.873-1.408.364-2.509 1.464-2.873 2.873h-6.132v2h1v2h3v-2h2.133c.553 2.139 2.733 3.426 4.873 2.873.116-.029.22-.083.331-.122z"/></svg>
