<svg height="16" viewBox="0 0 16 16" width="16" xmlns="http://www.w3.org/2000/svg"><path d="m2 4.7813475v2.0494746c-.6177049.3566305-.998733 1.0152377-1 1.7285 0 1.1045694.8954305 1.9999999 2 1.9999999.7139771-.000554 1.3735116-.381678 1.7305-.9999995h1.3545593c.3566306.6177035 1.0152377.9987325 1.7285.9999995 1.1045696 0 1.9999996-.8954305 1.9999996-1.9999999 0-1.1045695-.89543-2-1.9999996-2-.7139771.0005537-1.3735116.3816774-1.7305 1h-1.3545593c-.1747809-.3030102-.4259781-.5548798-.72852-.73047v-2.0494746c-.5384713.0290292-1.2982621.0368063-1.99998.00197z" fill="#e0e0e0"/><path d="m6.8474576 9.6288045v1.2020165c-.617705.35663-.998733 1.015237-1 1.7285 0 1.104569.89543 2 2 2 .713977-.000554 1.373512-.381678 1.7305-1h1.2867634c.35663.617704 1.015237.998733 1.7285 1 1.104569 0 1.999999-.895431 1.999999-2 0-1.10457-.89543-2-1.999999-2-.713977.000553-1.373512.381677-1.7305 1h-1.2867634c-.174781-.303011-.425978-.55488-.72852-.73047v-1.2020165s-1.264363.03681-1.99998.002z" fill="#e0e0e0"/><path d="m2.7966098 1.3559322c-1.104569 0-2.00000003.8954305-2.00000003 2 .000554.7139771.38167803 1.3735116 1.00000003 1.7305.757716.266212.949133.2840609 1.99998-.00197.617705-.3566306.998733-1.0152377 1-1.7285 0-1.1045695-.89543-2-2-2z" fill="#5fff97"/></svg>
