<svg height="16" viewBox="0 0 16 16" width="16" xmlns="http://www.w3.org/2000/svg"><path d="m8.0292969 2.0019531a1.0001 1.0001 0 0 0 -.8867188.484375l-6 9.9999999a1.0001 1.0001 0 0 0 .8574219 1.513672h12a1.0001 1.0001 0 0 0 .982422-1.171875c-.308689.108606-.638692.171875-.982422.171875-1.645008 0-3-1.354992-3-3a1.0001 1.0001 0 0 0 0-.0019531c.002071-.7569921.302544-1.4803618.818359-2.0332031-.464296-.5178712-.798903-1.1662278-.816406-1.9042969l-2.1445311-3.5742188a1.0001 1.0001 0 0 0 -.828125-.484375zm-1.0292969 2.9980469h2v5h-2zm6.095703 4.7636719c-.02286.0837076-.095296.1479891-.095703.2363281v.001953c.001004.551209.418791.97816.964844.996094l-.712891-1.1875001c-.051505-.0169949-.103183-.0337067-.15625-.046875zm-6.095703 1.2363281h2v2h-2z" fill="#ffdd65"/><path d="m14 0a2 2 0 0 0 -2 2 2 2 0 0 0 2 2 2 2 0 0 0 2-2 2 2 0 0 0 -2-2zm1.447266 4.6210938c-.430501.2402237-.923653.3789062-1.447266.3789062-.522676 0-1.015355-.1375274-1.445312-.3769531a2 2 0 0 0 -.554688 1.3769531 2 2 0 0 0 2 2 2 2 0 0 0 2-2 2 2 0 0 0 -.552734-1.3789062zm0 4c-.430501.2402236-.923653.3789062-1.447266.3789062-.522676 0-1.015355-.1375274-1.445312-.3769531a2 2 0 0 0 -.554688 1.3769531 2 2 0 0 0 2 2 2 2 0 0 0 2-2 2 2 0 0 0 -.552734-1.3789062z" fill="#f95252" stroke-dashoffset="16.5" stroke-linecap="round" stroke-linejoin="round" stroke-width="2"/></svg>
