<svg height="16" viewBox="0 0 16 16" width="16" xmlns="http://www.w3.org/2000/svg"><path d="m8.0292969 2.0019531a1.0001 1.0001 0 0 0 -.8867188.484375l-6 9.9999999a1.0001 1.0001 0 0 0 .8574219 1.513672h12a1.0001 1.0001 0 0 0 .857422-1.513672l-2.326172-3.876953c-.89392-.5083134-1.507327-1.4610509-1.529297-2.5488281l-2.1445311-3.5742188a1.0001 1.0001 0 0 0 -.828125-.484375zm-1.0292969 2.9980469h2v5h-2zm0 6h2v2h-2z" fill="#ffdd65"/><g fill="#f95252"><path d="m14 0a2 2 0 0 0 -2 2 2 2 0 0 0 2 2 2 2 0 0 0 2-2 2 2 0 0 0 -2-2z"/><path d="m15.447266 4.6210938c-.430501.2402237-.923653.3789062-1.447266.3789062-.522676 0-1.015355-.1375274-1.445312-.3769531a2 2 0 0 0 -.554688 1.3769531 2 2 0 0 0 2 2 2 2 0 0 0 2-2 2 2 0 0 0 -.552734-1.3789062z"/></g></svg>
