<svg xmlns="http://www.w3.org/2000/svg" width="16" height="16"><path fill="#e0e0e0" d="M8 1v2h-2a5 5 0 0 0-.8925781.1035156l1.8964843 1.8964844h.9960938v.9960938l.5742188.5742187 3.4257812-2.5703125zm-5.515625 3.4882812a5 5 0 0 0-.484375 6.5117188l1.4140625-1.4140625a3 3 0 0 1 .4648437-3.703125zm11.515625.5117188-1.414062 1.4140625a3 3 0 0 1-.445313 3.7226565l1.392578 1.392578a5 5 0 0 0 .466797-6.529297zm-6.5742188 4.4296875-3.4257812 2.5703125 4 3v-2h2a5 5 0 0 0 .900391-.095703l-1.9042972-1.904297h-.9960938v-.996094zM1 2l13 13 1-1-13-13z"/></svg>
