<svg height="16" viewBox="0 0 16 16" width="16" xmlns="http://www.w3.org/2000/svg"><path d="m11.705078 1.1386719c-.389281-.0180576-.770356.1928007-.949219.5664062-.01372.028981-.024286.0597078-.035156.0898438-.01467.023016-.026122.0477316-.039062.0722656-.04899-.00527-.097678-.0088657-.146485-.0117187-1.4730253-.6255102-3.1788394.0160437-3.8749998 1.4570312l-1.7265624 3.6074219s-.3370448.7035743-.8085938 1.1269531l-.0019531.0019531c-.2721193.1337295-.5715196.1856194-.8613281.046875-.4981413-.2384824-1.0955019-.0274382-1.3339844.4707031-.01605.0335262-.0289787.0672737-.0410156.1015626-.0187691.0303709-.0369684.0627711-.0527344.0957031-.2384825.4981412-.0293917 1.0955019.46875 1.3339841l.3398437.16211 10.8984379-6.9394535c-.263272-.3070418-.592225-.5660832-.980469-.7519531.238482-.4981411.027441-1.0935489-.470703-1.3320313-.124536-.0596206-.255006-.091637-.384766-.0976562zm2.435547 2.8652343a.94188849 1 0 0 0 -.566406.1386719l-12.1171878 7.7148439a.94188849 1 0 0 0 -.3222656 1.373047.94188849 1 0 0 0 1.2910156.341797l12.1171878-7.7148441a.94188849 1 0 0 0 .322265-1.3710938.94188849 1 0 0 0 -.724609-.4824219zm-.509766 3.2753907-7.3867184 4.7050781 5.0781254 2.431641c.498141.238482 1.095501.027442 1.333984-.470704.01577-.03293.031159-.067862.042969-.101562.0192-.03086.036684-.062173.052734-.095703.238483-.498141.02744-1.095501-.470703-1.333985-.901965-.431809-.039063-2.236328-.039062-2.236328zm-7.0566402 5.3281251c-.322341.673306-.0365856 1.480394.6367187 1.802734.6733031.32234 1.4803929.036588 1.8027344-.636718z" fill="#e0e0e0"/></svg>
