<svg width="16" height="16" viewBox="0 0 16 16" fill="none" xmlns="http://www.w3.org/2000/svg"><mask id="a"><path d="M13.5 1H1v10.5zm-11 14H15V4.5z" fill="#fff"/></mask><path d="M10.755 1.795a3 3 0 0 0-4.061 1.517L4.968 6.919s-.864 1.804-1.668 1.3a1 1 0 0 0-.958 2l9.02 4.318a1 1 0 0 0 .957-2c-.902-.432-.038-2.236-.038-2.236l1.727-3.608a3 3 0 0 0-1.41-4 1 1 0 0 0-1.843-.898zM7 13a1.352 1.352 0 1 0 2.438 1.167z" fill="#e0e0e0" mask="url(#a)"/><path d="M2 13 14 3" stroke-linecap="round" stroke-width="2" stroke="#e0e0e0"/></svg>
