<svg height="16" viewBox="0 0 16 16" width="16" xmlns="http://www.w3.org/2000/svg"><path d="m12.089506 1.2353795c-.498141-.2384823-1.095292-.027987-1.333775.4701537-.01372.028981-.02341.059557-.03428.089693-.01467.023016-.02777.046925-.04071.071459-.04899-.00527-.09728-.00862-.146087-.011473-1.4730257-.6255101-3.1777024.0153376-3.8738627 1.4563251l-1.7272425 3.6078572s-.3364181.7034345-.8079671 1.1268133c-.00105.0009371-.00239.00174-.00344.00268-.2721193.1337295-.5707545.185826-.8605632.0470816-.4981411-.2384824-1.0952924-.0279876-1.3337749.4701537-.01605.033526-.029907.066894-.041944.1011828-.018769.030371-.036749.06319-.052515.096122-.2384825.4981412-.027988 1.0952923.4701537 1.3337751l9.0196437 4.318106c.498141.238482 1.095292.02799 1.333775-.470154.01577-.03293.0301-.0675.04191-.1012.0192-.03086.0365-.06257.05255-.0961.238483-.498141.02799-1.095292-.470153-1.333775-.901965-.43181-.03834-2.235739-.03834-2.235739l1.727237-3.6078618c.715447-1.4944233.08396-3.2858776-1.410461-4.0013247.238482-.4981411.02799-1.0952926-.470154-1.333775zm-5.5145786 11.3714015c-.322341.673306-.037829 1.480435.6354753 1.802775.6733031.32234 1.4804334.03783 1.8027749-.635476z" fill="#e0e0e0"/></svg>
