<?xml version="1.0" encoding="UTF-8" standalone="no"?>
<svg
   xmlns:dc="http://purl.org/dc/elements/1.1/"
   xmlns:cc="http://creativecommons.org/ns#"
   xmlns:rdf="http://www.w3.org/1999/02/22-rdf-syntax-ns#"
   xmlns:svg="http://www.w3.org/2000/svg"
   xmlns="http://www.w3.org/2000/svg"
   xmlns:sodipodi="http://sodipodi.sourceforge.net/DTD/sodipodi-0.dtd"
   xmlns:inkscape="http://www.inkscape.org/namespaces/inkscape"
   height="32"
   viewBox="0 0 32 32"
   width="32"
   version="1.1"
   id="svg4"
   sodipodi:docname="NS.svg"
   inkscape:version="0.92.5 (2060ec1f9f, 2020-04-08)">
  <metadata
     id="metadata10">
    <rdf:RDF>
      <cc:Work
         rdf:about="">
        <dc:format>image/svg+xml</dc:format>
        <dc:type
           rdf:resource="http://purl.org/dc/dcmitype/StillImage" />
        <dc:title></dc:title>
      </cc:Work>
    </rdf:RDF>
  </metadata>
  <defs
     id="defs8" />
  <sodipodi:namedview
     pagecolor="#ffffff"
     bordercolor="#666666"
     borderopacity="1"
     objecttolerance="10"
     gridtolerance="10"
     guidetolerance="10"
     inkscape:pageopacity="0"
     inkscape:pageshadow="2"
     inkscape:window-width="1848"
     inkscape:window-height="1016"
     id="namedview6"
     showgrid="false"
     inkscape:zoom="7.375"
     inkscape:cx="8.2156816"
     inkscape:cy="2.9173314"
     inkscape:window-x="72"
     inkscape:window-y="27"
     inkscape:window-maximized="1"
     inkscape:current-layer="svg4" />
  <rect
     style="fill:none;fill-opacity:1;stroke:none;stroke-width:50.79999924;stroke-linejoin:round;stroke-miterlimit:4;stroke-dasharray:none;stroke-dashoffset:0;stroke-opacity:1"
     id="rect853"
     width="87.18644"
     height="38.237289"
     x="-54.372883"
     y="-5.2881355" />
  <rect
     style="opacity:0.98000004;fill:#d20003;fill-opacity:1;stroke:none;stroke-width:50.79999924;stroke-linejoin:round;stroke-miterlimit:4;stroke-dasharray:none;stroke-dashoffset:0;stroke-opacity:1"
     id="rect855"
     width="32.949131"
     height="33.084751"
     x="-0.13559461"
     y="-0.13559315" />
  <path
     style="fill:#ffffff;stroke-width:0.1132746;fill-opacity:1"
     d="M 4.4448434,27.038233 C 3.2283794,26.420207 2.0280548,24.27999 1.856127,22.422469 1.778621,21.585105 1.9617884,19.586671 2.2212638,18.438671 3.1972764,14.120478 5.8397974,10.389701 8.5646427,9.4829314 9.1666026,9.2826119 9.3585432,9.2667338 9.9760163,9.3661751 c 1.0046757,0.1617983 1.6907127,0.5401317 2.9941457,1.6512039 1.550975,1.322084 2.104673,1.58466 3.3416,1.58466 1.245762,0 1.783173,-0.256498 3.431847,-1.637967 1.55153,-1.300071 1.939176,-1.5006285 3.024805,-1.5649559 1.105723,-0.065513 1.619116,0.084562 2.651703,0.7752039 2.908099,1.945056 5.092054,6.434223 5.346692,10.990241 0.08472,1.515756 -0.08446,2.398581 -0.704106,3.674302 -1.007074,2.073356 -2.391206,2.829711 -4.033395,2.20404 -0.746552,-0.284437 -1.132513,-0.586611 -3.146241,-2.463244 -1.378637,-1.284779 -1.761576,-1.575603 -2.647294,-2.010505 -1.473456,-0.723486 -2.229447,-0.896133 -3.924011,-0.896133 -1.611407,0 -2.41271,0.168809 -3.710372,0.781655 -1.062003,0.501551 -1.338882,0.714587 -3.3419852,2.571392 -1.8980929,1.759464 -2.5523465,2.1576 -3.6464658,2.219004 -0.5325243,0.02988 -0.7928961,-0.01622 -1.1680956,-0.206839 z M 24.001892,20.411157 c 0.611612,-0.514637 0.613269,-1.357325 0.0038,-1.966726 -0.400941,-0.40094 -1.014649,-0.469555 -1.580877,-0.176745 -0.765388,0.395796 -0.887564,1.532652 -0.228049,2.121981 0.483158,0.431738 1.305864,0.441533 1.805058,0.02149 z m -13.329643,-1.040962 0.03242,-1.104427 1.104427,-0.03241 1.104428,-0.03242 V 17.128921 16.056915 H 11.780779 10.648032 V 14.924168 13.791422 H 9.5152869 8.3825402 v 1.132746 1.132747 H 7.3064316 6.2303229 v 1.076106 1.07611 h 1.0761087 1.0761086 v 1.132745 1.132747 h 1.1286452 1.1286436 z m 10.747505,-0.996652 c 1.056563,-0.54637 1.012904,-1.96376 -0.07531,-2.445131 -0.498207,-0.22038 -0.50518,-0.22038 -1.003387,0 -0.56211,0.248647 -0.857602,0.692112 -0.857602,1.287054 0,0.451431 0.239911,0.822752 0.721187,1.116221 0.430567,0.262547 0.766001,0.274101 1.215116,0.04185 z m 4.371382,0.05459 c 0.761835,-0.288653 1.084995,-0.97137 0.828158,-1.749594 -0.172586,-0.522943 -0.684811,-0.847187 -1.339233,-0.847753 -1.144643,-10e-4 -1.6907,1.489222 -0.839436,2.290849 0.434604,0.409264 0.837783,0.500764 1.350511,0.306498 z m -2.10589,-2.320082 c 1.297817,-0.671128 0.832594,-2.54318 -0.632005,-2.54318 -0.965817,0 -1.600005,1.051489 -1.159385,1.922267 0.181794,0.359272 0.829489,0.796323 1.180121,0.796323 0.149634,0 0.424704,-0.07893 0.611269,-0.17541 z M 15.864865,10.249668 C 15.712523,10.172567 15.486814,9.9364452 15.363293,9.724946 15.16266,9.3814167 15.151594,9.2651737 15.259523,8.6350738 c 0.379961,-2.2181986 2.168768,-4.0092476 4.682129,-4.6879985 0.464451,-0.125428 1.711005,-0.3037136 2.770123,-0.3961909 2.372023,-0.2071128 2.913442,-0.3613132 3.676059,-1.0469715 0.693541,-0.6235543 0.953802,-1.095709 1.147456,-2.08167849 0.183157,-0.932523 0.559872,-1.35770713 1.199643,-1.35399011 0.685745,0.003979 1.169778,0.52039268 1.169778,1.2480229 0,1.1555949 -0.760472,2.8240398 -1.71122,3.7543468 -1.209853,1.1838399 -2.69045,1.6940295 -5.3584,1.8464137 -2.936465,0.1677214 -4.529206,0.9773586 -5.090003,2.5874002 -0.09058,0.2600538 -0.223529,0.6918996 -0.295443,0.9596589 -0.20327,0.7568312 -0.929879,1.1170152 -1.584783,0.7855812 z"
     id="path851"
     inkscape:connector-curvature="0" />
</svg>
