<svg xmlns="http://www.w3.org/2000/svg" xml:space="preserve" width="16" height="16"><path fill="#e0e0e0" d="M4 12v1c0 .552285.4477153 1 1 1-.5522847 0-1 .447715-1 1v1h1v-1h1v1H7V15C7 14.447715 6.5522847 14 6 14 6.5522847 14 7 13.552285 7 13V12H6v1H5v-1zm5 0v4h1v-1h1v1h1v-1c-.000919-.175812-.04817-.348275-.137-.5.08883-.151725.136081-.324188.137-.5v-1c0-.552285-.447715-1-1-1zm1 1h1v1h-1zM4.55 0A.85.85 0 0 0 3.7.85V8.5a.85.85 0 0 0 .85.85h6.8A.85.85 0 0 0 12.2 8.5V.85A.85.85 0 0 0 11.35 0ZM8.5 1.2 8.782 2.329 9.127 2.469 10.121 1.872 10.828 2.579 10.23 3.576 10.373 3.918 11.5 4.2v1L10.371 5.482 10.231 5.826 10.828 6.821 10.121 7.528 9.124 6.93 8.781 7.073 8.501 8.2h-1L7.218 7.07 6.874 6.931 5.879 7.528 5.172 6.821 5.77 5.824 5.627 5.481 4.5 5.2v-1L5.63 3.918 5.769 3.574 5.172 2.579 5.879 1.872 6.876 2.47 7.219 2.327 7.5 1.2Z"/><circle cx="8" cy="4.675" r="1" fill="#e0e0e0"/><path fill="#e0e0e0" d="m 2,1.36 v 7.65 a 1.7,1.7 0 0 0 1.7,1.7 h 8.5 a 1.7,1.7 0 0 0 1.7,-1.7 V 1.36 H 13.05 V 9.01 A 0.85,0.85 0 0 1 12.2,9.86 H 3.7 A 0.85,0.85 0 0 1 2.85,9.01 V 1.36 Z"/></svg>
