<svg height="16" viewBox="0 0 16 16" width="16" xmlns="http://www.w3.org/2000/svg"><path d="m5.0534707 10.652714q0 .729229-.4538398 1.253141-.4538403.516832-1.0868283.516832h-1.1943162q-.6389592 0-1.1047425-.509753-.47175502-.509751-.47175502-1.26022v-5.5223119q0-.7575473.47175502-1.2672998.4717549-.5097517 1.1047425-.5097517h1.1943162q.6270165 0 1.0868283.516832.4538398.5168313.4538398 1.2602195zm-1.0808559-.233636v-5.0550395q0-.5734707-.3344086-.8141867-.1074887-.0849591-.2567782-.0778788h-.9912826q-.2567779 0-.4120391.2690357-.1552611.2690357-.1552611.6230298v5.0550395q0 .559311.3164938.807108.1074885.08496.2508064.08496h.9912826q.2746925 0 .4359254-.276116.1552614-.276115.1552614-.61595z" fill="#f00"/><path d="m9.9872948 12.451006h-1.0427362l-1.4698137-3.9222572h-.7931457v3.9222572h-1.0094573v-9.076416h2.739956q.5435541 0 .9318066.4601926.3882524.4601933.3882524 1.1540217v2.1239667q0 1.0053443-.6766682 1.3168588-.2107668.099119-.4659043.099119zm-1.2590481-5.64267v-1.5858953q0-.4743524-.2884169-.6867495-.088743-.070798-.2052192-.063719h-1.5530114v2.9452329h1.7194053q.2828702-.00708.3161488-.389394.011093-.1132781.011093-.2194752z" fill="#008000"/><path d="m10.201004 3.7285848q0-.4106342.529158-.3681546.126777.014161.209458.014161v.00708h.115753l1.692202 4.9205216 1.697714-4.9205216h.06063v-.00708h.463013q.198434 0 .297651.212397.03307.063719.03307.1415978v8.694102h-1.01422v-5.6001914l-1.058314 3.2284284h-.953584l-1.058315-2.9310723v5.3028353h-1.014218z" fill="#00f"/></svg>
