<svg height="32" viewBox="0 0 32 32" width="32" xmlns="http://www.w3.org/2000/svg"><g stroke-width=".13278"><path d="m0 0h31.999999v31.999999h-31.999999z" fill="#808080"/><path d="m21.311203 23.687966c.610788 0 1.155187.292116 1.500415.796681l-.544399.478008c-.185892-.318672-.544398-.517842-.92946-.517842-.584232 0-1.075519.478008-1.075519 1.048962 0 .570955.478008 1.048963 1.075519 1.048963.385062 0 .73029-.19917.92946-.517842l.544399.478008c-.33195.504564-.889627.79668-1.500415.79668-.995851 0-1.805809-.809958-1.805809-1.805809 0-.99585.809958-1.805809 1.805809-1.805809zm-2.46971-.79668v-1.792531h.358507l.876348 1.181742v-1.181742h.358506v1.792531h-.358506l-.889626-1.195021v1.195021zm.146058 1.633195h-1.06224v2.655601h-.730291v-2.655601h-1.075518v-.717013h2.868049zm-4.434854 2.655601h.756846v-3.372614h-.756846zm-1.407469-6.081327h1.513693v.385062h-.557677v1.407469h-.385062v-1.407469h-.570954zm-2.841494 5.138589.717013-2.443154h.59751l.717012 2.443154.650623-2.443154h.73029l-.969294 3.385892h-.809959l-.624066-2.230705-.624067 2.230705h-.809958l-.9560166-3.372614h.7302904s.6506222 2.429876.6506222 2.429876zm1.566805-5.138589v1.792531h-.358506l-.889627-1.195021v1.195021h-.358506v-1.792531h.358506l.876349 1.181742v-1.181742zm-5.9485474.59751v1.195021h-.3585062v-1.792531h.3585062l.8763485 1.181742v-1.181742h.3717842v1.792531h-.3585062zm1.0489626 3.425726h.026556c1.2879668.225726 1.5402489.557676 1.5402489 1.062241 0 .703734-.5709543 1.075518-1.6464729 1.075518-.7302905 0-1.3012448-.26556-1.4738589-.358506l.3186722-.570954c.146058.09295.5842323.318672 1.2082987.318672.7701244 0 .8896265-.26556.9029045-.438174.013278-.292116-.3717842-.358506-1.0489626-.478008-.9692946-.172615-1.3410788-.438175-1.3410788-.969295 0-.6639.7701245-1.009129 1.5004149-1.009129.5975104 0 1.1419087.19917 1.3012448.26556l-.2390042.584233c-.1593361-.06639-.5975103-.239004-1.0356846-.239004-.3850622 0-.6506224.06639-.7568464.19917-.06639.07967-.06639.146058-.06639.185892.039834.239004.3983403.305394.8099584.371784zm1.5535269-2.230705h.3983403v-1.792531h-.3983403zm2.6688799-14.0082986c0-.7435685.59751-1.3410789 1.341079-1.3410789.743568 0 1.341078.5975104 1.341078 1.3410789 0 .7435684-.59751 1.3410786-1.341078 1.3410786-.743569 0-1.341079-.5975102-1.341079-1.3410786zm3.518672-3.1468879h-2.084647c-.663901 0-1.314523.2655601-1.779253.7435684-.478009.4647303-.743569 1.1153527-.743569 1.7792531v6.984232c0 .677179.26556 1.301245.743569 1.779253.46473.478009 1.115352.743569 1.779253.743569h2.084647c0-.01328 0-12.0298755 0-12.0298755zm1.048962 13.1717835h-3.133609c-2.031536 0-3.6780086-1.646473-3.6780086-3.678008v-6.970954c0-2.0315352 1.6464726-3.6780082 3.6780086-3.6780082h3.133609c.05311 0 .106225.053112.106225.106224v14.1145222c0 .06639-.05311.106224-.106225.106224zm1.606639 2.522822h-1.035684v.385062h.956016v.318672h-.956016v.424897h1.022406v.33195h-1.39419v-1.792531h1.39419zm2.775104-10.409958c-.79668 0-1.447303.650622-1.447303 1.447303 0 .79668.650623 1.447302 1.447303 1.447302.796681 0 1.447303-.650622 1.447303-1.447302 0-.796681-.650622-1.447303-1.447303-1.447303zm-.53112 7.887136h-2.20415c-.05311 0-.106224-.05311-.106224-.106224v-14.1278002c0-.053112.03983-.092946.09295-.092946h2.217428c2.031535 0 3.678008 1.646473 3.678008 3.6780082v6.984232c0 2.031535-1.646473 3.66473-3.678008 3.66473zm3.107054 2.562656h-.385063v1.035685h.385063c.292116 0 .517842-.239005.517842-.517843s-.225726-.517842-.517842-.517842zm-.01328 1.420747h-.743569v-1.792531h.743569c.504564 0 .916182.39834.916182.889626 0 .491287-.411618.902905-.916182.902905zm3.146888.916182h.703734v3.372614h-.703734v-1.341078h-1.580083v1.341078h-.703735v-3.372614h.703735v1.327801h1.580083zm-.1195-2.376763c-.305395 0-.557677.252282-.557677.557676s.252282.557677.557677.557677c.305394 0 .557676-.252283.557676-.557677s-.252282-.557676-.557676-.557676zm0 1.513693c-.531121 0-.956017-.424896-.956017-.956017 0-.53112.424896-.956016.956017-.956016.53112 0 .956016.424896.956016.956016 0 .531121-.424896.956017-.956016.956017zm1.274688 4.235684h-.06639v-.26556h-.106224v-.06639h.278838v.06639h-.106224zm.451453 0v-.252282l-.09295.252282h-.05311l-.092945-.252282v.252282h-.05311v-.33195h.09295l.07967.239004.07967-.239004h.09295v.33195z" fill="#fff"/></g></svg>
