<svg height="32" preserveAspectRatio="xMidYMid meet" viewBox="0 0 25.6 25.6" width="32" xmlns="http://www.w3.org/2000/svg"><path d="m0 0h25.6v25.6h-25.6z" fill="#808080"/><g fill="#fff" transform="matrix(.00105056 0 0 -.00105056 2.293856 20.948669)"><path d="m7502 8268 3-7133 1610-511 1610-511 5 6071c6 5732 7 6076 23 6156 24 117 45 184 77 257 111 246 302 348 535 283 341-94 537-342 609-770 33-199 36-402 36-2823v-2408l95-45c207-96 482-193 698-244 1346-317 2346 326 2682 1724 94 392 133 814 121 1329-16 723-96 1277-255 1762-251 771-705 1364-1411 1844-601 408-1296 718-2420 1079-1411 453-2791 830-3758 1027-123 25-233 45-243 45-19 0-19-130-17-7132z"/><path d="m5150 6173c-949-337-1986-706-2305-819-839-298-921-328-1120-409-569-231-1056-493-1317-709-95-79-181-186-233-291-65-130-78-193-73-345 4-107 9-137 35-207 57-157 175-319 331-456 216-189 601-386 977-502 66-20 190-59 275-85 1610-506 3265-621 4930-342l225 38 3 842c1 471-2 842-7 842-4 0-170-59-367-131-1390-506-1438-521-1729-573-593-107-1222-76-1530 74-182 88-234 186-165 306 51 90 181 185 350 256 41 17 833 302 1758 634 926 331 1686 604 1688 607 2 2 3 427 2 944l-3 940z"/><path d="m14500 5964c-947-52-2024-252-2922-541l-238-77v-973c0-623 3-973 10-973 9 0 350 120 2380 835 1122 396 1171 413 1315 450 732 192 1647 146 1910-96 76-70 93-134 55-209-47-92-145-170-311-249-57-27-520-198-1029-379-509-182-1325-472-1815-647-1485-529-2479-883-2497-890-17-7-18-61-18-947 0-891 1-940 18-933 20 8 2772 996 6066 2179 560 202 1082 394 1160 427 428 184 821 428 1035 640 198 196 281 370 281 584 0 228-85 402-296 604-180 174-501 364-834 494-172 67-733 259-910 311-661 194-1334 310-2180 377-130 10-1046 20-1180 13z"/></g></svg>
