<svg height="32" viewBox="0 0 32.000001 32" width="32" xmlns="http://www.w3.org/2000/svg"><path d="m0 0h32v32h-32z" fill="#808080"/><g fill="#fefefe" transform="matrix(.03643498 0 0 .03643498 2.999999 5.652466)"><path d="m178.8 564h-32.8l-56.4-78-56.8 78h-32.8l72.8-100.4-66.8-92.4h32.8l50.8 70 50.8-70h32.8l-67.2 92.4zm170.4-54.8c0 16.8-5.6 30.4-16.8 40s-27.2 14.8-48 14.8h-90v-86h-43.2l18-24.8h25.2v-82h86.4c19.6 0 34.4 4.8 44.8 14s15.6 21.6 15.6 36.4c0 18.4-8.4 32.8-25.2 42 10.8 4 18.8 10.4 24.4 18 6 7.6 8.8 17.2 8.8 27.6zm-125.6-55.6h55.2c11.2 0 19.6-2.4 25.2-7.6 5.6-4.8 8.4-12.4 8.4-22.4 0-8.4-2.8-15.2-8.8-20-5.6-4.8-14-7.2-24.8-7.2h-55.2zm96 54.8c0-10-3.2-18-9.2-22.8-6-5.2-15.2-7.6-27.2-7.6h-59.6v60.4h59.2c11.6 0 20.8-2.8 27.2-7.6 6.4-5.2 9.6-12.8 9.6-22.4zm228-40.8c0 14.8-2 28.8-6.4 40.8s-10.8 22.8-19.2 32c-8.8 9.2-18.8 16.4-30 20.8-11.2 4.8-24 6.8-38.4 6.8-14 0-27.2-2.4-38.4-6.8-11.2-4.8-21.2-11.6-30-20.8s-15.2-20-19.6-32-6.4-26-6.4-40.8 2-28.8 6.4-40.8 10.8-23.2 19.6-32.4c8.4-9.2 18.4-16 30-20.8 11.2-4.4 24.4-6.8 38.4-6.8s26.8 2.4 38.4 6.8c11.2 4.4 21.6 11.6 30 20.8s15.2 20.4 19.2 32.4 6.4 25.6 6.4 40.8zm-158 0c0 22.8 6 40.8 17.6 54s26.8 20 46.4 20c19.2 0 34.8-6.8 46.4-20s17.2-31.2 17.2-54-5.6-41.2-17.2-54.4-27.2-20-46.4-20-34.8 6.8-46.4 20c-11.6 13.6-17.6 31.6-17.6 54.4zm250.8-4 67.2-92.4h-32.8l-50.8 70-50.8-70h-32.8l67.2 92.4-72.8 100.4h32.8l56.4-78 56.8 78h32.8z"/><path d="m356.8 128.8s.4 0 0 0c48.4 36.8 130.4 127.2 105.6 152.8-28.4 24.8-65.2 39.6-105.6 39.6s-77.6-14.8-105.6-39.6c-25.2-25.6 57.2-116 105.2-152.4 0-.4.4-.4.4-.4zm83.6-105.2c-24.4-14.8-51.2-23.6-83.6-23.6s-59.2 8.8-83.6 23.6c-.4 0-.4.4-.4.8s.4.4.8.4c31.2-6.8 78.4 20 82.8 22.8h.4.4c4.4-2.8 51.6-29.6 82.8-22.8.4 0 .8 0 .8-.4s0-.8-.4-.8zm-196 22.4c-.4 0-.4.4-.8.4-29.2 29.2-47.2 69.6-47.2 114 0 36.4 12.4 70.4 32.8 97.2 0 .4.4.4.8.4s.4-.4 0-.8c-12.4-38 50.4-129.6 82.8-168l.4-.4c0-.4 0-.4-.4-.4-49.2-48.8-65.6-43.6-68.4-42.4zm156.4 42-.4.4s0 .4.4.4c32.4 38.4 94.8 130 82.8 168v.8c.4 0 .8 0 .8-.4 20.4-26.8 32.8-60.8 32.8-97.2 0-44.4-18-84.8-47.6-114-.4-.4-.4-.4-.8-.4-2.4-.8-18.8-6-68 42.4z"/></g></svg>
