<svg height="16" viewBox="0 0 16 16" width="16" xmlns="http://www.w3.org/2000/svg"><path d="m1 5v2h8 1c0-.554.446-1 1-1h2c.554 0 1 .446 1 1h1v-2z" fill="#9dff70"/><path d="m1 3v2h14v-2h-1.589844c-2.86436 1.357608-6.9481434 1.30996-10.347656 0z" fill="#ffeb70"/><path d="m1 2v1h2.0625c-.7241713-.2790504-1.419865-.6077805-2.0625-1zm14 0c-.465784.3952185-1.005424.7230054-1.589844 1h1.589844z" fill="#ff7070"/><path d="m1 7v2h2 1 5c-.554 0-1-.446-1-1s.446-1 1-1zm13 0c0 .554-.446 1-1 1h-1c0 .554-.446 1-1 1h4v-2z" fill="#70ffb9"/><path d="m1 9v2h2c-.554 0-1-.446-1-1s.446-1 1-1zm3 0c.554 0 1 .446 1 1s-.446 1-1 1h11v-2h-4-2z" fill="#70deff"/><path d="m1 13v-2h14v2h-1.589844c-2.86436-1.357608-6.9481434-1.30996-10.347656 0z" fill="#9f70ff"/><path d="m1 14v-1h2.0625c-.7241713.27905-1.419865.60778-2.0625 1zm14 0c-.465784-.395219-1.005424-.723005-1.589844-1h1.589844z" fill="#ff70ac"/></svg>
