<svg height="16" viewBox="0 0 16 16" width="16" xmlns="http://www.w3.org/2000/svg"><g transform="translate(0 -1036.4)"><ellipse cx="3" cy="1039.4" fill="#6e6e6e"/><path d="m3 1c-1.1046 0-2 .89543-2 2v10c0 1.1046.89543 2 2 2h10c1.1046 0 2-.89543 2-2v-10c0-1.1046-.89543-2-2-2zm0 1h10c.55228.0000096.99999.44772 1 1v10c-.00001.55228-.44772.99999-1 1h-10c-.55228-.00001-.99999-.44772-1-1v-10c.0000096-.55228.44772-.99999 1-1zm4 3-3 3 3 3zm2 0v6l3-3z" fill="#a5b7f3" fill-opacity=".98824" fill-rule="evenodd" transform="translate(0 1036.4)"/></g></svg>
