<svg height="16" viewBox="0 0 16 16" width="16" xmlns="http://www.w3.org/2000/svg"><linearGradient x2="0" y2="16" gradientUnits="userSpaceOnUse" id="a"><stop offset=".1875" stop-color="#ff4545"/><stop stop-color="#ffe345"/><stop offset=".3125" stop-color="#ffe345"/><stop stop-color="#80ff45"/><stop offset=".4375" stop-color="#80ff45"/><stop stop-color="#45ffa2"/><stop offset=".5625" stop-color="#45ffa2"/><stop stop-color="#45d7ff"/><stop offset=".6875" stop-color="#45d7ff"/><stop stop-color="#8045ff"/><stop offset=".8125" stop-color="#8045ff"/><stop stop-color="#ff4596"/></linearGradient><path d="M12 11a3 3 0 0 0 .414-5.969 4.5 5 0 0 0-8.824 0 3 3 0 0 0 .414 5.967zm-8 1a1 1 0 0 0 0 2 1 1 0 0 0 0-2zm8 0a1 1 0 0 0 0 2 1 1 0 0 0 0-2zm-4 1a1 1 0 0 0 0 2 1 1 0 0 0 0-2z" fill="url(#a)"/></svg>
