<svg height="16" viewBox="0 0 16 16" width="16" xmlns="http://www.w3.org/2000/svg"><path d="m13 0-3 4h1.9473c-.1385 1.3203-.5583 1.9074-1.084 2.2754-.64426.451-1.7129.60547-2.9629.73047s-2.6814.22053-3.9121 1.082c-.89278.62493-1.5321 1.6522-1.8184 3.0957a2 2 0 0 0 -1.1699 1.8164 2 2 0 0 0 2 2 2 2 0 0 0 2-2 2 2 0 0 0 -.84961-1.6328c.19235-.88496.55306-1.3373.98633-1.6406.64426-.451 1.7129-.60547 2.9629-.73047s2.6814-.22053 3.9121-1.082c1.0528-.73697 1.7552-2.032 1.9375-3.9141h2.0508l-3-4z" fill="#fc9c9c" fill-opacity=".99608"/></svg>
