<svg xmlns="http://www.w3.org/2000/svg" width="16" height="16"><g fill="#fc7f7f"><path d="m15.209 5.934c-.018.574-.181 1.149-.521 1.662-.594.891-1.588 1.424-2.661 1.424-.343 0-.681-.055-1.002-.162l-2.169 2.169c.061.185.104.374.132.565.117.844-.102 1.684-.616 2.363-.515.681-1.263 1.12-2.107 1.236-.113.016-.224.02-.335.023.469.557 1.201.872 1.975.765 1.2-.167 2.036-1.274 1.87-2.473-.045-.326-.163-.639-.346-.913l3.164-3.163c1.008.67 2.369.396 3.039-.612.625-.939.422-2.176-.423-2.884z"/><path d="m13.452 4.173c-.005.599-.173 1.204-.529 1.738-.593.893-1.588 1.426-2.66 1.426-.344 0-.682-.055-1.003-.162l-2.169 2.169c.062.185.105.374.132.565.118.844-.101 1.684-.615 2.363-.514.681-1.262 1.12-2.107 1.237-.09.013-.179.014-.269.019.47.5 1.165.774 1.896.673 1.2-.166 2.037-1.274 1.87-2.472-.045-.327-.164-.64-.346-.913l3.165-3.164c1.008.67 2.368.396 3.039-.612.619-.931.423-2.157-.404-2.867z"/><path d="m8.432.09c-.651-.004-1.27.283-1.689.78l1.397 2.02-1.57.6-3.164 3.163c-1.008-.67-2.369-.396-3.039.612-.67 1.007-.396 2.369.611 3.039.274.183.586.301.912.346.167 1.199 1.274 2.036 2.473 1.87 1.199-.167 2.036-1.274 1.869-2.473-.044-.326-.163-.639-.345-.913l3.164-3.164c1.008.67 2.369.396 3.039-.612.671-1.008.397-2.368-.61-3.039-.274-.182-.587-.3-.913-.345-.152-1.068-1.056-1.867-2.135-1.884zm-8.285 1.573.854 4.291 1.242-.467zm2.457-1.549.854 4.291 1.241-.466zm2.854-.114.632 3.124 1.242-.466z"/></g></svg>