<svg height="16" viewBox="0 0 16 16" width="16" xmlns="http://www.w3.org/2000/svg"><g fill="#e0e0e0"><path d="m4.9883 1039.4c-.5469.01-.98717.4511-.98828.998v8c.0001163.7986.89011 1.275 1.5547.8321l6-4c.59362-.3959.59362-1.2682 0-1.6641l-6-4c-.1678-.1111-.3652-.1689-.56641-.166z" fill-rule="evenodd" transform="matrix(.59321602 0 0 .59321602 -1.220314 -611.14809)"/><path d="m4.9883 1039.4c-.5469.01-.98717.4511-.98828.998v8c.0001163.7986.89011 1.275 1.5547.8321l6-4c.59362-.3959.59362-1.2682 0-1.6641l-6-4c-.1678-.1111-.3652-.1689-.56641-.166z" fill-rule="evenodd" transform="matrix(.59321602 0 0 .59321602 7.525472 -610.94451)"/><rect height=".542373" ry=".271186" width="9.559322" x="3.005846" y="8.128074"/></g></svg>
