<svg enable-background="new 0 0 16 16" height="16" viewBox="0 0 16 16" width="16" xmlns="http://www.w3.org/2000/svg"><path d="m5.375 13c-.758 0-1.375-.628-1.375-1.4v-7.2c0-.272.078-.539.226-.77.411-.63 1.304-.812 1.918-.391l5.249 3.6c.148.101.278.232.38.39.416.64.244 1.508-.382 1.933l-5.247 3.601c-.231.155-.496.237-.769.237zm.001-9c-.124 0-.24.065-.311.173-.042.066-.065.146-.065.227v7.2c0 .298.34.498.58.336l5.246-3.6c.182-.124.229-.375.107-.563-.028-.044-.063-.08-.104-.107l-5.251-3.603c-.061-.042-.13-.063-.202-.063z" fill="#e0e0e0"/></svg>