<svg xmlns="http://www.w3.org/2000/svg" width="16" height="16"><path fill="#e0e0e0" d="m7 1-.565 2.258a4.947 4.947 0 0 0-.689.28L3.758 2.343 2.344 3.758l1.195 1.994c-.112.221-.207.45-.285.685L1 7v2l2.258.564c.048.15.115.292.177.436H4c.54-.684 1.222-1.246 2-1.596a2.037 2.037 0 1 1 4 0A4.766 4.766 0 0 1 12 10h.58c.064-.145.132-.287.182-.438L15.014 9V7l-2.257-.565a4.992 4.992 0 0 0-.28-.687l1.194-1.99-1.414-1.414-1.994 1.195a5.012 5.012 0 0 0-.686-.285L9.016 1h-2zm1 6a1 1 0 0 0-1 1v2.174A3 3 0 0 0 5 13h1v2h1v-2h2v2h1v-2h1a3 3 0 0 0-2-2.826V7.998a1 1 0 0 0-1-1z"/></svg>