<!DOCTYPE svg PUBLIC "-//W3C//DTD SVG 1.1//EN" "http://www.w3.org/Graphics/SVG/1.1/DTD/svg11.dtd">
<!-- Uploaded to: SVG Repo, www.svgrepo.com, Transformed by: SVG Repo Mixer Tools -->
<svg fill="#f500c8" width="64px" height="64px" viewBox="-4.16 -4.16 40.32 40.32" version="1.1" xmlns="http://www.w3.org/2000/svg" stroke="#f500c8" transform="rotate(0)" stroke-width="0.8640000000000001">
<g id="SVGRepo_bgCarrier" stroke-width="0"/>
<g id="SVGRepo_tracerCarrier" stroke-linecap="round" stroke-linejoin="round" stroke="#CCCCCC" stroke-width="3.2"> <title>tilde</title> <path d="M0 16q0 0.96 0.672 1.632t1.6 0.672 1.632-0.672 0.672-1.632q0-1.888 1.344-3.232t3.232-1.344 3.232 1.344 1.344 3.232q0 2.496 1.216 4.608t3.328 3.328 4.576 1.216 4.608-1.216 3.328-3.328 1.216-4.608q0-0.928-0.672-1.6t-1.6-0.672-1.632 0.672-0.672 1.6q0 1.888-1.344 3.232t-3.232 1.344-3.232-1.312-1.344-3.264q0-2.464-1.216-4.576t-3.328-3.328-4.576-1.216-4.608 1.216-3.328 3.328-1.216 4.576z"/> </g>
<g id="SVGRepo_iconCarrier"> <title>tilde</title> <path d="M0 16q0 0.96 0.672 1.632t1.6 0.672 1.632-0.672 0.672-1.632q0-1.888 1.344-3.232t3.232-1.344 3.232 1.344 1.344 3.232q0 2.496 1.216 4.608t3.328 3.328 4.576 1.216 4.608-1.216 3.328-3.328 1.216-4.608q0-0.928-0.672-1.6t-1.6-0.672-1.632 0.672-0.672 1.6q0 1.888-1.344 3.232t-3.232 1.344-3.232-1.312-1.344-3.264q0-2.464-1.216-4.576t-3.328-3.328-4.576-1.216-4.608 1.216-3.328 3.328-1.216 4.576z"/> </g>
</svg>