<svg xmlns="http://www.w3.org/2000/svg" width="16" height="16"><path fill="#e0e0e0" d="m 3.9999999,3 c 0.552285,0 1,0.4477153 1,1 v 8 c 0,0.552285 -0.447715,1 -1,1 h -1 c -0.552285,0 -1,-0.447715 -1,-1 V 4 c 0,-0.5522847 0.447715,-1 1,-1 z M 13.025,3.002 C 13.566721,3.0155465 13.999086,3.45811 14,4 v 8 c 3.15e-4,0.838862 -0.970163,1.305289 -1.625,0.781 l -5.0000001,-4 c -0.4989606,-0.4003069 -0.4989606,-1.1596931 0,-1.56 l 5.0000001,-4 c 0.184073,-0.1473468 0.41429,-0.2249125 0.65,-0.219 z"/></svg>
