<svg width="16" height="16" viewBox="0 0 16 16" xmlns="http://www.w3.org/2000/svg"><g fill="none" stroke="#000" stroke-width="2" opacity=".8" stroke-linejoin="round"><circle cx="8" cy="8" r="2"/><path d="M8 1a7 7 0 00-4.982 11.998H1.911v2h4a1 1 0 00.97-1.242l-1-4-1.94.486.28 1.121a5 5 0 117.223.168l1.416 1.416A7 7 0 008 1z"/></g><g fill="#f9f9f9"><circle cx="8" cy="8" r="2"/><path d="M8 1a7 7 0 00-4.982 11.998H1.911v2h4a1 1 0 00.97-1.242l-1-4-1.94.486.28 1.121a5 5 0 117.223.168l1.416 1.416A7 7 0 008 1z"/></g></svg>
