<svg height="16" viewBox="0 0 16 16" width="16" xmlns="http://www.w3.org/2000/svg"><path d="m1.0761719 11a7 7 0 0 0 .609375 2h12.6308591a7 7 0 0 0 .609375-2h-9.925781c0 .554-.446 1-1 1h-1c-.554 0-1-.446-1-1z" fill="#9f70ff"/><path d="m1.0722656 9a7 7 0 0 0 -.0722656 1 7 7 0 0 0 .0761719 1h.9238281c0-.554.446-1 1-1h1c.554 0 1 .446 1 1h9.925781a7 7 0 0 0 .074219-1 7 7 0 0 0 -.072266-1h-2.927734-1c0 .554-.446 1-1 1h-2c-.554 0-1-.446-1-1z" fill="#70deff"/><path d="m1.6757812 7a7 7 0 0 0 -.6035156 2h5.9277344c0-.554.446-1 1-1h1c0-.554.446-1 1-1zm10.3242188 0c.554 0 1 .446 1 1s-.446 1-1 1h2.927734a7 7 0 0 0 -.603515-2z" fill="#70ffb9"/><path d="m3.1035156 5a7 7 0 0 0 -1.4277344 2h12.6484378a7 7 0 0 0 -1.425781-2z" fill="#9dff70"/><path d="m8 3a7 7 0 0 0 -4.8964844 2h9.7949224a7 7 0 0 0 -4.898438-2z" fill="#ffeb70"/></svg>
