<svg xmlns="http://www.w3.org/2000/svg" xmlns:xlink="http://www.w3.org/1999/xlink" width="16" height="16"><defs><radialGradient xlink:href="#a" id="b" cx="12.039" cy="6.909" r="5.11" fx="11.285" fy="6.896" gradientTransform="matrix(1.19638 -1.2376 1.21246 1.17207 -11.159 13.888)" gradientUnits="userSpaceOnUse"/><radialGradient xlink:href="#a" id="d" cx="12.039" cy="6.909" r="5.11" fx="11.285" fy="6.896" gradientTransform="matrix(1.19638 -1.2376 1.21246 1.17207 -11.159 13.888)" gradientUnits="userSpaceOnUse"/><linearGradient id="a"><stop offset=".108" stop-color="#ffdd65"/><stop offset="1" stop-color="#ffdd65" stop-opacity="0"/></linearGradient><path id="c" fill="#ffdd65" d="M7.56 10.905L6.355 5.79l4.085 3.304z"/></defs><path fill="#ffdd65" d="M39.087-34.74a.507.507 0 00-.431.247l-3.045 5.074a.507.507 0 00.431.77h6.09a.507.507 0 00.435-.769l-3.045-5.074a.507.507 0 00-.431-.246zm-.507 1.523h1.015v2.538H38.58zm0 3.045h1.015v1.015H38.58zM41.79-25.317a7 7 0 00-7 7 7 7 0 007 7 7 7 0 007-7 7 7 0 00-7-7zm0 2a5 5 0 015 5 5 5 0 01-5 5 5 5 0 01-5-5 5 5 0 015-5z"/><path fill="none" stroke="#ffdd65" stroke-linecap="round" stroke-linejoin="round" stroke-width="2" d="M38.941-19.26a3 3 0 012.76-2.056 3 3 0 012.876 1.89"/><path fill="#ffdd65" stroke="#fff" stroke-linecap="round" stroke-linejoin="round" stroke-width="1.7" d="M40.79-17.5l1-5 1 5z" paint-order="stroke markers fill"/><circle cx="41.789" cy="-16.317" r="2" fill="#ffdd65"/><g transform="translate(47.69 -41.492)"><path fill="none" stroke="url(#b)" stroke-linecap="round" stroke-linejoin="round" stroke-width="1.797" d="M4.74 9.936a3.757 3.757 0 01.176-4.033 3.757 3.757 0 013.73-1.544 3.757 3.757 0 012.976 2.727"/><use xlink:href="#c" paint-order="stroke markers fill"/><circle cx="2.298" cy="13.837" r="1.797" fill="#ffdd65" transform="rotate(-32.152)"/><circle cx="8" cy="8" r="6.323" fill="none" stroke="#ffdd65" stroke-linecap="round" stroke-linejoin="round" stroke-width="1.355" paint-order="fill markers stroke"/></g><g transform="translate(66.007 -44.302)"><path fill="none" stroke="url(#d)" stroke-linecap="round" stroke-linejoin="round" stroke-width="1.797" d="M4.74 9.936a3.757 3.757 0 01.176-4.033 3.757 3.757 0 013.73-1.544 3.757 3.757 0 012.976 2.727"/><use xlink:href="#c" paint-order="stroke markers fill"/><circle cx="2.298" cy="13.837" r="1.797" fill="#ffdd65" transform="rotate(-32.152)"/><circle cx="8" cy="8" r="6.323" fill="none" stroke="#ffdd65" stroke-linecap="round" stroke-linejoin="round" stroke-width="1.355" paint-order="fill markers stroke"/></g><path fill="#1d2229" d="M8 3a6 6 0 00-6 6 6 6 0 006 6 6 6 0 006-6 6 6 0 00-6-6zm0 2a4 4 0 014 4 4 4 0 01-4 4 4 4 0 01-4-4 4 4 0 014-4z" paint-order="fill markers stroke"/><path fill="#1d2229" d="M7 1h2v3H7z" paint-order="fill markers stroke"/><rect width="2" height="2" x="11.021" y="-6.293" fill="#1d2229" paint-order="fill markers stroke" ry=".5" transform="rotate(45)"/><rect width="6" height="1" x="5" y="1" fill="#1d2229" paint-order="fill markers stroke" ry=".5"/><circle cx="8" cy="9" r="1" fill="#1d2229" paint-order="fill markers stroke"/><path fill="#1d2229" d="M7 9h2L8 5.016z" paint-order="fill markers stroke"/><rect width="2" height="2" x="-1.707" y="5.021" fill="#1d2229" paint-order="fill markers stroke" ry=".5" transform="rotate(-45)"/><rect width="1" height="1" x="4.5" y="8.5" fill="#1d2229" paint-order="fill markers stroke" ry=".5"/><rect width="1" height="1" x="10.5" y="8.5" fill="#1d2229" paint-order="fill markers stroke" ry=".5"/><rect width="1" height="1" x="7.5" y="11.5" fill="#1d2229" paint-order="fill markers stroke" ry=".5"/><circle cx="20" cy="-21" r="6" fill="#ffdd65" paint-order="fill markers stroke"/><circle cx="20" cy="-21" r="4" fill="#fff" paint-order="fill markers stroke"/><path fill="#ffdd65" d="M19-29h2v3h-2z" paint-order="fill markers stroke"/><rect width="2" height="2" x="-1.707" y="-35.991" fill="#ffdd65" paint-order="fill markers stroke" ry=".5" transform="rotate(45)"/><rect width="6" height="1" x="17" y="-29" fill="#ffdd65" paint-order="fill markers stroke" ry=".5"/><circle cx="20" cy="-21" r="1" fill="#ffdd65" paint-order="fill markers stroke"/><path fill="#ffdd65" d="M19-21h2l-1-3.984z" paint-order="fill markers stroke"/><rect width="2" height="2" x="27.991" y="-7.707" fill="#ffdd65" paint-order="fill markers stroke" ry=".5" transform="rotate(-45)"/><rect width="1" height="1" x="16.5" y="-21.5" fill="#ffdd65" paint-order="fill markers stroke" ry=".5"/><rect width="1" height="1" x="22.5" y="-21.5" fill="#ffdd65" paint-order="fill markers stroke" ry=".5"/><rect width="1" height="1" x="19.5" y="-18.5" fill="#ffdd65" paint-order="fill markers stroke" ry=".5"/></svg>