<svg xmlns="http://www.w3.org/2000/svg" width="16" height="16"><g fill="#1d2229"><path d="m5.5 1c-.6544132 0-.6544132 1 0 1h1.5v1.0839844c-.8922826.1506673-1.7389282.5012107-2.4765625 1.0253906l-.4121094-.4121094c-.1958686-.1958686-.5111626-.1958686-.7070312 0l-.7070313.7070313c-.1958686.1958686-.1958686.5111626 0 .7070312l.4121094.4121094c-.7217849 1.0155622-1.1095154 2.2306331-1.109375 3.4765625 0 3.313708 2.6862915 6 6 6 3.313708 0 6-2.686292 6-6 .00014-1.2459294-.38759-2.4610003-1.109375-3.4765625l.412109-.4121094c.195869-.1958686.195869-.5111626 0-.7070312l-.707031-.7070313c-.195868-.1958686-.511163-.1958686-.707031 0l-.41211.4121094c-.737634-.5241799-1.5842796-.8747232-2.476562-1.0253906v-1.0839844h1.5c.654413 0 .654413-1 0-1zm2.5 4c2.209139 0 4 1.790861 4 4s-1.790861 4-4 4-4-1.790861-4-4 1.790861-4 4-4z"/><path d="m8 5.015625-.8808594 3.5117188-.00195.00195c-.3401225.6392295.104454 1.4707062.8828094 1.4707062.7783531 0 1.2229331-.8314746.8828125-1.4707031-.0006501-.0006519-.0013-.0013-.00195-.00195zM5 8.5c.277 0 .5.223.5.5s-.223.5-.5.5-.5-.223-.5-.5.223-.5.5-.5zM11 8.5c.277 0 .5.223.5.5s-.223.5-.5.5-.5-.223-.5-.5.223-.5.5-.5zM8 11.5c.277 0 .5.223.5.5s-.223.5-.5.5-.5-.223-.5-.5.223-.5.5-.5z"/></g></svg>
