<svg xmlns="http://www.w3.org/2000/svg" width="16" height="16"><g fill="#e0e0e0"><path fill-opacity=".2" d="M9 1.078v3.055a4 4 0 0 1 1.027.426L12.186 2.4A7 7 0 0 0 9 1.078zM7 1.08A7 7 0 0 0 3.814 2.4l2.159 2.159A4 4 0 0 1 7 4.13V1.079zM2.4 3.814A7 7 0 0 0 1.078 7h3.055a4 4 0 0 1 .426-1.027L2.4 3.814zM1.08 9a7 7 0 0 0 1.32 3.185l2.159-2.158A4 4 0 0 1 4.131 9H1.08zm10.787 0a4 4 0 0 1-.426 1.027l2.159 2.158A7 7 0 0 0 14.922 9h-3.055zm-5.894 2.441L3.814 13.6A7 7 0 0 0 7 14.922v-3.055a4 4 0 0 1-1.027-.426zm4.054 0A4 4 0 0 1 9 11.869v3.05a7 7 0 0 0 3.186-1.32l-2.159-2.158z"/><path d="m13.6 3.8-2.158 2.158a4 4 0 0 1 .428 1.028h3.05A7 7 0 0 0 13.6 3.8z"/></g></svg>