<svg xmlns="http://www.w3.org/2000/svg" width="16" height="16"><g fill="#e0e0e0"><path fill-opacity=".2" d="M9 1.078v3.055a4 4 0 0 1 1.027.426L12.186 2.4A7 7 0 0 0 9 1.078zM2.4 3.814A7 7 0 0 0 1.078 7h3.055a4 4 0 0 1 .426-1.027L2.4 3.814zm11.2 0-2.159 2.159A4 4 0 0 1 11.869 7h3.05a7 7 0 0 0-1.32-3.186zM1.08 9a7 7 0 0 0 1.32 3.185l2.158-2.158A4 4 0 0 1 4.13 9H1.08zm10.786 0a4 4 0 0 1-.425 1.027l2.158 2.158A7 7 0 0 0 14.921 9h-3.055zm-5.894 2.441L3.814 13.6a7 7 0 0 0 3.185 1.322v-3.055a4 4 0 0 1-1.027-.426zm4.055 0a4 4 0 0 1-1.028.428v3.05a7 7 0 0 0 3.186-1.32l-2.158-2.158z"/><path d="M7 1a7 7 0 0 0-3.186 1.32l2.159 2.159A4 4 0 0 1 7 4.05z"/></g></svg>
