<svg height="16" viewBox="0 0 16 16" width="16" xmlns="http://www.w3.org/2000/svg"><g fill="#e0e0e0"><path d="M9 1v3.055a4 4 0 0 1 1.027.426l2.159-2.159A7 7 0 0 0 9 1z"/><path d="M7 1.08A7 7 0 0 0 3.814 2.4l2.159 2.159A4 4 0 0 1 7 4.13V1.08zM2.4 3.814A7 7 0 0 0 1.078 7h3.055a4 4 0 0 1 .426-1.027L2.4 3.815zm11.2 0-2.159 2.159A4 4 0 0 1 11.869 7h3.05a7 7 0 0 0-1.32-3.186zM1.08 9a7 7 0 0 0 1.32 3.186l2.158-2.159A4 4 0 0 1 4.13 9H1.08zm10.786 0a4 4 0 0 1-.425 1.027l2.158 2.159A7 7 0 0 0 14.921 9h-3.055zm-5.894 2.441L3.814 13.6a7 7 0 0 0 3.185 1.322v-3.055a4 4 0 0 1-1.027-.426zm4.055 0a4 4 0 0 1-1.028.428v3.05a7 7 0 0 0 3.186-1.32l-2.158-2.158z" fill-opacity=".2"/></g></svg>
