<svg height="16" viewBox="0 0 16 16" width="16" xmlns="http://www.w3.org/2000/svg"><path d="m8.0000004 0c-7.63857653 0-8.0000004.36172395-8.0000004 8.0066027 0 7.6431663.32714821 7.9720723 7.9277171 7.9929163 3.4504629.00951 5.0807119-.12114 5.9272279-.475116 1.794714-.750503 2.145055-1.974798 2.145055-7.5178003 0-7.64487875-.361425-8.0066027-7.9999996-8.0066027zm-4.0341882 2.0158259c1.7899451 0 2.786201 2.0256492 1.6859585 3.4255356-.8444948 1.0744791-2.3331923 1.1725336-3.2879122.2170288-1.3527384-1.3538547-.3466043-3.6425644 1.6019537-3.6425644zm4.0869355 3.7383699c1.7899399 0 2.7862023 2.0236959 1.6859586 3.4235804-.8444989 1.0745018-2.3331926 1.1744878-3.2879123.218984-1.3527384-1.3538549-.3466055-3.6425644 1.6019537-3.6425644zm4.0615383 3.9690852c1.09547.036419 2.143101.848375 2.143101 2.113587 0 1.788519-2.569649 2.876024-3.713797 1.571993-.9034489-1.029694-.9772793-1.902694-.23834-2.842882.476145-.6058151 1.151756-.8645864 1.809036-.842698z" fill="#fff" stroke-width=".256504"/></svg>
