<svg height="16" viewBox="0 0 16 16" width="16" xmlns="http://www.w3.org/2000/svg"><path d="m7.8027344 2.7714844c-1.0905892.2029663-1.089037 1.7659969.00195 1.9667968l2.8808595.5761719.576172 2.8808594c.231158 1.3504655 2.264924.9453327 1.960937-.390625l-.7070279-3.5371094c-.039663-.1968491-.137665-.3771998-.28125-.5175781-.138135-.1351849-.312483-.2274468-.501953-.265625l-3.5371095-.7070312c-.1291868-.0278728-.262617-.0298643-.3925781-.0058594zm-3.9941406 4.2167968c-.6571498-.0349349-1.1683412.5633914-1.03125 1.2070313l.7070312 3.5371095c.079467.394998.3882047.703736.7832031.783203l3.5371094.707031c1.3359577.303987 1.7410905-1.729779.390625-1.960937l-2.8808594-.576172-.5761719-2.8808595c-.0369237-.1982539-.1329195-.3807141-.2753906-.5234375-.1744016-.1751556-.407488-.2795227-.6542968-.2929688z" fill="#8eef97"/></svg>
