<svg height="14" viewBox="0 0 14 14" width="14" xmlns="http://www.w3.org/2000/svg"><g fill="#e0e0e0" fill-opacity=".99608"><path d="m8 1v2a4 4 0 0 1 1.5859375.328125l.7382815-1.859375a6 6 0 0 0 -2.324219-.46875zm-1 .0839844a6 6 0 0 0 -2.9453125 1.3964844l1.4121094 1.4238281a4 4 0 0 1 1.5332031-.7753907zm4.214844.8515625-.757813 1.9101562a4 4 0 0 1 .902344.984375l1.771484-.9394531a6 6 0 0 0 -1.916015-1.9550781zm-7.855469 1.2636719a6 6 0 0 0 -1.2753906 2.8085937l2.0429687-.0039063a4 4 0 0 1 .6523438-1.375zm10.216797 1.5859374-1.783203.9453126a4 4 0 0 1 .207031 1.2695312 4 4 0 0 1 -.042969.5839844l1.980469.265625a6 6 0 0 0 .0625-.8496094 6 6 0 0 0 -.423828-2.2148438zm-1.892578 3.7734376a4 4 0 0 1 -.392578.7128906l1.423828 1.4355466a6 6 0 0 0 .998047-1.878906zm-1.060547 1.4609372a4 4 0 0 1 -2.623047.980469v2a6 6 0 0 0 4.033203-1.560547z"/><path d="m6.02636 6.9888732-1.5000904 2.0001095-1.4999354 2.0001093-1.5000904-2.0001093-1.4999354-2.0001095 3.0000258.0000001z" stroke-width="1.35926"/></g></svg>
