<svg xmlns="http://www.w3.org/2000/svg" width="16" height="16"><g fill="#fc7f7f"><path d="m11.667 4.166h-3.334c-1.841 0-3.333 1.492-3.333 3.334.003 1.188.638 2.283 1.667 2.877v2.956c0 .597.317 1.146.833 1.444.254.146.54.221.833.221v.002h3.334v-.002c.293 0 .579-.075.833-.221.516-.299.833-.851.833-1.444v-2.956c1.028-.594 1.664-1.689 1.667-2.877 0-1.842-1.492-3.334-3.333-3.334zm-2.5 4.166h1.666v.834h-1.666zm-2.5-.832c0-.461.372-.834.833-.834s.833.373.833.834-.372.832-.833.832-.833-.371-.833-.832zm5.833 3.223v2.61h-.833v-.833h-.834v.833h-1.666v-.833h-.834v.833h-.833v-2.608-.725h.833v.832h.834v-.832h1.666v.832h.834v-.832h.833zm0-2.391c-.461 0-.833-.371-.833-.832s.372-.834.833-.834.833.373.833.834-.372.832-.833.832z"/><path d="m4.418 9.334h-.085v.833h-.833v-2.608-.725h.567c.323-2.072 2.104-3.668 4.266-3.668h2.445c-.473-1.263-1.682-2.166-3.111-2.166h-3.334c-1.841 0-3.333 1.492-3.333 3.334.003 1.188.638 2.283 1.667 2.877v2.956c0 .597.317 1.146.833 1.444.254.146.54.221.833.221v.002h1.334v-.929c-.538-.421-.962-.962-1.249-1.571zm-1.751-5c0-.461.372-.834.833-.834s.833.373.833.834-.372.832-.833.832-.833-.371-.833-.832z"/></g></svg>
