<svg enable-background="new 0 0 28 8" height="8" viewBox="0 0 28 8" width="28" xmlns="http://www.w3.org/2000/svg"><g fill="#5fb2ff"><path d="m6.996 0c1.104 0 2 .896 2 2v6h-2v-2h-4v2h-2v-6c0-1.104.896-2 2-2zm-4.001 4h4v-2h-4z"/><path d="m18 3c0 .368-.104.704-.279 1 .175.296.279.632.279 1.001v.999c0 1.104-.896 2-2 2h-6v-8h6c1.104 0 2 .896 2 2zm-6 0h4v-1h-4zm4 2.001h-4v.999h4z"/><path d="m21.006 2v1h3.998c1.105 0 2 .896 2 2v1c0 1.104-.895 2-2 2h-6v-2h6v-.999h-3.998c-1.104 0-2.002-.897-2.002-2v-1.001c0-1.104.898-2 2.002-2h5.998v2z"/></g></svg>
