<svg height="16" viewBox="0 0 16 16" width="16" xmlns="http://www.w3.org/2000/svg"><path d="m1 1v2h7v-2zm9 0v2h5v-2zm-9 4v2h11v-2zm0 4v2h4v-2zm6 0v2h1c-.044949-.094701-.088906-.20229-.125-.3418-.077717-.30039-.10439-.81722.16406-1.293.081489-.1441.18202-.26127.28906-.36523zm-6 4v2h8.2812c-.066517-.011548-.1231-.014758-.20117-.037109-.30195-.08645-.76491-.33245-1.0352-.80664-.23366-.4121-.24101-.84933-.18945-1.1562z" fill="#e0e0e0"/><path d="m12.216 8.598a.53334 3.2001 0 0 0 -.50976 2.2754 3.2001.53334 30 0 0 -2.2656-.71484 3.2001.53334 30 0 0 1.75 1.6016.53334 3.2001 60 0 0 -1.7461 1.5996.53334 3.2001 60 0 0 2.2578-.71094.53334 3.2001 0 0 0 .51367 2.3496.53334 3.2001 0 0 0 .51367-2.3516 3.2001.53334 30 0 0 2.2539.71094 3.2001.53334 30 0 0 -1.7441-1.5977.53334 3.2001 60 0 0 1.748-1.5996.53334 3.2001 60 0 0 -2.2617.71484.53334 3.2001 0 0 0 -.50977-2.2773z" fill="#c38ef1" stroke-width="1.0667"/></svg>
