<svg height="16" viewBox="0 0 16 16" width="16" xmlns="http://www.w3.org/2000/svg"><path d="m1 1v2h1v-1h1v-1zm12 0v1h1v1h1v-2zm-5.0371.00195c-.14254.00487-.28238.04016-.41016.10352l-6 3c-.33878.16944-.55276.51574-.55273.89453v6c-.00002576.37879.21395.72509.55273.89453l6 3c.28156.14078.61297.14078.89453 0l6-3c.33878-.16944.55276-.51574.55273-.89453v-6c.000026-.37879-.21395-.72509-.55273-.89453l-6-3c-.15022-.074574-.31679-.11017-.48438-.10352zm1.0371 2.6172 4 2v3.7637l-4-2zm-1 5.5 3.7637 1.8809-3.7637 1.8828-3.7637-1.8828zm-7 3.8809v2h2v-1h-1v-1zm13 0v1h-1v1h2v-2z" fill="#e0e0e0" fill-rule="evenodd"/></svg>
