<svg height="16" viewBox="0 0 16 16" width="16" xmlns="http://www.w3.org/2000/svg"><path d="m7.9629 1.002a1.0001 1.0001 0 0 0 -.41016.10352l-6 3a1.0001 1.0001 0 0 0 -.55273.89453v6a1.0001 1.0001 0 0 0 .55273.89453l6 3a1.0001 1.0001 0 0 0 .89453 0l6-3a1.0001 1.0001 0 0 0 .55273-.89453v-6a1.0001 1.0001 0 0 0 -.55273-.89453l-6-3a1.0001 1.0001 0 0 0 -.48438-.10352zm1.0371 2.6172 4 2v3.7637l-4-2zm-1 5.5 3.7637 1.8809-3.7637 1.8828-3.7637-1.8828z" fill="#fc7f7f" fill-opacity=".99608" fill-rule="evenodd"/></svg>
