<svg height="16" viewBox="0 0 16 16" width="16" xmlns="http://www.w3.org/2000/svg"><path d="m7.0215 1.002a1.0001 1.0001 0 0 0 -1 .875l-.58984 4.7227-.52344-1.0469a1.0001 1.0001 0 0 0 -.89453-.55273h-2a1.0001 1.0001 0 1 0 0 2h1.3828l1.7227 3.4473a1.0001 1.0001 0 0 0 1.8867-.32227l.58984-4.7227.52344 1.0449a1.0001 1.0001 0 0 0 .89453.55273h3a1.0001 1.0001 0 1 0 0-2h-2.3809l-1.7246-3.4473a1.0001 1.0001 0 0 0 -.88672-.55078zm1.9785 6.998v1 5 1h5c.55228 0 1-.44772 1-1v-5c0-.55228-.44772-1-1-1v4l-1-1-1 1v-4z" fill="#ff5f5f"/></svg>
