<svg height="16" width="16" xmlns="http://www.w3.org/2000/svg"><path d="M4.378 2.224q1.235 0 2.084.866.865.85.865 2.083 0 1.17-.881 2.036-.866.85-2.068.85-1.218 0-2.083-.85-.866-.866-.866-2.068t.866-2.051q.865-.866 2.083-.866zm.962 1.988q-.4-.4-.962-.4-.56 0-.961.4-.401.384-.401.93 0 .56.4.961.401.385.962.385.561 0 .962-.385.4-.4.4-.946 0-.56-.4-.945zm5.45-2.116h1.218L5.677 13.78H4.442Zm1.17 5.722q1.234 0 2.083.866.866.849.866 2.1 0 1.17-.882 2.035-.865.85-2.068.85-1.218 0-2.083-.85-.866-.866-.866-2.084 0-1.202.866-2.051.865-.866 2.083-.866zm.961 1.987q-.4-.4-.962-.4-.56 0-.961.4-.4.385-.4.946 0 .561.4.962.4.384.961.384.561 0 .962-.384.4-.4.4-.946 0-.56-.4-.962z" aria-label="%" style="font-weight:600;font-size:16.0277px;font-family:FreeSans;-inkscape-font-specification:'FreeSans Semi-Bold';letter-spacing:0;word-spacing:0;fill:#e0e0e0;fill-opacity:.996078;stroke-width:.400692"/></svg>
