<svg xmlns="http://www.w3.org/2000/svg" width="16" height="16" viewBox="0 0 2.4 2.4"><path fill="#e0e0e0" d="M1.237.15a.1.1 0 0 0-.067.03L.6.75H.318C.225.75.15.817.15.9v.378a.69.69 0 0 1 1.2.304V.256A.106.106 0 0 0 1.252.15zm.113 1.717a.7.7 0 0 1-.187.346l.008.008c.066.067.18.02.18-.074z"/><g fill="none" stroke="#e0e0e0" stroke-linejoin="round" stroke-width=".165"><path stroke-linecap="round" d="M1.575.675c.45.525 0 1.05 0 1.05m.3-1.35c.675.825 0 1.65 0 1.65" paint-order="markers stroke fill"/><circle cx=".675" cy="1.725" r=".54" paint-order="stroke markers fill"/><path stroke-linecap="round" d="M.675 1.41v.315H.99"/></g></svg>
