<svg height="16" viewBox="0 0 16 16" width="16" xmlns="http://www.w3.org/2000/svg"><g fill="#e0e0e0"><path d="m3 1c-1.1046 0-2 .8954-2 2v1h14v-1c0-1.1046-.89543-2-2-2zm9 1h1v1h-1zm-11 3v8c0 1.1046.89543 2 2 2h10c1.1046 0 2-.8954 2-2v-8zm5.5722656 1h3.9980464a1.1426143 1.1426143 0 0 1 1.142579 1.1425781v1.1425781h-1.712891-2.2851562v-.5703124-.5722657c0-.6310659-.5115295-1.1425781-1.1425782-1.1425781zm0 .5722656c.3155215 0 .5703125.254791.5703125.5703125v.5722657.5703124.5722657h.5722657 2.2851562v3.9980471a1.1426143 1.1426143 0 0 1 -1.1425781 1.142578h-4c.6310487 0 1.1425781-.511529 1.1425781-1.142578v-5.7128909c0-.0785019.01823-.1545692.046875-.2226562v-.0019531c.02868-.0672829.0683226-.1266374.1191406-.1777344.00097-.00096.0029352-.0010048.0039063-.0019532.0513303-.0508898.1121075-.0944618.1796875-.1230468.0683505-.028909.1437752-.0429688.2226562-.0429688zm-2.2851562 5.1406254h1.1425781v1.142578c0 .315522-.2567441.572265-.5722656.572265-.0776611 0-.15125-.016852-.21875-.044922-.00206-.000799-.0038594-.003049-.0058594-.003906-.0656506-.028192-.1236101-.067817-.1738281-.117187a.57130715.57130715 0 0 1 -.0097656-.009766c-.0490902-.050487-.0893425-.107988-.1171876-.173828-.028908-.06835-.0449218-.143776-.0449218-.222656z"/><circle cx="-23.915255" cy="3.118624" r="0"/></g></svg>
