<svg height="16" viewBox="0 0 16 16" width="16" xmlns="http://www.w3.org/2000/svg"><path d="M3 1a2 2 0 0 0-2 2v1h14V3a2 2 0 0 0-2-2zm9 1h1v1h-1zM1 5v8a2 2 0 0 0 2 2h10a2 2 0 0 0 2-2V5zm5.572 1h3.998a1.143 1.143 0 0 1 1.143 1.143v1.142H7.715V7.143C7.715 6.512 7.203 6 6.572 6zm0 .572a.57.57 0 0 1 .57.57v1.716H10v3.998a1.143 1.143 0 0 1-1.143 1.143h-4c.631 0 1.143-.511 1.143-1.143V7.143a.57.57 0 0 1 .047-.223v-.002a.562.562 0 0 1 .119-.178c.001 0 .003 0 .004-.002a.578.578 0 0 1 .18-.123.57.57 0 0 1 .222-.043zm-2.285 5.14H5.43v1.143a.573.573 0 0 1-.791.528l-.006-.004a.564.564 0 0 1-.174-.117.571.571 0 0 1-.01-.01.564.564 0 0 1-.162-.397z" fill="#e0e0e0"/></svg>
