<svg height="16" viewBox="0 0 16 16" width="16" xmlns="http://www.w3.org/2000/svg"><path d="M6 1a2 2 0 0 0-2 2v7H1v3a2 2 0 0 0 2 2h5.635l-1.584-1.584 1.414-1.414-1.414-1.414 3.535-3.535L12 8.467V5h3V3a2 2 0 0 0-2-2z" fill="#e0e0e0"/><path d="M6 1a2 2 0 0 0-2 2v7H1v3a2 2 0 1 0 4 0V3a1 1 0 0 1 2 0v3h5V5H8V3a2 2 0 0 0-2-2zM2 11h2v2a1 1 0 0 1-2 0z" fill-opacity=".2"/><path d="m13.414 12 1.414-1.414-1.414-1.414L12 10.586l-1.414-1.414-1.414 1.414L10.586 12l-1.414 1.414 1.414 1.414L12 13.414l1.414 1.414 1.414-1.414z" fill="#ff5f5f"/></svg>
