<?xml version="1.0" encoding="UTF-8" standalone="no"?>
<svg
   height="13.906603"
   width="16.9375"
   version="1.1"
   id="svg5037"
   sodipodi:docname="selector_random.svg"
   inkscape:version="1.2 (dc2aedaf03, 2022-05-15)"
   xml:space="preserve"
   xmlns:inkscape="http://www.inkscape.org/namespaces/inkscape"
   xmlns:sodipodi="http://sodipodi.sourceforge.net/DTD/sodipodi-0.dtd"
   xmlns="http://www.w3.org/2000/svg"
   xmlns:svg="http://www.w3.org/2000/svg"><defs
     id="defs5041" /><sodipodi:namedview
     id="namedview5039"
     pagecolor="#ffffff"
     bordercolor="#000000"
     borderopacity="0.25"
     inkscape:showpageshadow="2"
     inkscape:pageopacity="0.0"
     inkscape:pagecheckerboard="true"
     inkscape:deskcolor="#d1d1d1"
     showgrid="false"
     inkscape:zoom="30.547012"
     inkscape:cx="6.219921"
     inkscape:cy="9.9682417"
     inkscape:window-width="1920"
     inkscape:window-height="1051"
     inkscape:window-x="-9"
     inkscape:window-y="-9"
     inkscape:window-maximized="1"
     inkscape:current-layer="svg5037" /><path
     id="path5035"
     style="fill:#40d29f;fill-opacity:1"
     d="M 5.8945312,0 C 4.2558662,0 2.8647489,0.57341781 1.71875,1.71875 0.57341781,2.8647489 0,4.2558662 0,5.8945312 0,7.4365297 0.49561558,8.7400688 1.4882812,9.8027344 2.4816136,10.864733 3.7210327,11.485349 5.2070312,11.666016 L 4.5,12.353516 C 4.3333335,12.533515 4.25,12.749334 4.25,13 c 0,0.249333 0.089531,0.463865 0.2695312,0.644531 0.1666666,0.166667 0.3675159,0.254386 0.6035157,0.261719 C 5.3597133,13.91295 5.5693335,13.8252 5.75,13.644531 L 7.9570312,11.478516 C 8.0403645,11.381182 8.1106823,11.27425 8.1660156,11.15625 8.2220156,11.03825 8.25,10.923833 8.25,10.8125 8.25,10.687167 8.222016,10.565266 8.166016,10.447266 8.110683,10.329266 8.0403649,10.227865 7.9570316,10.144531 L 5.7910156,7.9570312 C 5.6103491,7.7763648 5.394531,7.6875 5.1445312,7.6875 c -0.2499997,0 -0.4583334,0.088865 -0.625,0.2695312 -0.1799998,0.1806665 -0.2739166,0.3890003 -0.28125,0.625 C 4.2316146,8.818031 4.3193335,9.0338492 4.5,9.2285156 l 0.6875,0.6875 C 4.201501,9.7080158 3.391765,9.2421972 2.7597656,8.5195312 2.1277663,7.797532 1.8125,6.9225302 1.8125,5.8945312 1.8125,4.7558657 2.2080008,3.7913325 3,3 3.7913325,2.2080008 4.7558657,1.8125 5.8945312,1.8125 H 7.5625 c 0.2359998,0 0.4443335,-0.090818 0.625,-0.2714844 0.1806665,-0.1806665 0.2695312,-0.3964846 0.2695312,-0.64648435 0,-0.23599976 -0.088865,-0.44433351 -0.2695312,-0.625 C 8.0068335,0.08953143 7.7984998,0 7.5625,0 Z m 1.59375,2.25 c -0.048293,0 -0.095054,0.00222 -0.140625,0.00977 -0.00713,0.00122 -0.014444,0.0025 -0.021484,0.00391 -0.00142,2.687e-4 -0.00248,-2.755e-4 -0.00391,0 -0.02521,0.00516 -0.047945,0.011991 -0.072266,0.019531 -0.0022,6.4e-4 -0.00377,0.0013 -0.00586,0.00195 C 7.1951592,2.300814 7.1469412,2.320433 7.1015581,2.345708 7.0304846,2.3852918 6.9648736,2.4370412 6.9023438,2.5 6.7358887,2.6676135 6.6503906,2.8664938 6.6503906,3.0976562 v 4.578125 c 0,0.2311618 0.085486,0.4317211 0.2519532,0.5996094 0.14483,0.1455795 0.3100475,0.2272717 0.5019531,0.2460938 0.02904,0.00285 0.059664,0.00586 0.089844,0.00586 H 10.101562 V 7.1601562 c 0,-0.3782627 0.164691,-0.7566167 0.425782,-1.0195312 0.261237,-0.2630354 0.641319,-0.4296875 1.019531,-0.4296875 h 1.333984 V 3.0996094 c 0,-0.2311623 -0.08551,-0.4280898 -0.251953,-0.5957032 C 12.50385,2.3779881 12.361223,2.2956397 12.201172,2.2636719 12.147822,2.2530199 12.094499,2.25 12.037109,2.25 Z m 3.7089848,0.9257812 c 0.20789,1e-7 0.397879,0.078518 0.542968,0.2246094 0.145117,0.1460951 0.222657,0.3375553 0.222657,0.546875 0,0.209327 -0.07739,0.4028888 -0.222657,0.5488282 -0.14558,0.1465847 -0.336042,0.2226562 -0.542968,0.2226562 -0.206925,0 -0.397535,-0.075892 -0.542969,-0.2226562 -0.145767,-0.1464377 -0.21875,-0.3404794 -0.21875,-0.5488282 0,-0.2083522 0.07317,-0.4002873 0.21875,-0.546875 0.144943,-0.1462675 0.335078,-0.2246093 0.542969,-0.2246094 z m -2.8632816,0.00195 C 8.541876,3.1777313 8.7300592,3.2580282 8.875,3.4042937 9.0205768,3.5508811 9.09375,3.7408638 9.09375,3.9492156 9.09375,4.157564 9.02077,4.3516103 8.875,4.4980437 8.7295672,4.6448119 8.540909,4.71875 8.3339844,4.71875 8.1270578,4.71875 7.9346453,4.6446309 7.7890625,4.4980469 7.6438057,4.3521077 7.5664062,4.1585454 7.5664062,3.9492188 7.5664063,3.7398995 7.6439477,3.5503915 7.7890625,3.4042969 7.9341533,3.258205 8.1260918,3.1777344 8.3339844,3.1777344 Z m 1.4355468,1.4394531 c 0.00742,0 0.022116,-8.392e-4 0.041016,0 0.1931558,0.00859 0.3664588,0.088188 0.5019528,0.2246094 0.145086,0.1460902 0.224609,0.3375454 0.224609,0.546875 0,0.2093244 -0.07952,0.4007824 -0.224609,0.546875 C 10.166915,6.0821457 9.9764528,6.1582022 9.7695312,6.1582031 9.5626048,6.1582022 9.3721463,6.0821363 9.2265625,5.9355469 9.0809567,5.7889565 9.0039062,5.5970194 9.0039062,5.3886719 c 0,-0.2083534 0.077072,-0.4002872 0.2226563,-0.546875 C 9.3183743,4.749353 9.4259722,4.6840225 9.546875,4.6484375 a 0.86462243,0.80140938 0 0 1 0.070312,-0.015625 c 0.049305,-0.00964 0.1003639,-0.015625 0.1523437,-0.015625 z m -1.4238281,1.4375 c 0.00742,0 0.022116,-8.397e-4 0.041016,0 0.1931576,0.00859 0.3684194,0.090144 0.5039062,0.2265625 0.1447648,0.1454417 0.2226562,0.3336418 0.2226562,0.5429688 1e-7,0.2093278 -0.077564,0.402735 -0.2226562,0.5488281 C 8.7455345,7.5191296 8.553599,7.5956999 8.3457034,7.5956999 8.1380378,7.5956999 7.9513037,7.5187089 7.8066409,7.3730437 7.661567,7.2269572 7.5820312,7.0335517 7.5820312,6.8242188 7.5820304,6.6148928 7.661865,6.4266925 7.8066406,6.28125 7.9513024,6.135594 8.1380355,6.0546875 8.3457031,6.0546875 Z m 3.2011719,0.2558594 c -0.229582,0 -0.427005,0.086015 -0.59375,0.2539062 -0.166451,0.1676139 -0.251953,0.3645402 -0.251953,0.5957031 v 4.578125 c 0,0.231162 0.08549,0.43172 0.251953,0.59961 0.166745,0.167603 0.364168,0.25 0.59375,0.25 h 4.546875 c 0.229579,0 0.428961,-0.08239 0.595703,-0.25 0.166457,-0.16789 0.248047,-0.368448 0.248047,-0.59961 V 7.1601562 C 16.9375,6.9289933 16.85592,6.732067 16.689453,6.5644531 16.522711,6.3965601 16.323332,6.3105469 16.09375,6.3105469 Z M 15.25,7.2382812 c 0.207894,0 0.397879,0.080471 0.542969,0.2265626 0.145112,0.1460951 0.222656,0.3356017 0.222656,0.5449218 0,0.2093274 -0.07739,0.4009354 -0.222656,0.546875 C 15.647387,8.703226 15.456928,8.7792969 15.25,8.7792969 c -0.206924,0 -0.397536,-0.075891 -0.542969,-0.2226563 -0.145772,-0.1464378 -0.220703,-0.3385257 -0.220703,-0.546875 0,-0.2083525 0.07512,-0.3983339 0.220703,-0.5449218 C 14.851972,7.3185764 15.042109,7.2382813 15.25,7.2382812 Z m -1.429688,1.4414063 c 0.0074,0 0.02212,-8.391e-4 0.04102,0 0.193158,0.00859 0.366459,0.088185 0.501953,0.2246094 0.145082,0.1460906 0.22461,0.3375446 0.22461,0.546875 0,0.2093248 -0.07953,0.4007841 -0.22461,0.546875 -0.145585,0.1466061 -0.336045,0.2226551 -0.542969,0.2226561 -0.206926,-1e-6 -0.397383,-0.07606 -0.542968,-0.2226561 -0.145597,-0.1465889 -0.220703,-0.3385272 -0.220703,-0.546875 0,-0.2083533 0.07512,-0.4002868 0.220703,-0.546875 0.145091,-0.1460894 0.335073,-0.2246094 0.542968,-0.2246094 z m -1.421874,1.4394535 c 0.0074,0 0.02211,-8.39e-4 0.04101,0 0.193158,0.0086 0.36646,0.08819 0.501953,0.224609 0.144762,0.145441 0.222656,0.335596 0.222656,0.544922 1e-6,0.209329 -0.07756,0.400781 -0.222656,0.546875 -0.145091,0.146092 -0.335073,0.224609 -0.542968,0.224609 -0.207667,0 -0.396354,-0.07894 -0.541016,-0.224609 -0.145061,-0.146091 -0.222656,-0.33754 -0.222656,-0.546875 0,-0.209326 0.07788,-0.39948 0.222656,-0.544922 0.144661,-0.145661 0.333348,-0.224609 0.541016,-0.224609 z" /></svg>
