<?xml version="1.0" encoding="UTF-8" standalone="no"?>
<svg
   height="14.543364"
   width="17.791"
   version="1.1"
   id="svg5037"
   sodipodi:docname="selector_reactive.svg"
   inkscape:version="1.2 (dc2aedaf03, 2022-05-15)"
   xml:space="preserve"
   xmlns:inkscape="http://www.inkscape.org/namespaces/inkscape"
   xmlns:sodipodi="http://sodipodi.sourceforge.net/DTD/sodipodi-0.dtd"
   xmlns="http://www.w3.org/2000/svg"
   xmlns:svg="http://www.w3.org/2000/svg"><defs
     id="defs5041" /><sodipodi:namedview
     id="namedview5039"
     pagecolor="#ffffff"
     bordercolor="#000000"
     borderopacity="0.25"
     inkscape:showpageshadow="2"
     inkscape:pageopacity="0.0"
     inkscape:pagecheckerboard="0"
     inkscape:deskcolor="#d1d1d1"
     showgrid="false"
     inkscape:zoom="15.273506"
     inkscape:cx="18.59429"
     inkscape:cy="12.014268"
     inkscape:window-width="1920"
     inkscape:window-height="1051"
     inkscape:window-x="-9"
     inkscape:window-y="-9"
     inkscape:window-maximized="1"
     inkscape:current-layer="svg5037" /><path
     style="fill:#40d29f;fill-opacity:1;color:#000000;stroke-width:1.7354;-inkscape-stroke:none;paint-order:markers stroke fill"
     d="m 15.63424,18.518399 q -0.218955,0 -0.373746,-0.150649 -0.155154,-0.150651 -0.155154,-0.363746 v -1.161448 l -0.860595,0.49993 q -0.196481,0.103026 -0.400572,0.05152 -0.20373,-0.05152 -0.309582,-0.227915 l -0.181253,-0.308712 q -0.105496,-0.183813 -0.05655,-0.385972 0.04894,-0.202159 0.237805,-0.312236 l 0.868569,-0.492527 -0.883432,-0.485112 q -0.188867,-0.110433 -0.241793,-0.312236 -0.05292,-0.202161 0.05292,-0.385974 l 0.196116,-0.301299 q 0.113465,-0.183814 0.321183,-0.238852 0.207716,-0.05539 0.388971,0.05504 l 0.868208,0.492523 v -1.161448 q 0,-0.213096 0.155154,-0.363747 0.154791,-0.150648 0.373746,-0.150648 h 0.347283 q 0.218955,0 0.373747,0.150648 0.155152,0.150651 0.155152,0.363747 v 1.161448 l 0.868209,-0.499931 q 0.188867,-0.103026 0.388973,-0.04763 0.200104,0.05504 0.313568,0.224034 l 0.211343,0.323526 q 0.113466,0.183813 0.05655,0.38562 -0.05655,0.20216 -0.253031,0.312589 l -0.87582,0.477704 0.86857,0.492521 q 0.181255,0.09561 0.245418,0.304826 0.06416,0.209569 -0.0493,0.385974 l -0.196119,0.316117 q -0.113464,0.176404 -0.313569,0.235323 -0.200105,0.05857 -0.388972,-0.05151 l -0.875822,-0.50734 v 1.161449 q 0,0.213096 -0.155152,0.363745 -0.154792,0.15065 -0.373747,0.15065 z"
     id="path5291"
     transform="matrix(1.2719165,0,0,1.2110461,-6.1455464,-7.8832739)"
     inkscape:label="asterisk" /><path
     style="fill:#40d29f;fill-opacity:1"
     d="M 12.041,5.958 Q 11.25,5.958 10.708,5.416 10.166,4.874 10.166,4.083 V 1.874 q 0,-0.77 0.542,-1.322 Q 11.25,0 12.041,0 h 3.875 q 0.771,0 1.323,0.552 0.552,0.552 0.552,1.322 v 2.209 q 0,0.791 -0.552,1.333 -0.552,0.542 -1.323,0.542 z m 0,-1.875 h 3.875 V 1.874 h -3.875 z"
     id="path923"
     inkscape:label="square" /><path
     style="fill:#40d29f;fill-opacity:1"
     d="M 4.52,13.645 Q 4.25,13.374 4.25,13 4.25,12.624 4.5,12.354 L 5.208,11.666 Q 2.979,11.395 1.489,9.802 0,8.208 0,5.895 0,3.437 1.718,1.718 3.437,0 5.895,0 H 7.562 Q 7.916,0 8.187,0.27 8.458,0.541 8.458,0.895 8.458,1.27 8.187,1.541 7.916,1.812 7.562,1.812 H 5.895 Q 4.187,1.812 3,3 1.812,4.187 1.812,5.895 1.812,7.437 2.76,8.52 3.708,9.604 5.187,9.916 L 4.5,9.229 Q 4.229,8.937 4.239,8.583 4.25,8.229 4.52,7.958 4.77,7.687 5.145,7.687 q 0.375,0 0.646,0.271 l 2.167,2.187 q 0.125,0.125 0.208,0.302 0.084,0.177 0.084,0.365 0,0.167 -0.084,0.344 -0.083,0.177 -0.208,0.323 L 5.75,13.645 Q 5.479,13.916 5.124,13.906 4.77,13.895 4.52,13.645 Z"
     id="path5035"
     inkscape:label="arrow" /></svg>
