<?xml version="1.0" encoding="UTF-8" standalone="no"?>
<svg
   height="14.874624"
   width="16.583984"
   version="1.1"
   id="svg5894"
   sodipodi:docname="sequence_reactive.svg"
   inkscape:version="1.2 (dc2aedaf03, 2022-05-15)"
   xml:space="preserve"
   xmlns:inkscape="http://www.inkscape.org/namespaces/inkscape"
   xmlns:sodipodi="http://sodipodi.sourceforge.net/DTD/sodipodi-0.dtd"
   xmlns="http://www.w3.org/2000/svg"
   xmlns:svg="http://www.w3.org/2000/svg"><defs
     id="defs5898"><linearGradient
       id="linearGradient3589"
       inkscape:swatch="solid"><stop
         style="stop-color:#ffffff;stop-opacity:1;"
         offset="0"
         id="stop3587" /></linearGradient><inkscape:path-effect
       effect="fill_between_many"
       method="originald"
       linkedpaths="#path5892,0,1|#path3531,0,1"
       id="path-effect3720"
       is_visible="true"
       lpeversion="0"
       join="true"
       close="true"
       autoreverse="true" /></defs><sodipodi:namedview
     id="namedview5896"
     pagecolor="#ffffff"
     bordercolor="#000000"
     borderopacity="0.25"
     inkscape:showpageshadow="2"
     inkscape:pageopacity="0.0"
     inkscape:pagecheckerboard="0"
     inkscape:deskcolor="#d1d1d1"
     showgrid="false"
     inkscape:zoom="21.599999"
     inkscape:cx="16.805556"
     inkscape:cy="4.3287039"
     inkscape:window-width="1920"
     inkscape:window-height="1051"
     inkscape:window-x="-9"
     inkscape:window-y="-9"
     inkscape:window-maximized="1"
     inkscape:current-layer="svg5894" /><path
     d="M 0,0"
     id="path3722"
     class="UnoptimicedTransforms"
     inkscape:original-d="M 0,0"
     inkscape:path-effect="#path-effect3720"
     transform="translate(-1.7285156,-3.375)" /><path
     id="path5892"
     style="fill:#40d29f;fill-opacity:1"
     class="UnoptimicedTransforms"
     d="m 3.4375,3.375 c -0.4726662,0 -0.8756514,0.166667 -1.2089844,0.5 -0.333333,0.333333 -0.5,0.7350317 -0.5,1.2070312 0,0.4859996 0.166667,0.8940368 0.5,1.2207032 0.333333,0.3266663 0.7363182,0.4902344 1.2089844,0.4902344 0.4719995,-10e-8 0.8756514,-0.1635681 1.2089844,-0.4902344 0.333333,-0.3266664 0.5,-0.7272192 0.5,-1.1992188 0,-0.4859995 -0.166667,-0.8951826 -0.5,-1.2285156 C 4.3131514,3.541667 3.9094995,3.375 3.4375,3.375 Z M 8.0429688,3.7929688 C 7.7096358,3.7929687 7.4104841,3.9235003 7.1464844,4.1875 6.8824846,4.4508331 6.75,4.7486983 6.75,5.0820312 6.75,5.4293642 6.8824846,5.7360003 7.1464844,6 7.4104841,6.2639997 7.7096358,6.3964844 8.0429688,6.3964844 H 17.021484 C 17.354817,6.3964844 17.653969,6.2639997 17.917969,6 18.181302,5.7360003 18.3125,5.4293642 18.3125,5.0820312 18.3125,4.7486983 18.181302,4.4508331 17.917969,4.1875 17.653969,3.9235003 17.354817,3.7929688 17.021484,3.7929688 Z M 3.4375,8.2714844 c -0.4726662,0 -0.8756514,0.166667 -1.2089844,0.5 -0.333333,0.333333 -0.5,0.7350317 -0.5,1.2070312 0,0.4859994 0.166667,0.8920834 0.5,1.2187504 0.333333,0.326666 0.7363182,0.490234 1.2089844,0.490234 0.4719995,0 0.8756514,-0.163568 1.2089844,-0.490234 0.333333,-0.326667 0.5,-0.725266 0.5,-1.197266 0,-0.4859995 -0.166667,-0.8951826 -0.5,-1.2285156 -0.333333,-0.333333 -0.7369849,-0.5 -1.2089844,-0.5 z M 8.0429688,8.6875 c -0.333333,0 -0.6324847,0.1311982 -0.8964844,0.3945312 C 6.8824846,9.346031 6.75,9.6451826 6.75,9.9785156 c 0,0.3473334 0.1324846,0.6539694 0.3964844,0.9179684 0.2639997,0.264 0.5631514,0.396485 0.8964844,0.396485 H 12.582031 C 12.667811,11.029759 12.810428,10.78417 13,10.615234 c 0.314158,-0.280616 0.764135,-0.439453 1.171875,-0.439453 h 0.46875 c 0.407741,0 0.855765,0.158985 1.169922,0.439453 0.189414,0.168797 0.331535,0.414214 0.416015,0.677735 h 0.794922 c 0.333333,0 0.632485,-0.132485 0.896485,-0.396485 0.263333,-0.263999 0.394531,-0.570635 0.394531,-0.9179684 0,-0.333333 -0.131198,-0.6324846 -0.394531,-0.8964844 C 17.653969,8.8186982 17.354817,8.6875 17.021484,8.6875 Z M 3.4375,13.146484 c -0.4726662,0 -0.8756514,0.166667 -1.2089844,0.5 -0.333333,0.333333 -0.5,0.735032 -0.5,1.207032 0,0.485999 0.166667,0.892083 0.5,1.21875 0.333333,0.325999 0.7363182,0.490234 1.2089844,0.490234 0.4719995,0 0.8756514,-0.164235 1.2089844,-0.490234 0.333333,-0.326667 0.5,-0.725266 0.5,-1.197266 0,-0.486 -0.166667,-0.895183 -0.5,-1.228516 -0.333333,-0.333333 -0.7369849,-0.5 -1.2089844,-0.5 z M 8.0429688,13.5625 c -0.333333,0 -0.6324847,0.130532 -0.8964844,0.394531 C 6.8824846,14.221031 6.75,14.520183 6.75,14.853516 c 0,0.347333 0.1324846,0.653969 0.3964844,0.917968 0.2639997,0.264 0.5631514,0.396485 0.8964844,0.396485 H 10.03125 C 9.985538,15.92966 9.986027,15.678358 10.04492,15.455078 10.12589,15.148084 10.389523,14.941651 10.626951,14.732422 10.380403,14.52554 10.114609,14.310259 10.025389,13.998047 9.986266,13.860916 9.972079,13.712745 9.974607,13.5625 Z m 10.2500002,1.083984 c -0.03323,0.02743 -0.06681,0.05476 -0.09961,0.08203 0.03855,0.03356 0.07792,0.06815 0.117188,0.101562 -0.0012,-0.06277 -0.007,-0.123307 -0.01758,-0.183594 z"
     transform="translate(-1.7285156,-3.375)" /><path
     style="color:#000000;fill:#40d29f;stroke-width:2;paint-order:stroke markers fill;fill-opacity:1"
     d="m 12.442996,14.874619 q -0.295876,0 -0.505045,-0.186837 -0.209662,-0.186838 -0.209662,-0.451125 v -1.440446 l -1.16293,0.620023 q -0.265504,0.127774 -0.541296,0.06389 -0.2753016,-0.06389 -0.4183406,-0.282664 l -0.244932,-0.382867 q -0.142553,-0.227969 -0.07642,-0.47869 0.06613,-0.250722 0.321348,-0.387241 L 10.779424,11.33783 9.5856344,10.736185 q -0.255217,-0.136961 -0.326737,-0.38724 -0.07153,-0.250722 0.07153,-0.478691 l 0.265013,-0.373676 q 0.153328,-0.227967 0.4340186,-0.296228 0.28069,-0.0687 0.52562,0.06827 l 1.173216,0.610833 V 8.439007 q 0,-0.264287 0.209662,-0.451125 0.209169,-0.186837 0.505047,-0.186837 h 0.469287 q 0.295874,0 0.505047,0.186837 0.209659,0.186838 0.209659,0.451125 v 1.440446 l 1.173216,-0.620024 q 0.255218,-0.127774 0.525622,-0.05908 0.270404,0.06827 0.423731,0.277851 l 0.285589,0.401242 q 0.153327,0.227969 0.07642,0.478254 -0.07642,0.25072 -0.341923,0.387677 l -1.183505,0.592455 1.173707,0.610833 q 0.24493,0.118573 0.331635,0.378052 0.08671,0.259911 -0.06662,0.478692 l -0.265012,0.392052 q -0.153326,0.21878 -0.423729,0.291853 -0.270405,0.07263 -0.525621,-0.06389 l -1.183504,-0.629204 v 1.440446 q 0,0.264286 -0.20966,0.451125 -0.209172,0.186837 -0.505048,0.186837 z"
     id="path6912" /></svg>
