<?xml version="1.0" encoding="UTF-8" standalone="no"?>
<svg
   height="12.183594"
   width="16.582031"
   version="1.1"
   id="svg5894"
   sodipodi:docname="sequence_random.svg"
   inkscape:version="1.2 (dc2aedaf03, 2022-05-15)"
   xmlns:inkscape="http://www.inkscape.org/namespaces/inkscape"
   xmlns:sodipodi="http://sodipodi.sourceforge.net/DTD/sodipodi-0.dtd"
   xmlns="http://www.w3.org/2000/svg"
   xmlns:svg="http://www.w3.org/2000/svg">
  <defs
     id="defs5898" />
  <sodipodi:namedview
     id="namedview5896"
     pagecolor="#ffffff"
     bordercolor="#000000"
     borderopacity="0.25"
     inkscape:showpageshadow="2"
     inkscape:pageopacity="0.0"
     inkscape:pagecheckerboard="true"
     inkscape:deskcolor="#d1d1d1"
     showgrid="false"
     inkscape:zoom="32"
     inkscape:cx="-1.59375"
     inkscape:cy="7.828125"
     inkscape:window-width="1920"
     inkscape:window-height="1051"
     inkscape:window-x="-9"
     inkscape:window-y="-9"
     inkscape:window-maximized="1"
     inkscape:current-layer="svg5894" />
  <path
     id="path414"
     style="color:#000000;fill:#40d29f;stroke-width:0.4;stroke-linecap:round;paint-order:fill markers stroke"
     d="M 1.7089844,0 C 1.2363186,0 0.83333267,0.16666733 0.5,0.5 0.16666733,0.83333267 0,1.2350322 0,1.7070312 c 0,0.4859992 0.16666733,0.8940371 0.5,1.2207032 0.33333267,0.3266659 0.7363186,0.4902343 1.2089844,0.4902344 0.471999,0 0.8756516,-0.1635685 1.2089844,-0.4902344 0.3333326,-0.3266661 0.4999999,-0.7272196 0.5,-1.1992188 0,-0.485999 -0.1666674,-0.89518293 -0.5,-1.2285156 C 2.5846361,0.16666733 2.1809834,0 1.7089844,0 Z M 6.3125,0.41796875 c -0.3333327,0 -0.6305318,0.13053177 -0.8945312,0.39453125 -0.2639996,0.2633328 -0.3964844,0.5611987 -0.3964844,0.8945312 0,0.3473327 0.1324848,0.6539694 0.3964844,0.9179688 C 5.6819682,2.8889994 5.9791673,3.0214844 6.3125,3.0214844 h 8.980469 C 15.626301,3.0214844 15.9235,2.8889994 16.1875,2.625 16.450833,2.3610006 16.582031,2.0543639 16.582031,1.7070312 16.582031,1.3736987 16.450833,1.0758328 16.1875,0.8125 15.9235,0.54850052 15.626301,0.41796875 15.292969,0.41796875 Z M 9.0878906,4.3007812 c -0.2828275,0 -0.5270087,0.1055895 -0.7324218,0.3164063 -0.2050874,0.2104687 -0.3066407,0.4597345 -0.3066407,0.75 v 5.7480465 c 0,0.290266 0.101563,0.543098 0.3066407,0.753907 0.2054131,0.210442 0.4495943,0.314453 0.7324218,0.314453 h 5.6015624 c 0.282829,0 0.527005,-0.103984 0.732422,-0.314453 0.20504,-0.210809 0.310547,-0.463641 0.310547,-0.753907 V 5.3671875 c 0,-0.2902655 -0.105468,-0.5395313 -0.310547,-0.75 -0.192576,-0.1976408 -0.419166,-0.3040153 -0.679687,-0.3164063 -0.01736,-8.263e-4 -0.03505,0 -0.05274,0 z M 1.9257812,5.3535156 C 1.6720837,5.3535062 1.4450691,5.4533683 1.2441406,5.6542969 1.043212,5.8547182 0.94335938,6.0822399 0.94335938,6.3359375 c 0,0.2643529 0.0998526,0.4982903 0.30078122,0.6992187 0.2009285,0.2009285 0.4279431,0.3007813 0.6816406,0.3007813 H 6.8886719 V 5.7070312 c 0,-0.1182132 0.017785,-0.2363441 0.048828,-0.3515624 z m 11.7246098,0.041016 c 0.275278,0 0.533582,0.1086393 0.724609,0.3046876 0.191017,0.1960469 0.294922,0.4582008 0.294922,0.7363281 0,0.2781252 -0.10358,0.53844 -0.294922,0.734375 -0.191911,0.1969508 -0.45114,0.3027343 -0.724609,0.3027343 -0.273472,0 -0.532817,-0.1054585 -0.72461,-0.3027343 -0.192232,-0.1968435 -0.291015,-0.4579656 -0.291015,-0.734375 0,-0.2764085 0.09911,-0.5393695 0.291015,-0.7363281 0.190906,-0.1963654 0.449327,-0.3046876 0.72461,-0.3046876 z M 11.888672,7.203125 c 0.0068,0 0.0244,-0.00128 0.05273,0 0.256852,0.011652 0.493747,0.1218832 0.671875,0.3046875 0.191019,0.1960465 0.296876,0.4562463 0.296875,0.734375 10e-7,0.2781245 -0.105853,0.5402803 -0.296875,0.7363281 C 12.42137,9.1754773 12.162139,9.28125 11.888672,9.28125 c -0.273461,0 -0.532699,-0.1057738 -0.72461,-0.3027344 -0.191923,-0.1969574 -0.291015,-0.4599183 -0.291015,-0.7363281 0,-0.2764094 0.0991,-0.5374165 0.291015,-0.734375 0.191024,-0.1960448 0.449335,-0.3046875 0.72461,-0.3046875 z m -1.75,1.8066406 c 0.0068,0 0.0244,6.732e-4 0.05273,0.00195 0.256848,0.011652 0.49375,0.1238283 0.671875,0.3066406 0.189491,0.1948428 0.294922,0.4530828 0.294922,0.7304688 0,0.278128 -0.103894,0.538327 -0.294922,0.734375 -0.191019,0.196026 -0.449319,0.306641 -0.724609,0.306641 -0.2750313,0 -0.5324,-0.111387 -0.7226564,-0.306641 C 9.2249894,10.587155 9.1210938,10.326955 9.1210938,10.048828 9.1210937,9.7714422 9.2265406,9.5132022 9.4160156,9.3183594 9.6062729,9.1231217 9.8636398,9.0097656 10.138672,9.0097656 Z m -8.216797,0.1875 c -0.2536975,-9.4e-6 -0.478759,0.0979 -0.6796875,0.2988282 -0.2009286,0.2004212 -0.30273437,0.4279427 -0.30273438,0.6816402 0,0.264353 0.10180578,0.498291 0.30273438,0.699219 0.2009285,0.200929 0.42599,0.300781 0.6796875,0.300781 H 6.8867188 V 9.5488281 c 0,-0.1182133 0.017785,-0.2363441 0.048828,-0.3515625 z" />
</svg>
