<svg height="16" viewBox="0 0 16 16" width="16" xmlns="http://www.w3.org/2000/svg"><path d="m2 1c-.55226.0001-.99994.4477-1 1v12c.0000552.5523.44774.9999 1 1h12c.55226-.0001.99994-.4477 1-1v-8l-5-5zm1 2h6v3c0 .554.44599 1 1 1h3v6h-10z" fill="#e0e0e0"/><path d="m10 11h2v1h-2z" fill="#8045ff"/><path d="m4 6h2v1h-2z" fill="#ffe345"/><path d="m8 8h4v1h-4z" fill="#80ff45"/><path d="m7 6h1v1h-1z" fill="#45d7ff"/><path d="m4 11h5v1h-5z" fill="#ff4596"/><path d="m4 4h3v1h-3z" fill="#ff4545"/><path d="m4 8h3v1h-3z" fill="#45ffa2"/></svg>
