<svg xmlns="http://www.w3.org/2000/svg" width="16" height="16"><path fill="#e0e0e0" d="M 2 2 A 1 1 0 0 0 1 3 L 1 13 A 1 1 0 0 0 2 14 L 14 14 A 1 1 0 0 0 15 13 L 15 6 A 1 1 0 0 0 14 5 L 10 5 A 1 1 0 0 1 9 4 L 9 3 A 1 1 0 0 0 8 2 L 2 2 z M 6.0019531 6 C 6.4343939 6.0079142 6.8612381 6.1557091 7.2109375 6.4335938 C 7.7910587 6.8944045 8.0470052 7.6132032 7.9453125 8.296875 C 7.9637046 8.3102784 7.9819532 8.3235554 8 8.3378906 L 11.480469 11.103516 C 12.031652 11.54134 12.198097 12.243937 11.853516 12.677734 C 11.508935 13.111544 10.78751 13.107746 10.236328 12.669922 L 6.7558594 9.9042969 C 6.7378124 9.8899609 6.720342 9.8762101 6.703125 9.8613281 C 6.0601932 10.115074 5.3027776 10.027217 4.7226562 9.5664062 C 4.1629719 9.1219989 3.8831239 8.4119629 3.9882812 7.7050781 L 5.34375 8.7832031 L 6.3515625 8.3066406 L 6.5878906 7.2167969 L 5.2324219 6.140625 C 5.4817065 6.042235 5.7424886 5.9952515 6.0019531 6 z"/></svg>
