<svg width="17.8" height="14" xmlns="http://www.w3.org/2000/svg">
 <title>simple_parallel</title>
 <g>
  <title>Layer 1</title>
  <path id="svg_2" d="m379.70051,461.00001l62.16598,-44.69505l62.13348,-44.71344l-62.16639,-44.74502l-62.13308,-44.71066l0,49.72355c-15.22952,0 -32.92661,0 -38.85547,0c-28.26753,0.99284 -63.15709,-26.74875 -100.27513,-62.51084c-13.837,-12.53919 -27.79679,-26.33442 -42.59221,-38.79093c14.79542,-12.47178 28.73521,-26.25115 42.59221,-38.78993c37.11804,-35.71265 72.00758,-63.50411 100.23868,-62.49369l38.89191,-0.01672l0,49.79019l62.13308,-44.72851l62.16639,-44.76291l-62.16639,-44.81085l-62.13308,-44.7452l0,49.75838l-38.87193,0c-57.73594,1.00776 -100.88521,43.76937 -138.64315,78.52293c-37.48291,36.67263 -71.17524,64.28074 -90.71564,62.49426l-111.46975,0l0,79.43354l111.50633,0c19.52364,-1.80401 53.23288,25.82205 90.71219,62.49365c37.74142,34.77115 80.87411,77.49725 138.62651,78.52351l38.85547,0l0,49.77372l0,0l0,0.00002z" fill="#40d29f"/>
  <path id="svg_3" d="m586.87304,18.27366l175.66435,0l0,0c23.01253,0 41.66783,23.72892 41.66783,53.00001c0,29.27108 -18.65531,52.99998 -41.66783,52.99998l-175.66435,0l0,0c-23.0125,0 -41.66783,-23.72891 -41.66783,-52.99998c0,-29.2711 18.65532,-53.00001 41.66783,-53.00001z" fill="#40d29f"/>
  <path id="svg_4" d="m582.87305,324.27366l175.66435,0l0,0c23.01253,0 41.66782,23.72891 41.66782,53c0,29.27108 -18.6553,52.99999 -41.66782,52.99999l-175.66435,0l0,0c-23.0125,0 -41.66783,-23.72891 -41.66783,-52.99999c0,-29.2711 18.65533,-53 41.66783,-53z" fill="#40d29f"/>
  <path id="svg_5" d="m9.29243,14.31759l1.78165,-1.39444l1.78072,-1.39501l-1.78166,-1.396l-1.78071,-1.39493l0,1.55132c-0.43647,0 -0.94366,0 -1.11358,0c-0.81014,0.03098 -1.81006,-0.83453 -2.87385,-1.95027c-0.39656,-0.39121 -0.79665,-0.82161 -1.22068,-1.21024c0.42403,-0.38911 0.82354,-0.81901 1.22068,-1.2102c1.06379,-1.1142 2.06371,-1.98126 2.8728,-1.94974l1.11463,-0.00052l0,1.5534l1.78071,-1.39548l1.78166,-1.39656l-1.78166,-1.39805l-1.78071,-1.396l0,1.55241l-1.11405,0c-1.65469,0.03144 -2.89133,1.36556 -3.97346,2.44983c-1.07425,1.14415 -2.03985,2.00549 -2.59988,1.94975l-3.19468,0l0,2.47824l3.19573,0c0.55954,-0.05628 1.52563,0.80562 2.59978,1.94974c1.08165,1.08482 2.31782,2.41783 3.97298,2.44985l1.11358,0l0,1.55289l0,0l0,0z" fill="#40d29f"/>
  <path id="svg_6" d="m14.12903,0.59261l4.06107,0l0,0c0.53201,0 0.96329,0.99492 0.96329,2.22222c0,1.2273 -0.43128,2.22222 -0.96329,2.22222l-4.06107,0l0,0c-0.53201,0 -0.96329,-0.99492 -0.96329,-2.22222c0,-1.2273 0.43128,-2.22222 0.96329,-2.22222z" fill="#40d29f"/>
  <path id="svg_7" d="m14.37595,8.49384l4.06107,0l0,0c0.53201,0 0.96329,1.03638 0.96329,2.31481c0,1.27844 -0.43128,2.31481 -0.96329,2.31481l-4.06107,0l0,0c-0.53201,0 -0.96329,-1.03638 -0.96329,-2.31481c0,-1.27844 0.43128,-2.31481 0.96329,-2.31481z" fill="#40d29f"/>
 </g>

</svg>