<svg enable-background="new 0 0 16 16" height="16" viewBox="0 0 16 16" width="16" xmlns="http://www.w3.org/2000/svg"><g fill="#b56d6d"><path d="m8.445 9.308v-3.001c1.613-.944 2.156-3.016 1.213-4.631-.603-1.033-1.709-1.67-2.905-1.676h-3.385c-1.869.008-3.377 1.532-3.368 3.401.005 1.197.643 2.301 1.676 2.906v3.001c0 .934.758 1.692 1.692 1.692h3.385c.935 0 1.692-.758 1.692-1.692zm-4.23-5.077h1.692v.846h-1.692zm-2.539-.846c0-.468.378-.846.847-.846.468 0 .846.378.846.846 0 .467-.378.846-.846.846-.469 0-.847-.379-.847-.846zm5.923 5.923h-.846v-.847h-.846v.846h-1.692v-.846h-.847v.846h-.846v-3.384h.846v.846h.847v-.846h1.692v.846h.846v-.846h.846zm-.846-5.923c0-.468.378-.846.846-.846s.846.378.846.846c0 .467-.378.846-.846.846s-.846-.379-.846-.846z"/><path d="m15.294 8.617c-.198-.132-.424-.219-.658-.251-.122-.867-.921-1.471-1.787-1.351s-1.472.921-1.353 1.788c.034.235.119.46.251.658l-2.286 2.286c-.729-.484-1.712-.287-2.195.443-.486.727-.287 1.71.441 2.194.198.131.423.217.659.25.121.865.922 1.471 1.787 1.35.866-.12 1.471-.919 1.351-1.786-.034-.235-.118-.46-.25-.658l2.286-2.286c.728.483 1.712.285 2.195-.443.484-.727.287-1.711-.441-2.194z"/></g></svg>