<svg enable-background="new 0 0 16 16" height="16" viewBox="0 0 16 16" width="16" xmlns="http://www.w3.org/2000/svg"><g fill="#e0e0e0"><path d="m11.666 4.166h-3.333c-1.84 0-3.333 1.492-3.333 3.333.003 1.188.638 2.284 1.667 2.878v2.955c0 .596.317 1.146.833 1.443.253.146.541.223.833.223v.002h3.333v-.002c.293 0 .58-.076.834-.223.516-.297.834-.848.834-1.443v-2.955c1.028-.594 1.663-1.689 1.666-2.878 0-1.841-1.492-3.333-3.334-3.333zm-2.498 4.167h1.666v.833h-1.666zm-2.501-.834c0-.46.373-.833.833-.833s.833.373.833.833-.373.834-.833.834-.833-.374-.833-.834zm5.833 3.222v2.611h-.834v-.834h-.832v.834h-.834-.832v-.834h-.835v.834h-.833v-2.609-.723h.833v.832h.834v-.832h.833.834v.832h.832v-.832h.834zm0-2.388c-.461 0-.834-.373-.834-.833s.373-.833.834-.833.834.373.834.833-.373.833-.834.833z"/><path d="m4.417 9.333h-.084v.834h-.833v-2.609-.724h.567c.324-2.074 2.105-3.668 4.266-3.668h2.445c-.474-1.263-1.683-2.166-3.112-2.166h-3.333c-1.84 0-3.333 1.493-3.333 3.333.003 1.188.638 2.284 1.667 2.877v2.956c0 .596.317 1.146.833 1.443.253.146.541.222.833.222v.002h1.333v-.929c-.537-.42-.961-.962-1.249-1.571zm-1.75-5c0-.46.373-.833.833-.833s.833.373.833.833-.373.834-.833.834-.833-.373-.833-.834z"/></g></svg>
