<svg height="16" viewBox="0 0 16 16" width="16" xmlns="http://www.w3.org/2000/svg" xmlns:xlink="http://www.w3.org/1999/xlink"><linearGradient id="a" gradientUnits="userSpaceOnUse" x1="8" x2="8" y1="1040.4" y2="1050.4"><stop offset="0" stop-color="#1ec3ff"/><stop offset="1" stop-color="#b2e1ff"/></linearGradient><g transform="translate(0 -1037.4)"><path d="m8 1040.4a7 7 0 0 0 -7 7 7 7 0 0 0 .68555 3h12.631a7 7 0 0 0 .68359-3 7 7 0 0 0 -7-7z" fill="url(#a)"/><path d="m10 7c-.554 0-1 .446-1 1h-1c-.554 0-1 .446-1 1s.446 1 1 1h2c.554 0 1-.446 1-1h1c.554 0 1-.446 1-1s-.446-1-1-1zm-7 3c-.554 0-1 .446-1 1s.446 1 1 1h1c.554 0 1-.446 1-1s-.446-1-1-1z" fill="#fff" transform="translate(0 1037.4)"/></g></svg>
