<svg height="16" viewBox="0 0 16 16" width="16" xmlns="http://www.w3.org/2000/svg"><path d="m11 7a4 4 0 0 0 -4 4v2h2v-2a2 2 0 0 1 2-2 2 2 0 0 1 2 2v2h2v-2a4 4 0 0 0 -4-4z" fill="#fff" fill-opacity=".68627"/><g fill="#e0e0e0"><path d="m4.1817443 1.9883112a.49892098.49907772 0 0 0 -.3478478.856731l2.1416536 2.1423264-2.1416536 2.1423263a.49892098.49907772 0 1 0 .7054536.7056752l2.1416536-2.1423263 2.1416535 2.1423263a.49892098.49907772 0 1 0 .7054536-.7056752l-2.1416536-2.1423263 2.1416536-2.1423264a.49892098.49907772 0 0 0 -.3624598-.8557329.49892098.49907772 0 0 0 -.3429739.1500975l-2.1416534 2.1423265-2.1416537-2.1423265a.49892098.49907772 0 0 0 -.3575908-.1510706z" fill-rule="evenodd" stroke-width=".498949"/><path d="m7 13v2h2v-2zm6 0v2h2v-2z"/></g></svg>
