<svg style="enable-background:new 0 0 16 16" version="1.1" viewBox="0 0 16 16" xmlns="http://www.w3.org/2000/svg"><style type="text/css">.st0{fill:#E0E0E0;}</style><g><path class="st0" d="m14 1h-12c-.5 0-1 .5-1 1v12c0 .5.5 1 1 1h12c.5 0 1-.5 1-1v-12c0-.5-.5-1-1-1zm-1 10h-10v-8h10v8z"/><path class="st0" d="m10.3 8.9c0 .4.4.9.9.9.4 0 .9-.4.9-.9 0-.4 0-.4-.9-1.7-.9 1.3-.9 1.3-.9 1.7z"/><path class="st0" d="m4.1 8.1 2.4 2.4c.2.2.4.2.6 0l4-4-2.7-2.6c-.2-.2-.4-.2-.6 0l-.5.4.9.9c.4 0 .7.3.7.6 0 .4-.3.7-.6.7-.4 0-.7-.3-.7-.6v-.1l-.9-.9-.4.5-1-.9c-.1-.2-.1-.5 0-.6.2-.2.4-.2.6 0l1.9 1.9c0 .2.1.4.3.5s.5-.1.5-.3c.1-.2-.1-.5-.3-.5h-.2l-1.8-1.9c-.4-.4-.9-.4-1.3 0-.3.3-.3.8 0 1.2l1 .9-1.9 1.8c-.1.2-.1.5 0 .6z"/></g></svg>
