<svg xmlns="http://www.w3.org/2000/svg" width="16" height="16"><path fill="#e0e0e0" d="M0.999979 2C3.20912 2 4.99998 3.79086 4.99998 6C4.99998 8.20914 3.20912 10 0.999977 10C0.999977 10 0.999977 12 0.999977 12C4.31369 12 6.99998 9.31371 6.99998 6C6.99998 2.68629 4.31369 0 0.999977 0L0.999979 2ZM-4.01606 -0.999844C-4.27649 -0.996132 -4.52527 -0.891774 -4.7099 -0.708802C-4.7099 -0.708802 -6.71813 1.29149 -6.71813 1.29149C-7.09866 1.68393 -7.09322 2.30773 -6.7059 2.69352C-6.31858 3.07931 -5.6923 3.08473 -5.29831 2.7057C-5.29831 2.7057 -5.00411 2.41266 -5.00411 2.41266L-5.00411 9.58571C-5.00411 9.58571 -5.29831 9.29267 -5.29831 9.29267C-5.6923 8.91363 -6.31858 8.91905 -6.7059 9.30484C-7.09323 9.69064 -7.09866 10.3144 -6.71813 10.7069C-6.71813 10.7069 -4.7099 12.7072 -4.7099 12.7072C-4.3178 13.0976 -3.6822 13.0976 -3.29009 12.7072C-3.29009 12.7072 -1.28187 10.7069 -1.28187 10.7069C-0.901342 10.3144 -0.906786 9.69065 -1.2941 9.30486C-1.68142 8.91907 -2.30769 8.91364 -2.70168 9.29267C-2.70168 9.29267 -2.99589 9.58571 -2.99589 9.58571L-2.99589 2.41266C-2.99589 2.41266 -2.70168 2.7057 -2.70168 2.7057C-2.30769 3.08473 -1.68142 3.07931 -1.2941 2.69352C-0.906778 2.30773 -0.901336 1.68393 -1.28187 1.29149C-1.28187 1.29149 -3.29009 -0.708801 -3.29009 -0.708801C-3.48261 -0.899616 -3.74451 -1.00462 -4.01606 -0.999844C-4.01606 -0.999844 -4.01606 -0.999844 -4.01606 -0.999844ZM0 2.99998L2 2.99998L2 4.99998L4 4.99998L4 6.99998L0 6.99998L0 2.99998Z" transform="translate(8 2)"/></svg>
