<svg height="16" viewBox="0 0 16 16" width="16" xmlns="http://www.w3.org/2000/svg"><path d="m8 1c-3.8541 0-7 3.1459-7 7 0 3.8542 3.1459 7 7 7s7-3.1458 7-7c0-3.8541-3.1459-7-7-7zm-1 2.0977v4.8711c-1.2931-.071342-2.6061-.29819-3.9434-.69141.30081-2.0978 1.8852-3.7665 3.9434-4.1797zm2 0c2.0549.41253 3.637 2.0767 3.9414 4.1699-1.3046.36677-2.6158.60259-3.9414.6875zm3.7852 6.2812c-.50864 1.7788-1.9499 3.1531-3.7852 3.5215v-2.9512c1.2792-.072301 2.5419-.26704 3.7852-.57031zm-9.5645.017578c1.2733.31892 2.5337.50215 3.7793.5625v2.9414c-1.8291-.36719-3.266-1.7339-3.7793-3.5039z" fill="#ffca5f"/></svg>
