<svg height="16" viewBox="0 0 16 16" width="16" xmlns="http://www.w3.org/2000/svg"><path d="m5 1c-2.216 0-4 1.784-4 4v6c0 2.216 1.784 4 4 4h6c2.216 0 4-1.784 4-4v-6c0-2.216-1.784-4-4-4zm-1 5c.554 0 1 .446 1 1v2c0 .554-.446 1-1 1s-1-.446-1-1v-2c0-.554.446-1 1-1zm8 0c.554 0 1 .446 1 1v2c0 .554-.446 1-1 1s-1-.446-1-1v-2c0-.554.446-1 1-1zm-1.8887 5.1074a1.0001 1.0001 0 0 1 .7168 1.7207c-.74987.74987-1.7676 1.1719-2.8281 1.1719s-2.0783-.422-2.8281-1.1719a1.0001 1.0001 0 0 1 .69727-1.7168 1.0001 1.0001 0 0 1 .7168.30273c.37534.37535.88325.58594 1.4141.58594s1.0387-.21059 1.4141-.58594a1.0001 1.0001 0 0 1 .69727-.30664z" fill="#a5b7f3"/></svg>
