<svg xmlns="http://www.w3.org/2000/svg" width="16" height="16" viewBox="-399.5 200.5 16 16"><path fill="#fc7f7f" d="M-392.125 205.553c-.488.733-.289 1.725.445 2.213.2.132.426.218.664.252.121.872.927 1.481 1.8 1.36.874-.121 1.483-.928 1.361-1.801-.033-.238-.119-.464-.251-.664l1.373-1.372c.734.487 1.724.288 2.212-.445.488-.734.29-1.725-.445-2.213-.199-.132-.426-.219-.664-.251-.121-.874-.927-1.483-1.8-1.362s-1.482.928-1.361 1.802c.033.236.119.465.251.664l-1.372 1.371c-.734-.488-1.725-.289-2.213.446zM-390.875 211.449c.488-.734.289-1.726-.444-2.214-.2-.132-.427-.218-.665-.251-.122-.873-.927-1.482-1.8-1.361s-1.482.928-1.36 1.802c.033.236.119.463.252.663l-1.373 1.373c-.734-.488-1.724-.289-2.212.445s-.289 1.724.445 2.212c.199.132.426.219.664.252.121.873.927 1.482 1.8 1.36.874-.122 1.482-.926 1.36-1.8-.033-.237-.118-.465-.252-.664l1.374-1.373c.732.489 1.723.29 2.211-.444z"/><path fill="#5fb2ff" d="m-389.5 216.5 6-.5v-5.5l-6-.5z"/></svg>