<svg height="16" viewBox="0 0 16 16" width="16" xmlns="http://www.w3.org/2000/svg"><g fill="#fc7f7f" transform="translate(0 -1036.3622)"><a transform="translate(-.246859 .772748)"/><g stroke-dashoffset="210.478" stroke-linecap="square" stroke-miterlimit="3"><ellipse cx="8.089825" cy="1049.4401" rx="1.797247" ry="1.906171" stroke-width="9.85864"/><ellipse cx="11.111154" cy="1049.4713" rx="1.797247" ry="1.906171" stroke-width="9.85864"/><ellipse cx="5.214825" cy="1041.2526" rx="1.797247" ry="1.906171" stroke-width="9.85864"/><ellipse cx="7.236154" cy="1039.4713" rx="1.797247" ry="1.906171" stroke-width="9.85864"/><path d="m7.9298831 1049.9084c.7220051.0001 1.7975639.088 2.5195699.088 0 0 .534056-2.2008.53125-3.3223-.0027-1.0856-.142343-2.1994-.53033-3.2134-.346934-.9066-.8636339-1.7848-1.5651024-2.4558-.6150132-.5883-2.2119295-1.2752-2.2119295-1.2752l-1.4557686 2.0435s1.1982509.7586 1.6967646 1.2549c.4188745.4171.8225362.8801 1.0606601 1.4211.272501.619.3570582 1.3173.3794418 1.9934.038513 1.1632-.424556 3.4655-.424556 3.4655z" stroke-width="8"/></g></g></svg>