<svg height="16" viewBox="0 0 16 16" width="16" xmlns="http://www.w3.org/2000/svg"><path d="m3 1c-1.108 0-2 .89199-2 2v6c0 1.108.89199 2 2 2h6c1.108 0 2-.89199 2-2v-6c0-1.108-.89199-2-2-2zm10 0v2h2v-2zm-10 4c.554 0 1 .446 1 1v1c0 .554-.446 1-1 1s-1-.446-1-1v-1c0-.554.446-1 1-1zm6 0c.554 0 1 .446 1 1v1c0 .554-.446 1-1 1s-1-.446-1-1v-1c0-.554.446-1 1-1zm4 0v2h2v-2zm-9 4h2 2a2 1 0 0 1 -1 .86523 2 1 0 0 1 -2 0 2 1 0 0 1 -1-.86523zm9 0v2h2v-2zm-12 4v2h2v-2zm4 0v2h2v-2zm4 0v2h2v-2zm4 0v2h2v-2z" fill="#e0e0e0"/></svg>
