<svg xmlns="http://www.w3.org/2000/svg" width="16" height="16"><path fill="#fc7f7f" d="M7.375 5.053c-.488.733-.289 1.724.445 2.213.2.133.426.219.664.252.122.873.927 1.481 1.8 1.36.874-.121 1.483-.928 1.36-1.801-.033-.238-.119-.464-.25-.664l1.373-1.372c.733.486 1.724.288 2.211-.445.488-.734.291-1.725-.444-2.213-.199-.132-.427-.219-.664-.251-.121-.874-.927-1.483-1.8-1.362s-1.482.928-1.361 1.803c.033.236.119.465.251.664l-1.372 1.37c-.734-.488-1.725-.289-2.213.446zM8.625 10.949c.488-.734.289-1.727-.444-2.215-.2-.131-.427-.217-.665-.25-.122-.873-.927-1.482-1.8-1.361s-1.482.928-1.36 1.802c.033.236.119.464.252.663l-1.373 1.373c-.734-.488-1.724-.289-2.212.445s-.289 1.724.445 2.212c.199.132.426.219.664.252.121.873.927 1.481 1.8 1.36.874-.123 1.482-.926 1.36-1.801-.033-.236-.118-.465-.252-.664l1.374-1.373c.732.49 1.723.292 2.211-.443z"/><circle cx="12" cy="12" r="3" fill="#5fb2ff"/><circle cx="11.143" cy="10.714" r=".856" fill="#a2d2ff"/></svg>