<svg height="16" viewBox="0 0 16 16" width="16" xmlns="http://www.w3.org/2000/svg"><path d="m7.9629 1.002a1.0001 1.0001 0 0 0 -.41016.10352l-3.7891 1.8945h8.4727l-3.7891-1.8945a1.0001 1.0001 0 0 0 -.48438-.10352z" fill="#ff4545"/><path d="m3.7637 3-2.2109 1.1055a1.0001 1.0001 0 0 0 -.55273.89453h3.2363l3.7637-1.8809 3.7637 1.8809h3.2363a1.0001 1.0001 0 0 0 -.55273-.89453l-2.2109-1.1055h-8.4727z" fill="#ffe345"/><path d="m1 5v2h2v-.38086l.76172.38086h8.4766l.76172-.38086v.38086h2v-2h-3.2363l-3.7637 1.8828-3.7637-1.8828h-3.2363z" fill="#80ff45"/><path d="m1 7v2h2v-2zm2.7617 0 3.2383 1.6191v.38086h2v-.38086l3.2383-1.6191zm9.2383 0v2h2v-2z" fill="#45ffa2"/><path d="m1 9v2h3.2344l-1.2344-.61719v-1.3828h-2zm6 0v2h2v-2zm6 0v1.3828l-1.2344.61719h3.2344v-2h-2z" fill="#45d7ff"/><path d="m3.7637 13 3.7891 1.8945a1.0001 1.0001 0 0 0 .48438.10547 1.0001 1.0001 0 0 0 .41016-.10547l3.7891-1.8945h-8.4727z" fill="#ff4596"/><path d="m1 11a1.0001 1.0001 0 0 0 .55273.89453l2.2109 1.1055h8.4727l2.2109-1.1055a1.0001 1.0001 0 0 0 .55273-.89453h-3.2344l-2.7656 1.3828v-1.3828h-2v1.3828l-2.7656-1.3828h-3.2344z" fill="#8045ff"/></svg>
