<svg height="16" viewBox="0 0 16 16" width="16" xmlns="http://www.w3.org/2000/svg"><path d="m2 1a1.0001 1.0001 0 0 0 -1 1v1h2 10 2v-1a1.0001 1.0001 0 0 0 -1-1z" fill="#ff4545"/><path d="m1 3v2h2v-2zm12 0v2h2v-2zm-4 1v1h1v-1z" fill="#ffe345"/><path d="m1 5v2h2v-2zm7 0v1h-2v1h3.543c.26215-.34438.50373-.68039.69727-1.0156a2.0315 2.0315 0 0 1 .75977-.75195v-.23242h-1-1-1zm5 0v.23242a2.0315 2.0315 0 0 1 .75977.75195c.19142.33153.43699.67033.69922 1.0156h.54102v-2h-2z" fill="#80ff45"/><path d="m1 7v2h2v-2zm4 0v1h-1v1h4.0156c.14585-.2113.29419-.41592.4375-.60352.38121-.49904.75394-.95521 1.0898-1.3965h-3.543-1zm7 0c-.43047.7456-.94451 1.3867-1.4355 2h2.8711c-.49104-.6133-1.0051-1.2544-1.4355-2zm2.459 0c.17438.22962.352.46082.54102.69922v-.69922z" fill="#45ffa2"/><path d="m1 9v2h2v-2zm9.5645 0c-.55248.69003-1.0583 1.3421-1.334 2h5.5391c-.2757-.65786-.78151-1.31-1.334-2z" fill="#45d7ff"/><path d="m1 13v1a1.0001 1.0001 0 0 0 1 1h5.998c-.4429-.5864-.77294-1.2592-.92578-2h-4.0723-2zm8.1836 0c.41312 1.1628 1.5119 2 2.8164 2s2.4033-.83718 2.8164-2z" fill="#ff4596"/><path d="m1 11v2h2v-2zm8.2305 0c-.13656.32585-.23047.65576-.23047 1 0 .35235.07201.68593.18359 1h5.6328c.11158-.31407.18359-.64765.18359-1 0-.34424-.093909-.67415-.23047-1h-5.5391z" fill="#8045ff"/></svg>
