<svg height="16" viewBox="0 0 16 16" width="16" xmlns="http://www.w3.org/2000/svg"><path d="m13.303 1c-.4344 0-.86973.16881-1.2012.50586l-1.4688 1.4941h4.3418c.082839-.52789-.072596-1.0872-.47266-1.4941-.33144-.33705-.76482-.50586-1.1992-.50586z" fill="#ff4545"/><path d="m10.633 3-1.9668 2h4.8008l1.0352-1.0527c.2628-.2673.41824-.60049.47266-.94727h-4.3418z" fill="#ffe345"/><path d="m8.666 5-1.9648 2h2.8809c.25686-.33847.49465-.66934.68555-1 .33885-.5859.95098-.96109 1.627-.99609.44399-.023642.86385.115 1.2188.35547l.35352-.35938h-4.8008z" fill="#80ff45"/><path d="m1.2617 13c-.08284.52789.072596 1.0872.47266 1.4941.33144.33705.76484.50586 1.1992.50586.4344 0 .8697-.16881 1.2012-.50586l1.4688-1.4941h-4.3418zm7.9219 0c.41312 1.1628 1.5119 2 2.8164 2s2.4033-.83718 2.8164-2z" fill="#ff4596"/><path d="m2.7695 11-1.0352 1.0527c-.2628.2673-.41824.60049-.47266.94727h4.3418l1.4238-1.4473c.020288-.18998.04923-.37542.089844-.55273h-4.3477zm6.4609 0c-.13656.32585-.23047.65576-.23047 1 0 .35235.072014.68593.18359 1h5.6328c.11158-.31407.18359-.64765.18359-1 0-.34424-.093909-.67415-.23047-1h-5.5391z" fill="#8045ff"/><path d="m4.7363 9-1.9668 2h4.3477c.17955-.78395.54577-1.4354.9375-2zm5.8281 0c-.55248.69003-1.0583 1.3421-1.334 2h5.5391c-.2757-.65786-.78149-1.31-1.334-2z" fill="#45d7ff"/><path d="m6.7012 7-1.9648 2h3.3184c.14116-.20345.28508-.40233.42383-.58398.38601-.5053.7635-.96796 1.1035-1.416h-2.8809zm5.2988 0c-.43047.7456-.94456 1.3867-1.4355 2h2.8711c-.49104-.6133-1.0051-1.2544-1.4355-2z" fill="#45ffa2"/></svg>
