<svg height="16" width="16" xmlns="http://www.w3.org/2000/svg"><rect style="fill:#000;stroke-width:6.081;stroke-linejoin:round;stroke-miterlimit:5;fill-opacity:.75294119" width="16.131" height="16.131" x="-.008" y="-.006" rx="0" ry="1.188"/><path style="fill:#656565;fill-opacity:1;stroke-width:6.081;stroke-linejoin:round;stroke-miterlimit:5" d="M11.92 1.37v2.835h.549V1.37zm-5.7.017v2.818h.55V1.387zm8.776 3.18v1.595H11.92v3.57h.549V6.523h3.076V4.566ZM1.599 6.161v.361h2.717v-.36Zm4.621 0v3.57h.55V6.523h3.21v-.36Zm8.833 3.932v1.601H11.92v3.336h-1.39v.362h1.939v-3.335H15.6v-1.963ZM1.63 11.695v.362h2.685v-.362zm4.59 0v3.328H4.864v.362h1.904v-3.328H9.98v-.362z"/><path style="fill:#e0e0e0;fill-opacity:1;stroke-width:6.081;stroke-linejoin:round;stroke-miterlimit:5" d="M9.98 1.008v3.197H6.22v-3.18H4.316v3.18H1.051v1.957h3.265v3.57H1.082v1.963h3.234v3.328H6.22v-3.327h3.76v3.333h1.94v-3.334h3.133V9.733H11.92v-3.57h3.076V4.204H11.92V1.008zM6.22 6.162h3.76v3.57H6.22Z"/></svg>
