<svg xmlns="http://www.w3.org/2000/svg" width="16" height="16"><linearGradient id="a" x2="0" y2="16" gradientUnits="userSpaceOnUse"><stop offset=".188" stop-color="#ff4545"/><stop stop-color="#ffe345"/><stop offset=".313" stop-color="#ffe345"/><stop stop-color="#80ff45"/><stop offset=".438" stop-color="#80ff45"/><stop stop-color="#45ffa2"/><stop offset=".563" stop-color="#45ffa2"/><stop stop-color="#45d7ff"/><stop offset=".688" stop-color="#45d7ff"/><stop stop-color="#8045ff"/><stop offset=".813" stop-color="#8045ff"/><stop stop-color="#ff4596"/></linearGradient><path fill="url(#a)" d="M8.1 15a4.5 4.5 0 0 1-1.02-2H3V3h10v2.232a2.031 2.031 0 0 1 .76.752L15 7.75V2a1 1 0 0 0-1-1H2a1 1 0 0 0-1 1v12a1 1 0 0 0 1 1zM8 5v1H6v1H5v1H4v1h4l2.24-3a2.031 2.031 0 0 1 .76-.752V5h-1V4H9v1zm4 2c-.429.746-.946 1.387-1.429 2-.571.69-1.066 1.342-1.34 2-.138.326-.231.656-.231 1s.072.686.184 1c.413 1.163 1.512 2 2.816 2s2.402-.837 2.816-2c.112-.314.184-.656.184-1s-.094-.674-.231-1c-.275-.658-.77-1.31-1.34-2-.484-.613-1-1.254-1.43-2z"/></svg>
