<svg height="16" viewBox="0 0 16 16" width="16" xmlns="http://www.w3.org/2000/svg"><path d="m2 1c-.55226.0001-.99994.4477-1 1v1h2v-2zm3 0v2h2v-2zm4 0v2h2v-2zm4 0v2h2v-1c-.000055-.5523-.44774-.9999-1-1z" fill="#ff7070"/><path d="m1 5v2h2v-2zm12 0v.23242c.31584.1783.57817.43795.75977.75195.19142.33153.43699.67036.69922 1.0156h.54102v-2h-2z" fill="#9dff70"/><path d="m12 7c-.43047.7456-.94451 1.3867-1.4355 2h2.8711c-.49104-.6133-1.0051-1.2544-1.4355-2zm2.459 0c.17438.2296.352.46082.54102.69922v-.69922z" fill="#70ffb9"/><path d="m1 9v2h2v-2zm9.5645 0c-.55248.69003-1.0583 1.3421-1.334 2h5.5391c-.2757-.65786-.78151-1.31-1.334-2z" fill="#70deff"/><path d="m1 13v1c.0000552.5523.44774.9999 1 1h1v-2zm4 0v2h2v-2zm4.1836 0c.41312 1.1628 1.5119 2 2.8164 2s2.4033-.83718 2.8164-2z" fill="#ff70ac"/><path d="m9.2305 11c-.13656.32585-.23047.65576-.23047 1 0 .35235.07201.68593.18359 1h5.6328c.11158-.31407.18359-.64765.18359-1 0-.34424-.093909-.67415-.23047-1h-5.5391z" fill="#9f70ff"/></svg>
