<svg height="16" viewBox="0 0 16 16" width="16" xmlns="http://www.w3.org/2000/svg"><linearGradient x2="0" y2="16" gradientUnits="userSpaceOnUse" id="a"><stop offset=".188" stop-color="#ff4545"/><stop stop-color="#ffe345"/><stop offset=".313" stop-color="#ffe345"/><stop stop-color="#80ff45"/><stop offset=".438" stop-color="#80ff45"/><stop stop-color="#45ffa2"/><stop offset=".563" stop-color="#45ffa2"/><stop stop-color="#45d7ff"/><stop offset=".688" stop-color="#45d7ff"/><stop stop-color="#8045ff"/><stop offset=".813" stop-color="#8045ff"/><stop stop-color="#ff4596"/></linearGradient><path d="M10.268 6c.77-1.334 2.695-1.334 3.465 0 .188.327.428.66.685 1 .186.246.38.494.582.75V2a1 1 0 0 0-1-1H2a1 1 0 0 0-1 1v5h2V3h5v3H6v1H5v1H4v1h4zM12 7c-.429.746-.946 1.387-1.429 2-.571.69-1.066 1.342-1.34 2-.138.326-.231.656-.231 1s.072.686.184 1c.413 1.163 1.512 2 2.816 2s2.402-.837 2.816-2c.112-.314.184-.656.184-1s-.094-.674-.231-1c-.275-.658-.77-1.31-1.34-2-.484-.613-1-1.254-1.43-2zM1 9v2h2V9zm0 4v1a1 1 0 0 0 1 1h1v-2zm4 0v2h2v-2z" fill="url(#a)"/></svg>
