<svg height="16" viewBox="0 0 16 16" width="16" xmlns="http://www.w3.org/2000/svg"><path d="m3 2c-.5304.0000801-1.0390625.2108475-1.4140625.5859375-.37509.37501-.5858575.8836225-.5859375 1.4140625v8c.0000803.5304.2108475 1.039063.5859375 1.414062.37501.375091.8836225.585858 1.4140625.585938h10c1.1046 0 2-.89543 2-2v-8c0-1.1046-.89543-2-2-2zm0 1h10c.55228.0000096.99999.44772 1 1v8c-.00001.55228-.44772.99999-1 1h-10c-.55228-.00001-.99999-.44772-1-1v-8c.0000096-.55228.44772-.99999 1-1zm3 1c-.5304.0001-1.0390625.2108375-1.4140625.5859375-.37509.375-.5858575.8836225-.5859375 1.4140625v4c.00008.5304.2108475 1.039062.5859375 1.414062.37501.3751.8836225.585838 1.4140625.585938h4c1.1046 0 2-.8954 2-2v-4c0-1.1046-.89543-2-2-2zm0 1h4c.55228 0 .99999.4477 1 1v4c-.00001.5523-.44772 1-1 1h-4c-.55228 0-.99999-.4477-1-1v-4c.00001-.5523.44772-1 1-1z" fill="#e0e0e0" fill-opacity=".996078"/></svg>
