<svg height="16" viewBox="0 0 16 16" width="16" xmlns="http://www.w3.org/2000/svg"><path d="m3 1c-1.1046 0-2 .89543-2 2v10c0 1.1046.89543 2 2 2h10c1.1046 0 2-.89543 2-2v-10c0-1.1046-.89543-2-2-2zm0 2h10v10h-10zm3 1c-.5304.0001-1.0391.21084-1.4141.58594-.37509.375-.58586.88366-.58594 1.4141v4c.00008.5304.21085 1.0391.58594 1.4141.37501.3751.88366.58584 1.4141.58594h4c1.1046 0 2-.8954 2-2v-4c0-1.1046-.89543-2-2-2zm0 1h4c.55228 0 .99999.4477 1 1v4c-.00001.5523-.44772 1-1 1h-4c-.55228 0-.99999-.4477-1-1v-4c.00001-.5523.44772-1 1-1z" fill="#a5efac"/></svg>
