<svg xmlns="http://www.w3.org/2000/svg" width="16" height="16"><path fill="#e0e0e0" d="M12.5 8A3.5 3.5 0 0 0 9 11.5 3.5 3.5 0 0 0 12.5 15 3.5 3.5 0 0 0 16 11.5 3.5 3.5 0 0 0 12.5 8zM12.5 9C12.777 9 13 9.223 13 9.5L13 11 14.117188 11 14.5 11C14.768331 11 14.984685 11.209713 14.998047 11.474609 14.998807 11.483155 15 11.491344 15 11.5 15 11.508656 14.998807 11.516845 14.998047 11.525391 14.984686 11.790287 14.768331 12 14.5 12L14.117188 12 12.882812 12 12.5 12C12.22301 11.999989 12 11.776993 12 11.5L12 9.5C12 9.223 12.223 9 12.5 9zM4 2.9863281C3.4477153 2.9863281 3 3.4340434 3 3.9863281L3 11.986328C3 12.538613 3.4477153 12.986328 4 12.986328L6 12.986328C6.5522847 12.986328 7 12.538613 7 11.986328L7 3.9863281C7 3.4340434 6.5522847 2.9863281 6 2.9863281L4 2.9863281zM10 3C9.4477153 3 9 3.4477153 9 4L9 8.671875A4.5 4.5 0 0 1 12.5 7 4.5 4.5 0 0 1 13 7.0273438L13 4C13 3.4477153 12.552285 3 12 3L10 3z"/></svg>
