<svg height="16" width="16" xmlns="http://www.w3.org/2000/svg"><path fill="#e0e0e0" d="m5.787 1-.402 1.613c-.352.265-.71.122-1.012-.111l-.904-.541L2.46 2.973l.853 1.425c-.058.438-.412.586-.79.635-.343.065-.674.216-1.024.213V6.72c.367 0 .715.157 1.074.224.371.032.716.243.727.65l-.84 1.4 1.008 1.01c.443-.266.895-.53 1.33-.802.349-.044.675.139.674.506l.314 1.258h1.45c.117-.475.242-.954.35-1.428A.67.67 0 0 1 8 9.195V7.5H6.5A.5.5 0 0 0 6 8v.5H4v-4h5.75c-.005-.22.107-.434.254-.625l.543-.902L9.535 1.96l-1.426.853c-.437-.058-.588-.412-.636-.79L7.217 1h-1.43z"/><path d="M4.5 5v3h1a1 1 0 0 1 1-1h2v6a1 1 0 0 1-1 1v1h4v-1a1 1 0 0 1-1-1V7h2a1 1 0 0 1 1 1h1V5h-6z" fill="#ff5f5f"/></svg>
