<svg height="32" viewBox="0 0 16 16" width="32" xmlns="http://www.w3.org/2000/svg"><g fill="#e0e0e0"><circle cx="8" cy="8" r="2.000028" stroke-width="1.09711"/><g stroke-width=".5" transform="translate(0 -1036.4)"><path d="m7 1039.9h-1l2-2.5 2 2.5h-1v2h-2z"/><path d="m3.5606601 1041.3748-.7071068.707-.3535533-3.1818 3.1819804.3535-.7071067.7071.7071067.7071-1.4142135 1.4142z"/><path d="m11.0252 1039.9606-.707-.7071 3.1818-.3535-.3535 3.1819-.7071-.7071-.7071.7071-1.4142-1.4142z"/><path d="m12.43934 1047.4252.707107-.707.353553 3.1818-3.18198-.3535.707106-.7071-.707106-.7071 1.414214-1.4142z"/><path d="m4.9748005 1048.8394.707.7071-3.1818.3535.3535-3.1819.7071.7071.7071-.7071 1.4142 1.4142z"/><path d="m12.5 1043.4v-1l2.5 2-2.5 2v-1h-2v-2z"/><path d="m9 1048.9h1l-2 2.5-2-2.5h1v-2h2z"/><path d="m3.5 1045.4v1l-2.5-2 2.5-2v1h2v2z"/></g></g></svg>
