<svg height="32" viewBox="0 0 16 16" width="32" xmlns="http://www.w3.org/2000/svg"><g fill="#e0e0e0"><circle cx="8" cy="8" r="2"/><path d="M7 3.5H6L8 1l2 2.5H9v2H7zM3.56 4.975l-.706.707L2.5 2.5l3.182.353-.707.708.707.707-1.414 1.414zm7.465-1.415-.707-.706L13.5 2.5l-.353 3.182-.708-.707-.707.707-1.414-1.414zm1.415 7.465.706-.707.354 3.182-3.182-.354.707-.707-.707-.707 1.414-1.414zM4.975 12.44l.707.707L2.5 13.5l.354-3.182.707.707.707-.707 1.414 1.414zM12.5 7V6L15 8l-2.5 2V9h-2V7zM9 12.5h1L8 15l-2-2.5h1v-2h2zM3.5 9v1L1 8l2.5-2v1h2v2z"/></g></svg>
