<svg height="16" viewBox="0 0 16 16" width="16" xmlns="http://www.w3.org/2000/svg"><path d="M13.37 12.199h1.08V9.983h-4.289v2.28h1.21v3.755h2zm-7.27.048 1 .648-1 .656v2.454l1.7-1.601L9.705 16v-2.272l-.896-.836.895-.617v-2.216l-1.912 1.424L6.101 9.97zm-1.46-.045h1.079V9.986h-4.29v2.279h1.21V16h2ZM7 1l-.564 2.258c-.384.138-.742.404-1.077.047l-1.601-.961-1.414 1.414 1.195 1.994c-.17.37-.233.81-.723.795L1 7v2h5.27a2 2 0 1 1 3.5 0H15V7l-2.258-.565c-.139-.382-.403-.74-.047-1.074l.961-1.603-1.414-1.414-1.994 1.195c-.37-.17-.81-.233-.795-.723L9 1H7z" fill="#e0e0e0"/></svg>
