<svg stroke-miterlimit="10" style="fill-rule:nonzero;clip-rule:evenodd;stroke-linecap:round;stroke-linejoin:round" viewBox="0 0 16 16" xml:space="preserve" xmlns="http://www.w3.org/2000/svg" xmlns:vectornator="http://vectornator.io"><g fill="#ffca5f" fill-rule="evenodd" vectornator:layerName="Untitled"><path d="M1 1h14v2H1V1Z"/><path d="M7 1h2v14H7V1Z"/><path d="M5 14h6v1H5v-1ZM2 1v4H1V1h1Zm13 0v4h-1V1h1ZM2 3v2a2 2 0 0 1 2-2H2Zm10 0a2 2 0 0 1 2 2V3h-2ZM5 14a2 2 0 0 0 2-2v2H5Zm6 0a2 2 0 0 1-2-2v2h2Z"/></g></svg>
