<svg clip-rule="evenodd" fill-rule="evenodd" stroke-linejoin="round" stroke-miterlimit="2" viewBox="0 0 16 16" xmlns="http://www.w3.org/2000/svg"><g fill="#e0e0e0" fill-rule="nonzero"><path d="m2 1c-.552 0-1 .448-1 1v12c0 .552.448 1 1 1h12c.552 0 1-.448 1-1v-12c0-.552-.448-1-1-1zm1 2h10v8h-10z"/><g fill-opacity=".99"><path d="m4.973 10.075c-.134 0-.275-.012-.424-.036-.149-.018-.293-.044-.432-.08-.14-.035-.266-.074-.381-.115-.114-.041-.203-.08-.268-.115l.216-1.1c.129.065.293.136.492.213.204.071.455.106.753.106.342 0 .593-.076.752-.23s.239-.361.239-.621c0-.159-.03-.292-.09-.399-.054-.112-.131-.201-.231-.266-.099-.071-.218-.118-.357-.142-.134-.029-.279-.044-.432-.044h-.433v-1.064h.492c.109 0 .214-.012.313-.036.104-.023.196-.062.276-.115.079-.059.141-.136.186-.23.05-.101.075-.225.075-.373 0-.112-.02-.21-.06-.292-.04-.083-.092-.151-.157-.204-.059-.054-.131-.092-.216-.116-.079-.029-.161-.044-.246-.044-.213 0-.412.038-.596.115-.178.077-.342.172-.491.284l-.395-.966c.079-.06.171-.122.275-.187.11-.065.229-.124.358-.177s.266-.098.41-.133c.149-.035.305-.053.469-.053.303 0 .564.044.783.133.223.083.407.204.551.363.144.154.251.337.321.55.069.207.104.435.104.683 0 .242-.057.479-.172.709-.114.225-.268.396-.462.515.269.13.475.325.619.585.149.254.223.561.223.922 0 .284-.039.547-.119.789-.079.237-.203.443-.372.621-.169.171-.385.307-.649.408-.258.094-.566.142-.924.142z"/><path d="m9.268 8.815c.055.006.117.012.186.018h.261c.581 0 1.011-.174 1.289-.523.284-.349.425-.831.425-1.445 0-.645-.134-1.132-.402-1.463-.269-.331-.693-.497-1.274-.497-.08 0-.162.003-.246.009-.085 0-.164.006-.239.018zm3.361-1.95c0 .532-.07.996-.209 1.392s-.338.724-.596.984c-.253.26-.564.455-.931.585-.368.13-.78.195-1.237.195-.209 0-.452-.011-.731-.035-.278-.018-.551-.059-.819-.124v-5.986c.268-.059.546-.097.834-.115.293-.023.544-.035.753-.035.442 0 .842.059 1.2.177.362.118.673.305.931.559s.457.579.596.975.209.872.209 1.428z"/></g></g></svg>
