<svg height="16" width="16" viewBox="0 0 16 16" xmlns="http://www.w3.org/2000/svg"><path d="M2 1a1 1 0 0 0-1 1v12a1 1 0 0 0 1 1h12a1 1 0 0 0 1-1V2a1 1 0 0 0-1-1zm1 2h10v8H3zm1.973 7.075c-.134 0-.275-.012-.424-.036a3.3 3.3 0 0 1-.432-.08 4.066 4.066 0 0 1-.381-.115 2.025 2.025 0 0 1-.268-.115l.216-1.1c.129.065.293.136.492.213.204.071.455.106.753.106.342 0 .593-.076.752-.23s.239-.361.239-.621a.806.806 0 0 0-.09-.399.643.643 0 0 0-.231-.266.851.851 0 0 0-.357-.142 2.047 2.047 0 0 0-.432-.044h-.433V6.182h.492c.109 0 .214-.012.313-.036a.813.813 0 0 0 .276-.115.611.611 0 0 0 .186-.23.835.835 0 0 0 .075-.373c0-.112-.02-.21-.06-.292a.586.586 0 0 0-.157-.204.524.524 0 0 0-.216-.116.709.709 0 0 0-.246-.044 1.53 1.53 0 0 0-.596.115 2.401 2.401 0 0 0-.491.284l-.395-.966a2.774 2.774 0 0 1 1.043-.497c.149-.035.305-.053.469-.053.303 0 .564.044.783.133.223.083.407.204.551.363.144.154.251.337.321.55.069.207.104.435.104.683 0 .242-.057.479-.172.709a1.248 1.248 0 0 1-.462.515c.269.13.475.325.619.585.149.254.223.561.223.922a2.5 2.5 0 0 1-.119.789 1.645 1.645 0 0 1-.372.621 1.801 1.801 0 0 1-.649.408 2.703 2.703 0 0 1-.924.142zm4.295-1.26.186.018h.261c.581 0 1.011-.174 1.289-.523.284-.349.425-.831.425-1.445 0-.645-.134-1.132-.402-1.463-.269-.331-.693-.497-1.274-.497-.08 0-.162.003-.246.009-.085 0-.164.006-.239.018zm3.361-1.95c0 .532-.07.996-.209 1.392s-.338.724-.596.984c-.253.26-.564.455-.931.585-.368.13-.78.195-1.237.195-.209 0-.452-.011-.731-.035a4.777 4.777 0 0 1-.819-.124V3.876c.268-.059.546-.097.834-.115.293-.023.544-.035.753-.035.442 0 .842.059 1.2.177.362.118.673.305.931.559s.457.579.596.975.209.872.209 1.428z" fill="#e0e0e0"/></svg>
