<svg height="16" viewBox="0 0 16 16" width="16" xmlns="http://www.w3.org/2000/svg"><g fill="#e0e0e0" transform="translate(-.359546 .287637)"><path d="m2 1c-.5522847 0-1 .4477153-1 1v12c0 .552285.4477153 1 1 1h12c.552285 0 1-.447715 1-1v-12c0-.5522847-.447715-1-1-1zm1 2h10v8h-10z" fill-opacity=".99608" transform="translate(.359546 -.287637)"/><g fill-opacity=".996078" stroke-width=".207395" transform="matrix(1.6197742 0 0 .750929 -3.723153 1.832957)"><path d="m4.9900159 2.5027746h1.85211v1.3316838h-.926055v5.3267353h.926055v1.3316833h-1.85211z"/><path d="m9.9289759 10.492877h-1.85211v-1.3316833h.926055v-5.3267353h-.926055v-1.3316838h1.85211z"/></g></g></svg>
