<?xml version="1.0" encoding="UTF-8" standalone="no"?><!DOCTYPE svg PUBLIC "-//W3C//DTD SVG 1.1//EN" "http://www.w3.org/Graphics/SVG/1.1/DTD/svg11.dtd"><svg width="100%" height="100%" viewBox="0 0 16 16" version="1.1" xmlns="http://www.w3.org/2000/svg" xmlns:xlink="http://www.w3.org/1999/xlink" xml:space="preserve" xmlns:serif="http://www.serif.com/" style="fill-rule:evenodd;clip-rule:evenodd;stroke-linejoin:round;stroke-miterlimit:2;"><path d="M8,1.745c-0.595,0 -1.084,0.489 -1.084,1.084l0,3.699l-3.851,-1.927c-0.163,-0.08 -0.343,-0.119 -0.525,-0.112c-0.395,0.015 -0.752,0.244 -0.929,0.597c-0.076,0.151 -0.115,0.317 -0.115,0.485c0,0.41 0.233,0.786 0.599,0.97l3.481,1.74l-3.481,1.74c-0.366,0.184 -0.599,0.56 -0.599,0.97c0,0.168 0.039,0.334 0.115,0.485c0.183,0.367 0.559,0.599 0.969,0.599c0.168,0 0.334,-0.039 0.485,-0.114l3.851,-1.927l0,3.111c0,0.594 0.489,1.084 1.084,1.084c0.595,-0 1.084,-0.49 1.084,-1.084l-0,-3.111l3.851,1.927c0.151,0.075 0.317,0.114 0.485,0.114c0.41,0 0.786,-0.232 0.969,-0.599c0.076,-0.151 0.115,-0.317 0.115,-0.485c-0,-0.41 -0.233,-0.786 -0.599,-0.97l-3.481,-1.74l3.481,-1.74c0.366,-0.184 0.599,-0.56 0.599,-0.97c-0,-0.168 -0.039,-0.334 -0.115,-0.485c-0.182,-0.364 -0.554,-0.596 -0.961,-0.599c-0.171,-0.001 -0.34,0.038 -0.493,0.114l-3.851,1.927l-0,-3.699c-0,-0.595 -0.489,-1.084 -1.084,-1.084Z" style="fill:#a5efac;"/><path d="M8,1.745c-0,0 -0,1.783 -0,1.783l-1.084,0l0,-0.699c0,-0.595 0.489,-1.084 1.084,-1.084Z" style="fill:#ff7070;fill-rule:nonzero;"/><path d="M1.528,5.312l2.957,-0l-1.42,-0.711c-0.163,-0.08 -0.343,-0.119 -0.525,-0.112c-0.395,0.015 -0.752,0.244 -0.929,0.597c-0.036,0.072 -0.064,0.148 -0.083,0.226Zm5.388,-1.784l1.084,0l-0,1.784l-1.084,-0l0,-1.784Z" style="fill:#ffeb70;fill-rule:nonzero;"/><path d="M6.916,5.312l1.084,-0l-0,1.783l-4.796,0l-1.109,-0.554c-0.366,-0.184 -0.599,-0.56 -0.599,-0.97c0,-0.088 0.011,-0.175 0.032,-0.259l2.957,-0l2.431,1.216l0,-1.216Z" style="fill:#9dff70;fill-rule:nonzero;"/><path d="M3.204,7.095l4.796,0l-0,1.783l-3.619,0l1.195,-0.597l-2.372,-1.186Z" style="fill:#70ffb9;fill-rule:nonzero;"/><path d="M4.381,8.878l3.619,0l-0,1.784l-1.084,-0l0,-0.628l-1.255,0.628l-4.114,-0c0.088,-0.274 0.283,-0.508 0.548,-0.641l2.286,-1.143Z" style="fill:#70deff;fill-rule:nonzero;"/><path d="M6.916,12.445l1.084,0l-0,1.784l-0,-0c-0.595,-0.001 -1.084,-0.49 -1.084,-1.084l0,-0.7Z" style="fill:#ff70ac;fill-rule:nonzero;"/><path d="M6.916,10.662l1.084,-0l-0,1.783l-1.084,0l0,-1.783Zm-1.255,-0l-4.114,-0c-0.033,0.105 -0.051,0.216 -0.051,0.329c0,0.168 0.039,0.334 0.115,0.485c0.183,0.367 0.559,0.599 0.969,0.599c0.168,0 0.334,-0.039 0.485,-0.114l2.596,-1.299Z" style="fill:#9f70ff;fill-rule:nonzero;"/></svg>
