<svg height="16" width="16" viewBox="0 0 16 16" xmlns="http://www.w3.org/2000/svg"><linearGradient x2="0" y2="16" gradientUnits="userSpaceOnUse" id="a"><stop offset=".1875" stop-color="#ff4545"/><stop stop-color="#ffe345"/><stop offset=".3125" stop-color="#ffe345"/><stop stop-color="#80ff45"/><stop offset=".4375" stop-color="#80ff45"/><stop stop-color="#45ffa2"/><stop offset=".5625" stop-color="#45ffa2"/><stop stop-color="#45d7ff"/><stop offset=".6875" stop-color="#45d7ff"/><stop stop-color="#8045ff"/><stop offset=".8125" stop-color="#8045ff"/><stop stop-color="#ff4596"/></linearGradient><path d="M8 14.25a1 1 0 0 0 1.084-1.084V9.753l3.851 1.927a1.084 1.084 0 0 0 .97-1.94L10.424 8l3.481-1.74a1.084 1.084 0 0 0-.97-1.94L9.084 6.247V2.834A1 1 0 0 0 8 1.75z" fill="#8eef97"/><path d="M8 1.75a1 1 0 0 0-1.084 1.084v3.413L3.065 4.32a1 1 0 0 0-.97 1.94L5.576 8 2.095 9.74a1 1 0 0 0 .97 1.94l3.851-1.927v3.413A1 1 0 0 0 8 14.25z" fill="url(#a)"/></svg>
