<svg clip-rule="evenodd" fill-rule="evenodd" stroke-linejoin="round" stroke-miterlimit="2" viewBox="0 0 16 16" xmlns="http://www.w3.org/2000/svg"><path d="m11 6.976h3.015v2.005h-3.015z" fill="#e0e0e0" fill-rule="nonzero"/><path d="m.989 5.995h4.011v4.011h-4.011z" fill="#fff" fill-rule="nonzero"/><path d="m.989 5.995h4.011v4.01h-4.011zm.968.968h2.075v2.074h-2.075z" fill="#e0e0e0"/><path d="m11 1.956h3.015v2.005h-3.015z" fill="#e0e0e0" fill-rule="nonzero"/><path d="m.989.974h4.011v4.011h-4.011z" fill="#fff" fill-rule="nonzero"/><path d="m.989.974h4.011v4.011h-4.011zm.968.968h2.075v2.075h-2.075z" fill="#e0e0e0"/><path d="m11 11.996h3.015v2.005h-3.015z" fill="#e0e0e0" fill-rule="nonzero"/><path d="m.989 11.015h4.011v4.011h-4.011z" fill="#fff" fill-rule="nonzero"/><path d="m.989 11.015h4.011v4.011h-4.011zm.968.968h2.075v2.075h-2.075z" fill="#e0e0e0"/><path d="m5.995 5.995h4.011v4.011h-4.011z" fill="#fff" fill-rule="nonzero"/><path d="m5.995 5.995h4.01v4.01h-4.01zm.968.968h2.074v2.074h-2.074z" fill="#e0e0e0"/><path d="m5.995.974h4.011v4.011h-4.011z" fill="#fff" fill-rule="nonzero"/><path d="m5.995.974h4.01v4.011h-4.01zm.968.968h2.074v2.075h-2.074z" fill="#e0e0e0"/><path d="m5.995 11.015h4.011v4.011h-4.011z" fill="#fff" fill-rule="nonzero"/><path d="m5.995 11.015h4.01v4.011h-4.01zm.968.968h2.074v2.075h-2.074z" fill="#e0e0e0"/></svg>
