<?xml version="1.0" encoding="UTF-8" standalone="no"?><!DOCTYPE svg PUBLIC "-//W3C//DTD SVG 1.1//EN" "http://www.w3.org/Graphics/SVG/1.1/DTD/svg11.dtd"><svg width="100%" height="100%" viewBox="0 0 16 16" version="1.1" xmlns="http://www.w3.org/2000/svg" xmlns:xlink="http://www.w3.org/1999/xlink" xml:space="preserve" xmlns:serif="http://www.serif.com/" style="fill-rule:evenodd;clip-rule:evenodd;stroke-linejoin:round;stroke-miterlimit:2;"><path d="M11.299,3c0.772,0.513 1.42,1.199 1.888,2l-2.553,0c-0.706,-0.621 -1.629,-1 -2.634,-1c-1.005,0 -1.928,0.379 -2.634,1l-2.553,0c0.468,-0.801 1.116,-1.487 1.888,-2l6.598,-0Z" style="fill:#ffeb70;fill-rule:nonzero;"/><path d="M5.366,5c-0.593,0.522 -1.033,1.216 -1.238,2l-2.043,0c0.122,-0.717 0.373,-1.392 0.728,-2l2.553,-0Zm7.821,-0c0.355,0.608 0.606,1.283 0.728,2l-2.043,0c-0.205,-0.784 -0.645,-1.478 -1.238,-2l2.553,-0Z" style="fill:#9dff70;fill-rule:nonzero;"/><path d="M13.915,7c0.056,0.326 0.085,0.66 0.085,1c-0,0.34 -0.029,0.674 -0.085,1l-2.043,0c0.083,-0.32 0.128,-0.655 0.128,-1c0,-0.345 -0.045,-0.68 -0.128,-1l2.043,-0Zm-9.787,0c-0.083,0.32 -0.128,0.655 -0.128,1c0,0.345 0.045,0.68 0.128,1l-2.043,-0c-0.056,-0.326 -0.085,-0.66 -0.085,-1c0,-0.34 0.029,-0.674 0.085,-1l2.043,0Z" style="fill:#70ffb9;fill-rule:nonzero;"/><path d="M4.128,9c0.205,0.784 0.645,1.478 1.238,2l-2.553,0c-0.355,-0.608 -0.606,-1.283 -0.728,-2l2.043,0Zm9.787,0c-0.122,0.717 -0.373,1.392 -0.728,2l-2.553,0c0.593,-0.522 1.033,-1.216 1.238,-2l2.043,0Z" style="fill:#70deff;fill-rule:nonzero;"/><path d="M11.299,13l-6.598,0c0.949,0.631 2.084,1 3.299,1c1.215,0 2.35,-0.369 3.299,-1Z" style="fill:#ff70ac;fill-rule:nonzero;"/><path d="M13.187,11c-0.468,0.801 -1.116,1.487 -1.888,2l-6.598,0c-0.772,-0.513 -1.42,-1.199 -1.888,-2l2.553,0c0.706,0.621 1.629,1 2.634,1c1.005,0 1.928,-0.379 2.634,-1l2.553,0Z" style="fill:#9f70ff;fill-rule:nonzero;"/><path d="M4.701,3l6.598,0c-0.949,-0.631 -2.084,-1 -3.299,-1c-1.215,0 -2.35,0.369 -3.299,1Z" style="fill:#ff7070;fill-rule:nonzero;"/></svg>
