<svg height="16" viewBox="0 0 16 16" width="16" xmlns="http://www.w3.org/2000/svg"><g stroke-width="0"><path d="m6.7246 3c-.52985.78935-.96267 1.4021-1.3945 2h5.3398c-.43187-.59786-.86468-1.2107-1.3945-2z" fill="#ffeb70"/><path d="m5.3301 5c-.52617.72841-1.0198 1.4208-1.375 2h8.0898c-.35516-.57924-.84883-1.2716-1.375-2z" fill="#9dff70"/><path d="m3.9551 7c-.41451.67603-.71534 1.3082-.85547 2h9.8008c-.14013-.69181-.44096-1.324-.85547-2h-8.0898z" fill="#70ffb9"/><path d="m3.0996 9c-.063989.3159-.099609.64498-.099609 1 0 .34242.034776.67693.10156 1h9.7969c.066786-.32307.10156-.65758.10156-1 0-.35502-.03562-.6841-.099609-1h-9.8008z" fill="#70deff"/><path d="m3.1016 11c.15381.74405.48967 1.4159.93555 2h7.9258c.44588-.5841.78173-1.2559.93555-2h-9.7969z" fill="#9f70ff"/><path d="m4.0371 13c.9218 1.2076 2.3612 2 3.9629 2s3.0411-.79243 3.9629-2z" fill="#ff70ac"/><path d="m8 1c-.45196.75327-.87224 1.3994-1.2754 2h2.5508c-.40315-.6006-.82343-1.2467-1.2754-2z" fill="#ff7070"/></g></svg>
