<svg height="64" viewBox="0 0 64 64" width="64" xmlns="http://www.w3.org/2000/svg"><path d="m8 0c-4.432 0-8 3.568-8 8v48c0 4.432 3.568 8 8 8h48c4.432 0 8-3.568 8-8v-48c0-4.432-3.568-8-8-8zm0 2h48c3.324 0 6 2.676 6 6v48c0 3.324-2.676 6-6 6h-48c-3.324 0-6-2.676-6-6v-48c0-3.324 2.676-6 6-6zm-.013672 5.002a1 1 0 0 0 -.69336.29102 1 1 0 0 0 0 1.4141l8 8a1 1 0 0 0 1.4141 0 1 1 0 0 0 0-1.4141l-8-8a1 1 0 0 0 -.7207-.29102zm48 0a1 1 0 0 0 -.69336.29102l-8 8a1 1 0 0 0 0 1.4141 1 1 0 0 0 1.4141 0l8-8a1 1 0 0 0 0-1.4141 1 1 0 0 0 -.7207-.29102zm-33.986 10.998a2.0002 2.0002 0 0 0 -.37891.039062c-.005702.001087-.011894.000819-.017578.001954-.01402.002798-.027106.006677-.041016.009765a2.0002 2.0002 0 0 0 -.30859.095703c-.024592.009869-.048174.020446-.072265.03125a2.0002 2.0002 0 0 0 -.24609.13281c-.021344.013452-.043669.024834-.064453.039062-.008816.006036-.016678.013359-.025391.019532a2.0002 2.0002 0 0 0 -.21484.17578c-.0215.020231-.04387.039386-.064453.060547a2.0002 2.0002 0 0 0 -.001953.001953 2.0002 2.0002 0 0 0 -.18555.22461c-.017788.024669-.036063.048717-.052734.074219a2.0002 2.0002 0 0 0 -.14258.26562c-.013621.029909-.026892.059158-.039063.089844a2.0002 2.0002 0 0 0 -.09375.30078c-.004203.018931-.008053.037509-.011719.056641a2.0002 2.0002 0 0 0 -.039062.38086c0 3 1.9339 5.2454 3.7461 7.3164 1.5217 1.7392 2.8322 3.2888 3.75 4.6836-.91778 1.3948-2.2283 2.9444-3.75 4.6836-1.8122 2.071-3.7461 4.3164-3.7461 7.3164a2.0002 2.0002 0 0 0 .041016.4043 2.0002 2.0002 0 0 0 .10547.3418c.008774.021862.017831.042985.027344.064453a2.0002 2.0002 0 0 0 .14648.27344c.010017.015513.018867.031664.029297.046875l.001953.001953a2.0002 2.0002 0 0 0 .19336.23633c.020231.0215.039386.04387.060547.064453a2.0002 2.0002 0 0 0 .001953.001953 2.0002 2.0002 0 0 0 .23438.19336c.021387.01522.042447.030536.064453.044922a2.0002 2.0002 0 0 0 .27734.15039c.019743.008822.038513.019147.058594.027343a2.0002 2.0002 0 0 0 .33789.10352c.005331.001131.010278.002818.015625.003906a2.0002 2.0002 0 0 0 .009766 0 2.0002 2.0002 0 0 0 .39453.041016h20a2.0002 2.0002 0 0 0 .4043-.041016 2.0002 2.0002 0 0 0 .375-.11523 2.0002 2.0002 0 0 0 .29297-.1582c.018831-.011984.038248-.022566.05664-.035156a2.0002 2.0002 0 0 0 .021485-.015625 2.0002 2.0002 0 0 0 .23633-.19531c.013296-.012808.028079-.023939.041015-.037109a2.0002 2.0002 0 0 0 .20508-.25c.012127-.017168.025518-.033217.03711-.050782a2.0002 2.0002 0 0 0 .15234-.28125c.01106-.024605.021165-.049089.03125-.074218a2.0002 2.0002 0 0 0 .097656-.31445c.003563-.016291.0066-.03239.009766-.048829a2.0002 2.0002 0 0 0 .039062-.38281c0-3-1.9339-5.2454-3.7461-7.3164-1.5217-1.7392-2.8322-3.2888-3.75-4.6836.91778-1.3948 2.2283-2.9444 3.75-4.6836 1.8122-2.071 3.7461-4.3164 3.7461-7.3164a2.0002 2.0002 0 0 0 -.041016-.4043v-.001953a2.0002 2.0002 0 0 0 -.10156-.32617c-.011965-.03044-.023719-.060163-.03711-.089844a2.0002 2.0002 0 0 0 -.13476-.25c-.011984-.018831-.022566-.038248-.035156-.05664a2.0002 2.0002 0 0 0 -.023438-.03125 2.0002 2.0002 0 0 0 -.1582-.19336c-.025026-.027154-.049686-.054353-.076172-.080078a2.0002 2.0002 0 0 0 -.027344-.02539 2.0002 2.0002 0 0 0 -.18945-.1543c-.031037-.022641-.061384-.04555-.09375-.066407l-.001953-.001953a2.0002 2.0002 0 0 0 -.24219-.13086c-.031326-.014467-.061564-.030098-.09375-.042969a2.0002 2.0002 0 0 0 -.29883-.091797c-.021554-.004877-.042636-.009492-.064453-.013672a2.0002 2.0002 0 0 0 -.38086-.039062h-20zm3.1758 4h13.648c-.4756.8814-.611 1.5782-1.5781 2.6836-1.6878 1.929-3.7966 3.9449-5.0352 6.4219a2.0002 2.0002 0 0 0 -.20898.89453h-.003906a2.0002 2.0002 0 0 0 -.20898-.89453c-1.2385-2.477-3.3473-4.4929-5.0352-6.4219-.96713-1.1054-1.1025-1.8022-1.5781-2.6836zm-9.1895 25.002a1 1 0 0 0 -.69336.29102l-8 8a1 1 0 0 0 0 1.4141 1 1 0 0 0 1.4141 0l8-8a1 1 0 0 0 0-1.4141 1 1 0 0 0 -.7207-.29102zm32 0a1 1 0 0 0 -.69336.29102 1 1 0 0 0 0 1.4141l8 8a1 1 0 0 0 1.4141 0 1 1 0 0 0 0-1.4141l-8-8a1 1 0 0 0 -.7207-.29102z" fill="#e0e0e0" stroke-linecap="round" stroke-linejoin="round" stroke-width="2"/></svg>
