<svg xmlns="http://www.w3.org/2000/svg" width="16" height="16"><path fill="#e0e0e0" d="M3 1a1 1 0 0 0-1 1c0 1.5.967 2.625 1.873 3.66.76.87 1.416 1.643 1.875 2.34-.459.697-1.114 1.472-1.875 2.342C2.967 11.377 2 12.5 2 14a1 1 0 0 0 1 1h10a1 1 0 0 0 1-1c0-1.5-.967-2.623-1.873-3.658-.76-.87-1.416-1.645-1.875-2.342.459-.697 1.114-1.47 1.875-2.34C13.033 4.625 14 3.5 14 2a1 1 0 0 0-1-1zm8.412 2c-.238.44-.305.79-.789 1.342-.844.964-1.898 1.972-2.518 3.21A1 1 0 0 0 8 8a1 1 0 0 0-.106-.447c-.619-1.239-1.673-2.247-2.517-3.211-.484-.553-.551-.901-.79-1.342z"/></svg>
