<svg height="16" viewBox="0 0 16 16" width="16" xmlns="http://www.w3.org/2000/svg"><path d="m3 1a1.0001 1.0001 0 0 0 -.38672.078125 1.0001 1.0001 0 0 0 -.0019531 0c-.0022762.0009545-.0035918.0029354-.0058593.0039062a1.0001 1.0001 0 0 0 -.31055.20898c-.0012857.0012787-.0026276.0026206-.0039063.0039063a1.0001 1.0001 0 0 0 -.20508.30469c-.0029915.0068502-.0069239.012601-.0097656.019531a1.0001 1.0001 0 0 0 -.076172.38086c0 1.5.96697 2.6247 1.873 3.6602.76081.8695 1.4161 1.6425 1.875 2.3398-.45889.6974-1.1141 1.4723-1.875 2.3418-.90608 1.0355-1.873 2.1582-1.873 3.6582a1.0001 1.0001 0 0 0 .078125.38867v.001953c.0009292.002204.0029617.003663.0039062.005859a1.0001 1.0001 0 0 0 .20898.30664c.0010185.001027.0028834.004836.0039063.005859a1.0001 1.0001 0 0 0 .30078.20312c.0093182.004119.017877.007879.027344.011719a1.0001 1.0001 0 0 0 .37695.076172h10a1.0001 1.0001 0 0 0 .375-.074219c.010174-.0041.019294-.009251.029297-.013672a1.0001 1.0001 0 0 0 .29297-.19922c.004786-.004679.00898-.008899.013672-.013672a1.0001 1.0001 0 0 0 .20117-.29492c.004119-.009318.007879-.017877.011719-.027344a1.0001 1.0001 0 0 0 .076172-.37695c0-1.5-.96697-2.6227-1.873-3.6582-.76087-.8695-1.4161-1.6444-1.875-2.3418.4589-.6973 1.1142-1.4703 1.875-2.3398.90608-1.0355 1.873-2.1602 1.873-3.6602a1.0001 1.0001 0 0 0 -.078125-.39062 1.0001 1.0001 0 0 0 -.21484-.31641 1.0001 1.0001 0 0 0 -.31055-.21094 1.0001 1.0001 0 0 0 -.011718-.0058593 1.0001 1.0001 0 0 0 -.38477-.076172h-10zm1.5879 2h6.8242c-.2378.4408-.3055.7892-.78906 1.3418-.84392.9645-1.8983 1.9723-2.5176 3.2109a1.0001 1.0001 0 0 0 -.10547.44727 1.0001 1.0001 0 0 0 -.10547-.44727c-.61926-1.2386-1.6737-2.2464-2.5176-3.2109-.48356-.5526-.55126-.901-.78906-1.3418z" fill="#e0e0e0"/></svg>
