<svg xmlns="http://www.w3.org/2000/svg" width="100" height="24" stroke-linejoin="round"><path fill="#dfdfe0" d="m 31.711862,14.667195 q 0,1.00227 -0.395832,1.791093 -0.386837,0.788823 -1.070548,1.308519 -0.791666,0.612498 -1.745263,0.872346 Q 27.555618,18.899 26.098233,18.899 h -5.84753 V 5.0806726 h 5.199804 q 1.619316,0 2.366001,0.1113633 0.755681,0.1113633 1.493369,0.4918545 0.764677,0.3990518 1.133522,1.0765118 0.37784,0.6681797 0.37784,1.5312451 0,1.0022696 -0.512784,1.7725327 -0.512783,0.760982 -1.448388,1.187875 v 0.07424 q 1.313445,0.269128 2.078123,1.113633 0.773672,0.844505 0.773672,2.227265 z m -4.42613,-5.6795271 q 0,-0.3433702 -0.170928,-0.6867403 Q 26.952872,7.9575575 26.530052,7.7905126 26.152211,7.6420282 25.58545,7.6327479 25.027686,7.6141874 24.011115,7.6141874 h -0.323863 v 2.9232866 h 0.539771 q 0.818655,0 1.394412,-0.02784 0.575756,-0.02784 0.908617,-0.185606 0.467802,-0.213446 0.611741,-0.5475359 0.143939,-0.3433701 0.143939,-0.7888232 z m 0.845643,5.6238461 q 0,-0.6589 -0.251893,-1.01155 -0.242898,-0.361931 -0.836648,-0.538256 -0.404828,-0.120644 -1.115528,-0.129924 -0.7107,-0.0093 -1.484373,-0.0093 h -0.755681 v 3.442981 h 0.251894 q 1.457384,0 2.087118,-0.0093 0.629734,-0.0093 1.160509,-0.241287 0.539773,-0.232007 0.737689,-0.612498 0.206913,-0.389771 0.206913,-0.890906 z M 37.343484,18.899 H 34.104852 V 4.4588943 h 3.238632 z m 9.176125,-2.71912 v -2.171584 q -0.656723,0.05568 -1.4214,0.157765 -0.764677,0.0928 -1.160509,0.222726 -0.485795,0.157765 -0.746685,0.464014 -0.251894,0.296969 -0.251894,0.788823 0,0.32481 0.05398,0.528976 0.05398,0.204166 0.269886,0.389771 0.206913,0.185606 0.494791,0.278408 0.287879,0.08352 0.899621,0.08352 0.485794,0 0.980585,-0.204166 0.503788,-0.204166 0.881628,-0.538256 z m 0,1.614768 q -0.26089,0.204166 -0.647726,0.491854 -0.386837,0.287689 -0.728693,0.454734 -0.476798,0.222726 -0.989582,0.324809 -0.512783,0.111363 -1.124525,0.111363 -1.439392,0 -2.410981,-0.918747 -0.97159,-0.918747 -0.97159,-2.347909 0,-1.141474 0.494791,-1.865335 0.494791,-0.723861 1.403407,-1.141474 0.89962,-0.417612 2.231058,-0.593937 1.331437,-0.176325 2.761833,-0.259848 v -0.05568 q 0,-0.863066 -0.683711,-1.187875 -0.683711,-0.33409 -2.015149,-0.33409 -0.800662,0 -1.709278,0.296968 -0.908616,0.287689 -1.304449,0.445454 H 40.528139 V 8.6999794 q 0.512784,-0.1392041 1.664298,-0.3248096 1.160509,-0.1948857 2.321019,-0.1948857 2.761833,0 3.985317,0.881626 1.232479,0.8723457 1.232479,2.7469609 V 18.899 H 46.519609 Z M 61.426314,18.899 h -9.490992 v -2.143743 l 5.325751,-5.837292 H 52.151232 V 8.4772528 h 9.176124 v 2.1066222 l -5.244786,5.828012 h 5.343744 z m 5.514668,0 H 63.70235 V 8.4772528 h 3.238632 z M 67.030941,6.992409 H 63.612388 V 4.4588943 h 3.418556 z M 80.06644,18.899 h -3.238632 v -1.150754 q -0.89962,0.705301 -1.646304,1.076512 -0.746685,0.361931 -1.781249,0.361931 -1.673293,0 -2.581909,-0.99299 -0.89962,-0.992989 -0.89962,-2.932566 V 8.4772528 h 3.256624 v 5.1691122 q 0,0.788824 0.04498,1.317799 0.05397,0.519695 0.233901,0.863066 0.170927,0.34337 0.512784,0.501134 0.350851,0.157765 0.971589,0.157765 0.413825,0 0.917612,-0.157765 0.503787,-0.157764 0.97159,-0.464013 V 8.4772528 h 3.238632 z M 93.00298,11.511902 V 18.899 h -3.256627 v -5.206233 q 0,-0.760983 -0.03598,-1.289958 -0.03598,-0.538256 -0.197916,-0.872346 -0.161932,-0.33409 -0.494791,-0.482574 -0.323864,-0.157765 -0.917613,-0.157765 -0.476798,0 -0.926608,0.204166 -0.449811,0.194886 -0.809659,0.417612 V 18.899 H 83.12515 V 8.4772528 h 3.238631 v 1.150754 q 0.836648,-0.67746 1.601324,-1.0579513 0.764677,-0.3804912 1.691286,-0.3804912 0.998578,0 1.763256,0.4640137 0.764674,0.4547334 1.196498,1.3456397 0.971581,-0.8445049 1.889195,-1.3270791 0.917614,-0.4825743 1.799245,-0.4825743 1.637309,0 2.482946,1.0115499 0.854643,1.0115498 0.854643,2.9140058 V 18.899 h -3.256625 v -5.206233 q 0,-0.770263 -0.03597,-1.299239 -0.02695,-0.528975 -0.188924,-0.863065 -0.152931,-0.33409 -0.48579,-0.482574 -0.33286,-0.157765 -0.935607,-0.157765 -0.404826,0 -0.791661,0.148484 -0.386845,0.139204 -0.944602,0.473294 z" aria-label="Blazium" font-family="Inter Alia" font-size="19.006" font-weight="700" style="-inkscape-font-specification:&quot;Inter Alia, Bold&quot;"/><path fill="#d848fb" d="m 8.1145686,13.846789 c 1.707295,-0.09392 3.2329164,1.50618 3.0580054,3.207334 -0.05866,1.575096 -1.5223794,2.95983 -3.1174684,2.804545 -1.852667,0.06801 -3.2865799,-1.919833 -2.84122,-3.66477 0.264685,-1.34269 1.541945,-2.346746 2.900683,-2.347109 z" style="mix-blend-mode:normal"/><path fill="#d848fb" d="M 2.2745251,0.66305067 C 2.6477107,1.4299542 3.2569117,2.1273567 3.4927962,2.9832691 4.1730192,4.766394 3.6793735,6.7323582 2.7942363,8.3490919 1.4384461,11.011341 0.12262044,13.946881 0.50192504,17.004757 c 0.3830905,2.762363 2.34655726,5.297142 5.04900556,6.117264 2.712766,0.905547 5.9086804,0.0034 7.7274944,-2.210172 1.247965,-1.45489 1.974748,-3.470454 1.632773,-5.385996 C 14.390913,13.395997 12.731185,11.623518 10.63204,10.982039 9.3600846,10.55704 8.1061306,9.9215141 7.2676186,8.8449174 c -0.233828,0.6856474 -0.440618,1.5522356 -0.694489,2.3026616 -0.234854,0.827803 -0.523998,1.623342 -0.755586,2.471869 0.696487,-0.2739 1.513705,-0.746806 2.358515,-0.682945 2.1263994,-0.04121 3.9964854,1.901243 3.9125394,4.020843 -0.01709,2.069864 -1.903865,3.908048 -3.9834024,3.825071 -2.07158,0.0093 -3.8470841,-1.824247 -3.9090628,-3.869954 -0.028382,-1.552389 0.6025784,-3.02257 1.0280708,-4.493187 C 6.0479386,9.9778152 6.8377286,7.3856296 6.5192816,4.7812507 6.3571516,2.9637455 5.1028766,1.2016777 3.2644647,0.80541248 2.9414034,0.72217658 2.6096263,0.65654953 2.2745251,0.66305067 Z" style="mix-blend-mode:normal"/><path fill="#d848fb" d="m 9.2821326,1.9960833 c -0.833267,0.5787155 -1.607321,1.4123977 -1.86423,2.4111026 0.176755,1.0604384 0.05307,2.1435024 0.03706,3.2021078 0.453578,1.6002028 2.110918,2.329973 3.5545814,2.8169693 1.760148,0.607305 3.286638,1.895705 4.035416,3.618883 0.174698,0.340433 0.775302,1.826403 0.709404,0.602853 0.05988,-2.110647 -0.837846,-4.232473 -2.49016,-5.5707773 C 12.044197,7.9818026 10.32077,7.3894355 9.5669336,5.8287896 8.9141586,4.6836902 8.9528026,3.2802998 9.3406616,2.0546048 l -0.02928,-0.02926 z" style="mix-blend-mode:normal"/></svg>