<svg width="100" height="24" viewBox="0 0 100 24" stroke-linejoin="round" xmlns="http://www.w3.org/2000/svg"><path d="M40.122 11.514c-1.211-.019-2.597.234-2.597.234v2.364h1.393l-.015 1.052q0 .587-1.159.587c-1.159 0-1.454-.328-2.045-.979q-.89-.98-.889-2.867 0-1.89.865-2.79.866-.899 2.261-.899c.411.003.821.067 1.214.191q.63.192.844.358.212.172.405.17.19 0 .616-.45.43-.45.767-1.359c.224-.61.337-1.076.337-1.407a6 6 0 0 0-.023-.674q-.47-.517-1.744-.821-1.268-.305-2.844-.304-3.463 0-5.419 2.181-1.957 2.182-1.957 5.668 0 4.094 2.001 6.207 2.002 2.114 5.263 2.113 1.754 0 3.114-.303 1.361-.303 1.811-.619l.09-7.038c0-.408-1.079-.594-2.289-.615M51.279 8.23q-1.078 0-1.81.989-.73.99-.731 2.776 0 1.79.698 2.745.697.957 1.832.957c1.135 0 1.372-.323 1.844-.969q.709-.966.709-2.766c0-1.8-.244-2.122-.731-2.767q-.73-.965-1.811-.965m-.011 11.85q-3.16 0-5.15-2.067-1.989-2.07-1.989-6.039 0-3.97 2.011-6.017 2.014-2.046 5.196-2.046 3.183-.001 5.138 2.014 1.958 2.013 1.957 6.094t-2.001 6.073q-2.002 1.988-5.162 1.988M64.77 8.386v6.727q0 .47.068.595c.068.125.18.124.404.124q1.238 0 1.879-.923.641-.921.64-3.069c-.001-2.148-.222-2.366-.663-2.799q-.664-.654-2.103-.655zm-4.317 10.436V5.33q0-.563.282-.891a.92.92 0 0 1 .73-.326h3.756q3.575 0 5.429 1.801 1.857 1.798 1.857 5.666 0 8.276-7.063 8.276h-3.845q-1.146 0-1.147-1.034M81.186 8.23q-1.08 0-1.812.989-.73.99-.73 2.776 0 1.79.697 2.745.697.957 1.833.957c1.136 0 1.372-.323 1.844-.969q.709-.966.709-2.766c0-1.8-.244-2.122-.731-2.767q-.73-.965-1.81-.965m-.012 11.85q-3.16 0-5.15-2.067-1.99-2.07-1.99-6.039 0-3.97 2.012-6.017 2.014-2.046 5.196-2.046c3.182 0 3.834.67 5.138 2.014q1.957 2.013 1.957 6.094t-2.002 6.073q-2.001 1.988-5.161 1.988m15.587-.552q0 .448-2.226.449-2.227-.001-2.228-.449V8.238h-2.698q-.382 0-.539-1.036a7 7 0 0 1-.066-1.011q0-.517.065-1.012c.105-.688.285-1.036.54-1.036h9.783q.382.001.541 1.036a7.7 7.7 0 0 1 0 2.023q-.16 1.036-.541 1.036h-2.631z" fill="#e0e0e0"/><path d="M2.644 9.821v7.76c0 6.683 19.71 6.611 19.71-.072V9.881q.727-.944 1.356-1.961a13.8 13.8 0 0 0-2.009-2.615q-1.042.484-1.986 1.138a11.3 11.3 0 0 0-2.131-1.55q.17-1.235.194-2.47A14 14 0 0 0 14.8 1.406q-.63 1.042-1.114 2.155a8.4 8.4 0 0 0-2.373 0 18 18 0 0 0-1.114-2.155A14 14 0 0 0 7.22 2.423q.025 1.236.194 2.47a11.3 11.3 0 0 0-2.131 1.55 13.4 13.4 0 0 0-1.985-1.138 13.7 13.7 0 0 0-2.01 2.615c.42.678.872 1.271 1.356 1.901z" fill="none" stroke="#e0e0e0" stroke-width="2"/><g fill="#e0e0e0"><path d="m2.644 15.838 3.681.339q.29.024.363.339l.097 1.622 3.196.243.194-1.478q.048-.265.363-.363h3.923q.315.097.363.363l.194 1.478 3.196-.243.097-1.622q.072-.315.363-.339l3.68-.339v.799l-3.244.29-.121 1.671q-.05.243-.339.315l-3.923.267q-.29 0-.388-.267l-.242-1.574H10.95l-.243 1.574q-.096.267-.387.267l-3.922-.267q-.29-.072-.34-.315l-.121-1.671-3.269-.29z" stroke="#e0e0e0"/><path d="m11.801 13.556-.001-2.082c0-.824 1.404-.824 1.404 0v2.082c0 .824-1.404.824-1.404 0M7.338 9.821a2.18 2.18 0 0 1 0 4.359 2.18 2.18 0 0 1 0-4.359m10.322 0a2.18 2.18 0 0 1 0 4.359 2.18 2.18 0 0 1 0-4.359"/></g></svg>
