<svg xmlns="http://www.w3.org/2000/svg" width="100" height="24"><linearGradient id="a" x1="-.256" x2="-.211" y1="-.014" y2="-.014" gradientTransform="matrix(382.56351 389.67343 -401.7259 394.40986 100.796 107.452)" gradientUnits="userSpaceOnUse"><stop offset="0" stop-color="#ff1300"/><stop offset="1" stop-color="#ff6e01"/></linearGradient><path fill="url(#a)" d="m13.875.332031-.566406 1.796875-1.859375.804688c-.660157-.140625-1.316407-.300782-1.984375-.378906-.105469.117187-2.765625 4.207031-2.765625 4.25.125.300781.335937.558593.492187.839843l9.679688 3.398438 9.675781-3.398438c.160156-.28125.371094-.539062.492187-.839843 0-.042969-2.660156-4.132813-2.765624-4.25-.664063.078124-1.324219.238281-1.980469.378906l-1.859375-.804688-.570313-1.796875zm-5.945312 8.546875c-.011719-.003906-.035157.015625-.035157.019532-.117187.953124-.34375 2.855468-.34375 2.855468l.589844 2.546875 4.460937 2.027344 4.269532-1.597656 4.269531 1.597656 4.460937-2.027344.589844-2.546875s-.226562-1.902344-.34375-2.855468c0-.007813-.042968-.035157-.042968-.007813-2.917969 1.039063-5.964844 2.042969-8.933594 3.070313-2.964844-1.027344-6.011719-2.03125-8.933594-3.070313 0-.003906 0-.007813-.011719-.011719zm2.097656 2.164063 4.175781 1.542969c-.023437.152343-.058594.300781-.109375.441406-.210938.566406-.636719 1.023437-1.183594 1.277344-.546875.25-1.171875.277343-1.738281.070312-.421875-.15625-.789063-.4375-1.050781-.800781-.265625-.367188-.414063-.800781-.429688-1.25-.019531-.453125.097656-.898438.335938-1.28125zm13.6875 0c.285156.460937.398437 1.011719.316406 1.546875-.085938.539062-.359375 1.027344-.769531 1.378906-.414063.355469-.9375.546875-1.480469.546875-.953125 0-1.804688-.59375-2.132812-1.488281-.050782-.140625-.089844-.289063-.109376-.441406zm-16.9375 1.722656-1.070313 1.058594 1.605469 5.625 5.070312 2.082031-.273437-4.375-4.808594-2.238281zm20.1875 0-.523438 2.152344-4.8125 2.238281-.273437 4.375 5.074219-2.082031 1.605468-5.625zm-10.09375 2.894531-3.804688 1.507813.230469 4.726562 3.574219 1.457031 3.570312-1.457031.234375-4.726562zm0 0"/><path fill="#8b8b8b" fill-rule="evenodd" stroke="#767676" stroke-linecap="square" stroke-miterlimit="2" d="m285.845624.647626c26.38125-.534375 39.31875 19.51875 39.065625 44.1-.28125 24.609375-15.69375 40.8375-40.1625 41.23125-24.46875.365625-38.5875-15.721875-38.86875-41.934375-.28125-26.240625 22.359375-43.03125 39.965625-43.396875zm-285.8343752 1.096875v83.503125h16.5375002l.73125-33.834375c8.634375-.703125 14.709375.984375 18.225 5.034375 8.240625 9.534375 14.878125 19.125 19.940625 28.8h19.434375c-5.878125-9.928125-11.8125-19.575-17.83125-28.940625-2.953125-4.6125-6.384375-7.2-10.2375-7.7625 8.690625-2.5875 14.203125-5.484375 16.5375-8.6625 6.075-8.184375 4.05-21.43125 2.98125-23.653125-2.08125-4.33125-6.80625-11.1375-19.51875-14.484375-8.746875-2.334375-24.35625-2.334375-46.8000002 0m84.9375002 0v83.503125h64.096875v-13.66875h-47.53125v-23.034375h42.496875v-13.696875h-41.765625l-.73125-18.703125 45.365625-.73125v-13.66875zm78.496875 0v83.503125c46.63125 4.44375 69.4125-10.06875 68.4-43.565625-.95625-30.403125-23.7375-43.734375-68.4-39.9375m170.634375 0v13.66875h25.2v69.834375h16.565625v-69.834375h24.46875v-13.66875zm-47.64375 13.89375c19.378125-.675 23.5125 16.48125 23.2875 28.8s-11.19375 28.51875-25.509375 28.575-23.203125-16.790625-22.753125-28.8c.421875-12.009375 5.56875-27.9 24.975-28.575zm-236.1375 11.025c-.253125 9.05625-11.334375 12.853125-33.271875 11.3625l-.3375-22.021875c13.55625.253125 33.553125-2.64375 33.609375 10.659375zm129.7125-11.25c22.978125-1.29375 34.846875 7.340625 35.634375 25.93125.928125 22.359375-10.940625 32.45625-35.634375 30.234375zm21.234375 91.715625c-3.4875.815625-6.834375 1.6875-10.040625 2.615625-18.309375-18.50625-26.746875 4.05-26.83125 11.896875-.1125 7.846875 6.046875 23.990625 27.140625 12.571875.759375-.50625 1.0125-2.925.73125-7.2h-12.234375v-8.634375h22.303125v21.6c-4.415625 3.825-9.871875 6.215625-16.36875 7.2-27.9 4.21875-31.33125-14.79375-31.95-25.48125-.590625-28.35 34.003125-40.246875 47.25-14.56875zm-150.13125-13.95v53.26875h39.6v-8.634375h-29.503125v-15.13125h26.634375v-8.634375h-26.634375v-12.234375h28.8v-8.634375zm49.696875 0v53.26875h9.3375v-34.565625l22.33125 34.565625h10.06875v-53.26875h-9.3375l-.73125 34.565625-21.6-34.565625zm111.6 0v53.26875h10.8v-53.26875zm21.6 0v53.26875h9.3375v-34.565625l21.6 34.565625h10.8v-53.26875h-9.3375v35.26875l-22.33125-35.26875zm54 0v53.26875h40.303125v-8.634375h-30.234375v-15.13125h26.634375v-8.634375h-26.634375v-12.234375h28.8v-8.634375zm0 0" transform="translate(35.1 1.86)scale(.13889)"/></svg>