<svg clip-rule="evenodd" fill-rule="evenodd" stroke-linejoin="round" viewBox="0 0 100 24" xmlns="http://www.w3.org/2000/svg"><path d="m40.122 11.514c-1.211-.019-2.597.234-2.597.234v2.364h1.393l-.015 1.052c0 .391-.387.587-1.159.587s-1.454-.328-2.045-.979c-.594-.654-.889-1.609-.889-2.867 0-1.261.288-2.19.865-2.79.577-.599 1.331-.899 2.261-.899.411.003.821.067 1.214.191.42.128.701.247.844.358.142.116.276.17.405.17.127 0 .332-.149.616-.45.286-.299.542-.754.767-1.359.224-.61.337-1.076.337-1.407 0-.328-.007-.555-.023-.674-.314-.345-.895-.618-1.744-.821-.845-.204-1.794-.304-2.844-.304-2.309 0-4.115.728-5.419 2.181-1.305 1.455-1.957 3.344-1.957 5.668 0 2.729.667 4.798 2.001 6.207 1.335 1.41 3.089 2.113 5.263 2.113 1.169 0 2.207-.101 3.114-.303.908-.202 1.511-.409 1.811-.619l.09-7.038c0-.408-1.079-.594-2.289-.615zm11.157-3.284c-.719 0-1.321.33-1.81.989-.487.66-.731 1.585-.731 2.776 0 1.193.232 2.108.698 2.745.465.638 1.075.957 1.832.957s1.372-.323 1.844-.969c.472-.644.709-1.566.709-2.766s-.244-2.122-.731-2.767c-.487-.643-1.091-.965-1.811-.965m-.011 11.85c-2.106 0-3.823-.689-5.15-2.067-1.326-1.38-1.989-3.393-1.989-6.039 0-2.647.67-4.652 2.011-6.017 1.343-1.364 3.074-2.046 5.196-2.046 2.121 0 3.835.67 5.138 2.014 1.306 1.341 1.957 3.374 1.957 6.094 0 2.721-.666 4.745-2.001 6.073-1.335 1.325-3.055 1.988-5.162 1.988m13.502-11.694v6.727c0 .314.023.512.068.595s.18.124.404.124c.826 0 1.451-.308 1.879-.923.428-.614.64-1.637.64-3.069s-.222-2.366-.663-2.799c-.442-.435-1.144-.655-2.103-.655zm-4.317 10.436v-13.492c0-.376.093-.672.282-.891.186-.217.43-.326.73-.326h3.756c2.383 0 4.194.601 5.429 1.801 1.238 1.199 1.857 3.087 1.857 5.666 0 5.517-2.354 8.276-7.063 8.276h-3.845c-.763 0-1.147-.344-1.147-1.034m20.734-10.592c-.72 0-1.325.33-1.812.989-.486.66-.73 1.585-.73 2.776 0 1.193.233 2.108.697 2.745.464.638 1.076.957 1.833.957s1.372-.323 1.844-.969c.472-.644.709-1.566.709-2.766s-.244-2.122-.731-2.767c-.487-.643-1.09-.965-1.81-.965m-.012 11.85c-2.107 0-3.823-.689-5.15-2.067-1.327-1.38-1.99-3.393-1.99-6.039 0-2.647.671-4.652 2.012-6.017 1.343-1.364 3.074-2.046 5.196-2.046s3.834.67 5.138 2.014c1.305 1.341 1.957 3.374 1.957 6.094 0 2.721-.667 4.745-2.002 6.073-1.334 1.325-3.055 1.988-5.161 1.988m15.587-.552c0 .298-.741.449-2.226.449-1.484 0-2.228-.151-2.228-.449v-11.29h-2.698c-.255 0-.434-.345-.539-1.036-.045-.335-.067-.673-.066-1.011 0-.344.021-.682.065-1.012.105-.688.285-1.036.54-1.036h9.783c.255 0 .434.347.541 1.036.089.671.089 1.352 0 2.023-.107.691-.286 1.036-.541 1.036h-2.631z" fill="#fff" fill-rule="nonzero"/><path d="m2.644 9.821v7.76c0 6.683 19.71 6.611 19.71-.072v-7.628c.485-.629.937-1.283 1.356-1.961-.565-.952-1.235-1.824-2.009-2.615-.695.323-1.356.702-1.986 1.138-.646-.597-1.356-1.114-2.131-1.55.113-.823.178-1.647.194-2.47-.952-.451-1.945-.79-2.978-1.017-.42.695-.791 1.413-1.114 2.155-.791-.112-1.582-.112-2.373 0-.323-.742-.694-1.46-1.114-2.155-1.033.227-2.026.566-2.979 1.017.017.824.081 1.647.194 2.47-.775.436-1.485.953-2.131 1.55-.629-.436-1.291-.815-1.985-1.138-.775.791-1.445 1.662-2.01 2.615.42.678.872 1.271 1.356 1.901z" fill="none" stroke="#fff" stroke-width="2"/><g fill="#fff" fill-rule="nonzero"><path d="m2.644 15.838 3.681.339c.193.016.315.129.363.339l.097 1.622 3.196.243.194-1.478c.032-.177.153-.298.363-.363h3.923c.21.064.331.186.363.363l.194 1.478 3.196-.243.097-1.622c.048-.21.169-.323.363-.339l3.68-.339-.024.799-3.244.29-.121 1.671c-.033.162-.146.267-.339.315l-3.923.267c-.194 0-.323-.089-.388-.267l-.242-1.574h-3.147l-.243 1.574c-.064.178-.193.267-.387.267l-3.922-.267c-.194-.048-.307-.153-.34-.315l-.121-1.671-3.269-.29z" stroke="#fff" stroke-linejoin="miter"/><path d="m11.801 13.556-.001-2.082c.073-.824 1.332-.824 1.405 0v2.082c-.072.823-1.332.823-1.404 0zm-4.463-3.735c1.203 0 2.18.976 2.18 2.179s-.977 2.179-2.18 2.179-2.179-.976-2.179-2.179.976-2.179 2.179-2.179zm10.322 0c1.203 0 2.18.976 2.18 2.179s-.977 2.179-2.18 2.179c-1.202 0-2.179-.976-2.179-2.179s.977-2.179 2.179-2.179z"/></g></svg>
