<svg xmlns="http://www.w3.org/2000/svg" xmlns:xlink="http://www.w3.org/1999/xlink" xml:space="preserve" width="100" height="24" stroke-linejoin="round"><defs><linearGradient id="a"><stop offset=".045" stop-color="#7f24ce"/><stop offset="1" stop-color="#f87cfe"/></linearGradient><linearGradient xlink:href="#a" id="d" x1="269.585" x2="488.27" y1="847.204" y2="393.079" gradientTransform="translate(-5.053 -.744)scale(.02539)" gradientUnits="userSpaceOnUse"/><linearGradient xlink:href="#a" id="c" x1="496.519" x2="635.831" y1="813.477" y2="589.778" gradientTransform="translate(-5.053 -.744)scale(.02539)" gradientUnits="userSpaceOnUse"/><linearGradient xlink:href="#a" id="b" x1="635.831" x2="721.822" y1="589.778" y2="368.408" gradientTransform="translate(-5.053 -.744)scale(.02539)" gradientUnits="userSpaceOnUse"/></defs><path fill="url(#b)" d="m 9.3205637,1.7805642 c -0.85141,0.5913201 -1.6303073,1.4973594 -1.9047036,2.463638 -0.2743963,0.9662786 -0.3338027,1.9459084 0.037849,3.2718345 0.3716758,1.3259261 2.1568806,2.3807386 3.6319229,2.8783313 1.798507,0.620448 3.358188,1.936918 4.123317,3.697625 0.178489,0.347913 0.792224,1.866169 0.724832,0.615989 0.06124,-2.156586 -0.856065,-4.324687 -2.544382,-5.6920871 C 12.142845,7.896605 10.381892,7.2913703 9.6116182,5.6966823 8.9446253,4.5266827 8.9841398,3.0927227 9.3804355,1.8403625 l -0.029862,-0.029887 z" paint-order="stroke fill markers" style="mix-blend-mode:normal"/><path fill="url(#c)" d="m 8.1276099,13.889326 c 1.744441,-0.09598 3.3032891,1.538956 3.1246041,3.277174 -0.06002,1.609362 -1.5555895,3.024263 -3.1853824,2.865618 -1.8930182,0.06945 -3.3581635,-1.961661 -2.9030738,-3.744563 0.2704521,-1.371908 1.5755309,-2.397813 2.9637786,-2.398229 z" paint-order="stroke fill markers" style="mix-blend-mode:normal"/><path fill="url(#d)" d="M 2.4320038,1.135642 C 2.8209173,1.6614521 3.2023224,2.1459132 3.4051817,2.7892479 4.1001752,4.6111745 3.5958945,6.6199923 2.6914476,8.2718819 1.3061151,10.992131 -0.03835561,13.991652 0.34919453,17.11606 c 0.39146973,2.822477 2.39766637,5.412449 5.15892427,6.250459 2.7718409,0.925269 6.0373302,0.0036 7.8957832,-2.258325 1.275118,-1.486507 2.017759,-3.54601 1.668351,-5.503212 C 14.540609,13.428699 12.844771,11.617625 10.69987,10.962171 9.4002785,10.527928 7.9311156,9.7304864 7.0032,8.728221 6.8860041,9.4386724 6.726893,10.317764 6.4797134,11.13135 6.2325338,11.944936 5.8102463,13.145043 5.6372451,14.004047 6.3898321,13.215081 7.324754,12.952664 8.1904214,12.95923 10.363495,12.97579 12.273955,14.901831 12.188165,17.067604 12.1706,19.18257 10.242845,21.060767 8.1180314,20.976006 6.0013511,20.98556 4.1872147,19.112017 4.1238397,17.021794 4.0948592,15.435533 4.7395594,13.933348 5.1742917,12.430721 6.0159761,9.9361427 6.3769955,7.8927834 6.3629584,6.4749183 6.3489458,5.0570531 5.9933855,3.6420899 5.0266209,2.5933415 4.0955919,1.5833594 2.7743806,1.1290032 2.4320038,1.135642" paint-order="stroke fill markers" style="mix-blend-mode:normal"/><path fill="#fefefe" d="M32.98 16.164q0 4.848-6.154 4.848h-6.524V4.634h5.883q3.026 0 4.736 1.114 1.72 1.113 1.72 3.408 0 1.113-.517 2.07-.517.944-1.788 1.428 1.45.371 2.047 1.384.596 1 .596 2.126zm-8.73-8.482v3.78h1.912q1.373 0 1.947-.461.585-.462.585-1.373 0-1.946-2.509-1.946zm4.803 8.425q0-.945-.472-1.496-.472-.562-1.597-.562H24.25v3.926h2.576q1.204 0 1.71-.54.517-.552.517-1.328m9.45-12.373v17.278h-3.802V3.734Zm8.685 17.278q-.213-.44-.348-1.091-.439.55-1.136.933-.686.383-1.789.383-1.687 0-2.913-1.013-1.215-1.023-1.215-2.643 0-1.878 1.383-2.936 1.384-1.069 4.32-1.069h1.17v-.64q0-.766-.338-1.216-.326-.46-1.113-.46-1.35 0-1.35 1.327h-3.79q0-1.699 1.45-2.835 1.451-1.136 3.892-1.136 2.171 0 3.611 1.09 1.451 1.08 1.451 3.252v4.983q0 1.192.135 1.81.135.608.382 1.07v.19zm-2.373-2.475q.697 0 1.17-.292.472-.304.675-.675V15.6h-1.193q-1.068 0-1.484.551-.405.54-.405 1.226 0 .518.348.844.36.315.889.315zm7.178-6.772V8.841h9.988v2.047l-5.41 7.2h5.523v2.924H51.768v-2.115l5.388-7.132zm11.44-6.063q0-.81.586-1.327.585-.517 1.518-.517.934 0 1.519.517.585.518.585 1.327 0 .81-.585 1.328-.585.517-1.519.517t-1.518-.517q-.585-.518-.585-1.328zm4.028 3.139v12.17h-3.802V8.842Zm9.191 12.17-.113-1.304q-1.192 1.53-3.24 1.53-1.81 0-2.946-1.058-1.125-1.057-1.125-3.464V8.84h3.79v7.896q0 1.575 1.53 1.575 1.328 0 1.857-.956V8.841h3.802v12.17Zm10.631-9.47q-1.069 0-1.653 1v8.47h-3.791V8.842h3.554l.135 1.428q1.26-1.653 3.465-1.653 1.068 0 1.867.439.81.438 1.249 1.394.573-.854 1.462-1.338.9-.495 2.103-.495 1.665 0 2.734 1.046t1.068 3.69v7.66h-3.802v-7.66q0-1.137-.393-1.474-.383-.338-1.058-.338-1.136 0-1.687 1.002.011.168.011.348v8.122h-3.79v-7.638q0-1.159-.394-1.496-.383-.338-1.08-.338" aria-label="Blazium" font-family="Roboto" font-size="186.667" font-weight="900" letter-spacing="-4" paint-order="stroke fill markers" style="line-height:1.25;-inkscape-font-specification:&quot;Roboto Heavy&quot;"/></svg>