<svg xmlns="http://www.w3.org/2000/svg" width="16" height="16"><path fill="#f0caa0" d="M 13.601562 2.398438 L 2.398438 2.398438 C 1.957031 2.398438 1.601562 2.757812 1.601562 3.199219 L 1.601562 11.199219 C 1.601562 11.640625 1.957031 12 2.398438 12 L 4 12 L 4 14.398438 L 6.398438 12 L 13.601562 12 C 14.042969 12 14.398438 11.640625 14.398438 11.199219 L 14.398438 3.199219 C 14.398438 2.757812 14.042969 2.398438 13.601562 2.398438 Z M 4.800781 6.398438 C 5.242188 6.398438 5.601562 6.757812 5.601562 7.199219 C 5.601562 7.640625 5.242188 8 4.800781 8 C 4.359375 8 4 7.640625 4 7.199219 C 4 6.757812 4.359375 6.398438 4.800781 6.398438 Z M 8 8 C 7.558594 8 7.199219 7.640625 7.199219 7.199219 C 7.199219 6.757812 7.558594 6.398438 8 6.398438 C 8.441406 6.398438 8.800781 6.757812 8.800781 7.199219 C 8.800781 7.640625 8.441406 8 8 8 Z M 11.199219 8 C 10.757812 8 10.398438 7.640625 10.398438 7.199219 C 10.398438 6.757812 10.757812 6.398438 11.199219 6.398438 C 11.640625 6.398438 12 6.757812 12 7.199219 C 12 7.640625 11.640625 8 11.199219 8 Z M 11.199219 8"/></svg>
