<svg clip-rule="evenodd" fill-rule="evenodd" stroke-linejoin="round" stroke-miterlimit="2" viewBox="0 0 16 16" xmlns="http://www.w3.org/2000/svg"><g fill="#b4b4b4"><path d="m11.627 3.002c-.26.003-.509.108-.693.291l-4 4c-.388.388-.388 1.026 0 1.414l4 4c.388.388 1.026.388 1.414 0s.388-1.026 0-1.414l-2.293-2.293h4.586c.548 0 1-.451 1-1 0-.548-.452-1-1-1h-4.586l2.293-2.293c.388-.388.388-1.026 0-1.414-.191-.19-.451-.295-.721-.291z" fill-rule="nonzero"/><path d="m5.028 3.542c0-.298-.243-.54-.541-.54h-2.901c-.299 0-.541.242-.541.54v2.788c0 .298.242.54.541.54h2.901c.298 0 .541-.242.541-.54z"/><path d="m5.028 9.67c0-.298-.243-.54-.541-.54h-2.901c-.299 0-.541.242-.541.54v2.788c0 .298.242.54.541.54h2.901c.298 0 .541-.242.541-.54z"/></g></svg>
