<svg enable-background="new 0 0 16 16" height="16" viewBox="0 0 16 16" width="16" xmlns="http://www.w3.org/2000/svg"><g fill="#e0e0e0" fill-opacity=".9961"><path d="m11.5 14.448-.831-.831-.909.909 1.286 1.285c.251.251.657.251.908 0l1.286-1.285-.909-.909z"/><circle cx="11.5" cy="11.5" r="1.286"/><path d="m8.753 10.038-.278-.278-1.286 1.286c-.251.251-.251.657 0 .908l.824.824.462.462.909-.909-.832-.831.832-.831z"/><path d="m15.812 11.046-1.286-1.286-.909.909.831.831-.831.831.909.909 1.285-1.286c.252-.251.252-.657.001-.908z"/><path d="m11.954 7.188c-.061-.061-.133-.107-.21-.139-.028-.012-.059-.01-.088-.018-.051-.013-.1-.03-.151-.03-.005 0-.01 0-.015 0-.167.002-.327.069-.444.187l-1.286 1.287.278.278.631.63.831-.831.831.831.909-.908-.465-.465z"/><path d="m6.128 9.985 1.286-1.286c.241-.242.545-.384.859-.426.044-.323.193-.626.426-.859l1.286-1.286c.396-.397.925-.619 1.47-.625h.05c.562 0 1.112.228 1.51.626l1.215 1.215c.016-.015.033-.025.048-.04.964-.963.964-2.524 0-3.488-.378-.378-.868-.623-1.397-.698-.074-.529-.318-1.019-.695-1.397-.455-.453-1.067-.711-1.707-.721-.667-.01-1.309.25-1.782.72-.828.829-.96 2.126-.314 3.105l-3.558 3.561c-.978-.646-2.274-.515-3.103.312-.963.962-.963 2.524 0 3.487.378.377.868.621 1.396.695.075.529.319 1.02.696 1.396.963.964 2.525.964 3.488 0 .015-.015.025-.032.04-.048l-1.215-1.215c-.835-.833-.835-2.193.001-3.028z"/></g></svg>
