<svg height="16" viewBox="0 0 16 16" width="16" xmlns="http://www.w3.org/2000/svg"><path d="m7.9844 1.002a1.0001 1.0001 0 0 0 -.69141.29102l-2 2 1.4141 1.4141 1.293-1.293 1.293 1.293 1.4141-1.4141-2-2a1.0001 1.0001 0 0 0 -.72266-.29102zm-4.6914 4.291-2 2a1.0001 1.0001 0 0 0 0 1.4141l2 2 1.4141-1.4141-1.293-1.293 1.293-1.293-1.4141-1.4141zm9.4141 0-1.4141 1.4141 1.293 1.293-1.293 1.293 1.4141 1.4141 2-2a1.0001 1.0001 0 0 0 0-1.4141l-2-2zm-4.707.70703a2 2 0 0 0 -2 2 2 2 0 0 0 2 2 2 2 0 0 0 2-2 2 2 0 0 0 -2-2zm-1.293 5.293-1.4141 1.4141 2 2a1.0001 1.0001 0 0 0 1.4141 0l2-2-1.4141-1.4141-1.293 1.293-1.293-1.293z" fill="#e0e0e0" fill-opacity=".99608"/></svg>
