<svg enable-background="new 0 0 16 16" height="16" viewBox="0 0 16 16" width="16" xmlns="http://www.w3.org/2000/svg"><g fill="#e0e0e0" fill-opacity=".9961"><path d="m10.857 14.714h-1.662l.83-.831-.908-.909-.832.832v-1.663c0-.355-.288-.643-.643-.643s-.642.287-.642.643v2.383.832c0 .355.288.642.643.642h3.214c.355 0 .643-.287.643-.643s-.287-.643-.643-.643z"/><path d="m15.357 7h-.832-2.383c-.355 0-.642.288-.642.643s.287.643.643.643h1.663l-.832.832.909.908.831-.83v1.662c0 .355.288.643.644.643s.642-.288.642-.644v-3.214c0-.355-.287-.643-.643-.643z"/><circle cx="11.5" cy="11.5" r="1.286"/><path d="m8.573 10.218 1.645-1.645c-.137-.282-.218-.596-.218-.93 0-1.182.961-2.143 2.143-2.143h2.852c-.014-.611-.25-1.218-.717-1.685-.378-.377-.868-.622-1.397-.697-.074-.529-.318-1.019-.695-1.397-.455-.453-1.067-.711-1.707-.721-.667-.01-1.309.25-1.782.72-.828.829-.96 2.126-.314 3.105l-3.558 3.561c-.978-.646-2.274-.515-3.103.312-.963.962-.963 2.524 0 3.487.378.377.868.621 1.396.695.075.529.319 1.02.696 1.396.467.467 1.074.703 1.685.717v-2.852c.001-1.18.962-2.141 2.144-2.141.334 0 .648.081.93.218z"/></g></svg>
