<svg enable-background="new 0 0 16 16" height="16" viewBox="0 0 16 16" width="16" xmlns="http://www.w3.org/2000/svg"><g fill="#e0e0e0" fill-opacity=".9961"><circle cx="11.501" cy="11.5" r="1.286"/><path d="m15.536 9.51c-.568-1.152-1.591-1.985-2.79-2.331-.027-.008-.056-.011-.084-.019-.163-.043-.327-.084-.496-.109-.199-.03-.402-.048-.608-.05-.027 0-.054 0-.081 0-.039 0-.077 0-.115.001-.149.004-.299.017-.448.037-1.911.251-3.45 1.693-3.826 3.584-.049.248-.069.497-.076.745-.002.062-.002.123-.001.185.004.496.092.983.256 1.447.019.054.04.106.061.16.091.228.194.45.321.661.001.001.001.003.002.004.194.321.429.62.704.889h-.71v1.286h2.571c.355 0 .643-.287.643-.643 0-.053-.006-.105-.019-.156l-.643-2.571-1.248.313.181.721c-.54-.591-.841-1.362-.843-2.163 0-.442.09-.863.251-1.246.08-.189.178-.369.291-.537.001-.005.003-.009.005-.013.348-.516.841-.924 1.42-1.168.384-.162.805-.251 1.247-.251 1.775 0 3.214 1.439 3.214 3.214-.001.853-.34 1.669-.942 2.271l.91.91c1.363-1.363 1.706-3.442.853-5.171z"/><path d="m5.616 10.33c.502-2.522 2.553-4.443 5.103-4.778.199-.026.399-.043.598-.049l.16-.002h.1c1.182.015 2.294.375 3.236 1 .369-.894.191-1.959-.535-2.686-.378-.377-.868-.622-1.397-.697-.074-.529-.318-1.019-.695-1.397-.455-.453-1.067-.711-1.707-.721-.667-.01-1.309.25-1.782.72-.828.829-.96 2.126-.314 3.105l-3.558 3.561c-.978-.646-2.274-.515-3.103.312-.963.962-.963 2.524 0 3.487.378.377.868.621 1.396.695.075.529.319 1.02.696 1.396.632.633 1.52.842 2.329.645v-.208c0-.14.019-.275.055-.403-.639-1.202-.856-2.601-.582-3.98z"/></g></svg>
