<svg height="16" viewBox="0 0 16 16" width="16" xmlns="http://www.w3.org/2000/svg"><g fill="#e0e0e0" transform="translate(-26.001 -1046.2683)"><path d="m27.917081 1047.5557c-.422624 0-.763672.3411-.763672.7637v11.8301c0 .4226.341048.7637.763672.7637h12.507813c.422624 0 .761719-.3411.761719-.7637v-11.8301c0-.4226-.339095-.7637-.761719-.7637zm1.898438 1.6954h8.642578c.422624 0 .763672.341.763672.7636v8.5078c0 .4227-.341048.7618-.763672.7618h-8.642578c-.422625 0-.763672-.3391-.763672-.7618v-8.5078c0-.4226.341047-.7636.763672-.7636z"/><rect height="2.372881" ry=".76286" width="7.79661" x="30.20439" y="1052.9802"/><rect height="7.525424" ry=".729978" stroke-width=".882536" width="2.372881" x="32.916256" y="1050.3361"/></g></svg>
