<svg xmlns="http://www.w3.org/2000/svg" xmlns:xlink="http://www.w3.org/1999/xlink" width="16" height="16"><defs><clipPath id="c"><use xlink:href="#a"/></clipPath><clipPath id="d"><use xlink:href="#a"/></clipPath><path id="a" fill="#e0e0e0" d="m8 4.24v-4h3.49v4.15l-2.12 1.22z"/><path id="b" d="m9.28 4.72 1.41-1.41-2-2c-0.391-0.39-1.02-0.39-1.41 0l-2 2 1.41 1.41 1.29-1.29z"/></defs><g display="none"><g fill="#e08de0" fill-opacity=".438" transform="translate(-.016 .001)"><circle cx="8" cy="8" r="2"/><path d="m8 1a1 1 0 0 0-0.691 0.291l-2 2 1.41 1.41 1.29-1.29 1.29 1.29 1.41-1.41-2-2a1 1 0 0 0-0.723-0.291zm-4.69 4.29-2 2a1 1 0 0 0 0 1.41l2 2 1.41-1.41-1.29-1.29 1.29-1.29zm9.41 0-1.41 1.41 1.29 1.29-1.29 1.29 1.41 1.41 2-2a1 1 0 0 0 0-1.41zm-6 6-1.41 1.41 2 2a1 1 0 0 0 1.41 0l2-2-1.41-1.41-1.29 1.29z"/></g><g fill="#e0e0e0" fill-opacity=".514" transform="matrix(1 0 0 -1 -.682 16)"><circle cx="8" cy="8" r="2"/><path d="m8 1a7 7 0 0 0-4.98 12h-1.11v2h4a1 1 0 0 0 0.97-1.24l-1-4-1.94 0.486 0.28 1.12a5 5 0 1 1 7.22 0.168l1.42 1.42a7 7 0 0 0-4.86-11.9z"/></g></g><g fill="#e0e0e0"><circle cx="8.02" cy="8" r="1.99"/><path d="m12.7 5.29 2 2c0.39 0.39 0.39 1.02 0 1.41l-2 2-1.41-1.41 1.29-1.29-1.29-1.29z"/><path d="m1.92 1.01v2h1.21c-1.4 1.37-2.19 3.29-2.1 5.3 0.113 2.59 1.65 4.91 3.99 6.02a0.9 0.9 0 0 0 1.2-0.428 0.9 0.9 0 0 0-0.428-1.2c-1.74-0.827-2.88-2.54-2.96-4.47-0.0628-1.44 0.473-2.81 1.44-3.82l-0.342 1.37 1.94 0.484 0.998-4.01a1 1 0 0 0-0.971-1.24z" color="#000" style="font-feature-settings:normal;font-variant-alternates:normal;font-variant-caps:normal;font-variant-east-asian:normal;font-variant-ligatures:normal;font-variant-numeric:normal;font-variant-position:normal;font-variation-settings:normal;inline-size:0;isolation:auto;mix-blend-mode:normal;shape-margin:0;shape-padding:0;text-decoration-color:#000;text-decoration-line:none;text-decoration-style:solid;text-indent:0;text-orientation:mixed;text-transform:none;white-space:normal"/><use xlink:href="#b" clip-path="url(#c)"/><use xlink:href="#b" clip-path="url(#d)" transform="matrix(1 0 0 -1 0 16)"/></g></svg>
