<svg enable-background="new 0 0 16 16" height="16" viewBox="0 0 16 16" width="16" xmlns="http://www.w3.org/2000/svg"><g fill="#e0e0e0"><path d="m16 11.46-6.142-2.527-1.572-.647.647 1.572 2.527 6.142.913-2.72 1.815 1.817.91-.909-1.818-1.815z"/><path d="m7.784 11.008-.886-2.152c-.23-.56-.102-1.203.327-1.631.287-.287.67-.439 1.061-.439.192 0 .386.037.57.113l2.151.885.17-.17c.977.645 2.271.516 3.1-.311.964-.963.964-2.524 0-3.488-.377-.377-.867-.622-1.396-.697-.074-.529-.318-1.019-.695-1.397-.455-.453-1.067-.711-1.707-.721-.667-.01-1.309.25-1.782.72-.828.829-.96 2.126-.314 3.105l-3.558 3.561c-.978-.646-2.274-.515-3.103.312-.963.962-.963 2.524 0 3.487.378.377.868.621 1.396.695.075.529.319 1.02.696 1.396.963.964 2.525.964 3.488 0 .828-.828.96-2.125.314-3.104z"/></g></svg>
