<svg height="16" viewBox="0 0 16 16" width="16" xmlns="http://www.w3.org/2000/svg"><path d="m8.0879 1.002a7 7 0 0 0 -.30469.0019531 7 7 0 0 0 -.69727.056641 7 7 0 0 0 -5.9512 5.5742 7 7 0 0 0 1.9707 6.3652h-1.1055v2h4a1.0001 1.0001 0 0 0 .9707-1.2422l-1-4-1.9414.48633.28125 1.1211a5 5 0 0 1 -1.3105-3.3652 5 5 0 0 1 5-5 5 5 0 0 1 5 5 5 5 0 0 1 -1.4668 3.5332l1.416 1.416a7 7 0 0 0 1.3281-8.0449 7 7 0 0 0 -6.1895-3.9023zm-.087891 4.998a2 2 0 0 0 -2 2 2 2 0 0 0 2 2 2 2 0 0 0 2-2 2 2 0 0 0 -2-2z" fill="#e0e0e0" fill-opacity=".99608"/></svg>
