<svg height="16" viewBox="0 0 16 16" width="16" xmlns="http://www.w3.org/2000/svg"><path d="m6.1963194 0c.5522847 0 1 .44771525 1 1l-.0000797.431.084055-.055038c.3446461-.2297641.8102981-.1366337 1.0400624.2080128.2088767.3133151.1508982.7266346-.1203076.9718196l-.0877049.0682433-.9161049.6109623-.0002397 2.032 1.7608652-1.0155944.0711361-1.0987132c.0266585-.4133548.3833598-.7268341.7967146-.7001756.3757771.024235.6690121.3212326.6991931.6855915l.000983.1111231-.0057.1001742.373297-.215431c.478275-.2761424 1.089866-.1122672 1.366008.3660254.276143.4782926.112267 1.089883-.366025 1.3660254l-.373297.215431.08969.045274c.371305.1835905.523478.6334221.339888 1.0047271-.166901.3375501-.553835.493999-.901775.3817204l-.102951-.0418326-.9871618-.4878889-1.7618652 1.0165436 1.7609992 1.0160436.9880278-.4873889c.371304-.1835905.821136-.031418 1.004727.3398872.1669.3375501.05631.7399981-.244143.9483151l-.09574.056412-.09056.044775.374163.215931c.47829.276142.642166.887732.366023 1.366025-.276142.478293-.887733.642168-1.366025.366025l-.374163-.215931.0066.100675c.02666.413354-.286821.770056-.7001761.796714-.3757771.02424-.7047331-.232635-.7814666-.590099l-.015265-.110076-.0720021-1.0992136-1.7599992-1.0160944.0002397 2.032.9161049.611962c.3446465.229765.4377769.695417.2080125 1.040063-.2088767.313315-.6127018.418766-.9433364.262724l-.0967265-.054711-.0840545-.056038.0000797.432c0 .552285-.4477153 1-1 1-.5522848 0-1-.447715-1-1l-.0000797-.432-.083895.05604c-.3446467.229762-.8102987.136632-1.040063-.208015-.2088767-.313315-.1508982-.726634.1203076-.971819l.0877049-.068244.9159455-.611962-.0002397-2.033-1.7594401 1.0169564-.0719224 1.0993516c-.0266585.413354-.3833598.726834-.7967146.700175-.3757771-.024235-.6690125-.321232-.6991935-.685591l-.0009821-.111123.0065-.100813-.3740831.216069c-.4782899.276143-1.08988025.112268-1.36602263-.366025-.27614237-.478293-.11226722-1.089883.3660254-1.3660254l.37408313-.216069-.09047767-.0446365c-.37130501-.1835905-.52347772-.6334221-.33988726-1.0047272.16690043-.33755.5538349-.4939989.90177423-.3817203l.1029529.0418331.9879476.4872509 1.7584401-1.0159056-1.7593061-1.0164056-.9870816.4877509c-.371305.1835905-.82113666.0314178-1.00472713-.3398873-.16690042-.33755-.05631062-.739998.24414292-.948315l.0957443-.056412.0896116-.045136-.3732171-.215569c-.47829254-.276143-.64216769-.8877334-.36602532-1.366026.27614238-.4782926.88773273-.6421678 1.36602543-.3660254l.3732171.215569-.00564-.1003122c-.0266553-.4133548.286824-.7700561.7001788-.7967146.3757771-.024235.7047331.2326356.7814666.5900992l.015248.1100764.0710564 1.0988512 1.7603061 1.0164564.0002397-2.033-.9159455-.6109623c-.3446465-.2297643-.4377769-.6954163-.2080125-1.0400629.2088766-.313315.6127018-.4187654.9433363-.2627235l.0967266.054711.0838951.0550377.0000797-.431c0-.55228475.4477152-1 1-1z" fill="#e0e0e0" fill-rule="evenodd" transform="translate(1.803681 1)"/></svg>
