<svg height="8" viewBox="0 0 16 8" width="16" xmlns="http://www.w3.org/2000/svg"><g fill="#e1da5b"><path d="m2.1665128.99764963c-.422625 0-.763672.34104737-.763672.76367187v4.5742187c0 .4226242.341047.7617192.763672.7617192h4.472656c.422625 0 .763672-.339095.763672-.7617192v-.9882812h-3.300781c-.1662 0-.298828-.3390943-.298828-.7617188v-1.2246094c0-.4226244.132628-.7636718.298828-.7636718h3.300781v-.8359375c0-.4226245-.341047-.76367187-.763672-.76367187z"/><path d="m9.1827441 4.7953408c.5166221-1.0415625 1.0955249-2.2117429 1.2864509-2.600401l.347137-.7066511.679654.00665.679654.00665.956945 2.3125c.526319 1.271875 1.007254 2.4334375 1.068744 2.5812497l.1118.26875h-.597215-.597214l-.332849-.6437497-.332849-.64375h-1.133826-1.133825l-.3786749.6561133-.3786747.6561134-.5922856.000137-.592285.000136zm3.1779349-.369483c.0042-.00346-.233487-.4884588-.528245-1.0777779l-.535922-1.0714891-.03691.0875c-.0203.048125-.183516.425-.362699.8375-.179182.4125-.355738.85125-.392346.975-.03661.12375-.07127.2390723-.07703.2562715-.0083.024853.188215.027989.957503.015278.532385-.0088.971429-.018823.975651-.022283z" stroke="#e1da5b" stroke-width=".803"/></g></svg>
