<svg xmlns="http://www.w3.org/2000/svg" width="16" height="16" viewBox="-599.5 337.5 16 16"><path fill="#e0e0e0" d="M-584.606 338.605c-.21-.211-.596-.462-1.235-.462-.958 0-2.324.603-3.859 1.632-.568-.179-1.173-.275-1.8-.275-3.313 0-6 2.687-6 6 0 .628.097 1.232.276 1.801-1.44 2.15-2.135 4.129-1.17 5.094.21.211.596.462 1.235.462 1.761 0 4.885-1.985 7.957-5.059 3.32-3.32 6.175-7.612 4.596-9.193zm-12.553 12.751c-.113 0-.164-.02-.17-.02-.137-.224.083-1.11.876-2.454.211.308.448.597.711.859l1.585-1.585c0 .001-.001.001-.001.002.846-.636 1.811-1.458 2.835-2.482 1.024-1.023 1.846-1.987 2.48-2.833l1.586-1.586c-.262-.262-.549-.498-.855-.708.989-.586 1.794-.906 2.271-.906.113 0 .164.02.17.02.261.425-.752 3.234-4.593 7.074-2.999 3-5.791 4.619-6.895 4.619zM-591.099 351.479c2.991-.198 5.378-2.584 5.578-5.575-.998 1.277-2.018 2.351-2.621 2.954-.538.538-1.631 1.585-2.957 2.621z"/></svg>
