<svg xmlns="http://www.w3.org/2000/svg" width="16" height="16"><path fill="#fc7f7f" d="M 4.4785156,1.015625 C 2.5757418,1.0156727 1.0332508,2.5581637 1.0332031,4.4609375 1.0332508,6.3637113 2.5757418,7.9062023 4.4785156,7.90625 6.3812894,7.9062023 7.9237804,6.3637113 7.9238281,4.4609375 7.9237804,2.5581637 6.3812894,1.0156727 4.4785156,1.015625 Z m 4.0812712,0.1191406 c 1.0275564,0.7976278 1.6288122,2.0253713 1.6289062,3.3261719 -0.0017,1.234585 -0.5450099,2.4062522 -1.4863281,3.2050781 1.0797576,-0.00317 2.4720821,0.5534307 2.4204571,1.5014725 -0.174166,3.1984429 -6.162629,3.9368779 -8.6677439,4.1489179 2.0047826,0.47939 6.9122045,0.948171 9.6239939,-0.785619 C 13.871693,11.38467 15.324347,8.8832252 15.220401,6.9741937 15.100827,4.7781388 13.826066,1.2334116 8.5597868,1.1347656 Z"/></svg>
