<svg xmlns="http://www.w3.org/2000/svg" width="16" height="16"><path fill="#8da5f3" d="M 14.809432,9.1932148 C 14.374873,7.2646788 12.732453,5.8188834 10.60485,5.7562038 9.3863209,5.8894803 8.4447434,6.5261667 7.9076479,7.3770692 7.3676969,8.2321426 7.0925476,9.0703697 6.8827413,9.7691978 6.6279369,10.52157 6.4752743,11.139955 6.1935171,11.597535 6.0089131,11.881663 5.7763899,12.149569 5.5935426,12.124086 5.3705129,12.247284 4.9717161,11.953298 4.6121376,11.625643 4.0519259,11.035073 3.6571782,10.176153 3.3140236,9.3789598 c 0,0 -4e-7,-1.3e-6 -4e-7,-1.3e-6 C 1.5523607,5.2024192 1.1100716,2.0370379 1.1100716,2.0370379 c 0,0 -0.29553558,3.16183 0.842163,7.7894844 1e-7,0 3e-7,1.4e-6 3e-7,1.4e-6 0.2122501,0.8930083 0.5342357,1.9465093 1.1978375,2.9337613 0.4514776,0.717958 1.2781237,1.362509 2.462427,1.474087 1.0555043,-0.03659 1.968684,-0.55248 2.5061585,-1.34189 0.5467249,-0.774351 0.8651246,-1.56096 1.1398208,-2.251425 0.3018443,-0.695255 0.5371697,-1.3277042 0.8661223,-1.7235571 0.215995,-0.2331327 0.473206,-0.4333174 0.594885,-0.3553527 0.513513,-0.1685189 1.124293,0.5474888 1.255022,1.2419756 0.09102,0.3899652 0.488423,0.8424472 0.888617,1.2047672 0.404299,0.366037 0.794937,0.586015 0.794937,0.586015 0,0 0.329719,-0.304304 0.649459,-0.72801 0.320235,-0.424361 0.637207,-1.0125336 0.501911,-1.6736802 z"/></svg>
