<svg height="12" viewBox="0 0 16 12" width="16" xmlns="http://www.w3.org/2000/svg"><path d="m4 4h3.349c0 .549-.451 1.267-1 1.267v1c.549 0 1 .326 1 .874 0 .549-.451.859-1 .859h-1v2h1c1.07 0 2.063-.573 2.598-1.5s.535-1.806 0-2.733c-.104-.18-.227-.348-.366-.502.139-.153.261-.32.366-.498.262-.457.398-.64.398-.767h.004v-2h-9.349v2h2v6h2zm6 6h2c1.428 0 2.751-.764 3.465-2 .713-1.236.713-2.764 0-4-.714-1.236-2.037-2-3.465-2h-2zm2-6c.714 0 1.376.382 1.732 1 .357.618.357 1.382 0 2-.356.618-1.018 1-1.732 1z" fill="#f68f45"/><path d="m6.00006 2v2h1.349c0 .549-.451 1.267-1 1.267v1c.549 0 1 .326 1 .874 0 .549-.451.859-1 .859h-1v2h1c1.07 0 2.062-.573 2.598-1.5.535-.927.535-1.806 0-2.733-.104-.18-.227-.348-.366-.502.139-.153.261-.32.366-.498.262-.457.398-.64.398-.767h.004v-2z" fill="#fff" fill-opacity=".39216"/></svg>
