<svg height="16" viewBox="0 0 16 16" width="16" xmlns="http://www.w3.org/2000/svg"><path d="M5.285 1.303a3 3 0 1 0 0 5.392A1 1 0 0 0 7 6V2a1 1 0 0 0-1.715-.697zM4 3a1 1 0 0 1 0 2 1 1 0 0 1 0-2zm6.887 3.53-1.79.894.29.576H7v2h.82c.133.93.5 1.894 1.2 2.73-.616.163-1.357.266-2.266.27l.01 2c1.677-.01 3.041-.313 4.111-.834 1.07.52 2.434.826 4.111.834l.01-2c-.909 0-1.65-.106-2.266-.27A5.432 5.432 0 0 0 13.932 10H15V8h-3.379l-.734-1.47zM9.863 10h2.024c-.126.58-.376 1.147-.836 1.623-.053.055-.117.107-.176.16-.06-.053-.123-.105-.176-.16-.46-.476-.71-1.043-.836-1.623z" fill="#e0e0e0"/></svg>
