<svg height="16" viewBox="0 0 14.999999 14.999999" width="16" xmlns="http://www.w3.org/2000/svg"><g fill="#ffca5f"><path d="m14.0625 7.5c0-1.6377-.2123-3.12-.5969-4.2737-.1923-.57682-.4237-1.0754-.7508-1.4905-.3271-.41505-.8259-.79834-1.4648-.79834h-7.5c-.6389 0-1.1396.38329-1.4667.79834s-.5585.91366-.7507 1.4905c-.3846 1.1536-.5951 2.6359-.5951 4.2737s.2105 3.12.5951 4.2737c.1922.57682.4236 1.0754.7507 1.4905.3271.41505.8278.79834 1.4667.79834h7.5c.6389 0 1.1377-.38329 1.4648-.79834s.5585-.91366.7508-1.4905c.3846-1.1536.5969-2.6359.5969-4.2737zm-2.8125-4.6875002c.4358 1.0052002 0 0 .4358 1.0052002.2941.88221.5017 2.2134.5017 3.6823s-.2076 2.8-.5017 3.6823c-.1449.4347 0 0-.4358 1.005199l-7.5.000041c-.1212-.15705-.2929-.57092-.4376-1.0052-.2941-.88221-.4999-2.2134-.4999-3.6823s.2058-2.8.4999-3.6823c.1447-.43433.3164-.8482.4376-1.0052"/><path d="m6.5625-11.25h1.875v7.5h-1.875z" stroke-width=".25" transform="rotate(90)"/></g></svg>
