<svg xmlns="http://www.w3.org/2000/svg" width="16" height="16"><defs><clipPath id="a"><path d="M0 0h16v16H0z"/></clipPath></defs><g clip-path="url(#a)" fill="#e0e0e0"><path d="M1.136 12.036a3.994 3.994 0 0 1-.137-1.047 4.007 4.007 0 0 1 2.965-3.853 1 1 0 0 1 1.225.707 1 1 0 0 1 .034.25 1 1 0 0 1-.741.975 2 2 0 0 0-1.483 1.926 1.994 1.994 0 0 0 .068.523 2 2 0 0 0 2.45 1.415 2 2 0 0 0 1.484-1.931 2 2 0 0 0-.068-.523 1 1 0 0 1-.034-.25 1 1 0 0 1 .742-.975 1 1 0 0 1 1.225.707 3.991 3.991 0 0 1 .137 1.046 4.007 4.007 0 0 1-2.965 3.852 3.993 3.993 0 0 1-1.035.137 4.006 4.006 0 0 1-3.867-2.959zM9.965 8.863a1 1 0 0 1-.742-.975 1 1 0 0 1 .034-.25 1 1 0 0 1 1.225-.706 2 2 0 0 0 2.449-1.415A1.994 1.994 0 0 0 13 4.994a2 2 0 0 0-1.483-1.926 2 2 0 0 0-2.45 1.414 1 1 0 0 1-1.224.707 1 1 0 0 1-.742-.975 1 1 0 0 1 .034-.25 4 4 0 0 1 4.9-2.829A4.008 4.008 0 0 1 15 4.988a3.993 3.993 0 0 1-.137 1.047 4.006 4.006 0 0 1-3.862 2.966 3.989 3.989 0 0 1-1.036-.138zM5.5 4a.5.5 0 0 1-.5-.5v-2a.5.5 0 0 1 .5-.5.5.5 0 0 1 .5.5v2a.5.5 0 0 1-.5.5zM4.5 5a.5.5 0 0 1-.354-.146l-2-2a.5.5 0 0 1 0-.707.5.5 0 0 1 .707 0l2 2A.5.5 0 0 1 4.5 5zM3.5 6h-2a.5.5 0 0 1-.5-.5.5.5 0 0 1 .5-.5h2a.5.5 0 0 1 .5.5.5.5 0 0 1-.5.5z"/></g></svg>
