<svg width="16" height="16" viewBox="0 0 16 16" fill="none" xmlns="http://www.w3.org/2000/svg">
<path d="M10 1C10.877 1.00007 11.7394 1.23065 12.499 1.66895C13.2586 2.10721 13.8891 2.73794 14.3281 3.49707C14.7672 4.25631 14.9991 5.11808 15 5.99512V7.99512H16V14.9951H4.25293L6.7998 11.5996L8 10H5V7.99512H13V5.99512C12.9991 5.4692 12.8601 4.95225 12.5967 4.49707C12.3332 4.04196 11.9545 3.66412 11.499 3.40137C11.0434 3.1386 10.526 3.00007 10 3C9.47422 3 8.95751 3.13787 8.50195 3.40039L7.50195 1.66895C8.26158 1.23084 9.1231 1 10 1ZM9 9.99512V12.9951H11V9.99512H9Z" fill="#E0E0E0"/>
<path d="M2 5V11H0L1.5 13L3 15L4.5 13L6 11H4V5H2Z" fill="#E0E0E0"/>
</svg>
