<?xml version="1.0" encoding="UTF-8" standalone="no"?>
<svg
   viewBox="0 0 14.99999 14.003702"
   version="1.1"
   id="svg4"
   sodipodi:docname="until_fail.svg"
   inkscape:version="1.1 (c68e22c387, 2021-05-23)"
   width="14.99999"
   height="14.003702"
   xmlns:inkscape="http://www.inkscape.org/namespaces/inkscape"
   xmlns:sodipodi="http://sodipodi.sourceforge.net/DTD/sodipodi-0.dtd"
   xmlns="http://www.w3.org/2000/svg"
   xmlns:svg="http://www.w3.org/2000/svg">
  <defs
     id="defs8" />
  <sodipodi:namedview
     id="namedview6"
     pagecolor="#505050"
     bordercolor="#ffffff"
     borderopacity="1"
     inkscape:showpageshadow="0"
     inkscape:pageopacity="0"
     inkscape:pagecheckerboard="1"
     inkscape:deskcolor="#505050"
     showgrid="false"
     inkscape:zoom="13.34375"
     inkscape:cx="-7.381733"
     inkscape:cy="6.6323185"
     inkscape:window-width="1920"
     inkscape:window-height="1017"
     inkscape:window-x="-8"
     inkscape:window-y="-8"
     inkscape:window-maximized="1"
     inkscape:current-layer="svg4"
     inkscape:pageshadow="2" />
  <!--! Font Awesome Pro 6.4.2 by @fontawesome - https://fontawesome.com License - https://fontawesome.com/license (Commercial License) Copyright 2023 Fonticons, Inc. -->
  <path
     d="m 2.78495,5.3331425 c 0.24067,-0.68139 0.63138,-1.32215 1.18149,-1.86914 1.95353,-1.95353 5.11982,-1.95353 7.07335,0 l 0.53449,0.53762 h -1.57221 c -0.55324,0 -1.0002,0.44696 -1.0002,1.0002 0,0.55324 0.44696,1.00021 1.0002,1.00021 h 3.98521 c 0,0 0,0 0,0 h 0.0125 c 0.55324,0 1.00021,-0.44697 1.00021,-1.00021 v -4.00083 c 0,-0.55324 -0.44697,-1.00021 -1.00021,-1.00021 -0.55324,0 -1.00021,0.44697 -1.00021,1.00021 v 1.60033 l -0.54699,-0.55011 c -2.73494,-2.73495 -7.16711,-2.73495 -9.90206,0 -0.76266,0.76266 -1.31277,1.65972 -1.65034,2.61929 -0.18442,0.52199 0.0906,1.09086 0.6095,1.27527 0.51886,0.18441 1.09085,-0.0906 1.27527,-0.6095 z m -2.06606,2.70994 c -0.15628,0.0469 -0.30631,0.13128 -0.42821,0.25631 -0.12503,0.12502 -0.20942,0.27505 -0.25318,0.43759 -0.009,0.0375 -0.0188,0.0781 -0.025,0.11877 C 0.0035,8.9088525 0,8.9620225 0,9.0151625 v 3.9883295 c 0,0.55324 0.44697,1.00021 1.00021,1.00021 0.55324,0 1.00021,-0.44697 1.00021,-1.00021 v -1.59721 l 0.55011,0.54699 v 0 c 2.73495,2.73182 7.16712,2.73182 9.89894,0 0.76266,-0.76266 1.3159,-1.65972 1.65347,-2.6161695 0.18441,-0.52198 -0.0906,-1.09085 -0.6095,-1.27526 -0.51886,-0.18442 -1.09086,0.0906 -1.27527,0.6095 -0.24067,0.68139 -0.63138,1.32215 -1.1815,1.8691395 -1.95353,1.95353 -5.11981,1.95353 -7.07334,0 l -0.003,-0.003 -0.53449,-0.53448 h 1.57533 c 0.55324,0 1.00021,-0.4469695 1.00021,-1.0002095 0,-0.55324 -0.44697,-1.00021 -1.00021,-1.00021 H 1.01284 c -0.05,0 -0.10002,0.003 -0.15003,0.009 -0.05,0.006 -0.0969,0.0156 -0.14378,0.0312 z"
     id="path2"
     style="display:inline;fill:#46c0e1;fill-opacity:1;stroke-width:0.0312565" />
  <path
     id="path6749"
     style="display:inline;fill:#46c0e1;fill-opacity:1;stroke-width:0.849089"
     d="M 3.9042925,0.40419502 C 3.4790406,0.63500562 3.0826362,0.90199312 2.7148394,1.2049762 3.0825912,0.90195913 3.4790856,0.63503959 3.9042925,0.40419502 Z m 7.1972645,0 C 11.52379,0.63485423 11.918686,0.90231303 12.285151,1.2049762 11.918133,0.90199312 11.524474,0.63500562 11.101557,0.40419502 Z M 1.7031206,2.216695 C 1.4001375,2.5837135 1.1331499,2.9773718 0.90233929,3.4002887 1.1329986,2.9780558 1.4004574,2.5831602 1.7031206,2.216695 Z m 11.5937494,0 c 0.302663,0.3664652 0.570122,0.7613608 0.800781,1.1835937 C 13.866841,2.9773718 13.599853,2.5837135 13.29687,2.216695 Z M 7.5175737,3.1815387 c -0.2949167,0 -0.5551375,0.1117782 -0.7792969,0.3359375 C 6.5141175,3.7416357 6.4023393,3.9942124 6.4023394,4.2772419 v 2.3359374 c 0,0.2943508 0.1117781,0.5510325 0.3359374,0.7695313 0.2241594,0.2179327 0.4843802,0.3261719 0.7792969,0.3261719 0.2830296,0 0.5375594,-0.1123442 0.7617188,-0.3359375 C 8.5028858,7.1487856 8.6132768,6.890518 8.6132768,6.5956012 V 4.2596637 c 0,-0.2830294 -0.110391,-0.5334543 -0.3339843,-0.7519531 C 8.0551331,3.2897779 7.8006033,3.1815387 7.5175737,3.1815387 Z m -0.017578,5.4296875 c -0.3300124,0 -0.6157147,0.123726 -0.8574219,0.3710938 -0.2422732,0.2479338 -0.3632812,0.537175 -0.3632812,0.8671875 0,0.3537875 0.121008,0.6451795 0.3632812,0.8749995 0.2417072,0.230386 0.5274095,0.345704 0.8574219,0.345703 0.3300125,1e-6 0.6157147,-0.115317 0.8574219,-0.345703 C 8.5996909,10.494687 8.7206988,10.203294 8.7206988,9.8495075 8.7206988,9.519495 8.5996909,9.2302538 8.3574176,8.98232 8.1157103,8.7349522 7.8300081,8.6112262 7.4999957,8.6112262 Z M 0.90233929,10.597554 C 1.1331499,11.022806 1.4001375,11.419211 1.7031206,11.787007 1.4001035,11.419255 1.133184,11.022761 0.90233929,10.597554 Z m 13.19531171,0 c -0.230844,0.425207 -0.497764,0.821702 -0.800781,1.189453 0.302983,-0.367796 0.569971,-0.764201 0.800781,-1.189453 z M 2.7148394,12.798726 c 0.3677968,0.302983 0.7642012,0.569971 1.1894531,0.800781 C 3.4790856,13.368663 3.0825911,13.101744 2.7148394,12.798726 Z m 9.5703116,0 c -0.366465,0.302664 -0.761361,0.570122 -1.183594,0.800781 0.422917,-0.23081 0.816576,-0.497798 1.183594,-0.800781 z" />
</svg>
