<svg xmlns="http://www.w3.org/2000/svg" xml:space="preserve" width="16" height="16"><path fill="#e0e0e0" fill-opacity=".5" d="M4 13H6V15H4zM1 13H3V15H1z"/><path fill="none" stroke="#e0e0e0" stroke-dashoffset="5.8" stroke-linejoin="round" stroke-width="2" d="M54 4A2 2 0 0 1 56 2M64 2a2 2 0 0 1 2 2M66 12V4M54 12V4M64 2H56" transform="translate(-52)"/><path fill="#e0e0e0" fill-opacity=".5" d="M7 13H9V15H7zM10 13H12V15H10zM13 13H15V15H13z"/><path fill="#ffa632" d="M4 5H12V7H4z" paint-order="stroke fill markers"/><path fill="#e0e0e0" d="M4 9H10V11H4z" paint-order="stroke fill markers"/></svg>
