<svg height="12" viewBox="0 0 16 12" width="16" xmlns="http://www.w3.org/2000/svg"><path d="m8 2v2h2c0 .55228-.44772 1-1 1v2c.55228 0 1 .44772 1 1s-.45296.92408-1 1h-1v2h1c1.0717-.000134 2.0619-.57191 2.5977-1.5.5359-.9282.5359-2.0718 0-3-.10406-.1795-.22646-.34771-.36523-.50195.13855-.15301.26094-.31991.36523-.49805.26209-.45639.3995-.97371.39844-1.5h.0039v-2zm-7 2v6h2c1.6569 0 3-1.3431 3-3v-3h-2v3c0 .55228-.44772 1-1 1v-4z" fill="#de66f0"/><path d="m8 2v2h2c0 .55228-.44772 1-1 1v2c.55228 0 1 .44772 1 1s-.44948.95585-1 1h-1v2h1c1.0717-.000134 2.0619-.57191 2.5977-1.5.5359-.9282.5359-2.0718 0-3-.10406-.1795-.22646-.34771-.36523-.50195.13855-.15301.26094-.31991.36523-.49805.26209-.45639.3995-.97371.39844-1.5h.0039v-2z" fill="#fff" fill-opacity=".39216"/><path d="m13 2v2h2v-2zm0 4v4h2v-4z" fill="#5abbef"/></svg>
