<svg width="16" height="12" version="1.1" viewBox="0 0 16 12" xmlns="http://www.w3.org/2000/svg">
<path d="m8 2v2h2c0 0.55228-0.44772 1-1 1v2c0.55228 0 1 0.44772 1 1s-0.45296 0.92408-1 1h-1v2h1c1.0717-1.34e-4 2.0619-0.57191 2.5977-1.5 0.5359-0.9282 0.5359-2.0718 0-3-0.10406-0.1795-0.22646-0.34771-0.36523-0.50195 0.13855-0.15301 0.26094-0.31991 0.36523-0.49805 0.26209-0.45639 0.3995-0.97371 0.39844-1.5h0.0039v-2zm-7 2v6h2c1.6569 0 3-1.3431 3-3v-3h-2v3c0 0.55228-0.44772 1-1 1v-4z" fill="#e286f0"/>
<path d="m8 2v2h2c0 0.55228-0.44772 1-1 1v2c0.55228 0 1 0.44772 1 1s-0.44948 0.95585-1 1h-1v2h1c1.0717-1.34e-4 2.0619-0.57191 2.5977-1.5 0.5359-0.9282 0.5359-2.0718 0-3-0.10406-0.1795-0.22646-0.34771-0.36523-0.50195 0.13855-0.15301 0.26094-0.31991 0.36523-0.49805 0.26209-0.45639 0.3995-0.97371 0.39844-1.5h0.0039v-2z" fill="#fff" fill-opacity=".39216"/>
<path d="m13 2v2h2v-2zm0 4v4h2v-4z" fill="#7dc6ef"/>
</svg>
