<svg width="16" height="12" version="1.1" viewBox="0 0 16 12" xmlns="http://www.w3.org/2000/svg">
<path d="m8 2v2h1c0.55228 0 1 0.44772 1 1s-0.44772 1-1 1c-0.71466-1.248e-4 -1.3751 0.38109-1.7324 1-0.17472 0.30426-0.26633 0.64914-0.26562 1h-2e-3v2h5v-2h-3c1.0717-1.344e-4 2.0619-0.57191 2.5977-1.5 0.5359-0.9282 0.5359-2.0718 0-3-0.53578-0.92809-1.526-1.4999-2.5977-1.5zm-7 2v6h2c1.6569 0 3-1.3431 3-3v-3h-2v3c0 0.55228-0.44772 1-1 1v-4z" fill="#bd91f1"/>
<path d="m8 2v2h1c0.55228 0 1 0.44772 1 1s-0.44772 1-1 1c-0.71466-1.248e-4 -1.3751 0.38109-1.7324 1-0.17472 0.30426-0.26633 0.64914-0.26562 1h-0.001953v2h5v-2h-3c1.0717-1.344e-4 2.0619-0.57191 2.5977-1.5 0.5359-0.9282 0.5359-2.0718 0-3-0.53583-0.92809-1.526-1.4999-2.5977-1.5z" fill="#fff" fill-opacity=".39216"/>
<path d="m13 2v2h2v-2zm0 4v4h2v-4z" fill="#7dc6ef"/>
</svg>
