<svg height="16" viewBox="0 0 16 16" width="16" xmlns="http://www.w3.org/2000/svg"><path d="m5 3a1 1 0 0 0 -1 1l-1 3h-2v4h1.0508c.23167-1.1411 1.2398-2 2.4492-2s2.2175.85893 2.4492 2h2.1016c.23167-1.1411 1.2398-2 2.4492-2s2.2175.85893 2.4492 2h1.0508v-4h-4v-4zm1 1h4v3h-4zm-1.5 6a1.5 1.5 0 0 0 -1.5 1.5 1.5 1.5 0 0 0 1.5 1.5 1.5 1.5 0 0 0 1.5-1.5 1.5 1.5 0 0 0 -1.5-1.5zm7 0a1.5 1.5 0 0 0 -1.5 1.5 1.5 1.5 0 0 0 1.5 1.5 1.5 1.5 0 0 0 1.5-1.5 1.5 1.5 0 0 0 -1.5-1.5z" fill="#fc9c9c" fill-opacity=".99608"/></svg>
