<svg xmlns="http://www.w3.org/2000/svg" xml:space="preserve" width="16" height="16"><path fill="#699ce8" d="M 8 1 A 7 7 0 0 0 1 8 A 7 7 0 0 0 8 15 A 7 7 0 0 0 15 8 A 7 7 0 0 0 8 1 z M 11.5 5 C 11.756101 5.0000038 12.012209 5.0981053 12.207031 5.2929688 C 12.597455 5.6834758 12.597455 6.3165242 12.207031 6.7070312 L 7.2070312 11.707031 C 6.8165013 12.097399 6.1834986 12.097399 5.7929688 11.707031 L 3.7929688 9.7070312 C 3.4025451 9.3165243 3.4025451 8.6834757 3.7929688 8.2929688 C 4.1834758 7.9025452 4.8165242 7.9025453 5.2070312 8.2929688 L 6.5 9.5859375 L 10.792969 5.2929688 C 10.987806 5.09809 11.243899 4.9999962 11.5 5 z"/></svg>
