<svg height="16" width="16" xmlns="http://www.w3.org/2000/svg"><path d="M3 1a2 2 0 0 0-2 2v10a2 2 0 0 0 2 2h10a2 2 0 0 0 2-2V3a2 2 0 0 0-2-2H3zm0 2h10v10H3V3zm7.998.998c-.554 0-1 .446-1 1v4.004c0 .554.446 1 1 1s1-.446 1-1V4.998c0-.554-.446-1-1-1zm-6 .004c-.554 0-1 .446-1 1v2c0 .554.446 1 1 1s1-.446 1-1v-2c0-.554-.446-1-1-1zm3 0c-.554 0-1 .446-1 1s.446 1 1 1 1-.446 1-1-.446-1-1-1zm0 3c-.554 0-1 .446-1 1v3c0 .554.446 1 1 1s1-.446 1-1v-3c0-.554-.446-1-1-1zm-3 1.996c-.554 0-1 .446-1 1v1.004c0 .554.446 1 1 1s1-.446 1-1V9.998c0-.554-.446-1-1-1z" style="fill:#8eef97;fill-opacity:1"/></svg>
