<svg height="16" viewBox="0 0 16 16" width="16" xmlns="http://www.w3.org/2000/svg"><linearGradient id="a" x2="0" y1="2" y2="14" gradientUnits="userSpaceOnUse"><stop offset="0" stop-color="#ff8dbc"/><stop offset=".4" stop-color="#7260ff"/><stop offset=".6" stop-color="#7260ff"/><stop offset="1" stop-color="#74c9ff"/></linearGradient><path d="m12 2 a-1 1 0 0 1 0 2a 8 8 0 0 0-8 8a-1 1 0 0 1-2 0a10 10 0 0 1 10-10zm0 4A-1 1 0 0 1 12 8a4 4 0 0 0-4 4A-1 1 0 0 1 6 12a6 6 0 0 1 6-6zm-2 4.5 a.667.667 0 0 1 1-0.566l2.667 1.674a.667.667 0 0 1 0 1.149l-2.667 1.674a.667 0.667 0 0 1-1-.566z" fill="url(#a)"/></svg>
