<svg xmlns="http://www.w3.org/2000/svg" width="16" height="16"><linearGradient id="a" x2="0" y1="2" y2="14" gradientUnits="userSpaceOnUse"><stop offset="0" stop-color="#ff8dbc"/><stop offset=".4" stop-color="#7260ff"/><stop offset=".6" stop-color="#7260ff"/><stop offset="1" stop-color="#74c9ff"/></linearGradient><path fill="url(#a)" d="M15 1H1v1h2v2H1v8h2v2H1v1h14v-1h-2v-2h2V4h-2V2h2zm-4 1v2H9V2zm0 10v2H9v-2zM7 2v2H5V2zm0 10v2H5v-2zM6 6.107a.75.75 0 0 1 1.125-.637l3 1.883a.75.75 0 0 1 0 1.293l-3 1.883A.75.75 0 0 1 6 9.892z"/></svg>