<svg xmlns="http://www.w3.org/2000/svg" width="16" height="16"><path d="M6.029 0a2 2 0 0 0-2 2v2.31a2 2 0 0 0-2.895 2.334l.996 2.989a2 2 0 0 0 1.106 1.158L.933 12.328a2 2 0 0 0 2.217 3.328l4.101-2.734.986 1.972a2 2 0 0 0 2.422 1.004l3-1a2 2 0 0 0 .594-3.441 2 2 0 0 0 .591-2.36l-1-2A2 2 0 0 0 12.029 6h-.42a2 2 0 0 0 .42-1V2a2 2 0 0 0-2-2z"/><path fill="#fff" d="M6.029 1a1 1 0 0 0-1 1v3a1 1 0 0 0 1 1h1v.99a1 1 0 0 0-.317.063l-2.05.683-.684-2.05a1 1 0 0 0-1.899.63l1 3a1 1 0 0 0 1.266.633l1.683-.56v.61c0 .042.02.076.024.116l-4.578 3.053a1 1 0 1 0 1.11 1.664L7.64 11.46l1.494 2.986a1 1 0 0 0 1.21.502l3-1a1 1 0 1 0-.632-1.896l-2.178.724-.974-1.95a.981.981 0 0 0 .468-.827V9h1.383l.723 1.447a1 1 0 1 0 1.789-.894l-1-2A1 1 0 0 0 12.028 7h-3V6h1a1 1 0 0 0 1-1V2a1 1 0 0 0-1-1zm0 2h1v2h-1z"/></svg>
