<svg enable-background="new 0 0 16 16" height="16" viewBox="0 0 16 16" width="16" xmlns="http://www.w3.org/2000/svg"><path d="m13.64874 5.136048c-.39077-.1969634-.862778-.0296504-1.05405.3738068l-.941961 1.9908122.707499-4.0186875c.078154-.4384023-.206696-.8609204-.634486-.942459-.428819-.0794207-.83707.2117885-.916253.6523087l-.591296 3.3526126-.093579-.6787823v-4.0970493c0-.4511096-.3527206-.813268-.7887374-.813268s-.7877095.3621584-.7877095.813268v4.0970493 1.2135483l-.6848754-3.8873786c-.0781539-.4405202-.4884622-.7338473-.9162522-.6533677-.4288183.0804797-.7126406.5029978-.6344866.942459l.7661143 4.3533135-1.2895401-.9551663c-.3804863-.3642763-.975896-.3409796-1.3296454.0497703-.3537495.3928677-.3321543 1.0049366.0493604 1.3692129l3.2505871 3.2467181h3.1518658c.566616 0 1.236067-1.391451 1.236067-1.391451l1.864383-3.9307948c.190243-.4055751.028793-.8905708-.363005-1.0864752z" fill="#e0e0e0" stroke-width="1.04353" transform="matrix(1.3323426 0 0 1.3 -4.255837 -.3)"/></svg>