<svg height="16" viewBox="0 0 4.2333333 4.2333333" width="16" xmlns="http://www.w3.org/2000/svg"><path d="m1.5875 0c-.28858 0-.52917.24059-.52917.52917v.61132c-.085589-.051-.18113-.0891-.28525-.0853-.34849.0127-.5952.37346-.48059.70278l.26355.79066c.048664.14623.15979.24805.29249.30644l-.60927.40669c-.13121.0845-.22102.22389-.24133.3633-.020312.13941.017471.26985.087333.37465s.17614.19045.31264.22532c.13634.0348.29946.006.42788-.0827h.0005159l1.0852-.72348.26097.52192c.11682.23391.39274.34829.64079.26561l.79375-.26458-.00775.003c.15105-.0454.27732-.15615.33486-.2863.057538-.13015.055144-.26773.014986-.38809-.03156-.0946-.10972-.1687-.19275-.23617.069099-.0546.1445-.10364.18035-.19325.051761-.12941.045257-.29292-.02377-.43098l-.26459-.52946c-.089407-.17933-.27348-.29308-.47335-.29305h-.1111c.052029-.0817.1111-.16214.1111-.26458v-.79375c0-.28858-.24059-.52917-.52917-.52917z"/><path d="m1.5875.26458c-.14658 0-.26458.118-.26458.26459v.79375c0 .14658.118.26458.26458.26458h.26458v.262a.26461.26461 0 0 0 -.083716.0165l-.5426.18086-.18087-.5426a.26461.26461 0 0 0 -.262-.18448.26461.26461 0 0 0 -.2403.3514l.26458.79375a.26461.26461 0 0 0 .33486.16743l.44545-.14831v.16174c0 .0108.00495.02.0062.0305l-1.2113.80771a.26461.26461 0 1 0 .29352.44028l1.3379-.89194.39532.79014a.26461.26461 0 0 0 .32039.1328l.79375-.26458a.26461.26461 0 1 0 -.16743-.50175l-.57619.19172-.25787-.51625c.072998-.047.12402-.12495.12402-.21859v-.26458h.36587l.1912.38292a.26461.26461 0 1 0 .47336-.23668l-.26458-.52916a.26461.26461 0 0 0 -.23668-.14625h-.79375v-.26458h.26458c.14658 0 .26458-.118.26458-.26458v-.79375c0-.14659-.118-.26459-.26458-.26459zm0 .52917h.26458v.52917h-.26458z" fill="#fff" fill-opacity=".99608"/></svg>
