<svg height="16" viewBox="0 0 16 16" width="16" xmlns="http://www.w3.org/2000/svg"><g stroke-width="3.77953"><path d="m6.0285136 0c-1.0906961 0-2.0000127.90931655-2.0000127 2.0000126v2.3105008c-.3234859-.1927559-.6845858-.3367559-1.0781102-.3223937-1.3171276.048-2.24957487 1.4115024-1.8164032 2.6561764l.9960945 2.9883213c.183927.5526806.6039307.9375116 1.1054741 1.1581986l-2.30275287 1.537096c-.49591181.31937-.83535119.846198-.91211339 1.373102-.07676977.526904.06603212 1.019906.33007748 1.416.26404536.396095.66572598.719811 1.18163158.851603.5153008.131528 1.1318173.02268 1.6171842-.312566h.00195l4.1015433-2.734413.9863434 1.972611c.4415244.884069 1.4843716 1.316372 2.4218832 1.00388l3-.999987-.02929.01134c.570898-.17159 1.048139-.590173 1.265613-1.082078.217466-.491906.208418-1.011893.05664-1.466797-.119282-.357543-.41469-.637606-.728504-.892611.261162-.206362.546142-.39171.681638-.730394.195632-.489109.17105-1.1070991-.08984-1.6289007l-1.000027-2.0011107c-.337916-.6777827-1.033625-1.1077039-1.789039-1.1075905h-.419906c.196645-.3087874.419906-.6128126.419906-.9999874v-3.0000001c0-1.09069605-.909317-2.0000126-2.000012-2.0000126z"/><path d="m6.0285136.99998741c-.5540032 0-.9999874.44598429-.9999874 1.00002519v3.0000001c0 .5540031.4459842.9999874.9999874.9999874h.9999874v.9902362a1.0001008 1.0001008 0 0 0 -.316407.062362l-2.0507716.6835656-.6836032-2.0507717a1.0001008 1.0001008 0 0 0 -.9902362-.6972473 1.0001008 1.0001008 0 0 0 -.9082205 1.328126l.9999874 3.0000001a1.0001008 1.0001008 0 0 0 1.2656126.6328063l1.6835906-.5605418v.6113008c0 .040819.018709.075591.023433.1152757l-4.5781418 3.052762a1.0001008 1.0001008 0 1 0 1.1093669 1.664051l5.05663-3.371112 1.4941228 2.986356a1.0001008 1.0001008 0 0 0 1.210922.501921l3.000001-.999987a1.0001008 1.0001008 0 1 0 -.632807-1.896378l-2.177726.724611-.9746262-1.951182c.275898-.177637.4687372-.472252.4687372-.8261665v-.9999874h1.382815l.722646 1.4472569a1.0001246 1.0001246 0 1 0 1.789077-.8945388l-.999987-1.9999748a1.0001008 1.0001008 0 0 0 -.894539-.5527559h-2.9999995v-.9999874h.9999875c.554003 0 .999987-.4459843.999987-.9999874v-3.0000001c0-.5540409-.445984-1.00002519-.999987-1.00002519zm0 2.00001259h.9999874v2.0000127h-.9999874z" fill="#fff"/></g></svg>
