<svg height="16" viewBox="0 0 16 16" width="16" xmlns="http://www.w3.org/2000/svg"><path d="m12 1v6h2v-6zm-4 2c-2.5567 0-5.7907 1.9477-6.9551 5.7051a1.0001 1.0001 0 0 0 -.0058594.57031c1.1244 3.9354 4.4609 5.7246 6.9609 5.7246 1.4907 0 3.2717-.65207 4.7109-2h-.71094-2v-.54102a4 4 0 0 1 -2 .54102 4 4 0 0 1 -4-4 4 4 0 0 1 4-4 4 4 0 0 1 2 .54102v-2.1816c-.68312-.23834-1.3644-.35938-2-.35938zm0 4a2 2 0 0 0 -2 2 2 2 0 0 0 2 2 2 2 0 0 0 2-2 2 2 0 0 0 -2-2zm4 2v2h2v-2z" fill="#fc7f7f" fill-opacity=".99608" fill-rule="evenodd"/></svg>
