<svg xmlns="http://www.w3.org/2000/svg" width="14" height="14"><g fill-opacity=".4"><path fill="#fff" d="M3.04 5.52a4 4 0 1 0 3.958 6.94 4 4 0 1 0 3.965-6.942 4 4 0 1 0-7.923 0z"/><path fill="#fff" d="M4.21 6.106A3 3 0 1 0 7 11.233 3 3 0 1 0 9.785 6.11a3 3 0 1 0-5.575 0z"/><circle cx="7" cy="5" r="3" fill="red"/><circle cx="5" cy="9" r="3" fill="#00f"/><circle cx="9" cy="9" r="3" fill="#0f0"/><circle cx="7" cy="5" r="3" fill="red"/><circle cx="5" cy="9" r="3" fill="#00f"/><circle cx="9" cy="9" r="3" fill="#0f0"/></g></svg>