<svg xmlns="http://www.w3.org/2000/svg" xmlns:xlink="http://www.w3.org/1999/xlink" width="32" height="32"><defs><path id="a" fill="#8eef97" d="M2.333984.9734003C1.595318.9734003 1 1.568718 1 2.3073847V2.9734003H6V2.3073847C6 1.568718 5.404682.9734003 4.666016.9734003ZM1 2.9734003V5.6394159C1 6.3780826 1.595318 6.9734003 2.333984 6.9734003H4.666016C5.404682 6.9734003 6 6.3780826 6 5.6394159V2.9734003ZM2.333984 8.9734003C1.595318 8.9734003 1 9.568718 1 10.307385V10.9734H6V10.307385C6 9.568718 5.404682 8.9734003 4.666016 8.9734003ZM1 10.9734v2.666016C1 14.378083 1.595318 14.9734 2.333984 14.9734H4.666016C5.404682 14.9734 6 14.378083 6 13.639416V10.9734Z"/><path id="b" fill="none" stroke="#8eef97" d="m 8,3.9734003 h 2 l 1.96348,4 2.03652,4e-7"/><path id="c" fill="none" stroke="#8eef97" d="m 8,11.9734 h 2 l 2,-3.9999997 h 2"/><path id="d" fill="#8eef97" d="M2.333984.9734003C1.595318.9734003 1 1.568718 1 2.3073847V2.9734003H6V2.3073847C6 1.568718 5.404682.9734003 4.666016.9734003ZM1 3.9734003V5.6394159C1 6.3780826 1.595318 6.9734003 2.333984 6.9734003H4.666016C5.404682 6.9734003 6 6.3780826 6 5.6394159V3.9734003ZM2.333984 8.9734003C1.595318 8.9734003 1 9.568718 1 10.307385V10.9734H6V10.307385C6 9.568718 5.404682 8.9734003 4.666016 8.9734003ZM1 11.9734v1.666016C1 14.378083 1.595318 14.9734 2.333984 14.9734H4.666016C5.404682 14.9734 6 14.378083 6 13.639416V11.9734Z"/></defs><path fill="#8eef97" d="m 33,47 a 2,2 0 0 0 -2,2 h 10 a 2,2 0 0 0 -2,-2 z m -2,3 v 1 a 3,3 0 0 1 0,6 2,2 0 0 0 2,2 h 6 a 2,2 0 0 0 2,-2 3,3 0 0 1 0,-6 v -1 z m 0,2 a 2,2 0 0 0 0,4 2,2 0 0 0 0,-4 z m 10,0 a 2,2 0 0 0 0,4 2,2 0 0 0 0,-4 z"/><rect width="4" height="6" x="25.517" y="-18.43" fill="#8eef97" ry="1"/><rect width="4" height="6" x="35.517" y="-10.43" fill="#8eef97" ry="1"/><path fill="none" stroke="#8eef97" stroke-linecap="round" stroke-linejoin="round" stroke-width="2" d="m 31.516808,-15.430204 h 4 l -6.977006,7.9999997 h 5.002718"/><path fill="#8eef97" d="M2.3339844 7C1.5953177 7 1 7.5953177 1 8.3339844V9H6V8.3339844C6 7.5953177 5.4046823 7 4.6660156 7ZM1 10v3.666016C1 14.404682 1.5953177 15 2.3339844 15H4.6660156C5.4046823 15 6 14.404682 6 13.666016V10ZM11.333984.97340024C10.595318.97340024 10 1.568718 10 2.3073847v.6660156h5V2.3073847C15 1.568718 14.404682.97340024 13.666016.97340024ZM10 3.9734003v3.6660156c0 .7386667.595318 1.3339844 1.333984 1.3339844h2.332032C14.404682 8.9734003 15 8.3780826 15 7.6394159V3.9734003Z" transform="translate(0 42.027)"/><path fill="none" stroke="#8eef97" stroke-linecap="round" stroke-linejoin="round" stroke-width="2" d="M 8,13 C 14,13 2,4 8,3.9922773" transform="translate(0 42.027)"/><path fill="#8eef97" d="M2.3339844 7C1.5953177 7 1 7.5953177 1 8.3339844V9H7V8.3339844C7 7.5953177 6.4046823 7 5.6660156 7ZM1 10v3.666016C1 14.404682 1.5953177 15 2.3339844 15H5.6660156C6.4046823 15 7 14.404682 7 13.666016V10ZM10.333984.97340024C9.595318.97340024 9 1.568718 9 2.3073847v.6660156h6V2.3073847C15 1.568718 14.404682.97340024 13.666016.97340024ZM9 3.9734003v3.6660156c0 .7386667.595318 1.3339844 1.333984 1.3339844h3.332032C14.404682 8.9734003 15 8.3780826 15 7.6394159V3.9734003Z" transform="translate(0 -22.973)"/><use xlink:href="#a" stroke-width="1.148" transform="translate(-30.67 -24.542)"/><use xlink:href="#b" stroke-linecap="round" stroke-linejoin="round" stroke-width="2" transform="translate(-30.67 -24.542)"/><use xlink:href="#c" stroke-linecap="round" stroke-linejoin="round" stroke-width="2" transform="translate(-30.67 -24.542)"/><use xlink:href="#d" stroke-width="1.148" transform="translate(-23 .027)"/><path fill="none" stroke="#8eef97" stroke-linecap="round" stroke-linejoin="round" stroke-width="2" d="M8 4.9778707c3-.00447 3 2.9955296 6 2.9955296M8 12.9734c3 0 3-4.9999997 6-4.9999997" transform="translate(-23 .027)"/><use xlink:href="#d" stroke-width="1.148" transform="translate(54 .027)"/><path fill="none" stroke="#8eef97" stroke-linecap="round" stroke-linejoin="round" stroke-width="2" d="m 8,4.9778707 2,-0.00447 1.96348,2.9999996 2.03652,4e-7" transform="translate(54 .027)"/><path fill="none" stroke="#8eef97" stroke-linecap="round" stroke-linejoin="round" stroke-width="2" d="m 8,12.9734 h 2 l 2,-4.9999997 h 2" transform="translate(54 .027)"/><use xlink:href="#a" stroke-width="1.148" transform="translate(-32.278 29.595)"/><use xlink:href="#b" stroke-linecap="round" stroke-linejoin="round" stroke-width="2" transform="translate(-32.278 29.595)"/><use xlink:href="#c" stroke-linecap="round" stroke-linejoin="round" stroke-width="2" transform="translate(-32.278 29.595)"/><path fill="#e0e0e0" d="M2.333984.9734006C1.595318.9734006 1 1.5687183 1 2.307385V2.9734006H6V2.307385C6 1.5687183 5.404682.9734006 4.666016.9734006ZM1 3.9734006V5.6394162C1 6.3780829 1.595318 6.9734006 2.333984 6.9734006H4.666016C5.404682 6.9734006 6 6.3780829 6 5.6394162V3.9734006ZM2.333984 8.9734006C1.595318 8.9734006 1 9.5687183 1 10.307385V10.9734H6V10.307385C6 9.5687183 5.404682 8.9734006 4.666016 8.9734006ZM1 11.9734v1.666016C1 14.378083 1.595318 14.9734 2.333984 14.9734H4.666016C5.404682 14.9734 6 14.378083 6 13.639416V11.9734Z" transform="matrix(1.98213 0 0 2 .018 .053)"/><path fill="none" stroke="#e0e0e0" stroke-linecap="round" stroke-linejoin="round" stroke-width="2" d="M8 3.9734003c3-.00447 3 4 6 4M8 11.9734c3 0 3-3.9999997 6-3.9999997" transform="matrix(1.98213 0 0 2 .018 .053)"/><path fill="#8eef97" d="M-5.166016.9734006C-5.904682.9734006-6.5 1.5687183-6.5 2.307385v.6660156h5V2.307385c0-.7386667-.595318-1.3339844-1.333984-1.3339844zm-1.333984 3v1.6660156c0 .7386667.595318 1.3339844 1.333984 1.3339844h2.332032C-2.095318 6.9734006-1.5 6.3780829-1.5 5.6394162V3.9734006ZM-5.166016 8.9734006C-5.904682 8.9734006-6.5 9.5687183-6.5 10.307385V10.9734h5V10.307385C-1.5 9.5687183-2.095318 8.9734006-2.833984 8.9734006ZM-6.5 11.9734v1.666016c0 .738667.595318 1.333984 1.333984 1.333984h2.332032C-2.095318 14.9734-1.5 14.378083-1.5 13.639416V11.9734Z" transform="translate(-54.018 -6.973)"/><path fill="none" stroke="#8eef97" stroke-linecap="round" stroke-linejoin="round" stroke-width="2" d="M8 3.9734003c3-.00447 3 4 6 4M8 11.9734c3 0 3-3.9999997 6-3.9999997" transform="translate(-54.018 -6.973)"/><path fill="#8eef97" d="M2 .9734003c-.554 0-1 .446-1 1h5c0-.554-.446-1-1-1zm-1 2v3c0 .554.446 1 1 1h3c.554 0 1-.446 1-1v-3zM2 8.9734003c-.554 0-1 .446-1 1h5c0-.554-.446-1-1-1zM1 10.9734v3c0 .554.446 1 1 1h3c.554 0 1-.446 1-1v-3z" transform="translate(-54.018 -6.973)"/></svg>