<svg height="16" viewBox="0 0 16 16" width="16" xmlns="http://www.w3.org/2000/svg"><path d="m2 .02734375c-1.108 0-2 .892-2 2.00000005v1.9726562h2v2a3 3 0 0 1 2.5 1.3457031 3 3 0 0 1 2.5-1.3457031 3 3 0 0 1 2 .7675781 3 3 0 0 1 2-.7675781 3 3 0 0 1 2 .7695312v-2.7695312h2v5a1 1 0 0 0 1 1v-7.9726562c0-1.10800005-.892-2.00000005-2-2.00000005zm0 7.97265625v2a1 1 0 0 0 1-1 1 1 0 0 0 -1-1zm5 0a1 1 0 0 0 -1 1 1 1 0 0 0 1 1 1 1 0 0 0 1-1 1 1 0 0 0 -1-1zm4 0a1 1 0 0 0 -1 1 1 1 0 0 0 1 1 1 1 0 0 0 1-1 1 1 0 0 0 -1-1zm-6.5 2.654297a3 3 0 0 1 -2.5 1.345703h-2v2.027344c0 1.108.892 2 2 2h12c1.108 0 2-.892 2-2v-2.027344a3 3 0 0 1 -2.5-1.345703 3 3 0 0 1 -2.5 1.345703 3 3 0 0 1 -2-.767578 3 3 0 0 1 -2 .767578 3 3 0 0 1 -2.5-1.345703z" fill="#6f91f0" stroke-linecap="square" stroke-opacity=".75" stroke-width="2"/></svg>
