<svg xmlns="http://www.w3.org/2000/svg" width="14" height="14"><path fill="#fff" d="M2 0a2 2 0 0 0-2 2v10a2 2 0 0 0 2 2h10a2 2 0 0 0 2-2V2a2 2 0 0 0-2-2z"/><g fill-opacity=".4"><path fill="#fff" d="M7 2a3 3 0 0 0-3 3 3 3 0 0 0 .21 1.106A3 3 0 0 0 2 9a3 3 0 0 0 3 3 3 3 0 0 0 2-.767A3 3 0 0 0 9 12a3 3 0 0 0 3-3 3 3 0 0 0-2.215-2.89A3 3 0 0 0 10 5a3 3 0 0 0-3-3z"/><circle cx="7" cy="5" r="3" fill="red"/><circle cx="5" cy="9" r="3" fill="#00f"/><circle cx="9" cy="9" r="3" fill="#0f0"/><circle cx="7" cy="5" r="3" fill="red"/><circle cx="5" cy="9" r="3" fill="#00f"/><circle cx="9" cy="9" r="3" fill="#0f0"/></g></svg>
