<svg xmlns="http://www.w3.org/2000/svg" width="14" height="14"><path fill="#eac968" d="M2 0a2 2 0 0 0-2 2v10a2 2 0 0 0 2 2h10a2 2 0 0 0 2-2V2a2 2 0 0 0-2-2zm4.973 2a.714.714 0 0 1 .347.074l4.286 2.143a.714.714 0 0 1 .394.64v4.286a.714.714 0 0 1-.394.638L7.32 11.924a.714.714 0 0 1-.64 0L2.395 9.78A.714.714 0 0 1 2 9.143V4.857a.714.714 0 0 1 .395-.64L6.68 2.074A.714.714 0 0 1 6.973 2zM7 3.514 4.31 4.858 7 6.2l2.69-1.343zM3.428 6.012v2.69l2.857 1.427V7.44zm7.144 0-2.857 1.43v2.687L10.572 8.7z"/></svg>