<svg height="14" viewBox="0 0 14 14" width="14" xmlns="http://www.w3.org/2000/svg"><g fill-opacity=".392157" transform="translate(0 -1038.3622)"><path d="m7 1039.3622a4.0000172 4.0000172 0 0 0 -4 4 4.0000172 4.0000172 0 0 0 .03906.5195 4.0000172 4.0000172 0 0 0 -2.039062 3.4805 4.0000172 4.0000172 0 0 0 4 4 4.0000172 4.0000172 0 0 0 1.998047-.541 4.0000172 4.0000172 0 0 0 2.001953.541 4.0000172 4.0000172 0 0 0 4-4 4.0000172 4.0000172 0 0 0 -2.037109-3.4824 4.0000172 4.0000172 0 0 0 .03711-.5176 4.0000172 4.0000172 0 0 0 -4-4z" fill="#fff"/><path d="m7 1040.3622a3 3 0 0 0 -3 3 3 3 0 0 0 .210937 1.1055 3 3 0 0 0 -2.210937 2.8945 3 3 0 0 0 3 3 3 3 0 0 0 2-.7676 3 3 0 0 0 2 .7676 3 3 0 0 0 3-3 3 3 0 0 0 -2.2148438-2.8906 3 3 0 0 0 .2148438-1.1094 3 3 0 0 0 -3-3z" fill="#fff"/><circle cx="7" cy="1043.3622" fill="#f00" r="3"/><circle cx="5" cy="1047.3622" fill="#00f" r="3"/><circle cx="9" cy="1047.3622" fill="#0f0" r="3"/><circle cx="7" cy="1043.3622" fill="#f00" r="3"/><circle cx="5" cy="1047.3622" fill="#00f" r="3"/><circle cx="9" cy="1047.3622" fill="#0f0" r="3"/></g></svg>
