<svg height="14" viewBox="0 0 14 14" width="14" xmlns="http://www.w3.org/2000/svg"><path d="m2 0c-1.1045695 0-2 .8954305-2 2v10c0 1.104569.8954305 2 2 2h10c1.104569 0 2-.895431 2-2v-10c0-1.1045695-.895431-2-2-2zm6 0 3 3-3 3v-2h-5v-2h5zm-3.65625 5.6289062.5136719.8574219 2.1425781 3.5703129 2.1425781-3.5703129.5136719-.8574219 1.714844 1.0292969-.513672.8574219-3.0000001 5c-.3885014.647055-1.3263424.647055-1.7148438 0l-3-5-.5136719-.8574219z" fill="#b8ea68"/><path d="m23 0v2h-5v2h5v2l3-3zm-3.65625 5.6289062-1.714844 1.0292969.513672.8574219 3 5c.388501.647056 1.326343.647056 1.714844 0l3-5 .513672-.8574219-1.714844-1.0292969-.513672.8574219-2.142578 3.5703129-2.142578-3.5703129z" fill-rule="evenodd"/></svg>
