<svg height="14" viewBox="0 0 14 14" width="14" xmlns="http://www.w3.org/2000/svg"><g fill-opacity=".4"><path d="M3.04 5.52a4 4 0 1 0 3.958 6.94 4 4 0 1 0 3.965-6.942 4 4 0 1 0-7.923 0z" fill="#fff"/><path d="M4.21 6.106A3 3 0 1 0 7 11.233 3 3 0 1 0 9.785 6.11a3 3 0 1 0-5.575 0z" fill="#fff"/><circle cx="7" cy="5" fill="red" r="3"/><circle cx="5" cy="9" fill="#00f" r="3"/><circle cx="9" cy="9" fill="#0f0" r="3"/><circle cx="7" cy="5" fill="red" r="3"/><circle cx="5" cy="9" fill="#00f" r="3"/><circle cx="9" cy="9" fill="#0f0" r="3"/></g></svg>
