<svg height="16" viewBox="0 0 16 16" width="16" xmlns="http://www.w3.org/2000/svg"><path d="m5 1c-1.108 0-2 .89199-2 2v10c0 1.108.89199 2 2 2h6c1.108 0 2-.89199 2-2v-10c0-1.108-.89199-2-2-2zm2.9883 1a1.0001 1.0001 0 0 1 .56641.16797l3 2a1.0001 1.0001 0 1 1 -1.1094 1.6641l-2.4453-1.6289-2.4453 1.6289a1.0001 1.0001 0 1 1 -1.1094-1.6641l3-2a1.0001 1.0001 0 0 1 .54297-.16797zm-2.998 7.9922a1.0001 1.0001 0 0 1 .56445.17578l2.4453 1.6309 2.4453-1.6309a1.0001 1.0001 0 1 1 1.1094 1.6641l-3 2a1.0001 1.0001 0 0 1 -1.1094 0l-3-2a1.0001 1.0001 0 0 1 .54492-1.8398z" fill="#a5efac"/></svg>
