<svg height="16" viewBox="0 0 16 16" width="16" xmlns="http://www.w3.org/2000/svg"><path d="m5 1a2 2 0 0 0 -2 2 2 2 0 0 0 2 2 2 2 0 0 0 2-2 2 2 0 0 0 -2-2zm5 0c-.55228 0-1 .44772-1 1s.44772 1 1 1h2c.55228 0 1-.44772 1-1s-.44772-1-1-1zm-4 5.8672c-.32639.086294-.6624.13092-1 .13281-.33752-.0012549-.67352-.045224-1-.13086v5 1.1309 1c-.019125 1.3523 2.0191 1.3523 2 0v-1-1.1328-5zm5 .13281c-.55228 0-1 .44772-1 1s.44772 1 1 1 1-.44772 1-1-.44772-1-1-1zm-1 6c-.55228 0-1 .44772-1 1s.44772 1 1 1h2c.55228 0 1-.44772 1-1s-.44772-1-1-1z" fill="#a5efac"/></svg>
