<svg xmlns="http://www.w3.org/2000/svg" height="20px" viewBox="0 -960 960 960" width="20px" fill="#FFFFFF"><path d="M360.21-432q-15.21 0-25.71-10.35T324-468v-258l-80 80q-11 11-25.67 11-14.66 0-25.33-11-11-10.67-11-25.33Q182-686 193-697l142-142q5.4-5 11.7-7.5 6.3-2.5 13.5-2.5t13.5 2.5Q380-844 385-839l142 142q11 11 11 25t-11 25.48Q516-636 501.5-636T476-647l-80-79v258q0 15.3-10.29 25.65Q375.42-432 360.21-432ZM599.8-111q-7.2 0-13.5-2.5T575-121L433-263q-11-10.91-10.5-25.45.5-14.55 11.5-26.03Q445-325 459.5-325t25.5 11l79 80v-258q0-15.3 10.29-25.65Q584.58-528 599.79-528t25.71 10.35Q636-507.3 636-492v258l80-80q11-11 25.67-11 14.66 0 25.33 11 11 10.67 11 25.33Q778-274 767-263L625-121q-5.4 5-11.7 7.5-6.3 2.5-13.5 2.5Z"/></svg>