<svg xmlns="http://www.w3.org/2000/svg" width="16" height="16"><path fill="#8eef97" d="m 8.0664063,2.1894531 a 0.83068803,0.83068803 0 0 0 -0.8300782,0.5 L 5.1386719,7.5859375 3.4765625,6.4785156 A 0.83060497,0.83060497 0 0 0 2.3261719,6.7089844 0.83060497,0.83060497 0 0 0 2.5546875,7.8613281 L 5.046875,9.5214844 A 0.83068803,0.83068803 0 0 0 6.2714844,9.1582031 l 1.5195312,-3.546875 1.8945313,7.5742189 a 0.83068803,0.83068803 0 0 0 1.5175781,0.224609 L 13.695313,9.2578125 A 0.83060497,0.83060497 0 0 0 13.410156,8.1191406 0.83060497,0.83060497 0 0 0 12.271484,8.4023438 L 10.810547,10.835938 8.8066406,2.8144531 a 0.83068803,0.83068803 0 0 0 -0.7402343,-0.625 z" color="#000" style="-inkscape-stroke:none"/><path fill="#8eef97" d="M 0.93164062 1 L 0.93164062 15 L 14.931641 15 L 14.931641 1 L 0.93164062 1 z M 8 1.2871094 C 8.0456273 1.2870795 8.0907091 1.2893057 8.1367188 1.2929688 L 8.1386719 1.2929688 C 8.8746342 1.351759 9.4991234 1.8777293 9.6796875 2.59375 A 0.90008998 0.90008998 0 0 0 9.6796875 2.5957031 L 9.78125 3 L 12.931641 3 L 12.931641 7.1074219 C 13.253297 7.0963577 13.58078 7.1722515 13.873047 7.3476562 C 14.682575 7.8336951 14.951708 8.9104984 14.466797 9.7207031 L 12.931641 12.279297 L 12.931641 13 L 12.498047 13 L 11.974609 13.873047 C 11.597757 14.500456 10.87145 14.789022 10.238281 14.695312 C 9.6051131 14.6016 8.9914581 14.115922 8.8125 13.40625 A 0.90008998 0.90008998 0 0 0 8.8125 13.404297 L 8.7109375 13 L 2.9316406 13 L 2.9316406 9.1933594 L 2.0566406 8.6113281 A 0.90008998 0.90008998 0 0 0 2.0546875 8.609375 C 1.2689752 8.0838407 1.0524164 6.9945801 1.578125 6.2089844 C 1.8904537 5.7413708 2.4024912 5.4756546 2.9316406 5.4472656 L 2.9316406 3 L 6.1230469 3 L 6.4082031 2.3359375 A 0.90008998 0.90008998 0 0 0 6.4101562 2.3339844 C 6.6835669 1.6977924 7.31559 1.2875569 8 1.2871094 z"/></svg>
