<svg height="16" viewBox="0 0 16 16" width="16" xmlns="http://www.w3.org/2000/svg"><g stroke-linecap="round" stroke-linejoin="round" stroke-width="2"><path d="m8 1a7 7 0 0 0 -7 7 7 7 0 0 0 7 7 7 7 0 0 0 7-7 7 7 0 0 0 -7-7zm-1.7305 2.3125c-.83125 1.5372-1.2685 3.1037-1.2695 4.6816-.64057-.11251-1.3005-.27158-1.9766-.47266a5 5 0 0 1 3.2461-4.209zm3.4629.0039062a5 5 0 0 1 3.2383 4.1875c-.65187.17448-1.3077.32867-1.9727.44922-.00845-1.5627-.44294-3.1141-1.2656-4.6367zm-1.7324.0078126c1.0126 1.593 1.5 3.1425 1.5 4.6758 0 .054042-.0066161.10803-.0078125.16211-.96392.096801-1.9566.1103-2.9844.027344-.0016335-.063192-.0078125-.12632-.0078125-.18945 0-1.5333.48744-3.0828 1.5-4.6758zm4.8789 5.7578a5 5 0 0 1 -3.1484 3.6055c.57106-1.0564.95277-2.1268 1.1367-3.2051.68204-.10905 1.3556-.23789 2.0117-.40039zm-9.7461.033203c.68377.18153 1.3555.33345 2.0098.43164.18781 1.0551.56647 2.1026 1.125 3.1367a5 5 0 0 1 -3.1348-3.5684zm6.168.55469c-.22615.98866-.65424 1.9884-1.3008 3.0059-.63811-1.0042-1.0645-1.9908-1.293-2.9668.89027.054126 1.7517.029377 2.5938-.039062z" fill="#fc9c9c" fill-opacity=".99608"/><path d="m8 1v2.3242c1.0126 1.593 1.5 3.1425 1.5 4.6758 0 .054042-.0066161.10803-.0078125.16211-.4894.049148-.98713.077552-1.4922.082031v1.4922c.43915-.0075968.87287-.031628 1.3008-.066406-.22615.98866-.65424 1.9884-1.3008 3.0059v2.3242a7 7 0 0 0 7-7 7 7 0 0 0 -7-7zm1.7324 2.3164a5 5 0 0 1 3.2383 4.1875c-.65187.17448-1.3077.32867-1.9727.44922-.00845-1.5627-.44294-3.1141-1.2656-4.6367zm3.1465 5.7656a5 5 0 0 1 -3.1484 3.6055c.57106-1.0564.95277-2.1268 1.1367-3.2051.68204-.10905 1.3556-.23789 2.0117-.40039z" fill="#a5b7f3"/></g></svg>
