<svg height="16" viewBox="0 0 16 16" width="16" xmlns="http://www.w3.org/2000/svg"><path d="m2 1037.4a1.0001 1.0001 0 0 0 -1 1v10a1.0001 1.0001 0 0 0 1 1c2.3667 0 3.9746.4629 5.7246.9629s3.6421 1.0371 6.2754 1.0371a1.0001 1.0001 0 0 0 1-1v-10a1.0001 1.0001 0 0 0 -1-1c-2.3667 0-3.9746-.4609-5.7246-.9609s-3.6421-1.0391-6.2754-1.0391zm1 2.0957c1.7984.1158 3.2574.448 4.7246.8672 1.4977.4279 3.194.8188 5.2754.9414v8.002c-1.7985-.1158-3.2574-.448-4.7246-.8672-1.4977-.4279-3.194-.8208-5.2754-.9434z" fill="#e0e0e0" fill-rule="evenodd" transform="translate(0 -1036.4)"/></svg>
