<svg height="16" viewBox="0 0 16 16" width="16" xmlns="http://www.w3.org/2000/svg"><path d="m7 1v2h-2v2h2v3.2656l-2.5527-1.2773c-.15005-.075253-.31662-.11152-.48438-.10547-.36536.013648-.69415.2256-.85742.55273-.24709.49403-.046823 1.0948.44727 1.3418l4.4473 2.2227 4.4473-2.2227c.49409-.24697.69435-.84777.44726-1.3418-.24697-.49409-.84777-.69435-1.3418-.44727l-2.5527 1.2773v-3.2656h2v-2h-2v-2zm-3 11v1c0 .55228.44772 1 1 1-.55228 0-1 .44772-1 1v1h1v-1h1v1h1v-1c0-.55228-.44772-1-1-1 .55228 0 1-.44772 1-1v-1h-1v1h-1v-1zm5 0v4h1v-1h1v1h1v-1c-.000834-.17579-.047991-.34825-.13672-.5.088728-.15175.13588-.32421.13672-.5v-1c0-.55228-.44772-1-1-1h-1zm1 1h1v1h-1z" fill="#fc7f7f"/></svg>
