<svg xmlns="http://www.w3.org/2000/svg" width="16" height="16"><path fill="#fc7f7f" d="M4 12v1c0 .553.448 1 1 1-.552 0-1 .447-1 1v1h1v-1h1v1h1v-1c0-.553-.448-1-1-1 .552 0 1-.447 1-1v-1h-1v1h-1v-1zm5 0v4h1v-1h1v1h1v-1c-.001-.176-.049-.348-.137-.5.088-.152.136-.324.137-.5v-1c0-.553-.447-1-1-1zm1 1h1v1h-1zM12.091 5.286h-3.384v-.715h.722c.396 0 .714-.319.714-.714v-2.143c0-.394-.319-.714-.714-.714h-2.857c-.395 0-.715.32-.715.714v2.143c0 .395.319.714.715.714h.707v.707l-3.279.008c-.395 0-.714.32-.714.714 0 .395.319.714.714.714h2.04l-.005 3.573c0 .395.32.713.715.713.394 0 .714-.318.714-.713v-1.662h1.073v1.662c0 .395.321.713.716.713.393 0 .713-.318.713-.713v-3.573h2.125c.395 0 .715-.32.715-.714s-.321-.714-.715-.714zm-3.384-3.027h.8v1.598h-.8zm-2.228 1.598v-1.598h.8v1.598z"/></svg>
