<svg height="16" viewBox="0 0 16 16" width="16" xmlns="http://www.w3.org/2000/svg"><g fill="#fc7f7f"><g fill-opacity=".996078" transform="translate(0 -2)"><path d="m7 2-2 3h-3s-1 .000001-1 1v6s.000001 1 1 1h12s1-.000001 1-1v-6s-.000001-1-1-1h-3l-2-3zm1 4c1.6568542 0 3 1.3431458 3 3 0 1.656854-1.3431458 3-3 3s-3-1.343146-3-3c0-1.6568542 1.3431458-3 3-3z"/><path d="m2 2h2v2h-2z"/></g><path d="m4 12v1c0 .552285.4477153 1 1 1-.5522847 0-1 .447715-1 1v1h1v-1h1v1h1v-1c0-.552285-.4477153-1-1-1 .5522847 0 1-.447715 1-1v-1h-1v1h-1v-1zm5 0v4h1v-1h1v1h1v-1c-.000919-.175812-.04817-.348275-.137-.5.08883-.151725.136081-.324188.137-.5v-1c0-.552285-.447715-1-1-1zm1 1h1v1h-1z"/></g></svg>
