<svg height="16" viewBox="0 0 16 16" width="16" xmlns="http://www.w3.org/2000/svg"><path d="m9.5 0a3 3 0 0 0 -2.9883 2.7773 3 3 0 0 0 -2.0117-.77734 3 3 0 0 0 -3 3 3 3 0 0 0 2 2.8242v2.1758c0 .554.44599 1 1 1h6c.55401 0 1-.446 1-1v-1l3 2v-6l-3 2v-1.7695a3 3 0 0 0 1-2.2305 3 3 0 0 0 -3-3zm-5.5 12v1c0 .55228.44772 1 1 1-.55228 0-1 .44772-1 1v1h1v-1h1v1h1v-1c0-.55228-.44772-1-1-1 .55228 0 1-.44772 1-1v-1h-1v1h-1v-1zm5 0v1 3h1v-1h1v1h1v-1c-.000834-.17579-.047991-.34825-.13672-.5.088728-.15175.13588-.32421.13672-.5v-1c0-.55228-.44772-1-1-1h-1zm1 1h1v1h-1z" fill="#fc7f7f"/></svg>
