<svg height="16" viewBox="0 0 16 16" width="16" xmlns="http://www.w3.org/2000/svg"><g fill="#fc7f7f"><path d="m4 12v1c0 .552.448 1 1 1-.552 0-1 .448-1 1v1h1v-1h1v1h1v-1c0-.552-.448-1-1-1 .552 0 1-.448 1-1v-1h-1v1h-1v-1zm5 0v4h1v-1h1v1h1v-1c-.001-.176-.048-.348-.137-.5.089-.152.136-.324.137-.5v-1c0-.552-.448-1-1-1zm1 1h1v1h-1z"/><path d="m11.384 9.462v-2.155c1.613-.944 2.156-3.016 1.213-4.631-.603-1.033-1.709-1.67-2.905-1.676h-3.385c-1.869.008-3.377 1.532-3.368 3.401.005 1.197.643 2.301 1.676 2.906v2.155c0 .934.758 1.692 1.692 1.692h3.385c.935 0 1.692-.758 1.692-1.692zm-4.23-4.231h1.692v.846h-1.692zm-2.539-.846c0-.468.378-.846.847-.846.468 0 .846.378.846.846 0 .467-.378.846-.846.846-.469 0-.847-.379-.847-.846zm5.923 5.077h-.846v-.847h-.846v.846h-1.692v-.846h-.847v.846h-.846v-2.538h.846v.846h.847v-.846h1.692v.846h.846v-.846h.846zm-.846-5.077c0-.468.378-.846.846-.846s.846.378.846.846c0 .467-.378.846-.846.846s-.846-.379-.846-.846z"/></g></svg>