<svg enable-background="new -299.5 50.5 16 16" height="16" viewBox="-299.5 50.5 16 16" width="16" xmlns="http://www.w3.org/2000/svg"><g fill="#fc7f7f"><path d="m-295.5 62.5v1c0 .553.448 1 1 1-.552 0-1 .447-1 1v1h1v-1h1v1h1v-1c0-.553-.448-1-1-1 .552 0 1-.447 1-1v-1h-1v1h-1v-1zm5 0v4h1v-1h1v1h1v-1c-.001-.176-.049-.348-.137-.5.088-.152.136-.324.137-.5v-1c0-.553-.447-1-1-1zm1 1h1v1h-1z"/><path d="m-287.125 55.447c-.38-.186-.839-.028-1.025.353l-.917 1.879.688-3.794c.076-.415-.201-.813-.617-.89-.417-.075-.815.201-.891.617l-.574 3.165-.091-.641v-3.869c0-.425-.343-.768-.767-.768s-.766.343-.766.768v3.869 1.147l-.666-3.672c-.076-.416-.475-.692-.891-.617-.417.076-.693.475-.617.89l.745 4.111-1.254-.902c-.37-.344-.949-.322-1.293.048-.344.371-.323.949.048 1.293l3.161 3.065h3.065c.551 0 1.202-1.314 1.202-1.314l1.813-3.713c.185-.381.028-.839-.353-1.025z"/></g></svg>