<svg height="16" viewBox="0 0 16 16" width="16" xmlns="http://www.w3.org/2000/svg"><g stroke-linecap="round" stroke-linejoin="round" stroke-width="2" transform="translate(0 -1036.4)"><circle cx="8" cy="1044.4" fill-opacity=".39216" r="8" stroke-opacity=".98824"/><path d="m8 1a7 7 0 0 0 -7 7 7 7 0 0 0 7 7 7 7 0 0 0 7-7 7 7 0 0 0 -7-7zm-.029297 3.002a1.0001 1.0001 0 0 1 1.0293.99805v7h-2v-5.1309l-1.4453.96289-1.1094-1.6641 3-2a1.0001 1.0001 0 0 1 .52539-.16602z" fill="#e0e0e0" transform="translate(0 1036.4)"/></g></svg>
