<svg width="16" height="12" version="1.1" viewBox="0 0 16 12" xmlns="http://www.w3.org/2000/svg">
<g transform="translate(0 -1040.4)">
<path d="m3 1049.4a3 3 0 0 1 -3 -3h2a1 1 0 0 0 1 1v2z" fill="#ec69a3"/>
<path d="m3 1043.4a3 3 0 0 0 -3 3h2a1 1 0 0 1 1 -1v-2z" fill="#ec69a3"/>
<rect transform="scale(1,-1)" x="3" y="-1051.4" width="2" height="8" fill="#ec69a3"/>
<rect transform="scale(1,-1)" x="13" y="-1046.4" width="2" height="5" fill="#ec69a3"/>
<rect transform="scale(1,-1)" x="15" y="-1045.4" width="1" height="2" fill="#ec69a3"/>
<path d="m16 1049.4a3 3 0 0 1 -3 -3h2a1 1 0 0 0 1 1v2z" fill="#ec69a3"/>
<path d="m4 1043.4v3a3 3 0 0 0 3 3h2v-6h-2v4a1 1 0 0 1 -1 -1v-3h-2z" fill="#f298c0"/>
<path transform="translate(0 1040.4)" d="m11 3a3 3 0 0 0 -3 3 3 3 0 0 0 3 3h2v-6h-2zm0 2v2a1 1 0 0 1 -1 -1 1 1 0 0 1 1 -1z" fill="#ec69a3"/>
</g>
</svg>
