<svg width="16" height="16" version="1.1" viewBox="0 0 16 16" xmlns="http://www.w3.org/2000/svg">
<g transform="translate(0 -1036.4)">
<path transform="translate(0 1036.4)" d="m9 0a3 3 0 0 0 -2.9883 2.7773 3 3 0 0 0 -2.0117 -0.77734 3 3 0 0 0 -3 3 3 3 0 0 0 2 2.8242v2.1758c0 0.554 0.44599 1 1 1h6c0.55401 0 1-0.446 1-1v-1l3 2v-6l-3 2v-1.7695a3 3 0 0 0 1 -2.2305 3 3 0 0 0 -3 -3zm-6 12v4h1v-4h-1zm3 0v4h1v-1h1a1 1 0 0 0 1 -1v-1a1 1 0 0 0 -1 -1h-1-1zm5 0a1 1 0 0 0 -1 1v2a1 1 0 0 0 1 1h1a1 1 0 0 0 1 -1v-2a1 1 0 0 0 -1 -1h-1zm-4 1h1v1h-1v-1zm4 0h1v2h-1v-2z" fill="#ff5f5f"/>
</g>
</svg>
