<svg width="16" height="16" version="1.1" viewBox="0 0 16 16" xmlns="http://www.w3.org/2000/svg">
<g transform="translate(0 -1036.4)" fill="#4f4f4f">
<rect x="10" y="1046.4" width="2" height="2"/>
<rect x="13" y="1046.4" width="2" height="2"/>
<rect x="10" y="1049.4" width="2" height="2"/>
<rect x="13" y="1049.4" width="2" height="2"/>
<path transform="translate(0 1036.4)" d="m6 1a5 5 0 0 0 -5 5 5 5 0 0 0 5 5 5 5 0 0 0 5 -5 5 5 0 0 0 -5 -5zm-3 4a1 1 0 0 1 1 1 1 1 0 0 1 -1 1 1 1 0 0 1 -1 -1 1 1 0 0 1 1 -1zm6 0a1 1 0 0 1 1 1 1 1 0 0 1 -1 1 1 1 0 0 1 -1 -1 1 1 0 0 1 1 -1zm-1.0039 2.4922a0.50005 0.50005 0 0 1 0.35742 0.86133c-0.61785 0.6179-1.4924 0.89648-2.3535 0.89648s-1.7357-0.27858-2.3535-0.89648a0.50005 0.50005 0 0 1 0.34766 -0.85742 0.50005 0.50005 0 0 1 0.35938 0.15039c0.38215 0.3822 1.0076 0.60352 1.6465 0.60352s1.2643-0.22132 1.6465-0.60352a0.50005 0.50005 0 0 1 0.34961 -0.1543z"/>
<rect x="13" y="1043.4" width="2" height="2"/>
<rect x="7" y="1049.4" width="2" height="2"/>
</g>
</svg>
