<svg width="128" height="128" version="1.1" viewBox="0 0 128 128" xmlns="http://www.w3.org/2000/svg">
<g transform="translate(0 -924.36)">
<g transform="matrix(2 0 0 2 -16 -1040.4)">
<path transform="matrix(.5 0 0 .5 8 982.36)" d="m48 8a40 39.998 0 0 0 -40 39.998h16a24 23.999 0 0 1 24 -23.998 24 23.999 0 0 1 24 23.998c0 13.999-4.33 18.859-9.1211 22.852-2.3955 1.9962-5.0363 3.5302-7.8125 5.5352-1.3881 1.0024-2.8661 2.126-4.3047 3.9414-1.4385 1.8152-2.7617 4.6719-2.7617 7.6719 0 10.221-2.5383 12.59-5.1172 14.137-2.5789 1.5472-6.8828 1.8594-10.883 1.8594v0.00195h-8v16h8v-0.00195c4 0 11.696 0.31158 19.117-4.1406 7.0602-4.236 12.198-13.279 12.695-26 0.1835-0.1636 0.14883-0.15489 0.62109-0.49609 1.7238-1.245 5.083-3.2112 8.6875-6.2148 7.209-6.0072 14.879-17.145 14.879-35.145a40 39.998 0 0 0 -40 -39.998zm63.426 8l-13.906 8.0312a48 47.998 0 0 1 6.4844 23.967 48 47.998 0 0 1 -6.4688 23.984l13.891 8.0137a64 63.997 0 0 0 0 -63.996z" fill="#f7f5cf"/>
</g>
</g>
</svg>
