<svg width="14" height="14" version="1.1" viewBox="0 0 14 14" xmlns="http://www.w3.org/2000/svg">
<g transform="translate(0 -1038.4)" fill="#b8ea68">
<rect x="6" y="1042.4" width="2" height="5"/>
<path transform="translate(0 1038.4)" d="m9.0703 1a3 3 0 0 0 -1.5703 0.40234 3 3 0 0 0 -1.5 2.5977h2a1 1 0 0 1 1 -1 1 1 0 0 1 1 1h2a3 3 0 0 0 -1.5 -2.5977 3 3 0 0 0 -1.4297 -0.40234z"/>
<rect x="10" y="1042.4" width="2" height="1"/>
<path transform="translate(0 1038.4)" d="m2 10a3 3 0 0 0 1.5 2.5977 3 3 0 0 0 3 0 3 3 0 0 0 1.5 -2.5977h-2a1 1 0 0 1 -1 1 1 1 0 0 1 -1 -1h-2z"/>
<rect transform="scale(1,-1)" x="6" y="-1048.4" width="2" height="1"/>
<rect x="4" y="1044.4" width="6" height="2"/>
</g>
</svg>
