<svg width="16" height="16" version="1.1" viewBox="0 0 16 16" xmlns="http://www.w3.org/2000/svg">
<g transform="translate(0 -1036.4)">
<path transform="translate(0 1036.4)" d="m6 1a5 5 0 0 0 -5 5 5 5 0 0 0 5 5 5 5 0 0 0 2.752 -0.83398l4.3184 4.3184 1.4141-1.4141-4.3184-4.3184a5 5 0 0 0 0.41016 -0.75195h-0.57617v-2h-1a3 3 0 0 1 -3 3 3 3 0 0 1 -3 -3 3 3 0 0 1 3 -3 3 3 0 0 1 2 0.76758v-1.7676h0.99023a5 5 0 0 0 -2.9902 -1zm5 0v2h-2v2h2v2h2v-2h2v-2h-2v-2h-2z" fill="#4f4f4f" fill-opacity=".99608"/>
</g>
</svg>
