<svg width="64" height="64" version="1.1" viewBox="0 0 64 64" xmlns="http://www.w3.org/2000/svg">
<g transform="translate(0 -988.36)">
<path transform="translate(0 988.36)" d="m13 11.996a5.0039 5.0039 0 0 0 -5.0039 5.0039 5.0039 5.0039 0 0 0 0.0039062 0.11719v2.8828 8 22.92a5.0039 5.0039 0 0 0 -0.0039062 0.076172 5.0039 5.0039 0 0 0 5.0039 5.0039h37.996a5.0039 5.0039 0 0 0 5.0039 -5.0039v-25.916a5.0039 5.0039 0 0 0 0.003906 -0.076172 5.0039 5.0039 0 0 0 -5.0039 -5.0039h-11v-0.039062a3.5 3.5 0 0 1 -0.5 0.039062 3.5 3.5 0 0 1 -3.5 -3.5v0.38281a5.0039 5.0039 0 0 0 -5 -4.8867 5.0039 5.0039 0 0 0 -0.11719 0.003906h-17.807a5.0039 5.0039 0 0 0 -0.076172 -0.003906zm23 4.5039a3.5 3.5 0 0 1 0.041016 -0.5h-0.041016v0.5z" fill="#4f4f4f"/>
</g>
</svg>
