<svg width="16" height="16" version="1.1" viewBox="0 0 16 16" xmlns="http://www.w3.org/2000/svg">
<g transform="translate(0 -1036.4)">
<path transform="translate(0 1036.4)" d="m4 1c-0.554 0-1 0.446-1 1v12c0 0.554 0.446 1 1 1h8c0.554 0 1-0.446 1-1v-12c0-0.554-0.446-1-1-1h-8zm1 1h2c0.554 0 1 0.446 1 1s-0.446 1-1 1h-2c-0.554 0-1-0.446-1-1s0.446-1 1-1zm6 0c0.55228 0 1 0.44772 1 1s-0.44772 1-1 1-1-0.44772-1-1 0.44772-1 1-1zm-5 4a2 2 0 0 1 2 2 2 2 0 0 1 -2 2 2 2 0 0 1 -2 -2 2 2 0 0 1 2 -2zm5 0c0.55228 0 1 0.44772 1 1s-0.44772 1-1 1-1-0.44772-1-1 0.44772-1 1-1zm0 4c0.55228 0 1 0.44772 1 1s-0.44772 1-1 1-1-0.44772-1-1 0.44772-1 1-1zm-7 2h1v2h-1v-2zm2 0h1v2h-1v-2zm2 0h1v2h-1v-2z" fill="#4f4f4f"/>
</g>
</svg>
