<svg width="16" height="12" version="1.1" viewBox="0 0 16 12" xmlns="http://www.w3.org/2000/svg">
<g transform="translate(0 -1040.4)" fill="#4f4f4f">
<rect x="11" y="1047.4" width="2" height="3"/>
<path d="m14 1044.4a3 3 0 0 0 -3 3h2a1 1 0 0 1 1 -1v-2z"/>
<rect x="7" y="1047.4" width="2" height="3"/>
<path d="m10 1044.4a3 3 0 0 0 -3 3h2a1 1 0 0 1 1 -1v-2z"/>
<path d="m4 1050.4a3 3 0 0 1 -3 -3h2a1 1 0 0 0 1 1v2z"/>
<path d="m4 1044.4a3 3 0 0 0 -3 3h2a1 1 0 0 1 1 -1v-2z"/>
<rect transform="scale(1,-1)" x="4" y="-1050.4" width="2" height="6"/>
<rect x="10" y="1044.4" width="1" height="2"/>
<rect x="14" y="1044.4" width="1" height="2"/>
</g>
</svg>
