<svg width="16" height="16" version="1.1" viewBox="0 0 16 16" xmlns="http://www.w3.org/2000/svg">
<g transform="translate(0 -1036.4)">
<path transform="translate(0 1036.4)" d="m2.9609 7.7266l-1.9219 0.54883c0.31999 1.12 0.8236 2.0593 1.4316 2.8398l-0.83398 0.83398 1.4141 1.4141 0.84375-0.84375c0.98585 0.74762 2.0766 1.2067 3.1055 1.3867v1.0938h2v-1.0938c1.0288-0.17998 2.1196-0.6391 3.1055-1.3867l0.84375 0.84375 1.4141-1.4141-0.83398-0.83398c0.60804-0.78055 1.1117-1.7199 1.4316-2.8398l-1.9219-0.54883c-0.8756 3.0646-3.5391 4.2734-5.0391 4.2734s-4.1635-1.2088-5.0391-4.2734z" color="#000000" color-rendering="auto" dominant-baseline="auto" fill="#4f4f4f" fill-opacity=".99608" fill-rule="evenodd" image-rendering="auto" shape-rendering="auto" solid-color="#000000" style="filter-blend-mode:normal;filter-gaussianBlur-deviation:0;font-feature-settings:normal;font-variant-alternates:normal;font-variant-caps:normal;font-variant-east-asian:normal;font-variant-ligatures:normal;font-variant-numeric:normal;font-variant-position:normal;isolation:auto;mix-blend-mode:normal;shape-padding:0;text-decoration-color:#000000;text-decoration-line:none;text-decoration-style:solid;text-indent:0;text-orientation:mixed;text-transform:none;white-space:normal"/>
</g>
</svg>
