<svg width="16" height="16" version="1.1" viewBox="0 0 16 15.999999" xmlns="http://www.w3.org/2000/svg">
<g transform="translate(0 -1036.4)">
<path transform="translate(0 1036.4)" d="m8 1a7 7 0 0 0 -7 7 7 7 0 0 0 7 7 7 7 0 0 0 7 -7 7 7 0 0 0 -7 -7zm0 2a5 5 0 0 1 0.5 0.025391 5 5 0 0 1 0.49414 0.074219 5 5 0 0 1 0.48438 0.12305 5 5 0 0 1 0.46875 0.17188 5 5 0 0 1 0.44922 0.2168 5 5 0 0 1 0.42578 0.26172 5 5 0 0 1 0.39844 0.30273 5 5 0 0 1 0.36524 0.33984 5 5 0 0 1 0.33008 0.37695 5 5 0 0 1 0.29102 0.40625 5 5 0 0 1 0.24805 0.43359 5 5 0 0 1 0.20508 0.45508 5 5 0 0 1 0.1582 0.47461 5 5 0 0 1 0.10938 0.48828 5 5 0 0 1 0.060547 0.49609 5 5 0 0 1 0.011719 0.35352 5 5 0 0 1 -0.025391 0.5 5 5 0 0 1 -0.074218 0.49414 5 5 0 0 1 -0.12305 0.48438 5 5 0 0 1 -0.17188 0.46875 5 5 0 0 1 -0.2168 0.44922 5 5 0 0 1 -0.26172 0.42578 5 5 0 0 1 -0.30273 0.39844 5 5 0 0 1 -0.33984 0.36524 5 5 0 0 1 -0.37695 0.33008 5 5 0 0 1 -0.40625 0.29102 5 5 0 0 1 -0.43359 0.24805 5 5 0 0 1 -0.45508 0.20508 5 5 0 0 1 -0.47461 0.1582 5 5 0 0 1 -0.48828 0.10938 5 5 0 0 1 -0.49609 0.060547 5 5 0 0 1 -0.35352 0.011719 5 5 0 0 1 -0.5 -0.025391 5 5 0 0 1 -0.49414 -0.074218 5 5 0 0 1 -0.48438 -0.12305 5 5 0 0 1 -0.46875 -0.17188 5 5 0 0 1 -0.44922 -0.2168 5 5 0 0 1 -0.42578 -0.26172 5 5 0 0 1 -0.39844 -0.30273 5 5 0 0 1 -0.36523 -0.33984 5 5 0 0 1 -0.33008 -0.37695 5 5 0 0 1 -0.29102 -0.40625 5 5 0 0 1 -0.24805 -0.43359 5 5 0 0 1 -0.20508 -0.45508 5 5 0 0 1 -0.1582 -0.47461 5 5 0 0 1 -0.10938 -0.48828 5 5 0 0 1 -0.060547 -0.49609 5 5 0 0 1 -0.011719 -0.35352 5 5 0 0 1 0.025391 -0.5 5 5 0 0 1 0.074219 -0.49414 5 5 0 0 1 0.12305 -0.48438 5 5 0 0 1 0.17188 -0.46875 5 5 0 0 1 0.2168 -0.44922 5 5 0 0 1 0.26172 -0.42578 5 5 0 0 1 0.30273 -0.39844 5 5 0 0 1 0.33984 -0.36523 5 5 0 0 1 0.37695 -0.33008 5 5 0 0 1 0.40625 -0.29102 5 5 0 0 1 0.43359 -0.24805 5 5 0 0 1 0.45508 -0.20508 5 5 0 0 1 0.47461 -0.1582 5 5 0 0 1 0.48828 -0.10938 5 5 0 0 1 0.49609 -0.060547 5 5 0 0 1 0.35352 -0.011719z" fill="#4f4f4f"/>
<circle cx="8" cy="1044.4" r="3" fill="#000000" fill-opacity=".58824" stroke-linecap="round" stroke-linejoin="round" stroke-opacity=".32549" stroke-width="3"/>
</g>
</svg>
