<svg width="16" height="16" version="1.1" viewBox="0 0 16 16" xmlns="http://www.w3.org/2000/svg">
<g transform="translate(0 -1036.4)" fill="#4f4f4f">
<path d="m1 1046.4v3h2v2h2v-5h-4z"/>
<path d="m11 1046.4v5h2v-2h2v-3h-4z"/>
<path d="m8 1037.4a7 7 0 0 0 -7 7h2a5 5 0 0 1 5 -5 5 5 0 0 1 5 5h2a7 7 0 0 0 -7 -7z"/>
<rect x="1" y="1044.4" width="2" height="2"/>
<rect x="13" y="1044.4" width="2" height="2"/>
<circle cx="3" cy="1049.4" r="2"/>
<circle transform="scale(-1,1)" cx="-13" cy="1049.4" r="2"/>
</g>
</svg>
