<svg width="16" height="12" version="1.1" viewBox="0 0 16 12" xmlns="http://www.w3.org/2000/svg">
<g transform="translate(0 -1040.4)" fill="#6ba7ec">
<path d="m5 1042.4a3 3 0 0 0 -3 3v2a1 1 0 0 1 -1 1v2a3 3 0 0 0 3 -3v-2a1 1 0 0 1 1 -1v-2z"/>
<rect transform="scale(1,-1)" x="7" y="-1047.4" width="2" height="5"/>
<rect transform="scale(1,-1)" x="9" y="-1046.4" width="2" height="2"/>
<path d="m10 1050.4a3 3 0 0 1 -3 -3h2a1 1 0 0 0 1 1v2z"/>
<path transform="translate(0 1040.4)" d="m15 4a3 3 0 0 0 -3 3v3h2v-3a1 1 0 0 1 1 -1h1v-2h-1z"/>
<rect y="1048.4" width="1" height="2"/>
<rect x="5" y="1042.4" width="1" height="2"/>
<rect transform="scale(1,-1)" x="10" y="-1050.4" width="1" height="2"/>
</g>
</svg>
