<svg width="16" height="16" version="1.1" viewBox="0 0 16 16" xmlns="http://www.w3.org/2000/svg" xmlns:xlink="http://www.w3.org/1999/xlink">
<defs>
<linearGradient id="a" x1="8" x2="8" y1="1" y2="15" gradientUnits="userSpaceOnUse">
<stop stop-color="#ff4040" offset="0"/>
<stop stop-color="#d6cf4b" offset=".5"/>
<stop stop-color="#00f010" offset="1"/>
</linearGradient>
</defs>
<g transform="translate(0 -1036.4)">
<path transform="translate(0 1036.4)" d="m11.971 1.002c-0.08326 0.00207-0.16593 0.014541-0.24609 0.037109l-7 2c-0.42881 0.12287-0.7244 0.51487-0.72461 0.96094v5.5508c-0.16454-0.033679-0.33205-0.050692-0.5-0.050781-1.3807 0-2.5 1.1193-2.5 2.5-4.75e-6 1.3807 1.1193 2.5 2.5 2.5 1.3456-0.0013 2.4488-1.0674 2.4961-2.4121 0.0025906-0.029226 0.003894-0.058551 0.0039062-0.087891v-7.2441l5-1.4277v3.1719l2-1v-3.5c-9.16e-4 -0.56314-0.4664-1.0145-1.0293-0.99805zm-1.4707 6.998c-0.277 0-0.5 0.223-0.5 0.5v5c0 0.277 0.223 0.5 0.5 0.5s0.5-0.223 0.5-0.5v-5c0-0.277-0.223-0.5-0.5-0.5zm2 1c-0.277 0-0.5 0.223-0.5 0.5v3c0 0.277 0.223 0.5 0.5 0.5s0.5-0.223 0.5-0.5v-3c0-0.277-0.223-0.5-0.5-0.5zm-4 1c-0.277 0-0.5 0.223-0.5 0.5v1c0 0.277 0.223 0.5 0.5 0.5s0.5-0.223 0.5-0.5v-1c0-0.277-0.223-0.5-0.5-0.5zm6 0c-0.277 0-0.5 0.223-0.5 0.5v1c0 0.277 0.223 0.5 0.5 0.5s0.5-0.223 0.5-0.5v-1c0-0.277-0.223-0.5-0.5-0.5z" color="#000000" color-rendering="auto" dominant-baseline="auto" fill="url(#a)" image-rendering="auto" shape-rendering="auto" solid-color="#000000" style="font-feature-settings:normal;font-variant-alternates:normal;font-variant-caps:normal;font-variant-ligatures:normal;font-variant-numeric:normal;font-variant-position:normal;isolation:auto;mix-blend-mode:normal;shape-padding:0;text-decoration-color:#000000;text-decoration-line:none;text-decoration-style:solid;text-indent:0;text-orientation:mixed;text-transform:none;white-space:normal"/>
</g>
</svg>
