<svg width="14" height="14" version="1.1" viewBox="0 0 14 14" xmlns="http://www.w3.org/2000/svg">
<g transform="translate(0 -1038.4)">
<path transform="translate(0 1038.4)" d="m2 0c-1.1046 0-2 0.8954-2 2v10c0 1.1046 0.89543 2 2 2h10c1.1046 0 2-0.8954 2-2v-10c0-1.1046-0.89543-2-2-2h-10zm4.9727 2a0.71438 0.71438 0 0 1 0.34766 0.074219l4.2852 2.1426a0.71438 0.71438 0 0 1 0.39453 0.64062v4.2852a0.71438 0.71438 0 0 1 -0.39453 0.63867l-4.2852 2.1426a0.71438 0.71438 0 0 1 -0.64062 0l-4.2852-2.1426a0.71438 0.71438 0 0 1 -0.39453 -0.63867v-4.2852a0.71438 0.71438 0 0 1 0.39453 -0.64062l4.2852-2.1426a0.71438 0.71438 0 0 1 0.29297 -0.074219zm0.027344 1.5137l-2.6895 1.3438 2.6895 1.3438 2.6895-1.3438-2.6895-1.3438zm-3.5723 2.498v2.6895l2.8574 1.4277v-2.6875l-2.8574-1.4297zm7.1445 0l-2.8574 1.4297v2.6875l2.8574-1.4277v-2.6895z" fill="#eac968"/>
</g>
</svg>
