<svg width="16" height="12" version="1.1" viewBox="0 0 16 12" xmlns="http://www.w3.org/2000/svg">
<g transform="translate(0 -1040.4)">
<path d="m3 1050.4a3 3 0 0 0 3 -3h-2a1 1 0 0 1 -1 1v2z" fill="#bd91f1"/>
<rect x="4" y="1044.4" width="2" height="3" fill="#bd91f1"/>
<rect x="11" y="1048.4" width="5" height="2" fill="#dcc5f8"/>
<rect x="1" y="1044.4" width="2" height="6" fill="#bd91f1"/>
<rect x="9" y="1044.4" width="1" height="2" fill="#bd91f1"/>
<path d="m9 1044.4a3 3 0 0 0 -3 3h2a1 1 0 0 1 1 -1v-2z" fill="#bd91f1"/>
<rect transform="scale(1,-1)" x="9" y="-1050.4" width="1" height="2" fill="#bd91f1"/>
<path d="m9 1050.4a3 3 0 0 1 -3 -3h2a1 1 0 0 0 1 1v2z" fill="#bd91f1"/>
<path d="m13 1050.4a2 2 0 0 1 -1.7321 -1 2 2 0 0 1 0 -2 2 2 0 0 1 1.7321 -1" fill="#dcc5f8"/>
<path d="m13 1042.4v2a1 1 0 0 1 1 1 1 1 0 0 1 -1 1v2a3 3 0 0 0 2.5977 -1.5 3 3 0 0 0 0 -3 3 3 0 0 0 -2.5977 -1.5z" fill="#dcc5f8"/>
<rect x="12" y="1042.4" width="1" height="2" fill="#dcc5f8"/>
</g>
</svg>
