<svg width="16" height="16" version="1.1" viewBox="0 0 16 16" xmlns="http://www.w3.org/2000/svg">
<g transform="translate(0 -1036.4)" fill="#4f4f4f">
<path transform="translate(0 1036.4)" d="m1 7v6h2v2h12v-8h-14zm5 1l5 3-5 3v-6z"/>
<path d="m0.71129 1040.4 0.28871 1.9791l2.2438-0.3273-0.81826-1.9018-1.7143 0.25zm3.6933-0.5387 0.81826 1.9018 1.9791-0.2887-0.81826-1.9018-1.9791 0.2887zm3.9581-0.5775 0.81826 1.9018 1.9791-0.2887-0.81826-1.9018-1.9791 0.2887zm3.9581-0.5774 0.81826 1.9018 1.7143-0.25-0.28871-1.9791-2.2438 0.3273z"/>
<circle cx="3" cy="1049.4" r="2"/>
<circle cx="13" cy="1049.4" r="2"/>
</g>
</svg>
