<svg width="16" height="16" version="1.1" viewBox="0 0 16 16" xmlns="http://www.w3.org/2000/svg">
<g transform="translate(0 -1036.4)">
<path transform="translate(0 1036.4)" d="m2 1a1.0001 1.0001 0 0 0 -1 1v12a1.0001 1.0001 0 0 0 1 1h4v-2h-3v-10h9v-2h-10zm9 3a4 4 0 0 0 -4 4 4 4 0 0 0 2 3.459v0.54102c0 0.55401 0.44599 1 1 1h2c0.55401 0 1-0.44599 1-1v-0.54102a4 4 0 0 0 2 -3.459 4 4 0 0 0 -4 -4zm0 2a2 2 0 0 1 2 2 2 2 0 0 1 -2 2 2 2 0 0 1 -2 -2 2 2 0 0 1 2 -2zm-1 8v1h2v-1h-2z" fill="#ff5f5f" fill-opacity=".99608"/>
</g>
</svg>
