<svg width="16" height="12" version="1.1" viewBox="0 0 16 12" xmlns="http://www.w3.org/2000/svg">
<g transform="translate(0 -1040.4)">
<path d="m3.0004 1050.4a3 3 0 0 0 3 -3h-2a1 1 0 0 1 -1 1v2z" fill="#e286f0"/>
<rect x="4.0004" y="1044.4" width="2" height="3" fill="#e286f0"/>
<rect x="1.0004" y="1044.4" width="2" height="6" fill="#e286f0"/>
<rect x="9.0004" y="1044.4" width="1" height="2" fill="#e286f0"/>
<path d="m9.0004 1044.4a3 3 0 0 0 -3 3h2a1 1 0 0 1 1 -1v-2z" fill="#e286f0"/>
<rect transform="scale(1,-1)" x="9.0004" y="-1050.4" width="1" height="2" fill="#e286f0"/>
<path d="m9.0004 1050.4a3 3 0 0 1 -3 -3h2a1 1 0 0 0 1 1v2z" fill="#e286f0"/>
<path transform="translate(0 1040.4)" d="m13 2v1a1 1 0 0 1 1 1 1 1 0 0 1 -1 1v2a3 3 0 0 0 2.5977 -1.5 3 3 0 0 0 0 -3 3 3 0 0 0 -0.36328 -0.5h-2.2344z" fill="#eeb9f6"/>
<rect x="12" y="1042.4" width="3.9996" height="2" fill="#eeb9f6"/>
<path d="m13 1045.4v2a1 1 0 0 1 1 1 1 1 0 0 1 -1 1v2a3 3 0 0 0 2.5977 -1.5 3 3 0 0 0 0 -3 3 3 0 0 0 -2.5977 -1.5z" fill="#eeb9f6"/>
<rect x="12" y="1049.4" width="1" height="2" fill="#eeb9f6"/>
</g>
</svg>
