<svg width="16" height="16" version="1.1" viewBox="0 0 16 16" xmlns="http://www.w3.org/2000/svg">
<g transform="translate(0 -1036.4)" fill="#4f4f4f" fill-opacity=".99608">
<path transform="translate(0 1036.4)" d="m9 2a6 6 0 0 0 -6 6h2a4 4 0 0 1 4 -4 4 4 0 0 1 4 4 4 4 0 0 1 -4 4v2a6 6 0 0 0 6 -6 6 6 0 0 0 -6 -6z"/>
<path transform="matrix(0 -1.1926 1.5492 0 -1617 1049.3)" d="m4.118 1048.3-1.6771-0.9683-1.6771-0.9682 1.6771-0.9683 1.6771-0.9682-1e-7 1.9365z"/>
<rect x="8" y="1041.4" width="2" height="4"/>
<rect x="8" y="1043.4" width="4" height="2"/>
</g>
</svg>
