<svg width="16" height="16" version="1.1" viewBox="0 0 16 16" xmlns="http://www.w3.org/2000/svg">
<g transform="translate(0 -1036.4)">
<path transform="translate(0 1036.4)" d="m7.9863 3.002a1 1 0 0 0 -0.69336 0.29102l-4 4a1.0001 1.0001 0 0 0 0 1.4141l4 4a1 1 0 0 0 1.4141 0 1 1 0 0 0 0 -1.4141l-2.293-2.293h4.5859a1 1 0 0 0 1 -1 1 1 0 0 0 -1 -1h-4.5859l2.293-2.293a1 1 0 0 0 0 -1.4141 1 1 0 0 0 -0.7207 -0.29102z" color="#000000" color-rendering="auto" dominant-baseline="auto" fill="#4f4f4f" fill-opacity=".99608" image-rendering="auto" shape-rendering="auto" solid-color="#000000" style="filter-blend-mode:normal;filter-gaussianBlur-deviation:0;font-feature-settings:normal;font-variant-alternates:normal;font-variant-caps:normal;font-variant-east-asian:normal;font-variant-ligatures:normal;font-variant-numeric:normal;font-variant-position:normal;isolation:auto;mix-blend-mode:normal;shape-padding:0;text-decoration-color:#000000;text-decoration-line:none;text-decoration-style:solid;text-indent:0;text-orientation:mixed;text-transform:none;white-space:normal"/>
</g>
</svg>
