<svg width="16" height="16" version="1.1" viewBox="0 0 16 16" xmlns="http://www.w3.org/2000/svg">
<g transform="translate(0 -1036.4)">
<path d="m6 1050.4a1.0001 1.0001 0 1 1 -2 0v-2.1308a4 4 0 0 0 1 0.1308 4 4 0 0 0 1 -0.1328zm0-9.8691a4 4 0 0 0 -1 -0.1309 4 4 0 0 0 -1 0.1329v-2.1329a1.0001 1.0001 0 1 1 2 0z" color="#000000" color-rendering="auto" dominant-baseline="auto" fill="#29d739" image-rendering="auto" shape-rendering="auto" solid-color="#000000" style="font-feature-settings:normal;font-variant-alternates:normal;font-variant-caps:normal;font-variant-ligatures:normal;font-variant-numeric:normal;font-variant-position:normal;isolation:auto;mix-blend-mode:normal;shape-padding:0;text-decoration-color:#000000;text-decoration-line:none;text-decoration-style:solid;text-indent:0;text-orientation:mixed;text-transform:none;white-space:normal"/>
<circle transform="matrix(0,-1,-1,0,0,0)" cx="-1039.4" cy="-5" r="2" fill="#29d739"/>
<path d="m12 1038.4h-2" fill="none" stroke="#29d739" stroke-linecap="round" stroke-width="2"/>
<path d="m11 1044.4v0" fill="none" stroke="#29d739" stroke-linecap="round" stroke-width="2"/>
<path d="m12 1050.4h-2" fill="none" stroke="#29d739" stroke-linecap="round" stroke-width="2"/>
<path d="m6 1049.4h-2v-6.1308a4 4 0 0 0 1 0.1308 4 4 0 0 0 1 -0.1328z" fill="#29d739"/>
</g>
</svg>
