<svg width="16" height="16" version="1.1" viewBox="0 0 16 16" xmlns="http://www.w3.org/2000/svg">
<g transform="translate(0 -1036.4)" fill="#4f4f4f">
<path transform="translate(0 1036.4)" d="m1 1v14h8.2578l-0.82227-2h-5.4355v-2h4.6113l-0.82227-2h-3.7891v-2h3.8867a1.5002 1.5002 0 0 1 1.0977 -0.49805v-0.0019531a1.5002 1.5002 0 0 1 0.58594 0.11133l0.94531 0.38867h0.48438v0.19922l2 0.82227v-7.0215h-11zm2 2h7v2h-7v-2zm7.7559 7.7559l0.52344 1.2734a1.5002 1.5002 0 0 1 0.48047 -0.26953 1.5002 1.5002 0 0 1 0.24023 -0.43945v-0.050781l-1.2441-0.51367z" fill-opacity=".99608"/>
<path d="m16 1047.7-8-3.291 3.291 8 0.9471-2.8201 1.8836 1.8835 0.9418-0.9418-1.8836-1.8835z"/>
</g>
</svg>
