<svg width="16" height="16" version="1.1" viewBox="0 0 16 16" xmlns="http://www.w3.org/2000/svg" xmlns:xlink="http://www.w3.org/1999/xlink">
<defs>
<linearGradient id="a" x1="9" x2="9" y1="1037.4" y2="1051.4" gradientTransform="translate(0 -1036.4)" gradientUnits="userSpaceOnUse">
<stop stop-color="#ff4040" offset="0"/>
<stop stop-color="#d6cf4b" offset=".5"/>
<stop stop-color="#00f010" offset="1"/>
</linearGradient>
</defs>
<g transform="translate(0 -1036.4)">
<path transform="translate(0 1036.4)" d="m15 1-14 7h14zm-13 9v1h2v-1zm2 1v1h-2v-1h-1v4h1v-2h2v2h1v-4zm2-1v5h1v-4h1v4h1v-4h1v-1zm4 1v4h1v-4zm2-1v5h1v-2h2v-3zm1 1h1v1h-1z" fill="url(#a)"/>
</g>
</svg>
