<svg width="128" height="128" version="1.1" viewBox="0 0 128 128" xmlns="http://www.w3.org/2000/svg">
<g transform="translate(0 -924.36)">
<path transform="translate(0 924.36)" d="m63.883 12.004a4.0004 4.0004 0 0 0 -2.7109 1.168l-30.828 30.83h-14.344a4.0004 4.0004 0 0 0 -4 4v32a4.0004 4.0004 0 0 0 4 4h14.344l30.828 30.828a4.0004 4.0004 0 0 0 6.8281 -2.8281v-96.002a4.0004 4.0004 0 0 0 -4.1172 -3.9961zm46.117 5.9961a6 6 0 0 0 -6 6v80a6 6 0 0 0 6 6 6 6 0 0 0 6 -6v-80a6 6 0 0 0 -6 -6zm-24 24a6 6 0 0 0 -6 6v32h0.34961a6 6 0 0 0 5.6504 4 6 6 0 0 0 5.6484 -4h0.35156v-32a6 6 0 0 0 -6 -6z" color="#000000" color-rendering="auto" dominant-baseline="auto" fill="#f7f5cf" fill-rule="evenodd" image-rendering="auto" shape-rendering="auto" solid-color="#000000" style="font-feature-settings:normal;font-variant-alternates:normal;font-variant-caps:normal;font-variant-east-asian:normal;font-variant-ligatures:normal;font-variant-numeric:normal;font-variant-position:normal;isolation:auto;mix-blend-mode:normal;shape-padding:0;text-decoration-color:#000000;text-decoration-line:none;text-decoration-style:solid;text-indent:0;text-orientation:mixed;text-transform:none;white-space:normal"/>
</g>
</svg>
