<svg width="64" height="32" version="1.1" viewBox="0 0 64 31.999998" xmlns="http://www.w3.org/2000/svg">
<g transform="translate(0 -1020.4)">
<path transform="translate(0 1020.4)" d="m24 4.002c-6.6307 0-12 5.3654-12 11.996 0 6.6307 5.3693 12 12 12h16c6.6307 0 12-5.3693 12-12 0-6.6307-5.3693-11.996-12-11.996h-16zm17 6.9961a1 1 0 0 1 1 1v8a1.0001 1.0001 0 0 1 -1.752 0.66211l-5.248-6v5.3379a1 1 0 0 1 -1 1 1 1 0 0 1 -1 -1v-8a1.0001 1.0001 0 0 1 1.752 -0.6582l5.248 6v-5.3418a1 1 0 0 1 1 -1zm-15 0.003906c2.7496 0 5 2.2504 5 5s-2.2504 5-5 5-5-2.2504-5-5 2.2504-5 5-5zm0 2c-1.6687 0-3 1.3313-3 3s1.3313 3 3 3 3-1.3313 3-3-1.3313-3-3-3z" color="#000000" color-rendering="auto" dominant-baseline="auto" fill="#4f4f4f" fill-opacity=".78431" image-rendering="auto" shape-rendering="auto" solid-color="#000000" style="font-feature-settings:normal;font-variant-alternates:normal;font-variant-caps:normal;font-variant-east-asian:normal;font-variant-ligatures:normal;font-variant-numeric:normal;font-variant-position:normal;isolation:auto;mix-blend-mode:normal;shape-padding:0;text-decoration-color:#000000;text-decoration-line:none;text-decoration-style:solid;text-indent:0;text-orientation:mixed;text-transform:none;white-space:normal"/>
</g>
</svg>
