<svg width="16" height="16" version="1.1" viewBox="0 0 16 16" xmlns="http://www.w3.org/2000/svg">
<g transform="translate(0 -1036.4)">
<path transform="translate(0 1036.4)" d="m2 1c-0.55226 1e-4 -0.99994 0.4477-1 1v1h2v-2h-1zm3 0v2h2v-2h-2zm4 0v2h2v-2h-2zm4 0v2h2v-1c-5.5e-5 -0.5523-0.44774-0.9999-1-1h-1z" fill="#ff2929"/>
<path transform="translate(0 1036.4)" d="m1 5v2h2v-2h-2zm12 0v0.23242c0.31584 0.1783 0.57817 0.43795 0.75977 0.75195 0.19142 0.33153 0.43699 0.67036 0.69922 1.0156h0.54102v-2h-2z" fill="#74ff34"/>
<path transform="translate(0 1036.4)" d="m12 7c-0.43047 0.7456-0.94451 1.3867-1.4355 2h2.8711c-0.49104-0.6133-1.0051-1.2544-1.4355-2zm2.459 0c0.17438 0.2296 0.352 0.46082 0.54102 0.69922v-0.69922h-0.54102z" fill="#2cff98"/>
<path transform="translate(0 1036.4)" d="m1 9v2h2v-2h-2zm9.5645 0c-0.55248 0.69003-1.0583 1.3421-1.334 2h5.5391c-0.2757-0.65786-0.78151-1.31-1.334-2h-2.8711z" fill="#22ccff"/>
<path transform="translate(0 1036.4)" d="m1 13v1c5.52e-5 0.5523 0.44774 0.9999 1 1h1v-2h-2zm4 0v2h2v-2h-2zm4.1836 0c0.41312 1.1628 1.5119 2 2.8164 2s2.4033-0.83718 2.8164-2h-5.6328z" fill="#ff2781"/>
<path transform="translate(0 1036.4)" d="m9.2305 11c-0.13656 0.32585-0.23047 0.65576-0.23047 1 0 0.35235 0.07201 0.68593 0.18359 1h5.6328c0.11158-0.31407 0.18359-0.64765 0.18359-1 0-0.34424-0.093909-0.67415-0.23047-1h-5.5391z" fill="#702aff"/>
</g>
</svg>
