<svg width="16" height="16" version="1.1" viewBox="0 0 16 16" xmlns="http://www.w3.org/2000/svg">
<g transform="translate(0 -1036.4)">
<path transform="translate(0 1036.4)" d="m8 1v2h-2a5 5 0 0 0 -5 5 5 5 0 0 0 1.0039 2.9961l1.4355-1.4355a3 3 0 0 1 -0.43945 -1.5605 3 3 0 0 1 3 -3h2v2l2-1.5 2-1.5-2-1.5-2-1.5zm5.9961 4.0039l-1.4355 1.4355a3 3 0 0 1 0.43945 1.5605 3 3 0 0 1 -3 3h-2v-2l-2 1.5-2 1.5 2 1.5 2 1.5v-2h2a5 5 0 0 0 5 -5 5 5 0 0 0 -1.0039 -2.9961z" fill="#4f4f4f" fill-opacity=".99608"/>
</g>
</svg>
