<svg width="128" height="128" version="1.1" viewBox="0 0 128 128" xmlns="http://www.w3.org/2000/svg">
<g transform="translate(0 -924.36)">
<path transform="translate(0 924.36)" d="m12 8a4.0004 4.0004 0 0 0 -4 4v104a4.0004 4.0004 0 0 0 4 4h60v-8h-56v-96h96v8h8v-12a4.0004 4.0004 0 0 0 -4 -4h-104zm27.715 17.951c-1.2324 0.086154-2.3996 0.76492-3.0664 1.9199l-0.14844 0.25781c-1.0669 1.848-0.43784 4.1948 1.4102 5.2617l10.648 6.1484c1.848 1.0669 4.1948 0.43784 5.2617-1.4102l0.14844-0.25781c1.0669-1.848 0.43784-4.1948-1.4102-5.2617l-10.648-6.1484c-0.693-0.4001-1.4558-0.56146-2.1953-0.50977zm52.285 2.0488a32 32 0 0 0 -32 32 32 32 0 0 0 16 27.668v8.332c0 4.432 3.568 8 8 8h16c4.432 0 8-3.568 8-8v-8.3223a32 32 0 0 0 16 -27.678 32 32 0 0 0 -32 -32zm0 12a20 20 0 0 1 20 20 20 20 0 0 1 -20 20 20 20 0 0 1 -20 -20 20 20 0 0 1 20 -20zm-60.148 16c-2.1339 0-3.8516 1.7177-3.8516 3.8516v0.29688c0 2.1339 1.7177 3.8516 3.8516 3.8516h12.297c2.1339 0 3.8516-1.7177 3.8516-3.8516v-0.29688c0-2.1339-1.7177-3.8516-3.8516-3.8516h-12.297zm18.902 23.951c-0.73947-0.051693-1.5023 0.10966-2.1953 0.50977l-10.648 6.1484c-1.848 1.0669-2.4771 3.4137-1.4102 5.2617l0.14844 0.25781c1.0669 1.848 3.4137 2.4771 5.2617 1.4102l10.648-6.1484c1.848-1.0669 2.4771-3.4137 1.4102-5.2617l-0.14844-0.25781c-0.66684-1.155-1.834-1.8338-3.0664-1.9199zm33.246 32.049v8h16v-8h-16z" color="#000000" color-rendering="auto" dominant-baseline="auto" fill="#f7f5cf" image-rendering="auto" shape-rendering="auto" solid-color="#000000" style="filter-blend-mode:normal;filter-gaussianBlur-deviation:0;font-feature-settings:normal;font-variant-alternates:normal;font-variant-caps:normal;font-variant-east-asian:normal;font-variant-ligatures:normal;font-variant-numeric:normal;font-variant-position:normal;isolation:auto;mix-blend-mode:normal;shape-padding:0;text-decoration-color:#000000;text-decoration-line:none;text-decoration-style:solid;text-indent:0;text-orientation:mixed;text-transform:none;white-space:normal"/>
</g>
</svg>
