<svg width="16" height="16" version="1.1" viewBox="0 0 16 16" xmlns="http://www.w3.org/2000/svg">
<g transform="translate(0 -1036.4)">
<path transform="translate(0 1036.4)" d="m9 1v2h6v-2h-6zm-5.0156 0.0019531a1.0001 1.0001 0 0 0 -0.69141 0.29102l-2 2a1 1 0 0 0 0 1.4141 1 1 0 0 0 1.4141 0l0.29297-0.29297v7.1719l-0.29297-0.29297a1 1 0 0 0 -0.7207 -0.29102 1 1 0 0 0 -0.69336 0.29102 1 1 0 0 0 0 1.4141l2 2a1.0001 1.0001 0 0 0 1.4141 0l2-2a1 1 0 0 0 0 -1.4141 1 1 0 0 0 -1.4141 0l-0.29297 0.29297v-7.1719l0.29297 0.29297a1 1 0 0 0 1.4141 0 1 1 0 0 0 0 -1.4141l-2-2a1.0001 1.0001 0 0 0 -0.72266 -0.29102zm5.0156 5.998v2h4v-2h-4zm0 6v2h2v-2h-2z" color="#000000" color-rendering="auto" dominant-baseline="auto" fill="#4f4f4f" image-rendering="auto" shape-rendering="auto" solid-color="#000000" style="filter-blend-mode:normal;filter-gaussianBlur-deviation:0;font-feature-settings:normal;font-variant-alternates:normal;font-variant-caps:normal;font-variant-east-asian:normal;font-variant-ligatures:normal;font-variant-numeric:normal;font-variant-position:normal;isolation:auto;mix-blend-mode:normal;shape-padding:0;text-decoration-color:#000000;text-decoration-line:none;text-decoration-style:solid;text-indent:0;text-orientation:mixed;text-transform:none;white-space:normal"/>
</g>
</svg>
