<svg width="16" height="12" version="1.1" viewBox="0 0 16 12" xmlns="http://www.w3.org/2000/svg">
<g transform="translate(0 -1040.4)" fill="#69ec9a">
<rect x="1" y="1047.4" width="2" height="3"/>
<rect x="7" y="1042.4" width="2" height="1.9999"/>
<rect x="7" y="1046.4" width="2" height="4"/>
<rect x="4" y="1044.4" width="1" height="2"/>
<path d="m4 1044.4a3 3 0 0 0 -3 3h2a1 1 0 0 1 1 -1v-2z"/>
<path d="m13 1044.4a3 3 0 0 0 -3 3h2a1 1 0 0 1 1 -1v-2z"/>
<path d="m13 1050.4a3 3 0 0 1 -3 -3h2a1 1 0 0 0 1 1v2z"/>
<rect x="14" y="1042.4" width="2" height="8"/>
<rect x="13" y="1044.4" width="1" height="2"/>
<rect x="13" y="1048.4" width="1" height="2"/>
</g>
</svg>
