<svg width="16" height="16" version="1.1" viewBox="0 0 16 16" xmlns="http://www.w3.org/2000/svg">
<g transform="translate(0 -1036.4)">
<path transform="translate(0 1036.4)" d="m3 1a2 2 0 0 0 -2 2 2 2 0 0 0 1 1.7305v6.541a2 2 0 0 0 -1 1.7285 2 2 0 0 0 2 2 2 2 0 0 0 1.7305 -1h2.2695v-2h-2.2715a2 2 0 0 0 -0.72852 -0.73047v-5.8555l3 3v-0.41406a2.0002 2.0002 0 0 1 0.80859 -1.6055l-2.3945-2.3945h5.8574a2 2 0 0 0 0.72852 0.73047v1.2695a2.0002 2.0002 0 0 1 0.99805 0.27148 2.0002 2.0002 0 0 1 1.002 -0.27148v-1.2715a2 2 0 0 0 1 -1.7285 2 2 0 0 0 -2 -2 2 2 0 0 0 -1.7305 1h-6.541a2 2 0 0 0 -1.7285 -1zm6 7v1 5 1h5c0.55228 0 1-0.4477 1-1v-5c0-0.5523-0.44772-1-1-1v4l-1-1-1 1v-4h-3z" fill="#fea900"/>
</g>
</svg>
