<svg width="16" height="16" version="1.1" viewBox="0 0 16 16" xmlns="http://www.w3.org/2000/svg">
<g transform="translate(0 -1036.4)">
<path transform="translate(0 1036.4)" d="m3 1a1 1 0 0 0 -1 1v2a1 1 0 0 0 1 1h2v-1h-1-1v-2h8v2h-2v1h2a1 1 0 0 0 1 -1v-2a1 1 0 0 0 -1 -1h-8zm4 2a1 1 0 0 0 -1 1v7 0.033203l-2.4746-1.8086c-0.52015-0.3803-1.1948-0.4556-1.6504 0-0.45566 0.4556-0.45561 1.1948 0 1.6504l4.125 4.125h6c1.1046 0 2-0.8954 2-2v-5h-6v-4a1 1 0 0 0 -1 -1z" fill="#6d90ff" fill-opacity=".98824"/>
</g>
</svg>
