<svg width="16" height="16" version="1.1" viewBox="0 0 16 16" xmlns="http://www.w3.org/2000/svg">
<g transform="translate(0 -1036.4)">
<path transform="translate(0 1036.4)" d="m3 1a2 2 0 0 0 -2 2v6h1v-6a1 1 0 0 1 1 -1h6v-1h-6zm10.303 0c-0.4344 0-0.86973 0.16881-1.2012 0.50586l-6.8008 6.918 2.4004 2.4414 6.8008-6.918c0.66286-0.6742 0.66286-1.7672 0-2.4414-0.33144-0.33705-0.76482-0.50586-1.1992-0.50586zm0.69727 6v6a1 1 0 0 1 -1 1h-6v1h6a2 2 0 0 0 2 -2v-6h-1zm-9.8848 2.5781c-0.48501-0.048725-0.90521 0.12503-1.1953 0.45508-0.26373 0.3-0.41992 0.72958-0.41992 1.2383 0 1.6277-3.1385-0.17848-0.33789 2.6699 0.88382 0.899 2.6552 0.67038 3.5391-0.22852 0.88384-0.899 0.88382-2.357 0-3.2559-0.55011-0.55955-1.1009-0.83018-1.5859-0.87891z" fill="#4f4f4f" fill-opacity=".99608"/>
</g>
</svg>
