<svg width="16" height="16" version="1.1" viewBox="0 0 16 16" xmlns="http://www.w3.org/2000/svg">
<g transform="translate(0 -1036.4)">
<path transform="translate(0 1036.4)" d="m2 0v1 5 1h12v-1-6h-11-1zm1 1h10v5h-10v-5zm2.5 1a1.5 1.5 0 0 0 -1.5 1.5 1.5 1.5 0 0 0 1.5 1.5 1.5 1.5 0 0 0 1.5 -1.5 1.5 1.5 0 0 0 -1.5 -1.5zm5 0a1.5 1.5 0 0 0 -1.5 1.5 1.5 1.5 0 0 0 1.5 1.5 1.5 1.5 0 0 0 1.5 -1.5 1.5 1.5 0 0 0 -1.5 -1.5zm-0.5 7a2 2 0 0 0 -2 2v1h-6v1h6v1a2 2 0 0 0 2 2h2v-1h2v-1h-2v-3h2v-1h-2v-1h-2z" fill="#4f4f4f"/>
</g>
</svg>
