<svg width="128" height="128" version="1.1" viewBox="0 0 128 128" xmlns="http://www.w3.org/2000/svg">
<g transform="translate(0 -924.36)">
<path transform="translate(0 924.36)" d="m63.883 12.004c-1.0195 0.0295-1.9892 0.4473-2.7109 1.168l-30.828 30.83h-14.344c-2.209 2.21e-4 -3.9998 1.791-4 4v32c2.21e-4 2.209 1.791 3.9998 4 4h14.344l30.828 30.828c2.52 2.5182 6.8267 0.73442 6.8281-2.8281v-96.002c-0.0015-2.2541-1.8641-4.0619-4.1172-3.9961zm48.117 3.9961a4 4 0 0 0 -4 4v88a4 4 0 0 0 4 4 4 4 0 0 0 4 -4v-88a4 4 0 0 0 -4 -4zm-24 24a4 4 0 0 0 -4 4v40a4 4 0 0 0 4 4 4 4 0 0 0 4 -4v-40a4 4 0 0 0 -4 -4z" color="#000000" color-rendering="auto" dominant-baseline="auto" fill="#f7f5cf" fill-rule="evenodd" image-rendering="auto" shape-rendering="auto" solid-color="#000000" style="font-feature-settings:normal;font-variant-alternates:normal;font-variant-caps:normal;font-variant-east-asian:normal;font-variant-ligatures:normal;font-variant-numeric:normal;font-variant-position:normal;isolation:auto;mix-blend-mode:normal;shape-padding:0;text-decoration-color:#000000;text-decoration-line:none;text-decoration-style:solid;text-indent:0;text-orientation:mixed;text-transform:none;white-space:normal"/>
</g>
</svg>
