<svg width="16" height="16" version="1.1" viewBox="0 0 16 16" xmlns="http://www.w3.org/2000/svg">
<g transform="translate(0 -1036.4)">
<path transform="translate(0 1036.4)" d="m1 1v2h2v-2h-2zm3 0v2h2v-2h-2zm3 0v2h2v-2h-2zm3 0v2h2v-2h-2zm3 0v2h2v-2h-2zm-12 3v2h2v-2h-2zm3 0v2h2v-2h-2zm3 0v2h2v-2h-2zm3 0v2h2v-2h-2zm3 0v2h2v-2h-2zm-12 3v2h2v-2h-2zm3 0v2h2v-2h-2zm5 1v1 5 1h5c0.55228 0 1-0.44772 1-1v-5c0-0.55228-0.44772-1-1-1v4l-1-1-1 1v-4h-3zm-8 2v2h2v-2h-2zm3 0v2h2v-2h-2zm-3 3v2h2v-2h-2zm3 0v2h2v-2h-2z" fill="#4f4f4f"/>
</g>
</svg>
