<svg width="14" height="14" version="1.1" viewBox="0 0 14 14" xmlns="http://www.w3.org/2000/svg">
<g transform="translate(0 -1038.4)">
<path transform="translate(0 1038.4)" d="m2 0c-1.1046 0-2 0.8954-2 2v10c0 1.1046 0.89543 2 2 2h10c1.1046 0 2-0.8954 2-2v-10c0-1.1046-0.89543-2-2-2h-10zm-1 1h1 2v1h-2v10h2v1h-2-1v-1-10-1zm9 0h3v11 1h-3v-1h2v-10h-2v-1zm-0.029297 2a1.0001 1.0001 0 0 1 1.0293 1v7h-2v-4.5859l-1.293 1.293a1.0001 1.0001 0 0 1 -1.4141 0l-1.293-1.293v4.5859h-2v-7a1.0001 1.0001 0 0 1 0.98438 -0.99805 1.0001 1.0001 0 0 1 0.72266 0.29102l2.293 2.293 2.293-2.293a1.0001 1.0001 0 0 1 0.67773 -0.29297z" fill="#e3383d"/>
</g>
</svg>
