<svg width="16" height="16" version="1.1" viewBox="0 0 16 16" xmlns="http://www.w3.org/2000/svg">
<g transform="translate(0 -1036.4)">
<path transform="translate(0 1036.4)" d="m3 1a2 2 0 0 0 -2 2 2 2 0 0 0 1 1.7305v6.541a2 2 0 0 0 -1 1.7285 2 2 0 0 0 2 2 2 2 0 0 0 1.7305 -1h1.2695v-1-1h-1.2715a2 2 0 0 0 -0.72852 -0.73047v-5.8555l3.5859 3.5859h1.4141v-1-0.41406l-3.5859-3.5859h5.8574a2 2 0 0 0 0.72852 0.72656v1.2734h2v-1.2695a2 2 0 0 0 1 -1.7305 2 2 0 0 0 -2 -2 2 2 0 0 0 -1.7305 1h-6.541a2 2 0 0 0 -1.7285 -1zm8 7v1.5859 1.4141h-1.4141-1.5859v1 1h3v1 2h2v-1-2h2 1v-2h-2-1v-3h-1-1z" fill="#fea900"/>
</g>
</svg>
