<svg width="16" height="16" version="1.1" viewBox="0 0 16 16" xmlns="http://www.w3.org/2000/svg">
<g transform="translate(0 -1036.4)">
<path transform="translate(0 1036.4)" d="m7.9824 1.002a1.0001 1.0001 0 0 0 -0.81445 0.44336l-5.9727 8.9609-0.027344 0.039062a1 1 0 0 0 -0.0625 0.10742 1 1 0 0 0 0.44727 1.3418l6 3a1.0001 1.0001 0 0 0 0.89453 0l6-3a1 1 0 0 0 0.44726 -1.3418 1 1 0 0 0 -0.0625 -0.10742l-6-9a1.0001 1.0001 0 0 0 -0.84961 -0.44336zm-0.98242 4.3008v7.0801l-3.5391-1.7715 3.5391-5.3086zm2 0l3.5391 5.3086-3.5391 1.7715v-7.0801z" color="#000000" color-rendering="auto" dominant-baseline="auto" fill="#fea900" image-rendering="auto" shape-rendering="auto" solid-color="#000000" style="filter-blend-mode:normal;filter-gaussianBlur-deviation:0;font-feature-settings:normal;font-variant-alternates:normal;font-variant-caps:normal;font-variant-east-asian:normal;font-variant-ligatures:normal;font-variant-numeric:normal;font-variant-position:normal;isolation:auto;mix-blend-mode:normal;shape-padding:0;text-decoration-color:#000000;text-decoration-line:none;text-decoration-style:solid;text-indent:0;text-orientation:mixed;text-transform:none;white-space:normal"/>
</g>
</svg>
