<svg width="16" height="16" version="1.1" viewBox="0 0 16 16" xmlns="http://www.w3.org/2000/svg">
<g transform="translate(0 -1036.4)">
<path d="m14 1037.4c-3.1667 0-5.1045 0.854-6.082 2.3203-0.97757 1.4664-0.91797 3.1797-0.91797 4.6797s-0.059601 2.7867-0.58203 3.5703c-0.52243 0.7837-1.5846 1.4297-4.418 1.4297a1.0001 1.0001 0 1 0 0 2c3.1667 0 5.1045-0.8539 6.082-2.3203 0.97757-1.4663 0.91797-3.1797 0.91797-4.6797s0.059601-2.7866 0.58203-3.5703c0.52243-0.7836 1.5846-1.4297 4.418-1.4297a1.0001 1.0001 0 1 0 0 -2z" color="#000000" color-rendering="auto" fill="#4f4f4f" fill-rule="evenodd" image-rendering="auto" shape-rendering="auto" solid-color="#000000" style="block-progression:tb;isolation:auto;mix-blend-mode:normal;text-decoration-color:#000000;text-decoration-line:none;text-decoration-style:solid;text-indent:0;text-transform:none;white-space:normal"/>
</g>
</svg>
