<svg width="64" height="64" version="1.1" viewBox="0 0 64 64" xmlns="http://www.w3.org/2000/svg">
<g transform="translate(0 -988.36)">
<path transform="translate(0 988.36)" d="m8 0c-4.432 0-8 3.568-8 8v48c0 4.432 3.568 8 8 8h48c4.432 0 8-3.568 8-8v-48c0-4.432-3.568-8-8-8h-48zm0 2h48c3.324 0 6 2.676 6 6v48c0 3.324-2.676 6-6 6h-48c-3.324 0-6-2.676-6-6v-48c0-3.324 2.676-6 6-6zm-0.013672 5.002a1 1 0 0 0 -0.69336 0.29102 1 1 0 0 0 0 1.4141l8 8a1 1 0 0 0 1.4141 0 1 1 0 0 0 0 -1.4141l-8-8a1 1 0 0 0 -0.7207 -0.29102zm48 0a1 1 0 0 0 -0.69336 0.29102l-8 8a1 1 0 0 0 0 1.4141 1 1 0 0 0 1.4141 0l8-8a1 1 0 0 0 0 -1.4141 1 1 0 0 0 -0.7207 -0.29102zm-33.986 10.998a2.0002 2.0002 0 0 0 -0.37891 0.039062c-0.005702 0.001087-0.011894 8.19e-4 -0.017578 0.001954-0.01402 0.002798-0.027106 0.006677-0.041016 0.009765a2.0002 2.0002 0 0 0 -0.30859 0.095703c-0.024592 0.009869-0.048174 0.020446-0.072265 0.03125a2.0002 2.0002 0 0 0 -0.24609 0.13281c-0.021344 0.013452-0.043669 0.024834-0.064453 0.039062-0.008816 0.006036-0.016678 0.013359-0.025391 0.019532a2.0002 2.0002 0 0 0 -0.21484 0.17578c-0.0215 0.020231-0.04387 0.039386-0.064453 0.060547a2.0002 2.0002 0 0 0 -0.001953 0.001953 2.0002 2.0002 0 0 0 -0.18555 0.22461c-0.017788 0.024669-0.036063 0.048717-0.052734 0.074219a2.0002 2.0002 0 0 0 -0.14258 0.26562c-0.013621 0.029909-0.026892 0.059158-0.039063 0.089844a2.0002 2.0002 0 0 0 -0.09375 0.30078c-0.004203 0.018931-0.008053 0.037509-0.011719 0.056641a2.0002 2.0002 0 0 0 -0.039062 0.38086c0 3 1.9339 5.2454 3.7461 7.3164 1.5217 1.7392 2.8322 3.2888 3.75 4.6836-0.91778 1.3948-2.2283 2.9444-3.75 4.6836-1.8122 2.071-3.7461 4.3164-3.7461 7.3164a2.0002 2.0002 0 0 0 0.041016 0.4043 2.0002 2.0002 0 0 0 0.10547 0.3418c0.008774 0.021862 0.017831 0.042985 0.027344 0.064453a2.0002 2.0002 0 0 0 0.14648 0.27344c0.010017 0.015513 0.018867 0.031664 0.029297 0.046875l0.001953 0.001953a2.0002 2.0002 0 0 0 0.19336 0.23633c0.020231 0.0215 0.039386 0.04387 0.060547 0.064453a2.0002 2.0002 0 0 0 0.001953 0.001953 2.0002 2.0002 0 0 0 0.23438 0.19336c0.021387 0.01522 0.042447 0.030536 0.064453 0.044922a2.0002 2.0002 0 0 0 0.27734 0.15039c0.019743 0.008822 0.038513 0.019147 0.058594 0.027343a2.0002 2.0002 0 0 0 0.33789 0.10352c0.005331 0.001131 0.010278 0.002818 0.015625 0.003906a2.0002 2.0002 0 0 0 0.009766 0 2.0002 2.0002 0 0 0 0.39453 0.041016h20a2.0002 2.0002 0 0 0 0.4043 -0.041016 2.0002 2.0002 0 0 0 0.375 -0.11523 2.0002 2.0002 0 0 0 0.29297 -0.1582c0.018831-0.011984 0.038248-0.022566 0.05664-0.035156a2.0002 2.0002 0 0 0 0.021485 -0.015625 2.0002 2.0002 0 0 0 0.23633 -0.19531c0.013296-0.012808 0.028079-0.023939 0.041015-0.037109a2.0002 2.0002 0 0 0 0.20508 -0.25c0.012127-0.017168 0.025518-0.033217 0.03711-0.050782a2.0002 2.0002 0 0 0 0.15234 -0.28125c0.01106-0.024605 0.021165-0.049089 0.03125-0.074218a2.0002 2.0002 0 0 0 0.097656 -0.31445c0.003563-0.016291 0.0066-0.03239 0.009766-0.048829a2.0002 2.0002 0 0 0 0.039062 -0.38281c0-3-1.9339-5.2454-3.7461-7.3164-1.5217-1.7392-2.8322-3.2888-3.75-4.6836 0.91778-1.3948 2.2283-2.9444 3.75-4.6836 1.8122-2.071 3.7461-4.3164 3.7461-7.3164a2.0002 2.0002 0 0 0 -0.041016 -0.4043v-0.001953a2.0002 2.0002 0 0 0 -0.10156 -0.32617c-0.011965-0.03044-0.023719-0.060163-0.03711-0.089844a2.0002 2.0002 0 0 0 -0.13476 -0.25c-0.011984-0.018831-0.022566-0.038248-0.035156-0.05664a2.0002 2.0002 0 0 0 -0.023438 -0.03125 2.0002 2.0002 0 0 0 -0.1582 -0.19336c-0.025026-0.027154-0.049686-0.054353-0.076172-0.080078a2.0002 2.0002 0 0 0 -0.027344 -0.02539 2.0002 2.0002 0 0 0 -0.18945 -0.1543c-0.031037-0.022641-0.061384-0.04555-0.09375-0.066407l-0.001953-0.001953a2.0002 2.0002 0 0 0 -0.24219 -0.13086c-0.031326-0.014467-0.061564-0.030098-0.09375-0.042969a2.0002 2.0002 0 0 0 -0.29883 -0.091797c-0.021554-0.004877-0.042636-0.009492-0.064453-0.013672a2.0002 2.0002 0 0 0 -0.38086 -0.039062h-20zm3.1758 4h13.648c-0.4756 0.8814-0.611 1.5782-1.5781 2.6836-1.6878 1.929-3.7966 3.9449-5.0352 6.4219a2.0002 2.0002 0 0 0 -0.20898 0.89453h-0.003906a2.0002 2.0002 0 0 0 -0.20898 -0.89453c-1.2385-2.477-3.3473-4.4929-5.0352-6.4219-0.96713-1.1054-1.1025-1.8022-1.5781-2.6836zm-9.1895 25.002a1 1 0 0 0 -0.69336 0.29102l-8 8a1 1 0 0 0 0 1.4141 1 1 0 0 0 1.4141 0l8-8a1 1 0 0 0 0 -1.4141 1 1 0 0 0 -0.7207 -0.29102zm32 0a1 1 0 0 0 -0.69336 0.29102 1 1 0 0 0 0 1.4141l8 8a1 1 0 0 0 1.4141 0 1 1 0 0 0 0 -1.4141l-8-8a1 1 0 0 0 -0.7207 -0.29102z" fill="#4f4f4f" stroke-linecap="round" stroke-linejoin="round" stroke-width="2"/>
</g>
</svg>
