<svg width="16" height="12" version="1.1" viewBox="0 0 16 12" xmlns="http://www.w3.org/2000/svg">
<g transform="translate(0 -1040.4)">
<rect y="1050.4" width="4" height="2" fill="#4f4f4f"/>
<rect y="1040.4" width="2" height="12" fill="#4f4f4f"/>
<rect y="1040.4" width="4" height="2" fill="#4f4f4f"/>
<rect transform="scale(-1,1)" x="-16" y="1050.4" width="4" height="2" fill="#4f4f4f"/>
<rect transform="scale(-1,1)" x="-16" y="1040.4" width="2" height="12" fill="#4f4f4f"/>
<rect transform="scale(-1,1)" x="-16" y="1040.4" width="4" height="2" fill="#4f4f4f"/>
<path transform="translate(0 1040.4)" d="m6 3.5a3 3 0 0 0 -3 3 3 3 0 0 0 3 3h1v-2h-1a1 1 0 0 1 -1 -1 1 1 0 0 1 1 -1h1v-2h-1z" fill="#ff2929"/>
<rect x="10" y="1046.9" width="2" height="3" fill="#70bfff"/>
<path d="m13 1043.9a3 3 0 0 0 -3 3h2a1 1 0 0 1 1 -1v-2z" fill="#70bfff"/>
<path transform="translate(0 1040.4)" d="m7 1.5v5a3 3 0 0 0 3 3v-2a1 1 0 0 1 -1 -1v-5h-2z" fill="#7aff70"/>
</g>
</svg>
