<svg width="16" height="16" version="1.1" viewBox="0 0 16 16" xmlns="http://www.w3.org/2000/svg">
<g transform="translate(0 -1036.4)">
<path transform="translate(0 1036.4)" d="m3 1c-1.1046 0-2 0.8954-2 2v1h14v-1c0-1.1046-0.89543-2-2-2h-10zm9 1h1v1h-1v-1zm-11 3v8c0 1.1046 0.89543 2 2 2h10c1.1046 0 2-0.8954 2-2v-8h-14zm6.9863 1.002c0.34689-0.0022844 0.6986 0.055762 1.0391 0.17969 1.3618 0.4956 2.1813 1.9126 1.9297 3.3398-0.19105 1.0835-0.96172 1.9461-1.9551 2.3008v0.17773h-1-1v-0.8418a1.0001 1.0001 0 0 1 1 -1.1582c0.49193 0 0.89895-0.34177 0.98438-0.82617 0.085424-0.4845-0.18031-0.94508-0.64258-1.1133-0.46227-0.1683-0.96106 0.013453-1.207 0.43945a1.0002 1.0002 0 0 1 -1.7324 -1c0.54346-0.94148 1.5433-1.4912 2.584-1.498zm-0.98633 6.998h2v1h-2v-1z" fill="#29d739"/>
</g>
</svg>
