<svg width="16" height="16" version="1.1" viewBox="0 0 16 16" xmlns="http://www.w3.org/2000/svg">
<g transform="translate(0 -1036.4)" fill="#4f4f4f">
<path transform="translate(0 1036.4)" d="m3.7578 2.3438l-1.4141 1.4141 2.9492 2.9492 1.4141-1.4141-2.9492-2.9492zm8.4844 0l-2.9492 2.9492 1.4141 1.4141 2.9492-2.9492-1.4141-1.4141zm-6.9492 6.9492l-2.9492 2.9492 1.4141 1.4141 2.9492-2.9492-1.4141-1.4141zm5.4141 0l-1.4141 1.4141 2.9492 2.9492 1.4141-1.4141-2.9492-2.9492z"/>
<path d="m1 1051.4v-5l5 5z" fill-rule="evenodd"/>
<path d="m15 1051.4v-5l-5 5z" fill-rule="evenodd"/>
<path d="m15 1037.4v5l-5-5z" fill-rule="evenodd"/>
<path d="m1 1037.4v5l5-5z" fill-rule="evenodd"/>
</g>
</svg>
