<svg width="16" height="16" version="1.1" viewBox="0 0 16 16" xmlns="http://www.w3.org/2000/svg">
<g transform="translate(0 -1036.4)" fill="#4f4f4f">
<path transform="translate(0 1036.4)" d="m7 1l-0.56445 2.2578a5 5 0 0 0 -0.68945 0.2793l-1.9883-1.1934-1.4141 1.4141 1.1953 1.9941a5 5 0 0 0 -0.28516 0.68555l-2.2539 0.5625v2l2.2578 0.56445a5 5 0 0 0 0.2793 0.6875l-1.1934 1.9902 1.4141 1.4141 1.2422-0.74414v-4.9121h1a2 2 0 0 1 2 -2v-1h4.9121l0.74414-1.2422-1.4141-1.4141-1.9941 1.1953a5 5 0 0 0 -0.68555 -0.28516l-0.5625-2.2539h-2z"/>
<path d="m10 1043.4v3h-3v2h3v3h2v-3h3v-2h-3v-3z"/>
</g>
</svg>
