<svg width="16" height="16" version="1.1" viewBox="0 0 16 16" xmlns="http://www.w3.org/2000/svg">
<g transform="translate(0 -1036.4)">
<path transform="translate(0 1036.4)" d="m3 1c-1.1046 0-2 0.89543-2 2v10c0 1.1046 0.89543 2 2 2h10c1.1046 0 2-0.89543 2-2v-10c0-1.1046-0.89543-2-2-2zm0 2h10v10h-10zm3 1c-0.5304 1e-4 -1.0391 0.21084-1.4141 0.58594-0.37509 0.375-0.58586 0.88366-0.58594 1.4141v4c8e-5 0.5304 0.21085 1.0391 0.58594 1.4141 0.37501 0.3751 0.88366 0.58584 1.4141 0.58594h4c1.1046 0 2-0.8954 2-2v-4c0-1.1046-0.89543-2-2-2zm0 1h4c0.55228 0 0.99999 0.4477 1 1v4c-1e-5 0.5523-0.44772 1-1 1h-4c-0.55228 0-0.99999-0.4477-1-1v-4c1e-5 -0.5523 0.44772-1 1-1z" fill="#29d739"/>
</g>
</svg>
