<svg width="16" height="16" version="1.1" viewBox="0 0 16 16" xmlns="http://www.w3.org/2000/svg">
<g transform="translate(0 -1036.4)">
<path transform="translate(0 1036.4)" d="m11 9v2h-2v2h2v2h2v-2h2v-2h-2v-2h-2z" fill="#00f010"/>
<path transform="translate(0 1036.4)" d="m11 1a4 4 0 0 0 -3.8691 3h-6.1309v2h1v2h3v-2h2.1328a4 4 0 0 0 2.8672 2.8691v-0.86914h3.6387a4 4 0 0 0 1.3613 -3 4 4 0 0 0 -4 -4zm0 2a2 2 0 0 1 2 2 2 2 0 0 1 -2 2 2 2 0 0 1 -2 -2 2 2 0 0 1 2 -2z" fill="#4f4f4f" fill-opacity=".99608"/>
</g>
</svg>
