<svg width="16" height="16" version="1.1" viewBox="0 0 16 16" xmlns="http://www.w3.org/2000/svg">
<g transform="translate(0 -1036.4)">
<path transform="translate(0 1036.4)" d="m2 3c-0.55228 0-1 0.44772-1 1v2c0 0.55228 0.44772 1 1 1s1-0.44772 1-1v-2c0-0.55228-0.44772-1-1-1zm12 0c-0.55228 0-1 0.44772-1 1v2c0 0.55228 0.44772 1 1 1s1-0.44772 1-1v-2c0-0.55228-0.44772-1-1-1zm-6 1c-0.55228 0-1 0.44772-1 1s0.44772 1 1 1 1-0.44772 1-1-0.44772-1-1-1zm5 5c-1.1046 0-2 0.89543-2 2 0 1.1046 0.89543 2 2 2 1.0099-3.37e-4 1.8611-0.75351 1.9844-1.7559 0.04003-0.16104 0.03936-0.32952-2e-3 -0.49024-0.12404-1.0008-0.97388-1.7527-1.9824-1.7539zm-11 1c-1.3523-0.019125-1.3523 2.0191 0 2h7.1309c-0.085635-0.32648-0.1296-0.66248-0.13086-1 0.00189-0.3376 0.046518-0.67361 0.13281-1z" color="#000000" color-rendering="auto" dominant-baseline="auto" fill="#29d739" image-rendering="auto" shape-rendering="auto" solid-color="#000000" style="font-feature-settings:normal;font-variant-alternates:normal;font-variant-caps:normal;font-variant-ligatures:normal;font-variant-numeric:normal;font-variant-position:normal;isolation:auto;mix-blend-mode:normal;shape-padding:0;text-decoration-color:#000000;text-decoration-line:none;text-decoration-style:solid;text-indent:0;text-orientation:mixed;text-transform:none;white-space:normal"/>
</g>
</svg>
