<svg width="16" height="12" version="1.1" viewBox="0 0 16 12" xmlns="http://www.w3.org/2000/svg">
<g transform="translate(0 -1040.4)">
<rect transform="scale(-1,1)" x="-2" y="1044.4" width="2" height="6" fill="#e3ec69"/>
<rect transform="scale(-1,1)" x="-2" y="1044.4" width="1" height="2" fill="#e3ec69"/>
<path d="m2 1044.4a3 3 0 0 1 3 3h-2a1 1 0 0 0 -1 -1z" fill="#e3ec69"/>
<path d="m2 1050.4a3 3 0 0 0 3 -3h-2a1 1 0 0 1 -1 1z" fill="#e3ec69"/>
<rect transform="scale(-1,1)" x="-2" y="1042.4" width="2" height="3.9999" fill="#e3ec69"/>
<rect transform="scale(-1,1)" x="-9" y="1044.4" width="2" height="2" fill="#e3ec69"/>
<path d="m7 1048.4a2 2 0 0 1 -1.7321 -1 2 2 0 0 1 0 -2 2 2 0 0 1 1.7321 -1" fill="#e3ec69"/>
<path transform="scale(-1,1)" d="m-7 1050.4a2 2 0 0 1 -1.7321 -1 2 2 0 0 1 0 -2 2 2 0 0 1 1.7321 -1" fill="#e3ec69"/>
<rect transform="scale(-1,1)" x="-7" y="1048.4" width="2" height="2" fill="#e3ec69"/>
<rect x="10" y="1046.4" width="2" height="3.9999" fill="#eef39f"/>
<rect x="10" y="1042.4" width="2" height="2" fill="#eef39f"/>
<rect transform="scale(-1,1)" x="-16" y="1044.4" width="2" height="2" fill="#e3ec69"/>
<path d="m14 1048.4a2 2 0 0 1 -1.7321 -1 2 2 0 0 1 0 -2 2 2 0 0 1 1.7321 -1" fill="#e3ec69"/>
<path transform="scale(-1,1)" d="m-14 1050.4a2 2 0 0 1 -1.7321 -1 2 2 0 0 1 0 -2 2 2 0 0 1 1.7321 -1" fill="#e3ec69"/>
<rect transform="scale(-1,1)" x="-14" y="1048.4" width="2" height="2" fill="#e3ec69"/>
</g>
</svg>
