<svg width="16" height="16" version="1.1" viewBox="0 0 16 16" xmlns="http://www.w3.org/2000/svg">
<g transform="translate(0 -1036.4)">
<rect x="20" y="1042.4" width="1" height="1" fill="#fefeff"/>
<rect x="29" y="1042.4" width="1" height="1" fill="#fefeff"/>
<path transform="translate(0 1036.4)" d="m3 2c-0.5304 8.01e-5 -1.0391 0.21085-1.4141 0.58594-0.37509 0.37501-0.58586 0.88366-0.58594 1.4141v8c8.03e-5 0.5304 0.21085 1.0391 0.58594 1.4141 0.37501 0.37509 0.88366 0.58586 1.4141 0.58594h10c1.1046 0 2-0.89543 2-2v-8c0-1.1046-0.89543-2-2-2zm0 1h10c0.55228 9.6e-6 0.99999 0.44772 1 1v8c-1e-5 0.55228-0.44772 0.99999-1 1h-10c-0.55228-1e-5 -0.99999-0.44772-1-1v-8c9.6e-6 -0.55228 0.44772-0.99999 1-1z" fill="#6d90ff" fill-opacity=".98824"/>
<rect x="4" y="1042.4" width="2" height="2" fill="#6d90ff" fill-opacity=".98824"/>
<rect x="10" y="1042.4" width="2" height="2" fill="#6d90ff" fill-opacity=".98824"/>
<rect x="4" y="1045.4" width="8" height="1" fill="#6d90ff" fill-opacity=".98824"/>
</g>
</svg>
