<svg width="14" height="14" version="1.1" viewBox="0 0 14 14" xmlns="http://www.w3.org/2000/svg">
<g transform="translate(0 -1038.4)" fill="#e3383d">
<rect x="1" y="1039.4" width="1" height="12"/>
<rect x="1" y="1039.4" width="3" height="1"/>
<rect x="1" y="1050.4" width="3" height="1"/>
<rect x="10" y="1050.4" width="3" height="1"/>
<rect x="10" y="1039.4" width="3" height="1"/>
<rect x="12" y="1039.4" width="1" height="12"/>
<rect x="3" y="1041.4" width="2" height="2"/>
<rect x="6" y="1041.4" width="2" height="2"/>
<rect x="9" y="1041.4" width="2" height="2"/>
<rect x="3" y="1044.4" width="2" height="2"/>
<rect x="6" y="1044.4" width="2" height="2"/>
<rect x="9" y="1044.4" width="2" height="2"/>
<rect x="3" y="1047.4" width="2" height="2"/>
<rect x="6" y="1047.4" width="2" height="2"/>
<rect x="9" y="1047.4" width="2" height="2"/>
</g>
</svg>
