<svg width="16" height="16" version="1.1" viewBox="0 0 16 16" xmlns="http://www.w3.org/2000/svg">
<g transform="translate(0 -1036.4)">
<path transform="translate(0 1036.4)" d="m1 3c-0.55226 5.52e-5 -0.99994 0.44774-1 1v8c5.52e-5 0.55226 0.44774 0.99994 1 1h14c0.55226-5.5e-5 0.99994-0.44774 1-1v-8c-5.5e-5 -0.55226-0.44774-0.99994-1-1h-14zm2 2h2v2h2v2h-2v2h-2v-2h-2v-2h2v-2zm10.5 0a1.5 1.5 0 0 1 1.5 1.5 1.5 1.5 0 0 1 -1.5 1.5 1.5 1.5 0 0 1 -1.5 -1.5 1.5 1.5 0 0 1 1.5 -1.5zm-3 3a1.5 1.5 0 0 1 1.5 1.5 1.5 1.5 0 0 1 -1.5 1.5 1.5 1.5 0 0 1 -1.5 -1.5 1.5 1.5 0 0 1 1.5 -1.5z" color="#000000" color-rendering="auto" fill="#4f4f4f" fill-opacity=".99608" fill-rule="evenodd" image-rendering="auto" shape-rendering="auto" solid-color="#000000" style="block-progression:tb;isolation:auto;mix-blend-mode:normal;text-decoration-color:#000000;text-decoration-line:none;text-decoration-style:solid;text-indent:0;text-transform:none;white-space:normal"/>
</g>
</svg>
