<svg width="16" height="16" version="1.1" viewBox="0 0 16 16" xmlns="http://www.w3.org/2000/svg">
<g transform="translate(0 -1036.4)">
<path transform="translate(0 1036.4)" d="m8 1a4.5 5 0 0 0 -3.5938 2h7.1816a4.5 5 0 0 0 -3.5879 -2z" fill="#ff2929"/>
<path transform="translate(0 1036.4)" d="m4.4062 3a4.5 5 0 0 0 -0.81445 2h8.8105a4.5 5 0 0 0 -0.81445 -2h-7.1816z" fill="#ffe337"/>
<path transform="translate(0 1036.4)" d="m3.5918 5a4.5 5 0 0 0 -0.0058594 0.03125 3 3 0 0 0 -2.4121 1.9688h13.65a3 3 0 0 0 -2.4141 -1.9668 4.5 5 0 0 0 -0.007812 -0.033203h-8.8105z" fill="#74ff34"/>
<path transform="translate(0 1036.4)" d="m1.1738 7a3 3 0 0 0 -0.17383 1 3 3 0 0 0 0.17578 1h13.65a3 3 0 0 0 0.17383 -1 3 3 0 0 0 -0.17578 -1h-13.65z" fill="#2cff98"/>
<path transform="translate(0 1036.4)" d="m1.1758 9a3 3 0 0 0 2.8242 2h8a3 3 0 0 0 2.8262 -2h-13.65z" fill="#22ccff"/>
<path transform="translate(0 1036.4)" d="m3 13a1 1 0 0 0 1 1 1 1 0 0 0 1 -1h-2zm5 0a1 1 0 0 0 -1 1 1 1 0 0 0 1 1 1 1 0 0 0 1 -1 1 1 0 0 0 -1 -1zm3 0a1 1 0 0 0 1 1 1 1 0 0 0 1 -1h-2z" fill="#ff2781"/>
<path transform="translate(0 1036.4)" d="m4 12a1 1 0 0 0 -1 1h2a1 1 0 0 0 -1 -1zm8 0a1 1 0 0 0 -1 1h2a1 1 0 0 0 -1 -1z" fill="#702aff"/>
</g>
</svg>
