<svg width="128" height="128" version="1.1" viewBox="0 0 128 128" xmlns="http://www.w3.org/2000/svg">
<g transform="translate(0 -924.36)">
<path transform="translate(0 924.36)" d="m64 8c-2.216 0-4 1.784-4 4v16c0 2.216 1.784 4 4 4s4-1.784 4-4v-16c0-2.216-1.784-4-4-4zm-36.77 15.227c-1.0225 0-2.0447 0.39231-2.8281 1.1758-1.5669 1.5669-1.5669 4.0893 0 5.6562l11.312 11.314c1.5669 1.5669 4.0913 1.5669 5.6582 0s1.5669-4.0913 0-5.6582l-11.314-11.312c-0.78348-0.78348-1.8056-1.1758-2.8281-1.1758zm73.539 0c-1.0225 0-2.0446 0.39231-2.8281 1.1758l-11.314 11.312c-1.5669 1.5669-1.5669 4.0913 0 5.6582s4.0913 1.5669 5.6582 0l11.313-11.314c1.5669-1.5669 1.5669-4.0893 0-5.6562-0.78348-0.78348-1.8056-1.1758-2.8281-1.1758zm-36.77 20.773c-11.046 1e-5 -20 8.9543-20 20 7e-6 11.046 8.9543 20 20 20s20-8.9543 20-20c-8e-6 -11.046-8.9543-20-20-20zm-52 16c-2.216 0-4 1.784-4 4s1.784 4 4 4h16c2.216 0 4-1.784 4-4s-1.784-4-4-4h-16zm88 0c-2.216 0-4 1.784-4 4s1.784 4 4 4h16c2.216 0 4-1.784 4-4s-1.784-4-4-4h-16zm-61.455 25.453c-1.0225 0-2.0466 0.39035-2.8301 1.1738l-11.312 11.314c-1.5669 1.5669-1.5669 4.0893 0 5.6563 1.5669 1.5669 4.0893 1.5669 5.6562 0l11.314-11.313c1.5669-1.5669 1.5669-4.0913 0-5.6582-0.78347-0.78347-1.8056-1.1738-2.8281-1.1738zm50.91 0c-1.0225 0-2.0447 0.39035-2.8281 1.1738-1.5669 1.5669-1.5669 4.0913 0 5.6582l11.314 11.313c1.5669 1.5669 4.0893 1.5669 5.6563 0 1.5669-1.567 1.5669-4.0893 0-5.6563l-11.313-11.314c-0.78347-0.78347-1.8076-1.1738-2.8301-1.1738zm-25.455 10.547c-2.216 0-4 1.784-4 4v16c0 2.216 1.784 4 4 4s4-1.784 4-4v-16c0-2.216-1.784-4-4-4z" fill="#f7f5cf"/>
</g>
</svg>
