<svg width="16" height="16" version="1.1" viewBox="0 0 16 16" xmlns="http://www.w3.org/2000/svg">
<g transform="translate(0 -1036.4)">
<path transform="translate(0 1036.4)" d="m5.0293 1c-0.99969-0.010925-2.0096 0.31165-3.0293 1v7c2.0172-1.3529 4.0167-1.3136 6 0 1.9833-1.3136 3.9828-1.3529 6 0v-7c-1.0197-0.68835-2.0296-1.0109-3.0293-1-0.6613 0.007227-1.3175 0.1735-1.9707 0.46289v4.5371h-1v-4c-0.98156-0.64465-1.971-0.98908-2.9707-1zm-5.0293 9v6h2a3 3 0 0 0 3 -3 3 3 0 0 0 -3 -3h-2zm5 3a3 3 0 0 0 3 3 3 3 0 0 0 3 -3 3 3 0 0 0 -3 -3 3 3 0 0 0 -3 3zm6 0a3 3 0 0 0 3 3h1v-2h-1a1 1 0 0 1 -1 -1 1 1 0 0 1 1 -1h1v-2h-1a3 3 0 0 0 -3 3zm-9-1a1 1 0 0 1 1 1 1 1 0 0 1 -1 1v-2zm6 0a1 1 0 0 1 1 1 1 1 0 0 1 -1 1 1 1 0 0 1 -1 -1 1 1 0 0 1 1 -1z" fill="#4f4f4f" fill-opacity=".58824" stroke-linecap="round" stroke-linejoin="round" stroke-opacity=".32549" stroke-width="2"/>
</g>
</svg>
