<svg width="14" height="14" version="1.1" viewBox="0 0 14 14" xmlns="http://www.w3.org/2000/svg">
<g transform="translate(0 -1038.4)" fill="#cf68ea">
<rect x="3" y="1040.4" width="2" height="11"/>
<rect x="3" y="1039.4" width="4" height="2"/>
<path transform="translate(0 1038.4)" d="m7 1v2a2 2 0 0 1 2 2 2 2 0 0 1 -2 2v2a4 4 0 0 0 4 -4 4 4 0 0 0 -4 -4z"/>
<rect x="3" y="1045.4" width="4" height="2"/>
<rect transform="rotate(90)" x="1049.4" y="-12" width="2" height="2"/>
<path transform="translate(0 1038.4)" d="m8 7v2a2 2 0 0 1 2 2h2a4 4 0 0 0 -4 -4z"/>
<rect transform="rotate(90)" x="1045.4" y="-8" width="2" height="2"/>
</g>
</svg>
