<svg width="16" height="16" version="1.1" viewBox="0 0 16 16" xmlns="http://www.w3.org/2000/svg">
<g transform="translate(0 -1036.4)">
<path d="m7 1037.4v6h-6v8h8v-6h6v-8zm2 2h4v4h-4z" fill="#4f4f4f" fill-opacity=".39216"/>
<path transform="translate(0 1036.4)" d="m7 1v2c0 2.34e-5 0.446 0 1 0s1 2.34e-5 1 0v-2c0-2.341e-5 -0.446 0-1 0s-1-2.341e-5 -1 0zm6 0v2c0 2.34e-5 0.446 0 1 0s1 2.34e-5 1 0v-2c0-2.341e-5 -0.446 0-1 0s-1-2.341e-5 -1 0zm-12 6v2c0 2.34e-5 0.446 0 1 0s1 2.34e-5 1 0v-2c0-2.34e-5 -0.446 0-1 0s-1-2.34e-5 -1 0zm6 0v2c0 2.34e-5 0.446 0 1 0s1 2.34e-5 1 0v-2c0-2.34e-5 -0.446 0-1 0s-1-2.34e-5 -1 0zm6 0v2c0 2.34e-5 0.446 0 1 0s1 2.34e-5 1 0v-2c0-2.34e-5 -0.446 0-1 0s-1-2.34e-5 -1 0zm-12 6v2c0 2.3e-5 0.446 0 1 0s1 2.3e-5 1 0v-2c0-2.3e-5 -0.446 0-1 0s-1-2.3e-5 -1 0zm6 0v2c0 2.3e-5 0.446 0 1 0s1 2.3e-5 1 0v-2c0-2.3e-5 -0.446 0-1 0s-1-2.3e-5 -1 0z" fill="#000000"/>
</g>
</svg>
