<svg width="16" height="16" version="1.1" viewBox="0 0 16 16" xmlns="http://www.w3.org/2000/svg">
<g transform="translate(0 -1036.4)">
<path transform="translate(0 1036.4)" d="m13.051 0.97852a2 2 0 0 0 -1.4434 0.58594l-1.4141 1.4141-1.416-1.4141-1.4141 1.4141 1.4141 1.4141-7.0703 7.0723-0.35352 1.7676-0.35352 1.7676 1.7676-0.35352 1.7676-0.35352 7.0723-7.0703 1.4141 1.4141 1.4141-1.4141-1.4141-1.416 1.4141-1.4141a2 2 0 0 0 0 -2.8281 2 2 0 0 0 -1.3848 -0.58594zm-3.5664 4.1211l1.416 1.416-7.0723 7.0703-0.70703-0.70703-0.70703-0.70703 7.0703-7.0723z" fill="#4f4f4f" fill-opacity=".99608"/>
</g>
</svg>
