<svg width="128" height="128" version="1.1" viewBox="0 0 128 128" xmlns="http://www.w3.org/2000/svg">
<g transform="translate(0 -924.36)">
<path transform="translate(0 924.36)" d="m64 8a36 40 0 0 0 -35.311 32.256 24 24 0 0 0 -20.689 23.744 24 24 0 0 0 24 24h64a24 24 0 0 0 24 -24 24 24 0 0 0 -20.715 -23.746 36 40 0 0 0 -35.285 -32.254zm-32 88a8 8 0 0 0 -8 8 8 8 0 0 0 8 8 8 8 0 0 0 8 -8 8 8 0 0 0 -8 -8zm64 0a8 8 0 0 0 -8 8 8 8 0 0 0 8 8 8 8 0 0 0 8 -8 8 8 0 0 0 -8 -8zm-32 8a8 8 0 0 0 -8 8 8 8 0 0 0 8 8 8 8 0 0 0 8 -8 8 8 0 0 0 -8 -8z" fill="#f7f5cf"/>
</g>
</svg>
