<svg width="128" height="128" version="1.1" viewBox="0 0 128 128" xmlns="http://www.w3.org/2000/svg">
<g transform="translate(0 -924.36)">
<path d="m99.766 934.36a8.0008 8.0011 0 0 0 -1.9609 0.296l-56 16a8.0008 8.0011 0 0 0 -5.8047 7.6964v48.119a18 18.001 0 0 0 -2 -0.116 18 18.001 0 0 0 -18 18.001 18 18.001 0 0 0 18 18.001 18 18.001 0 0 0 17.875 -16.001h0.125v-2-59.963l40-11.43v37.517a18 18.001 0 0 0 -2 -0.124 18 18.001 0 0 0 -18 18.001 18 18.001 0 0 0 18 18 18 18.001 0 0 0 17.875 -16h0.125v-2-66.003a8.0008 8.0011 0 0 0 -8.2344 -7.9924z" color="#000000" color-rendering="auto" fill="#f7f5cf" fill-rule="evenodd" image-rendering="auto" shape-rendering="auto" solid-color="#000000" style="block-progression:tb;isolation:auto;mix-blend-mode:normal;text-decoration-color:#000000;text-decoration-line:none;text-decoration-style:solid;text-indent:0;text-transform:none;white-space:normal"/>
</g>
</svg>
