<svg width="16" height="16" version="1.1" viewBox="0 0 16 16" xmlns="http://www.w3.org/2000/svg">
<g transform="translate(0 -1036.4)">
<path transform="translate(0 1036.4)" d="m7.9629 1.002a1.0001 1.0001 0 0 0 -0.41016 0.10352l-3.7891 1.8945h8.4727l-3.7891-1.8945a1.0001 1.0001 0 0 0 -0.48438 -0.10352z" fill="#ff2929"/>
<path transform="translate(0 1036.4)" d="m3.7637 3l-2.2109 1.1055a1.0001 1.0001 0 0 0 -0.55273 0.89453h3.2363l3.7637-1.8809 3.7637 1.8809h3.2363a1.0001 1.0001 0 0 0 -0.55273 -0.89453l-2.2109-1.1055h-8.4727z" fill="#ffe337"/>
<path transform="translate(0 1036.4)" d="m1 5v2h2v-0.38086l0.76172 0.38086h8.4766l0.76172-0.38086v0.38086h2v-2h-3.2363l-3.7637 1.8828-3.7637-1.8828h-3.2363z" fill="#74ff34"/>
<path transform="translate(0 1036.4)" d="m1 7v2h2v-2h-2zm2.7617 0l3.2383 1.6191v0.38086h2v-0.38086l3.2383-1.6191h-8.4766zm9.2383 0v2h2v-2h-2z" fill="#2cff98"/>
<path transform="translate(0 1036.4)" d="m1 9v2h3.2344l-1.2344-0.61719v-1.3828h-2zm6 0v2h2v-2h-2zm6 0v1.3828l-1.2344 0.61719h3.2344v-2h-2z" fill="#22ccff"/>
<path transform="translate(0 1036.4)" d="m3.7637 13l3.7891 1.8945a1.0001 1.0001 0 0 0 0.48438 0.10547 1.0001 1.0001 0 0 0 0.41016 -0.10547l3.7891-1.8945h-8.4727z" fill="#ff2781"/>
<path transform="translate(0 1036.4)" d="m1 11a1.0001 1.0001 0 0 0 0.55273 0.89453l2.2109 1.1055h8.4727l2.2109-1.1055a1.0001 1.0001 0 0 0 0.55273 -0.89453h-3.2344l-2.7656 1.3828v-1.3828h-2v1.3828l-2.7656-1.3828h-3.2344z" fill="#702aff"/>
</g>
</svg>
