<svg width="16" height="16" version="1.1" viewBox="0 0 16 16" xmlns="http://www.w3.org/2000/svg">
<g transform="translate(0 -1036.4)">
<path transform="translate(0 1036.4)" d="m2 1c-0.55228 0-1 0.44772-1 1v9.1602c0.32185-0.10966 0.66-0.16382 1-0.16016 0.33117 0 0.66575-0.007902 1-0.013672v-7.9863h10v1.1348c0.29007-0.10393 0.59442-0.16256 0.90234-0.17383 0.37315-0.012796 0.74541 0.044169 1.0977 0.16797v-2.1289c0-0.55228-0.44772-1-1-1h-12zm7 4v1h-1v1h-2v1h-1v1h-1v1h2 2 0.39062c1.1119-0.56677 1.9678-1.4538 2.6094-3.4727v-0.52734h-1v-1h-1zm4.9668 0.98828a1.0001 1.0001 0 0 0 -0.92774 0.73828c-0.92743 3.246-2.6356 4.6825-4.6523 5.4668-2.0168 0.7843-4.3867 0.80664-6.3867 0.80664a1.0001 1.0001 0 1 0 0 2c2 0 4.6301 0.023994 7.1133-0.94141 2.4832-0.9657 4.7751-3.0292 5.8477-6.7832a1.0001 1.0001 0 0 0 -0.99414 -1.2871z" fill="#4f4f4f" fill-opacity=".99608"/>
</g>
</svg>
