<svg xmlns="http://www.w3.org/2000/svg" xmlns:xlink="http://www.w3.org/1999/xlink" width="1024" height="1024"><defs><linearGradient xlink:href="#a" id="d" x1="269.585" x2="488.27" y1="847.204" y2="393.079" gradientTransform="translate(-17.83 -14.01)scale(1.03628)" gradientUnits="userSpaceOnUse"/><linearGradient id="a"><stop offset=".045" stop-color="#7f24ce"/><stop offset="1" stop-color="#f87cfe"/></linearGradient><linearGradient xlink:href="#a" id="c" x1="496.519" x2="635.831" y1="813.477" y2="589.778" gradientTransform="translate(-17.83 -14.01)scale(1.03628)" gradientUnits="userSpaceOnUse"/><linearGradient xlink:href="#a" id="b" x1="635.831" x2="721.822" y1="589.778" y2="368.408" gradientTransform="translate(-17.83 -14.01)scale(1.03628)" gradientUnits="userSpaceOnUse"/></defs><path fill="url(#b)" d="M568.904 89.049c-34.755 24.138-66.55 61.123-77.751 100.567s-13.626 79.433 1.545 133.558c15.172 54.125 88.045 97.183 148.257 117.495 73.416 25.327 137.083 79.066 168.316 150.939 7.286 14.202 32.339 76.178 29.588 25.145 2.5-88.033-34.945-176.536-103.863-232.354-50.885-45.69-122.768-70.396-154.211-135.492-27.227-47.76-25.614-106.295-9.437-157.417l-1.219-1.22z" paint-order="stroke fill markers" style="mix-blend-mode:normal"/><path fill="url(#c)" d="M520.207 583.335c71.209-3.918 134.842 62.821 127.548 133.776-2.45 65.695-63.5 123.452-130.029 116.976-77.274 2.835-137.082-80.076-118.505-152.855 11.04-56.002 64.314-97.88 120.983-97.897z" paint-order="stroke fill markers" style="mix-blend-mode:normal"/><path fill="url(#d)" d="m 287.70937,62.722939 c 15.87565,21.463844 31.44481,41.239801 39.72563,67.501061 28.37,74.372 7.785,156.373 -29.135,223.804 -56.55,111.042 -111.432,233.484 -95.612,361.024 15.98,115.215 97.874,220.939 210.59,255.147 113.148,37.77 246.447,0.148 322.31,-92.186 52.051,-60.68 82.366,-144.75 68.103,-224.644 -21.702,-88.837 -90.927,-162.766 -178.483,-189.522 -53.05,-17.726 -113.022,-50.278 -150.9,-91.191 -4.784,29.001 -11.279,64.886 -21.369,98.097 -10.09,33.211 -27.328,82.2 -34.39,117.265 30.721,-32.206 68.885,-42.918 104.222,-42.65 88.706,0.676 166.692,79.298 163.19,167.706 -0.717,86.334 -79.409,163.003 -166.145,159.543 -86.404,0.39 -160.458,-76.089 -163.045,-161.413 -1.183,-64.752 25.134,-126.072 42.88,-187.41 34.358,-101.83 49.095,-185.241 48.522,-243.119 C 447.601,222.797 433.08684,165.03746 393.623,122.227 355.61791,80.998998 301.68537,62.451939 287.70937,62.722939" paint-order="stroke fill markers" style="mix-blend-mode:normal"/></svg>