<svg xmlns="http://www.w3.org/2000/svg" xmlns:xlink="http://www.w3.org/1999/xlink" width="1024" height="1024"><defs><linearGradient id="a" x1="180" x2="864" y1="132" y2="836" gradientUnits="userSpaceOnUse"><stop offset="0" stop-color="#ff1300"/><stop offset="1" stop-color="#ff6e01"/></linearGradient></defs><path fill="url(#a)" d="m382 57-23 72-74 32-79-15L97 316l19 33 388 135 385-135 20-34-111-169-78 15-76-32-23-72zM131 513l25 103 176 80 170-63 172 64 177-81 24-102-16-114-355 122-359-122zm97-28 168 61-4 18a91 91 0 0 1-171-63l7-16zm548 0 8 16a91 91 0 0 1-171 63l-4-18zM99 554l-42 42 63 225 203 83-11-175-192-89zm807 0-21 86-192 89-11 174 202-83 64-224zM503 669l-152 61 9 188 144 58 141-58 10-188z"/></svg>