<?xml version="1.0" encoding="UTF-8" ?>
<!DOCTYPE svg PUBLIC "-//W3C//DTD SVG 1.1//EN" "http://www.w3.org/Graphics/SVG/1.1/DTD/svg11.dtd">
<svg width="256pt" height="256pt" viewBox="0 0 256 256" version="1.1" xmlns="http://www.w3.org/2000/svg">
<g id="#ffffffff">
<path fill="#ffffff" opacity="1.00" d=" M 173.56 12.78 C 181.27 10.97 189.35 12.58 196.59 15.46 C 209.95 21.34 218.75 34.34 222.95 47.93 C 226.72 60.57 229.15 73.93 227.45 87.13 C 225.72 98.41 222.63 109.79 216.17 119.33 C 220.29 121.06 222.57 125.27 223.24 129.50 C 226.35 142.53 223.38 157.09 214.63 167.36 C 216.61 169.75 217.15 173.01 217.33 176.02 C 215.97 184.55 212.91 192.70 209.92 200.77 C 202.62 217.76 186.27 228.80 169.58 235.33 C 146.86 243.48 121.82 246.76 98.07 241.47 C 93.77 240.75 91.33 236.48 90.92 232.44 C 79.70 235.09 68.02 232.54 57.45 228.57 C 49.83 224.13 43.09 218.05 38.30 210.61 C 33.27 202.94 30.63 194.01 29.00 185.07 C 26.39 171.68 29.31 157.80 34.50 145.39 C 43.08 126.12 59.53 111.29 78.20 102.00 C 90.11 96.16 102.65 90.66 112.02 80.96 C 124.08 68.14 130.13 51.24 139.45 36.58 C 147.04 24.58 159.41 15.23 173.56 12.78 M 170.84 23.56 C 159.86 27.10 151.07 35.65 145.55 45.60 C 138.62 57.89 132.70 70.85 124.15 82.14 C 117.38 91.17 108.03 97.84 98.18 103.13 C 90.57 107.36 82.40 110.49 75.02 115.14 C 61.59 123.37 50.00 135.14 43.49 149.61 C 38.19 161.24 36.57 174.58 39.39 187.09 C 41.97 200.26 49.80 212.56 61.49 219.41 C 74.21 225.03 89.82 225.29 101.87 217.83 C 110.97 212.23 118.57 203.03 119.76 192.13 C 121.56 178.33 112.82 164.02 99.66 159.44 C 90.73 156.21 80.48 157.59 72.30 162.23 C 60.87 168.59 61.78 187.87 73.29 193.67 C 76.73 195.56 80.76 195.10 84.53 195.41 C 79.43 196.77 73.82 197.27 68.85 195.17 C 63.22 192.99 59.07 187.78 57.73 181.95 C 55.93 174.27 57.42 165.66 62.42 159.45 C 66.77 153.98 73.29 150.61 80.02 149.08 C 94.56 145.81 110.74 150.08 121.36 160.65 C 128.66 167.79 132.80 177.84 133.12 188.01 C 133.37 197.96 131.25 208.25 125.68 216.63 C 120.21 224.90 111.28 230.66 101.60 232.61 C 123.42 235.54 146.11 233.99 166.70 225.81 C 178.30 221.11 189.50 214.21 196.87 203.86 C 201.12 198.05 202.91 190.97 205.27 184.28 C 206.31 180.64 207.95 176.87 206.97 173.03 C 203.37 173.12 200.18 174.92 196.74 175.73 C 190.92 177.29 184.83 177.33 178.85 177.02 C 188.53 173.98 198.34 169.99 205.51 162.54 C 211.92 156.20 215.12 146.99 214.40 138.03 C 214.05 134.55 214.21 130.72 212.00 127.78 C 207.79 129.29 204.54 132.48 200.78 134.79 C 191.73 140.77 181.21 144.30 170.49 145.67 C 188.83 137.27 205.25 123.00 213.00 104.04 C 219.99 87.29 219.08 68.20 213.64 51.16 C 210.51 41.54 205.09 32.14 196.39 26.59 C 188.91 21.72 179.26 20.75 170.84 23.56 Z" />
</g>
<g id="#478cbfff">
<path fill="#478cbf" opacity="1.00" d=" M 170.84 23.56 C 179.26 20.75 188.91 21.72 196.39 26.59 C 205.09 32.14 210.51 41.54 213.64 51.16 C 219.08 68.20 219.99 87.29 213.00 104.04 C 205.25 123.00 188.83 137.27 170.49 145.67 C 181.21 144.30 191.73 140.77 200.78 134.79 C 204.54 132.48 207.79 129.29 212.00 127.78 C 214.21 130.72 214.05 134.55 214.40 138.03 C 215.12 146.99 211.92 156.20 205.51 162.54 C 198.34 169.99 188.53 173.98 178.85 177.02 C 184.83 177.33 190.92 177.29 196.74 175.73 C 200.18 174.92 203.37 173.12 206.97 173.03 C 207.95 176.87 206.31 180.64 205.27 184.28 C 202.91 190.97 201.12 198.05 196.87 203.86 C 189.50 214.21 178.30 221.11 166.70 225.81 C 146.11 233.99 123.42 235.54 101.60 232.61 C 111.28 230.66 120.21 224.90 125.68 216.63 C 131.25 208.25 133.37 197.96 133.12 188.01 C 132.80 177.84 128.66 167.79 121.36 160.65 C 110.74 150.08 94.56 145.81 80.02 149.08 C 73.29 150.61 66.77 153.98 62.42 159.45 C 57.42 165.66 55.93 174.27 57.73 181.95 C 59.07 187.78 63.22 192.99 68.85 195.17 C 73.82 197.27 79.43 196.77 84.53 195.41 C 80.76 195.10 76.73 195.56 73.29 193.67 C 61.78 187.87 60.87 168.59 72.30 162.23 C 80.48 157.59 90.73 156.21 99.66 159.44 C 112.82 164.02 121.56 178.33 119.76 192.13 C 118.57 203.03 110.97 212.23 101.87 217.83 C 89.82 225.29 74.21 225.03 61.49 219.41 C 49.80 212.56 41.97 200.26 39.39 187.09 C 36.57 174.58 38.19 161.24 43.49 149.61 C 50.00 135.14 61.59 123.37 75.02 115.14 C 82.40 110.49 90.57 107.36 98.18 103.13 C 108.03 97.84 117.38 91.17 124.15 82.14 C 132.70 70.85 138.62 57.89 145.55 45.60 C 151.07 35.65 159.86 27.10 170.84 23.56 Z" />
</g>
</svg>
