<svg xmlns="http://www.w3.org/2000/svg" xmlns:xlink="http://www.w3.org/1999/xlink" xml:space="preserve" width="1024" height="1024"><defs><linearGradient id="c"><stop offset=".045" stop-color="#7f24ce"/><stop offset=".468" stop-color="#b846e4"/><stop offset=".848" stop-color="#d055ee"/><stop offset="1" stop-color="#f87cfe"/></linearGradient><linearGradient id="b"><stop offset=".045" stop-color="#7f24ce"/><stop offset=".478" stop-color="#b846e4"/><stop offset=".848" stop-color="#d055ee"/><stop offset="1" stop-color="#f87cfe"/></linearGradient><linearGradient id="a"><stop offset=".045" stop-color="#7f24ce"/><stop offset=".468" stop-color="#b846e4"/><stop offset=".825" stop-color="#d055ee"/><stop offset="1" stop-color="#f87cfe"/></linearGradient><linearGradient xlink:href="#a" id="d" x1="496.519" x2="635.831" y1="813.477" y2="589.778" gradientUnits="userSpaceOnUse"/><linearGradient xlink:href="#b" id="e" x1="269.585" x2="488.27" y1="847.204" y2="393.079" gradientUnits="userSpaceOnUse"/><linearGradient xlink:href="#c" id="f" x1="635.831" x2="721.822" y1="589.778" y2="368.408" gradientUnits="userSpaceOnUse"/></defs><path fill="url(#d)" stroke="#fff" stroke-linecap="round" stroke-linejoin="round" stroke-width="64" d="m 519.20898,576.44141 c 68.71823,-3.7805 130.1242,60.62353 123.08401,129.09454 -2.36196,63.39731 -61.27542,119.13261 -125.47741,112.88247 -74.56951,2.73713 -132.28417,-77.27294 -114.35855,-147.50632 10.65348,-54.04296 62.063,-94.45612 116.75195,-94.47069 z" paint-order="markers stroke fill" style="mix-blend-mode:normal"/><path fill="url(#e)" stroke="#fff" stroke-linecap="round" stroke-linejoin="round" stroke-width="64" d="m 284.14844,45.798828 c 15.02069,30.867694 39.54083,58.938012 49.03522,93.388322 27.37876,71.77034 7.50967,150.90003 -28.11697,215.9732 -54.57025,107.15496 -107.53187,225.30981 -92.26498,348.38877 15.41932,111.18447 94.44847,213.20867 203.22132,246.21837 109.18835,36.4481 237.823,0.14226 311.02998,-88.95886 50.23041,-58.55896 79.48324,-139.68502 65.71875,-216.78515 C 771.83037,558.29723 705.02671,486.95533 620.53664,461.13594 569.34075,444.02983 518.8693,418.44996 485.11942,375.11723 c -8.39777,27.5652 -17.93636,61.91444 -27.95312,92.68164 -9.45271,33.31888 -23.5971,65.65247 -30.41209,99.49219 28.03347,-11.02443 60.92628,-30.05871 94.92968,-27.48832 85.58706,-1.65898 160.85777,76.5246 157.47888,161.838 -0.69033,83.31166 -76.63021,157.29822 -160.33106,153.95833 -83.38059,0.37712 -154.84429,-73.42559 -157.33892,-155.76485 -1.14287,-62.48323 24.25363,-121.65781 41.37966,-180.84981 33.15518,-98.26826 64.94397,-202.60322 52.12653,-307.42889 C 448.4733,138.40134 397.9891,67.478451 323.99332,51.528918 310.99021,48.178571 297.63623,45.537159 284.14844,45.798828 Z" paint-order="markers stroke fill" style="mix-blend-mode:normal"/><path fill="url(#f)" stroke="#fff" stroke-linecap="round" stroke-linejoin="round" stroke-width="64" d="m 566.20312,99.453125 c -33.53877,23.293175 -64.69436,56.848685 -75.03482,97.046355 7.11437,42.68241 2.13603,86.27552 1.49126,128.88415 18.25634,64.40778 84.96403,93.78091 143.07106,113.38242 70.84552,24.44391 132.28646,76.30173 162.42472,145.65924 7.0312,13.70233 31.20562,73.51246 28.55323,24.26473 C 829.11928,523.73693 792.98562,438.33389 726.48042,384.4674 677.37527,340.37703 608.00772,316.53438 577.66602,253.71875 551.39194,207.62873 552.94744,151.14254 568.55859,101.80859 l -1.17773,-1.17773 z" paint-order="markers stroke fill" style="mix-blend-mode:normal"/></svg>