<svg xmlns="http://www.w3.org/2000/svg" xmlns:xlink="http://www.w3.org/1999/xlink" width="1024" height="1024"><defs><linearGradient xlink:href="#a" id="d" x1="496.519" x2="635.831" y1="813.477" y2="589.778" gradientTransform="translate(-20.051 -14.043)scale(1.03664)" gradientUnits="userSpaceOnUse"/><linearGradient id="a"><stop offset=".045" stop-color="#7f24ce"/><stop offset=".468" stop-color="#b846e4"/><stop offset=".825" stop-color="#d055ee"/><stop offset="1" stop-color="#f87cfe"/></linearGradient><linearGradient xlink:href="#b" id="e" x1="269.585" x2="488.27" y1="847.204" y2="393.079" gradientTransform="translate(-20.051 -14.043)scale(1.03664)" gradientUnits="userSpaceOnUse"/><linearGradient id="b"><stop offset=".045" stop-color="#7f24ce"/><stop offset=".478" stop-color="#b846e4"/><stop offset=".848" stop-color="#d055ee"/><stop offset="1" stop-color="#f87cfe"/></linearGradient><linearGradient xlink:href="#c" id="f" x1="635.831" x2="721.822" y1="589.778" y2="368.408" gradientTransform="translate(-20.051 -14.043)scale(1.03664)" gradientUnits="userSpaceOnUse"/><linearGradient id="c"><stop offset=".045" stop-color="#7f24ce"/><stop offset=".468" stop-color="#b846e4"/><stop offset=".848" stop-color="#d055ee"/><stop offset="1" stop-color="#f87cfe"/></linearGradient></defs><path fill="url(#d)" d="m 518.18335,583.52088 c 71.23628,-3.91903 134.89236,62.84498 127.59419,133.82498 -2.4485,65.72039 -63.52074,123.49801 -130.0753,117.01885 -77.30198,2.83742 -137.13148,-80.10447 -118.549,-152.91143 11.04385,-56.02326 64.33718,-97.91729 121.03011,-97.9324 z" paint-order="markers stroke fill" style="mix-blend-mode:normal"/><path fill="url(#e)" d="m 274.50943,33.433858 c 15.57111,31.998785 40.98974,61.097684 50.83204,96.810372 28.382,74.40024 7.78485,156.42949 -29.14727,223.88715 -56.56988,111.08147 -111.47219,233.56588 -95.64586,361.15485 15.98433,115.25862 97.90936,221.02132 210.66799,255.2406 113.18937,37.78367 246.5376,0.14746 322.42711,-92.2186 C 785.71445,817.60348 816.0392,733.5047 801.77033,653.57938 780.06159,564.71184 710.81003,490.75575 623.22397,463.99026 570.1521,446.25732 517.83122,419.74012 482.84463,374.81955 c -8.70548,28.57527 -18.5936,64.18318 -28.97741,96.07779 -9.79908,34.53979 -24.46177,68.05818 -31.52648,103.1379 29.06071,-11.4284 63.15881,-31.16015 98.4082,-28.49558 88.72325,-1.71978 166.75211,79.32871 163.24942,167.76826 -0.71564,86.36446 -79.43819,163.06213 -166.20611,159.59985 C 431.35633,873.29871 357.27397,796.79164 354.68793,711.4352 353.50318,646.66239 379.83029,585.31946 397.58388,523.95848 431.95397,422.08936 464.90759,313.93124 451.62048,205.26441 444.85569,129.42962 392.52158,55.907892 315.81436,39.373917 302.33478,35.900803 288.49146,33.1626 274.50943,33.433858 Z" paint-order="markers stroke fill" style="mix-blend-mode:normal"/><path fill="url(#f)" d="m 566.8995,89.054215 c -34.76774,24.146725 -67.06497,58.931805 -77.78434,100.602455 7.37507,44.24643 2.21431,89.43693 1.54591,133.60688 18.92531,66.76789 88.07738,97.21734 148.31363,117.53711 73.44154,25.33962 137.13386,79.09767 168.37649,150.99666 7.28885,14.20442 32.34909,76.20619 29.59951,25.15387 C 839.44974,528.88514 801.99203,440.35267 733.04987,384.51234 682.14535,338.80635 610.23595,314.09003 578.78243,248.97264 551.54559,201.19374 553.15809,142.6377 569.34129,91.495987 l -1.22089,-1.220886 z" paint-order="markers stroke fill" style="mix-blend-mode:normal"/></svg>