<?xml version="1.0" encoding="UTF-8"?>
<svg version="1.1" xmlns="http://www.w3.org/2000/svg" width="256" height="256">
<path d="M0 0 C4.43504129 3.93794385 6.80128624 7.98289868 9.3125 13.3125 C10.529375 15.849375 11.74625 18.38625 13 21 C20.92 21 28.84 21 37 21 C40.12381819 14.8436825 40.12381819 14.8436825 43.22167969 8.67431641 C43.61774414 7.90780762 44.01380859 7.14129883 44.421875 6.3515625 C44.81987305 5.56604004 45.21787109 4.78051758 45.62792969 3.97119141 C47.26600772 1.61783874 48.2462761 0.80505801 51 0 C53.57788086 0.4597168 53.57788086 0.4597168 56.46484375 1.44921875 C57.51220703 1.80306641 58.55957031 2.15691406 59.63867188 2.52148438 C60.72728516 2.90626953 61.81589844 3.29105469 62.9375 3.6875 C64.56461914 4.23567383 64.56461914 4.23567383 66.22460938 4.79492188 C71.27242876 6.5292372 75.37411775 8.22447065 80 11 C79.67 18.59 79.34 26.18 79 34 C80.2065625 32.78183594 81.413125 31.56367187 82.65625 30.30859375 C84.27069708 28.68476035 85.88528809 27.06107005 87.5 25.4375 C88.29148438 24.63763672 89.08296875 23.83777344 89.8984375 23.01367188 C94.21218082 18.68224928 98.58595177 14.49861841 103.23608398 10.52905273 C105.06366057 8.94481576 106.81169565 7.29324108 108.5625 5.625 C111.91274037 2.78490987 114.51954145 1.91853712 119 2 C122.34676597 3.15849591 124.33496623 4.23026797 126.65058899 6.91044617 C128.71887066 11.64589556 128.39181327 16.19613531 128.34057617 21.30786133 C128.34101425 22.44975922 128.34145233 23.5916571 128.34190369 24.76815796 C128.33981496 28.53962344 128.31647907 32.31064349 128.29296875 36.08203125 C128.28737312 38.69805153 128.28310287 41.31407494 128.28010559 43.93009949 C128.27079057 50.11009591 128.24618427 56.28993264 128.21605712 62.46985883 C128.1824961 69.50730319 128.16602285 76.54475528 128.15097082 83.58225977 C128.11963414 98.05492213 128.06688428 112.52745883 128 127 C128.66386719 126.62746094 129.32773438 126.25492187 130.01171875 125.87109375 C130.89472656 125.39800781 131.77773437 124.92492187 132.6875 124.4375 C133.55761719 123.96183594 134.42773438 123.48617187 135.32421875 122.99609375 C138.42645189 121.84124784 139.89451745 121.94720438 143 123 C145 125 145 125 145.125 127.3125 C142.52994639 133.51179474 133.46819304 136.26590348 128 139 C127.67 149.89 127.34 160.78 127 172 C132.17348515 174.87552904 132.17348515 174.87552904 137.35107422 177.74365234 C137.9957666 178.10410645 138.64045898 178.46456055 139.3046875 178.8359375 C139.96452637 179.20251465 140.62436523 179.5690918 141.30419922 179.94677734 C143 181 143 181 145 183 C144.9375 185.5 144.9375 185.5 144 188 C141.9296875 189.3671875 141.9296875 189.3671875 139 190 C136.18778087 189.00333788 133.80550403 187.98786526 131.1875 186.625 C130.49462891 186.28210938 129.80175781 185.93921875 129.08789062 185.5859375 C127.3839475 184.73984161 125.69083226 183.87200154 124 183 C123.47792969 183.70125 122.95585937 184.4025 122.41796875 185.125 C105.36700356 207.10312676 78.09418679 214.86758573 51.5078125 218.3046875 C14.37985836 222.25060489 -30.63342948 220.45696988 -61.5625 197.0625 C-66.06517241 193.23027627 -69.62091457 188.83365863 -73 184 C-77.28763131 185.34345781 -81.31149037 186.61602347 -85.25 188.8125 C-88 190 -88 190 -90.8125 189.25 C-93 188 -93 188 -94 187 C-94.04063832 185.33382885 -94.042721 183.66611905 -94 182 C-89.9759137 179.6380363 -85.92184909 177.43152801 -81.7421875 175.35546875 C-80.85128418 174.91227295 -79.96038086 174.46907715 -79.04248047 174.01245117 C-78.36846191 173.67834229 -77.69444336 173.3442334 -77 173 C-75.00700251 154.07372334 -75.00700251 154.07372334 -79.61767578 136.50634766 C-83.82806651 132.80500635 -88.59555289 131.2064042 -94 130 C-93.67 127.69 -93.34 125.38 -93 123 C-89.7374449 121.88386273 -87.65356938 121.72344158 -84.45849609 123.07543945 C-83.57242676 123.54167725 -82.68635742 124.00791504 -81.7734375 124.48828125 C-80.87802246 124.95403564 -79.98260742 125.41979004 -79.06005859 125.8996582 C-78.38023926 126.262771 -77.70041992 126.62588379 -77 127 C-77.00368717 126.39646855 -77.00737434 125.79293711 -77.01117325 125.17111683 C-77.09953328 110.48187115 -77.16571396 95.79264119 -77.20724869 81.10319233 C-77.22786882 73.99944321 -77.25597862 66.89587154 -77.30175781 59.79223633 C-77.34590377 52.93876142 -77.36912796 46.08547114 -77.37950897 39.23186302 C-77.38690836 36.61513553 -77.40135732 33.99841829 -77.42292023 31.38176918 C-77.45189294 27.72084235 -77.4559584 24.06068096 -77.45410156 20.3996582 C-77.46848267 19.31424744 -77.48286377 18.22883667 -77.49768066 17.11053467 C-77.45724601 9.75887061 -77.45724601 9.75887061 -75.1161499 5.87345886 C-71.72053232 2.86726831 -69.32940609 2.07820036 -64.8125 1.8125 C-58.90607719 3.65220547 -55.29291846 7.69922146 -51 12 C-50.05133057 12.94625244 -50.05133057 12.94625244 -49.08349609 13.91162109 C-43.48298473 19.50421281 -43.48298473 19.50421281 -40.70922852 22.32641602 C-36.96196323 26.12463929 -33.15420955 29.65145533 -29 33 C-28.67 33.33 -28.34 33.66 -28 34 C-28.24556641 32.54400391 -28.24556641 32.54400391 -28.49609375 31.05859375 C-29.11628841 26.71723112 -29.11126417 22.44002229 -29.0625 18.0625 C-29.05798828 17.28326172 -29.05347656 16.50402344 -29.04882812 15.70117188 C-29.03716908 13.80074732 -29.01923877 11.90036294 -29 10 C-19.45882565 5.99110321 -10.02773382 2.62667912 0 0 Z " fill="#478CBF" transform="translate(103,19)"/>
<path d="M0 0 C11.34071842 0.57375002 22.6725097 1.20419724 34 2 C34.05534912 2.57032959 34.11069824 3.14065918 34.16772461 3.72827148 C34.41973743 6.29848753 34.67852728 8.86797631 34.9375 11.4375 C35.06801758 12.78424805 35.06801758 12.78424805 35.20117188 14.15820312 C35.33168945 15.43920898 35.33168945 15.43920898 35.46484375 16.74609375 C35.543396 17.53685303 35.62194824 18.3276123 35.70288086 19.14233398 C35.81551499 21.01103348 35.81551499 21.01103348 37 22 C39.62846654 22.39768761 42.23270252 22.72310852 44.875 23 C45.69331299 23.08685059 46.51162598 23.17370117 47.35473633 23.26318359 C59.20064807 24.4235017 71.10804301 24.66301688 83 25 C83.66 19.06 84.32 13.12 85 7 C96.22 7 107.44 7 119 7 C119.99 14.425 119.99 14.425 121 22 C121.99 23.485 121.99 23.485 123 25 C130.90436924 26.53802344 140.21391148 24.4989321 148.22583008 23.77319336 C150.58816351 23.56018597 152.9512037 23.35686111 155.31445312 23.15429688 C156.81515495 23.02140553 158.31580806 22.88796277 159.81640625 22.75390625 C160.52358292 22.6934462 161.23075958 22.63298615 161.95936584 22.57069397 C165.26737673 22.51569304 165.26737673 22.51569304 168 21 C168.22571184 19.58879098 168.39388349 18.16823957 168.53515625 16.74609375 C168.66567383 15.46508789 168.66567383 15.46508789 168.79882812 14.15820312 C168.9293457 12.81145508 168.9293457 12.81145508 169.0625 11.4375 C169.15337891 10.53580078 169.24425781 9.63410156 169.33789062 8.70507812 C169.56253923 6.47041566 169.78305769 4.23542161 170 2 C192.91131498 -0.29969419 192.91131498 -0.29969419 204 0 C204 4.62 204 9.24 204 14 C205.13179687 14.62648437 206.26359375 15.25296875 207.4296875 15.8984375 C208.91155643 16.72378222 210.39332191 17.54931272 211.875 18.375 C212.62136719 18.7875 213.36773437 19.2 214.13671875 19.625 C214.85214844 20.02460938 215.56757813 20.42421875 216.3046875 20.8359375 C216.96452637 21.20251465 217.62436523 21.5690918 218.30419922 21.94677734 C220 23 220 23 222 25 C221.9375 27.5 221.9375 27.5 221 30 C218.9296875 31.3671875 218.9296875 31.3671875 216 32 C213.18778087 31.00333788 210.80550403 29.98786526 208.1875 28.625 C207.49462891 28.28210938 206.80175781 27.93921875 206.08789062 27.5859375 C204.3839475 26.73984161 202.69083226 25.87200154 201 25 C200.21689453 26.051875 200.21689453 26.051875 199.41796875 27.125 C182.36700356 49.10312676 155.09418679 56.86758573 128.5078125 60.3046875 C91.37985836 64.25060489 46.36657052 62.45696988 15.4375 39.0625 C10.93482759 35.23027627 7.37908543 30.83365863 4 26 C-0.28763131 27.34345781 -4.31149037 28.61602347 -8.25 30.8125 C-11 32 -11 32 -13.8125 31.25 C-16 30 -16 30 -17 29 C-17.04063832 27.33382885 -17.042721 25.66611905 -17 24 C-11.44847512 20.74149626 -5.77377955 17.84734334 0 15 C0 10.05 0 5.1 0 0 Z " fill="#478CBF" transform="translate(26,177)"/>
<path d="M0 0 C10.58409723 0.40019472 21.14493377 0.89072037 31.6875 1.9375 C32.49421143 2.01210449 33.30092285 2.08670898 34.13208008 2.16357422 C39.75952932 2.75952932 39.75952932 2.75952932 42 5 C42.31884766 6.87939453 42.31884766 6.87939453 42.4140625 9.1328125 C42.47207031 10.34130859 42.47207031 10.34130859 42.53125 11.57421875 C42.5621875 12.41597656 42.593125 13.25773438 42.625 14.125 C42.68300781 15.39923828 42.68300781 15.39923828 42.7421875 16.69921875 C42.83656494 18.79911684 42.91937586 20.89952891 43 23 C43.78648926 23.05534912 44.57297852 23.11069824 45.38330078 23.16772461 C48.96408195 23.42138307 52.54453641 23.6793991 56.125 23.9375 C57.98125 24.06801758 57.98125 24.06801758 59.875 24.20117188 C61.07382813 24.28818359 62.27265625 24.37519531 63.5078125 24.46484375 C65.15740967 24.58267212 65.15740967 24.58267212 66.84033203 24.70288086 C69.9298992 24.99340808 72.94676756 25.45090089 76 26 C76.18175781 24.19402344 76.18175781 24.19402344 76.3671875 22.3515625 C76.53599859 20.77599234 76.70529459 19.20047408 76.875 17.625 C76.95363281 16.8309375 77.03226562 16.036875 77.11328125 15.21875 C77.7734375 9.2265625 77.7734375 9.2265625 80 7 C81.89073181 6.72584534 81.89073181 6.72584534 84.21850586 6.69360352 C85.08958481 6.67761612 85.96066376 6.66162872 86.85813904 6.64515686 C87.80085159 6.63979416 88.74356415 6.63443146 89.71484375 6.62890625 C91.16486534 6.61536354 91.16486534 6.61536354 92.6441803 6.60154724 C94.69105929 6.58702363 96.73798492 6.57815278 98.78491211 6.57446289 C101.92185354 6.56255937 105.05683305 6.51338838 108.19335938 6.46289062 C110.17967787 6.45342772 112.16600848 6.44619205 114.15234375 6.44140625 C115.09303207 6.42187393 116.0337204 6.40234161 117.00291443 6.38221741 C118.31426109 6.391334 118.31426109 6.391334 119.65209961 6.40063477 C120.80554115 6.39302879 120.80554115 6.39302879 121.98228455 6.38526917 C124 7 124 7 127 12 C127.495 18.93 127.495 18.93 128 26 C138.89 25.01 149.78 24.02 161 23 C161.24941885 17.16667154 161.24941885 17.16667154 161.47802734 11.33251953 C161.5136377 10.60661621 161.54924805 9.88071289 161.5859375 9.1328125 C161.6173584 8.38918457 161.6487793 7.64555664 161.68115234 6.87939453 C162 5 162 5 164 3 C166.82928723 2.54861215 169.59023456 2.20347072 172.4375 1.9375 C173.25355713 1.85516113 174.06961426 1.77282227 174.91040039 1.68798828 C176.53753382 1.52519435 178.16505873 1.36626133 179.79296875 1.21142578 C181.61316785 1.03705715 183.43184087 0.84683433 185.25 0.65234375 C191.51325445 0.00599046 197.70615735 -0.10956399 204 0 C204 2.64 204 5.28 204 8 C200.20893744 8.34044412 196.41707386 8.67102759 192.625 9 C191.56410156 9.09539062 190.50320312 9.19078125 189.41015625 9.2890625 C182.92001533 9.84649792 176.51360014 10.13132994 170 10 C170.0309375 11.918125 170.0309375 11.918125 170.0625 13.875 C170.04017857 27.95982143 170.04017857 27.95982143 167 31 C164.55009764 31.38593838 162.18510274 31.65728433 159.71875 31.8515625 C158.62657166 31.94719986 158.62657166 31.94719986 157.5123291 32.04476929 C155.96593959 32.17832862 154.41916489 32.30748926 152.87207031 32.43261719 C150.53612863 32.62206985 148.20173552 32.825406 145.8671875 33.03125 C141.58062187 33.40144295 137.29302221 33.7137281 133 34 C131.9378125 34.07444336 130.875625 34.14888672 129.78125 34.22558594 C128.894375 34.26200195 128.0075 34.29841797 127.09375 34.3359375 C126.35833984 34.36993652 125.62292969 34.40393555 124.86523438 34.43896484 C123 34 123 34 120 30 C119.505 22.575 119.505 22.575 119 15 C107.78 15 96.56 15 85 15 C84.67 20.28 84.34 25.56 84 31 C81 34 81 34 78.66601562 34.28051758 C77.75529297 34.23564209 76.84457031 34.1907666 75.90625 34.14453125 C74.884104 34.10013916 73.86195801 34.05574707 72.80883789 34.01000977 C71.71692139 33.94483154 70.62500488 33.87965332 69.5 33.8125 C68.38681396 33.75570068 67.27362793 33.69890137 66.12670898 33.64038086 C59.09388438 33.25439328 52.07266886 32.74687186 45.0625 32.0625 C43.87527344 31.95095581 43.87527344 31.95095581 42.6640625 31.8371582 C37.2448889 31.2448889 37.2448889 31.2448889 35 29 C34.68115234 27.02880859 34.68115234 27.02880859 34.5859375 24.6484375 C34.52792969 23.37226563 34.52792969 23.37226563 34.46875 22.0703125 C34.4378125 21.18085938 34.406875 20.29140625 34.375 19.375 C34.31699219 18.02921875 34.31699219 18.02921875 34.2578125 16.65625 C34.16340643 14.4377073 34.07783252 12.21917597 34 10 C33.13761719 10.02320313 32.27523437 10.04640625 31.38671875 10.0703125 C20.80194002 10.22679286 10.50257445 9.26618766 0 8 C0 5.36 0 2.72 0 0 Z " fill="#F9FBFD" transform="translate(26,169)"/>
<path d="M0 0 C5.98732384 3.15122307 9.40490335 7.59342598 11.70703125 13.8984375 C13.10707546 22.22030029 11.48517324 28.98063303 6.70703125 35.8984375 C4.26953125 38.3359375 4.26953125 38.3359375 1.70703125 39.8984375 C0.86140625 40.4759375 0.01578125 41.0534375 -0.85546875 41.6484375 C-6.94823569 43.86398911 -14.12823792 44.083977 -20.23046875 41.6484375 C-27.18476254 37.67455533 -30.71347669 33.53205627 -33.29296875 25.8984375 C-34.61829445 18.38166485 -33.59464496 12.40994628 -29.25 6.1015625 C-21.36334479 -2.7768278 -10.81333519 -4.80103273 0 0 Z " fill="#F6F8F9" transform="translate(192.29296875,111.1015625)"/>
<path d="M0 0 C5.77015454 3.2305955 10.63308961 7.26826969 12.7109375 13.78515625 C14.20388834 21.7036504 13.56572374 29.07637277 9.109375 35.8984375 C7.21779756 38.02380541 5.51716608 39.26113957 3.109375 40.8984375 C2.243125 41.4965625 1.376875 42.0946875 0.484375 42.7109375 C-5.84661598 44.9385084 -12.2863779 44.62421128 -18.703125 42.8359375 C-25.18862036 38.89377365 -29.42924448 34.58726984 -31.45703125 27.15625 C-32.70607049 20.65224388 -32.19325746 14.71293127 -28.890625 8.8984375 C-21.57108817 -0.34340193 -11.51396093 -4.38775268 0 0 Z " fill="#F7F9FA" transform="translate(83.890625,110.1015625)"/>
<path d="M0 0 C2.5 0.75 2.5 0.75 5.5 2.75 C5.8742218 4.79931641 5.8742218 4.79931641 5.87231445 7.3515625 C5.88165764 8.78314697 5.88165764 8.78314697 5.89118958 10.24365234 C5.88197983 11.27699707 5.87277008 12.3103418 5.86328125 13.375 C5.86402901 14.96175537 5.86402901 14.96175537 5.86479187 16.58056641 C5.86244845 18.82000606 5.85270429 21.0594482 5.83618164 23.29882812 C5.81259665 26.73591547 5.81561785 30.17222738 5.82226562 33.609375 C5.81668895 35.78125465 5.80957914 37.95313101 5.80078125 40.125 C5.80214836 41.67501709 5.80214836 41.67501709 5.80354309 43.25634766 C5.79401108 44.2107373 5.78447906 45.16512695 5.7746582 46.1484375 C5.77005081 46.99067871 5.76544342 47.83291992 5.76069641 48.70068359 C5.5 50.75 5.5 50.75 3.5 52.75 C-0.68099804 53.45486566 -2.20669744 52.95346533 -5.7265625 50.51171875 C-6.87342471 49.50272794 -8.00565671 48.47693541 -9.125 47.4375 C-9.7245752 46.89859131 -10.32415039 46.35968262 -10.94189453 45.80444336 C-12.18471778 44.684463 -13.42215993 43.55848402 -14.65429688 42.42675781 C-16.43477438 40.80925524 -18.24733617 39.23981154 -20.078125 37.6796875 C-21.17767083 36.72463429 -22.27665563 35.76893468 -23.375 34.8125 C-24.36242187 33.95785156 -25.34984375 33.10320312 -26.3671875 32.22265625 C-28.5 29.75 -28.5 29.75 -28.94116211 27.43603516 C-28.3248039 23.68331075 -26.22153482 21.8265362 -23.57421875 19.30078125 C-22.81912773 18.55274483 -22.81912773 18.55274483 -22.04878235 17.78959656 C-20.43970962 16.20183893 -18.81383669 14.63254875 -17.1875 13.0625 C-16.10373127 11.99524275 -15.02103592 10.92689434 -13.93945312 9.85742188 C-3.54996459 -0.35499646 -3.54996459 -0.35499646 0 0 Z " fill="#77A0BF" transform="translate(218.5,36.25)"/>
<path d="M0 0 C4.57467364 0.53428803 6.62242782 2.2778905 9.71679688 5.44165039 C10.24196899 5.95775375 10.76714111 6.47385712 11.30822754 7.00559998 C12.40915931 8.09741896 13.50130039 9.19816576 14.58496094 10.30712891 C16.24559811 11.99775116 17.94245924 13.64451072 19.64648438 15.29125977 C20.71400654 16.35981309 21.77919558 17.43070348 22.84179688 18.50415039 C23.34996948 18.9929921 23.85814209 19.4818338 24.38171387 19.98548889 C27.09477502 22.82881587 27.74950057 24.13726666 27.73022461 28.12158203 C26.80005178 31.26215809 26.42927346 32.46365173 23.93945312 34.42993164 C23.36187256 34.90325928 22.78429199 35.37658691 22.18920898 35.86425781 C21.56925049 36.3422583 20.94929199 36.82025879 20.31054688 37.31274414 C19.03072212 38.34644246 17.75208428 39.38161195 16.47460938 40.41821289 C15.84200195 40.92400879 15.20939453 41.42980469 14.55761719 41.95092773 C11.1861775 44.7210394 8.07535654 47.76936136 4.93164062 50.79321289 C2.4349419 52.67355308 0.87279279 53.3415202 -2.25195312 53.43774414 C-4.40970542 51.84575668 -5.16632461 50.93418004 -5.62617493 48.26817322 C-5.6255455 47.42815262 -5.62491608 46.58813202 -5.62426758 45.72265625 C-5.63049637 44.76834213 -5.63672516 43.81402802 -5.6431427 42.83079529 C-5.63393295 41.80261185 -5.62472321 40.77442841 -5.61523438 39.71508789 C-5.61573288 38.65866592 -5.61623138 37.60224396 -5.616745 36.5138092 C-5.61440396 34.28034586 -5.60467374 32.0468799 -5.58813477 29.81347656 C-5.56452211 26.38525953 -5.56757623 22.95781879 -5.57421875 19.52954102 C-5.56864285 17.36221865 -5.56153353 15.19489957 -5.55273438 13.02758789 C-5.55410149 11.48227638 -5.55410149 11.48227638 -5.55549622 9.90574646 C-5.5459642 8.9545845 -5.53643219 8.00342255 -5.52661133 7.0234375 C-5.52200394 6.18421249 -5.51739655 5.34498749 -5.51264954 4.48033142 C-5.04188309 0.79182051 -3.49400181 0.47032622 0 0 Z " fill="#78A1BF" transform="translate(37.251953125,36.562255859375)"/>
<path d="M0 0 C5.67507225 2.00296668 9.30675089 5.61350179 12 11 C12.59248476 16.92484765 11.48107303 21.23805737 8 26 C4.49384772 29.32014951 0.74877459 30.2930188 -4 30.625 C-8.7478933 30.4368213 -11.23457427 28.93054949 -14.625 25.703125 C-18.06639091 21.44049307 -18.43866287 17.83067179 -18.3125 12.46875 C-17.67400338 7.42462674 -14.95830757 4.82762927 -11.25 1.625 C-7.24168396 -0.37915802 -4.39008284 -0.71261866 0 0 Z " fill="#414042" transform="translate(80,118)"/>
<path d="M0 0 C3.35039708 2.23359805 6.08091042 4.20462209 7.8125 7.875 C8.61240587 12.94610135 8.26254489 17.41897241 6.75 22.3125 C3.61438106 26.45960892 0.40379564 28.3474561 -4.5859375 29.36328125 C-9.8015325 29.77250486 -12.72892506 28.96383938 -16.75 25.5625 C-20.57116484 21.89510437 -21.38405103 18.85286253 -21.625 13.625 C-21.59064934 8.43804971 -20.46026265 5.90166647 -16.890625 2.21484375 C-11.63155646 -1.922451 -6.17926582 -2.18091735 0 0 Z " fill="#403F41" transform="translate(186.1875,119.125)"/>
<path d="M0 0 C2 2 2 2 2.125 4.3125 C-0.81808728 11.34320851 -12.63596482 15.03757299 -19.23681641 18.35864258 C-21.13391433 19.31700327 -23.021806 20.29211788 -24.91015625 21.26757812 C-26.12967855 21.88386196 -27.34971345 22.49913275 -28.5703125 23.11328125 C-29.66102051 23.66798096 -30.75172852 24.22268066 -31.87548828 24.79418945 C-35.20414148 26.07878221 -37.46642556 26.39631537 -41 26 C-41.66 25.34 -42.32 24.68 -43 24 C-42.9375 21.625 -42.9375 21.625 -42 19 C-38.2891624 15.61205011 -34.14287913 13.32381588 -29.6875 11.07421875 C-28.6504895 10.54644585 -28.6504895 10.54644585 -27.5925293 10.00801086 C-26.13850029 9.27126139 -24.68281882 8.53776503 -23.22558594 7.80737305 C-20.99958302 6.68729018 -18.78513324 5.54629848 -16.5703125 4.40429688 C-15.15170076 3.68879589 -13.73245066 2.97455888 -12.3125 2.26171875 C-11.65403076 1.91912521 -10.99556152 1.57653168 -10.31713867 1.22355652 C-6.50656194 -0.65378704 -4.05431214 -1.55004389 0 0 Z " fill="#212532" transform="translate(246,142)"/>
<path d="M0 0 C2.66070841 1.09563635 5.18943574 2.406255 7.734375 3.74609375 C8.45361145 4.11726822 9.1728479 4.48844269 9.91387939 4.87086487 C11.4252458 5.65292296 12.93455716 6.43896401 14.44189453 7.22875977 C16.75208546 8.43859214 19.06872766 9.63527023 21.38671875 10.83007812 C22.85716554 11.59298972 24.32723135 12.35663617 25.796875 13.12109375 C26.48956482 13.47948837 27.18225464 13.837883 27.89593506 14.20713806 C30.58347571 15.61961025 32.83983813 16.83983813 35 19 C35.25 21.5 35.25 21.5 35 24 C33 26 33 26 30.3671875 26.375 C25.94994689 25.88305673 22.94457083 24.17801122 19.125 22 C17.62599179 21.17397886 16.12596421 20.3498053 14.625 19.52734375 C13.86316406 19.10694824 13.10132812 18.68655273 12.31640625 18.25341797 C7.96951477 15.9012952 3.52706597 13.74076322 -0.90966797 11.56445312 C-3.73712229 10.16857513 -6.37108401 8.75261066 -9 7 C-8.74438677 4.6568787 -8.40729228 2.32156597 -8 0 C-5.01687181 -1.49156409 -3.22715715 -0.76549969 0 0 Z " fill="#212532" transform="translate(18,142)"/>
<path d="M0 0 C5.05172592 0.29949285 9.22793932 2.29145358 13.69921875 4.4921875 C14.41608353 4.83879425 15.1329483 5.185401 15.87153625 5.54251099 C17.37850184 6.27345402 18.88362008 7.00821669 20.38696289 7.74658203 C22.68591838 8.87422421 24.99176529 9.98671185 27.29882812 11.09765625 C28.76605903 11.81160873 30.23287087 12.52642318 31.69921875 13.2421875 C32.38674728 13.57354706 33.07427582 13.90490662 33.78263855 14.24630737 C40.05811858 17.34813948 40.05811858 17.34813948 42 20 C42 22.5625 42 22.5625 41 25 C38.16168403 26.60978655 36.73354223 27.2005341 33.54321289 26.32836914 C32.6949292 25.90160889 31.84664551 25.47484863 30.97265625 25.03515625 C29.54602661 24.33410767 29.54602661 24.33410767 28.09057617 23.61889648 C27.09131104 23.10528564 26.0920459 22.5916748 25.0625 22.0625 C24.03938721 21.55340088 23.01627441 21.04430176 21.9621582 20.51977539 C19.91470056 19.49887299 17.87091269 18.4705741 15.83105469 17.43457031 C13.37904842 16.19207386 10.91789342 14.97427676 8.4453125 13.7734375 C-0.68143163 9.31856837 -0.68143163 9.31856837 -3 7 C-2.67028521 3.70285207 -2.3773161 2.3773161 0 0 Z " fill="#212532" transform="translate(206,182)"/>
<path d="M0 0 C1 1 1 1 1.375 3.3125 C1 6 1 6 -1.0703125 7.93359375 C-4.31927378 10.22519444 -7.6814335 12.02566867 -11.25 13.75 C-12.28314331 14.25345947 -12.28314331 14.25345947 -13.3371582 14.76708984 C-14.79923286 15.47778169 -16.26256364 16.18589438 -17.72705078 16.89160156 C-20.04942869 18.02410379 -22.35099091 19.19262411 -24.65234375 20.3671875 C-26.1636608 21.120598 -27.67536891 21.87322466 -29.1875 22.625 C-29.89358398 22.99206055 -30.59966797 23.35912109 -31.32714844 23.73730469 C-34.5595855 25.31383754 -36.36738046 26.15709911 -39.92578125 25.2734375 C-42 24 -42 24 -43 23 C-43.04063832 21.33382885 -43.042721 19.66611905 -43 18 C-36.43067378 14.20409814 -29.74459616 10.67543818 -22.98413086 7.23461914 C-21.61464669 6.53394902 -20.24843072 5.82685565 -18.88549805 5.11352539 C-16.89866891 4.07448451 -14.90212043 3.0568194 -12.90234375 2.04296875 C-12.29905746 1.72224899 -11.69577118 1.40152924 -11.07420349 1.0710907 C-6.99419718 -0.95964642 -4.38043558 -1.2531208 0 0 Z " fill="#212533" transform="translate(52,183)"/>
<path d="M0 0 C1.46566406 -0.00386719 1.46566406 -0.00386719 2.9609375 -0.0078125 C3.98445313 -0.00007812 5.00796875 0.00765625 6.0625 0.015625 C7.08601562 0.00789062 8.10953125 0.00015625 9.1640625 -0.0078125 C10.14117187 -0.00523437 11.11828125 -0.00265625 12.125 0 C13.02347656 0.00225586 13.92195313 0.00451172 14.84765625 0.00683594 C17.0625 0.265625 17.0625 0.265625 19.0625 2.265625 C19.51171875 4.5234375 19.51171875 4.5234375 19.0625 7.265625 C17.38567083 9.46811515 15.83703424 11.23651988 13.875 13.140625 C13.39224609 13.65109375 12.90949219 14.1615625 12.41210938 14.6875 C10.16593406 16.91860031 8.75716991 18.23346436 5.53125 18.3828125 C2.29873215 16.91999588 0.25520062 15.02453703 -2.25 12.515625 C-3.57451172 11.22398437 -3.57451172 11.22398437 -4.92578125 9.90625 C-6.9375 7.265625 -6.9375 7.265625 -7.35546875 4.5625 C-6.52246446 -0.01513104 -4.0889185 0.01026629 0 0 Z " fill="#FAFBFC" transform="translate(121.9375,148.734375)"/>
</svg>
