<?xml version="1.0" encoding="UTF-8"?>
<svg version="1.1" xmlns="http://www.w3.org/2000/svg" width="256" height="256">
<path d="M0 0 C6.80274436 4.82273561 10.35993735 13.74200274 14 21 C18.70742747 21.64026834 22.5072718 21.64060299 27 20 C30.23965412 16.49239627 32.10832864 12.14696375 34.09765625 7.85546875 C36.94145807 1.91347205 36.94145807 1.91347205 40 0 C47.81219078 -1.39540026 54.95961126 1.1865466 62.25 3.75 C63.29929688 4.09804687 64.34859375 4.44609375 65.4296875 4.8046875 C71.84942665 6.99877556 77.14436416 9.14436416 82 14 C82.40047444 16.32275177 82.7397104 18.65739357 83 21 C83.46374023 20.56131592 83.92748047 20.12263184 84.40527344 19.6706543 C86.51819259 17.67415161 88.63406135 15.68080207 90.75 13.6875 C91.47960937 12.99720703 92.20921875 12.30691406 92.9609375 11.59570312 C93.66992188 10.92861328 94.37890625 10.26152344 95.109375 9.57421875 C95.75874023 8.96151123 96.40810547 8.34880371 97.07714844 7.7175293 C102.96279328 2.46035415 107.24211406 1.69493511 115.0546875 1.7890625 C119.48938587 2.10666689 122.31870552 3.27736221 125.4296875 6.46484375 C129.66730488 11.36084801 130.14630792 14.38302051 130.12939453 20.64892578 C130.13202301 21.83511757 130.13202301 21.83511757 130.13470459 23.04527283 C130.13912804 25.67864134 130.13617726 28.31194321 130.1328125 30.9453125 C130.13348686 32.79068006 130.134458 34.63604754 130.13571167 36.48141479 C130.13719048 40.37043087 130.13503362 44.25942408 130.13037109 48.1484375 C130.12476021 53.06126405 130.1279819 57.9740354 130.13382339 62.88685989 C130.15360973 82.61321098 130.13901956 102.29937247 129 122 C129.82274414 121.97389648 130.64548828 121.94779297 131.49316406 121.92089844 C132.57307617 121.9005957 133.65298828 121.88029297 134.765625 121.859375 C135.83586914 121.83327148 136.90611328 121.80716797 138.00878906 121.78027344 C141.04021069 122.00295377 142.38638765 122.41118472 144.75 124.25 C147.80114642 128.09590612 147.95889716 132.32547593 147.7109375 137.08984375 C146.47158851 142.16300307 143.31691128 144.37326924 139 147 C132.14626866 151 132.14626866 151 129 151 C129 158.92 129 166.84 129 175 C131.97 175.99 131.97 175.99 135 177 C137.1953125 178.1484375 137.1953125 178.1484375 139.125 179.375 C139.76695312 179.77460938 140.40890625 180.17421875 141.0703125 180.5859375 C146.70893448 184.71788316 146.70893448 184.71788316 147.63671875 188.8046875 C147.76684159 196.67211456 147.76684159 196.67211456 145.77734375 200.1171875 C142.59509652 203.26181952 139.63021622 204.38637069 135.1875 204.625 C129.67198095 204.30304958 124.94373434 202.35616275 120 200 C119.75765625 200.57234375 119.5153125 201.1446875 119.265625 201.734375 C111.12625387 216.30485418 90.81684003 222.91181382 75.79052734 227.25683594 C61.77375525 230.98973657 47.47041417 233.11304161 32.97265625 233.23828125 C31.56509819 233.25297203 31.56509819 233.25297203 30.12910461 233.26795959 C-9.73818567 233.5984782 -9.73818567 233.5984782 -29 229 C-29.90234375 228.78569336 -30.8046875 228.57138672 -31.734375 228.35058594 C-47.75311947 224.37483541 -62.69514297 218.24533901 -75 207 C-75.56589844 206.49082031 -76.13179687 205.98164063 -76.71484375 205.45703125 C-78.125 204.125 -78.125 204.125 -80 202 C-80 201.34 -80 200.68 -80 200 C-80.80050781 200.433125 -80.80050781 200.433125 -81.6171875 200.875 C-87.40149497 203.75714628 -92.54494999 205.32710732 -99 204 C-102.33209359 202.63741173 -104.2168072 201.14315945 -106 198 C-107.11546363 192.88313487 -107.59920542 187.56364931 -104.73046875 182.96484375 C-100.46975894 179.0633507 -95.27085433 177.34260193 -90 175 C-90 167.08 -90 159.16 -90 151 C-94.1399898 148.82529231 -94.1399898 148.82529231 -98.28637695 146.6628418 C-104.39394363 143.41473969 -104.39394363 143.41473969 -106 141 C-106.43359375 138.0390625 -106.43359375 138.0390625 -106.4375 134.625 C-106.45683594 133.50351563 -106.47617188 132.38203125 -106.49609375 131.2265625 C-105.90532159 127.38421757 -104.68800928 125.75308213 -102 123 C-99.35541621 121.67770811 -97.32238699 121.90322806 -94.375 121.9375 C-92.87066406 121.95103516 -92.87066406 121.95103516 -91.3359375 121.96484375 C-90.56507812 121.97644531 -89.79421875 121.98804688 -89 122 C-89.00645255 121.44046379 -89.0129051 120.88092758 -89.01955318 120.30443573 C-89.17439987 106.6657496 -89.28965583 93.02721824 -89.3626852 79.38784027 C-89.39919148 72.79175524 -89.44869706 66.19630541 -89.52807617 59.60058594 C-89.60422465 53.23334017 -89.64600988 46.86670473 -89.6641407 40.4990387 C-89.6770586 38.0717254 -89.70228487 35.6444449 -89.7401104 33.21739197 C-89.7910525 29.81281796 -89.79791818 26.41075418 -89.79467773 23.00585938 C-89.81984467 22.00604034 -89.8450116 21.00622131 -89.87094116 19.97610474 C-89.80402888 13.46365914 -88.3188075 10.17130186 -83.75431919 5.50727081 C-79.82585101 2.13202105 -76.18667335 1.69073602 -71.125 1.625 C-70.13757813 1.59664062 -69.15015625 1.56828125 -68.1328125 1.5390625 C-60.02421515 2.73209802 -55.00200669 8.61640295 -49.5625 14.25 C-48.46518555 15.36761719 -48.46518555 15.36761719 -47.34570312 16.5078125 C-45.55673275 18.33186072 -43.77519354 20.16255817 -42 22 C-41.98582031 21.39671875 -41.97164063 20.7934375 -41.95703125 20.171875 C-41.56908978 13.6712341 -41.56908978 13.6712341 -39.01953125 10.6640625 C-35.03273491 8.46694058 -30.97586513 6.88343661 -26.6875 5.375 C-25.46256836 4.92640625 -25.46256836 4.92640625 -24.21289062 4.46875 C-6.91192721 -1.76235395 -6.91192721 -1.76235395 0 0 Z " fill="#478CBF" transform="translate(108,11)"/>
<path d="M0 0 C6.80274436 4.82273561 10.35993735 13.74200274 14 21 C18.70742747 21.64026834 22.5072718 21.64060299 27 20 C30.23965412 16.49239627 32.10832864 12.14696375 34.09765625 7.85546875 C36.94145807 1.91347205 36.94145807 1.91347205 40 0 C47.81219078 -1.39540026 54.95961126 1.1865466 62.25 3.75 C63.29929688 4.09804687 64.34859375 4.44609375 65.4296875 4.8046875 C71.84942665 6.99877556 77.14436416 9.14436416 82 14 C82.40047444 16.32275177 82.7397104 18.65739357 83 21 C83.46374023 20.56131592 83.92748047 20.12263184 84.40527344 19.6706543 C86.51819259 17.67415161 88.63406135 15.68080207 90.75 13.6875 C91.47960937 12.99720703 92.20921875 12.30691406 92.9609375 11.59570312 C93.66992188 10.92861328 94.37890625 10.26152344 95.109375 9.57421875 C95.75874023 8.96151123 96.40810547 8.34880371 97.07714844 7.7175293 C102.96279328 2.46035415 107.24211406 1.69493511 115.0546875 1.7890625 C119.48938587 2.10666689 122.31870552 3.27736221 125.4296875 6.46484375 C129.66730488 11.36084801 130.14630792 14.38302051 130.12939453 20.64892578 C130.13202301 21.83511757 130.13202301 21.83511757 130.13470459 23.04527283 C130.13912804 25.67864134 130.13617726 28.31194321 130.1328125 30.9453125 C130.13348686 32.79068006 130.134458 34.63604754 130.13571167 36.48141479 C130.13719048 40.37043087 130.13503362 44.25942408 130.13037109 48.1484375 C130.12476021 53.06126405 130.1279819 57.9740354 130.13382339 62.88685989 C130.15360973 82.61321098 130.13901956 102.29937247 129 122 C129.82274414 121.97389648 130.64548828 121.94779297 131.49316406 121.92089844 C132.57307617 121.9005957 133.65298828 121.88029297 134.765625 121.859375 C135.83586914 121.83327148 136.90611328 121.80716797 138.00878906 121.78027344 C141.04021069 122.00295377 142.38638765 122.41118472 144.75 124.25 C147.80114642 128.09590612 147.95889716 132.32547593 147.7109375 137.08984375 C146.47158851 142.16300307 143.31691128 144.37326924 139 147 C132.14626866 151 132.14626866 151 129 151 C129 158.92 129 166.84 129 175 C131.97 175.99 131.97 175.99 135 177 C137.1953125 178.1484375 137.1953125 178.1484375 139.125 179.375 C139.76695312 179.77460938 140.40890625 180.17421875 141.0703125 180.5859375 C146.70893448 184.71788316 146.70893448 184.71788316 147.63671875 188.8046875 C147.76684159 196.67211456 147.76684159 196.67211456 145.77734375 200.1171875 C142.59509652 203.26181952 139.63021622 204.38637069 135.1875 204.625 C129.67198095 204.30304958 124.94373434 202.35616275 120 200 C119.75765625 200.57234375 119.5153125 201.1446875 119.265625 201.734375 C111.12625387 216.30485418 90.81684003 222.91181382 75.79052734 227.25683594 C61.77375525 230.98973657 47.47041417 233.11304161 32.97265625 233.23828125 C31.56509819 233.25297203 31.56509819 233.25297203 30.12910461 233.26795959 C-9.73818567 233.5984782 -9.73818567 233.5984782 -29 229 C-29.90234375 228.78569336 -30.8046875 228.57138672 -31.734375 228.35058594 C-47.75311947 224.37483541 -62.69514297 218.24533901 -75 207 C-75.56589844 206.49082031 -76.13179687 205.98164063 -76.71484375 205.45703125 C-78.125 204.125 -78.125 204.125 -80 202 C-80 201.34 -80 200.68 -80 200 C-80.80050781 200.433125 -80.80050781 200.433125 -81.6171875 200.875 C-87.40149497 203.75714628 -92.54494999 205.32710732 -99 204 C-102.33209359 202.63741173 -104.2168072 201.14315945 -106 198 C-107.11546363 192.88313487 -107.59920542 187.56364931 -104.73046875 182.96484375 C-100.46975894 179.0633507 -95.27085433 177.34260193 -90 175 C-90 167.08 -90 159.16 -90 151 C-94.1399898 148.82529231 -94.1399898 148.82529231 -98.28637695 146.6628418 C-104.39394363 143.41473969 -104.39394363 143.41473969 -106 141 C-106.43359375 138.0390625 -106.43359375 138.0390625 -106.4375 134.625 C-106.45683594 133.50351563 -106.47617188 132.38203125 -106.49609375 131.2265625 C-105.90532159 127.38421757 -104.68800928 125.75308213 -102 123 C-99.35541621 121.67770811 -97.32238699 121.90322806 -94.375 121.9375 C-92.87066406 121.95103516 -92.87066406 121.95103516 -91.3359375 121.96484375 C-90.56507812 121.97644531 -89.79421875 121.98804688 -89 122 C-89.00645255 121.44046379 -89.0129051 120.88092758 -89.01955318 120.30443573 C-89.17439987 106.6657496 -89.28965583 93.02721824 -89.3626852 79.38784027 C-89.39919148 72.79175524 -89.44869706 66.19630541 -89.52807617 59.60058594 C-89.60422465 53.23334017 -89.64600988 46.86670473 -89.6641407 40.4990387 C-89.6770586 38.0717254 -89.70228487 35.6444449 -89.7401104 33.21739197 C-89.7910525 29.81281796 -89.79791818 26.41075418 -89.79467773 23.00585938 C-89.81984467 22.00604034 -89.8450116 21.00622131 -89.87094116 19.97610474 C-89.80402888 13.46365914 -88.3188075 10.17130186 -83.75431919 5.50727081 C-79.82585101 2.13202105 -76.18667335 1.69073602 -71.125 1.625 C-70.13757813 1.59664062 -69.15015625 1.56828125 -68.1328125 1.5390625 C-60.02421515 2.73209802 -55.00200669 8.61640295 -49.5625 14.25 C-48.46518555 15.36761719 -48.46518555 15.36761719 -47.34570312 16.5078125 C-45.55673275 18.33186072 -43.77519354 20.16255817 -42 22 C-41.98582031 21.39671875 -41.97164063 20.7934375 -41.95703125 20.171875 C-41.56908978 13.6712341 -41.56908978 13.6712341 -39.01953125 10.6640625 C-35.03273491 8.46694058 -30.97586513 6.88343661 -26.6875 5.375 C-25.46256836 4.92640625 -25.46256836 4.92640625 -24.21289062 4.46875 C-6.91192721 -1.76235395 -6.91192721 -1.76235395 0 0 Z M-17.9375 10.8125 C-18.71029297 11.07353516 -19.48308594 11.33457031 -20.27929688 11.60351562 C-24.9524896 13.20338296 -29.48487782 14.99795514 -34 17 C-34.05437005 19.85442753 -34.09384974 22.70780076 -34.125 25.5625 C-34.15013672 26.76229492 -34.15013672 26.76229492 -34.17578125 27.98632812 C-34.21723982 33.06500335 -33.64056075 37.18811906 -32 42 C-36.78337132 38.00716028 -41.29213149 33.78546359 -45.671875 29.35546875 C-46.41274353 28.60633713 -46.41274353 28.60633713 -47.1685791 27.84207153 C-49.2200551 25.76294995 -51.26769653 23.68013746 -53.31103516 21.59301758 C-54.82275466 20.05110173 -56.34063606 18.51546663 -57.859375 16.98046875 C-59.19693848 15.61764771 -59.19693848 15.61764771 -60.56152344 14.22729492 C-64.86723425 10.29447556 -68.10666766 9.55915158 -73.80859375 9.671875 C-77.06625662 10.1596534 -78.78262668 11.64404085 -81 14 C-82.21955116 16.43910232 -82.12314886 17.99377126 -82.12025452 20.72024536 C-82.12162918 21.71586487 -82.12300385 22.71148437 -82.12442017 23.73727417 C-82.12082489 24.83347076 -82.11722961 25.92966736 -82.11352539 27.05908203 C-82.11367142 28.21029541 -82.11381744 29.36150879 -82.1139679 30.54760742 C-82.11326904 34.36769469 -82.1054779 38.18773371 -82.09765625 42.0078125 C-82.09579197 44.65054294 -82.09436812 47.29327373 -82.09336853 49.93600464 C-82.09025748 56.19040623 -82.08204714 62.44479039 -82.07201904 68.6991843 C-82.06085088 75.81880259 -82.05534568 82.93842171 -82.05032361 90.05804658 C-82.03986435 104.70537339 -82.02226928 119.35268645 -82 134 C-82.66386719 133.62746094 -83.32773438 133.25492187 -84.01171875 132.87109375 C-85.33623047 132.16146484 -85.33623047 132.16146484 -86.6875 131.4375 C-87.99267578 130.72400391 -87.99267578 130.72400391 -89.32421875 129.99609375 C-92.42645189 128.84124784 -93.89451745 128.94720438 -97 130 C-99.28728734 131.83883881 -99.28728734 131.83883881 -99.125 134.625 C-99.08375 135.40875 -99.0425 136.1925 -99 137 C-96.54429825 138.33838733 -94.08570084 139.67086232 -91.625 141 C-90.57699219 141.57234375 -90.57699219 141.57234375 -89.5078125 142.15625 C-85.9571054 144.25724744 -85.9571054 144.25724744 -82 145 C-82 148.96 -82 152.92 -82 157 C-80.79351807 157.11593506 -79.58703613 157.23187012 -78.34399414 157.35131836 C-73.88391664 157.7810822 -69.42442406 158.21666919 -64.96508789 158.65405273 C-63.03197527 158.84282755 -61.09870603 159.03000538 -59.1652832 159.21557617 C-56.39231691 159.4820026 -53.61995764 159.75409634 -50.84765625 160.02734375 C-49.54297142 160.1508445 -49.54297142 160.1508445 -48.21192932 160.27684021 C-42.11387171 160.88612829 -42.11387171 160.88612829 -41 162 C-40.85613896 163.32886073 -40.77323712 164.66448587 -40.71875 166 C-40.66267578 167.2065625 -40.66267578 167.2065625 -40.60546875 168.4375 C-40.5 171 -40.5 171 -40.39453125 173.5625 C-40.33845703 174.7690625 -40.33845703 174.7690625 -40.28125 176 C-40.25095703 176.7425 -40.22066406 177.485 -40.18945312 178.25 C-40.18207587 180.02688855 -40.18207587 180.02688855 -39 181 C-37.07437444 181.22914699 -35.14120591 181.3954762 -33.20703125 181.53515625 C-31.42522461 181.66567383 -31.42522461 181.66567383 -29.60742188 181.79882812 C-27.72893555 181.9293457 -27.72893555 181.9293457 -25.8125 182.0625 C-24.57951172 182.15337891 -23.34652344 182.24425781 -22.07617188 182.33789062 C-16.70303876 182.72354994 -11.38934778 183.05219585 -6 183 C-5.79503906 181.78441406 -5.59007813 180.56882813 -5.37890625 179.31640625 C-5.10698039 177.73173486 -4.83483357 176.14710137 -4.5625 174.5625 C-4.36043945 173.35883789 -4.36043945 173.35883789 -4.15429688 172.13085938 C-3.11328125 166.11328125 -3.11328125 166.11328125 -2 165 C-0.61839885 164.9072167 0.76788038 164.88252957 2.15258789 164.88647461 C3.03342545 164.88655014 3.914263 164.88662567 4.8217926 164.88670349 C5.77907761 164.89186478 6.73636261 164.89702606 7.72265625 164.90234375 C9.18547279 164.90446617 9.18547279 164.90446617 10.67784119 164.90663147 C13.80609143 164.91224867 16.93427123 164.92480407 20.0625 164.9375 C22.17773334 164.94251278 24.29296781 164.94707607 26.40820312 164.95117188 C31.60549296 164.96222369 36.80274145 164.97897854 42 165 C43.76520282 168.31190717 44.32186358 170.79935592 44.5625 174.5625 C44.76883806 177.66599292 45.01136396 180.03409187 46 183 C64.10298991 183.98808094 64.10298991 183.98808094 80 180 C80.15582303 178.65984779 80.25044142 177.31241097 80.31640625 175.96484375 C80.37924805 174.75151367 80.37924805 174.75151367 80.44335938 173.51367188 C80.48267578 172.66353516 80.52199219 171.81339844 80.5625 170.9375 C80.62727539 169.65649414 80.62727539 169.65649414 80.69335938 168.34960938 C80.79976702 166.23327963 80.90041731 164.11666187 81 162 C85.72389689 160.20011081 90.23737076 159.52517955 95.2421875 159.1484375 C96.01055939 159.08467926 96.77893127 159.02092102 97.57058716 158.95523071 C100.0048828 158.75483803 102.43985512 158.56476406 104.875 158.375 C106.53390977 158.24026621 108.19276479 158.10485648 109.8515625 157.96875 C113.90045017 157.63801035 117.94997669 157.31651709 122 157 C121.97885132 155.88830444 121.97885132 155.88830444 121.95727539 154.75415039 C122.16238875 146.9347663 122.16238875 146.9347663 124.45654297 144.37451172 C126.40553002 143.18703239 128.32014543 142.28796098 130.4375 141.4375 C131.81217443 140.8133442 133.18591603 140.18712866 134.55859375 139.55859375 C135.69425781 139.04425781 136.82992187 138.52992188 138 138 C138.66 137.34 139.32 136.68 140 136 C139.67028521 132.70285207 139.3773161 131.3773161 137 129 C133.12102933 129.18471289 130.19096756 130.30814243 126.7890625 132.0546875 C126.0770166 132.41804199 125.3649707 132.78139648 124.63134766 133.15576172 C124.09300293 133.43436035 123.5546582 133.71295898 123 134 C123.00276538 133.40162229 123.00553076 132.80324457 123.00837994 132.1867342 C123.07465119 117.62263951 123.12428613 103.05855373 123.15543652 88.49434376 C123.17090127 81.45117081 123.1919832 74.40809855 123.22631836 67.36499023 C123.25942874 60.56987744 123.27684623 53.77486939 123.28463173 46.97968102 C123.29018109 44.385295 123.3010174 41.7909148 123.31719017 39.19657326 C123.33892031 35.566876 123.3419687 31.93761301 123.34057617 28.30786133 C123.351362 27.2318013 123.36214783 26.15574127 123.3732605 25.04707336 C123.4270847 17.99504045 123.4270847 17.99504045 120 12 C115.69364688 9.12909792 112.04713715 9.07266456 107 10 C103.77356912 11.75866929 101.51322825 14.34850353 99 17 C97.08710116 18.92670654 95.16424273 20.84317627 93.2409668 22.75952148 C91.88499935 24.1151665 90.53476214 25.47657039 89.19067383 26.84399414 C88.56443115 27.47942139 87.93818848 28.11484863 87.29296875 28.76953125 C86.7311792 29.34292236 86.16938965 29.91631348 85.59057617 30.50708008 C84 32 84 32 81 34 C81 34.66 81 35.32 81 36 C80.401875 36.268125 79.80375 36.53625 79.1875 36.8125 C76.67189278 38.04401889 76.67189278 38.04401889 74 41 C74.33 33.41 74.66 25.82 75 18 C69.16127709 15.08063854 63.9684214 12.76401449 57.875 10.75 C56.71677734 10.3478125 56.71677734 10.3478125 55.53515625 9.9375 C51.21574045 8.49524191 47.61645353 7.67552084 43 8 C41.69856454 10.18217434 40.40892573 12.37005242 39.125 14.5625 C38.76019531 15.17158203 38.39539063 15.78066406 38.01953125 16.40820312 C35.61790009 20.53464212 34.13474926 24.35947277 33 29 C15.88413299 30.68028912 15.88413299 30.68028912 8 28 C2.94592334 23.5418038 0.67365835 17.12365117 -1.36523438 10.84179688 C-1.84721304 9.00674818 -1.84721304 9.00674818 -3 8 C-8.46394513 7.48003018 -12.86692415 9.03253852 -17.9375 10.8125 Z " fill="#FBFCFD" transform="translate(108,11)"/>
<path d="M0 0 C11.34071842 0.57375002 22.6725097 1.20419724 34 2 C34.05534912 2.57032959 34.11069824 3.14065918 34.16772461 3.72827148 C34.41973743 6.29848753 34.67852728 8.86797631 34.9375 11.4375 C35.06801758 12.78424805 35.06801758 12.78424805 35.20117188 14.15820312 C35.33168945 15.43920898 35.33168945 15.43920898 35.46484375 16.74609375 C35.543396 17.53685303 35.62194824 18.3276123 35.70288086 19.14233398 C35.81551499 21.01103348 35.81551499 21.01103348 37 22 C39.54379163 22.38670467 42.06929332 22.71498724 44.625 23 C45.38973633 23.08685059 46.15447266 23.17370117 46.94238281 23.26318359 C58.62353856 24.55009058 70.24286683 25.17843878 82 25 C84.7202941 19.5594118 84.24552616 13.03579069 85 7 C96.22 7 107.44 7 119 7 C120.4375 15.4375 120.4375 15.4375 120.88452148 18.09936523 C121.23691486 21.86135964 121.23691486 21.86135964 123 25 C131.45558745 25.32489449 139.81319628 24.53522984 148.22583008 23.77319336 C150.58816351 23.56018597 152.9512037 23.35686111 155.31445312 23.15429688 C156.81515495 23.02140553 158.31580806 22.88796277 159.81640625 22.75390625 C160.52358292 22.6934462 161.23075958 22.63298615 161.95936584 22.57069397 C165.26737673 22.51569304 165.26737673 22.51569304 168 21 C168.22571184 19.58879098 168.39388349 18.16823957 168.53515625 16.74609375 C168.66567383 15.46508789 168.66567383 15.46508789 168.79882812 14.15820312 C168.9293457 12.81145508 168.9293457 12.81145508 169.0625 11.4375 C169.15337891 10.53580078 169.24425781 9.63410156 169.33789062 8.70507812 C169.56253923 6.47041566 169.78305769 4.23542161 170 2 C173.6034331 1.65841653 177.20783452 1.32830184 180.8125 1 C181.81732422 0.90460938 182.82214844 0.80921875 183.85742188 0.7109375 C190.60153028 0.10375089 197.22855275 -0.08931835 204 0 C204 4.95 204 9.9 204 15 C205.13179687 15.55429688 206.26359375 16.10859375 207.4296875 16.6796875 C208.91156303 17.4112463 210.39332815 18.14302878 211.875 18.875 C212.62136719 19.23980469 213.36773437 19.60460937 214.13671875 19.98046875 C214.85214844 20.33496094 215.56757813 20.68945312 216.3046875 21.0546875 C216.96452637 21.37937012 217.62436523 21.70405273 218.30419922 22.03857422 C220 23 220 23 222 25 C221.9375 27.5 221.9375 27.5 221 30 C218.9296875 31.3671875 218.9296875 31.3671875 216 32 C213.18778087 31.00333788 210.80550403 29.98786526 208.1875 28.625 C207.49462891 28.28210938 206.80175781 27.93921875 206.08789062 27.5859375 C204.3839475 26.73984161 202.69083226 25.87200154 201 25 C198.29616017 28.36470892 198.29616017 28.36470892 195.6484375 31.7734375 C180.53770855 50.77772851 151.44005636 57.25598865 128.61328125 60.26953125 C90.58702222 64.44606084 45.9566885 62.00935579 14.421875 38.125 C10.71000806 34.8681361 7.568304 31.22499156 5 27 C5 26.34 5 25.68 5 25 C3.45699322 25.60073584 1.91566308 26.2057787 0.375 26.8125 C-0.53894531 27.17214844 -1.45289063 27.53179687 -2.39453125 27.90234375 C-5.17455629 29.0141815 -5.17455629 29.0141815 -8.3125 30.875 C-11 32 -11 32 -13.8125 31.5 C-16 30 -16 30 -17 27.5625 C-17 25 -17 25 -15.94921875 23.5703125 C-13.15779944 21.32151378 -10.02502639 19.85593043 -6.8125 18.3125 C-6.15830078 17.99216797 -5.50410156 17.67183594 -4.83007812 17.34179688 C-3.22272093 16.55571708 -1.61171142 15.77711317 0 15 C0 10.05 0 5.1 0 0 Z " fill="#488CBF" transform="translate(26,176)"/>
<path d="M0 0 C5.77015454 3.2305955 10.63308961 7.26826969 12.7109375 13.78515625 C14.19868878 21.67607237 13.61524308 29.12646033 9.109375 35.8984375 C4.8518703 40.59985264 0.43282635 43.53664406 -5.9765625 44.234375 C-14.82600279 44.33947524 -18.97067852 43.37293552 -25.640625 37.4609375 C-30.73598911 31.65788393 -32.25727937 26.72776727 -32.09765625 19.0078125 C-31.44269363 12.33460846 -28.60700634 7.83262492 -23.69140625 3.375 C-16.91505365 -2.18131514 -8.2293306 -3.1360422 0 0 Z " fill="#F7F9FA" transform="translate(83.890625,109.1015625)"/>
<path d="M0 0 C5.36964655 3.2240584 9.93091572 8.13365452 11.84765625 14.109375 C12.9356977 22.53252734 11.69659981 29.08906385 6.84765625 36.109375 C4.41015625 38.546875 4.41015625 38.546875 1.84765625 40.109375 C1.00203125 40.686875 0.15640625 41.264375 -0.71484375 41.859375 C-6.80761069 44.07492661 -13.98761292 44.2949145 -20.08984375 41.859375 C-27.04413754 37.88549283 -30.57285169 33.74299377 -33.15234375 26.109375 C-34.47766945 18.59260235 -33.45401996 12.62088378 -29.109375 6.3125 C-21.36574893 -2.40487546 -10.72270085 -4.66778764 0 0 Z " fill="#F7F8F9" transform="translate(192.15234375,109.890625)"/>
<path d="M0 0 C2.5 0.75 2.5 0.75 5.5 2.75 C5.8742218 4.75462341 5.8742218 4.75462341 5.87231445 7.24389648 C5.88165764 8.64060829 5.88165764 8.64060829 5.89118958 10.0655365 C5.88197983 11.07387039 5.87277008 12.08220428 5.86328125 13.12109375 C5.86402901 14.67099754 5.86402901 14.67099754 5.86479187 16.25221252 C5.86244834 18.44037801 5.8527035 20.62854603 5.83618164 22.81665039 C5.81262063 26.1703295 5.8156148 29.52321249 5.82226562 32.87695312 C5.81668805 35.00000475 5.80957768 37.12305302 5.80078125 39.24609375 C5.80214836 40.75555824 5.80214836 40.75555824 5.80354309 42.29551697 C5.79401108 43.22981033 5.78447906 44.1641037 5.7746582 45.12670898 C5.77005081 45.94896469 5.76544342 46.7712204 5.76069641 47.61839294 C5.5 49.75 5.5 49.75 3.5 52.75 C0.7890625 53.26953125 0.7890625 53.26953125 -2.5 52.75 C-4.94771521 51.0520087 -6.96429895 49.44395253 -9.125 47.4375 C-9.7245752 46.89859131 -10.32415039 46.35968262 -10.94189453 45.80444336 C-12.18471778 44.684463 -13.42215993 43.55848402 -14.65429688 42.42675781 C-16.43477438 40.80925524 -18.24733617 39.23981154 -20.078125 37.6796875 C-21.17767083 36.72463429 -22.27665563 35.76893468 -23.375 34.8125 C-24.36242187 33.95785156 -25.34984375 33.10320312 -26.3671875 32.22265625 C-28.5 29.75 -28.5 29.75 -28.94116211 27.43603516 C-28.3248039 23.68331075 -26.22153482 21.8265362 -23.57421875 19.30078125 C-22.81912773 18.55274483 -22.81912773 18.55274483 -22.04878235 17.78959656 C-20.43970962 16.20183893 -18.81383669 14.63254875 -17.1875 13.0625 C-16.10373127 11.99524275 -15.02103592 10.92689434 -13.93945312 9.85742188 C-3.54996459 -0.35499646 -3.54996459 -0.35499646 0 0 Z " fill="#77A0BF" transform="translate(218.5,35.25)"/>
<path d="M0 0 C4.57467364 0.53428803 6.62242782 2.2778905 9.71679688 5.44165039 C10.24196899 5.95775375 10.76714111 6.47385712 11.30822754 7.00559998 C12.40915931 8.09741896 13.50130039 9.19816576 14.58496094 10.30712891 C16.24559811 11.99775116 17.94245924 13.64451072 19.64648438 15.29125977 C20.71400654 16.35981309 21.77919558 17.43070348 22.84179688 18.50415039 C23.34996948 18.9929921 23.85814209 19.4818338 24.38171387 19.98548889 C27.09477502 22.82881587 27.74950057 24.13726666 27.73022461 28.12158203 C26.80005178 31.26215809 26.42927346 32.46365173 23.93945312 34.42993164 C23.36195312 34.90333984 22.78445312 35.37674805 22.18945312 35.86450195 C21.56941406 36.34242187 20.949375 36.8203418 20.31054688 37.31274414 C19.02927275 38.34495426 17.74933354 39.37882349 16.47070312 40.41430664 C15.83793457 40.91994141 15.20516602 41.42557617 14.55322266 41.9465332 C11.19019696 44.72464532 8.12321396 47.8187402 5.02929688 50.89086914 C2.07583405 52.89355969 0.24661485 52.87987086 -3.25195312 52.43774414 C-5.72760348 49.96209379 -5.50430274 49.24468681 -5.51074219 45.83618164 C-5.51704651 44.88179199 -5.52335083 43.92740234 -5.52984619 42.9440918 C-5.52579773 41.91074707 -5.52174927 40.87740234 -5.51757812 39.81274414 C-5.51949158 38.75490723 -5.52140503 37.69707031 -5.52337646 36.60717773 C-5.52473915 34.36775475 -5.52103695 32.12832388 -5.51269531 29.88891602 C-5.50199715 26.45188737 -5.512588 23.01538144 -5.52539062 19.57836914 C-5.52406905 17.40649298 -5.52150668 15.23461715 -5.51757812 13.06274414 C-5.52365082 11.51272705 -5.52365082 11.51272705 -5.52984619 9.93139648 C-5.52354187 8.97700684 -5.51723755 8.02261719 -5.51074219 7.03930664 C-5.509151 6.19706543 -5.50755981 5.35482422 -5.50592041 4.48706055 C-5.04802828 0.79223092 -3.49707335 0.47073968 0 0 Z " fill="#78A1BF" transform="translate(37.251953125,35.562255859375)"/>
<path d="M0 0 C4.9710149 2.53240382 8.49430567 5.98861134 11 11 C11.61143762 16.91056366 10.91805264 20.4158042 7.47265625 25.30078125 C4.01613963 29.28906966 0.200795 30.20525585 -4.875 30.625 C-10.14199581 30.4895402 -12.7928691 28.38591839 -16.50390625 24.82421875 C-19.53762283 21.12514397 -19.33719997 17.07293097 -19.27734375 12.50390625 C-18.71819813 7.45584508 -15.97249426 4.85941353 -12.3125 1.625 C-8.0333271 -0.47421689 -4.68209654 -0.83218592 0 0 Z " fill="#414042" transform="translate(81,117)"/>
<path d="M0 0 C3.38524227 2.25682818 6.08238513 4.1603416 7.8125 7.875 C8.84700903 13.05483043 9.06118725 17.73865178 6.33984375 22.39453125 C3.0814494 26.23404052 0.72922424 28.41909994 -4.38671875 29.21875 C-9.72503113 29.55396585 -12.64226024 29.07388188 -16.75 25.5 C-20.57002353 21.76452427 -21.40339722 19.53954291 -21.625 14.1875 C-21.5923955 8.7555897 -20.67890734 6.02536806 -16.890625 2.1796875 C-11.58362512 -1.88576654 -6.19276001 -2.18568 0 0 Z " fill="#403F41" transform="translate(186.1875,118.125)"/>
<path d="M0 0 C2 2 2 2 2.125 4.3125 C-0.81808728 11.34320851 -12.63596482 15.03757299 -19.23681641 18.35864258 C-21.13391433 19.31700327 -23.021806 20.29211788 -24.91015625 21.26757812 C-26.12967855 21.88386196 -27.34971345 22.49913275 -28.5703125 23.11328125 C-29.66102051 23.66798096 -30.75172852 24.22268066 -31.87548828 24.79418945 C-35.20414148 26.07878221 -37.46642556 26.39631537 -41 26 C-41.66 25.34 -42.32 24.68 -43 24 C-42.9375 21.625 -42.9375 21.625 -42 19 C-37.85088282 15.13506893 -32.99742098 12.70295601 -28 10.125 C-27.16001465 9.68953857 -26.3200293 9.25407715 -25.45458984 8.80541992 C-22.97444464 7.52744634 -20.48849622 6.26162159 -18 5 C-17.31583008 4.6498584 -16.63166016 4.2997168 -15.92675781 3.93896484 C-14.16824059 3.04606021 -12.39704488 2.17824733 -10.625 1.3125 C-9.64789063 0.83425781 -8.67078125 0.35601562 -7.6640625 -0.13671875 C-4.60386363 -1.12836677 -3.02546482 -1.02408345 0 0 Z " fill="#252936" transform="translate(246,141)"/>
<path d="M0 0 C3.7129703 1.01676707 7.09411264 2.56706036 10.5546875 4.22265625 C11.28494141 4.5688501 12.01519531 4.91504395 12.76757812 5.27172852 C35.11863044 16.03659919 35.11863044 16.03659919 38.8671875 19.78515625 C39.0546875 22.22265625 39.0546875 22.22265625 38.8671875 24.78515625 C36.8671875 26.78515625 36.8671875 26.78515625 34.25512695 27.15405273 C29.78703161 26.66754325 26.58880492 24.98061412 22.66015625 22.8828125 C21.51115593 22.2870768 21.51115593 22.2870768 20.33894348 21.67930603 C17.90473988 20.41343195 15.47991088 19.13063574 13.0546875 17.84765625 C11.40485828 16.98785417 9.75447301 16.1291182 8.10351562 15.27148438 C-3.91459446 9.00337429 -3.91459446 9.00337429 -5.1328125 7.78515625 C-5.4310857 4.95156083 -5.48883844 3.34730247 -3.9453125 0.91015625 C-2.1328125 -0.21484375 -2.1328125 -0.21484375 0 0 Z " fill="#232734" transform="translate(14.1328125,140.21484375)"/>
<path d="M0 0 C4.99937882 0.28546965 8.96443842 2.26186086 13.3125 4.5625 C14.71767261 5.2885473 16.12396437 6.01243188 17.53125 6.734375 C18.25828125 7.10755859 18.9853125 7.48074219 19.734375 7.86523438 C24.26375614 10.13382958 28.88305491 12.22056285 33.50317383 14.29711914 C36.85399982 15.83729253 39.63135249 17.14150484 42 20 C42 22.5625 42 22.5625 41 25 C38.859375 26.33203125 38.859375 26.33203125 36 27 C33.52366117 26.17658684 31.53142522 25.32565452 29.25 24.125 C27.92225049 23.46278826 26.59410944 22.80136114 25.265625 22.140625 C24.22631836 21.6137207 24.22631836 21.6137207 23.16601562 21.07617188 C20.95753564 19.97890184 18.72905025 18.94288378 16.484375 17.921875 C15.73639648 17.5801123 14.98841797 17.23834961 14.21777344 16.88623047 C12.77994819 16.23063027 11.34058015 15.57839902 9.89941406 14.93017578 C5.17770929 12.74242979 1.15991266 10.1307676 -3 7 C-2.25 2.25 -2.25 2.25 0 0 Z " fill="#242936" transform="translate(206,181)"/>
<path d="M0 0 C1 1 1 1 1.375 3.3125 C1 6 1 6 -1.05273438 7.92041016 C-4.41686151 10.29413737 -7.84582286 12.14293674 -11.53125 13.9609375 C-12.24478638 14.31515778 -12.95832275 14.66937805 -13.69348145 15.03433228 C-15.19448244 15.77557823 -16.69724584 16.51326497 -18.20166016 17.24755859 C-20.50148481 18.37572837 -22.78747689 19.52918405 -25.07421875 20.68359375 C-26.538281 21.40263509 -28.00310037 22.12013732 -29.46875 22.8359375 C-30.48926453 23.35756973 -30.48926453 23.35756973 -31.53039551 23.88973999 C-34.664351 25.38611506 -36.46523773 26.11950446 -39.90820312 25.35009766 C-42 24 -42 24 -43 21.5625 C-43 19 -43 19 -41.85400391 17.52709961 C-39.50299723 15.59063045 -37.06619963 14.35648339 -34.3359375 13.00390625 C-32.65177734 12.16569336 -32.65177734 12.16569336 -30.93359375 11.31054688 C-29.75925781 10.73369141 -28.58492187 10.15683594 -27.375 9.5625 C-26.22386719 8.98951172 -25.07273437 8.41652344 -23.88671875 7.82617188 C-18.9010262 5.35606536 -13.9027284 2.91191095 -8.8515625 0.578125 C-8.17174316 0.26391602 -7.49192383 -0.05029297 -6.79150391 -0.37402344 C-4.25048736 -1.26189022 -2.46593842 -1.00178748 0 0 Z " fill="#232734" transform="translate(52,182)"/>
<path d="M0 0 C0.92748047 -0.00257813 1.85496094 -0.00515625 2.81054688 -0.0078125 C4.26750977 0.00378906 4.26750977 0.00378906 5.75390625 0.015625 C7.20506836 0.00402344 7.20506836 0.00402344 8.68554688 -0.0078125 C10.07870117 -0.00394531 10.07870117 -0.00394531 11.5 0 C12.35134521 0.00225586 13.20269043 0.00451172 14.07983398 0.00683594 C16.31640625 0.265625 16.31640625 0.265625 19.31640625 2.265625 C19.828125 4.5234375 19.828125 4.5234375 19.31640625 7.265625 C17.63957708 9.46811515 16.09094049 11.23651988 14.12890625 13.140625 C13.64615234 13.65109375 13.16339844 14.1615625 12.66601562 14.6875 C10.41984031 16.91860031 9.01107616 18.23346436 5.78515625 18.3828125 C2.5526384 16.91999588 0.50910687 15.02453703 -1.99609375 12.515625 C-3.32060547 11.22398437 -3.32060547 11.22398437 -4.671875 9.90625 C-6.68359375 7.265625 -6.68359375 7.265625 -7.1015625 4.5625 C-6.29064062 0.10621904 -4.00711627 0.01063198 0 0 Z " fill="#FAFBFC" transform="translate(121.68359375,147.734375)"/>
</svg>
