<?xml version="1.0" encoding="UTF-8"?>
<svg version="1.1" xmlns="http://www.w3.org/2000/svg" width="533" height="533">
<path d="M0 0 C1.72796114 -0.00417908 3.45591952 -0.00965973 5.18387288 -0.01631981 C9.90511619 -0.03071793 14.6261841 -0.02654737 19.34743679 -0.019153 C24.44982641 -0.01440961 29.55217873 -0.02694156 34.65455627 -0.03717041 C44.64029097 -0.05434113 54.6259627 -0.05520196 64.61170832 -0.04995751 C72.73105613 -0.04591116 80.85038536 -0.04736488 88.96973228 -0.05270576 C90.12665192 -0.05345419 91.28357156 -0.05420261 92.47554937 -0.05497371 C94.82606799 -0.05650524 97.17658662 -0.05804358 99.52710523 -0.05958868 C121.55578963 -0.07330761 143.58443849 -0.06788041 165.61312207 -0.05640347 C185.74872423 -0.04647294 205.88423447 -0.05940975 226.01982246 -0.08333766 C246.71420144 -0.10774358 267.40853764 -0.11733278 288.10293072 -0.11068493 C299.71356866 -0.10719588 311.32413593 -0.109404 322.93476295 -0.12693596 C332.81915041 -0.14167663 342.70341743 -0.14226902 352.58780257 -0.12486505 C357.62665769 -0.11636787 362.66529785 -0.11417413 367.70414162 -0.1295166 C372.32509405 -0.14341196 376.94564836 -0.13853854 381.56657805 -0.11927737 C383.23000035 -0.11553186 384.8934549 -0.11839709 386.55684832 -0.12888902 C407.37401238 -0.25076141 425.46554299 5.47444982 440.75102234 20.38768005 C454.96765549 36.40104409 459.22113165 53.81370167 459.13870239 74.63665771 C459.14288147 76.36461885 459.14836212 78.09257724 459.1550222 79.82053059 C459.16942032 84.54177391 459.16524976 89.26284181 459.15785539 93.9840945 C459.153112 99.08648413 459.16564395 104.18883644 459.1758728 109.29121399 C459.19304352 119.27694869 459.19390435 129.26262041 459.1886599 139.24836604 C459.18461356 147.36771384 459.18606728 155.48704308 459.19140816 163.60639 C459.19215658 164.76330964 459.192905 165.92022927 459.1936761 167.11220708 C459.19520763 169.46272571 459.19674598 171.81324433 459.19829107 174.16376295 C459.21201 196.19244735 459.2065828 218.2210962 459.19510586 240.24977978 C459.18517533 260.38538194 459.19811214 280.52089219 459.22204005 300.65648017 C459.24644597 321.35085915 459.25603517 342.04519536 459.24938732 362.73958844 C459.24589827 374.35022637 459.24810639 385.96079364 459.26563835 397.57142067 C459.28037902 407.45580812 459.28097141 417.34007515 459.26356744 427.22446028 C459.25507027 432.2633154 459.25287652 437.30195557 459.26821899 442.34079933 C459.28211436 446.96175177 459.27724094 451.58230608 459.25797976 456.20323577 C459.25423425 457.86665806 459.25709948 459.53011262 459.26759141 461.19350604 C459.3894638 482.01067009 453.66425257 500.10220071 438.75102234 515.38768005 C422.7376583 529.6043132 405.32500072 533.85778936 384.50204468 533.77536011 C382.77408354 533.77953919 381.04612515 533.78501984 379.3181718 533.79167992 C374.59692848 533.80607804 369.87586058 533.80190748 365.15460789 533.79451311 C360.05221827 533.78976972 354.94986595 533.80230166 349.8474884 533.81253052 C339.86175371 533.82970123 329.87608198 533.83056206 319.89033636 533.82531761 C311.77098855 533.82127127 303.65165932 533.82272499 295.53231239 533.82806587 C294.37539276 533.82881429 293.21847312 533.82956272 292.02649531 533.83033382 C289.67597668 533.83186534 287.32545806 533.83340369 284.97493944 533.83494879 C262.94625505 533.84866772 240.91760619 533.84324052 218.88892261 533.83176357 C198.75332045 533.82183304 178.61781021 533.83476986 158.48222222 533.85869776 C137.78784324 533.88310368 117.09350704 533.89269288 96.39911395 533.88604504 C84.78847602 533.88255599 73.17790875 533.88476411 61.56728172 533.90229607 C51.68289427 533.91703673 41.79862725 533.91762912 31.91424211 533.90022516 C26.87538699 533.89172798 21.83674683 533.88953424 16.79790306 533.90487671 C12.17695062 533.91877207 7.55639632 533.91389865 2.93546662 533.89463747 C1.27204433 533.89089196 -0.39141023 533.8937572 -2.05480365 533.90424912 C-22.8719677 534.02612152 -40.96349831 528.30091029 -56.24897766 513.38768005 C-70.46561081 497.37431602 -74.71908697 479.96165844 -74.63665771 459.13870239 C-74.64083679 457.41074126 -74.64631745 455.68278287 -74.65297753 453.95482951 C-74.66737565 449.2335862 -74.66320509 444.51251829 -74.65581071 439.79126561 C-74.65106732 434.68887598 -74.66359927 429.58652366 -74.67382812 424.48414612 C-74.69099884 414.49841142 -74.69185967 404.5127397 -74.68661522 394.52699407 C-74.68256888 386.40764627 -74.6840226 378.28831703 -74.68936348 370.16897011 C-74.6901119 369.01205047 -74.69086032 367.85513083 -74.69163143 366.66315303 C-74.69316295 364.3126344 -74.6947013 361.96211578 -74.69624639 359.61159716 C-74.70996532 337.58291276 -74.70453813 315.55426391 -74.69306118 293.52558032 C-74.68313065 273.38997816 -74.69606747 253.25446792 -74.71999537 233.11887994 C-74.74440129 212.42450095 -74.75399049 191.73016475 -74.74734265 171.03577167 C-74.7438536 159.42513373 -74.74606172 147.81456646 -74.76359367 136.20393944 C-74.77833434 126.31955199 -74.77892673 116.43528496 -74.76152276 106.55089983 C-74.75302559 101.51204471 -74.75083185 96.47340454 -74.76617432 91.43456078 C-74.78006968 86.81360834 -74.77519626 82.19305403 -74.75593508 77.57212434 C-74.75218957 75.90870205 -74.75505481 74.24524749 -74.76554673 72.58185407 C-74.88741913 51.76469001 -69.16220789 33.6731594 -54.24897766 18.38768005 C-38.23561362 4.1710469 -20.82295604 -0.08242925 0 0 Z " fill="#363D52" transform="translate(74.24897766113281,-0.3876800537109375)"/>
<path d="M0 0 C1.85625 0.0309375 1.85625 0.0309375 3.75 0.0625 C10.28622015 11.51427916 16.27354097 23.06927882 21.75 35.0625 C23.33868896 35.05464478 23.33868896 35.05464478 24.95947266 35.04663086 C28.90672961 35.02846594 32.8539829 35.01702611 36.80126953 35.00756836 C38.50635399 35.00255436 40.21143418 34.9957415 41.91650391 34.98706055 C44.37403419 34.97486615 46.83150738 34.96924225 49.2890625 34.96484375 C50.04555084 34.95968246 50.80203918 34.95452118 51.58145142 34.94920349 C55.74682563 34.9487667 59.66432259 35.24592962 63.75 36.0625 C63.8624707 35.35077637 63.97494141 34.63905273 64.09082031 33.90576172 C64.8023948 30.83650377 65.89288244 28.38849965 67.296875 25.5703125 C68.0703125 24.01763672 68.0703125 24.01763672 68.859375 22.43359375 C69.67148437 20.82677734 69.67148437 20.82677734 70.5 19.1875 C71.0259375 18.12402344 71.551875 17.06054688 72.09375 15.96484375 C73.59749845 12.96851329 75.15146532 10.00920908 76.75 7.0625 C77.35618164 5.91539551 77.35618164 5.91539551 77.97460938 4.74511719 C79.140625 2.8046875 79.140625 2.8046875 81.75 0.0625 C88.28616619 -1.05138041 94.20821361 1.03628809 100.4375 3 C101.92262085 3.45838257 101.92262085 3.45838257 103.43774414 3.92602539 C113.85051289 7.24222009 123.82153343 11.51938508 133.75 16.0625 C134.15784642 29.79332938 132.91812227 43.39143074 131.75 57.0625 C132.3790625 56.42183594 133.008125 55.78117187 133.65625 55.12109375 C134.5121875 54.25613281 135.368125 53.39117187 136.25 52.5 C137.50296875 51.22962891 137.50296875 51.22962891 138.78125 49.93359375 C140.93185427 47.80581627 143.16956364 45.82039462 145.46679688 43.85229492 C149.58551196 40.26103856 153.43179369 36.46071401 157.25 32.5546875 C158.64554196 31.14163926 160.04138433 29.72888766 161.4375 28.31640625 C163.59972811 26.12321897 165.75951288 23.92778321 167.9140625 21.72705078 C170.01916769 19.57936506 172.13382227 17.44145659 174.25 15.3046875 C174.88357422 14.65249237 175.51714844 14.00029724 176.16992188 13.32833862 C180.87109547 8.60072709 185.98588437 3.87704653 192.65625 2.43359375 C198.82241957 2.59146255 203.6872619 3.36418777 208.75 7.0625 C212.79872554 11.32431636 215.00102039 15.03293298 214.99723816 20.93858337 C215.00353367 22.41257473 215.00353367 22.41257473 215.00995636 23.91634369 C215.00152332 25.52771084 215.00152332 25.52771084 214.99291992 27.17163086 C214.99479561 28.31103874 214.9966713 29.45044662 214.99860382 30.62438202 C215.00227301 34.42543638 214.99148929 38.22630569 214.98046875 42.02734375 C214.9796124 44.70671396 214.97948376 47.38607559 214.98017883 50.06544495 C214.9799059 56.49430634 214.96838359 62.92310007 214.95258409 69.35194021 C214.94012744 74.50676166 214.93222293 79.66157237 214.92724609 84.81640625 C214.88456755 127.56979435 214.67297757 170.31765762 213.75 213.0625 C213.23727539 213.33106308 212.72455078 213.59962616 212.19628906 213.87632751 C201.3743518 219.54846989 190.59928295 225.28525222 179.90625 231.19726562 C179.0090625 231.69033203 178.111875 232.18339844 177.1875 232.69140625 C176.40246094 233.12525635 175.61742187 233.55910645 174.80859375 234.00610352 C172.75 235.0625 172.75 235.0625 169.75 236.0625 C169.41357071 241.46169711 169.41357071 241.46169711 170.8125 246.5625 C173.79678768 248.87291627 176.04340082 248.36299066 179.75 248.0625 C182.43762545 246.99574835 184.83061713 245.91049243 187.36328125 244.5625 C188.05890671 244.20736328 188.75453217 243.85222656 189.47123718 243.48632812 C191.67539586 242.35820334 193.86909383 241.21136967 196.0625 240.0625 C198.27542399 238.91724638 200.49031799 237.7760082 202.70732117 236.63867188 C204.08234773 235.93182061 205.45469773 235.21973349 206.8240509 234.50195312 C211.52974586 232.0625 211.52974586 232.0625 213.75 232.0625 C213.87116376 250.76086406 213.70111274 269.38173505 212.75 288.0625 C208.59132048 287.43607998 205.31946765 286.03150521 201.56640625 284.15625 C200.39142578 283.57746094 199.21644531 282.99867188 198.00585938 282.40234375 C196.15722352 281.48305662 194.30990947 280.56120354 192.46362305 279.63720703 C190.66783589 278.74110756 188.8671628 277.85482089 187.06640625 276.96875 C185.99849854 276.43572266 184.93059082 275.90269531 183.83032227 275.35351562 C179.57185533 273.56871946 176.30647419 272.52111767 171.875 274.0625 C169.42198394 275.97634419 169.42198394 275.97634419 169.125 279.4375 C169.91289326 284.00728088 171.26609823 285.06970808 174.75 288.0625 C177.1613919 289.40890091 179.47969752 290.59646949 181.984375 291.7265625 C182.66300598 292.04531342 183.34163696 292.36406433 184.04083252 292.69247437 C186.18924734 293.70115831 188.34365277 294.69589859 190.5 295.6875 C193.35460036 297.00131164 196.20239469 298.32850755 199.046875 299.6640625 C199.7041156 299.96100006 200.3613562 300.25793762 201.03851318 300.56387329 C202.64749256 301.31973276 204.20482138 302.18354539 205.75 303.0625 C206.75 306.0625 206.75 306.0625 205.89453125 308 C203.46678922 311.75908443 201.44726935 314.47441146 197.75 317.0625 C197.30527344 317.82691406 196.86054688 318.59132813 196.40234375 319.37890625 C182.14883846 342.52821627 144.18304861 352.65221736 119.86401367 358.60229492 C107.60768368 361.47083625 95.27775954 363.7795934 82.75 365.0625 C81.83831055 365.1567627 80.92662109 365.25102539 79.98730469 365.34814453 C68.41500256 366.35294678 56.80370637 366.2842855 45.19628906 366.30273438 C41.54989164 366.31236819 37.90407665 366.34343915 34.2578125 366.375 C-14.61780546 366.59586309 -74.68034259 357.33605374 -111.125 321.5625 C-122.25 310.09940304 -122.25 310.09940304 -122.25 304.0625 C-121.37786865 303.62905273 -120.5057373 303.19560547 -119.60717773 302.74902344 C-116.3427916 301.12594448 -113.07977197 299.50013429 -109.81713867 297.87353516 C-108.41027811 297.17260474 -107.00305793 296.47239563 -105.59545898 295.77294922 C-103.5613647 294.76203104 -101.52861816 293.74844512 -99.49609375 292.734375 C-98.56596718 292.27318268 -98.56596718 292.27318268 -97.61705017 291.80267334 C-89.74333702 288.45887843 -89.74333702 288.45887843 -84.12890625 282.703125 C-84.02449219 281.91421875 -83.92007813 281.1253125 -83.8125 280.3125 C-83.69003906 279.51328125 -83.56757813 278.7140625 -83.44140625 277.890625 C-83.37824219 277.28734375 -83.31507813 276.6840625 -83.25 276.0625 C-86.87414932 274.04908371 -90.29184522 272.52250074 -94.43139648 273.6640625 C-95.15399658 274.00179688 -95.87659668 274.33953125 -96.62109375 274.6875 C-97.43658691 275.06140869 -98.25208008 275.43531738 -99.09228516 275.82055664 C-100.3769165 276.4353186 -100.3769165 276.4353186 -101.6875 277.0625 C-102.56970215 277.47169678 -103.4519043 277.88089355 -104.36083984 278.30249023 C-110.87584175 281.34475605 -117.3131666 284.53644879 -123.6953125 287.84765625 C-126.25 289.0625 -126.25 289.0625 -128.25 289.0625 C-128.42102625 285.00017164 -128.58598818 280.93761713 -128.75 276.875 C-128.79769531 275.74384766 -128.84539062 274.61269531 -128.89453125 273.44726562 C-129.33681004 262.35870459 -129.45489996 251.32836011 -128.75 240.25 C-128.70230469 239.45013672 -128.65460938 238.65027344 -128.60546875 237.82617188 C-128.4904129 235.90473922 -128.37074152 233.98358375 -128.25 232.0625 C-123.87295669 233.39713407 -120.04671559 235.11915106 -116.0390625 237.3203125 C-114.86496473 237.95253172 -113.69047308 238.58401991 -112.515625 239.21484375 C-110.69265913 240.19942192 -108.87288712 241.18866782 -107.05957031 242.19091797 C-97.72071827 247.55120267 -97.72071827 247.55120267 -87.25 248.0625 C-84.60485273 245.91331784 -84.3246902 244.45254883 -83.6875 241.125 C-84.32959646 237.62914151 -85.35377442 236.65405907 -88.08081055 234.5012207 C-93.06665406 231.19434666 -98.56119609 228.72815249 -103.9375 226.125 C-105.78241561 225.22409665 -107.62609915 224.32076547 -109.46870422 223.41514587 C-111.15234932 222.58883343 -112.83913231 221.76892328 -114.52612305 220.94946289 C-117.72346627 219.36224506 -120.85139089 217.65793415 -123.98274231 215.94456482 C-124.97007764 215.40471671 -125.95741297 214.8648686 -126.97466755 214.30866146 C-127.72552726 213.89742818 -128.47638697 213.4861949 -129.25 213.0625 C-129.32006042 187.48053463 -129.37297366 161.89858363 -129.40543652 136.31654167 C-129.42090977 124.43853423 -129.4420081 112.56058638 -129.47631836 100.68261719 C-129.50620661 90.33058544 -129.52557167 79.97859684 -129.53226548 69.62652314 C-129.53617869 64.14445347 -129.54538494 58.66250727 -129.56719017 53.18047714 C-129.58754616 48.02101557 -129.59383555 42.86172837 -129.58932304 37.70223045 C-129.59014864 35.80837367 -129.59611952 33.91451108 -129.60761642 32.02068901 C-129.62254664 29.43454808 -129.61895172 26.84906515 -129.61076355 24.26290894 C-129.61950207 23.51386917 -129.6282406 22.7648294 -129.63724393 21.99309146 C-129.58952619 16.41557053 -128.35204029 12.2956252 -124.49609375 8.19921875 C-123.89925781 7.72097656 -123.30242187 7.24273437 -122.6875 6.75 C-122.08808594 6.25886719 -121.48867187 5.76773438 -120.87109375 5.26171875 C-117.94626464 3.09804999 -115.85088081 2.82048708 -112.25 2.6875 C-110.9196875 2.61402344 -110.9196875 2.61402344 -109.5625 2.5390625 C-100.63621768 3.94958353 -94.18545046 9.4106009 -88.1171875 15.7421875 C-87.39564484 16.47317657 -86.67410217 17.20416565 -85.93069458 17.95730591 C-83.64987926 20.27238485 -81.38693647 22.60398633 -79.125 24.9375 C-76.85251562 27.26027984 -74.57640461 29.57941431 -72.29788208 31.89627075 C-70.88887499 33.3312665 -69.48385594 34.77019394 -68.08370972 36.21383667 C-64.19133293 40.2036333 -60.18276252 43.96744321 -55.94924927 47.59428406 C-53.95998311 49.31308561 -52.08938873 51.12229067 -50.25 53 C-49.6725 53.58652344 -49.095 54.17304688 -48.5 54.77734375 C-48.0875 55.20144531 -47.675 55.62554687 -47.25 56.0625 C-47.35828125 54.8559375 -47.35828125 54.8559375 -47.46875 53.625 C-48.13695834 45.16102773 -48.35979255 36.74082643 -48.375 28.25 C-48.37951172 27.18201172 -48.38402344 26.11402344 -48.38867188 25.01367188 C-48.38673828 24.01271484 -48.38480469 23.01175781 -48.3828125 21.98046875 C-48.38168457 21.08094482 -48.38055664 20.1814209 -48.37939453 19.25463867 C-48.25 17.0625 -48.25 17.0625 -47.25 15.0625 C-45.0625 14.1328125 -45.0625 14.1328125 -42.25 13.1875 C-38.73315465 11.99856649 -35.35878603 10.67669651 -31.98828125 9.12890625 C-27.24330995 6.99063581 -22.41026002 5.39324949 -17.4375 3.875 C-16.60541016 3.61525391 -15.77332031 3.35550781 -14.91601562 3.08789062 C-4.71303822 -0.07855064 -4.71303822 -0.07855064 0 0 Z " fill="#478BBE" transform="translate(224.25,84.9375)"/>
<path d="M0 0 C1.72796114 -0.00417908 3.45591952 -0.00965973 5.18387288 -0.01631981 C9.90511619 -0.03071793 14.6261841 -0.02654737 19.34743679 -0.019153 C24.44982641 -0.01440961 29.55217873 -0.02694156 34.65455627 -0.03717041 C44.64029097 -0.05434113 54.6259627 -0.05520196 64.61170832 -0.04995751 C72.73105613 -0.04591116 80.85038536 -0.04736488 88.96973228 -0.05270576 C90.12665192 -0.05345419 91.28357156 -0.05420261 92.47554937 -0.05497371 C94.82606799 -0.05650524 97.17658662 -0.05804358 99.52710523 -0.05958868 C121.55578963 -0.07330761 143.58443849 -0.06788041 165.61312207 -0.05640347 C185.74872423 -0.04647294 205.88423447 -0.05940975 226.01982246 -0.08333766 C246.71420144 -0.10774358 267.40853764 -0.11733278 288.10293072 -0.11068493 C299.71356866 -0.10719588 311.32413593 -0.109404 322.93476295 -0.12693596 C332.81915041 -0.14167663 342.70341743 -0.14226902 352.58780257 -0.12486505 C357.62665769 -0.11636787 362.66529785 -0.11417413 367.70414162 -0.1295166 C372.32509405 -0.14341196 376.94564836 -0.13853854 381.56657805 -0.11927737 C383.23000035 -0.11553186 384.8934549 -0.11839709 386.55684832 -0.12888902 C407.37401238 -0.25076141 425.46554299 5.47444982 440.75102234 20.38768005 C454.96765549 36.40104409 459.22113165 53.81370167 459.13870239 74.63665771 C459.14288147 76.36461885 459.14836212 78.09257724 459.1550222 79.82053059 C459.16942032 84.54177391 459.16524976 89.26284181 459.15785539 93.9840945 C459.153112 99.08648413 459.16564395 104.18883644 459.1758728 109.29121399 C459.19304352 119.27694869 459.19390435 129.26262041 459.1886599 139.24836604 C459.18461356 147.36771384 459.18606728 155.48704308 459.19140816 163.60639 C459.19215658 164.76330964 459.192905 165.92022927 459.1936761 167.11220708 C459.19520763 169.46272571 459.19674598 171.81324433 459.19829107 174.16376295 C459.21201 196.19244735 459.2065828 218.2210962 459.19510586 240.24977978 C459.18517533 260.38538194 459.19811214 280.52089219 459.22204005 300.65648017 C459.24644597 321.35085915 459.25603517 342.04519536 459.24938732 362.73958844 C459.24589827 374.35022637 459.24810639 385.96079364 459.26563835 397.57142067 C459.28037902 407.45580812 459.28097141 417.34007515 459.26356744 427.22446028 C459.25507027 432.2633154 459.25287652 437.30195557 459.26821899 442.34079933 C459.28211436 446.96175177 459.27724094 451.58230608 459.25797976 456.20323577 C459.25423425 457.86665806 459.25709948 459.53011262 459.26759141 461.19350604 C459.3894638 482.01067009 453.66425257 500.10220071 438.75102234 515.38768005 C422.7376583 529.6043132 405.32500072 533.85778936 384.50204468 533.77536011 C382.77408354 533.77953919 381.04612515 533.78501984 379.3181718 533.79167992 C374.59692848 533.80607804 369.87586058 533.80190748 365.15460789 533.79451311 C360.05221827 533.78976972 354.94986595 533.80230166 349.8474884 533.81253052 C339.86175371 533.82970123 329.87608198 533.83056206 319.89033636 533.82531761 C311.77098855 533.82127127 303.65165932 533.82272499 295.53231239 533.82806587 C294.37539276 533.82881429 293.21847312 533.82956272 292.02649531 533.83033382 C289.67597668 533.83186534 287.32545806 533.83340369 284.97493944 533.83494879 C262.94625505 533.84866772 240.91760619 533.84324052 218.88892261 533.83176357 C198.75332045 533.82183304 178.61781021 533.83476986 158.48222222 533.85869776 C137.78784324 533.88310368 117.09350704 533.89269288 96.39911395 533.88604504 C84.78847602 533.88255599 73.17790875 533.88476411 61.56728172 533.90229607 C51.68289427 533.91703673 41.79862725 533.91762912 31.91424211 533.90022516 C26.87538699 533.89172798 21.83674683 533.88953424 16.79790306 533.90487671 C12.17695062 533.91877207 7.55639632 533.91389865 2.93546662 533.89463747 C1.27204433 533.89089196 -0.39141023 533.8937572 -2.05480365 533.90424912 C-22.8719677 534.02612152 -40.96349831 528.30091029 -56.24897766 513.38768005 C-70.46561081 497.37431602 -74.71908697 479.96165844 -74.63665771 459.13870239 C-74.64083679 457.41074126 -74.64631745 455.68278287 -74.65297753 453.95482951 C-74.66737565 449.2335862 -74.66320509 444.51251829 -74.65581071 439.79126561 C-74.65106732 434.68887598 -74.66359927 429.58652366 -74.67382812 424.48414612 C-74.69099884 414.49841142 -74.69185967 404.5127397 -74.68661522 394.52699407 C-74.68256888 386.40764627 -74.6840226 378.28831703 -74.68936348 370.16897011 C-74.6901119 369.01205047 -74.69086032 367.85513083 -74.69163143 366.66315303 C-74.69316295 364.3126344 -74.6947013 361.96211578 -74.69624639 359.61159716 C-74.70996532 337.58291276 -74.70453813 315.55426391 -74.69306118 293.52558032 C-74.68313065 273.38997816 -74.69606747 253.25446792 -74.71999537 233.11887994 C-74.74440129 212.42450095 -74.75399049 191.73016475 -74.74734265 171.03577167 C-74.7438536 159.42513373 -74.74606172 147.81456646 -74.76359367 136.20393944 C-74.77833434 126.31955199 -74.77892673 116.43528496 -74.76152276 106.55089983 C-74.75302559 101.51204471 -74.75083185 96.47340454 -74.76617432 91.43456078 C-74.78006968 86.81360834 -74.77519626 82.19305403 -74.75593508 77.57212434 C-74.75218957 75.90870205 -74.75505481 74.24524749 -74.76554673 72.58185407 C-74.88741913 51.76469001 -69.16220789 33.6731594 -54.24897766 18.38768005 C-38.23561362 4.1710469 -20.82295604 -0.08242925 0 0 Z M-47.24116516 35.6415863 C-53.92268491 44.77992947 -57.49357599 54.54424544 -57.50624657 65.85098648 C-57.50975264 66.5606739 -57.51325872 67.27036133 -57.51687104 68.00155443 C-57.52613791 70.36774897 -57.52127402 72.73369483 -57.5164032 75.09989929 C-57.52014184 76.8182952 -57.52474421 78.53668941 -57.53013384 80.25508094 C-57.54235282 84.96831462 -57.54210467 89.68147727 -57.53974509 94.39472318 C-57.53933665 99.48144194 -57.5503787 104.56813802 -57.55986023 109.65484619 C-57.57646509 119.61738217 -57.58196954 129.57989447 -57.58308499 139.54244313 C-57.58403569 147.6414097 -57.5881471 155.74036847 -57.59448624 163.83933258 C-57.61209712 186.80703274 -57.62132533 209.77471422 -57.61982529 232.74242118 C-57.61974538 233.98032243 -57.61966546 235.21822368 -57.61958313 236.49363708 C-57.61950137 237.73305171 -57.61941961 238.97246633 -57.61933537 240.24943897 C-57.61852248 260.33558678 -57.63766134 280.42165959 -57.66585986 300.50778571 C-57.69459289 321.13760865 -57.70839993 341.76739503 -57.70667231 362.39723849 C-57.70600856 373.97710509 -57.71149428 385.55689307 -57.73302841 397.13674164 C-57.75124566 406.99605334 -57.755583 416.85525079 -57.74200957 426.71457204 C-57.73548277 431.74290591 -57.73535245 436.7710206 -57.75271606 441.79933357 C-57.76846432 446.4073294 -57.76556521 451.01493258 -57.7481478 455.62291893 C-57.74508178 457.28506442 -57.74869522 458.94723935 -57.75986795 460.60935012 C-57.86237162 476.94743215 -54.02403881 490.97643257 -42.67475891 503.1806488 C-29.69459951 514.99029464 -16.02192288 516.84216172 0.82400513 516.77536011 C2.5449917 516.77953818 4.26597552 516.78501828 5.98695427 516.79167992 C10.69344573 516.80609098 15.39976142 516.80190341 20.10626233 516.79451311 C25.19088884 516.78977301 30.27547778 516.80229868 35.36009216 516.81253052 C45.31220421 516.82970698 55.2642531 516.83056096 65.21637612 516.82531761 C73.30669279 516.82127277 81.39699081 516.82272321 89.48730659 516.82806587 C90.63967717 516.82881429 91.79204774 516.82956272 92.97933863 516.83033382 C95.32052199 516.83186533 97.66170534 516.83340367 100.00288869 516.83494879 C121.94659085 516.84866949 143.89025734 516.843239 165.83395869 516.83176357 C185.90051944 516.82183021 205.96698799 516.83477444 226.03353452 516.85869776 C246.64989654 516.88309098 267.26621562 516.89269617 287.88259178 516.88604504 C299.45234837 516.88255351 311.02203405 516.88478066 322.59177971 516.90229607 C332.44004552 516.91702073 342.28819047 516.91764987 352.13645392 516.90022516 C357.15872854 516.89171531 362.18078728 516.88956539 367.20305061 516.90487671 C371.80538267 516.91873387 376.40731411 516.91394737 381.00962306 516.89463747 C382.66965713 516.89088035 384.32972336 516.8937911 385.98972874 516.90424912 C402.50655053 517.00086124 416.3652371 513.05394492 428.68070984 501.6181488 C436.94341137 492.71625715 441.86809892 480.4797622 441.88524342 468.41935825 C441.88759565 467.7145858 441.88994788 467.00981335 441.89237139 466.28368416 C441.89905502 463.91017671 441.89860335 461.53672408 441.89819336 459.16320801 C441.90149239 457.44897819 441.90521805 455.73474915 441.90933484 454.0205211 C441.91935871 449.30019903 441.92307227 444.57988967 441.92572415 439.85955846 C441.92962613 434.7720742 441.93920463 429.68460002 441.94793701 424.59712219 C441.96770583 412.30496066 441.97776878 400.01279829 441.9866648 387.72062483 C441.99104756 381.93190768 441.99641446 376.14319145 442.00165367 370.35447502 C442.01866739 351.11050767 442.03316105 331.86654089 442.04040241 312.62256718 C442.04231231 307.62784894 442.04423264 302.6331307 442.04618835 297.63841248 C442.04667209 296.39699816 442.04715583 295.15558384 442.04765423 293.87655091 C442.05595255 273.7714285 442.08128549 253.66636564 442.11376903 233.56126923 C442.14684824 212.9191421 442.16485201 192.27704522 442.16804665 171.63489145 C442.17021109 160.04542662 442.17895001 148.45604857 442.20450783 136.86660957 C442.22622666 126.99515823 442.23425943 117.12381475 442.22454105 107.25234223 C442.21999963 102.21783213 442.22187344 97.18354453 442.24130249 92.14906502 C442.25895835 87.53407968 442.25791675 82.91947875 442.2424052 78.30448919 C442.24003279 76.64085753 442.2443335 74.97719908 442.25623385 73.3136083 C442.36252187 57.46501511 439.39558465 44.02149685 428.53227234 31.9150238 C419.12203894 22.76448841 406.5899839 17.14517884 393.41355705 17.13041115 C392.70532307 17.12690507 391.99708909 17.123399 391.26739347 17.11978668 C388.90011206 17.11050129 386.5330782 17.11538855 384.16578674 17.12025452 C382.44896658 17.1165168 380.73214811 17.11191479 379.01533234 17.10652387 C374.30176995 17.09429322 369.58827853 17.09455443 364.87470388 17.09691262 C359.78931173 17.09732078 354.70394234 17.08628167 349.61856079 17.07679749 C339.65622061 17.06018554 329.69390409 17.05468783 319.73155122 17.05357273 C311.63209258 17.05262223 303.53264175 17.04851186 295.43318558 17.04217148 C272.46464293 17.02455761 249.49611897 17.0153327 226.52756952 17.01683243 C225.28936559 17.01691234 224.05116166 17.01699225 222.7754364 17.01707458 C220.91585968 17.01719723 220.91585968 17.01719723 219.01871575 17.01732235 C198.93317992 17.01813502 178.84771912 16.99900242 158.76220499 16.97079785 C138.13353889 16.94205945 117.50490936 16.92825812 96.87622273 16.9299854 C85.29686829 16.93064903 73.71759247 16.92516876 62.13825607 16.9036293 C52.27785079 16.88540484 42.41755977 16.88108052 32.55714492 16.89464815 C27.52869411 16.9011717 22.50046243 16.90131712 17.47203255 16.88394165 C12.86271102 16.86817863 8.25378179 16.87110752 3.64446963 16.88850991 C1.9829494 16.89157273 0.32139965 16.88797468 -1.34008576 16.87678976 C-19.72623833 16.76128046 -34.97449052 21.19856616 -47.24116516 35.6415863 Z " fill="#212532" transform="translate(74.24897766113281,-0.3876800537109375)"/>
<path d="M0 0 C6.68958766 0.54979409 13.37907411 1.1006192 20.06835938 1.65405273 C22.34174713 1.84183042 24.61518416 2.02901259 26.88867188 2.21557617 C30.16549758 2.48458003 33.44213733 2.7557588 36.71875 3.02734375 C37.72740112 3.10967758 38.73605225 3.19201141 39.77526855 3.27684021 C45.20476038 3.72915553 50.59930354 4.28009389 56 5 C57.9738106 17.26445424 57.9738106 17.26445424 58.21484375 23.3515625 C58.24392822 24.06441406 58.2730127 24.77726562 58.30297852 25.51171875 C58.37214308 27.54117117 58.41706378 29.57140586 58.4609375 31.6015625 C59.09754683 35.61496915 59.8645375 36.52115011 63 39 C65.71579808 39.72369577 65.71579808 39.72369577 68.75561523 39.82128906 C69.91459824 39.90106995 71.07358124 39.98085083 72.26768494 40.06304932 C73.51868484 40.12989929 74.76968475 40.19674927 76.05859375 40.265625 C78.00150047 40.39031158 78.00150047 40.39031158 79.98365784 40.51751709 C82.72936119 40.69313468 85.47541061 40.8567755 88.22241211 41.01074219 C91.70615483 41.20600364 95.18834212 41.42035477 98.67045498 41.64264297 C114.45691496 42.65918778 114.45691496 42.65918778 130.26586914 43.17089844 C131.32060928 43.18747498 132.37534943 43.20405151 133.46205139 43.22113037 C136.16939201 43.25931503 136.16939201 43.25931503 138 41 C138.51325954 38.83846499 138.92691891 36.65285925 139.2890625 34.4609375 C139.58611084 32.70209229 139.58611084 32.70209229 139.88916016 30.90771484 C140.1319873 29.41191895 140.37481445 27.91612305 140.625 26.375 C141.40875 21.63125 142.1925 16.8875 143 12 C161.15 12 179.3 12 198 12 C199.45417568 19.27087842 200.76531752 26.50059519 201.85546875 33.82617188 C202.43543885 37.48996147 202.91442931 39.87164396 205 43 C208.06315082 43.44095898 208.06315082 43.44095898 211.82421875 43.296875 C212.55912033 43.28622009 213.29402191 43.27556519 214.05119324 43.2645874 C225.04353912 43.03042683 236.02263127 42.27213485 246.98852539 41.51074219 C250.84883959 41.24752214 254.71026762 41.01049857 258.57226562 40.7734375 C261.03396408 40.60577277 263.49555767 40.43655937 265.95703125 40.265625 C267.10798782 40.19877502 268.2589444 40.13192505 269.44477844 40.06304932 C270.51076767 39.98326843 271.5767569 39.90348755 272.67504883 39.82128906 C273.60972488 39.75911194 274.54440094 39.69693481 275.50740051 39.63287354 C278.6879451 38.82533004 279.96397099 37.53272626 282 35 C282.71141685 32.18159144 282.71141685 32.18159144 282.79296875 29.0625 C282.86580078 27.92039062 282.93863281 26.77828125 283.01367188 25.6015625 C283.07103516 24.41304688 283.12839844 23.22453125 283.1875 22 C283.32411216 19.64567447 283.46332553 17.29149806 283.60546875 14.9375 C283.65856201 13.89464844 283.71165527 12.85179687 283.76635742 11.77734375 C283.96701173 9.39213641 284.33158636 7.29052687 285 5 C303.66331812 2.86104829 322.25486218 1.24329996 341 0 C341 8.25 341 16.5 341 25 C336.58670303 24.11734061 333.77256338 23.07048405 329.81640625 21.09375 C328.05393555 20.22556641 328.05393555 20.22556641 326.25585938 19.33984375 C324.40722352 18.42055662 322.55990947 17.49870354 320.71362305 16.57470703 C318.91783589 15.67860756 317.1171628 14.79232089 315.31640625 13.90625 C314.24849854 13.37322266 313.18059082 12.84019531 312.08032227 12.29101562 C307.82185533 10.50621946 304.55647419 9.45861767 300.125 11 C297.67198394 12.91384419 297.67198394 12.91384419 297.375 16.375 C298.16289326 20.94478088 299.51609823 22.00720808 303 25 C305.4113919 26.34640091 307.72969752 27.53396949 310.234375 28.6640625 C310.91300598 28.98281342 311.59163696 29.30156433 312.29083252 29.62997437 C314.43924734 30.63865831 316.59365277 31.63339859 318.75 32.625 C321.60460036 33.93881164 324.45239469 35.26600755 327.296875 36.6015625 C327.9541156 36.89850006 328.6113562 37.19543762 329.28851318 37.50137329 C330.89749256 38.25723276 332.45482138 39.12104539 334 40 C335 43 335 43 334.14453125 44.9375 C331.71678922 48.69658443 329.69726935 51.41191146 326 54 C325.55527344 54.76441406 325.11054688 55.52882813 324.65234375 56.31640625 C310.39883846 79.46571627 272.43304861 89.58971736 248.11401367 95.53979492 C235.85768368 98.40833625 223.52775954 100.7170934 211 102 C210.08831055 102.0942627 209.17662109 102.18852539 208.23730469 102.28564453 C196.66500256 103.29044678 185.05370637 103.2217855 173.44628906 103.24023438 C169.79989164 103.24986819 166.15407665 103.28093915 162.5078125 103.3125 C113.63219454 103.53336309 53.56965741 94.27355374 17.125 58.5 C6 47.03690304 6 47.03690304 6 41 C7.30819702 40.3498291 7.30819702 40.3498291 8.64282227 39.68652344 C11.9072084 38.06344448 15.17022803 36.43763429 18.43286133 34.81103516 C19.83972189 34.11010474 21.24694207 33.40989563 22.65454102 32.71044922 C24.6886353 31.69953104 26.72138184 30.68594512 28.75390625 29.671875 C29.37399063 29.36441345 29.99407501 29.0569519 30.63294983 28.74017334 C38.50666298 25.39637843 38.50666298 25.39637843 44.12109375 19.640625 C44.22550781 18.85171875 44.32992187 18.0628125 44.4375 17.25 C44.62119141 16.05117188 44.62119141 16.05117188 44.80859375 14.828125 C44.90333984 13.92320312 44.90333984 13.92320312 45 13 C41.37585068 10.98658371 37.95815478 9.46000074 33.81860352 10.6015625 C33.09600342 10.93929688 32.37340332 11.27703125 31.62890625 11.625 C30.81341309 11.99890869 29.99791992 12.37281738 29.15771484 12.75805664 C28.30129395 13.16789795 27.44487305 13.57773926 26.5625 14 C25.68029785 14.40919678 24.7980957 14.81839355 23.88916016 15.23999023 C17.37415825 18.28225605 10.9368334 21.47394879 4.5546875 24.78515625 C2 26 2 26 0 26 C0 17.42 0 8.84 0 0 Z " fill="#478BBE" transform="translate(96,348)"/>
<path d="M0 0 C11.52753126 -0.1580588 22.92733132 0.88626362 34.40551758 1.86157227 C37.01833862 2.07953865 39.63198548 2.28781463 42.24633789 2.48657227 C46.03746323 2.77520046 49.82509675 3.09325553 53.61328125 3.41796875 C54.78103592 3.50153122 55.94879059 3.58509369 57.15193176 3.67118835 C65.17828797 4.40654131 65.17828797 4.40654131 69.22998047 7.33276367 C70.96129237 9.94167161 71.63802824 11.1841708 71.70703125 14.2578125 C71.73611572 15.04373779 71.7652002 15.82966309 71.79516602 16.6394043 C71.80374634 17.86977417 71.80374634 17.86977417 71.8125 19.125 C71.84911743 20.38727417 71.84911743 20.38727417 71.88647461 21.67504883 C71.9505606 24.11712431 71.98137244 26.55720272 72 29 C72.02320313 30.82724609 72.02320313 30.82724609 72.046875 32.69140625 C72.05959007 35.12952036 72.03989589 37.56242156 72 40 C73.40620605 39.97498413 73.40620605 39.97498413 74.84082031 39.94946289 C84.74956648 39.85178299 94.50010703 40.352073 104.36816406 41.22680664 C106.78910502 41.44095917 109.2108028 41.64403077 111.6328125 41.84570312 C113.18755411 41.97853486 114.7422439 42.11197485 116.296875 42.24609375 C117.01349304 42.3065538 117.73011108 42.36701385 118.46844482 42.42930603 C121.72809466 42.72167321 124.85702919 43.06266707 128 44 C128.04898438 43.30777344 128.09796875 42.61554688 128.1484375 41.90234375 C128.60352248 35.94700761 129.14413121 29.99776173 129.8125 24.0625 C130.00779297 22.22365234 130.00779297 22.22365234 130.20703125 20.34765625 C131.13109043 16.44657881 132.13432198 14.78970299 135 12 C138.22546387 11.37181091 138.22546387 11.37181091 142.09179688 11.36889648 C142.79796646 11.36174118 143.50413605 11.35458588 144.23170471 11.34721375 C146.56138191 11.33033191 148.88913313 11.34972321 151.21875 11.37109375 C152.8401302 11.37026499 154.46151032 11.36780533 156.08288574 11.36378479 C159.47918012 11.36092718 162.87481489 11.37562349 166.27099609 11.40307617 C170.62259468 11.43715968 174.97301384 11.43114085 179.32466888 11.4124136 C182.67219864 11.40184067 186.01945434 11.41078393 189.36695862 11.42579842 C190.97131028 11.43097859 192.57569059 11.4305004 194.18003845 11.42425346 C196.42338508 11.41879738 198.66504838 11.43918529 200.90820312 11.46655273 C202.18409302 11.47275131 203.45998291 11.47894989 204.77453613 11.4853363 C208.54756564 12.08737105 209.71875213 12.99663503 212 16 C212.72949219 18.28662109 212.72949219 18.28662109 213.046875 20.7734375 C213.23056641 22.1346875 213.23056641 22.1346875 213.41796875 23.5234375 C213.52753906 24.46445312 213.63710938 25.40546875 213.75 26.375 C213.87503906 27.30828125 214.00007812 28.2415625 214.12890625 29.203125 C214.72696299 33.84299377 215.05622461 38.31546794 215 43 C216.23451904 42.90912109 217.46903809 42.81824219 218.7409668 42.72460938 C223.37946398 42.38441203 228.01839424 42.05045831 232.6574707 41.71826172 C234.65433633 41.57442175 236.6510854 41.42895296 238.64770508 41.28173828 C249.4458016 40.48668685 260.16562101 39.72255769 271 40 C270.97921387 39.3603833 270.95842773 38.7207666 270.93701172 38.06176758 C270.7619159 31.53427831 271.1976489 25.06171403 271.75 18.5625 C271.8425708 17.24813965 271.8425708 17.24813965 271.93701172 15.90722656 C272.0145166 15.07288086 272.09202148 14.23853516 272.171875 13.37890625 C272.2347168 12.6319751 272.29755859 11.88504395 272.36230469 11.11547852 C273.24852433 8.17555004 274.65617342 6.96161705 277 5 C279.53970337 4.3291626 279.53970337 4.3291626 282.43603516 4.08691406 C283.52461823 3.98711243 284.61320129 3.88731079 285.73477173 3.78448486 C286.90768768 3.69576111 288.08060364 3.60703735 289.2890625 3.515625 C291.10946548 3.35764435 291.10946548 3.35764435 292.96664429 3.19647217 C296.85155037 2.86407612 300.73803572 2.55728321 304.625 2.25 C307.22018564 2.02890585 309.81524018 1.80626709 312.41015625 1.58203125 C314.91134199 1.3710123 317.41264128 1.16133402 319.9140625 0.953125 C321.65521835 0.80789398 321.65521835 0.80789398 323.43154907 0.659729 C329.97881375 0.14426386 336.432547 -0.09354691 343 0 C343 4.29 343 8.58 343 13 C332.61836999 14.47121066 322.26748385 15.58958593 311.81713867 16.43261719 C309.40827096 16.62736303 307.00003844 16.82892172 304.59179688 17.03125 C303.03909508 17.15924997 301.48636177 17.28686843 299.93359375 17.4140625 C299.22416122 17.47340973 298.5147287 17.53275696 297.78379822 17.59390259 C293.84483428 17.90817896 289.9510707 18.05778109 286 18 C285.96559814 18.88260498 285.93119629 19.76520996 285.89575195 20.67456055 C285.75615555 23.96535627 285.59530314 27.25370244 285.42016602 30.54272461 C285.34885815 31.96322262 285.28591822 33.38416743 285.23168945 34.80541992 C285.15199894 36.85511737 285.04178364 38.90129372 284.92578125 40.94921875 C284.86817627 42.17987061 284.81057129 43.41052246 284.7512207 44.6784668 C283.75005162 49.1051504 282.79227942 50.45927981 279 53 C274.9793961 53.92404183 270.97134983 54.14189586 266.859375 54.36328125 C265.66378967 54.44499069 264.46820435 54.52670013 263.23638916 54.61088562 C259.40864772 54.86638283 255.57973765 55.08916288 251.75 55.3125 C249.21861691 55.4804276 246.68736396 55.65032917 244.15625 55.82226562 C237.10721671 56.28776891 230.05689459 56.67559342 223 57 C222.05552002 57.04429138 221.11104004 57.08858276 220.13793945 57.13421631 C217.72190492 57.2351189 215.30816305 57.30459935 212.890625 57.35546875 C211.60704102 57.38664795 210.32345703 57.41782715 209.00097656 57.44995117 C206 57 206 57 204.14233398 55.35327148 C202.77513417 52.5367639 202.2781165 50.09277578 201.83203125 46.9921875 C201.66123047 45.84105469 201.49042969 44.68992187 201.31445312 43.50390625 C201.06598633 41.70759766 201.06598633 41.70759766 200.8125 39.875 C200.63525391 38.66972656 200.45800781 37.46445312 200.27539062 36.22265625 C199 27.44757481 199 27.44757481 199 25 C180.85 25 162.7 25 144 25 C143.34 30.61 142.68 36.22 142 42 C140.44816972 53.38008874 140.44816972 53.38008874 138.82116699 55.63056946 C136.23066227 57.57850521 134.41475613 57.3189597 131.20117188 57.23120117 C130.03577881 57.20375824 128.87038574 57.17631531 127.66967773 57.14804077 C125.85318726 57.07476059 125.85318726 57.07476059 124 57 C122.86312744 56.95622223 121.72625488 56.91244446 120.55493164 56.86734009 C112.91827418 56.52475766 105.28852155 56.04190992 97.65917969 55.56567383 C94.87264303 55.39306304 92.08581361 55.23396063 89.29785156 55.08618164 C85.24879806 54.87146442 81.20293431 54.61883694 77.15625 54.36328125 C75.91041138 54.30159256 74.66457275 54.23990387 73.38098145 54.17634583 C64.90307003 53.59326656 64.90307003 53.59326656 60.7355957 50.85546875 C58.61681486 47.36956908 58.2646424 45.01736034 58.07421875 40.94921875 C58.01824272 39.96100883 58.01824272 39.96100883 57.96113586 38.95283508 C57.84789215 36.8648218 57.76722747 34.77703421 57.6875 32.6875 C57.61608482 31.26486427 57.54253888 29.8423338 57.46679688 28.41992188 C57.28653059 24.94749059 57.13542788 21.47450211 57 18 C55.93910156 17.96261719 54.87820312 17.92523438 53.78515625 17.88671875 C42.32487226 17.42347353 30.92035627 16.53402689 19.5 15.5 C18.39484543 15.40143204 18.39484543 15.40143204 17.2673645 15.3008728 C15.1466156 15.11071756 13.02637799 14.91569589 10.90625 14.71875 C9.05483398 14.54762695 9.05483398 14.54762695 7.16601562 14.37304688 C4 14 4 14 0 13 C0 8.71 0 4.42 0 0 Z " fill="#FBFCFD" transform="translate(95,335)"/>
<path d="M0 0 C10.08054786 6.29483993 16.48261051 14.23574549 19.68359375 25.67578125 C20.81527776 38.13746451 19.46464008 48.95137155 11.30078125 58.90234375 C4.75688035 66.07850561 -2.74556954 71.41198557 -12.7109375 72.08984375 C-26.43208937 72.54959514 -35.8305948 70.02359766 -46.31640625 60.67578125 C-53.75260288 51.88206393 -56.69986612 42.28212612 -56.6015625 30.87890625 C-55.61979204 19.85079968 -49.78425254 11.15606391 -41.5 4.13671875 C-29.76226341 -5.18915415 -13.55310342 -6.67316465 0 0 Z " fill="#FAFBFC" transform="translate(374.31640625,238.32421875)"/>
<path d="M0 0 C7.69629842 5.4714861 14.77573644 14.03713797 16.57421875 23.52734375 C17.70497786 34.9338763 16.21316838 46.03786005 9.32421875 55.46484375 C5.84355079 59.50834313 2.09720029 62.70904654 -2.42578125 65.52734375 C-3.04453125 65.94113281 -3.66328125 66.35492188 -4.30078125 66.78125 C-12.4328416 71.33965102 -23.32420487 70.54008825 -32.2734375 69.0546875 C-34.49264145 68.40105953 -36.3833761 67.61031261 -38.42578125 66.52734375 C-39.16828125 66.13675781 -39.91078125 65.74617188 -40.67578125 65.34375 C-48.99728948 60.38176959 -55.35784169 52.73116244 -58.42578125 43.52734375 C-61.25568793 31.46948051 -59.46517966 21.26702784 -53.42578125 10.52734375 C-41.84260593 -7.11515686 -17.46487226 -10.60266803 0 0 Z " fill="#FBFCFC" transform="translate(198.42578125,240.47265625)"/>
<path d="M0 0 C2.87305972 1.40460697 4.74510999 2.74510999 7 5 C7.19820303 7.44280109 7.27282364 9.77221521 7.25878906 12.21606445 C7.2622937 12.95934998 7.26579834 13.7026355 7.26940918 14.46844482 C7.27823415 16.93348445 7.27237296 19.39823853 7.265625 21.86328125 C7.26697186 23.57480423 7.26891257 25.28632684 7.27142334 26.99784851 C7.27437599 30.5899926 7.27007406 34.18203736 7.26074219 37.77416992 C7.24937332 42.37429667 7.25588988 46.97418938 7.26788712 51.57430744 C7.27512396 55.11138156 7.27280896 58.64840049 7.26763153 62.1854763 C7.26629874 63.88111588 7.26792977 65.57676049 7.27259064 67.27239418 C7.27768297 69.64698106 7.26990663 72.02119291 7.25878906 74.39575195 C7.26283752 75.09464035 7.26688599 75.79352875 7.27105713 76.51359558 C7.23714793 80.43307487 6.88822717 83.53453591 5 87 C1.25268643 89.49820905 -0.5604938 89.49063212 -5 89 C-7.703125 87.12890625 -7.703125 87.12890625 -10.25 84.5625 C-11.66732422 83.18578125 -11.66732422 83.18578125 -13.11328125 81.78125 C-13.5923291 81.31203125 -14.07137695 80.8428125 -14.56494141 80.359375 C-16.74833251 78.29113382 -19.08615422 76.43543344 -21.4375 74.5625 C-26.02770494 70.85754887 -30.39331441 66.9734403 -34.71044922 62.95874023 C-37.60206951 60.27013242 -40.5431719 57.66875628 -43.5625 55.125 C-46.37120577 52.66153098 -48.63021775 50.56143386 -50 47 C-49.90580399 41.84045949 -48.06534114 39.4907409 -44.59344482 36.00131226 C-43.97995178 35.41048859 -43.36645874 34.81966492 -42.734375 34.2109375 C-42.10396301 33.58522858 -41.47355103 32.95951965 -40.82403564 32.31484985 C-38.81079222 30.32290089 -36.7805873 28.34924897 -34.75 26.375 C-33.39864962 25.04016505 -32.04837686 23.7042382 -30.69921875 22.3671875 C-20.48796899 12.29488022 -20.48796899 12.29488022 -15 8 C-11.63816351 4.74905888 -11.63816351 4.74905888 -8.625 1.1875 C-5.83612889 -0.8505212 -3.32442413 -0.34390594 0 0 Z " fill="#77A0BE" transform="translate(420,113)"/>
<path d="M0 0 C5.12917469 2.59204545 8.46527433 6.53508336 12 11 C15.03511998 14.12898967 18.17888374 17.11348866 21.40332031 20.04638672 C24.29023121 22.67462334 27.14618461 25.33592477 30 28 C30.61166016 28.56944336 31.22332031 29.13888672 31.85351562 29.72558594 C33.66718826 31.42722072 35.46072289 33.14776718 37.25 34.875 C37.81074219 35.39771484 38.37148437 35.92042969 38.94921875 36.45898438 C41.38156614 38.83977328 42.92656528 40.80089882 44.109375 44.0078125 C43.91811242 49.24021031 40.91366273 52.07004611 37.37109375 55.67578125 C36.40300781 56.54589844 35.43492187 57.41601562 34.4375 58.3125 C33.9108374 58.7876001 33.3841748 59.2627002 32.84155273 59.75219727 C28.63406592 63.51619393 24.26890812 67.06742739 19.8671875 70.6015625 C15.96650351 73.86453249 12.2654707 77.32599431 8.59008789 80.83959961 C0.34742123 88.6244126 0.34742123 88.6244126 -5.125 89.5 C-8.68265806 88.88127686 -9.81849679 87.82787454 -12 85 C-13.16772508 81.49682477 -13.17842224 78.31713123 -13.20874023 74.67041016 C-13.21852402 73.92697861 -13.2283078 73.18354706 -13.23838806 72.41758728 C-13.26829588 69.95809716 -13.28971189 67.4986611 -13.30859375 65.0390625 C-13.31516558 64.19854717 -13.3217374 63.35803185 -13.32850838 62.49204636 C-13.36107825 58.04484489 -13.38553752 53.59766719 -13.4050293 49.15039062 C-13.4228584 45.47002398 -13.45770645 41.79042125 -13.50756836 38.11035156 C-13.56772207 33.66532216 -13.59849743 29.22100222 -13.60820198 24.77558517 C-13.61676404 23.08265296 -13.63560092 21.38974009 -13.6649456 19.69704056 C-13.70383372 17.32664424 -13.70490034 14.95901811 -13.69702148 12.58837891 C-13.71702209 11.89106155 -13.73702271 11.1937442 -13.75762939 10.47529602 C-13.71678356 7.73446593 -13.49423954 5.61015528 -11.73832893 3.44242477 C-7.80314268 -0.01710584 -5.15851279 -0.90500224 0 0 Z " fill="#77A0BE" transform="translate(118,113)"/>
<path d="M0 0 C5.87753918 5.87753918 8.87236013 11.62265574 9.1875 19.9375 C9.1035316 26.92553654 6.83850858 32.47685333 2.1328125 37.6640625 C-4.90558417 44.01426038 -11.1765507 45.38175023 -20.5546875 45.15234375 C-27.49076159 44.50348521 -31.26545655 42.04210264 -36 37.0625 C-41.10910124 30.72861421 -42.85739848 24.76344807 -42.59765625 16.62109375 C-41.50457077 9.13606078 -37.72525175 3.55228869 -31.8359375 -1.03125 C-22.04058202 -7.90192588 -9.60382855 -6.59086273 0 0 Z " fill="#434244" transform="translate(197.1875,255.1875)"/>
<path d="M0 0 C6.61184029 3.40298516 11.75329847 8.61241665 14.76171875 15.4140625 C15.99959783 23.66658971 16.60191229 30.86967454 11.9453125 38.125 C7.80406168 43.33399501 3.05289551 47.99948383 -3.67578125 49.1640625 C-12.37541401 49.8294735 -18.7344956 49.10530396 -26.30078125 44.6015625 C-32.25348711 38.49220649 -35.29191497 32.83900311 -35.42578125 24.1640625 C-35.28129907 16.96515372 -33.6392178 11.48058905 -28.67578125 6.1640625 C-20.33317149 -0.74554796 -10.66807079 -3.33279876 0 0 Z " fill="#424143" transform="translate(362.67578125,250.8359375)"/>
<path d="M0 0 C2.9375 1.5 2.9375 1.5 5 4 C5.70990707 6.81654187 5.91948911 9.23071516 5 12 C1.64594992 14.96949465 -1.79602685 17.09499717 -5.78076172 19.11621094 C-6.91899384 19.69651062 -8.05722595 20.2768103 -9.22994995 20.87469482 C-10.46292178 21.49513307 -11.69617469 22.11501299 -12.9296875 22.734375 C-14.20620401 23.37873079 -15.4826618 24.02320291 -16.75906372 24.66778564 C-19.42817645 26.01354618 -22.09980244 27.35416668 -24.77294922 28.69189453 C-28.188156 30.402143 -31.59375922 32.13064925 -34.99735832 33.86385727 C-37.62810053 35.19970801 -40.26510988 36.5227963 -42.90399551 37.84247589 C-44.16211441 38.47421821 -45.41795103 39.11052815 -46.67135239 39.75157928 C-48.42764909 40.64816034 -50.19390096 41.52515776 -51.96044922 42.40136719 C-52.96018768 42.90448425 -53.95992615 43.40760132 -54.98995972 43.92596436 C-58.53797592 45.19195933 -61.25862971 45.33728151 -65 45 C-67.9236459 42.4511805 -68.84909176 40.80484394 -69.5625 37 C-68.78968393 32.8783143 -67.16872764 31.74052812 -64 29 C-61.12449962 27.21557265 -58.13381103 25.70613537 -55.10546875 24.19921875 C-54.24045242 23.75914993 -53.3754361 23.31908112 -52.48420715 22.86567688 C-49.72317103 21.46378074 -46.95554011 20.0755065 -44.1875 18.6875 C-42.36999478 17.76716009 -40.55293317 16.84594358 -38.73632812 15.92382812 C-35.18168945 14.1209753 -31.62119975 12.33051184 -28.05615234 10.54833984 C-24.80171329 8.91829803 -21.569761 7.25433717 -18.35400391 5.54931641 C-17.27437126 4.98528862 -17.27437126 4.98528862 -16.17292786 4.40986633 C-14.85118647 3.71818494 -13.53490167 3.01591513 -12.22587585 2.30046082 C-7.9934781 0.10702049 -4.73620631 -0.44159849 0 0 Z " fill="#212633" transform="translate(462,289)"/>
<path d="M0 0 C4.27550829 1.63455451 8.26961968 3.73718063 12.3125 5.875 C14.0308606 6.75986084 14.0308606 6.75986084 15.78393555 7.66259766 C19.19791916 9.42571464 22.59982286 11.21043308 26 13 C27.82250774 13.94870266 29.64538796 14.89669031 31.46875 15.84375 C35.30963731 17.84545628 39.13599179 19.87294184 42.95605469 21.9140625 C44.93570131 22.96583844 46.92322619 24.00084262 48.9140625 25.03125 C50.65816406 25.94390625 50.65816406 25.94390625 52.4375 26.875 C53.42621094 27.38804687 54.41492188 27.90109375 55.43359375 28.4296875 C58.07723216 30.04725621 59.99909697 31.63698458 62 34 C62.63656938 37.73984509 62.25584708 39.50962644 60.5 42.875 C57.58627613 45.35166529 55.90873735 45.39892284 52.1628418 45.28967285 C48.50697906 44.80003732 45.60958108 43.2420912 42.40625 41.484375 C41.35419373 40.93327812 41.35419373 40.93327812 40.28088379 40.37104797 C38.01237884 39.17888241 35.75646539 37.96477395 33.5 36.75 C31.93712026 35.92330276 30.37331006 35.09836229 28.80859375 34.27514648 C26.45222254 33.03528079 24.09646852 31.79440979 21.74389648 30.54734802 C13.91780586 26.40276676 5.98976968 22.4821293 -1.97851562 18.61816406 C-2.87248047 18.17827148 -3.76644531 17.73837891 -4.6875 17.28515625 C-5.45449219 16.91269775 -6.22148438 16.54023926 -7.01171875 16.15649414 C-9.09493778 14.94477894 -10.51155637 13.8972456 -12 12 C-12.75 5.25 -12.75 5.25 -10.5 1.5 C-6.95309674 -0.62814196 -3.97882299 -0.67196494 0 0 Z " fill="#212533" transform="translate(79,289)"/>
<path d="M0 0 C1.6875 1.875 1.6875 1.875 2.25 5.25 C1.53711741 9.84413226 0.17008927 10.87114942 -3.3125 13.875 C-5.62223215 15.20527101 -7.84656811 16.37752643 -10.25 17.5 C-11.68261193 18.19204575 -13.11488488 18.88479351 -14.546875 19.578125 C-15.31451172 19.94615234 -16.08214844 20.31417969 -16.87304688 20.69335938 C-20.34588768 22.37556009 -23.78795839 24.11704361 -27.23266602 25.85595703 C-30.9619075 27.73456037 -34.70199732 29.59098047 -38.44287109 31.44628906 C-40.38097709 32.41121983 -42.31614143 33.38207844 -44.24853516 34.35839844 C-47.09596234 35.79564859 -49.95287879 37.21220045 -52.8125 38.625 C-53.67834717 39.06763184 -54.54419434 39.51026367 -55.4362793 39.96630859 C-60.11378987 42.24935171 -63.11166937 43.56884851 -68.3125 41.875 C-70.6875 40.8125 -70.6875 40.8125 -72.3125 38.875 C-73.18820621 33.44562147 -73.18820621 33.44562147 -72.3125 30.875 C-67.30831818 25.65805534 -60.92180273 23.06054042 -54.4375 20.0625 C-52.17786911 18.99979505 -49.91875356 17.93599364 -47.66015625 16.87109375 C-46.56719238 16.35788574 -45.47422852 15.84467773 -44.34814453 15.31591797 C-40.48926303 13.48423721 -36.67961671 11.56606045 -32.875 9.625 C-27.17185328 6.7535066 -21.42477154 3.98365498 -15.625 1.3125 C-14.86968994 0.95317383 -14.11437988 0.59384766 -13.33618164 0.22363281 C-8.15871892 -2.11906814 -5.25462282 -2.556303 0 0 Z " fill="#212533" transform="translate(139.3125,359.125)"/>
<path d="M0 0 C0.90298828 0.43909195 0.90298828 0.43909195 1.82421875 0.88705444 C3.74059984 1.82114793 5.65151599 2.76586024 7.5625 3.7109375 C8.81346241 4.3223101 10.06476239 4.93299248 11.31640625 5.54296875 C18.70964903 9.15366563 26.06871232 12.83243616 33.42431641 16.51904297 C36.05143468 17.83076267 38.68415476 19.12868389 41.32421875 20.4140625 C41.98744141 20.73890625 42.65066406 21.06375 43.33398438 21.3984375 C44.65217246 22.0434225 45.97262583 22.68379177 47.29492188 23.3203125 C53.70083421 26.4755583 53.70083421 26.4755583 55.5625 29.0859375 C56.28656181 34.15437017 56.28656181 34.15437017 55.5625 37.0859375 C52.9375 39.6484375 52.9375 39.6484375 49.5625 41.0859375 C43.51811598 40.84307763 38.42150311 37.81673031 33.1171875 35.16796875 C32.11092316 34.67310471 31.10465881 34.17824066 30.06790161 33.66838074 C26.85410232 32.08570625 23.64579927 30.4922269 20.4375 28.8984375 C18.30243341 27.84499331 16.16702005 26.79225162 14.03125 25.74023438 C9.96683548 23.73700732 5.9069622 21.72501655 1.85058594 19.70556641 C-1.25438204 18.16117792 -4.36495139 16.63430936 -7.49902344 15.14990234 C-8.56926758 14.63766113 -9.63951172 14.12541992 -10.7421875 13.59765625 C-11.60569824 13.19377686 -12.46920898 12.78989746 -13.35888672 12.3737793 C-15.76502035 10.88301645 -16.99265703 9.5124592 -18.4375 7.0859375 C-19.07802288 1.00097018 -19.07802288 1.00097018 -17.125 -1.7890625 C-11.28890283 -5.67979395 -5.70286302 -2.79685464 0 0 Z " fill="#212533" transform="translate(411.4375,360.9140625)"/>
<path d="M0 0 C0.72015289 -0.0033284 1.44030579 -0.0066568 2.18228149 -0.01008606 C3.70712647 -0.01515175 5.23198255 -0.0174945 6.75683594 -0.01733398 C9.08547351 -0.01951617 11.41363405 -0.03766321 13.7421875 -0.05664062 C15.22395671 -0.05957552 16.70572818 -0.06155967 18.1875 -0.0625 C19.2298732 -0.07327827 19.2298732 -0.07327827 20.29330444 -0.08427429 C23.91616661 -0.06722927 26.70512173 0.05926454 29.7265625 2.16796875 C31.38842833 5.4917004 31.2606167 7.46273753 30.7265625 11.16796875 C28.41297001 14.5139667 25.59204544 17.23365509 22.6640625 20.04296875 C21.53581055 21.19925781 21.53581055 21.19925781 20.38476562 22.37890625 C14.1323894 28.52842953 14.1323894 28.52842953 9.90234375 29.34765625 C6.40880077 29.14998961 5.40695631 28.84836256 2.9765625 26.41796875 C1.99429687 25.45117188 1.99429687 25.45117188 0.9921875 24.46484375 C0.24453125 23.706875 -0.503125 22.94890625 -1.2734375 22.16796875 C-2.73523438 20.84539062 -2.73523438 20.84539062 -4.2265625 19.49609375 C-5.24336624 18.55465693 -6.25899767 17.61195231 -7.2734375 16.66796875 C-8.2221875 15.79140625 -9.1709375 14.91484375 -10.1484375 14.01171875 C-12.79847847 10.46534039 -12.80064817 8.49936617 -12.2734375 4.16796875 C-9.01254275 -0.27870591 -5.11463042 0.00814303 0 0 Z " fill="#FEFEFE" transform="translate(257.2734375,301.83203125)"/>
</svg>
