<svg xmlns="http://www.w3.org/2000/svg" xmlns:xlink="http://www.w3.org/1999/xlink" width="1024" height="1024" viewBox="0 0 270.933 270.933"><defs><linearGradient xlink:href="#a" id="b" x1="269.585" x2="488.27" y1="847.204" y2="393.079" gradientTransform="translate(5.168 5.035)scale(.2513)" gradientUnits="userSpaceOnUse"/><linearGradient id="a"><stop offset=".045" stop-color="#7f24ce"/><stop offset="1" stop-color="#f87cfe"/></linearGradient></defs><path fill="url(#b)" stroke="#fff" stroke-linecap="round" stroke-linejoin="round" stroke-width="25" d="m 79.259926,23.642227 c 3.849802,5.204917 7.625372,10.000868 9.633462,16.369163 6.879641,18.034996 1.888016,37.920261 -7.064988,54.272101 -13.713242,26.927389 -27.022314,56.618739 -23.185996,87.546869 3.875106,27.93931 23.734633,53.57719 51.067976,61.87255 27.43809,9.15913 59.76306,0.0362 78.15963,-22.35465 12.62224,-14.71474 19.97298,-35.10133 16.51425,-54.47541 -5.26267,-21.54276 -22.0493,-39.47045 -43.28139,-45.95871 -12.8645,-4.2985 -27.40717,-12.19185 -36.59249,-22.113134 -1.16009,7.032644 -2.73502,15.734664 -5.18181,23.788224 -2.44679,8.05358 -6.62764,19.93336 -8.34017,28.43655 7.44978,-7.80989 16.70429,-10.40764 25.27343,-10.34264 21.51097,0.16401 40.42251,19.22935 39.57327,40.66807 -0.1738,20.93575 -19.25588,39.5275 -40.28914,38.68848 -20.95274,0.0946 -38.910616,-18.45103 -39.537954,-39.14185 -0.286878,-15.70219 6.094644,-30.57278 10.397994,-45.44712 8.33173,-24.6935 11.90566,-44.920414 11.76671,-58.955675 C 118.034,62.459767 114.51363,48.453318 104.94376,38.071898 95.727611,28.074225 82.649065,23.57651 79.259926,23.642227 Z m 68.189234,6.384438 c -8.42799,5.853402 -16.13838,14.821644 -18.85459,24.386703 -2.71622,9.565067 -3.30383,19.262859 0.37511,32.388042 3.67917,13.125165 21.35076,23.56625 35.95202,28.49186 17.80318,6.14173 33.24208,19.17395 40.81599,36.60299 1.76684,3.44395 7.84186,18.47252 7.17476,6.09715 0.60625,-21.34779 -8.47411,-42.80952 -25.18656,-56.34523 -12.33948,-11.079696 -29.77033,-17.071053 -37.39518,-32.856671 -6.60248,-11.581672 -6.21169,-25.77612 -2.28882,-38.173061 l -0.29587,-0.295892 z M 137.25353,149.85084 c -0.53558,-0.004 -1.07345,0.009 -1.61307,0.0392 h -9.6e-4 c -13.74209,0.004 -26.66039,10.15925 -29.33756,23.7396 -4.50486,17.64872 9.99845,37.7543 28.73718,37.06682 16.13312,1.5704 30.93776,-12.43503 31.53188,-28.36588 1.7135,-16.6687 -12.7149,-32.3779 -29.31749,-32.47966 z" paint-order="stroke fill markers" style="mix-blend-mode:normal"/></svg>