<svg xmlns="http://www.w3.org/2000/svg" xmlns:xlink="http://www.w3.org/1999/xlink" width="1024" height="414"><defs><linearGradient xlink:href="#a" id="b" x1="455.851" x2="524.112" y1="527.88" y2="597.427" gradientTransform="matrix(3.65798 0 0 3.65699 -1573.307 -1858.728)" gradientUnits="userSpaceOnUse"/><linearGradient id="a"><stop offset="0" stop-color="#ff1300"/><stop offset="1" stop-color="#ff6e01"/></linearGradient></defs><path fill="url(#b)" d="m 168.09063,44.474048 -8.28902,26.185209 c -9.02877,3.904391 -18.05582,7.808139 -27.08461,11.71519 -9.57833,-2.01729 -19.18289,-4.353455 -28.89036,-5.524087 -1.53531,1.724292 -40.304121,61.34802 -40.293669,61.96409 1.786585,4.37373 4.85375,8.13588 7.174174,12.2288 l 141.023485,49.53116 141.02173,-49.53116 c 2.32045,-4.09292 5.38937,-7.85507 7.17418,-12.2288 0,-0.61619 -38.76008,-60.239914 -40.29541,-61.96409 -9.70748,1.171515 -19.31025,3.506797 -28.88864,5.524087 -9.02702,-3.907051 -18.05753,-7.810799 -27.08459,-11.71519 L 255.36714,44.474048 Z M 81.449242,169.0577 c -0.174459,-0.0634 -0.523387,0.20539 -0.523387,0.29414 -1.692347,13.84889 -5.017736,41.55578 -5.017736,41.55578 l 8.59262,37.14386 65.007221,29.53123 62.23841,-23.27256 62.24016,23.27256 65.00724,-29.53123 8.5926,-37.14386 c 0,0 -3.31841,-27.70689 -5.01773,-41.55578 0,-0.1141 -0.62811,-0.54517 -0.62811,-0.1141 -42.55479,15.12637 -86.94674,29.77514 -130.18372,44.69513 -43.23869,-14.91999 -87.63065,-29.56888 -130.187179,-44.69513 0,-0.10157 0,-0.1623 -0.174459,-0.18132 z m 30.549558,31.54498 60.85486,22.46463 a 33.143528,33.13454 0 0 1 -1.58768,6.45523 33.143528,33.13454 0 0 1 -42.57396,19.60611 33.143528,33.13454 0 0 1 -19.61209,-42.56171 33.143528,33.13454 0 0 1 2.91711,-5.96426 z m 199.46192,0 a 33.143528,33.13454 0 0 1 2.91713,5.96426 33.143528,33.13454 0 0 1 -19.61207,42.56171 33.143528,33.13454 0 0 1 -42.57398,-19.60611 33.143528,33.13454 0 0 1 -1.58768,-6.45523 z m -246.81637,25.06718 -15.609748,15.4648 23.387593,81.98403 73.913885,30.31097 -3.97615,-63.77625 -70.098251,-32.61124 z m 294.17084,0 -7.61738,31.37217 -70.09646,32.61138 -3.9779,63.77625 73.91563,-30.31097 23.38761,-81.98403 z m -147.08456,42.22852 -55.42889,21.931 3.3638,68.895 52.06334,21.20541 52.06336,-21.20541 3.36553,-68.895 z" style="font-variation-settings:normal;-inkscape-stroke:none"/><text xml:space="preserve" x="486.8" y="329.874" fill="#4d4d4d" stroke-width=".311" font-family="Futura" font-size="82.497" font-weight="700" style="-inkscape-font-specification:&quot;Futura, Bold&quot;;font-variant-ligatures:normal;font-variant-caps:normal;font-variant-numeric:normal;font-variant-east-asian:normal"><tspan x="486.8" y="329.874" style="-inkscape-font-specification:&quot;Futura, Bold&quot;;font-variant-ligatures:normal;font-variant-caps:normal;font-variant-numeric:normal;font-variant-east-asian:normal">ENGINE</tspan></text><text xml:space="preserve" x="399.241" y="225.705" fill="#4d4d4d" stroke-width=".954" font-family="Futura" font-size="157.69" font-weight="700" style="-inkscape-font-specification:&quot;Futura, Bold&quot;;font-variant-ligatures:normal;font-variant-caps:normal;font-variant-numeric:normal;font-variant-east-asian:normal"><tspan x="399.241" y="225.705" style="-inkscape-font-specification:&quot;Futura, Bold&quot;;font-variant-ligatures:normal;font-variant-caps:normal;font-variant-numeric:normal;font-variant-east-asian:normal">REDOT</tspan></text></svg>