<?xml version="1.0" encoding="UTF-8" ?>
<!DOCTYPE svg PUBLIC "-//W3C//DTD SVG 1.1//EN" "http://www.w3.org/Graphics/SVG/1.1/DTD/svg11.dtd">
<svg width="512pt" height="207pt" viewBox="0 0 512 207" version="1.1" xmlns="http://www.w3.org/2000/svg">
<g id="#ffffffff">
<path fill="#ffffff" opacity="1.00" d=" M 106.25 22.18 C 114.60 14.19 126.44 8.33 138.21 10.75 C 144.27 11.53 149.54 15.05 154.19 18.81 C 163.43 27.33 167.56 39.84 169.29 51.97 C 171.15 65.04 168.97 78.88 162.35 90.36 C 165.76 93.70 166.97 98.49 167.26 103.10 C 168.14 111.31 165.92 119.87 160.85 126.43 C 161.67 129.22 162.84 132.15 161.89 135.07 C 159.39 145.30 156.18 155.95 148.67 163.72 C 136.70 176.17 119.52 181.70 102.84 184.20 C 92.93 185.32 82.86 185.20 73.00 183.68 C 69.34 183.31 66.50 180.44 65.39 177.05 C 59.47 177.94 53.49 177.08 47.77 175.50 C 37.85 173.24 30.19 165.44 25.20 156.92 C 17.60 142.97 16.97 125.64 22.97 111.00 C 28.28 98.04 38.24 87.30 50.15 80.08 C 59.96 73.82 71.78 70.61 80.09 62.11 C 91.52 50.69 95.19 33.88 106.25 22.18 M 108.08 36.03 C 102.13 46.06 97.58 57.05 90.04 66.07 C 83.01 74.51 73.03 79.61 63.27 84.22 C 53.08 89.01 43.77 96.06 37.30 105.36 C 32.13 112.85 28.66 121.79 28.96 131.00 C 28.44 142.51 32.97 154.51 42.11 161.79 C 46.47 165.62 52.41 166.82 58.02 167.35 C 70.30 168.36 82.97 160.75 87.28 149.12 C 90.80 139.63 86.63 128.20 78.15 122.83 C 70.71 117.88 60.40 118.37 53.00 123.13 C 45.77 127.92 46.22 139.99 53.16 144.84 C 55.84 146.74 59.28 146.48 62.38 146.94 C 56.76 148.64 49.96 147.74 46.07 142.99 C 39.67 135.10 42.27 122.07 50.76 116.71 C 64.69 107.71 85.43 112.87 93.88 127.05 C 100.07 137.41 99.22 151.07 93.29 161.34 C 89.56 167.89 82.78 171.90 75.77 174.10 C 91.09 175.92 106.96 175.02 121.47 169.46 C 131.95 165.41 142.43 158.80 147.29 148.26 C 149.56 142.48 151.91 136.59 152.41 130.34 C 145.63 132.12 138.79 134.42 131.66 133.37 C 139.03 130.96 146.60 127.91 151.81 121.91 C 157.59 115.35 159.35 105.05 155.39 97.18 C 146.61 103.78 136.75 109.42 125.62 110.58 C 135.18 105.75 144.23 99.41 150.52 90.60 C 157.42 81.32 160.69 69.55 159.86 58.03 C 159.18 48.00 156.79 37.58 150.53 29.49 C 145.59 23.12 137.27 18.87 129.12 20.45 C 120.28 22.31 112.70 28.36 108.08 36.03 Z" />
</g>
<g id="#478cbfff">
<path fill="#478cbf" opacity="1.00" d=" M 108.08 36.03 C 112.70 28.36 120.28 22.31 129.12 20.45 C 137.27 18.87 145.59 23.12 150.53 29.49 C 156.79 37.58 159.18 48.00 159.86 58.03 C 160.69 69.55 157.42 81.32 150.52 90.60 C 144.23 99.41 135.18 105.75 125.62 110.58 C 136.75 109.42 146.61 103.78 155.39 97.18 C 159.35 105.05 157.59 115.35 151.81 121.91 C 146.60 127.91 139.03 130.96 131.66 133.37 C 138.79 134.42 145.63 132.12 152.41 130.34 C 151.91 136.59 149.56 142.48 147.29 148.26 C 142.43 158.80 131.95 165.41 121.47 169.46 C 106.96 175.02 91.09 175.92 75.77 174.10 C 82.78 171.90 89.56 167.89 93.29 161.34 C 99.22 151.07 100.07 137.41 93.88 127.05 C 85.43 112.87 64.69 107.71 50.76 116.71 C 42.27 122.07 39.67 135.10 46.07 142.99 C 49.96 147.74 56.76 148.64 62.38 146.94 C 59.28 146.48 55.84 146.74 53.16 144.84 C 46.22 139.99 45.77 127.92 53.00 123.13 C 60.40 118.37 70.71 117.88 78.15 122.83 C 86.63 128.20 90.80 139.63 87.28 149.12 C 82.97 160.75 70.30 168.36 58.02 167.35 C 52.41 166.82 46.47 165.62 42.11 161.79 C 32.97 154.51 28.44 142.51 28.96 131.00 C 28.66 121.79 32.13 112.85 37.30 105.36 C 43.77 96.06 53.08 89.01 63.27 84.22 C 73.03 79.61 83.01 74.51 90.04 66.07 C 97.58 57.05 102.13 46.06 108.08 36.03 Z" />
</g>
<g id="#414042ff">
<path fill="#414042" opacity="1.00" d=" M 200.00 88.00 C 205.69 88.08 211.38 87.84 217.07 88.08 C 222.33 88.34 227.16 92.07 228.64 97.14 C 230.36 102.94 230.38 109.43 228.10 115.07 C 226.20 119.88 221.13 122.88 216.06 122.95 C 210.71 123.12 205.35 122.94 200.00 123.00 C 200.00 111.33 200.00 99.67 200.00 88.00 M 210.01 90.83 C 209.99 100.61 209.99 110.39 210.01 120.17 C 212.85 120.08 216.63 119.89 217.70 116.66 C 219.64 109.70 219.56 102.14 217.97 95.12 C 217.27 91.41 213.14 90.78 210.01 90.83 Z" />
<path fill="#414042" opacity="1.00" d=" M 360.73 88.00 C 364.20 88.00 367.67 88.00 371.14 88.00 C 373.09 94.82 374.95 101.67 376.98 108.47 C 379.18 101.74 380.48 94.72 382.95 88.10 C 386.38 87.85 389.82 88.02 393.27 88.01 C 393.26 99.67 393.27 111.34 393.27 123.00 C 389.95 123.00 386.64 123.00 383.34 123.00 C 383.35 115.09 383.28 107.17 383.39 99.26 C 381.20 107.17 379.05 115.09 376.85 122.99 C 374.91 122.99 372.97 123.00 371.04 123.01 C 368.77 115.17 366.42 107.36 364.34 99.47 C 364.19 107.31 364.30 115.16 364.27 123.00 C 363.38 123.00 361.62 123.00 360.73 123.00 C 360.73 111.33 360.73 99.67 360.73 88.00 Z" />
<path fill="#414042" opacity="1.00" d=" M 423.31 88.11 C 426.53 87.95 429.75 87.68 432.96 87.30 C 432.91 94.47 432.93 101.64 432.94 108.82 C 436.11 104.91 439.32 101.03 442.39 97.04 C 443.75 97.03 445.11 97.02 446.49 97.00 C 444.74 99.21 442.98 101.40 441.18 103.56 C 443.61 110.08 446.25 116.52 448.78 123.00 C 445.43 123.00 442.10 123.00 438.76 123.00 C 437.26 119.13 435.83 115.22 434.14 111.43 C 432.24 115.01 433.06 119.15 432.94 123.02 C 427.61 123.09 422.29 122.55 416.97 122.99 C 414.66 123.33 412.60 122.28 410.69 121.15 C 407.43 123.15 403.23 123.79 399.67 122.23 C 395.03 120.09 394.79 112.65 399.00 109.93 C 402.40 107.43 407.39 107.46 410.08 103.98 C 411.61 100.02 406.60 97.54 403.61 99.69 C 401.17 100.86 402.32 103.79 402.54 105.82 C 400.93 105.42 399.31 105.03 397.70 104.66 C 397.91 102.58 397.72 99.99 399.83 98.78 C 403.77 96.32 408.71 96.97 413.13 97.12 C 415.81 97.44 419.72 98.58 419.62 101.94 C 419.85 107.91 419.40 113.89 419.91 119.85 C 420.77 119.86 422.49 119.89 423.35 119.90 C 423.29 109.30 423.37 98.71 423.31 88.11 M 405.62 113.94 C 405.37 115.79 405.88 120.38 408.69 118.62 C 411.49 115.87 409.74 111.17 410.17 107.63 C 408.09 109.21 405.27 110.89 405.62 113.94 Z" />
<path fill="#414042" opacity="1.00" d=" M 232.52 97.12 C 235.68 97.00 238.84 96.72 241.98 96.26 C 241.92 97.57 241.87 98.89 241.82 100.21 C 243.79 98.00 246.59 95.96 249.70 97.26 C 253.20 99.29 251.70 103.79 251.23 107.00 C 249.06 107.00 246.89 107.00 244.72 107.01 C 245.05 104.79 245.25 102.54 245.15 100.29 C 243.44 101.77 242.21 103.77 242.08 106.07 C 241.70 111.70 242.04 117.36 241.93 123.00 C 238.80 123.00 235.67 123.00 232.54 123.00 C 232.53 114.37 232.55 105.75 232.52 97.12 Z" />
<path fill="#414042" opacity="1.00" d=" M 474.52 97.12 C 477.68 97.00 480.84 96.71 483.98 96.26 C 483.92 97.57 483.87 98.89 483.82 100.21 C 485.79 98.00 488.62 95.93 491.72 97.29 C 495.20 99.31 493.69 103.81 493.24 107.00 C 491.06 107.00 488.89 107.00 486.72 107.01 C 487.05 104.79 487.24 102.54 487.16 100.29 C 485.45 101.74 484.23 103.73 484.09 106.00 C 483.69 111.66 484.04 117.33 483.93 123.00 C 480.80 123.00 477.66 123.00 474.54 123.00 C 474.52 114.37 474.55 105.75 474.52 97.12 Z" />
<path fill="#414042" opacity="1.00" d=" M 259.79 97.79 C 264.04 96.18 269.66 96.58 272.75 100.26 C 275.24 103.22 275.48 107.28 275.85 110.95 C 271.25 111.04 266.65 110.96 262.05 111.06 C 262.44 113.67 262.37 116.65 264.19 118.77 C 265.99 120.56 268.90 120.23 270.77 118.74 C 271.68 117.19 271.84 115.34 272.32 113.63 C 273.57 113.99 274.83 114.34 276.09 114.70 C 275.28 118.15 273.41 121.80 269.62 122.59 C 264.39 123.61 257.70 123.39 254.32 118.59 C 250.13 111.86 252.08 101.10 259.79 97.79 M 264.28 99.95 C 262.08 102.02 262.48 105.29 261.98 108.01 C 263.81 108.00 265.64 107.99 267.47 107.97 C 267.04 105.33 267.95 100.30 264.28 99.95 Z" />
<path fill="#414042" opacity="1.00" d=" M 280.77 98.82 C 284.71 96.31 289.67 96.97 294.11 97.12 C 296.81 97.44 300.75 98.60 300.62 101.98 C 300.84 107.89 300.43 113.81 300.87 119.71 C 301.77 119.85 303.57 120.12 304.46 120.26 C 304.07 123.55 300.34 122.89 297.99 123.05 C 295.68 123.31 293.61 122.28 291.69 121.15 C 288.43 123.14 284.24 123.79 280.69 122.23 C 276.27 120.22 275.79 113.36 279.43 110.37 C 282.55 107.83 286.87 107.55 290.06 105.14 C 291.47 104.27 291.33 102.48 291.06 101.07 C 289.87 98.47 286.10 98.41 284.10 100.06 C 282.17 101.40 283.50 103.97 283.53 105.82 C 281.93 105.42 280.32 105.03 278.70 104.66 C 278.92 102.60 278.71 100.04 280.77 98.82 M 286.69 112.96 C 286.57 115.08 286.34 117.62 288.09 119.18 C 289.28 118.93 290.78 118.31 290.94 116.91 C 291.45 113.85 291.17 110.72 291.17 107.63 C 289.42 109.11 286.79 110.34 286.69 112.96 Z" />
<path fill="#414042" opacity="1.00" d=" M 304.52 97.08 C 307.68 96.85 310.83 96.55 313.98 96.18 C 313.94 97.21 313.87 99.28 313.84 100.32 C 317.65 96.54 324.33 95.43 328.12 99.85 C 330.47 98.23 333.05 96.52 336.07 96.96 C 338.59 96.78 341.69 98.22 341.89 101.03 C 342.19 108.35 341.90 115.68 342.00 123.00 C 338.91 123.00 335.82 123.00 332.74 123.00 C 332.34 115.95 333.55 108.71 332.11 101.79 C 329.42 101.74 328.08 104.47 328.07 106.81 C 327.84 112.20 328.08 117.60 328.00 123.00 C 324.84 123.00 321.69 123.00 318.54 123.00 C 318.28 115.97 319.07 108.87 318.13 101.89 C 315.77 101.73 314.24 103.84 314.12 106.00 C 313.65 111.65 314.06 117.34 313.93 123.00 C 310.81 123.00 307.68 123.00 304.56 123.00 C 304.53 114.36 304.54 105.72 304.52 97.08 Z" />
<path fill="#414042" opacity="1.00" d=" M 456.51 97.50 C 460.44 96.40 465.31 96.66 468.31 99.78 C 471.20 102.71 471.47 107.08 471.85 110.95 C 467.25 111.04 462.65 110.96 458.05 111.06 C 458.44 113.67 458.37 116.63 460.18 118.76 C 461.97 120.56 464.89 120.24 466.77 118.75 C 467.72 117.21 467.80 115.34 468.25 113.63 C 469.49 113.96 470.74 114.30 472.00 114.64 C 471.34 118.13 469.43 121.78 465.65 122.58 C 460.42 123.62 453.73 123.40 450.33 118.61 C 445.95 111.67 448.27 100.41 456.51 97.50 M 460.35 99.88 C 458.08 101.94 458.48 105.26 457.97 108.01 C 459.80 108.00 461.63 107.99 463.47 107.97 C 463.04 105.29 463.94 100.50 460.35 99.88 Z" />
<path fill="#414042" opacity="1.00" d=" M 202.41 137.40 C 205.10 134.56 209.40 134.74 212.97 135.17 C 216.81 135.68 220.40 139.73 218.49 143.63 C 216.26 147.70 211.92 149.93 208.59 152.98 C 211.99 153.00 215.40 153.00 218.80 153.00 C 218.80 155.00 218.80 157.00 218.80 159.00 C 212.71 159.00 206.62 159.00 200.53 159.00 C 200.53 157.80 200.54 156.61 200.55 155.41 C 204.21 151.46 208.77 148.19 211.46 143.43 C 213.16 140.90 211.58 136.33 208.08 137.01 C 204.19 137.66 204.77 142.24 204.90 145.18 C 203.65 144.94 202.39 144.69 201.14 144.46 C 201.17 142.09 200.58 139.28 202.41 137.40 Z" />
<path fill="#414042" opacity="1.00" d=" M 231.02 135.11 C 233.29 134.96 235.56 134.79 237.83 134.60 C 237.76 142.76 237.82 150.92 237.80 159.07 C 235.34 159.04 232.87 158.99 230.44 158.54 C 227.84 158.87 224.48 159.84 222.69 157.25 C 220.15 153.68 220.69 148.67 221.68 144.65 C 222.96 140.55 227.82 140.29 231.13 141.96 C 231.08 139.67 231.05 137.39 231.02 135.11 M 228.24 144.28 C 227.54 147.18 227.70 150.20 227.82 153.16 C 227.55 154.84 229.06 155.74 230.07 156.77 C 231.61 153.11 231.49 149.01 230.90 145.16 C 230.33 143.93 229.44 143.64 228.24 144.28 Z" />
<path fill="#414042" opacity="1.00" d=" M 287.52 135.11 C 289.77 134.95 292.02 134.78 294.27 134.59 C 294.26 139.51 294.27 144.44 294.26 149.36 C 297.24 146.30 298.93 140.89 303.84 140.71 C 302.63 142.36 301.36 143.97 300.06 145.55 C 301.77 150.05 303.57 154.51 305.34 158.99 C 303.00 159.00 300.67 159.00 298.34 159.00 C 297.26 156.26 296.20 153.51 294.99 150.82 C 294.23 153.48 294.20 156.26 294.19 159.00 C 291.98 159.00 289.78 159.00 287.57 159.00 C 287.49 151.03 287.57 143.07 287.52 135.11 Z" />
<path fill="#414042" opacity="1.00" d=" M 239.72 141.11 C 241.97 140.90 244.22 140.69 246.47 140.46 C 246.42 141.05 246.31 142.25 246.26 142.85 C 249.27 140.88 253.24 140.12 256.14 142.71 C 258.90 140.90 263.94 139.49 265.63 143.34 C 266.30 148.53 265.78 153.78 265.93 159.00 C 263.68 159.00 261.44 159.00 259.20 159.00 C 259.17 153.81 259.33 148.63 259.02 143.45 C 258.10 144.21 256.60 144.61 256.42 146.00 C 255.58 150.27 256.13 154.67 256.01 159.00 C 253.78 159.00 251.55 159.00 249.33 158.99 C 249.30 153.78 249.50 148.56 249.10 143.35 C 248.33 144.28 246.82 144.84 246.67 146.17 C 246.20 150.43 246.55 154.72 246.47 159.00 C 244.22 159.00 241.98 159.00 239.73 159.00 C 239.73 153.04 239.74 147.07 239.72 141.11 Z" />
<path fill="#414042" opacity="1.00" d=" M 268.93 146.49 C 268.70 144.21 269.54 141.74 272.10 141.38 C 275.81 140.86 280.25 140.19 283.47 142.59 C 284.65 147.00 283.72 151.75 284.02 156.30 C 284.90 156.76 286.66 157.69 287.54 158.16 C 284.38 159.21 280.97 159.34 277.86 158.07 C 275.46 158.75 272.85 159.53 270.39 158.67 C 266.89 157.46 266.67 151.67 269.99 150.12 C 272.71 148.75 275.63 147.77 278.15 146.02 C 277.18 145.03 276.79 142.83 275.04 143.00 C 273.96 143.20 272.89 143.47 271.83 143.79 C 271.87 144.61 271.95 146.24 271.99 147.06 C 271.23 146.92 269.69 146.63 268.93 146.49 M 274.99 157.64 C 278.57 155.85 277.04 151.41 277.27 148.24 C 274.04 150.41 273.87 154.25 274.99 157.64 Z" />
<path fill="#414042" opacity="1.00" d=" M 309.62 141.69 C 312.79 140.29 317.26 140.58 319.36 143.68 C 320.95 145.76 320.87 148.51 321.17 150.99 C 317.95 151.00 314.73 150.99 311.51 151.05 C 311.91 153.49 312.55 157.64 315.98 156.99 C 318.06 156.68 318.20 154.41 318.68 152.80 C 319.36 152.94 320.72 153.22 321.39 153.37 C 320.67 155.43 319.88 157.86 317.54 158.57 C 313.52 159.64 307.99 159.35 305.79 155.21 C 303.89 150.63 304.77 144.08 309.62 141.69 M 313.10 142.30 C 312.36 144.47 311.90 146.71 311.55 148.97 C 312.55 148.97 314.55 148.97 315.55 148.96 C 315.25 146.57 315.14 143.95 313.10 142.30 Z" />
<path fill="#414042" opacity="1.00" d=" M 322.72 141.13 C 324.99 140.96 327.25 140.76 329.52 140.54 C 329.43 141.08 329.26 142.16 329.18 142.71 C 330.83 141.60 332.71 140.46 334.79 141.13 C 337.01 142.77 335.96 145.71 335.90 148.00 C 334.30 148.00 332.70 148.00 331.11 148.00 C 331.36 146.57 331.59 145.14 331.79 143.70 C 330.87 144.41 329.66 145.05 329.68 146.39 C 329.19 150.57 329.55 154.80 329.47 159.00 C 327.22 159.00 324.98 159.00 322.74 159.00 C 322.73 153.04 322.74 147.08 322.72 141.13 Z" />
<path fill="#414042" opacity="1.00" d=" M 345.10 147.86 C 345.74 143.71 349.86 140.71 353.98 140.95 C 356.55 140.67 359.67 141.66 360.43 144.42 C 361.66 146.33 358.71 146.84 357.64 147.88 C 357.46 145.78 357.16 142.22 354.12 143.07 C 350.95 145.28 351.82 149.70 351.88 153.01 C 351.65 155.47 354.15 158.13 356.60 156.64 C 359.04 155.83 358.10 152.77 358.58 150.82 C 359.56 151.21 360.55 151.58 361.54 151.95 C 360.98 154.48 360.42 157.64 357.57 158.56 C 354.11 159.42 349.84 159.51 347.05 156.93 C 344.60 154.60 344.80 150.94 345.10 147.86 Z" />
<path fill="#414042" opacity="1.00" d=" M 367.26 141.30 C 371.11 140.49 376.24 140.67 378.46 144.50 C 380.82 149.10 380.22 156.73 374.61 158.59 C 370.52 159.63 364.94 159.38 362.81 155.07 C 360.96 150.36 361.42 142.88 367.26 141.30 M 370.18 157.65 C 374.29 153.77 373.20 146.86 370.93 142.23 C 367.52 146.56 368.45 152.79 370.18 157.65 Z" />
<path fill="#414042" opacity="1.00" d=" M 381.72 141.11 C 383.97 140.90 386.21 140.69 388.46 140.45 C 388.41 141.05 388.31 142.25 388.26 142.84 C 391.27 140.88 395.24 140.11 398.14 142.71 C 400.90 140.90 405.93 139.49 407.63 143.33 C 408.30 148.52 407.78 153.78 407.93 159.00 C 405.68 159.00 403.44 159.00 401.20 159.00 C 401.17 153.81 401.33 148.62 401.02 143.45 C 400.06 144.22 398.56 144.67 398.40 146.09 C 397.60 150.34 398.12 154.70 398.01 159.00 C 395.78 159.00 393.55 159.00 391.33 158.99 C 391.30 153.78 391.50 148.56 391.10 143.35 C 390.33 144.27 388.83 144.83 388.67 146.15 C 388.20 150.42 388.55 154.72 388.47 159.00 C 386.22 159.00 383.98 159.00 381.73 159.00 C 381.73 153.04 381.74 147.07 381.72 141.11 Z" />
<path fill="#414042" opacity="1.00" d=" M 338.26 153.15 C 340.48 152.46 343.72 153.05 343.35 156.06 C 343.81 159.46 338.54 160.17 337.20 157.63 C 336.92 156.08 336.75 154.14 338.26 153.15 Z" />
</g>
</svg>
