<svg version="1.1" id="Layer_1" xmlns="http://www.w3.org/2000/svg" xmlns:xlink="http://www.w3.org/1999/xlink" x="0px" y="0px"
	 width="100%" viewBox="0 0 1000 1000" enable-background="new 0 0 1000 1000" xml:space="preserve">
<path fill="#FFFFFF" opacity="1.000000" stroke="none" 
	d="
M534.000000,1001.000000 
	C356.000000,1001.000000 178.500000,1001.000000 1.000000,1001.000000 
	C1.000000,667.666687 1.000000,334.333344 1.000000,1.000000 
	C334.333344,1.000000 667.666687,1.000000 1001.000000,1.000000 
	C1001.000000,334.333344 1001.000000,667.666687 1001.000000,1001.000000 
	C845.500000,1001.000000 690.000000,1001.000000 534.000000,1001.000000 
M500.065460,719.716736 
	C482.630798,719.704834 465.196106,719.689636 447.761444,719.682251 
	C437.383331,719.677856 437.123596,719.642761 435.518921,729.905090 
	C432.859955,746.909729 430.572998,763.972656 427.931641,781.574829 
	C427.913391,781.969849 427.895142,782.364807 427.295349,783.182617 
	C424.776642,790.349182 419.811676,794.303711 412.382751,793.926941 
	C398.097687,793.202454 383.835205,792.028809 369.564514,791.024780 
	C331.397247,788.339661 293.231750,785.629578 255.062805,782.968567 
	C246.948517,782.402893 240.808487,777.113403 240.067123,769.026733 
	C238.837158,755.610352 238.047653,742.153687 237.047668,728.715942 
	C236.410629,720.155396 235.728653,711.598267 235.062714,702.986816 
	C190.825623,698.715759 147.150360,694.499023 103.132820,690.249146 
	C103.132820,700.574890 103.264641,710.878479 103.104485,721.177429 
	C102.801506,740.661255 105.761696,759.539001 113.086266,777.658630 
	C113.504074,778.692139 113.756393,780.151550 114.551010,780.615051 
	C119.330048,783.402649 124.260849,785.928467 129.110291,788.597412 
	C134.413452,791.516174 139.703827,794.459412 144.961060,797.459900 
	C148.700317,799.593933 152.346268,801.891602 156.086182,804.024475 
	C161.538864,807.134216 167.120224,810.026489 172.487503,813.274658 
	C175.676300,815.204468 178.387009,817.940369 181.613464,819.788818 
	C190.186859,824.700500 198.944031,829.290222 207.582901,834.089417 
	C210.281906,835.588806 212.780380,837.447815 215.471497,838.963074 
	C218.954865,840.924561 222.614151,842.579041 226.058777,844.602234 
	C229.350052,846.535339 232.275421,849.173462 235.701477,850.774475 
	C240.118469,852.838501 245.326370,853.347717 248.369934,857.867554 
	C248.633469,858.258911 249.077759,858.584106 249.508469,858.798645 
	C253.054779,860.565430 256.748230,862.077576 260.151062,864.084045 
	C270.009430,869.896912 279.725281,875.950928 289.550262,881.821228 
	C298.242310,887.014587 307.002686,892.093750 315.739563,897.211975 
	C318.474396,898.814087 321.197021,900.441956 323.984558,901.948242 
	C330.002960,905.200317 336.030609,908.437805 342.109467,911.574646 
	C347.671112,914.444458 353.051483,918.702148 358.954315,919.681824 
	C377.470734,922.754822 396.157990,924.964111 414.850861,926.761536 
	C433.466797,928.551575 452.152222,929.978088 470.838806,930.577026 
	C490.982880,931.222656 511.163696,930.738953 531.328369,930.692444 
	C532.913330,930.688782 534.497253,930.250793 536.940002,930.000305 
	C540.594849,929.816833 544.250610,929.649841 547.904358,929.446960 
	C559.991455,928.775879 572.109619,928.435242 584.156128,927.321960 
	C597.775635,926.063293 611.291687,923.351318 624.923706,922.649292 
	C640.945801,921.824036 654.634216,915.837402 667.510986,907.031921 
	C670.045776,905.298523 672.589050,903.554749 675.259888,902.048950 
	C678.809265,900.047852 682.581482,898.434875 686.089355,896.369019 
	C691.700500,893.064270 697.055664,889.313843 702.737610,886.143677 
	C708.245544,883.070618 714.187317,880.766113 719.647705,877.619202 
	C725.218933,874.408508 730.260559,870.274231 735.850281,867.101501 
	C743.783813,862.598206 752.087280,858.751099 760.081116,854.348389 
	C766.754150,850.673096 773.177246,846.546936 779.768860,842.720154 
	C788.977844,837.373596 798.325806,832.261841 807.457520,826.787964 
	C817.425537,820.812805 827.189087,814.497559 837.098206,808.422729 
	C839.778076,806.779785 842.644897,805.435791 845.457764,804.017639 
	C848.718323,802.373718 852.121948,800.983887 855.264160,799.143494 
	C858.482239,797.258545 861.334839,794.744568 864.569397,792.893921 
	C870.080383,789.740906 875.834717,787.013245 881.346375,783.861267 
	C883.920471,782.389099 887.631897,780.779053 888.314941,778.483826 
	C891.810547,766.736206 895.370361,754.877747 897.186218,742.799194 
	C898.804871,732.033325 898.253784,720.931763 898.513245,709.974792 
	C898.668640,703.411316 898.541687,696.841187 898.541687,690.339050 
	C854.613525,694.585754 810.790039,698.822266 767.077637,703.048096 
	C766.672241,707.185852 766.217224,710.804749 765.978943,714.437744 
	C764.870056,731.342834 763.970093,748.263123 762.696533,765.155396 
	C761.896729,775.765259 756.691833,782.247131 748.598511,782.863281 
	C724.769714,784.677368 700.925415,786.288086 677.085999,787.960815 
	C666.817810,788.681335 656.544922,789.335571 646.277100,790.060974 
	C627.899841,791.359314 609.520508,792.632935 591.150940,794.033447 
	C584.101318,794.570862 579.022888,791.655518 575.248047,785.213928 
	C574.849487,784.475281 574.450867,783.736633 574.198975,782.135376 
	C571.133423,761.378235 568.067871,740.621094 565.004761,719.880066 
	C543.149414,719.880066 522.069702,719.880066 500.065460,719.716736 
M751.977112,672.120300 
	C764.194885,671.065857 776.416504,670.054138 788.629211,668.944031 
	C799.185791,667.984497 809.734131,666.932983 820.282593,665.886536 
	C836.266724,664.300781 852.247498,662.681458 868.230164,661.081238 
	C878.235657,660.079407 888.242065,659.086487 898.542053,658.060303 
	C898.542053,646.260376 898.541992,634.948853 898.541992,623.637329 
	C898.541992,557.023254 898.517700,490.409119 898.640015,423.795227 
	C898.644470,421.387115 899.560303,418.606110 900.952026,416.634766 
	C911.503723,401.688629 922.325378,386.933258 932.922241,372.018555 
	C934.072876,370.399200 934.897034,368.149750 934.913208,366.184692 
	C935.062927,348.033600 935.041809,329.880524 934.935364,311.728821 
	C934.925415,310.029663 934.411560,308.019897 933.416565,306.688904 
	C924.031860,294.135254 914.491699,281.697784 904.803528,268.547089 
	C894.301331,256.345947 883.799133,244.144806 872.512634,231.032501 
	C846.771667,246.423889 821.306763,261.682495 795.772766,276.824707 
	C794.462219,277.601868 792.047974,278.152649 791.028809,277.477875 
	C788.033875,275.494965 785.586914,272.709290 782.741516,270.471771 
	C769.358765,259.947998 756.200073,249.106277 742.397461,239.160507 
	C732.227844,231.832520 721.131714,225.798981 710.596680,218.960205 
	C708.982910,217.912628 707.028076,215.527222 707.172729,213.937134 
	C708.093750,203.807724 710.003662,193.760468 710.748169,183.624481 
	C712.093567,165.308243 712.924744,146.952225 713.772522,128.603653 
	C713.901245,125.817688 713.815308,122.328789 712.291565,120.346718 
	C710.636230,118.193466 707.181213,117.429024 704.519043,116.043320 
	C701.021545,114.222794 697.499329,112.446205 694.045837,110.545197 
	C687.187195,106.769768 680.689209,102.112991 673.474609,99.251503 
	C648.848938,89.484383 623.256348,82.758820 597.575134,76.388489 
	C594.179199,75.546127 591.992371,76.458542 590.362671,79.465775 
	C585.306519,88.795555 579.950256,97.969902 575.128174,107.417740 
	C565.757568,125.777306 556.671265,144.281982 547.397949,162.865326 
	C516.424133,157.890274 485.254913,157.983536 454.280823,162.892776 
	C452.499969,159.347061 450.904480,156.109970 449.256836,152.899628 
	C436.639221,128.315201 424.005432,103.739090 411.394989,79.151001 
	C409.879395,76.195930 407.578766,75.506035 404.518372,76.375587 
	C384.749664,81.992523 364.860565,87.220291 345.244873,93.327072 
	C335.097900,96.486031 325.178040,100.670540 315.624207,105.348686 
	C307.383972,109.383621 300.047272,115.258942 291.819977,119.327553 
	C288.498901,120.969917 287.873779,122.423538 288.066071,125.511169 
	C289.125061,142.515167 289.955597,159.534210 291.123383,176.530304 
	C291.913879,188.035507 292.757355,199.563858 294.360077,210.971848 
	C294.918213,214.944305 294.727966,217.160904 291.107788,219.185791 
	C261.519379,235.735489 234.820663,256.260437 210.021179,278.338013 
	C183.047256,262.633057 156.168167,246.983337 129.128754,231.240280 
	C117.685364,244.723694 106.939240,257.385529 96.041435,270.048065 
	C96.041435,270.048065 96.037132,270.199402 95.417427,270.310699 
	C94.966888,271.210419 94.516350,272.110168 93.476646,273.342621 
	C85.698433,283.673401 77.835144,293.942108 70.213219,304.386932 
	C68.673241,306.497253 67.173553,309.261871 67.138603,311.745728 
	C66.880775,330.066986 66.948051,348.393890 67.079292,366.717834 
	C67.092232,368.524628 67.840919,370.592712 68.893692,372.083649 
	C78.041405,385.038849 87.146324,398.032959 96.672943,410.708099 
	C101.064369,416.550903 103.361656,422.295410 103.327667,429.950531 
	C102.999222,503.914948 103.130669,577.881409 103.130692,651.847290 
	C103.130692,653.823181 103.130684,655.799133 103.130684,658.132935 
	C116.872185,659.476135 130.247009,660.784302 143.622009,662.090637 
	C159.499954,663.641357 175.374527,665.227966 191.256973,666.731079 
	C210.779037,668.578613 230.307724,670.355835 250.409393,672.554993 
	C251.329987,672.614807 252.250580,672.674561 253.748062,672.859802 
	C254.140106,672.872986 254.532166,672.886169 255.360489,673.446045 
	C262.584564,676.497864 266.027557,681.960571 266.013702,689.784973 
	C266.009949,691.903931 266.550781,694.023865 266.836395,697.043091 
	C268.098999,715.365906 269.361603,733.688721 270.626251,752.041199 
	C276.087830,752.449585 280.720276,752.809753 285.354889,753.140015 
	C301.278534,754.274841 317.201904,755.413879 333.127319,756.523315 
	C350.373444,757.724670 367.621765,758.894775 385.584137,760.509094 
	C389.862854,760.754150 394.141541,760.999268 398.680328,761.259277 
	C399.169250,758.723206 399.648895,756.649109 399.961243,754.550110 
	C402.526764,737.308350 404.873322,720.031311 407.674561,702.828247 
	C409.388489,692.302551 414.947144,687.992126 425.530884,687.988037 
	C449.337341,687.978699 473.143768,687.982910 496.950226,687.987183 
	C523.753296,687.991943 550.556335,687.983093 577.359375,688.022156 
	C586.044495,688.034790 592.729797,693.066589 593.924316,700.739075 
	C596.077332,714.568176 597.980469,728.435974 600.050171,742.278320 
	C600.990173,748.565369 602.078491,754.830200 603.173828,761.561951 
	C608.289978,761.015381 612.705872,760.543640 618.011780,760.052002 
	C626.108215,759.447021 634.201172,758.788635 642.301819,758.247559 
	C663.815186,756.810486 685.335083,755.469543 706.845764,753.993835 
	C714.916199,753.440125 722.968445,752.620117 731.349670,751.893738 
	C732.630615,733.129395 733.894531,714.614685 735.533691,695.366882 
	C735.694580,686.344971 736.128052,677.451111 746.781555,672.930786 
	C748.220337,672.625549 749.659119,672.320312 751.977112,672.120300 
z"/>
<path fill="#3B5A7C" opacity="1.000000" stroke="none" 
	d="
M96.193115,270.047363 
	C106.939240,257.385529 117.685364,244.723694 129.128754,231.240280 
	C156.168167,246.983337 183.047256,262.633057 210.021179,278.338013 
	C234.820663,256.260437 261.519379,235.735489 291.107788,219.185791 
	C294.727966,217.160904 294.918213,214.944305 294.360077,210.971848 
	C292.757355,199.563858 291.913879,188.035507 291.123383,176.530304 
	C289.955597,159.534210 289.125061,142.515167 288.066071,125.511169 
	C287.873779,122.423538 288.498901,120.969917 291.819977,119.327553 
	C300.047272,115.258942 307.383972,109.383621 315.624207,105.348686 
	C325.178040,100.670540 335.097900,96.486031 345.244873,93.327072 
	C364.860565,87.220291 384.749664,81.992523 404.518372,76.375587 
	C407.578766,75.506035 409.879395,76.195930 411.394989,79.151001 
	C424.005432,103.739090 436.639221,128.315201 449.256836,152.899628 
	C450.904480,156.109970 452.499969,159.347061 454.280823,162.892776 
	C485.254913,157.983536 516.424133,157.890274 547.397949,162.865326 
	C556.671265,144.281982 565.757568,125.777306 575.128174,107.417740 
	C579.950256,97.969902 585.306519,88.795555 590.362671,79.465775 
	C591.992371,76.458542 594.179199,75.546127 597.575134,76.388489 
	C623.256348,82.758820 648.848938,89.484383 673.474609,99.251503 
	C680.689209,102.112991 687.187195,106.769768 694.045837,110.545197 
	C697.499329,112.446205 701.021545,114.222794 704.519043,116.043320 
	C707.181213,117.429024 710.636230,118.193466 712.291565,120.346718 
	C713.815308,122.328789 713.901245,125.817688 713.772522,128.603653 
	C712.924744,146.952225 712.093567,165.308243 710.748169,183.624481 
	C710.003662,193.760468 708.093750,203.807724 707.172729,213.937134 
	C707.028076,215.527222 708.982910,217.912628 710.596680,218.960205 
	C721.131714,225.798981 732.227844,231.832520 742.397461,239.160507 
	C756.200073,249.106277 769.358765,259.947998 782.741516,270.471771 
	C785.586914,272.709290 788.033875,275.494965 791.028809,277.477875 
	C792.047974,278.152649 794.462219,277.601868 795.772766,276.824707 
	C821.306763,261.682495 846.771667,246.423889 872.512634,231.032501 
	C883.799133,244.144806 894.301331,256.345947 904.517090,268.883850 
	C902.249329,269.969421 900.117554,270.458740 898.309692,271.506683 
	C876.810608,283.968903 855.378662,296.546875 833.889832,309.026825 
	C818.572021,317.922943 803.315125,326.937286 787.770020,335.420441 
	C783.166443,337.932648 782.044617,341.014435 782.056885,345.782440 
	C782.157898,385.211487 782.082764,424.640930 781.795654,463.886749 
	C780.673645,462.509949 779.816956,461.316681 779.002563,459.656799 
	C779.335999,446.625946 779.809448,434.062347 779.856018,421.497162 
	C779.888611,412.699890 779.117249,403.900574 779.110962,395.101898 
	C779.104675,386.371674 779.788330,377.641907 779.827148,368.910431 
	C779.857056,362.181610 778.229126,355.248627 779.387573,348.773041 
	C780.735352,341.239349 779.044373,336.571472 772.107117,333.685425 
	C771.037781,333.240570 770.040710,332.614014 769.030823,332.035645 
	C750.005920,321.141113 730.940308,310.316742 711.975098,299.319183 
	C696.073120,290.097992 680.351013,280.566101 664.430969,271.376831 
	C653.871338,265.281647 643.020874,259.690948 632.449402,253.615555 
	C619.839661,246.368790 607.428528,238.777374 594.860474,231.457001 
	C573.791260,219.184967 552.677856,206.988419 531.538025,194.838455 
	C530.080383,194.000702 527.373535,192.924072 526.777405,193.511383 
	C525.602234,194.669144 525.030579,196.915833 525.025574,198.714447 
	C524.931213,232.539032 525.030762,266.364319 524.860840,300.188324 
	C524.840149,304.308228 526.620667,306.789154 529.659485,308.782349 
	C532.015991,310.328064 534.551147,311.600922 537.002380,313.002808 
	C556.837708,324.346802 576.693665,335.655060 596.495605,347.057007 
	C604.066284,351.416199 611.658264,355.770142 618.946960,360.572083 
	C622.028503,362.602264 624.352844,365.781769 627.021362,368.438873 
	C624.547363,370.862366 622.430908,373.886383 619.539185,375.608246 
	C604.868225,384.343933 589.972595,392.701141 575.203064,401.272614 
	C565.626282,406.830444 556.163757,412.585083 546.590393,418.148773 
	C535.199829,424.768494 523.759338,431.302979 512.312195,437.824585 
	C506.952667,440.878021 501.394287,444.394928 495.101776,440.951935 
	C483.618805,434.668915 472.356995,427.980255 461.028198,421.417206 
	C438.672852,408.466217 416.328247,395.496613 393.993896,382.509430 
	C388.258331,379.174286 382.343323,376.075562 376.946472,372.253052 
	C372.725372,369.263336 373.080444,366.648254 377.136230,363.538910 
	C378.058228,362.832031 379.020660,362.161224 380.027954,361.584656 
	C396.748322,352.013824 413.481567,342.465454 430.206268,332.902161 
	C444.264801,324.863403 458.351532,316.872772 472.341492,308.716248 
	C475.260345,307.014526 477.123047,304.603821 477.105652,300.629333 
	C476.955994,266.471863 477.035400,232.313477 477.007355,198.155396 
	C477.002930,192.770844 475.376007,191.888397 470.778931,194.546341 
	C453.356293,204.619858 435.934357,214.694702 418.504425,224.755585 
	C400.669983,235.049957 382.804504,245.290771 364.993683,255.625793 
	C350.112549,264.260864 335.333008,273.071381 320.428009,281.664612 
	C310.287567,287.510925 299.956573,293.026367 289.805389,298.854462 
	C279.348907,304.857849 269.028778,311.098114 258.609100,317.166260 
	C248.133591,323.266876 237.777588,329.607544 227.031723,335.193787 
	C221.978531,337.820648 220.912018,341.272614 220.927292,346.419800 
	C221.042526,385.242035 220.941864,424.064911 220.791321,463.169220 
	C220.149643,464.046844 219.625290,464.642822 219.062531,464.756531 
	C219.010193,423.944702 218.950439,383.615021 219.061859,343.285797 
	C219.071686,339.727203 218.209091,337.385864 215.034470,335.576630 
	C197.175568,325.398682 179.394958,315.083374 161.585037,304.819458 
	C144.788773,295.139709 128.074738,285.311951 111.135338,275.889435 
	C106.504295,273.313416 101.192513,271.961182 96.193115,270.047363 
z"/>
<path fill="#5B8AC0" opacity="1.000000" stroke="none" 
	d="
M220.908630,462.887604 
	C220.941864,424.064911 221.042526,385.242035 220.927292,346.419800 
	C220.912018,341.272614 221.978531,337.820648 227.031723,335.193787 
	C237.777588,329.607544 248.133591,323.266876 258.609100,317.166260 
	C269.028778,311.098114 279.348907,304.857849 289.805389,298.854462 
	C299.956573,293.026367 310.287567,287.510925 320.428009,281.664612 
	C335.333008,273.071381 350.112549,264.260864 364.993683,255.625793 
	C382.804504,245.290771 400.669983,235.049957 418.504425,224.755585 
	C435.934357,214.694702 453.356293,204.619858 470.778931,194.546341 
	C475.376007,191.888397 477.002930,192.770844 477.007355,198.155396 
	C477.035400,232.313477 476.955994,266.471863 477.105652,300.629333 
	C477.123047,304.603821 475.260345,307.014526 472.341492,308.716248 
	C458.351532,316.872772 444.264801,324.863403 430.206268,332.902161 
	C413.481567,342.465454 396.748322,352.013824 380.027954,361.584656 
	C379.020660,362.161224 378.058228,362.832031 377.136230,363.538910 
	C373.080444,366.648254 372.725372,369.263336 376.946472,372.253052 
	C382.343323,376.075562 388.258331,379.174286 393.993896,382.509430 
	C416.328247,395.496613 438.672852,408.466217 461.028198,421.417206 
	C472.356995,427.980255 483.618805,434.668915 495.101776,440.951935 
	C501.394287,444.394928 506.952667,440.878021 512.312195,437.824585 
	C523.759338,431.302979 535.199829,424.768494 546.590393,418.148773 
	C556.163757,412.585083 565.626282,406.830444 575.203064,401.272614 
	C589.972595,392.701141 604.868225,384.343933 619.539185,375.608246 
	C622.430908,373.886383 624.547363,370.862366 627.021362,368.438873 
	C624.352844,365.781769 622.028503,362.602264 618.946960,360.572083 
	C611.658264,355.770142 604.066284,351.416199 596.495605,347.057007 
	C576.693665,335.655060 556.837708,324.346802 537.002380,313.002808 
	C534.551147,311.600922 532.015991,310.328064 529.659485,308.782349 
	C526.620667,306.789154 524.840149,304.308228 524.860840,300.188324 
	C525.030762,266.364319 524.931213,232.539032 525.025574,198.714447 
	C525.030579,196.915833 525.602234,194.669144 526.777405,193.511383 
	C527.373535,192.924072 530.080383,194.000702 531.538025,194.838455 
	C552.677856,206.988419 573.791260,219.184967 594.860474,231.457001 
	C607.428528,238.777374 619.839661,246.368790 632.449402,253.615555 
	C643.020874,259.690948 653.871338,265.281647 664.430969,271.376831 
	C680.351013,280.566101 696.073120,290.097992 711.975098,299.319183 
	C730.940308,310.316742 750.005920,321.141113 769.030823,332.035645 
	C770.040710,332.614014 771.037781,333.240570 772.107117,333.685425 
	C779.044373,336.571472 780.735352,341.239349 779.387573,348.773041 
	C778.229126,355.248627 779.857056,362.181610 779.827148,368.910431 
	C779.788330,377.641907 779.104675,386.371674 779.110962,395.101898 
	C779.117249,403.900574 779.888611,412.699890 779.856018,421.497162 
	C779.809448,434.062347 779.335999,446.625946 778.694214,459.506714 
	C777.873718,459.352661 777.370300,458.910889 776.938965,458.407349 
	C759.271423,437.783386 736.571106,427.733490 709.705627,427.202179 
	C697.917236,426.969055 686.503723,429.413116 675.366394,433.841675 
	C662.224487,439.067352 651.144958,447.190247 642.426331,457.769714 
	C635.763611,465.854401 631.433289,475.861206 625.689453,484.989197 
	C624.533691,485.198822 623.674072,485.292572 622.985840,485.686066 
	C603.036743,497.093048 583.057556,508.449036 563.212402,520.034607 
	C559.514648,522.193420 556.366699,525.293945 552.839966,528.167358 
	C552.509888,528.633911 552.255371,528.828491 551.592529,529.010681 
	C550.153381,531.544983 548.141968,534.023193 548.131531,536.509888 
	C547.940552,581.781677 547.953674,627.054688 548.023193,672.327209 
	C548.035278,680.203674 554.285034,683.375732 561.081116,679.324524 
	C568.634094,674.822205 576.263245,670.447021 583.882263,666.056580 
	C603.144592,654.956543 622.318054,643.695618 641.747375,632.895386 
	C648.222412,629.296082 653.702637,623.106140 662.347656,623.878052 
	C662.548828,623.934631 662.946289,624.063904 662.983398,624.412109 
	C663.807861,625.553040 664.467712,626.566040 665.401306,627.106201 
	C687.353821,639.808472 709.307251,652.509888 731.335022,665.080872 
	C736.134094,667.819641 741.218750,670.058167 746.236145,672.674683 
	C746.300415,672.822388 746.040833,673.012878 746.040833,673.012878 
	C736.128052,677.451111 735.694580,686.344971 735.231567,695.337891 
	C734.755676,693.932495 734.581970,692.556152 734.298889,690.313721 
	C694.101257,713.552979 654.589172,736.395874 614.850586,759.369690 
	C615.870239,759.684937 616.496033,759.878357 617.121826,760.071838 
	C612.705872,760.543640 608.289978,761.015381 603.173828,761.561951 
	C602.078491,754.830200 600.990173,748.565369 600.050171,742.278320 
	C597.980469,728.435974 596.077332,714.568176 593.924316,700.739075 
	C592.729797,693.066589 586.044495,688.034790 577.359375,688.022156 
	C550.556335,687.983093 523.753296,687.991943 496.950226,687.987183 
	C473.143768,687.982910 449.337341,687.978699 425.530884,687.988037 
	C414.947144,687.992126 409.388489,692.302551 407.674561,702.828247 
	C404.873322,720.031311 402.526764,737.308350 399.961243,754.550110 
	C399.648895,756.649109 399.169250,758.723206 398.680328,761.259277 
	C394.141541,760.999268 389.862854,760.754150 385.469177,760.162109 
	C385.615448,759.638794 385.876648,759.462341 386.137848,759.285889 
	C385.894867,759.103699 385.667175,758.895325 385.406647,758.743164 
	C367.974213,748.566223 350.562195,738.354004 333.097870,728.231934 
	C315.331116,717.934509 297.523315,707.707764 279.708374,697.493774 
	C275.798309,695.251892 271.782227,693.194763 267.467926,690.865234 
	C267.190918,693.199768 267.016296,694.671509 266.841675,696.143311 
	C266.550781,694.023865 266.009949,691.903931 266.013702,689.784973 
	C266.027557,681.960571 262.584564,676.497864 255.189789,672.827942 
	C255.676331,671.494812 256.206726,670.559265 257.009613,670.097412 
	C271.264191,661.896179 285.550995,653.751099 299.832703,645.597107 
	C312.095062,638.596069 324.609131,631.990784 336.505341,624.415039 
	C341.534485,621.212402 345.349854,620.543396 349.864929,624.308044 
	C350.493530,624.832214 351.297638,625.145569 352.019409,625.558411 
	C366.679260,633.942993 381.372162,642.270569 395.989380,650.728882 
	C410.933685,659.376404 425.735565,668.271851 440.735596,676.820557 
	C447.985809,680.952576 451.073792,678.871704 451.074371,670.400513 
	C451.077362,627.255676 450.826630,584.108215 451.283234,540.968201 
	C451.375488,532.252136 447.895813,527.678284 440.800049,523.796265 
	C426.086304,515.746521 411.735382,507.036407 397.150238,498.747467 
	C390.540894,494.991241 383.728699,491.591888 376.771790,487.755890 
	C360.055695,439.929474 309.221466,415.992157 262.975128,432.144470 
	C245.863022,438.121124 232.145920,448.829010 220.908630,462.887604 
M524.214294,488.531647 
	C525.134277,487.574707 525.898987,486.356689 526.998962,485.702240 
	C535.503357,480.642334 544.045959,475.644897 552.626709,470.715332 
	C579.375427,455.348328 606.171387,440.063507 632.899719,424.661285 
	C651.421936,413.987854 669.837036,403.128571 688.346863,392.433441 
	C708.607788,380.726562 728.872375,369.024170 749.238708,357.502411 
	C757.418335,352.875000 765.892395,348.769958 774.178406,344.326447 
	C775.241638,343.756256 776.875671,342.258789 776.692261,341.741119 
	C776.205200,340.366272 775.097046,338.906158 773.834229,338.158966 
	C761.747253,331.007660 749.561890,324.022949 737.434509,316.939484 
	C723.179382,308.613129 709.010071,300.138275 694.696838,291.913544 
	C684.158997,285.858246 673.369507,280.240479 662.836365,274.177246 
	C648.453369,265.897888 634.230286,257.341095 619.894897,248.978348 
	C609.332031,242.816330 598.678467,236.810104 588.101868,230.671356 
	C569.399536,219.816284 550.736084,208.894043 532.008545,198.082657 
	C530.997620,197.499008 529.270447,197.173309 528.389404,197.658524 
	C527.686218,198.045776 527.550354,199.851425 527.544495,201.029404 
	C527.534607,203.005798 527.970337,204.983551 527.972961,206.961044 
	C528.005981,231.794113 527.996338,256.627258 527.993958,281.460358 
	C527.993408,286.960205 528.803406,292.626648 527.736145,297.912689 
	C526.684998,303.118805 529.126099,305.260742 532.701477,307.331238 
	C545.518616,314.753662 558.376282,322.106171 571.188965,329.536255 
	C581.158325,335.317474 591.096619,341.152618 601.024414,347.004974 
	C609.963074,352.274200 618.970581,357.437866 627.743958,362.971161 
	C631.845337,365.557861 632.054504,369.076721 628.785217,372.593292 
	C627.339355,374.148560 625.526245,375.456024 623.678345,376.528992 
	C610.532898,384.162048 597.310791,391.663116 584.160950,399.288635 
	C570.143250,407.417419 556.213074,415.697510 542.178650,423.797089 
	C531.460999,429.982452 520.502502,435.761566 509.920410,442.166351 
	C504.160553,445.652527 498.571350,446.054596 492.964752,442.899414 
	C480.585236,435.932709 468.389465,428.639282 456.119568,421.477783 
	C446.613281,415.929352 437.148773,410.307709 427.589386,404.852386 
	C420.167175,400.616699 412.593872,396.646545 405.148071,392.451324 
	C395.966797,387.278320 386.626526,382.339020 377.772797,376.648682 
	C370.739227,372.128204 366.809052,366.696716 376.782837,360.547394 
	C377.624146,360.028625 378.482788,359.537506 379.340149,359.045410 
	C389.603485,353.154419 399.902527,347.324646 410.120880,341.356689 
	C417.533844,337.027222 424.775543,332.403320 432.208923,328.110352 
	C444.746613,320.869507 457.333893,313.711517 469.995178,306.689758 
	C473.248016,304.885803 474.078430,302.480225 474.066467,298.954468 
	C473.957153,266.788452 474.007538,234.621902 473.988434,202.455536 
	C473.987396,200.734879 473.781403,199.014343 473.646088,196.908875 
	C472.164185,197.304169 471.314911,197.359375 470.646057,197.735413 
	C463.169708,201.938873 455.676483,206.115433 448.274689,210.447723 
	C433.798920,218.920349 419.451141,227.613724 404.914551,235.979736 
	C390.362183,244.354858 375.591217,252.349640 361.017487,260.688385 
	C351.609131,266.071625 342.439606,271.870941 333.062042,277.309662 
	C320.205750,284.765930 307.247498,292.046082 294.344604,299.422150 
	C282.486908,306.200714 270.635773,312.990875 258.798157,319.804504 
	C248.233185,325.885620 237.632080,331.908875 227.203644,338.216827 
	C225.698212,339.127411 224.234375,341.524719 224.304092,343.168152 
	C224.358826,344.458710 226.639908,345.983582 228.240646,346.796844 
	C230.258652,347.822083 232.796448,347.863190 234.753494,348.963165 
	C247.059082,355.879791 259.287598,362.934753 271.499298,370.016876 
	C286.422638,378.671661 301.265350,387.465912 316.216583,396.071960 
	C327.878784,402.784821 339.717987,409.190887 351.362640,415.933441 
	C367.743713,425.418549 383.990417,435.135345 400.344849,444.666779 
	C416.844238,454.282745 433.374573,463.846588 449.950867,473.329224 
	C459.296570,478.675507 468.762299,483.811981 477.871918,489.679321 
	C476.011505,495.088196 472.658630,500.465607 472.543671,505.911316 
	C471.984802,532.385559 472.198242,558.878601 472.338470,585.363892 
	C472.398926,596.782593 477.814270,605.368408 488.301392,609.730591 
	C498.833557,614.111572 509.366943,613.351257 518.986572,606.510437 
	C527.369812,600.548889 529.699280,591.849304 529.725525,582.235840 
	C529.790222,558.581787 529.766541,534.927490 529.736145,511.273254 
	C529.726074,503.415619 528.968445,495.721466 524.214294,488.531647 
z"/>
<path fill="#273C53" opacity="1.000000" stroke="none" 
	d="
M377.008514,488.030670 
	C383.728699,491.591888 390.540894,494.991241 397.150238,498.747467 
	C411.735382,507.036407 426.086304,515.746521 440.800049,523.796265 
	C447.895813,527.678284 451.375488,532.252136 451.283234,540.968201 
	C450.826630,584.108215 451.077362,627.255676 451.074371,670.400513 
	C451.073792,678.871704 447.985809,680.952576 440.735596,676.820557 
	C425.735565,668.271851 410.933685,659.376404 395.989380,650.728882 
	C381.372162,642.270569 366.679260,633.942993 352.019409,625.558411 
	C351.297638,625.145569 350.493530,624.832214 349.864929,624.308044 
	C345.349854,620.543396 341.534485,621.212402 336.505341,624.415039 
	C324.609131,631.990784 312.095062,638.596069 299.832703,645.597107 
	C285.550995,653.751099 271.264191,661.896179 257.009613,670.097412 
	C256.206726,670.559265 255.676331,671.494812 254.971649,672.554565 
	C254.532166,672.886169 254.140106,672.872986 253.220276,672.516663 
	C251.739517,672.170166 250.786530,672.166809 249.833557,672.163452 
	C230.307724,670.355835 210.779037,668.578613 191.256973,666.731079 
	C175.374527,665.227966 159.499954,663.641357 143.622009,662.090637 
	C130.247009,660.784302 116.872185,659.476135 103.130684,658.132935 
	C103.130684,655.799133 103.130692,653.823181 103.130692,651.847290 
	C103.130669,577.881409 102.999222,503.914948 103.327667,429.950531 
	C103.361656,422.295410 101.064369,416.550903 96.672943,410.708099 
	C87.146324,398.032959 78.041405,385.038849 68.893692,372.083649 
	C67.840919,370.592712 67.092232,368.524628 67.079292,366.717834 
	C66.948051,348.393890 66.880775,330.066986 67.138603,311.745728 
	C67.173553,309.261871 68.673241,306.497253 70.213219,304.386932 
	C77.835144,293.942108 85.698433,283.673401 94.067116,273.074310 
	C95.117439,271.937134 95.577286,271.068268 96.037132,270.199402 
	C96.037132,270.199402 96.041435,270.048065 96.117279,270.047729 
	C101.192513,271.961182 106.504295,273.313416 111.135338,275.889435 
	C128.074738,285.311951 144.788773,295.139709 161.585037,304.819458 
	C179.394958,315.083374 197.175568,325.398682 215.034470,335.576630 
	C218.209091,337.385864 219.071686,339.727203 219.061859,343.285797 
	C218.950439,383.615021 219.010193,423.944702 218.949554,465.072052 
	C218.355087,466.714874 217.835052,467.559814 217.315369,468.404968 
	C207.297852,484.697021 202.698517,502.267578 203.861786,521.488342 
	C204.895462,538.567810 210.765503,553.746826 220.139740,568.257935 
	C220.078781,588.532166 220.016052,608.322754 220.097092,628.112793 
	C220.104523,629.929443 221.030258,631.742249 221.529556,633.556885 
	C223.508148,633.005554 225.693909,632.822388 227.432297,631.844177 
	C240.404312,624.544312 253.328644,617.156738 266.169922,609.629517 
	C269.332428,607.775635 272.133667,605.305542 275.392731,603.109009 
	C276.068695,603.151428 276.452942,603.203613 277.041260,603.519470 
	C277.885956,603.796753 278.526520,603.810242 279.594849,603.834839 
	C287.307678,603.897217 294.683289,604.716309 301.862396,603.869385 
	C335.843201,599.860535 359.900146,581.823181 373.954346,550.784241 
	C383.183746,530.401062 383.167480,509.299133 377.008514,488.030670 
z"/>
<path fill="#010101" opacity="1.000000" stroke="none" 
	d="
M782.060913,464.070282 
	C782.082764,424.640930 782.157898,385.211487 782.056885,345.782440 
	C782.044617,341.014435 783.166443,337.932648 787.770020,335.420441 
	C803.315125,326.937286 818.572021,317.922943 833.889832,309.026825 
	C855.378662,296.546875 876.810608,283.968903 898.309692,271.506683 
	C900.117554,270.458740 902.249329,269.969421 904.613525,269.223694 
	C914.491699,281.697784 924.031860,294.135254 933.416565,306.688904 
	C934.411560,308.019897 934.925415,310.029663 934.935364,311.728821 
	C935.041809,329.880524 935.062927,348.033600 934.913208,366.184692 
	C934.897034,368.149750 934.072876,370.399200 932.922241,372.018555 
	C922.325378,386.933258 911.503723,401.688629 900.952026,416.634766 
	C899.560303,418.606110 898.644470,421.387115 898.640015,423.795227 
	C898.517700,490.409119 898.541992,557.023254 898.541992,623.637329 
	C898.541992,634.948853 898.542053,646.260376 898.542053,658.060303 
	C888.242065,659.086487 878.235657,660.079407 868.230164,661.081238 
	C852.247498,662.681458 836.266724,664.300781 820.282593,665.886536 
	C809.734131,666.932983 799.185791,667.984497 788.629211,668.944031 
	C776.416504,670.054138 764.194885,671.065857 751.230469,671.888306 
	C746.394287,669.185974 742.345032,666.645996 738.208191,664.257629 
	C722.940063,655.442871 707.639160,646.684753 692.358154,637.892212 
	C682.900757,632.450500 673.504578,626.900391 663.989075,621.562439 
	C658.393066,618.423279 652.954590,619.850586 649.717041,624.969604 
	C649.517395,625.034119 649.113098,625.148682 648.732788,625.088562 
	C644.304993,627.121704 640.168823,629.064270 636.247070,631.371338 
	C634.264526,632.537659 632.669617,634.362915 630.702148,635.950928 
	C630.504761,636.011658 630.124939,636.173584 629.753967,636.143127 
	C627.334473,637.126831 625.233948,638.048889 623.246643,639.171387 
	C615.357971,643.627014 607.499878,648.136963 599.639343,652.642273 
	C591.928284,657.062073 584.229004,661.502380 576.522644,665.930298 
	C570.814514,669.210022 565.235596,672.750122 559.352295,675.678406 
	C554.503113,678.091980 552.088135,676.470337 552.080383,671.031982 
	C552.017578,626.737488 552.018372,582.442749 552.102722,538.148315 
	C552.110718,533.937256 553.177307,530.366577 557.678406,527.960510 
	C569.145996,521.830444 580.327759,515.157776 591.520569,508.527710 
	C593.934570,507.097778 595.913635,504.933472 598.282654,503.028809 
	C598.472229,502.950165 598.859253,502.813538 599.231079,502.855469 
	C601.430603,501.628967 603.258179,500.360565 605.276855,499.018738 
	C605.467957,498.945343 605.850281,498.798950 606.225952,498.842773 
	C608.637024,497.881500 610.682495,496.895935 612.705933,495.867126 
	C616.470886,493.952789 620.223145,492.013275 624.038391,490.484924 
	C619.810059,506.388977 619.218811,522.161560 623.229187,537.614258 
	C629.644714,562.334290 644.188660,581.388672 666.645874,593.832214 
	C676.963379,599.549072 688.011841,603.824341 700.069702,603.939819 
	C708.348450,604.019165 716.633484,603.449829 724.997192,603.499634 
	C726.357361,604.818542 727.546875,605.960266 728.930176,606.771484 
	C734.782654,610.203735 740.721924,613.488159 746.575439,616.918701 
	C755.998291,622.441101 765.319763,628.138916 774.799377,633.561157 
	C780.227234,636.665710 782.849426,635.037048 782.849609,628.926880 
	C782.850220,610.319092 782.863098,591.711182 782.789062,573.103699 
	C782.782104,571.367676 782.193420,569.633972 781.952942,567.549438 
	C797.765930,543.863770 802.397461,518.425476 794.690552,491.426025 
	C791.966614,481.883270 786.354431,473.164978 782.060913,464.070282 
z"/>
<path fill="#273C53" opacity="1.000000" stroke="none" 
	d="
M536.081665,930.014771 
	C534.497253,930.250793 532.913330,930.688782 531.328369,930.692444 
	C511.163696,930.738953 490.982880,931.222656 470.838806,930.577026 
	C452.152222,929.978088 433.466797,928.551575 414.850861,926.761536 
	C396.157990,924.964111 377.470734,922.754822 358.954315,919.681824 
	C353.051483,918.702148 347.671112,914.444458 342.109467,911.574646 
	C336.030609,908.437805 330.002960,905.200317 323.984558,901.948242 
	C321.197021,900.441956 318.474396,898.814087 315.739563,897.211975 
	C307.002686,892.093750 298.242310,887.014587 289.550262,881.821228 
	C279.725281,875.950928 270.009430,869.896912 260.151062,864.084045 
	C256.748230,862.077576 253.054779,860.565430 249.508469,858.798645 
	C249.077759,858.584106 248.633469,858.258911 248.369934,857.867554 
	C245.326370,853.347717 240.118469,852.838501 235.701477,850.774475 
	C232.275421,849.173462 229.350052,846.535339 226.058777,844.602234 
	C222.614151,842.579041 218.954865,840.924561 215.471497,838.963074 
	C212.780380,837.447815 210.281906,835.588806 207.582901,834.089417 
	C198.944031,829.290222 190.186859,824.700500 181.613464,819.788818 
	C178.387009,817.940369 175.676300,815.204468 172.487503,813.274658 
	C167.120224,810.026489 161.538864,807.134216 156.086182,804.024475 
	C152.346268,801.891602 148.700317,799.593933 144.961060,797.459900 
	C139.703827,794.459412 134.413452,791.516174 129.110291,788.597412 
	C124.260849,785.928467 119.330048,783.402649 114.551010,780.615051 
	C113.756393,780.151550 113.504074,778.692139 113.086266,777.658630 
	C105.761696,759.539001 102.801506,740.661255 103.104485,721.177429 
	C103.264641,710.878479 103.132820,700.574890 103.132820,690.249146 
	C147.150360,694.499023 190.825623,698.715759 235.062714,702.986816 
	C235.728653,711.598267 236.410629,720.155396 237.047668,728.715942 
	C238.047653,742.153687 238.837158,755.610352 240.067123,769.026733 
	C240.808487,777.113403 246.948517,782.402893 255.062805,782.968567 
	C293.231750,785.629578 331.397247,788.339661 369.564514,791.024780 
	C383.835205,792.028809 398.097687,793.202454 412.382751,793.926941 
	C419.811676,794.303711 424.776642,790.349182 427.774414,783.271240 
	C429.183960,784.054016 430.054443,784.852478 431.053680,785.427002 
	C451.889404,797.405518 472.841187,809.187744 493.510376,821.446472 
	C498.222015,824.241028 501.759338,824.076782 506.218597,821.408569 
	C521.439575,812.300903 536.772522,803.376221 552.174133,794.576721 
	C559.334656,790.485657 566.751587,786.843567 574.052307,782.997986 
	C574.450867,783.736633 574.849487,784.475281 574.888794,785.517395 
	C571.440186,787.326416 568.253845,788.662354 565.277100,790.364929 
	C545.121460,801.893250 525.051758,813.572876 504.837128,824.996216 
	C501.968445,826.617371 500.872101,828.280884 500.886292,831.577759 
	C501.018066,862.232544 500.974518,892.888062 500.981720,923.543396 
	C500.982147,925.470703 500.981750,927.398010 500.981750,930.014771 
	C513.167969,930.014771 524.624817,930.014771 536.081665,930.014771 
z"/>
<path fill="#000000" opacity="1.000000" stroke="none" 
	d="
M536.510864,930.007568 
	C524.624817,930.014771 513.167969,930.014771 500.981750,930.014771 
	C500.981750,927.398010 500.982147,925.470703 500.981720,923.543396 
	C500.974518,892.888062 501.018066,862.232544 500.886292,831.577759 
	C500.872101,828.280884 501.968445,826.617371 504.837128,824.996216 
	C525.051758,813.572876 545.121460,801.893250 565.277100,790.364929 
	C568.253845,788.662354 571.440186,787.326416 574.939941,785.835449 
	C579.022888,791.655518 584.101318,794.570862 591.150940,794.033447 
	C609.520508,792.632935 627.899841,791.359314 646.277100,790.060974 
	C656.544922,789.335571 666.817810,788.681335 677.085999,787.960815 
	C700.925415,786.288086 724.769714,784.677368 748.598511,782.863281 
	C756.691833,782.247131 761.896729,775.765259 762.696533,765.155396 
	C763.970093,748.263123 764.870056,731.342834 765.978943,714.437744 
	C766.217224,710.804749 766.672241,707.185852 767.077637,703.048096 
	C810.790039,698.822266 854.613525,694.585754 898.541687,690.339050 
	C898.541687,696.841187 898.668640,703.411316 898.513245,709.974792 
	C898.253784,720.931763 898.804871,732.033325 897.186218,742.799194 
	C895.370361,754.877747 891.810547,766.736206 888.314941,778.483826 
	C887.631897,780.779053 883.920471,782.389099 881.346375,783.861267 
	C875.834717,787.013245 870.080383,789.740906 864.569397,792.893921 
	C861.334839,794.744568 858.482239,797.258545 855.264160,799.143494 
	C852.121948,800.983887 848.718323,802.373718 845.457764,804.017639 
	C842.644897,805.435791 839.778076,806.779785 837.098206,808.422729 
	C827.189087,814.497559 817.425537,820.812805 807.457520,826.787964 
	C798.325806,832.261841 788.977844,837.373596 779.768860,842.720154 
	C773.177246,846.546936 766.754150,850.673096 760.081116,854.348389 
	C752.087280,858.751099 743.783813,862.598206 735.850281,867.101501 
	C730.260559,870.274231 725.218933,874.408508 719.647705,877.619202 
	C714.187317,880.766113 708.245544,883.070618 702.737610,886.143677 
	C697.055664,889.313843 691.700500,893.064270 686.089355,896.369019 
	C682.581482,898.434875 678.809265,900.047852 675.259888,902.048950 
	C672.589050,903.554749 670.045776,905.298523 667.510986,907.031921 
	C654.634216,915.837402 640.945801,921.824036 624.923706,922.649292 
	C611.291687,923.351318 597.775635,926.063293 584.156128,927.321960 
	C572.109619,928.435242 559.991455,928.775879 547.904358,929.446960 
	C544.250610,929.649841 540.594849,929.816833 536.510864,930.007568 
z"/>
<path fill="#5886BA" opacity="1.000000" stroke="none" 
	d="
M574.125610,782.566650 
	C566.751587,786.843567 559.334656,790.485657 552.174133,794.576721 
	C536.772522,803.376221 521.439575,812.300903 506.218597,821.408569 
	C501.759338,824.076782 498.222015,824.241028 493.510376,821.446472 
	C472.841187,809.187744 451.889404,797.405518 431.053680,785.427002 
	C430.054443,784.852478 429.183960,784.054016 428.065186,783.059814 
	C427.895142,782.364807 427.913391,781.969849 428.374512,781.331909 
	C431.817017,782.809143 434.822937,784.518494 437.815338,786.251221 
	C457.306854,797.537415 476.788055,808.841431 496.290985,820.107910 
	C500.355164,822.455627 503.811584,821.196472 506.574799,816.261963 
	C501.044861,816.767029 500.924927,813.369507 500.939850,809.269653 
	C501.048431,779.473450 500.993378,749.676697 500.990051,719.880066 
	C522.069702,719.880066 543.149414,719.880066 565.004761,719.880066 
	C568.067871,740.621094 571.133423,761.378235 574.125610,782.566650 
z"/>
<path fill="#5E8FC7" opacity="1.000000" stroke="none" 
	d="
M500.527771,719.798401 
	C500.993378,749.676697 501.048431,779.473450 500.939850,809.269653 
	C500.924927,813.369507 501.044861,816.767029 506.574799,816.261963 
	C503.811584,821.196472 500.355164,822.455627 496.290985,820.107910 
	C476.788055,808.841431 457.306854,797.537415 437.815338,786.251221 
	C434.822937,784.518494 431.817017,782.809143 428.473328,781.049988 
	C430.572998,763.972656 432.859955,746.909729 435.518921,729.905090 
	C437.123596,719.642761 437.383331,719.677856 447.761444,719.682251 
	C465.196106,719.689636 482.630798,719.704834 500.527771,719.798401 
z"/>
<path fill="#030406" opacity="1.000000" stroke="none" 
	d="
M617.566772,760.061890 
	C616.496033,759.878357 615.870239,759.684937 614.850586,759.369690 
	C654.589172,736.395874 694.101257,713.552979 734.298889,690.313721 
	C734.581970,692.556152 734.755676,693.932495 735.043945,695.704407 
	C733.894531,714.614685 732.630615,733.129395 731.349670,751.893738 
	C722.968445,752.620117 714.916199,753.440125 706.845764,753.993835 
	C685.335083,755.469543 663.815186,756.810486 642.301819,758.247559 
	C634.201172,758.788635 626.108215,759.447021 617.566772,760.061890 
z"/>
<path fill="#283D55" opacity="1.000000" stroke="none" 
	d="
M266.839050,696.593201 
	C267.016296,694.671509 267.190918,693.199768 267.467926,690.865234 
	C271.782227,693.194763 275.798309,695.251892 279.708374,697.493774 
	C297.523315,707.707764 315.331116,717.934509 333.097870,728.231934 
	C350.562195,738.354004 367.974213,748.566223 385.406647,758.743164 
	C385.667175,758.895325 385.894867,759.103699 386.137848,759.285889 
	C385.876648,759.462341 385.615448,759.638794 385.111694,759.946777 
	C367.621765,758.894775 350.373444,757.724670 333.127319,756.523315 
	C317.201904,755.413879 301.278534,754.274841 285.354889,753.140015 
	C280.720276,752.809753 276.087830,752.449585 270.626251,752.041199 
	C269.361603,733.688721 268.098999,715.365906 266.839050,696.593201 
z"/>
<path fill="#213246" opacity="1.000000" stroke="none" 
	d="
M649.916687,624.905151 
	C652.954590,619.850586 658.393066,618.423279 663.989075,621.562439 
	C673.504578,626.900391 682.900757,632.450500 692.358154,637.892212 
	C707.639160,646.684753 722.940063,655.442871 738.208191,664.257629 
	C742.345032,666.645996 746.394287,669.185974 750.790833,671.835693 
	C749.659119,672.320312 748.220337,672.625549 746.411194,672.971802 
	C746.040833,673.012878 746.300415,672.822388 746.137695,672.367310 
	C745.110046,671.177063 744.333801,670.288513 743.367126,669.729370 
	C725.699219,659.510864 708.040161,649.276123 690.309204,639.167725 
	C681.259399,634.008362 672.071655,629.090759 662.946289,624.063904 
	C662.946289,624.063904 662.548828,623.934631 662.227173,623.520386 
	C660.258484,622.743286 658.499451,621.833191 656.989746,622.142090 
	C654.545959,622.642029 652.265869,623.942627 649.916687,624.905151 
z"/>
<path fill="#3B5A7C" opacity="1.000000" stroke="none" 
	d="
M95.727280,270.255066 
	C95.577286,271.068268 95.117439,271.937134 94.361694,272.907959 
	C94.516350,272.110168 94.966888,271.210419 95.727280,270.255066 
z"/>
<path fill="#5B8AC0" opacity="1.000000" stroke="none" 
	d="
M250.121475,672.359253 
	C250.786530,672.166809 251.739517,672.170166 252.931824,672.453979 
	C252.250580,672.674561 251.329987,672.614807 250.121475,672.359253 
z"/>
<path fill="#FEFEFE" opacity="1.000000" stroke="none" 
	d="
M724.915710,603.170410 
	C716.633484,603.449829 708.348450,604.019165 700.069702,603.939819 
	C688.011841,603.824341 676.963379,599.549072 666.645874,593.832214 
	C644.188660,581.388672 629.644714,562.334290 623.229187,537.614258 
	C619.218811,522.161560 619.810059,506.388977 624.192261,490.226746 
	C624.529480,489.047577 624.770508,488.527252 625.161438,487.722198 
	C625.562683,486.629333 625.814087,485.821198 626.065491,485.013062 
	C631.433289,475.861206 635.763611,465.854401 642.426331,457.769714 
	C651.144958,447.190247 662.224487,439.067352 675.366394,433.841675 
	C686.503723,429.413116 697.917236,426.969055 709.705627,427.202179 
	C736.571106,427.733490 759.271423,437.783386 776.938965,458.407349 
	C777.370300,458.910889 777.873718,459.352661 778.651917,459.973297 
	C779.816956,461.316681 780.673645,462.509949 781.795654,463.886749 
	C786.354431,473.164978 791.966614,481.883270 794.690552,491.426025 
	C802.397461,518.425476 797.765930,543.863770 781.649170,567.647217 
	C780.471375,569.313782 779.675476,570.532898 778.569946,571.897644 
	C775.003357,575.376099 771.866882,578.837769 768.467529,582.018433 
	C756.916565,592.826233 742.830139,598.770569 727.457520,602.895874 
	C726.365601,602.990906 725.640686,603.080688 724.915710,603.170410 
M655.452881,558.933594 
	C668.424011,573.097900 684.169983,580.984497 703.716003,579.884705 
	C719.223083,579.012268 732.763977,572.983826 743.354370,561.829834 
	C756.859619,547.605957 762.486023,530.201416 758.911682,510.785797 
	C752.519775,476.065125 720.900696,457.432465 688.973938,463.418579 
	C674.336609,466.163055 662.664795,473.964966 653.713196,485.834839 
	C644.386292,498.202484 640.695068,512.398743 642.223267,527.503418 
	C643.365723,538.795471 647.791016,549.297302 655.452881,558.933594 
z"/>
<path fill="#FDFEFE" opacity="1.000000" stroke="none" 
	d="
M376.771790,487.755890 
	C383.167480,509.299133 383.183746,530.401062 373.954346,550.784241 
	C359.900146,581.823181 335.843201,599.860535 301.862396,603.869385 
	C294.683289,604.716309 287.307678,603.897217 279.350952,603.637451 
	C278.065216,603.371216 277.451202,603.313477 276.837158,603.255737 
	C276.452942,603.203613 276.068695,603.151428 275.053162,602.916382 
	C266.833374,599.995483 259.015686,597.757935 251.707077,594.409302 
	C238.813065,588.501465 229.037109,578.611572 220.177155,567.774170 
	C210.765503,553.746826 204.895462,538.567810 203.861786,521.488342 
	C202.698517,502.267578 207.297852,484.697021 217.315369,468.404968 
	C217.835052,467.559814 218.355087,466.714874 218.987946,465.554321 
	C219.625290,464.642822 220.149643,464.046844 220.791321,463.169220 
	C232.145920,448.829010 245.863022,438.121124 262.975128,432.144470 
	C309.221466,415.992157 360.055695,439.929474 376.771790,487.755890 
M335.247864,473.194092 
	C322.376251,464.352783 308.299622,460.656372 292.692413,462.796204 
	C259.328613,467.370636 236.869904,498.868011 243.097076,532.541931 
	C249.046982,564.716492 282.207916,586.271484 314.140472,578.317505 
	C337.962830,572.383728 353.266235,557.124023 358.337158,533.181274 
	C363.461731,508.985168 355.201996,488.995605 335.247864,473.194092 
z"/>
<path fill="#6498D3" opacity="1.000000" stroke="none" 
	d="
M478.173981,489.042938 
	C468.762299,483.811981 459.296570,478.675507 449.950867,473.329224 
	C433.374573,463.846588 416.844238,454.282745 400.344849,444.666779 
	C383.990417,435.135345 367.743713,425.418549 351.362640,415.933441 
	C339.717987,409.190887 327.878784,402.784821 316.216583,396.071960 
	C301.265350,387.465912 286.422638,378.671661 271.499298,370.016876 
	C259.287598,362.934753 247.059082,355.879791 234.753494,348.963165 
	C232.796448,347.863190 230.258652,347.822083 228.240646,346.796844 
	C226.639908,345.983582 224.358826,344.458710 224.304092,343.168152 
	C224.234375,341.524719 225.698212,339.127411 227.203644,338.216827 
	C237.632080,331.908875 248.233185,325.885620 258.798157,319.804504 
	C270.635773,312.990875 282.486908,306.200714 294.344604,299.422150 
	C307.247498,292.046082 320.205750,284.765930 333.062042,277.309662 
	C342.439606,271.870941 351.609131,266.071625 361.017487,260.688385 
	C375.591217,252.349640 390.362183,244.354858 404.914551,235.979736 
	C419.451141,227.613724 433.798920,218.920349 448.274689,210.447723 
	C455.676483,206.115433 463.169708,201.938873 470.646057,197.735413 
	C471.314911,197.359375 472.164185,197.304169 473.646088,196.908875 
	C473.781403,199.014343 473.987396,200.734879 473.988434,202.455536 
	C474.007538,234.621902 473.957153,266.788452 474.066467,298.954468 
	C474.078430,302.480225 473.248016,304.885803 469.995178,306.689758 
	C457.333893,313.711517 444.746613,320.869507 432.208923,328.110352 
	C424.775543,332.403320 417.533844,337.027222 410.120880,341.356689 
	C399.902527,347.324646 389.603485,353.154419 379.340149,359.045410 
	C378.482788,359.537506 377.624146,360.028625 376.782837,360.547394 
	C366.809052,366.696716 370.739227,372.128204 377.772797,376.648682 
	C386.626526,382.339020 395.966797,387.278320 405.148071,392.451324 
	C412.593872,396.646545 420.167175,400.616699 427.589386,404.852386 
	C437.148773,410.307709 446.613281,415.929352 456.119568,421.477783 
	C468.389465,428.639282 480.585236,435.932709 492.964752,442.899414 
	C498.571350,446.054596 504.160553,445.652527 509.920410,442.166351 
	C520.502502,435.761566 531.460999,429.982452 542.178650,423.797089 
	C556.213074,415.697510 570.143250,407.417419 584.160950,399.288635 
	C597.310791,391.663116 610.532898,384.162048 623.678345,376.528992 
	C625.526245,375.456024 627.339355,374.148560 628.785217,372.593292 
	C632.054504,369.076721 631.845337,365.557861 627.743958,362.971161 
	C618.970581,357.437866 609.963074,352.274200 601.024414,347.004974 
	C591.096619,341.152618 581.158325,335.317474 571.188965,329.536255 
	C558.376282,322.106171 545.518616,314.753662 532.701477,307.331238 
	C529.126099,305.260742 526.684998,303.118805 527.736145,297.912689 
	C528.803406,292.626648 527.993408,286.960205 527.993958,281.460358 
	C527.996338,256.627258 528.005981,231.794113 527.972961,206.961044 
	C527.970337,204.983551 527.534607,203.005798 527.544495,201.029404 
	C527.550354,199.851425 527.686218,198.045776 528.389404,197.658524 
	C529.270447,197.173309 530.997620,197.499008 532.008545,198.082657 
	C550.736084,208.894043 569.399536,219.816284 588.101868,230.671356 
	C598.678467,236.810104 609.332031,242.816330 619.894897,248.978348 
	C634.230286,257.341095 648.453369,265.897888 662.836365,274.177246 
	C673.369507,280.240479 684.158997,285.858246 694.696838,291.913544 
	C709.010071,300.138275 723.179382,308.613129 737.434509,316.939484 
	C749.561890,324.022949 761.747253,331.007660 773.834229,338.158966 
	C775.097046,338.906158 776.205200,340.366272 776.692261,341.741119 
	C776.875671,342.258789 775.241638,343.756256 774.178406,344.326447 
	C765.892395,348.769958 757.418335,352.875000 749.238708,357.502411 
	C728.872375,369.024170 708.607788,380.726562 688.346863,392.433441 
	C669.837036,403.128571 651.421936,413.987854 632.899719,424.661285 
	C606.171387,440.063507 579.375427,455.348328 552.626709,470.715332 
	C544.045959,475.644897 535.503357,480.642334 526.998962,485.702240 
	C525.898987,486.356689 525.134277,487.574707 523.768250,488.690979 
	C521.020569,486.961792 518.922180,484.724884 516.382874,483.243652 
	C503.766663,475.884216 490.991364,477.904999 478.173981,489.042938 
z"/>
<path fill="#FDFEFE" opacity="1.000000" stroke="none" 
	d="
M478.022949,489.361145 
	C490.991364,477.904999 503.766663,475.884216 516.382874,483.243652 
	C518.922180,484.724884 521.020569,486.961792 523.619751,489.012878 
	C528.968445,495.721466 529.726074,503.415619 529.736145,511.273254 
	C529.766541,534.927490 529.790222,558.581787 529.725525,582.235840 
	C529.699280,591.849304 527.369812,600.548889 518.986572,606.510437 
	C509.366943,613.351257 498.833557,614.111572 488.301392,609.730591 
	C477.814270,605.368408 472.398926,596.782593 472.338470,585.363892 
	C472.198242,558.878601 471.984802,532.385559 472.543671,505.911316 
	C472.658630,500.465607 476.011505,495.088196 478.022949,489.361145 
z"/>
<path fill="#213246" opacity="1.000000" stroke="none" 
	d="
M598.093079,503.107483 
	C595.913635,504.933472 593.934570,507.097778 591.520569,508.527710 
	C580.327759,515.157776 569.145996,521.830444 557.678406,527.960510 
	C553.177307,530.366577 552.110718,533.937256 552.102722,538.148315 
	C552.018372,582.442749 552.017578,626.737488 552.080383,671.031982 
	C552.088135,676.470337 554.503113,678.091980 559.352295,675.678406 
	C565.235596,672.750122 570.814514,669.210022 576.522644,665.930298 
	C584.229004,661.502380 591.928284,657.062073 599.639343,652.642273 
	C607.499878,648.136963 615.357971,643.627014 623.246643,639.171387 
	C625.233948,638.048889 627.334473,637.126831 629.677734,636.470337 
	C629.354797,637.354004 628.800903,637.990112 628.110107,638.389648 
	C614.884521,646.037537 601.649841,653.670105 588.401917,661.279358 
	C578.896179,666.739075 569.447510,672.305908 559.820557,677.544006 
	C553.930237,680.748962 550.269043,678.342590 550.024719,671.558716 
	C549.994812,670.726990 550.020996,669.893372 550.020996,669.060608 
	C550.022583,627.756042 549.953979,586.451294 550.110779,545.147278 
	C550.131287,539.748840 551.309570,534.354675 551.951599,528.958557 
	C552.255371,528.828491 552.509888,528.633911 553.196899,528.163635 
	C561.923218,523.086243 570.094604,518.090271 578.435669,513.395935 
	C584.877808,509.770355 591.532776,506.522980 598.093079,503.107483 
z"/>
<path fill="#406186" opacity="1.000000" stroke="none" 
	d="
M551.592529,529.010681 
	C551.309570,534.354675 550.131287,539.748840 550.110779,545.147278 
	C549.953979,586.451294 550.022583,627.756042 550.020996,669.060608 
	C550.020996,669.893372 549.994812,670.726990 550.024719,671.558716 
	C550.269043,678.342590 553.930237,680.748962 559.820557,677.544006 
	C569.447510,672.305908 578.896179,666.739075 588.401917,661.279358 
	C601.649841,653.670105 614.884521,646.037537 628.110107,638.389648 
	C628.800903,637.990112 629.354797,637.354004 630.048706,636.500793 
	C630.124939,636.173584 630.504761,636.011658 631.069824,635.969849 
	C637.460876,632.334900 643.286987,628.741760 649.113098,625.148682 
	C649.113098,625.148682 649.517395,625.034119 649.717041,624.969604 
	C652.265869,623.942627 654.545959,622.642029 656.989746,622.142090 
	C658.499451,621.833191 660.258484,622.743286 662.026001,623.463806 
	C653.702637,623.106140 648.222412,629.296082 641.747375,632.895386 
	C622.318054,643.695618 603.144592,654.956543 583.882263,666.056580 
	C576.263245,670.447021 568.634094,674.822205 561.081116,679.324524 
	C554.285034,683.375732 548.035278,680.203674 548.023193,672.327209 
	C547.953674,627.054688 547.940552,581.781677 548.131531,536.509888 
	C548.141968,534.023193 550.153381,531.544983 551.592529,529.010681 
z"/>
<path fill="#406186" opacity="1.000000" stroke="none" 
	d="
M662.983398,624.412109 
	C672.071655,629.090759 681.259399,634.008362 690.309204,639.167725 
	C708.040161,649.276123 725.699219,659.510864 743.367126,669.729370 
	C744.333801,670.288513 745.110046,671.177063 746.073364,672.219604 
	C741.218750,670.058167 736.134094,667.819641 731.335022,665.080872 
	C709.307251,652.509888 687.353821,639.808472 665.401306,627.106201 
	C664.467712,626.566040 663.807861,625.553040 662.983398,624.412109 
z"/>
<path fill="#406186" opacity="1.000000" stroke="none" 
	d="
M598.282654,503.028809 
	C591.532776,506.522980 584.877808,509.770355 578.435669,513.395935 
	C570.094604,518.090271 561.923218,523.086243 553.321899,527.956177 
	C556.366699,525.293945 559.514648,522.193420 563.212402,520.034607 
	C583.057556,508.449036 603.036743,497.093048 622.985840,485.686066 
	C623.674072,485.292572 624.533691,485.198822 625.689453,484.989197 
	C625.814087,485.821198 625.562683,486.629333 624.784607,487.683960 
	C618.122070,491.553284 611.986145,495.176117 605.850281,498.798950 
	C605.850281,498.798950 605.467957,498.945343 604.914917,499.001404 
	C602.527710,500.309509 600.693481,501.561523 598.859253,502.813538 
	C598.859253,502.813538 598.472229,502.950165 598.282654,503.028809 
z"/>
<path fill="#5C8BC1" opacity="1.000000" stroke="none" 
	d="
M220.139740,568.257935 
	C229.037109,578.611572 238.813065,588.501465 251.707077,594.409302 
	C259.015686,597.757935 266.833374,599.995483 274.761414,602.926086 
	C272.133667,605.305542 269.332428,607.775635 266.169922,609.629517 
	C253.328644,617.156738 240.404312,624.544312 227.432297,631.844177 
	C225.693909,632.822388 223.508148,633.005554 221.529556,633.556885 
	C221.030258,631.742249 220.104523,629.929443 220.097092,628.112793 
	C220.016052,608.322754 220.078781,588.532166 220.139740,568.257935 
z"/>
<path fill="#5C8BC1" opacity="1.000000" stroke="none" 
	d="
M277.041260,603.519470 
	C277.451202,603.313477 278.065216,603.371216 278.923157,603.626404 
	C278.526520,603.810242 277.885956,603.796753 277.041260,603.519470 
z"/>
<path fill="#395678" opacity="1.000000" stroke="none" 
	d="
M724.997192,603.499634 
	C725.640686,603.080688 726.365601,602.990906 727.813965,603.006104 
	C745.062012,612.499146 761.586548,621.887268 778.879578,631.711914 
	C778.879578,610.886292 778.879578,591.319214 778.879578,571.752075 
	C779.675476,570.532898 780.471375,569.313782 781.571045,567.996948 
	C782.193420,569.633972 782.782104,571.367676 782.789062,573.103699 
	C782.863098,591.711182 782.850220,610.319092 782.849609,628.926880 
	C782.849426,635.037048 780.227234,636.665710 774.799377,633.561157 
	C765.319763,628.138916 755.998291,622.441101 746.575439,616.918701 
	C740.721924,613.488159 734.782654,610.203735 728.930176,606.771484 
	C727.546875,605.960266 726.357361,604.818542 724.997192,603.499634 
z"/>
<path fill="#213246" opacity="1.000000" stroke="none" 
	d="
M648.732788,625.088562 
	C643.286987,628.741760 637.460876,632.334900 631.267151,635.909180 
	C632.669617,634.362915 634.264526,632.537659 636.247070,631.371338 
	C640.168823,629.064270 644.304993,627.121704 648.732788,625.088562 
z"/>
<path fill="#213246" opacity="1.000000" stroke="none" 
	d="
M606.225952,498.842773 
	C611.986145,495.176117 618.122070,491.553284 624.634766,487.968689 
	C624.770508,488.527252 624.529480,489.047577 624.134583,489.826080 
	C620.223145,492.013275 616.470886,493.952789 612.705933,495.867126 
	C610.682495,496.895935 608.637024,497.881500 606.225952,498.842773 
z"/>
<path fill="#213246" opacity="1.000000" stroke="none" 
	d="
M599.231079,502.855469 
	C600.693481,501.561523 602.527710,500.309509 604.723877,499.074829 
	C603.258179,500.360565 601.430603,501.628967 599.231079,502.855469 
z"/>
<path fill="#414042" opacity="1.000000" stroke="none" 
	d="
M655.248291,558.635864 
	C647.791016,549.297302 643.365723,538.795471 642.223267,527.503418 
	C640.695068,512.398743 644.386292,498.202484 653.713196,485.834839 
	C662.664795,473.964966 674.336609,466.163055 688.973938,463.418579 
	C720.900696,457.432465 752.519775,476.065125 758.911682,510.785797 
	C762.486023,530.201416 756.859619,547.605957 743.354370,561.829834 
	C732.763977,572.983826 719.223083,579.012268 703.716003,579.884705 
	C684.169983,580.984497 668.424011,573.097900 655.248291,558.635864 
z"/>
<path fill="#5987BB" opacity="1.000000" stroke="none" 
	d="
M778.569946,571.897644 
	C778.879578,591.319214 778.879578,610.886292 778.879578,631.711914 
	C761.586548,621.887268 745.062012,612.499146 728.180908,603.000854 
	C742.830139,598.770569 756.916565,592.826233 768.467529,582.018433 
	C771.866882,578.837769 775.003357,575.376099 778.569946,571.897644 
z"/>
<path fill="#424143" opacity="1.000000" stroke="none" 
	d="
M335.532837,473.415527 
	C355.201996,488.995605 363.461731,508.985168 358.337158,533.181274 
	C353.266235,557.124023 337.962830,572.383728 314.140472,578.317505 
	C282.207916,586.271484 249.046982,564.716492 243.097076,532.541931 
	C236.869904,498.868011 259.328613,467.370636 292.692413,462.796204 
	C308.299622,460.656372 322.376251,464.352783 335.532837,473.415527 
z"/>
</svg>