<svg xmlns="http://www.w3.org/2000/svg" xml:space="preserve" viewBox="0 0 1024 414"><linearGradient id="a" x1="133.993" x2="202.254" y1="121.365" y2="51.819" gradientTransform="matrix(3.4787 0 0 -3.4778 -372.1 508.831)" gradientUnits="userSpaceOnUse"><stop offset="0" stop-color="#ff1300"/><stop offset="1" stop-color="#ff6e01"/></linearGradient><path fill="url(#a)" d="m176 49.4-7.9 24.9-25.8 11.1c-9.1-1.9-18.2-4.1-27.5-5.3-1.5 1.6-38.3 58.3-38.3 58.9 1.7 4.2 4.6 7.7 6.8 11.6l134.1 47.1 134.1-47.1c2.2-3.9 5.1-7.5 6.8-11.6 0-.6-36.9-57.3-38.3-58.9-9.2 1.1-18.4 3.3-27.5 5.3l-25.8-11.1-7.7-24.9zM93.6 167.9c-.2-.1-.5.2-.5.3-1.6 13.2-4.8 39.5-4.8 39.5l8.2 35.3 61.8 28.1 59.2-22.1 59.2 22.1 61.8-28.1 8.2-35.3s-3.2-26.3-4.8-39.5c0-.1-.6-.5-.6-.1-40.5 14.4-82.7 28.3-123.8 42.5-41.1-14.2-83.3-28.1-123.8-42.5 0-.2 0-.2-.1-.2m29 30 57.9 21.4c-.3 2.1-.8 4.1-1.5 6.1-6 16.3-24.2 24.7-40.5 18.6-16.3-6-24.7-24.1-18.7-40.5.8-1.9 1.7-3.8 2.8-5.6m189.7 0c1.1 1.8 2 3.7 2.8 5.7 6 16.3-2.3 34.4-18.6 40.5-16.3 6-34.5-2.3-40.5-18.6-.7-2-1.2-4-1.5-6.1zM77.6 221.7l-14.8 14.7 22.2 78 70.3 28.8-3.8-60.7-66.7-31zm279.8 0-7.2 29.8-66.7 31-3.8 60.7 70.3-28.8 22.2-78zm-139.9 40.2-52.7 20.9 3.2 65.5 49.5 20.2 49.5-20.2 3.2-65.5z"/><text class="st1 st2" font-size="82.497" transform="translate(513.34 358.168)">ENGINE</text><text class="st1 st2" font-size="157.69" transform="translate(425.781 239.826)">REDOT</text></svg>