<svg xmlns="http://www.w3.org/2000/svg" xmlns:xlink="http://www.w3.org/1999/xlink" width="1024" height="414"><defs><linearGradient id="c"><stop offset=".045" stop-color="#7f24ce"/><stop offset=".468" stop-color="#b846e4"/><stop offset=".825" stop-color="#d055ee"/><stop offset="1" stop-color="#f87cfe"/></linearGradient><linearGradient id="b"><stop offset=".045" stop-color="#7f24ce"/><stop offset=".478" stop-color="#b846e4"/><stop offset=".848" stop-color="#d055ee"/><stop offset="1" stop-color="#f87cfe"/></linearGradient><linearGradient id="a"><stop offset=".045" stop-color="#7f24ce"/><stop offset=".468" stop-color="#b846e4"/><stop offset=".848" stop-color="#d055ee"/><stop offset="1" stop-color="#f87cfe"/></linearGradient><linearGradient xlink:href="#a" id="g" x1="635.831" x2="721.822" y1="589.778" y2="368.408" gradientTransform="translate(-23.58 17.032)scale(.3755)" gradientUnits="userSpaceOnUse"/><linearGradient xlink:href="#b" id="f" x1="269.585" x2="488.27" y1="847.204" y2="393.079" gradientTransform="translate(-23.58 17.032)scale(.3755)" gradientUnits="userSpaceOnUse"/><linearGradient xlink:href="#c" id="d" x1="496.519" x2="635.831" y1="813.477" y2="589.778" gradientTransform="translate(-23.58 17.032)scale(.3755)" gradientUnits="userSpaceOnUse"/></defs><path fill="url(#d)" stroke="#fff" stroke-linecap="round" stroke-linejoin="round" stroke-width="24.032" d="m 171.38263,233.48538 c 25.80372,-1.41959 48.86166,22.76415 46.21807,48.47501 -0.8869,23.80571 -23.00891,44.73432 -47.11678,42.3874 -28.00087,1.02777 -49.67273,-29.01601 -42.94165,-55.38866 4.00038,-20.29313 23.30465,-35.46829 43.84036,-35.47375 z" paint-order="markers stroke fill" style="mix-blend-mode:normal"/><path fill="url(#f)" stroke="#fff" stroke-linecap="round" stroke-linejoin="round" stroke-width="24.032" d="m 83.117367,34.229004 c 5.640272,11.590826 14.847583,22.131229 18.412733,35.067331 10.28073,26.949779 2.81987,56.662975 -10.557927,81.097955 -20.491143,40.23672 -40.378239,84.60388 -34.645517,130.82004 5.789955,41.7498 35.465416,80.05991 76.309654,92.45505 41.00023,13.68626 89.30256,0.0536 116.79179,-33.40406 18.86154,-21.98891 29.84597,-52.45176 24.67741,-81.40288 -7.8635,-32.19022 -32.9483,-58.97909 -64.67431,-68.67428 -19.22407,-6.42336 -38.17611,-16.02861 -50.84919,-32.30005 -3.15336,10.35073 -6.73511,23.24888 -10.4964,34.80197 -3.5495,12.51124 -8.86071,24.65253 -11.41974,37.35933 10.52656,-4.13966 22.87782,-11.28704 35.64611,-10.32186 32.13794,-0.62295 60.40212,28.73499 59.13333,60.77021 -0.25922,31.28352 -28.77465,59.06548 -60.20433,57.81136 -31.30942,0.14161 -58.14406,-27.57131 -59.08079,-58.48973 -0.42916,-23.46245 9.10724,-45.68252 15.53808,-67.90912 12.44975,-36.89975 24.38645,-76.07754 19.57351,-115.439607 C 144.82138,69.001262 125.86456,42.369703 98.079123,36.380651 93.196455,35.1226 88.182033,34.13075 83.117367,34.229004 Z" paint-order="markers stroke fill" style="mix-blend-mode:normal"/><path fill="url(#g)" stroke="#fff" stroke-linecap="round" stroke-linejoin="round" stroke-width="24.032" d="m 189.02894,54.376199 c -12.59382,8.74659 -24.29273,21.346697 -28.17558,36.440921 2.67144,16.02727 0.80207,32.39646 0.55997,48.39603 6.85527,24.18514 31.904,35.21474 53.72321,42.5751 26.60248,9.1787 49.67357,28.65131 60.9905,54.69508 2.64021,5.14523 11.71772,27.60392 10.72174,9.11141 0.90523,-31.8999 -12.66297,-63.96877 -37.63567,-84.19563 -18.43901,-16.55595 -44.48653,-25.50886 -55.87985,-49.09615 -9.86592,-17.306803 -9.28182,-38.517372 -3.41984,-57.042282 l -0.44223,-0.442237 z" paint-order="markers stroke fill" style="mix-blend-mode:normal"/><g fill="#414042" stroke="#fff" stroke-linejoin="round" stroke-width="14" font-family="'Inter Alia'" paint-order="stroke fill markers"><text xml:space="preserve" x="413.602" y="245.49" font-size="12" font-weight="700" style="-inkscape-font-specification:&quot;Inter Alia, Bold&quot;;font-variant-ligatures:normal;font-variant-caps:normal;font-variant-numeric:normal;font-variant-east-asian:normal;text-align:start" transform="translate(-109.188 -15.965)scale(1.05342)"><tspan x="413.602" y="245.49" font-size="146.667" style="-inkscape-font-specification:&quot;Inter Alia, Bold&quot;;font-variant-ligatures:normal;font-variant-caps:normal;font-variant-numeric:normal;font-variant-east-asian:normal">Blazium</tspan></text><text xml:space="preserve" x="418.92" y="329.631" font-size="80" font-weight="500" style="-inkscape-font-specification:&quot;Inter Alia, Medium&quot;;font-variant-ligatures:normal;font-variant-caps:normal;font-variant-numeric:normal;font-variant-east-asian:normal;text-align:start" transform="translate(-109.188 -15.965)scale(1.05342)"><tspan x="418.92" y="329.631" font-size="66.667" font-weight="400" style="-inkscape-font-specification:&quot;Inter Alia, Normal&quot;;font-variant-ligatures:normal;font-variant-caps:normal;font-variant-numeric:normal;font-variant-east-asian:normal">Game engine</tspan></text></g></svg>