<svg xmlns="http://www.w3.org/2000/svg" xmlns:xlink="http://www.w3.org/1999/xlink" xml:space="preserve" width="1024" height="414"><defs><linearGradient xlink:href="#a" id="d" x1="496.519" x2="635.831" y1="813.477" y2="589.778" gradientTransform="translate(-29.828 14.465)scale(.3714)" gradientUnits="userSpaceOnUse"/><linearGradient id="a"><stop offset=".045" stop-color="#7f24ce"/><stop offset=".468" stop-color="#b846e4"/><stop offset=".825" stop-color="#d055ee"/><stop offset="1" stop-color="#f87cfe"/></linearGradient><linearGradient xlink:href="#b" id="e" x1="269.585" x2="488.27" y1="847.204" y2="393.079" gradientTransform="translate(-29.828 14.465)scale(.3714)" gradientUnits="userSpaceOnUse"/><linearGradient id="b"><stop offset=".045" stop-color="#7f24ce"/><stop offset=".478" stop-color="#b846e4"/><stop offset=".848" stop-color="#d055ee"/><stop offset="1" stop-color="#f87cfe"/></linearGradient><linearGradient xlink:href="#c" id="f" x1="635.831" x2="721.822" y1="589.778" y2="368.408" gradientTransform="translate(-29.828 14.465)scale(.3714)" gradientUnits="userSpaceOnUse"/><linearGradient id="c"><stop offset=".045" stop-color="#7f24ce"/><stop offset=".468" stop-color="#b846e4"/><stop offset=".848" stop-color="#d055ee"/><stop offset="1" stop-color="#f87cfe"/></linearGradient></defs><text xml:space="preserve" x="316.565" y="243.003" fill="#414042" stroke-width="1.07" font-family="'Inter Alia'" font-size="12.84" font-weight="700" style="-inkscape-font-specification:&quot;Inter Alia, Bold&quot;;font-variant-ligatures:normal;font-variant-caps:normal;font-variant-numeric:normal;font-variant-east-asian:normal;text-align:start" transform="translate(58.492 -.863)"><tspan x="316.565" y="243.003" font-size="156.936" style="-inkscape-font-specification:&quot;Inter Alia, Bold&quot;;font-variant-ligatures:normal;font-variant-caps:normal;font-variant-numeric:normal;font-variant-east-asian:normal">Blazium</tspan></text><text xml:space="preserve" x="322.255" y="333.035" fill="#414042" stroke-width="1.07" font-family="'Inter Alia'" font-size="85.601" font-weight="500" style="-inkscape-font-specification:&quot;Inter Alia, Medium&quot;;font-variant-ligatures:normal;font-variant-caps:normal;font-variant-numeric:normal;font-variant-east-asian:normal;text-align:start" transform="translate(58.492 -.863)"><tspan x="322.255" y="333.035" font-size="71.335" font-weight="400" style="-inkscape-font-specification:&quot;Inter Alia, Normal&quot;;font-variant-ligatures:normal;font-variant-caps:normal;font-variant-numeric:normal;font-variant-east-asian:normal">Game engine</tspan></text><path fill="url(#d)" d="m 163.0029,228.55197 c 25.52155,-1.40406 48.32735,22.5152 45.71268,47.94494 -0.87722,23.54537 -22.75734,44.24515 -46.60158,41.92388 -27.69467,1.01656 -49.12956,-28.69872 -42.47208,-54.78297 3.95663,-20.07124 23.04982,-35.08046 43.36098,-35.08585 z" paint-order="markers stroke fill" style="mix-blend-mode:normal" transform="translate(58.492 -.863)"/><path fill="url(#e)" d="M 75.702797,31.474432 C 81.281392,42.938505 90.38803,53.363657 93.914191,66.158302 104.0825,92.813379 96.703233,122.20168 83.471715,146.36947 63.204643,186.16619 43.53501,230.0482 49.205041,275.75901 c 5.726645,41.29327 35.077603,79.18444 75.475199,91.44405 40.55193,13.5366 88.32605,0.0528 115.51471,-33.0388 18.65526,-21.74845 29.5196,-51.87819 24.40755,-80.51272 -7.77751,-31.83823 -32.588,-58.33418 -63.9671,-67.92336 -19.01387,-6.35311 -37.75867,-15.85331 -50.29317,-31.94683 -3.11887,10.23755 -6.66146,22.99465 -10.38162,34.4214 -3.51067,12.37443 -8.76383,24.38295 -11.29487,36.95081 10.41146,-4.0944 22.62767,-11.16361 35.25633,-10.20899 31.78651,-0.61614 59.74162,28.42078 58.48673,60.10568 -0.25639,30.94145 -28.46001,58.41962 -59.54602,57.1792 -30.96706,0.14008 -57.50825,-27.26982 -58.43474,-57.85013 -0.42446,-23.20591 9.00766,-45.183 15.36816,-67.16656 C 132.10983,170.71652 143.916,131.96712 139.15568,93.035485 136.73209,65.866456 117.98255,39.526115 90.500952,33.602553 85.671671,32.35825 80.712083,31.37725 75.702797,31.474432 Z" paint-order="markers stroke fill" style="mix-blend-mode:normal" transform="translate(58.492 -.863)"/><path fill="url(#f)" d="m 180.45624,51.401318 c -12.4561,8.650947 -24.02711,21.113268 -27.86748,36.042446 2.64223,15.851996 0.79331,32.042216 0.55384,47.866806 6.7803,23.92068 31.55514,34.82968 53.13575,42.10956 26.31161,9.07833 49.13041,28.33803 60.32359,54.09699 2.61134,5.08897 11.58958,27.30209 10.6045,9.01178 0.89532,-31.55108 -12.52452,-63.26927 -37.22415,-83.27495 -18.23736,-16.37492 -44.00006,-25.22994 -55.26879,-48.55929 -9.75804,-17.117561 -9.18032,-38.096198 -3.38245,-56.418535 l -0.4374,-0.437403 z" paint-order="markers stroke fill" style="mix-blend-mode:normal" transform="translate(58.492 -.863)"/></svg>