<?xml version="1.0" encoding="UTF-8" standalone="no"?>
<!-- Created with Inkscape (http://www.inkscape.org/) -->

<svg
   version="1.1"
   id="svg99"
   width="400"
   height="100"
   viewBox="0 0 400 100"
   sodipodi:docname="Logo.svg"
   inkscape:version="1.2.2 (b0a8486541, 2022-12-01)"
   xmlns:inkscape="http://www.inkscape.org/namespaces/inkscape"
   xmlns:sodipodi="http://sodipodi.sourceforge.net/DTD/sodipodi-0.dtd"
   xmlns="http://www.w3.org/2000/svg"
   xmlns:svg="http://www.w3.org/2000/svg">
  <defs
     id="defs103">
    <rect
       x="136.17978"
       y="17.752809"
       width="369.77953"
       height="104.94269"
       id="rect267" />
  </defs>
  <sodipodi:namedview
     id="namedview101"
     pagecolor="#ffffff"
     bordercolor="#000000"
     borderopacity="0.25"
     inkscape:showpageshadow="2"
     inkscape:pageopacity="0.0"
     inkscape:pagecheckerboard="0"
     inkscape:deskcolor="#d1d1d1"
     showgrid="false"
     inkscape:zoom="2.8284271"
     inkscape:cx="208.41973"
     inkscape:cy="29.698485"
     inkscape:window-width="1920"
     inkscape:window-height="996"
     inkscape:window-x="0"
     inkscape:window-y="0"
     inkscape:window-maximized="1"
     inkscape:current-layer="g105" />
  <g
     inkscape:groupmode="layer"
     inkscape:label="Image"
     id="g105">
    <g
       aria-label="Titanium"
       transform="translate(-34.640287,14.301036)"
       id="text265"
       style="font-weight:600;font-size:75.3333px;font-family:'URW Gothic';-inkscape-font-specification:'URW Gothic Semi-Bold';white-space:pre;shape-inside:url(#rect267);shape-padding:0.953402;display:inline;fill:#555555">
      <path
         d="m 147.98081,83.795 h 10.32066 V 37.992355 h 10.32066 v -9.868662 h -30.96198 v 9.868662 h 10.32066 z"
         id="path1559" />
      <path
         d="m 172.91609,83.795 h 10.01933 V 42.060354 h -10.01933 z m 0,-46.254644 h 10.01933 v -9.416663 h -10.01933 z"
         id="path1561" />
      <path
         d="m 192.50273,83.795 h 10.01933 V 51.175683 h 6.02667 v -9.115329 h -6.02667 V 28.123693 h -10.01933 v 13.936661 h -4.89666 v 9.115329 h 4.89666 z"
         id="path1563" />
      <path
         d="m 255.25535,42.060354 h -9.19066 v 5.574664 c -3.46533,-4.595332 -7.60866,-6.553997 -13.63532,-6.553997 -12.35467,0 -21.24399,9.265995 -21.24399,21.997323 0,12.58066 8.81399,21.695989 21.01799,21.695989 5.87599,0 9.86866,-1.807999 13.86132,-6.40333 V 83.795 h 9.19066 z m -21.77132,8.211329 c 7.15667,0 12.27933,5.348664 12.27933,12.957327 0,3.013332 -1.20533,6.478664 -3.01333,8.587996 -2.034,2.485999 -5.27333,3.766665 -9.11533,3.766665 -7.30733,0 -12.35466,-4.971998 -12.35466,-12.279327 0,-7.608664 5.04733,-13.032661 12.20399,-13.032661 z"
         id="path1565" />
      <path
         d="m 262.71335,83.795 h 10.01932 V 64.13301 c 0,-5.574664 0.37667,-7.98533 1.65734,-10.019329 1.582,-2.485999 4.14333,-3.841998 7.38266,-3.841998 2.63667,0 4.67066,0.904 6.02666,2.636665 1.356,1.808 1.95867,4.896665 1.95867,10.471329 V 83.795 h 10.01933 V 61.421011 c 0,-7.457996 -0.75333,-11.073995 -3.01333,-14.313327 -2.712,-3.917331 -7.232,-6.026663 -13.03266,-6.026663 -4.82134,0 -8.06067,1.355999 -11.752,4.971997 v -3.992664 h -9.26599 z"
         id="path1567" />
      <path
         d="m 307.91335,83.795 h 10.01933 V 42.060354 h -10.01933 z m 0,-46.254644 h 10.01933 v -9.416663 h -10.01933 z"
         id="path1569" />
      <path
         d="m 363.13264,42.060354 h -10.01933 v 19.66199 c 0,5.574664 -0.37667,8.21133 -1.582,10.019329 -1.43133,2.485999 -4.21867,3.841998 -7.60866,3.841998 -2.56134,0 -4.52,-0.828666 -5.876,-2.636665 -1.43133,-1.808 -2.034,-4.821331 -2.034,-10.471329 V 42.060354 h -10.01933 v 22.373989 c 0,7.08133 0.82867,10.772662 3.164,14.16266 2.78733,3.992665 7.232,6.17733 12.73133,6.17733 5.04733,0 8.13599,-1.280666 11.97799,-4.971997 V 83.795 h 9.266 z"
         id="path1571" />
      <path
         d="m 371.19333,83.795 h 10.01933 V 63.22901 c 0,-4.143331 0.37667,-6.930663 1.05467,-8.663329 1.20533,-2.787332 3.69133,-4.293998 7.15666,-4.293998 2.63667,0 4.972,0.979333 6.328,2.636665 1.20533,1.582 1.73266,4.067998 1.73266,7.98533 V 83.795 h 10.01933 V 63.22901 c 0,-4.670664 0.37667,-7.005996 1.43134,-8.964662 1.28066,-2.561332 3.84199,-3.992665 7.00599,-3.992665 2.486,0 4.59533,0.904 5.95133,2.561332 1.356,1.581999 1.88334,3.917332 1.88334,8.060663 V 83.795 H 433.7953 V 59.688345 c 0,-5.047331 -0.904,-9.115329 -2.71199,-11.977994 -2.63667,-4.218665 -7.83467,-6.62933 -14.238,-6.62933 -5.876,0 -9.94399,1.958665 -13.33399,6.478663 -2.86267,-4.595331 -6.47867,-6.478663 -12.27933,-6.478663 -4.89666,0 -7.91,1.355999 -10.84799,4.896664 v -3.917331 h -9.19067 z"
         id="path1573" />
    </g>
    <rect
       style="fill:#555555;fill-opacity:1"
       id="rect852"
       width="100.21066"
       height="99.775269"
       x="0.22471911"
       y="0.22471911" />
  </g>
</svg>
