<?xml version="1.0" encoding="UTF-8"?>
<svg version="1.1" xmlns="http://www.w3.org/2000/svg" width="548" height="207">
<path d="M0 0 C4.63206727 3.61265478 7.80931184 8.58771161 10 14 C10 14.66 10 15.32 10 16 C13.67475115 16.22746892 13.67475115 16.22746892 17 15 C18.84532347 12.36010195 20.18995214 9.68220705 21.54296875 6.76171875 C23.14958426 3.71647166 24.15208185 1.96231349 27 0 C33.32915289 -1.09645776 39.17760401 0.57452557 45.125 2.625 C45.88425781 2.86089844 46.64351563 3.09679687 47.42578125 3.33984375 C52.97858172 5.20352033 56.82721765 7.9141158 61 12 C61.48895752 11.49186768 61.97791504 10.98373535 62.48168945 10.46020508 C70.21383204 2.42484121 70.21383204 2.42484121 76.3046875 1.49609375 C87.13175643 1.31840662 87.13175643 1.31840662 91.3125 4.8125 C94.92456646 8.4973537 95.12567041 11.89160097 95.12939453 16.90161133 C95.13254669 18.11750443 95.13569885 19.33339752 95.13894653 20.58613586 C95.13591019 22.56410408 95.13591019 22.56410408 95.1328125 24.58203125 C95.13348692 25.95668047 95.1344581 27.33132958 95.13571167 28.70597839 C95.13718757 31.59525685 95.13504115 34.48450443 95.13037109 37.3737793 C95.12473274 41.03689761 95.12791553 44.69994168 95.13394356 48.36305714 C95.13760281 51.20906608 95.13638533 54.05505821 95.13381577 56.90106773 C95.13284235 58.89586307 95.13583176 60.89065912 95.13894653 62.88545227 C95.11772095 71.3063466 94.70892473 79.60987839 94 88 C95.2375 87.9175 96.475 87.835 97.75 87.75 C99.859375 87.609375 99.859375 87.609375 102 88 C103.36793144 89.29781321 104.70515098 90.6292624 106 92 C106.00142502 91.42228348 106.00285004 90.84456696 106.00431824 90.24934387 C106.0240213 84.23044498 106.07830753 78.21255942 106.15258789 72.1940918 C106.17576945 69.94872307 106.19016395 67.70324558 106.19555664 65.45776367 C106.2048447 62.22766327 106.24583423 58.99927391 106.29296875 55.76953125 C106.2890361 54.76727005 106.28510345 53.76500885 106.28105164 52.7323761 C106.37819737 48.08061208 106.48110884 45.71795698 109.26489258 41.86621094 C112.01016794 39.99306224 113.21043029 39.36789234 116.46875 39.37109375 C117.28730469 39.36916016 118.10585937 39.36722656 118.94921875 39.36523438 C119.79097656 39.38908203 120.63273438 39.41292969 121.5 39.4375 C122.76263672 39.42106445 122.76263672 39.42106445 124.05078125 39.40429688 C128.01071958 39.4510678 130.43734089 39.67686645 133.91796875 41.67578125 C136.22511475 44.25130071 137.48483384 46.56360122 138.8125 49.75 C139.23144531 50.73484375 139.65039062 51.7196875 140.08203125 52.734375 C140.38496094 53.48203125 140.68789062 54.2296875 141 55 C141.32613281 54.24074219 141.65226563 53.48148438 141.98828125 52.69921875 C142.42527344 51.70535156 142.86226562 50.71148437 143.3125 49.6875 C143.74175781 48.70136719 144.17101562 47.71523437 144.61328125 46.69921875 C146.70899559 42.61995506 146.70899559 42.61995506 149 41 C153.47636746 39.89862038 157.96536224 39.77563887 162.5625 39.6875 C163.84253906 39.65011719 165.12257813 39.61273438 166.44140625 39.57421875 C170.71108973 40.08508099 172.06721299 40.88927207 175 44 C175.51714967 46.80382813 175.72228209 49.02407947 175.70703125 51.828125 C175.72215256 52.57713074 175.73727386 53.32613647 175.75285339 54.09783936 C175.79572559 56.48219923 175.804567 58.86529314 175.8125 61.25 C175.83564499 62.86982531 175.86101034 64.48962052 175.88867188 66.109375 C175.95151837 70.07302852 175.98385743 74.03589224 176 78 C176.4031543 77.0212793 176.80630859 76.04255859 177.22167969 75.03417969 C178.7250049 71.39211248 180.24139385 67.7556054 181.76171875 64.12060547 C182.41697075 62.54884239 183.06870619 60.97560835 183.71679688 59.40087891 C184.65086214 57.13304867 185.59759218 54.87087037 186.546875 52.609375 C186.83246277 51.90818542 187.11805054 51.20699585 187.41229248 50.48455811 C189.06209002 46.5933336 190.59232726 43.57011555 194 41 C197.27692863 40.18574385 200.5702934 40.35082766 203.9375 40.375 C204.83146484 40.34277344 205.72542969 40.31054688 206.64648438 40.27734375 C211.25149217 40.27050632 213.3097068 40.40672098 216.890625 43.484375 C219.47556256 47.31597736 221.16282675 51.57783789 222.8125 55.875 C223.12380859 56.65875 223.43511719 57.4425 223.75585938 58.25 C224.51394842 60.16271698 225.25840456 62.08082793 226 64 C226.32871094 63.31035156 226.65742188 62.62070313 226.99609375 61.91015625 C231.92288049 52.1767483 238.39595743 43.73189481 249 40 C257.62377747 37.70032601 267.93307139 38.03117455 276 42 C279.24078041 44.44505308 282.15537161 47.10727403 285 50 C285.268125 49.071875 285.53625 48.14375 285.8125 47.1875 C287.45782199 42.77110939 287.45782199 42.77110939 290 41 C292.6251355 40.70121937 295.00795304 40.57948085 297.6328125 40.6015625 C298.38408417 40.59869232 299.13535583 40.59582214 299.90939331 40.59286499 C301.50145215 40.5908236 303.09353602 40.59635879 304.68554688 40.60888672 C307.09564102 40.62480608 309.50402365 40.6091122 311.9140625 40.58984375 C322.64279957 40.57213231 331.41253639 40.74127575 339.4375 48.625 C342.45588742 51.68433675 342.45588742 51.68433675 346 54 C346.25394531 53.41347656 346.50789063 52.82695313 346.76953125 52.22265625 C350.18376292 46.05536158 356.49595539 42.20892081 363 40 C374.42570516 37.34024569 384.81377916 39.37077269 395 45 C395.44802979 44.35095703 395.89605957 43.70191406 396.35766602 43.03320312 C400.4093143 39.91557151 404.29791569 40.42717915 409.27734375 40.46875 C410.28084366 40.4649231 411.28434357 40.46109619 412.31825256 40.45715332 C414.43898523 40.45443326 416.55975138 40.461801 418.68041992 40.47851562 C421.92247597 40.4999009 425.16231028 40.47872805 428.40429688 40.453125 C430.46615072 40.4557687 432.52800318 40.46089454 434.58984375 40.46875 C435.55768295 40.46065308 436.52552216 40.45255615 437.52268982 40.44421387 C441.72621756 40.50260624 444.36657487 40.6551153 448.10693359 42.69165039 C451.57603534 46.92177123 450.75900056 51.68687204 450.6875 56.9375 C450.71521484 58.02224609 450.74292969 59.10699219 450.77148438 60.22460938 C450.74817622 67.80908279 450.74817622 67.80908279 448.82666016 70.86767578 C446.23366001 73.27261776 444.29598407 73.9899319 440.79174805 74.10913086 C439.87047119 74.07311768 438.94919434 74.03710449 438 74 C438.02094727 75.03930664 438.04189453 76.07861328 438.06347656 77.14941406 C438.13595674 81.01076442 438.18182831 84.87205483 438.21972656 88.73388672 C438.23982393 90.40423702 438.26710683 92.07451713 438.30175781 93.74462891 C438.35036119 96.1476372 438.37298656 98.54971434 438.390625 100.953125 C438.41127014 101.69806213 438.43191528 102.44299927 438.45318604 103.21051025 C438.45464534 106.59367532 438.24210656 108.64344306 436.3215332 111.47192383 C433.48383812 113.33974731 431.84641222 113.50258428 428.46484375 113.49609375 C427.40845703 113.49673828 426.35207031 113.49738281 425.26367188 113.49804688 C424.16603516 113.47806641 423.06839844 113.45808594 421.9375 113.4375 C420.28524414 113.44813477 420.28524414 113.44813477 418.59960938 113.45898438 C410.56510982 113.39517955 410.56510982 113.39517955 408.19433594 111.73730469 C406.73629459 109.6164089 406.57907317 108.32986326 406.48828125 105.76953125 C406.43510742 104.56586914 406.43510742 104.56586914 406.38085938 103.33789062 C406.35830078 102.50451172 406.33574219 101.67113281 406.3125 100.8125 C406.27833984 99.96751953 406.24417969 99.12253906 406.20898438 98.25195312 C406.12658529 96.16843351 406.06161355 94.08423784 406 92 C405.70899414 92.5986084 405.41798828 93.1972168 405.11816406 93.81396484 C400.83921643 102.42133915 394.41357742 110.24664284 385.06640625 113.40625 C375.59232808 115.24072119 364.69654512 115.82881237 356.19140625 110.7109375 C352.08435686 107.50436418 348.48500758 103.86381275 345 100 C344.18208984 100.90492187 344.18208984 100.90492187 343.34765625 101.828125 C342.59355469 102.62734375 341.83945312 103.4265625 341.0625 104.25 C339.96615234 105.43335937 339.96615234 105.43335937 338.84765625 106.640625 C330.23693952 113.77488139 321.46599918 113.65858806 310.73266602 113.57641602 C308.17529986 113.56243329 305.62151784 113.59683424 303.06445312 113.63476562 C301.43229077 113.63571593 299.80012385 113.63386274 298.16796875 113.62890625 C297.40751755 113.64216446 296.64706635 113.65542267 295.86357117 113.66908264 C292.07739796 113.60238116 290.35891312 113.33564658 287.55200195 110.71069336 C286 108 286 108 285 104 C282.36 106.31 279.72 108.62 277 111 C277.78375 111.28875 278.5675 111.5775 279.375 111.875 C282 113 282 113 284 115 C284.125 118.125 284.125 118.125 284 121 C284.85231201 120.9685791 285.70462402 120.9371582 286.58276367 120.90478516 C289.76024304 120.802223 292.93687639 120.72716415 296.11547852 120.67041016 C297.4881575 120.6403267 298.86064563 120.59944666 300.23266602 120.54736328 C311.56791972 120.1279959 311.56791972 120.1279959 315.00634766 122.22167969 C319.84204159 127.7516672 319.21705168 134.12669677 319 141 C318.98324219 141.74378906 318.96648437 142.48757812 318.94921875 143.25390625 C318.71242285 146.81937598 318.12407676 148.83573794 315.9609375 151.69946289 C312.21515328 154.60979639 309.35629097 154.63469802 304.8125 154.49609375 C303.21093735 154.49792348 301.60937485 154.49988048 300.0078125 154.50195312 C297.49946834 154.47466714 294.99152793 154.43735617 292.48339844 154.39477539 C290.05085944 154.36211586 287.62020524 154.36533105 285.1875 154.37109375 C284.44153564 154.34631454 283.69557129 154.32153534 282.92700195 154.29600525 C280.02937539 154.31011465 277.71752702 154.36326423 275.48681641 156.34280396 C274.27319368 157.85539711 273.13281738 159.42597873 272 161 C266.48543736 162.83818755 260.31358925 162.87916391 254.875 160.8125 C252.57566868 158.58981306 252.49574059 157.09079084 252 154 C251.16750732 154.01571045 250.33501465 154.0314209 249.47729492 154.04760742 C246.38552144 154.09876642 243.29396382 154.1363648 240.2019043 154.16479492 C238.20672299 154.18728333 236.21173787 154.22540198 234.21679688 154.26367188 C232.96318359 154.27333984 231.70957031 154.28300781 230.41796875 154.29296875 C228.68196411 154.31653442 228.68196411 154.31653442 226.91088867 154.34057617 C224 154 224 154 222.09887695 152.48168945 C221.73624756 151.99273193 221.37361816 151.50377441 221 151 C220.38125 151.309375 219.7625 151.61875 219.125 151.9375 C215.17775874 153.91112063 212.19610159 154.17234588 207.81567383 154.20874023 C206.70556442 154.22341591 206.70556442 154.22341591 205.57302856 154.23838806 C203.11771444 154.26836093 200.66245502 154.2897357 198.20703125 154.30859375 C196.9486271 154.31845149 196.9486271 154.31845149 195.66480064 154.32850838 C191.22178204 154.36111452 186.77878749 154.38555906 182.33569336 154.4050293 C178.66215989 154.4228249 174.98939661 154.45761407 171.31616211 154.50756836 C166.87875985 154.56784495 162.44207034 154.59851553 158.00427818 154.60820198 C156.31578978 154.61674752 154.62731995 154.63554366 152.93906593 154.6649456 C138.06432283 154.90999152 138.06432283 154.90999152 133.47143555 151.08618164 C129.11190202 145.6422556 129.67834714 141.10753385 129.5625 134.3125 C129.51673828 133.23548828 129.47097656 132.15847656 129.42382812 131.04882812 C129.34708922 125.60703894 129.39065325 121.97666045 133.02734375 117.73046875 C133.99113772 116.79167192 134.97322379 115.86946474 136 115 C134.94872925 114.98598145 134.94872925 114.98598145 133.8762207 114.97167969 C130.68760975 114.91785456 127.50044667 114.83423064 124.3125 114.75 C123.20970703 114.73582031 122.10691406 114.72164063 120.97070312 114.70703125 C112.77579418 114.45945092 112.77579418 114.45945092 108.78125 112.09375 C106.98852138 109.98650759 106.29257001 108.73065345 106 106 C105.29875 106.598125 104.5975 107.19625 103.875 107.8125 C101 110 101 110 97.875 111.1875 C94.64560204 112.75587904 94.64560204 112.75587904 94.1953125 116.35546875 C94.17210937 117.62003906 94.14890625 118.88460937 94.125 120.1875 C94.06699219 122.09595703 94.06699219 122.09595703 94.0078125 124.04296875 C94.00523437 125.01878906 94.00265625 125.99460937 94 127 C94.91007813 127.27972656 95.82015625 127.55945313 96.7578125 127.84765625 C101.12958991 129.40148075 104.32439713 131.1318427 107 135 C108.2240428 140.2835265 107.86858617 144.4724864 105.1875 149.1875 C100.50874568 151.84796814 96.26174178 151.52919817 91 151 C90.12988281 150.75636719 89.25976562 150.51273438 88.36328125 150.26171875 C87.19345703 150.13216797 87.19345703 150.13216797 86 150 C84.20824471 151.36642069 84.20824471 151.36642069 82.6875 153.4375 C70.60856194 166.27979102 48.99527143 171.23349418 31.91789246 172.10643005 C29.59326016 172.16406238 27.27062878 172.19088481 24.9453125 172.203125 C23.65559036 172.21167511 23.65559036 172.21167511 22.33981323 172.22039795 C20.52277844 172.229807 18.70572691 172.23636556 16.88867188 172.24023438 C14.16764677 172.2498493 11.44740791 172.28087375 8.7265625 172.3125 C-11.73472939 172.43600716 -37.59722281 170.05210972 -53.51953125 155.734375 C-54.84101407 154.33198506 -56.12563459 152.89289561 -57.3515625 151.40625 C-57.89554688 150.9421875 -58.43953125 150.478125 -59 150 C-60.94551747 150.21057107 -60.94551747 150.21057107 -63 151 C-64.80803498 151.16436682 -66.62263922 151.26467427 -68.4375 151.3125 C-69.82775391 151.36857422 -69.82775391 151.36857422 -71.24609375 151.42578125 C-74.92495175 150.85699327 -76.48590719 149.7288196 -79 147 C-80.09184699 142.22393186 -80.47225089 136.43197758 -77.85546875 132.109375 C-74.58719067 129.24639789 -71.14433468 128.38144489 -67 127 C-67 122.05 -67 117.1 -67 112 C-68.98 111.34 -70.96 110.68 -73 110 C-77.38951997 107.56137779 -77.38951997 107.56137779 -79 105 C-80.10612063 99.3360348 -80.06007755 94.67042522 -76.9375 89.75 C-73.36220335 87.62003604 -71.09129367 87.86506923 -67 88 C-67.01332367 87.03835434 -67.02664734 86.07670868 -67.04037476 85.08592224 C-67.16218278 76.00839487 -67.2520328 66.93103402 -67.31087303 57.8528738 C-67.34214121 53.1859923 -67.38453053 48.5197723 -67.45263672 43.85327148 C-67.51799182 39.34689427 -67.55373999 34.84115192 -67.56926346 30.33433723 C-67.580321 28.61792065 -67.60191465 26.90153752 -67.63438034 25.18539238 C-67.90935659 10.04320297 -67.90935659 10.04320297 -64.08837891 5.45336914 C-58.95043529 1.37185172 -55.04949324 1.49177079 -48.56640625 1.51171875 C-43.09067897 2.26140759 -40.46952694 4.91871768 -37 9 C-36.00684127 10.00679478 -35.00910413 11.00918778 -34 12 C-33.443125 11.278125 -32.88625 10.55625 -32.3125 9.8125 C-27.96805219 5.43070737 -21.70368192 3.93896879 -16 2 C-14.7625 1.566875 -13.525 1.13375 -12.25 0.6875 C-4.02485275 -1.05243499 -4.02485275 -1.05243499 0 0 Z M260 73 C259.34 73.66 258.68 74.32 258 75 C258.32041397 77.60280568 258.32041397 77.60280568 259 80 C259.99 79.67 260.98 79.34 262 79 C262.33 78.01 262.66 77.02 263 76 C262.01 75.01 261.02 74.02 260 73 Z M373 73 C372.34 73.66 371.68 74.32 371 75 C371.32041397 77.60280568 371.32041397 77.60280568 372 80 C372.99 80 373.98 80 375 80 C375.77242269 78.16299211 375.77242269 78.16299211 376 76 C374.64555699 74.22809091 374.64555699 74.22809091 373 73 Z M317 75 C318 78 318 78 318 78 Z M202 98 C201.50628906 98.99902344 201.01257813 99.99804688 200.50390625 101.02734375 C199.85687605 102.3307814 199.20973489 103.63416398 198.5625 104.9375 C198.23701172 105.59685547 197.91152344 106.25621094 197.57617188 106.93554688 C195.11328125 111.88671875 195.11328125 111.88671875 194 113 C190.89914779 113.16041193 187.81812421 113.25963402 184.71484375 113.31640625 C183.78402481 113.33718735 182.85320587 113.35796844 181.8941803 113.37937927 C178.90869818 113.44497931 175.92312516 113.50380802 172.9375 113.5625 C170.91861024 113.6056753 168.8997298 113.64928925 166.88085938 113.69335938 C161.92066703 113.80067129 156.96038291 113.90190888 152 114 C152.78375 114.78375 153.5675 115.5675 154.375 116.375 C156.6875 118.6875 156.6875 118.6875 159 121 C161.90711995 121.24700401 164.7250485 121.37399645 167.63671875 121.4140625 C168.50835159 121.43342865 169.37998444 121.4527948 170.2780304 121.4727478 C173.08108604 121.53260619 175.88418964 121.57878762 178.6875 121.625 C180.52671071 121.66320559 182.36590402 121.70225882 184.20507812 121.7421875 C194.38842049 121.97487996 194.38842049 121.97487996 204.57275391 121.91699219 C205.26609329 121.90429291 205.95943268 121.89159363 206.67378235 121.87850952 C208.50786894 121.83888967 210.34151905 121.78031395 212.17504883 121.72021484 C215 122 215 122 216.8972168 123.51025391 C217.44309448 124.24767822 217.44309448 124.24767822 218 125 C218.61875 124.690625 219.2375 124.38125 219.875 124.0625 C223.85898446 122.07050777 226.23127372 121.89546995 230.7734375 121.9375 C231.45242096 121.94128662 232.13140442 121.94507324 232.83096313 121.94897461 C235.73162387 121.9652362 238.63214266 121.99293958 241.53271484 122.02050781 C250.40569414 122.09761122 259.1638047 121.94726382 268 121 C268.4640625 119.576875 268.4640625 119.576875 268.9375 118.125 C270 115 270 115 271 113 C270.16190796 113.0314209 270.16190796 113.0314209 269.30688477 113.06347656 C266.72561327 113.14766294 264.14463176 113.19897693 261.5625 113.25 C260.68400391 113.28351563 259.80550781 113.31703125 258.90039062 113.3515625 C253.11721765 113.43692299 249.02879215 112.55488039 243.89038086 109.86621094 C241.89201307 108.7917151 241.89201307 108.7917151 239 109 C238.47277344 109.81210938 237.94554687 110.62421875 237.40234375 111.4609375 C234.74280266 114.27183459 234.28325324 114.39854009 230.62890625 114.6640625 C228.94010591 114.67730799 227.25091562 114.66340217 225.5625 114.625 C224.2930957 114.65400391 224.2930957 114.65400391 222.99804688 114.68359375 C218.6985201 114.64992479 216.60290463 114.44895439 213.078125 111.82421875 C211.00723535 109.009833 209.54334514 106.4027899 208.1875 103.1875 C207.76855469 102.21167969 207.34960938 101.23585938 206.91796875 100.23046875 C206.61503906 99.49441406 206.31210937 98.75835937 206 98 C204.68 98 203.36 98 202 98 Z " fill="#FBFBFC" transform="translate(93,17)"/>
<path d="M0 0 C1.73046875 2.046875 1.73046875 2.046875 3.1875 4.75 C3.92033203 6.07257812 3.92033203 6.07257812 4.66796875 7.421875 C5.79622224 9.60559144 6.90076632 11.80153264 8 14 C13.94 14.33 19.88 14.66 26 15 C26.66 13.02 27.32 11.04 28 9 C28.83141985 7.35227702 29.70410978 5.7244409 30.625 4.125 C31.29402344 2.95324219 31.29402344 2.95324219 31.9765625 1.7578125 C32.31429687 1.17773438 32.65203125 0.59765625 33 0 C38.41590521 -0.40086228 42.37817125 0.97544207 47.3125 2.9375 C48.40401367 3.35418945 48.40401367 3.35418945 49.51757812 3.77929688 C54.83645992 5.83645992 54.83645992 5.83645992 56 7 C56.07319621 9.69654854 56.09242537 12.36691458 56.0625 15.0625 C56.05798828 15.82111328 56.05347656 16.57972656 56.04882812 17.36132812 C56.0370068 19.24091871 56.01907078 21.12046899 56 23 C56.44279297 22.58226318 56.88558594 22.16452637 57.34179688 21.73413086 C59.39314917 19.80044849 61.44656317 17.86896851 63.5 15.9375 C64.19609375 15.28072266 64.8921875 14.62394531 65.609375 13.94726562 C67.7300308 11.95424188 69.86103783 9.9733604 72 8 C72.72670898 7.32880127 73.45341797 6.65760254 74.20214844 5.96606445 C75.25450684 5.01606567 75.25450684 5.01606567 76.328125 4.046875 C76.9562207 3.47678711 77.58431641 2.90669922 78.23144531 2.31933594 C80 1 80 1 83.25 0.3125 C86.76173155 1.19043289 87.82788213 2.0997724 90 5 C90.37400179 7.91252526 90.5070566 10.44044465 90.45410156 13.34863281 C90.45468567 14.18802399 90.45526978 15.02741516 90.45587158 15.89224243 C90.45308786 18.66295929 90.42198277 21.43259641 90.390625 24.203125 C90.38316362 26.12554334 90.3774702 28.04796929 90.37347412 29.97039795 C90.35820967 35.0274764 90.31892075 40.0840945 90.2746582 45.14099121 C90.23372306 50.30226413 90.21546685 55.4636115 90.1953125 60.625 C90.15242739 70.75020213 90.08416613 80.87506277 90 91 C90.92039063 90.50886719 91.84078125 90.01773438 92.7890625 89.51171875 C96.19596127 87.90774086 98.29119044 87.73508503 102 88 C102.33 89.65 102.66 91.3 103 93 C101.21118264 94.00508801 99.41885304 95.00392736 97.625 96 C96.62726563 96.556875 95.62953125 97.11375 94.6015625 97.6875 C92 99 92 99 90 99 C90 101.64 90 104.28 90 107 C81.3945222 108.12482768 72.8245268 109.18250092 64.16015625 109.75390625 C62.02203613 109.77045601 62.02203613 109.77045601 61 111 C60.76518307 113.18292774 60.58636677 115.37203174 60.4375 117.5625 C60.35371094 118.76003906 60.26992187 119.95757812 60.18359375 121.19140625 C60.12300781 122.11824219 60.06242188 123.04507813 60 124 C56.77125066 124.33745928 53.5419413 124.66923369 50.3125 125 C49.40048828 125.09539062 48.48847656 125.19078125 47.54882812 125.2890625 C46.66259766 125.37929687 45.77636719 125.46953125 44.86328125 125.5625 C44.05157471 125.64628906 43.23986816 125.73007813 42.40356445 125.81640625 C39.92615534 126.00564055 37.4836252 126.03092452 35 126 C34.86722656 125.14535156 34.73445313 124.29070312 34.59765625 123.41015625 C34.42105469 122.30542969 34.24445313 121.20070313 34.0625 120.0625 C33.88847656 118.96035156 33.71445313 117.85820312 33.53515625 116.72265625 C33.28154864 114.09573071 33.28154864 114.09573071 32 113 C29.70848583 112.91209025 27.41427476 112.89305962 25.12109375 112.90234375 C24.4344313 112.9037587 23.74776886 112.90517365 23.04029846 112.90663147 C20.83932199 112.91224521 18.63844591 112.92479993 16.4375 112.9375 C14.94856917 112.94251324 13.45963676 112.94707645 11.97070312 112.95117188 C8.31376925 112.96221907 4.65689442 112.97949287 1 113 C-0.26638795 117.32939946 -1.34638676 121.53364288 -2 126 C-5.06277267 125.85873374 -8.12513542 125.71215604 -11.1875 125.5625 C-12.05181641 125.52318359 -12.91613281 125.48386719 -13.80664062 125.44335938 C-14.64775391 125.40146484 -15.48886719 125.35957031 -16.35546875 125.31640625 C-17.12528076 125.27974854 -17.89509277 125.24309082 -18.68823242 125.20532227 C-21.14869654 124.98679335 -23.57781914 124.48443617 -26 124 C-26.66 119.71 -27.32 115.42 -28 111 C-29.50626953 110.81824219 -29.50626953 110.81824219 -31.04296875 110.6328125 C-39.72176823 109.5735386 -48.3665779 108.38962616 -57 107 C-56.9071875 105.205625 -56.9071875 105.205625 -56.8125 103.375 C-56.94154239 101.12257475 -56.94154239 101.12257475 -58 99 C-61.426791 96.45651227 -65.09546815 94.69818189 -69 93 C-68.67 91.35 -68.34 89.7 -68 88 C-63.88425629 88.4748935 -60.63616656 89.0210244 -57 91 C-57.01110306 89.94621658 -57.02220612 88.89243317 -57.03364563 87.80671692 C-57.13501158 77.87497276 -57.20996058 67.94333357 -57.25906086 58.01118946 C-57.28515264 52.90494538 -57.32054329 47.79911894 -57.37719727 42.69311523 C-57.43153163 37.76532068 -57.46142369 32.83792779 -57.47438622 27.9098568 C-57.48362352 26.02994145 -57.50166208 24.15004804 -57.52865028 22.27030373 C-57.56496015 19.63650676 -57.56994464 17.00436839 -57.56762695 14.37036133 C-57.59459152 13.20510674 -57.59459152 13.20510674 -57.62210083 12.01631165 C-57.58390659 8.00381751 -57.16458748 6.2075934 -54.64030457 3.02372742 C-52 1 -52 1 -49.1875 0.25 C-40.67761323 2.2523263 -33.97251316 11.95938927 -28.01586914 18.01977539 C-27.06635376 18.98258423 -27.06635376 18.98258423 -26.09765625 19.96484375 C-25.52539307 20.5487085 -24.95312988 21.13257324 -24.36352539 21.73413086 C-23.18794683 23.11339593 -23.18794683 23.11339593 -22 23 C-22 17.39 -22 11.78 -22 6 C-4.806882 -0.70531602 -4.806882 -0.70531602 0 0 Z " fill="#478CBF" transform="translate(90,25)"/>
<path d="M0 0 C8.46204771 -0.30221599 16.63745983 0.85079203 25 2 C25.06058594 2.92683594 25.12117188 3.85367188 25.18359375 4.80859375 C25.26738281 6.00613281 25.35117187 7.20367187 25.4375 8.4375 C25.51871094 9.63246094 25.59992187 10.82742187 25.68359375 12.05859375 C25.67656114 14.88570244 25.67656114 14.88570244 27 16 C28.59786618 16.2280257 30.20454415 16.3949777 31.8125 16.53515625 C32.80636719 16.62216797 33.80023438 16.70917969 34.82421875 16.79882812 C35.87222656 16.88583984 36.92023438 16.97285156 38 17.0625 C39.01707031 17.15337891 40.03414062 17.24425781 41.08203125 17.33789062 C47.07971251 17.84988781 52.98108676 18.09404552 59 18 C59.66 13.71 60.32 9.42 61 5 C69.25 5 77.5 5 86 5 C86.99 11.93 86.99 11.93 88 19 C89.22074219 18.86722656 90.44148438 18.73445313 91.69921875 18.59765625 C93.36192812 18.4187957 95.02469241 18.24044518 96.6875 18.0625 C97.54714355 17.9704126 98.40678711 17.8783252 99.29248047 17.78344727 C105.43256556 17.13691154 111.56380855 16.62641484 117.7265625 16.24609375 C119.96484103 16.24412634 119.96484103 16.24412634 121 15 C121.23481693 12.81707226 121.41363323 10.62796826 121.5625 8.4375 C121.64628906 7.23996094 121.73007813 6.04242188 121.81640625 4.80859375 C121.87699219 3.88175781 121.93757812 2.95492187 122 2 C124.85366354 1.66178803 127.70780596 1.3293022 130.5625 1 C131.36236328 0.90460938 132.16222656 0.80921875 132.98632812 0.7109375 C137.69452167 0.17285824 142.26147265 -0.10176703 147 0 C146.94457031 0.72445312 146.88914063 1.44890625 146.83203125 2.1953125 C146.81042208 5.43668787 146.96620265 7.91562518 148 11 C150.72850828 13.11835367 153.34213531 14.37260459 156.53125 15.68359375 C159 17 159 17 159.96875 19.03515625 C159.98421875 20.00775391 159.98421875 20.00775391 160 21 C159.34 21.66 158.68 22.32 158 23 C154.82470136 22.73539178 152.7672057 21.87647649 149.9375 20.375 C147.23613896 18.80796383 147.23613896 18.80796383 145.0078125 19.1875 C142.47110761 20.21402649 141.57955568 21.44959119 139.9375 23.625 C127.89561689 37.8563164 107.04928367 41.6992815 89.34155273 43.80810547 C63.77759318 45.90311873 31.67299283 44.99719806 10.98046875 27.84765625 C8.03080395 25.09579934 5.51158126 22.15557646 3 19 C-1.17862632 20.31721085 -1.17862632 20.31721085 -5.125 22.1875 C-7.47562146 23.20610263 -8.63348782 22.84518292 -11 22 C-11.6875 20.1875 -11.6875 20.1875 -12 18 C-8.9355081 14.04841834 -4.61293003 13.40393523 0 12 C0 8.04 0 4.08 0 0 Z " fill="#488DBF" transform="translate(33,138)"/>
<path d="M0 0 C1.09054688 0.02320313 2.18109375 0.04640625 3.3046875 0.0703125 C4.40039062 0.08835938 5.49609375 0.10640625 6.625 0.125 C7.46804687 0.14820313 8.31109375 0.17140625 9.1796875 0.1953125 C12.18614899 6.05926668 14.88219728 11.99407656 17.4296875 18.0703125 C17.79320312 18.92367187 18.15671875 19.77703125 18.53125 20.65625 C18.87414062 21.4709375 19.21703125 22.285625 19.5703125 23.125 C19.88000977 23.85960449 20.18970703 24.59420898 20.50878906 25.35107422 C21.1796875 27.1953125 21.1796875 27.1953125 21.1796875 29.1953125 C24.42627002 27.57202124 24.84711826 24.08180087 25.9921875 20.8203125 C28.41505504 14.12100115 31.10097386 7.62519231 34.1796875 1.1953125 C36.49212542 1.16845838 38.8046502 1.14898409 41.1171875 1.1328125 C42.40496094 1.12121094 43.69273437 1.10960938 45.01953125 1.09765625 C48.1796875 1.1953125 48.1796875 1.1953125 49.1796875 2.1953125 C49.27344803 4.00586275 49.2971286 5.82008451 49.29321289 7.63305664 C49.29313736 8.79418472 49.29306183 9.95531281 49.29298401 11.15162659 C49.28782272 12.4151445 49.28266144 13.67866241 49.27734375 14.98046875 C49.2759288 16.26642441 49.27451385 17.55238007 49.27305603 18.87730408 C49.26923168 22.30174693 49.25940212 25.72614759 49.24835205 29.15057373 C49.23813614 32.64269439 49.23355803 36.13482184 49.22851562 39.62695312 C49.21777977 46.48309028 49.20070434 53.33919937 49.1796875 60.1953125 C46.86724958 60.22216662 44.5547248 60.24164091 42.2421875 60.2578125 C40.95441406 60.26941406 39.66664063 60.28101563 38.33984375 60.29296875 C35.1796875 60.1953125 35.1796875 60.1953125 34.1796875 59.1953125 C34.10742248 57.34243748 34.0958753 55.48697372 34.1171875 53.6328125 C34.12621094 52.62089844 34.13523438 51.60898438 34.14453125 50.56640625 C34.15613281 49.78394531 34.16773438 49.00148437 34.1796875 48.1953125 C33.5196875 48.1953125 32.8596875 48.1953125 32.1796875 48.1953125 C31.88964844 49.11763672 31.88964844 49.11763672 31.59375 50.05859375 C31.33335937 50.86683594 31.07296875 51.67507812 30.8046875 52.5078125 C30.42183594 53.70857422 30.42183594 53.70857422 30.03125 54.93359375 C29.1796875 57.1953125 29.1796875 57.1953125 27.1796875 60.1953125 C24.578125 60.48828125 24.578125 60.48828125 21.5546875 60.3828125 C20.05035156 60.34220703 20.05035156 60.34220703 18.515625 60.30078125 C17.74476563 60.26597656 16.97390625 60.23117188 16.1796875 60.1953125 C15.91414063 59.48503906 15.64859375 58.77476563 15.375 58.04296875 C15.02179688 57.12386719 14.66859375 56.20476562 14.3046875 55.2578125 C13.95664063 54.34128906 13.60859375 53.42476562 13.25 52.48046875 C12.3977789 50.04590194 12.3977789 50.04590194 10.1796875 49.1953125 C10.19128906 49.83339844 10.20289063 50.47148438 10.21484375 51.12890625 C10.22386719 51.95519531 10.23289063 52.78148437 10.2421875 53.6328125 C10.25378906 54.45652344 10.26539063 55.28023437 10.27734375 56.12890625 C10.1796875 58.1953125 10.1796875 58.1953125 9.1796875 59.1953125 C6.82655195 59.26802991 4.47135082 59.27902118 2.1171875 59.2578125 C0.82683594 59.24878906 -0.46351563 59.23976562 -1.79296875 59.23046875 C-2.79199219 59.21886719 -3.79101562 59.20726562 -4.8203125 59.1953125 C-4.86660669 51.7980049 -4.90216676 44.40072843 -4.92393684 37.00330544 C-4.9343842 33.56855791 -4.94856055 30.13390933 -4.97119141 26.69921875 C-4.99703313 22.75261612 -5.00677743 18.80605387 -5.015625 14.859375 C-5.02594757 13.62289215 -5.03627014 12.3864093 -5.04690552 11.11245728 C-5.04705658 9.97142548 -5.04720764 8.83039368 -5.04736328 7.65478516 C-5.0518045 6.6466275 -5.05624573 5.63846985 -5.06082153 4.59976196 C-4.69384839 0.93100838 -3.61143384 0.2500993 0 0 Z " fill="#424243" transform="translate(211.8203125,63.8046875)"/>
<path d="M0 0 C30.64705882 0 30.64705882 0 40.375 6.125 C46.62295485 12.96799817 49.41566026 21.14557358 49.27734375 30.3359375 C48.38481404 38.90925106 45.78890768 47.37214066 39 53 C26.9344245 61.50609986 15.96774336 58 0 58 C0 38.86 0 19.72 0 0 Z M23 27 C24 30 24 30 24 30 Z " fill="#424143" transform="translate(387,65)"/>
<path d="M0 0 C7.13830016 3.97819874 10.96756905 9.75276857 14.05078125 17.09375 C15.99156173 28.03269451 15.5801555 37.90819413 9.1953125 47.21875 C4.46373731 53.10885734 -1.7551375 57.26148268 -9.390625 58.2421875 C-17.31249368 58.57279518 -23.31912017 56.43642753 -29.3046875 51.171875 C-36.44070647 43.56417887 -38.8678734 36.28549115 -38.73461914 25.92407227 C-38.37363437 17.61946608 -35.83154188 10.5817884 -30.07421875 4.5078125 C-21.48612965 -2.78465971 -10.41056238 -4.65565523 0 0 Z M-12.26171875 23.96875 C-12.92171875 24.62875 -13.58171875 25.28875 -14.26171875 25.96875 C-13.94130478 28.57155568 -13.94130478 28.57155568 -13.26171875 30.96875 C-12.27171875 30.96875 -11.28171875 30.96875 -10.26171875 30.96875 C-9.48929606 29.13174211 -9.48929606 29.13174211 -9.26171875 26.96875 C-10.61616176 25.19684091 -10.61616176 25.19684091 -12.26171875 23.96875 Z " fill="#434244" transform="translate(478.26171875,66.03125)"/>
<path d="M0 0 C7.96642399 4.84233615 12.88380288 10.11818838 16.1875 18.9375 C18.67204669 29.19421837 17.0370228 38.0575018 11.90234375 47.234375 C7.68820851 53.47927737 1.60874408 57.47394788 -5.8125 58.9375 C-13.96698048 59.48113203 -20.56613232 57.53969862 -27.140625 52.59375 C-34.06303199 45.7360384 -36.04228719 38.15168917 -36.125 28.75 C-36.13456615 18.68322021 -33.7214581 12.07782281 -26.7109375 4.66796875 C-19.09122655 -2.27757025 -9.74066088 -2.71461041 0 0 Z M-9.8125 24.9375 C-10.4725 25.5975 -11.1325 26.2575 -11.8125 26.9375 C-11.49208603 29.54030568 -11.49208603 29.54030568 -10.8125 31.9375 C-9.8225 31.6075 -8.8325 31.2775 -7.8125 30.9375 C-7.4825 29.9475 -7.1525 28.9575 -6.8125 27.9375 C-7.8025 26.9475 -8.7925 25.9575 -9.8125 24.9375 Z " fill="#424243" transform="translate(362.8125,65.0625)"/>
<path d="M0 0 C3.96 0 7.92 0 12 0 C15.29501264 6.47495336 18.38307794 12.97143738 21.20703125 19.6640625 C21.57728928 20.54097748 21.9475473 21.41789246 22.32902527 22.32138062 C23.10157118 24.15738444 23.87200453 25.99427853 24.64038086 27.83203125 C25.42441633 29.7002599 26.21483218 31.5658232 27.01147461 33.42871094 C28.17397334 36.14733099 29.31746379 38.87326394 30.45703125 41.6015625 C30.81320023 42.42572662 31.1693692 43.24989075 31.53633118 44.09902954 C33.68625216 49.324192 34.46211378 53.3441724 34 59 C32.26877681 60.73122319 30.04741865 60.33435124 27.6875 60.4375 C22.37147423 60.36194925 22.37147423 60.36194925 19.5625 57.625 C17.61608889 53.10932623 15.74059446 48.6001425 14 44 C8.72 44 3.44 44 -2 44 C-3.93222372 48.56125509 -3.93222372 48.56125509 -5.85913086 53.12475586 C-7.88888889 57.88888889 -7.88888889 57.88888889 -9 59 C-11.18639453 59.07258946 -13.37500389 59.08373783 -15.5625 59.0625 C-17.35880859 59.04896484 -17.35880859 59.04896484 -19.19140625 59.03515625 C-20.11824219 59.02355469 -21.04507812 59.01195312 -22 59 C-22.48310011 52.11731448 -20.93748787 47.36465185 -18.203125 41.09375 C-17.81308289 40.16961304 -17.42304077 39.24547607 -17.0211792 38.29333496 C-15.7774038 35.35636573 -14.51378289 32.42840683 -13.25 29.5 C-12.41541313 27.5330835 -11.58206752 25.56563984 -10.75 23.59765625 C-7.36074226 15.62073291 -3.94858648 7.71880654 0 0 Z " fill="#454446" transform="translate(291,65)"/>
<path d="M0 0 C12.54 0 25.08 0 38 0 C38 5.94 38 11.88 38 18 C34.7 18.33 31.4 18.66 28 19 C27.67 31.87 27.34 44.74 27 58 C21.72 58 16.44 58 11 58 C11 44.8 11 31.6 11 18 C7.37 18 3.74 18 0 18 C0 12.06 0 6.12 0 0 Z " fill="#414042" transform="translate(496,65)"/>
<path d="M0 0 C5.28832816 1.76277605 9.44533489 5.01315372 12 10 C12.99275957 15.61059575 12.78115243 20.31751785 10.375 25.5 C6.1241958 29.97453074 1.98088728 32.64930738 -4.1875 33.375 C-9.74402048 32.828457 -13.64117002 30.60330256 -17.39453125 26.4609375 C-20.59017105 21.69570783 -20.91238971 16.57571488 -20 11 C-15.57684245 2.1536849 -9.41323012 -0.84416446 0 0 Z " fill="#F2F5F7" transform="translate(149,89)"/>
<path d="M0 0 C5.28859743 1.76286581 9.39434905 5.04836778 12 10 C12.91493958 15.12514938 12.50668171 19.5332898 10.8125 24.4375 C7.73159684 28.79325964 4.14097514 31.53114996 -1 33 C-6.51829903 33.72883195 -9.76422567 32.56893934 -14.19921875 29.46875 C-17.78391348 26.54500766 -19.70828858 24.0359026 -20.375 19.3828125 C-20.63345569 13.42217808 -20.13498219 9.5820073 -16 5 C-10.57816818 0.22362435 -7.09579335 -0.63634018 0 0 Z " fill="#F3F5F7" transform="translate(72,89)"/>
<path d="M0 0 C3.36483928 0.44189791 4.45249126 1.51659291 6.8449707 3.8894043 C7.97128906 5.00605469 7.97128906 5.00605469 9.12036133 6.14526367 C9.88928711 6.93352539 10.65821289 7.72178711 11.45043945 8.53393555 C12.23870117 9.30286133 13.02696289 10.07178711 13.83911133 10.86401367 C14.95576172 11.99033203 14.95576172 11.99033203 16.0949707 13.1394043 C16.775354 13.82542725 17.4557373 14.5114502 18.15673828 15.21826172 C19.98028394 17.83831241 20.10173154 19.2159189 19.63793945 22.34643555 C17.51293945 24.8112793 17.51293945 24.8112793 14.63793945 27.28393555 C13.88951782 27.93036011 13.88951782 27.93036011 13.12597656 28.58984375 C11.64371252 29.85828544 10.14104383 31.10276025 8.63793945 32.34643555 C7.85547852 33.0115918 7.07301758 33.67674805 6.2668457 34.36206055 C2.43623925 37.46130358 2.43623925 37.46130358 0.63793945 38.34643555 C-2.83277184 37.87572425 -2.83277184 37.87572425 -4.36206055 36.34643555 C-4.47533421 33.84889414 -4.52623245 31.38003565 -4.5300293 28.8815918 C-4.5333577 28.13308456 -4.5366861 27.38457733 -4.54011536 26.61338806 C-4.54518748 25.02709571 -4.54752359 23.44079264 -4.54736328 21.85449219 C-4.54954828 19.42259186 -4.56769636 16.99114605 -4.58666992 14.55932617 C-4.58960404 13.02091627 -4.59158871 11.48250421 -4.5925293 9.9440918 C-4.59971481 9.21384293 -4.60690033 8.48359406 -4.61430359 7.73121643 C-4.58223871 0.67206168 -4.58223871 0.67206168 0 0 Z " fill="#77A0BF" transform="translate(41.362060546875,36.653564453125)"/>
<path d="M0 0 C1 1 1 1 1.11352539 4.41821289 C1.11336628 5.93636988 1.10767226 7.45453229 1.09765625 8.97265625 C1.0962413 9.77029892 1.09482635 10.56794159 1.09336853 11.38975525 C1.08775316 13.94737435 1.07519812 16.50490718 1.0625 19.0625 C1.05748698 20.79231645 1.05292373 22.52213426 1.04882812 24.25195312 C1.03777875 28.50133553 1.02050386 32.75065312 1 37 C-1.33666992 37.61523438 -1.33666992 37.61523438 -4 38 C-6.61328125 36.15625 -6.61328125 36.15625 -9.3125 33.5 C-10.27278615 32.57484428 -11.23372918 31.65036991 -12.1953125 30.7265625 C-13.12085938 29.82679687 -14.04640625 28.92703125 -15 28 C-16.55212803 26.61330254 -18.11316615 25.23643461 -19.6875 23.875 C-20.33074219 23.31554687 -20.97398437 22.75609375 -21.63671875 22.1796875 C-22.08660156 21.79039063 -22.53648437 21.40109375 -23 21 C-22.11823527 15.35860197 -17.62802252 12.11520261 -13.75 8.25 C-12.98558594 7.45722656 -12.22117188 6.66445313 -11.43359375 5.84765625 C-10.68722656 5.09871094 -9.94085938 4.34976563 -9.171875 3.578125 C-8.4922168 2.89137695 -7.81255859 2.20462891 -7.11230469 1.49707031 C-4.53280395 -0.33111953 -3.09753221 -0.38505598 0 0 Z " fill="#78A1BF" transform="translate(174,37)"/>
<path d="M0 0 C2.87029869 1.79393668 4.49131638 2.98263276 6 6 C6.55512815 10.63213493 6.6364242 13.98172127 4.125 18 C0.61416183 21.30431828 -2.06429794 21.38948117 -6.73828125 21.359375 C-10.32520929 20.78943134 -11.86838894 18.79773951 -14 16 C-15.60086627 12.79826746 -15.49917089 9.47422941 -15 6 C-11.03690229 -0.20885308 -7.02452124 -0.90991208 0 0 Z " fill="#414042" transform="translate(74,96)"/>
<path d="M0 0 C3.12603632 1.24280551 3.79695509 2.17558345 6 5 C7.04906942 9.96071584 6.78130746 13.72386448 4.125 18.0625 C0.5895105 21.28603454 -2.09174754 21.38930436 -6.73828125 21.359375 C-10.32520929 20.78943134 -11.86838894 18.79773951 -14 16 C-15.60086627 12.79826746 -15.49917089 9.47422941 -15 6 C-11.04580583 -0.1949042 -7.0171585 -0.98733889 0 0 Z " fill="#414042" transform="translate(148,96)"/>
<path d="M0 0 C3.56912018 2.47092935 6.70972464 4.7420913 8 9 C8.52055293 12.99090581 8.16996586 14.69523363 6.1875 18.25 C4 21 4 21 1 23 C-5.99656881 23.78993519 -5.99656881 23.78993519 -9.9375 20.6875 C-13.15993818 16.4885654 -13.44092288 13.20289002 -13 8 C-9.78925583 2.13208824 -6.93098855 -0.95131215 0 0 Z M-3 8 C-3.66 8.66 -4.32 9.32 -5 10 C-4.67958603 12.60280568 -4.67958603 12.60280568 -4 15 C-3.01 15 -2.02 15 -1 15 C-0.22757731 13.16299211 -0.22757731 13.16299211 0 11 C-1.35444301 9.22809091 -1.35444301 9.22809091 -3 8 Z " fill="#FAFAFB" transform="translate(469,82)"/>
<path d="M0 0 C2.92937654 1.81310142 5.43647949 3.87295899 7 7 C7.44080589 11.3148115 7.47056025 14.94684134 5.6875 18.9375 C3.0066295 22.2141195 1.35246738 22.9602053 -2.875 23.4375 C-6.43842075 23.36531284 -6.96447861 23.02871942 -9.9375 20.625 C-13.02572478 16.6945321 -13.39098892 14.22828319 -13.359375 9.328125 C-12.75455722 5.40995764 -10.83123243 3.69641184 -8 1 C-5.09704195 -0.45147903 -3.22738221 -0.37239025 0 0 Z M-3 8 C-3.66 8.66 -4.32 9.32 -5 10 C-4.67958603 12.60280568 -4.67958603 12.60280568 -4 15 C-3.01 14.67 -2.02 14.34 -1 14 C-0.67 13.01 -0.34 12.02 0 11 C-0.99 10.01 -1.98 9.02 -3 8 Z " fill="#FBFBFB" transform="translate(356,82)"/>
<path d="M0 0 C9.89285714 0 9.89285714 0 14.8125 4.75 C16.55246428 8.04677442 16.44406988 10.32056389 16 14 C14.03103752 18.09544197 12.56736389 19.69052879 8.5625 21.875 C5 23 5 23 0 23 C0 15.41 0 7.82 0 0 Z M7 9 C8 12 8 12 8 12 Z " fill="#F8F8F8" transform="translate(403,83)"/>
<path d="M0 0 C1.010625 0.103125 2.02125 0.20625 3.0625 0.3125 C4.3825 0.3125 5.7025 0.3125 7.0625 0.3125 C7.20778105 4.06209217 7.29656281 7.81096105 7.375 11.5625 C7.4378418 13.15771484 7.4378418 13.15771484 7.50195312 14.78515625 C7.62550384 22.64298192 7.62550384 22.64298192 4.75 26.0625 C1.40213762 27.6196453 -0.43173396 27.29085331 -3.9375 26.3125 C-3.9375 25.6525 -3.9375 24.9925 -3.9375 24.3125 C-1.2975 24.3125 1.3425 24.3125 4.0625 24.3125 C4.0625 22.3325 4.0625 20.3525 4.0625 18.3125 C3.7325 18.6425 3.4025 18.9725 3.0625 19.3125 C1.06291636 19.35330783 -0.93795254 19.35504356 -2.9375 19.3125 C-5.95758666 14.27902223 -6.48256579 11.03569081 -5.9375 5.3125 C-4.51874227 1.52914604 -4.09497918 0.43563608 0 0 Z " fill="#FAFAFA" transform="translate(355.9375,144.6875)"/>
<path d="M0 0 C0.33 1.65 0.66 3.3 1 5 C-2.74970665 6.95889539 -6.499816 8.91701863 -10.25 10.875 C-11.31347656 11.43058594 -12.37695312 11.98617187 -13.47265625 12.55859375 C-14.49746094 13.09355469 -15.52226562 13.62851563 -16.578125 14.1796875 C-17.52075195 14.67194824 -18.46337891 15.16420898 -19.43457031 15.67138672 C-20.28116211 16.1098291 -21.12775391 16.54827148 -22 17 C-22.72541992 17.39590332 -23.45083984 17.79180664 -24.19824219 18.19970703 C-26.50059154 19.22234947 -27.67539642 18.83021556 -30 18 C-30.33 16.68 -30.66 15.36 -31 14 C-26.94980232 10.4649938 -22.73624063 8.18859998 -17.9375 5.875 C-17.23044922 5.52824219 -16.52339844 5.18148437 -15.79492188 4.82421875 C-14.44417984 4.16216491 -13.09157233 3.50389865 -11.73681641 2.85009766 C-10.3784704 2.18524514 -9.03866424 1.48248365 -7.70703125 0.765625 C-5.150103 -0.3811895 -2.75726383 -0.12533017 0 0 Z " fill="#252936" transform="translate(192,113)"/>
<path d="M0 0 C6.90746898 0.39609263 12.23619676 3.2976112 18.3125 6.4375 C19.81393555 7.19256836 19.81393555 7.19256836 21.34570312 7.96289062 C28.70429473 11.70429473 28.70429473 11.70429473 31 14 C30.625 16.125 30.625 16.125 30 18 C27.25181254 19.09640802 26.1216514 19.04281299 23.28271484 18.04370117 C22.26902832 17.54845947 21.2553418 17.05321777 20.2109375 16.54296875 C19.10492188 16.00736328 17.99890625 15.47175781 16.859375 14.91992188 C15.70953125 14.34822266 14.5596875 13.77652344 13.375 13.1875 C12.21742188 12.62740234 11.05984375 12.06730469 9.8671875 11.49023438 C1.30336607 7.30336607 1.30336607 7.30336607 -1 5 C-0.625 2.375 -0.625 2.375 0 0 Z " fill="#252936" transform="translate(162,142)"/>
<path d="M0 0 C0.33 1.32 0.66 2.64 1 4 C-23.91326387 18.34778936 -23.91326387 18.34778936 -28.296875 17.6171875 C-28.85890625 17.41351563 -29.4209375 17.20984375 -30 17 C-30.6875 15.1875 -30.6875 15.1875 -31 13 C-27.4857674 8.55426622 -21.59969401 6.63956432 -16.625 4.25 C-15.5834375 3.73050781 -14.541875 3.21101562 -13.46875 2.67578125 C-12.46070312 2.18980469 -11.45265625 1.70382813 -10.4140625 1.203125 C-9.4957666 0.75614258 -8.5774707 0.30916016 -7.63134766 -0.15136719 C-4.63674466 -1.11715305 -2.98242244 -0.8798382 0 0 Z " fill="#252936" transform="translate(52,143)"/>
<path d="M0 0 C6.93683819 0.38861839 12.28138203 3.33769106 18.375 6.5 C19.38433594 7.01175781 20.39367187 7.52351563 21.43359375 8.05078125 C28.81702867 11.81702867 28.81702867 11.81702867 30 13 C30.04063832 14.66617115 30.042721 16.33388095 30 18 C26.07064774 19.09809745 24.17022174 19.01271133 20.6015625 17.05078125 C19.79203125 16.61443359 18.9825 16.17808594 18.1484375 15.72851562 C17.31570312 15.26123047 16.48296875 14.79394531 15.625 14.3125 C14.8 13.86455078 13.975 13.41660156 13.125 12.95507812 C8.38001125 10.3679295 3.68407143 7.69555054 -1 5 C-0.67 3.35 -0.34 1.7 0 0 Z " fill="#222633" transform="translate(22,113)"/>
<path d="M0 0 C5.61 0 11.22 0 17 0 C18 5 18 5 16.48828125 7.2734375 C15.77027344 7.96695313 15.05226563 8.66046875 14.3125 9.375 C13.60738281 10.08398438 12.90226562 10.79296875 12.17578125 11.5234375 C10 13 10 13 7.96875 12.9296875 C5.62657192 11.82365896 4.04866099 10.55238748 2.1875 8.75 C1.56230469 8.16734375 0.93710938 7.5846875 0.29296875 6.984375 C-1 5 -1 5 0 0 Z " fill="#F7F9FB" transform="translate(98,118)"/>
<path d="M0 0 C3.125 0.25 3.125 0.25 4.80859375 1.25390625 C6.89614369 4.41930096 6.43697746 7.78296944 6.3125 11.4375 C6.29896484 12.18708984 6.28542969 12.93667969 6.27148438 13.70898438 C6.23618539 15.55629767 6.18237917 17.40324066 6.125 19.25 C5.135 18.92 4.145 18.59 3.125 18.25 C1.949375 18.435625 0.77375 18.62125 -0.4375 18.8125 C-1.571875 18.956875 -2.70625 19.10125 -3.875 19.25 C-5.875 17.25 -5.875 17.25 -6.25 14.3125 C-5.875 11.25 -5.875 11.25 -4.25 9.375 C-1.30862303 7.98171617 0.90833296 8.03068179 4.125 8.25 C3.795 6.6 3.465 4.95 3.125 3.25 C1.145 3.25 -0.835 3.25 -2.875 3.25 C-3.205 3.91 -3.535 4.57 -3.875 5.25 C-4.535 5.25 -5.195 5.25 -5.875 5.25 C-3.48114934 0.30270864 -3.48114934 0.30270864 0 0 Z " fill="#7C7D80" transform="translate(256.875,144.75)"/>
<path d="M0 0 C3 0.4375 3 0.4375 4.875 1.5625 C6.4682099 4.21784983 6.20214032 6.40539518 6 9.4375 C2.7 9.4375 -0.6 9.4375 -4 9.4375 C-3.34 11.7475 -2.68 14.0575 -2 16.4375 C0.64 16.4375 3.28 16.4375 6 16.4375 C5.34 17.4275 4.68 18.4175 4 19.4375 C0.57027683 19.95941439 -1.32694915 19.80944916 -4.375 18.125 C-6.94266885 13.87847075 -6.78933604 9.27307217 -6 4.4375 C-4.15413531 1.24625287 -3.73244133 0.54431436 0 0 Z " fill="#767679" transform="translate(300,144.5625)"/>
<path d="M0 0 C2.9375 0.5625 2.9375 0.5625 4.8125 2.25 C5.9375 4.5625 5.9375 4.5625 5.9375 9.5625 C2.3075 9.5625 -1.3225 9.5625 -5.0625 9.5625 C-4.4025 11.8725 -3.7425 14.1825 -3.0625 16.5625 C0.22446233 17.36203138 1.64773192 17.65908936 4.9375 16.5625 C4.6075 17.5525 4.2775 18.5425 3.9375 19.5625 C-2.30710432 20.16294272 -2.30710432 20.16294272 -5.5 17.625 C-7.61084027 13.48775307 -7.8701195 10.11978147 -7.0625 5.5625 C-5.08178472 1.82961351 -4.17443998 0.76673387 0 0 Z " fill="#76777A" transform="translate(324.0625,144.4375)"/>
<path d="M0 0 C3 0.4375 3 0.4375 4.875 1.5625 C6.4682099 4.21784983 6.20214032 6.40539518 6 9.4375 C2.7 9.4375 -0.6 9.4375 -4 9.4375 C-3.34 11.7475 -2.68 14.0575 -2 16.4375 C1.05263664 17.41870464 2.94736336 17.41870464 6 16.4375 C5.34 17.4275 4.68 18.4175 4 19.4375 C0.5625 19.875 0.5625 19.875 -3 19.4375 C-5.20770919 17.25009159 -5.93563095 15.86662698 -6.3984375 12.78125 C-6.39070313 11.8428125 -6.38296875 10.904375 -6.375 9.9375 C-6.38273437 8.9990625 -6.39046875 8.060625 -6.3984375 7.09375 C-5.74579006 2.74276709 -4.4175942 0.64423249 0 0 Z " fill="#797A7D" transform="translate(398,144.5625)"/>
<path d="M0 0 C2.875 2.375 2.875 2.375 5 5 C5 5.66 5 6.32 5 7 C4.34 7 3.68 7 3 7 C2.67 5.68 2.34 4.36 2 3 C0.72125 2.938125 -0.5575 2.87625 -1.875 2.8125 C-2.59429687 2.77769531 -3.31359375 2.74289063 -4.0546875 2.70703125 C-4.69664062 2.80371094 -5.33859375 2.90039062 -6 3 C-8.42936835 6.64405252 -8.32947342 8.598817 -8.375 12.9375 C-8.40335938 14.16339844 -8.43171875 15.38929688 -8.4609375 16.65234375 C-8.26575373 20.05233748 -8.26575373 20.05233748 -6.1796875 22.45703125 C-4.00036643 24.34802223 -4.00036643 24.34802223 -0.75 23.75 C0.1575 23.5025 1.065 23.255 2 23 C2.33 20.36 2.66 17.72 3 15 C1.35 15 -0.3 15 -2 15 C-2 14.34 -2 13.68 -2 13 C0.31 13 2.62 13 5 13 C5.10824843 14.6026782 5.18570645 16.20745748 5.25 17.8125 C5.29640625 18.70582031 5.3428125 19.59914062 5.390625 20.51953125 C5 23 5 23 3.203125 24.80078125 C-0.00693489 26.54810108 -2.40653437 26.38501417 -6 26 C-9.1850357 24.23984869 -9.83296972 23.50109084 -11 20 C-11.14619515 17.71148355 -11.22091336 15.41799684 -11.25 13.125 C-11.28867188 11.30355469 -11.28867188 11.30355469 -11.328125 9.4453125 C-10.97719855 5.76058479 -10.22102379 3.92183227 -8 1 C-5.11138291 -0.44430855 -3.20352299 -0.37688506 0 0 Z " fill="#78797C" transform="translate(241,138)"/>
<path d="M0 0 C1.32 0 2.64 0 4 0 C5.546875 -0.0928125 5.546875 -0.0928125 7.125 -0.1875 C8.07375 -0.125625 9.0225 -0.06375 10 0 C12.52775351 3.79163027 12.22443035 6.80874031 12.125 11.1875 C12.11597656 11.93708984 12.10695313 12.68667969 12.09765625 13.45898438 C12.07412578 15.30612654 12.03825561 17.15310412 12 19 C11.34 19 10.68 19 10 19 C9.67 13.72 9.34 8.44 9 3 C7.35 3 5.7 3 4 3 C2.00383446 4.99616554 2.59016573 8.81701963 2.4375 11.5625 C2.39431641 12.27341797 2.35113281 12.98433594 2.30664062 13.71679688 C2.20028223 15.47761912 2.09961154 17.2387832 2 19 C1.34 19 0.68 19 0 19 C0 12.73 0 6.46 0 0 Z " fill="#707174" transform="translate(334,145)"/>
<path d="M0 0 C0.99 0.33 1.98 0.66 3 1 C4.7634375 0.7215625 4.7634375 0.7215625 6.5625 0.4375 C8.2640625 0.2209375 8.2640625 0.2209375 10 0 C12 2 12 2 12.1953125 5.9140625 C12.18200376 7.48449351 12.15813602 9.05486221 12.125 10.625 C12.11597656 11.42679688 12.10695313 12.22859375 12.09765625 13.0546875 C12.07406223 15.03658523 12.03819065 17.01832981 12 19 C11.67 19 11.34 19 11 19 C10.93941406 17.92878906 10.87882812 16.85757813 10.81640625 15.75390625 C10.73201463 14.35675609 10.64736594 12.95962143 10.5625 11.5625 C10.52318359 10.85544922 10.48386719 10.14839844 10.44335938 9.41992188 C10.52375562 5.91309581 10.52375562 5.91309581 9 3 C7.33382885 2.95936168 5.66611905 2.957279 4 3 C2.5192152 5.9615696 2.64685963 8.83506295 2.4375 12.125 C2.35371094 13.40632812 2.26992188 14.68765625 2.18359375 16.0078125 C2.09271484 17.48894531 2.09271484 17.48894531 2 19 C1.34 19 0.68 19 0 19 C0 12.73 0 6.46 0 0 Z " fill="#868789" transform="translate(375,145)"/>
<path d="M0 0 C0.66 0 1.32 0 2 0 C2.14528105 3.74959217 2.23406281 7.49846105 2.3125 11.25 C2.3753418 12.84521484 2.3753418 12.84521484 2.43945312 14.47265625 C2.56300384 22.33048192 2.56300384 22.33048192 -0.3125 25.75 C-3.66036238 27.3071453 -5.49423396 26.97835331 -9 26 C-9 25.34 -9 24.68 -9 24 C-6.36 24 -3.72 24 -1 24 C-1.00523682 23.34402832 -1.01047363 22.68805664 -1.01586914 22.01220703 C-1.03661272 19.04981437 -1.04965176 16.08743697 -1.0625 13.125 C-1.07087891 12.09246094 -1.07925781 11.05992187 -1.08789062 9.99609375 C-1.09111328 9.00996094 -1.09433594 8.02382812 -1.09765625 7.0078125 C-1.10289307 6.09660645 -1.10812988 5.18540039 -1.11352539 4.24658203 C-1 2 -1 2 0 0 Z " fill="#737477" transform="translate(361,145)"/>
<path d="M0 0 C0.928125 0.103125 1.85625 0.20625 2.8125 0.3125 C3.1425 0.9725 3.4725 1.6325 3.8125 2.3125 C2.843125 2.43625 1.87375 2.56 0.875 2.6875 C-0.135625 2.89375 -1.14625 3.1 -2.1875 3.3125 C-3.37056728 5.67863456 -3.32104608 7.18030736 -3.3125 9.8125 C-3.31507813 10.6065625 -3.31765625 11.400625 -3.3203125 12.21875 C-3.32027996 14.37168534 -3.32027996 14.37168534 -2.1875 16.3125 C0.84184491 16.97022428 0.84184491 16.97022428 3.8125 17.3125 C3.4825 17.9725 3.1525 18.6325 2.8125 19.3125 C0.8325 19.3125 -1.1475 19.3125 -3.1875 19.3125 C-6.20758666 14.27902223 -6.73256579 11.03569081 -6.1875 5.3125 C-4.70251073 1.35252861 -4.28669305 0.42026402 0 0 Z " fill="#818285" transform="translate(356.1875,144.6875)"/>
<path d="M0 0 C1.134375 0.020625 2.26875 0.04125 3.4375 0.0625 C3.5625 2.4375 3.5625 2.4375 3.4375 5.0625 C1.4375 7.0625 1.4375 7.0625 -1.6875 7.1875 C-3.110625 7.125625 -3.110625 7.125625 -4.5625 7.0625 C-4.60504356 5.06295254 -4.60330783 3.06208364 -4.5625 1.0625 C-3.5625 0.0625 -3.5625 0.0625 0 0 Z " fill="#F9F9F9" transform="translate(257.5625,154.9375)"/>
<path d="M0 0 C2.625 0.375 2.625 0.375 5 1 C5.33 2.98 5.66 4.96 6 7 C3.03 7 0.06 7 -3 7 C-2.25 2.25 -2.25 2.25 0 0 Z " fill="#F4F4F4" transform="translate(322,146)"/>
<path d="M0 0 C2 0.1875 2 0.1875 4 1 C6 4 6 4 6 7 C3.03 7 0.06 7 -3 7 C-2.25 2.25 -2.25 2.25 0 0 Z " fill="#F3F4F4" transform="translate(299,146)"/>
<path d="M0 0 C2.6875 0.1875 2.6875 0.1875 6.6875 2.1875 C6.3575 7.7975 6.0275 13.4075 5.6875 19.1875 C5.0275 19.1875 4.3675 19.1875 3.6875 19.1875 C3.64882813 17.59808594 3.64882813 17.59808594 3.609375 15.9765625 C3.5531022 14.58849999 3.49575467 13.20048075 3.4375 11.8125 C3.42332031 11.11382812 3.40914063 10.41515625 3.39453125 9.6953125 C3.32714218 7.41032354 3.32714218 7.41032354 2.6875 4.1875 C0.85852087 2.66808914 0.85852087 2.66808914 -1.3125 2.1875 C-1.9725 1.8575 -2.6325 1.5275 -3.3125 1.1875 C-2.3125 0.1875 -2.3125 0.1875 0 0 Z " fill="#7D7E80" transform="translate(274.3125,144.8125)"/>
<path d="M0 0 C3.53571429 0.53571429 3.53571429 0.53571429 5 2 C5.04063832 3.66617115 5.042721 5.33388095 5 7 C2.36 7 -0.28 7 -3 7 C-2.25 2.25 -2.25 2.25 0 0 Z " fill="#F7F7F7" transform="translate(397,146)"/>
<path d="M0 0 C2.625 0.3125 2.625 0.3125 4.27734375 1.84765625 C6.12592091 5.22867708 5.95048139 8.31931242 5.8125 12.0625 C5.79896484 12.75988281 5.78542969 13.45726562 5.77148438 14.17578125 C5.7362945 15.88835541 5.68249155 17.60052941 5.625 19.3125 C4.965 19.3125 4.305 19.3125 3.625 19.3125 C3.58632813 17.72308594 3.58632813 17.72308594 3.546875 16.1015625 C3.4906022 14.71349999 3.43325467 13.32548075 3.375 11.9375 C3.36082031 11.23882812 3.34664063 10.54015625 3.33203125 9.8203125 C3.26464218 7.53532354 3.26464218 7.53532354 2.625 4.3125 C0.79602087 2.79308914 0.79602087 2.79308914 -1.375 2.3125 C-2.035 1.9825 -2.695 1.6525 -3.375 1.3125 C-2.375 0.3125 -2.375 0.3125 0 0 Z " fill="#858688" transform="translate(284.375,144.6875)"/>
<path d="M0 0 C2.875 2.375 2.875 2.375 5 5 C5 5.66 5 6.32 5 7 C4.34 7 3.68 7 3 7 C2.67 5.68 2.34 4.36 2 3 C-2.04179393 2.57643029 -2.04179393 2.57643029 -6 3 C-8.56680314 5.84730711 -8.56680314 5.84730711 -10 9 C-10.33 8.01 -10.66 7.02 -11 6 C-8.26760732 0.53521464 -6.13890819 -0.72222449 0 0 Z " fill="#7E7F81" transform="translate(241,138)"/>
<path d="M0 0 C0.66 0 1.32 0 2 0 C3.27603607 3.82810821 2.86283987 7.23475107 2.5625 11.1875 C2.51029297 11.93708984 2.45808594 12.68667969 2.40429688 13.45898438 C2.27486216 15.30637082 2.13813482 17.15324371 2 19 C1.34 19 0.68 19 0 19 C0 12.73 0 6.46 0 0 Z " fill="#7E7F82" transform="translate(268,145)"/>
<path d="M0 0 C2.4375 0.3125 2.4375 0.3125 4.4375 2.3125 C4.58267744 5.2218558 4.62380796 8.032446 4.5625 10.9375 C4.55347656 11.73929688 4.54445313 12.54109375 4.53515625 13.3671875 C4.51156223 15.34908523 4.47569065 17.33082981 4.4375 19.3125 C4.1075 19.3125 3.7775 19.3125 3.4375 19.3125 C3.37691406 18.24128906 3.31632812 17.17007813 3.25390625 16.06640625 C3.16951463 14.66925609 3.08486594 13.27212143 3 11.875 C2.96068359 11.16794922 2.92136719 10.46089844 2.88085938 9.73242188 C2.96125562 6.22559581 2.96125562 6.22559581 1.4375 3.3125 C-0.89547433 3.27157063 -3.22955225 3.27008277 -5.5625 3.3125 C-3.75137927 1.02476855 -2.95529457 0.36040178 0 0 Z " fill="#7B7C7F" transform="translate(382.5625,144.6875)"/>
<path d="M0 0 C3 0.4375 3 0.4375 4.9375 1.625 C6 3.4375 6 3.4375 5.6875 6.125 C5.460625 6.888125 5.23375 7.65125 5 8.4375 C4.67 8.4375 4.34 8.4375 4 8.4375 C3.34 6.4575 2.68 4.4775 2 2.4375 C0.04105639 2.55056697 0.04105639 2.55056697 -2 3.4375 C-3.29660434 5.92784386 -3.29660434 5.92784386 -4 8.4375 C-4.66 7.1175 -5.32 5.7975 -6 4.4375 C-4.25840822 1.34133684 -3.60277923 0.5254053 0 0 Z " fill="#828385" transform="translate(398,144.5625)"/>
<path d="M0 0 C0.33 0 0.66 0 1 0 C1.66 1.98 2.32 3.96 3 6 C5.64 6 8.28 6 11 6 C10.01 7.485 10.01 7.485 9 9 C5.33331141 9.55797435 3.63685713 9.44090109 0.5625 7.3125 C-1 5 -1 5 -0.75 2.25 C-0.5025 1.5075 -0.255 0.765 0 0 Z " fill="#868789" transform="translate(295,155)"/>
<path d="M0 0 C3 0 6 0 9 0 C9.66 1.65 10.32 3.3 11 5 C10.01 4.34 9.02 3.68 8 3 C5.5 2.83333333 5.5 2.83333333 3 3 C2.01 3 1.02 3 0 3 C0 2.01 0 1.02 0 0 Z " fill="#8B8C8E" transform="translate(335,145)"/>
<path d="M0 0 C1.45922693 0.11409593 2.91740598 0.24165544 4.375 0.375 C5.59316406 0.47941406 5.59316406 0.47941406 6.8359375 0.5859375 C9 1 9 1 11 3 C5.39 3 -0.22 3 -6 3 C-6 2.67 -6 2.34 -6 2 C-4.02 2 -2.04 2 0 2 C0 1.34 0 0.68 0 0 Z " fill="#5292C1" transform="translate(43,130)"/>
<path d="M0 0 C0.66 0.66 1.32 1.32 2 2 C-0.125 4.0625 -0.125 4.0625 -3 6 C-6.3125 5.75 -6.3125 5.75 -9 5 C-9 4.34 -9 3.68 -9 3 C-6.36 3 -3.72 3 -1 3 C-0.67 2.01 -0.34 1.02 0 0 Z " fill="#858688" transform="translate(361,166)"/>
<path d="M0 0 C2.97 0 5.94 0 9 0 C8.67 1.32 8.34 2.64 8 4 C5.36 3.01 2.72 2.02 0 1 C0 0.67 0 0.34 0 0 Z " fill="#3D81B5" transform="translate(45,140)"/>
</svg>
