<svg xmlns="http://www.w3.org/2000/svg" xmlns:xlink="http://www.w3.org/1999/xlink" width="1024" height="414"><defs><linearGradient xlink:href="#a" id="d" x1="496.519" x2="635.831" y1="813.477" y2="589.778" gradientTransform="translate(-29.828 14.465)scale(.3714)" gradientUnits="userSpaceOnUse"/><linearGradient id="a"><stop offset=".045" stop-color="#7f24ce"/><stop offset=".468" stop-color="#b846e4"/><stop offset=".825" stop-color="#d055ee"/><stop offset="1" stop-color="#f87cfe"/></linearGradient><linearGradient xlink:href="#b" id="e" x1="269.585" x2="488.27" y1="847.204" y2="393.079" gradientTransform="translate(-29.828 14.465)scale(.3714)" gradientUnits="userSpaceOnUse"/><linearGradient id="b"><stop offset=".045" stop-color="#7f24ce"/><stop offset=".478" stop-color="#b846e4"/><stop offset=".848" stop-color="#d055ee"/><stop offset="1" stop-color="#f87cfe"/></linearGradient><linearGradient xlink:href="#c" id="f" x1="635.831" x2="721.822" y1="589.778" y2="368.408" gradientTransform="translate(-29.828 14.465)scale(.3714)" gradientUnits="userSpaceOnUse"/><linearGradient id="c"><stop offset=".045" stop-color="#7f24ce"/><stop offset=".468" stop-color="#b846e4"/><stop offset=".848" stop-color="#d055ee"/><stop offset="1" stop-color="#f87cfe"/></linearGradient></defs><path fill="#414042" d="m 432.48909,208.06022 q 0,8.27593 -3.37167,14.78938 -3.29504,6.51346 -9.11884,10.80468 -6.74334,5.05751 -14.86601,7.20312 -8.04603,2.14561 -20.45991,2.14561 H 334.86387 V 128.90256 h 44.2915 q 13.79321,0 20.15341,0.91955 6.43683,0.91955 12.7204,4.06133 6.51345,3.29504 9.65524,8.88895 3.21841,5.51729 3.21841,12.64377 0,8.27593 -4.36785,14.63613 -4.36784,6.28357 -12.33725,9.8085 v 0.61303 q 11.18782,2.22223 17.70128,9.19547 6.59008,6.97323 6.59008,18.39093 z m -37.70142,-46.89689 q 0,-2.83527 -1.45595,-5.67054 -1.37932,-2.83527 -4.98088,-4.21459 -3.21841,-1.22606 -8.04603,-1.30269 -4.75099,-0.15326 -13.41006,-0.15326 h -2.75864 v 24.13811 h 4.59773 q 6.97323,0 11.87748,-0.22989 4.90425,-0.22988 7.73952,-1.53258 3.98471,-1.76246 5.21077,-4.5211 1.22606,-2.83527 1.22606,-6.51346 z m 7.20312,46.43712 q 0,-5.44065 -2.14561,-8.35255 -2.06898,-2.98853 -7.12649,-4.44448 -3.4483,-0.99617 -9.50198,-1.0728 -6.05369,-0.0766 -12.64377,-0.0766 h -6.43683 v 28.42932 h 2.14561 q 12.41388,0 17.7779,-0.0766 5.36403,-0.0766 9.88513,-1.99236 4.59774,-1.91572 6.28357,-5.0575 1.76247,-3.21842 1.76247,-7.35638 z m 78.468,35.40256 h -27.5864 V 123.76842 h 27.5864 z m 78.16149,-22.45227 v -17.93117 q -5.59391,0.45977 -12.10737,1.30269 -6.51345,0.76629 -9.88513,1.8391 -4.13796,1.30269 -6.3602,3.83144 -2.14561,2.45213 -2.14561,6.51346 0,2.68201 0.45978,4.36785 0.45977,1.68583 2.29887,3.21841 1.76246,1.53258 4.21459,2.29887 2.45212,0.68966 7.66289,0.68966 4.13796,0 8.35255,-1.68584 4.29122,-1.68583 7.50963,-4.44447 z m 0,13.33343 q -2.22224,1.68583 -5.51728,4.06133 -3.29504,2.37549 -6.20694,3.75481 -4.06134,1.8391 -8.42918,2.68202 -4.36785,0.91954 -9.57862,0.91954 -12.26062,0 -20.53654,-7.58626 -8.27593,-7.58626 -8.27593,-19.38711 0,-9.42536 4.21459,-15.40241 4.21459,-5.97706 11.95411,-9.42536 7.66289,-3.4483 19.00397,-4.90425 11.34108,-1.45595 23.52508,-2.14561 v -0.45977 q 0,-7.12649 -5.8238,-9.8085 -5.8238,-2.75864 -17.16487,-2.75864 -6.81998,0 -14.5595,2.45212 -7.73952,2.3755 -11.11119,3.67819 h -2.52875 v -20.76643 q 4.36784,-1.14944 14.17635,-2.68202 9.88512,-1.6092 19.77025,-1.6092 23.52508,0 33.94661,7.27974 10.49816,7.20312 10.49816,22.68216 v 58.54449 h -27.35652 z m 126.97409,9.11884 h -80.8435 v -17.70128 l 45.36432,-48.19959 h -43.52522 v -20.1534 h 78.16149 v 17.39476 l -44.67466,48.12296 h 45.51757 z m 46.97353,0 h -27.58641 v -86.05427 h 27.58641 z m 0.76629,-98.31489 h -29.11898 v -20.9197 h 29.11898 z m 111.03528,98.31489 h -27.58641 v -9.50199 q -7.66289,5.8238 -14.02309,8.88895 -6.3602,2.98853 -15.17252,2.98853 -14.25298,0 -21.9925,-8.19929 -7.66289,-8.19929 -7.66289,-24.21474 v -56.01573 h 27.73967 v 42.6823 q 0,6.51346 0.38314,10.88131 0.45978,4.29122 1.99235,7.12649 1.45595,2.83527 4.36785,4.13796 2.98853,1.30269 8.27592,1.30269 3.52493,0 7.81615,-1.30269 4.29122,-1.30269 8.27592,-3.83145 v -60.99661 h 27.58641 z m 110.1924,-60.99662 v 60.99662 H 926.8222 v -42.98882 q 0,-6.28357 -0.30651,-10.65142 -0.30652,-4.44448 -1.68584,-7.20312 -1.37932,-2.75864 -4.21459,-3.9847 -2.75864,-1.30269 -7.81615,-1.30269 -4.06133,0 -7.89277,1.68583 -3.83145,1.60921 -6.89661,3.4483 v 60.99662 h -27.5864 v -86.05427 h 27.5864 v 9.50199 q 7.12649,-5.59391 13.63995,-8.7357 6.51346,-3.14178 14.40624,-3.14178 8.5058,0 15.01926,3.83144 6.51346,3.75482 10.19165,11.11119 8.27592,-6.97323 16.09207,-10.95793 7.81615,-3.9847 15.32578,-3.9847 13.94646,0 21.14962,8.35255 7.2797,8.35255 7.2797,24.06147 v 56.01574 h -27.73966 v -42.98882 q 0,-6.3602 -0.30652,-10.72805 -0.22988,-4.36785 -1.6092,-7.12649 -1.3027,-2.75864 -4.13796,-3.9847 -2.83527,-1.30269 -7.96941,-1.30269 -3.4483,0 -6.74335,1.22606 -3.29504,1.14943 -8.04603,3.90807 z" aria-label="Blazium" font-family="Inter Alia" font-size="156.936" font-weight="700" style="-inkscape-font-specification:&quot;Inter Alia, Bold&quot;"/><path fill="#414042" d="m 376.22146,329.20353 q -4.24945,1.95057 -9.30002,3.4135 -5.01574,1.42809 -9.718,1.42809 -6.06069,0 -11.11127,-1.67192 -5.05057,-1.67191 -8.60339,-5.01574 -3.58764,-3.37866 -5.53821,-8.42923 Q 330,313.84282 330,307.05067 q 0,-12.43486 7.24496,-19.61016 7.2798,-7.21012 19.95848,-7.21012 4.4236,0 9.02137,1.07977 4.63259,1.04495 9.96182,3.58765 v 8.18541 h -0.62697 q -1.07978,-0.83595 -3.13484,-2.19438 -2.05506,-1.35843 -4.04046,-2.26405 -2.40337,-1.07978 -5.46855,-1.77641 -3.03034,-0.73146 -6.89665,-0.73146 -8.70788,0 -13.79329,5.60787 -5.05057,5.57305 -5.05057,15.11689 0,10.06632 5.29439,15.6742 5.2944,5.57304 14.42026,5.57304 3.34383,0 6.65283,-0.66179 3.34383,-0.6618 5.8517,-1.70675 v -12.71351 h -13.89779 v -6.06069 h 20.72477 z m 41.76302,3.83147 h -6.5135 v -4.14495 q -0.87079,0.59214 -2.36855,1.67191 -1.46292,1.04495 -2.85618,1.67192 -1.63708,0.80112 -3.76181,1.3236 -2.12472,0.5573 -4.98091,0.5573 -5.25956,0 -8.91687,-3.48315 -3.65732,-3.48316 -3.65732,-8.88205 0,-4.4236 1.88091,-7.14046 1.91573,-2.75169 5.43372,-4.31911 3.55282,-1.56742 8.53373,-2.12473 4.98091,-0.5573 10.69328,-0.83595 v -1.01012 q 0,-2.22922 -0.80113,-3.69214 -0.76629,-1.46293 -2.22921,-2.29888 -1.39327,-0.80113 -3.34383,-1.07978 -1.95057,-0.27865 -4.07529,-0.27865 -2.57754,0 -5.74721,0.69663 -3.16967,0.6618 -6.54833,1.95056 h -0.34831 v -6.65282 q 1.91573,-0.52248 5.53821,-1.14944 3.62248,-0.62697 7.14047,-0.62697 4.11012,0 7.14046,0.69663 3.06518,0.6618 5.2944,2.29888 2.19439,1.60225 3.34383,4.14496 1.14944,2.5427 1.14944,6.3045 z m -6.5135,-9.57867 v -10.83261 q -2.99551,0.17416 -7.0708,0.52247 -4.04046,0.34832 -6.40901,1.01012 -2.82135,0.80112 -4.56293,2.50787 -1.74158,1.67191 -1.74158,4.63259 0,3.34383 2.02023,5.05058 2.02023,1.67191 6.16519,1.67191 3.44832,0 6.3045,-1.3236 2.85619,-1.35843 5.2944,-3.23933 z m 75.89793,9.57867 h -6.54833 v -22.15286 q 0,-2.50787 -0.24382,-4.84158 -0.20899,-2.33372 -0.94045,-3.72698 -0.80112,-1.49775 -2.29888,-2.26405 -1.49776,-0.76629 -4.31911,-0.76629 -2.75169,0 -5.50339,1.39326 -2.75169,1.35843 -5.50338,3.48315 0.10449,0.80113 0.17416,1.88091 0.0697,1.04494 0.0697,2.08989 V 333.035 h -6.54833 v -22.15286 q 0,-2.57753 -0.24382,-4.87641 -0.20899,-2.33372 -0.94045,-3.72698 -0.80113,-1.49775 -2.29888,-2.22922 -1.49776,-0.76629 -4.31911,-0.76629 -2.68203,0 -5.39889,1.3236 -2.68203,1.3236 -5.36406,3.37866 v 29.0495 h -6.54833 v -38.90683 h 6.54833 v 4.31911 q 3.06517,-2.5427 6.09552,-3.97079 3.06517,-1.4281 6.5135,-1.4281 3.97079,0 6.72249,1.67192 2.78652,1.67191 4.14495,4.63259 3.97079,-3.34383 7.24496,-4.80675 3.27416,-1.49776 7.00114,-1.49776 6.409,0 9.43935,3.90114 3.06517,3.8663 3.06517,10.83261 z m 45.17651,-18.7742 h -28.66636 q 0,3.58765 1.07978,6.26968 1.07978,2.6472 2.96068,4.35394 1.81124,1.67192 4.28428,2.50787 2.50787,0.83596 5.50338,0.83596 3.9708,0 7.97643,-1.56742 4.04046,-1.60225 5.7472,-3.13484 h 0.34832 v 7.14047 q -3.309,1.39326 -6.75732,2.33371 -3.44832,0.94045 -7.24496,0.94045 -9.68317,0 -15.11689,-5.22473 -5.43372,-5.25956 -5.43372,-14.9079 0,-9.54384 5.1899,-15.15172 5.22473,-5.60788 13.72362,-5.60788 7.87193,0 12.12138,4.59777 4.28428,4.59776 4.28428,13.06182 z m -6.37417,-5.01574 q -0.0348,-5.15507 -2.61237,-7.97642 -2.5427,-2.82136 -7.76743,-2.82136 -5.25956,0 -8.3944,3.10001 -3.10001,3.10001 -3.51799,7.69777 z m 73.94735,5.01574 h -28.66636 q 0,3.58765 1.07978,6.26968 1.07978,2.6472 2.96068,4.35394 1.81124,1.67192 4.28428,2.50787 2.50787,0.83596 5.50339,0.83596 3.97079,0 7.97642,-1.56742 4.04046,-1.60225 5.7472,-3.13484 h 0.34832 v 7.14047 q -3.309,1.39326 -6.75732,2.33371 -3.44832,0.94045 -7.24496,0.94045 -9.68317,0 -15.11689,-5.22473 -5.43372,-5.25956 -5.43372,-14.9079 0,-9.54384 5.1899,-15.15172 5.22473,-5.60788 13.72363,-5.60788 7.87192,0 12.12137,4.59777 4.28428,4.59776 4.28428,13.06182 z m -6.37417,-5.01574 q -0.0348,-5.15507 -2.61237,-7.97642 -2.5427,-2.82136 -7.76743,-2.82136 -5.25956,0 -8.3944,3.10001 -3.10001,3.10001 -3.51799,7.69777 z m 48.83383,23.78994 h -6.54833 v -22.15286 q 0,-2.68203 -0.31348,-5.01574 -0.31349,-2.36854 -1.14944,-3.69214 -0.87079,-1.46293 -2.50787,-2.15956 -1.63709,-0.73146 -4.24945,-0.73146 -2.68203,0 -5.60788,1.3236 -2.92585,1.3236 -5.60788,3.37866 v 29.0495 h -6.54833 v -38.90683 h 6.54833 v 4.31911 q 3.06518,-2.5427 6.33934,-3.97079 3.27417,-1.4281 6.72249,-1.4281 6.30451,0 9.61351,3.79664 3.30899,3.79664 3.30899,10.93711 z m 44.16638,-4.4236 q 0,9.89216 -4.49327,14.52475 -4.49327,4.6326 -13.82812,4.6326 -3.10001,0 -6.06069,-0.45281 -2.92585,-0.41798 -5.78203,-1.21911 v -6.68765 h 0.34831 q 1.60225,0.62696 5.08541,1.53258 3.48315,0.94046 6.96631,0.94046 3.34382,0 5.53821,-0.80113 2.19439,-0.80113 3.41349,-2.22922 1.21911,-1.35843 1.74158,-3.27416 0.52247,-1.91574 0.52247,-4.28428 v -3.55282 q -2.96068,2.36854 -5.67754,3.55282 -2.68203,1.14944 -6.86181,1.14944 -6.96631,0 -11.07643,-5.01574 -4.07529,-5.05058 -4.07529,-14.21127 0,-5.01575 1.39326,-8.63823 1.42809,-3.65731 3.8663,-6.30451 2.26405,-2.47304 5.50338,-3.83147 3.23934,-1.39326 6.44384,-1.39326 3.37866,0 5.64271,0.69663 2.29888,0.6618 4.84158,2.05506 l 0.41798,-1.67191 h 6.13035 z m -6.54833,-6.26968 v -21.21241 q -2.61236,-1.18427 -4.87641,-1.67191 -2.22922,-0.52248 -4.45844,-0.52248 -5.39889,0 -8.4989,3.62248 -3.10001,3.62248 -3.10001,10.51913 0,6.54833 2.29889,9.92699 2.29888,3.37866 7.6281,3.37866 2.85619,0 5.71238,-1.07978 2.89102,-1.11461 5.29439,-2.96068 z m 26.47199,-34.72705 h -7.38428 v -6.79215 h 7.38428 z M 706.25033,333.035 H 699.702 v -38.90683 h 6.54833 z m 45.48998,0 h -6.54833 v -22.15286 q 0,-2.68203 -0.31348,-5.01574 -0.31349,-2.36854 -1.14944,-3.69214 -0.87079,-1.46293 -2.50788,-2.15956 -1.63708,-0.73146 -4.24944,-0.73146 -2.68203,0 -5.60788,1.3236 -2.92585,1.3236 -5.60788,3.37866 v 29.0495 h -6.54833 v -38.90683 h 6.54833 v 4.31911 q 3.06518,-2.5427 6.33934,-3.97079 3.27417,-1.4281 6.72249,-1.4281 6.30451,0 9.6135,3.79664 3.309,3.79664 3.309,10.93711 z m 45.17653,-18.7742 h -28.66636 q 0,3.58765 1.07977,6.26968 1.07978,2.6472 2.96068,4.35394 1.81124,1.67192 4.28428,2.50787 2.50788,0.83596 5.50339,0.83596 3.97079,0 7.97642,-1.56742 4.04046,-1.60225 5.74721,-3.13484 h 0.34831 v 7.14047 q -3.309,1.39326 -6.75732,2.33371 -3.44832,0.94045 -7.24496,0.94045 -9.68317,0 -15.11689,-5.22473 -5.43372,-5.25956 -5.43372,-14.9079 0,-9.54384 5.1899,-15.15172 5.22473,-5.60788 13.72363,-5.60788 7.87193,0 12.12138,4.59777 4.28428,4.59776 4.28428,13.06182 z m -6.37418,-5.01574 q -0.0348,-5.15507 -2.61236,-7.97642 -2.54271,-2.82136 -7.76744,-2.82136 -5.25956,0 -8.3944,3.10001 -3.10001,3.10001 -3.51798,7.69777 z" aria-label="Game engine" font-family="Inter Alia" font-size="71.335" style="-inkscape-font-specification:&quot;Inter Alia, Normal&quot;"/><path fill="url(#d)" d="m 163.0029,228.55197 c 25.52155,-1.40406 48.32735,22.5152 45.71268,47.94494 -0.87722,23.54537 -22.75734,44.24515 -46.60158,41.92388 -27.69467,1.01656 -49.12956,-28.69872 -42.47208,-54.78297 3.95663,-20.07124 23.04982,-35.08046 43.36098,-35.08585 z" paint-order="markers stroke fill" style="mix-blend-mode:normal"/><path fill="url(#e)" d="M 75.702797,31.474432 C 81.281392,42.938505 90.38803,53.363657 93.914191,66.158302 104.0825,92.813379 96.703233,122.20168 83.471715,146.36947 63.204643,186.16619 43.53501,230.0482 49.205041,275.75901 c 5.726645,41.29327 35.077603,79.18444 75.475199,91.44405 40.55193,13.5366 88.32605,0.0528 115.51471,-33.0388 18.65526,-21.74845 29.5196,-51.87819 24.40755,-80.51272 -7.77751,-31.83823 -32.588,-58.33418 -63.9671,-67.92336 -19.01387,-6.35311 -37.75867,-15.85331 -50.29317,-31.94683 -3.11887,10.23755 -6.66146,22.99465 -10.38162,34.4214 -3.51067,12.37443 -8.76383,24.38295 -11.29487,36.95081 10.41146,-4.0944 22.62767,-11.16361 35.25633,-10.20899 31.78651,-0.61614 59.74162,28.42078 58.48673,60.10568 -0.25639,30.94145 -28.46001,58.41962 -59.54602,57.1792 -30.96706,0.14008 -57.50825,-27.26982 -58.43474,-57.85013 -0.42446,-23.20591 9.00766,-45.183 15.36816,-67.16656 C 132.10983,170.71652 143.916,131.96712 139.15568,93.035485 136.73209,65.866456 117.98255,39.526115 90.500952,33.602553 85.671671,32.35825 80.712083,31.37725 75.702797,31.474432 Z" paint-order="markers stroke fill" style="mix-blend-mode:normal"/><path fill="url(#f)" d="m 180.45624,51.401318 c -12.4561,8.650947 -24.02711,21.113268 -27.86748,36.042446 2.64223,15.851996 0.79331,32.042216 0.55384,47.866806 6.7803,23.92068 31.55514,34.82968 53.13575,42.10956 26.31161,9.07833 49.13041,28.33803 60.32359,54.09699 2.61134,5.08897 11.58958,27.30209 10.6045,9.01178 0.89532,-31.55108 -12.52452,-63.26927 -37.22415,-83.27495 -18.23736,-16.37492 -44.00006,-25.22994 -55.26879,-48.55929 -9.75804,-17.117561 -9.18032,-38.096198 -3.38245,-56.418535 l -0.4374,-0.437403 z" paint-order="markers stroke fill" style="mix-blend-mode:normal"/></svg>