<svg xmlns="http://www.w3.org/2000/svg" xmlns:xlink="http://www.w3.org/1999/xlink" width="1024" height="414"><defs><linearGradient id="c"><stop offset=".045" stop-color="#7f24ce"/><stop offset=".468" stop-color="#b846e4"/><stop offset=".825" stop-color="#d055ee"/><stop offset="1" stop-color="#f87cfe"/></linearGradient><linearGradient id="b"><stop offset=".045" stop-color="#7f24ce"/><stop offset=".478" stop-color="#b846e4"/><stop offset=".848" stop-color="#d055ee"/><stop offset="1" stop-color="#f87cfe"/></linearGradient><linearGradient id="a"><stop offset=".045" stop-color="#7f24ce"/><stop offset=".468" stop-color="#b846e4"/><stop offset=".848" stop-color="#d055ee"/><stop offset="1" stop-color="#f87cfe"/></linearGradient><linearGradient xlink:href="#a" id="f" x1="635.831" x2="721.822" y1="589.778" y2="368.408" gradientTransform="translate(-23.58 17.032)scale(.3755)" gradientUnits="userSpaceOnUse"/><linearGradient xlink:href="#b" id="e" x1="269.585" x2="488.27" y1="847.204" y2="393.079" gradientTransform="translate(-23.58 17.032)scale(.3755)" gradientUnits="userSpaceOnUse"/><linearGradient xlink:href="#c" id="d" x1="496.519" x2="635.831" y1="813.477" y2="589.778" gradientTransform="translate(-23.58 17.032)scale(.3755)" gradientUnits="userSpaceOnUse"/></defs><path fill="url(#d)" stroke="#fff" stroke-linecap="round" stroke-linejoin="round" stroke-width="24.032" d="m 171.38263,233.48538 c 25.80372,-1.41959 48.86166,22.76415 46.21807,48.47501 -0.8869,23.80571 -23.00891,44.73432 -47.11678,42.3874 -28.00087,1.02777 -49.67273,-29.01601 -42.94165,-55.38866 4.00038,-20.29313 23.30465,-35.46829 43.84036,-35.47375 z" paint-order="markers stroke fill" style="mix-blend-mode:normal"/><path fill="url(#e)" stroke="#fff" stroke-linecap="round" stroke-linejoin="round" stroke-width="24.032" d="m 83.117367,34.229004 c 5.640272,11.590826 14.847583,22.131229 18.412733,35.067331 10.28073,26.949779 2.81987,56.662975 -10.557927,81.097955 -20.491143,40.23672 -40.378239,84.60388 -34.645517,130.82004 5.789955,41.7498 35.465416,80.05991 76.309654,92.45505 41.00023,13.68626 89.30256,0.0536 116.79179,-33.40406 18.86154,-21.98891 29.84597,-52.45176 24.67741,-81.40288 -7.8635,-32.19022 -32.9483,-58.97909 -64.67431,-68.67428 -19.22407,-6.42336 -38.17611,-16.02861 -50.84919,-32.30005 -3.15336,10.35073 -6.73511,23.24888 -10.4964,34.80197 -3.5495,12.51124 -8.86071,24.65253 -11.41974,37.35933 10.52656,-4.13966 22.87782,-11.28704 35.64611,-10.32186 32.13794,-0.62295 60.40212,28.73499 59.13333,60.77021 -0.25922,31.28352 -28.77465,59.06548 -60.20433,57.81136 -31.30942,0.14161 -58.14406,-27.57131 -59.08079,-58.48973 -0.42916,-23.46245 9.10724,-45.68252 15.53808,-67.90912 12.44975,-36.89975 24.38645,-76.07754 19.57351,-115.439607 C 144.82138,69.001262 125.86456,42.369703 98.079123,36.380651 93.196455,35.1226 88.182033,34.13075 83.117367,34.229004 Z" paint-order="markers stroke fill" style="mix-blend-mode:normal"/><path fill="url(#f)" stroke="#fff" stroke-linecap="round" stroke-linejoin="round" stroke-width="24.032" d="m 189.02894,54.376199 c -12.59382,8.74659 -24.29273,21.346697 -28.17558,36.440921 2.67144,16.02727 0.80207,32.39646 0.55997,48.39603 6.85527,24.18514 31.904,35.21474 53.72321,42.5751 26.60248,9.1787 49.67357,28.65131 60.9905,54.69508 2.64021,5.14523 11.71772,27.60392 10.72174,9.11141 0.90523,-31.8999 -12.66297,-63.96877 -37.63567,-84.19563 -18.43901,-16.55595 -44.48653,-25.50886 -55.87985,-49.09615 -9.86592,-17.306803 -9.28182,-38.517372 -3.41984,-57.042282 l -0.44223,-0.442237 z" paint-order="markers stroke fill" style="mix-blend-mode:normal"/><g fill="#414042" stroke="#fff" stroke-linejoin="round" stroke-width="14.748" font-family="'Inter Alia'" paint-order="stroke fill markers"><path d="m 438.2731,208.23826 q 0,8.14756 -3.31938,14.56 -3.24393,6.41243 -8.9774,10.6371 -6.63876,4.97906 -14.63544,7.09139 -7.92125,2.11234 -20.14259,2.11234 H 342.16202 V 130.30831 h 43.60456 q 13.57927,0 19.84083,0.90529 6.33699,0.90528 12.52311,3.99834 6.41243,3.24394 9.50548,8.75108 3.1685,5.43171 3.1685,12.44768 0,8.14756 -4.3001,14.40911 -4.30011,6.18611 -12.1459,9.65637 v 0.60353 q 11.01429,2.18777 17.42672,9.05285 6.48788,6.86507 6.48788,18.1057 z m -37.11668,-46.16954 q 0,-2.79129 -1.43336,-5.58259 -1.35793,-2.79129 -4.90363,-4.14922 -3.1685,-1.20705 -7.92125,-1.28249 -4.67731,-0.15088 -13.20207,-0.15088 h -2.71585 v 23.76374 h 4.52642 q 6.86507,0 11.69327,-0.22633 4.82818,-0.22632 7.61948,-1.5088 3.92289,-1.73513 5.12994,-4.45099 1.20705,-2.7913 1.20705,-6.41244 z m 7.0914,45.71689 q 0,-5.35627 -2.11233,-8.22301 -2.03689,-2.94217 -7.01596,-4.37553 -3.39482,-0.98073 -9.35461,-1.05617 -5.9598,-0.0754 -12.44766,-0.0754 h -6.337 v 27.98839 h 2.11233 q 12.22135,0 17.50217,-0.0754 5.28083,-0.0754 9.73181,-1.96145 4.52643,-1.88601 6.18612,-4.97906 1.73513,-3.1685 1.73513,-7.24229 z m 77.25098,34.85348 H 458.34025 V 125.2538 h 27.15855 z m 76.94922,-22.10405 v -17.65306 q -5.50715,0.45265 -11.91959,1.28249 -6.41243,0.75441 -9.73181,1.81058 -4.07378,1.28248 -6.26156,3.77201 -2.11233,2.4141 -2.11233,6.41244 0,2.64041 0.45265,4.3001 0.45264,1.65969 2.26321,3.1685 1.73513,1.5088 4.14922,2.26321 2.4141,0.67896 7.54404,0.67896 4.07379,0 8.22301,-1.65968 4.22466,-1.6597 7.39316,-4.37555 z m 0,13.12663 q -2.18778,1.65969 -5.43171,3.99834 -3.24394,2.33866 -6.11067,3.69658 -3.99835,1.81058 -8.29845,2.64042 -4.30011,0.90529 -9.43005,0.90529 -12.07047,0 -20.21803,-7.4686 -8.14757,-7.4686 -8.14757,-19.08643 0,-9.27917 4.14922,-15.16352 4.14923,-5.88436 11.76872,-9.27917 7.54403,-3.39483 18.70921,-4.82819 11.16519,-1.43337 23.16021,-2.11233 v -0.45264 q 0,-7.01596 -5.73347,-9.65638 -5.73347,-2.71585 -16.89865,-2.71585 -6.71421,0 -14.33369,2.41409 -7.61948,2.33865 -10.93885,3.62114 h -2.48953 v -20.44434 q 4.3001,-1.13162 13.95647,-2.64042 9.73181,-1.58425 19.46362,-1.58425 23.16021,0 33.42011,7.16684 10.33534,7.0914 10.33534,22.33036 v 57.63648 h -26.93223 z m 125.00474,8.97742 h -79.58963 v -17.42674 l 44.66072,-47.45202 H 609.6737 V 157.9195 h 76.94922 v 17.12497 l -43.98176,47.37658 h 44.8116 z m 46.24499,0 H 706.53921 V 157.9195 h 27.15854 z m 0.75441,-96.79006 H 705.7848 V 125.2538 h 28.66736 z m 109.31314,96.79006 h -27.15855 v -9.35462 q -7.54404,5.73347 -13.80559,8.75109 -6.26156,2.94217 -14.9372,2.94217 -14.03193,0 -21.65141,-8.07212 -7.54403,-8.07212 -7.54403,-23.83917 V 157.9195 h 27.30943 v 42.02031 q 0,6.41243 0.37719,10.71254 0.45265,4.22466 1.96145,7.01595 1.43337,2.7913 4.3001,4.07379 2.94218,1.28248 8.14757,1.28248 3.47027,0 7.69492,-1.28248 4.22467,-1.28249 8.14757,-3.77202 V 157.9195 h 27.15855 z m 108.48334,-60.05058 v 60.05058 h -27.30945 v -42.32208 q 0,-6.18611 -0.30176,-10.48622 -0.30176,-4.37553 -1.6597,-7.0914 -1.35792,-2.71585 -4.14922,-3.92289 -2.71585,-1.28249 -7.69491,-1.28249 -3.99834,0 -7.77037,1.65969 -3.77202,1.58424 -6.78964,3.39481 v 60.05058 H 869.41505 V 157.9195 h 27.15854 v 9.35461 q 7.01596,-5.50715 13.4284,-8.6002 6.41243,-3.09307 14.18279,-3.09307 8.37389,0 14.78632,3.77203 6.41244,3.69657 10.03353,10.93886 8.14758,-6.86508 15.84249,-10.78798 7.69492,-3.92291 15.08814,-3.92291 13.73017,0 20.82154,8.22301 7.1669,8.22301 7.1669,23.68829 v 55.14695 h -27.30951 v -42.32208 q 0,-6.26155 -0.3017,-10.56165 -0.22638,-4.3001 -1.58424,-7.01597 -1.28254,-2.71585 -4.07379,-3.92289 -2.79135,-1.28249 -7.84587,-1.28249 -3.39475,0 -6.63876,1.20704 -3.2439,1.13161 -7.92119,3.84746 z" aria-label="Blazium" font-size="146.667" font-weight="700" style="-inkscape-font-specification:&quot;Inter Alia, Bold&quot;"/><path d="m 382.87834,327.50286 q -4.18352,1.92032 -9.15574,3.36055 -4.93793,1.40594 -9.56724,1.40594 -5.96666,0 -10.93889,-1.64598 -4.97223,-1.64598 -8.46993,-4.93793 -3.53199,-3.32625 -5.45229,-8.29847 -1.92031,-5.00652 -1.92031,-11.69329 0,-12.24196 7.13257,-19.30595 7.16686,-7.09827 19.64885,-7.09827 4.35498,0 8.88142,1.06303 4.56073,1.02873 9.80728,3.53199 v 8.05843 h -0.61725 q -1.06302,-0.82299 -3.0862,-2.16035 -2.02319,-1.33735 -3.97778,-2.22892 -2.36609,-1.06303 -5.38372,-1.74886 -2.98333,-0.7201 -6.78965,-0.7201 -8.5728,0 -13.57931,5.52087 -4.97223,5.4866 -4.97223,14.88237 0,9.91016 5.21227,15.43104 5.21226,5.48659 14.19655,5.48659 3.29195,0 6.54961,-0.65153 3.29196,-0.65153 5.76092,-1.68027 V 311.55747 H 362.4751 v -5.96667 h 20.40324 z m 41.11513,3.77204 h -6.41245 v -4.08066 q -0.85727,0.58296 -2.3318,1.64598 -1.44022,1.02874 -2.81187,1.64598 -1.61169,0.7887 -3.70344,1.30307 -2.09177,0.54866 -4.90365,0.54866 -5.17796,0 -8.77854,-3.42912 -3.60058,-3.42912 -3.60058,-8.74426 0,-4.35497 1.85172,-7.02969 1.88602,-2.709 5.34944,-4.2521 3.49769,-1.54311 8.40134,-2.09177 4.90364,-0.54866 10.52738,-0.82299 v -0.99444 q 0,-2.19463 -0.78869,-3.63487 -0.75441,-1.44022 -2.19463,-2.26322 -1.37165,-0.78869 -3.29196,-1.06302 -1.9203,-0.27433 -4.01207,-0.27433 -2.53755,0 -5.65804,0.68582 -3.1205,0.65153 -6.44675,1.92031 h -0.3429 v -6.54961 q 1.88601,-0.51438 5.45229,-1.13162 3.56629,-0.61724 7.02969,-0.61724 4.04636,0 7.02969,0.68583 3.01763,0.65153 5.21227,2.26322 2.16035,1.57739 3.29195,4.08064 1.1316,2.50327 1.1316,6.20671 z m -6.41245,-9.43008 v -10.66455 q -2.94904,0.17145 -6.9611,0.51436 -3.97778,0.34291 -6.30958,0.99444 -2.77759,0.78871 -4.49215,2.46898 -1.71456,1.64597 -1.71456,4.56073 0,3.29194 1.98889,4.97221 1.98889,1.64598 6.06955,1.64598 3.39482,0 6.20669,-1.30307 2.81189,-1.33735 5.21226,-3.18908 z m 74.72049,9.43008 h -6.44674 v -21.8092 q 0,-2.46896 -0.24003,-4.76647 -0.20575,-2.29751 -0.92587,-3.66916 -0.7887,-1.47452 -2.26321,-2.22893 -1.47452,-0.75439 -4.25211,-0.75439 -2.709,0 -5.41801,1.37164 -2.709,1.33735 -5.418,3.42912 0.10292,0.78869 0.17145,1.85172 0.0686,1.02874 0.0686,2.05748 v 24.51819 h -6.44674 v -21.8092 q 0,-2.53754 -0.24003,-4.80076 -0.20576,-2.29751 -0.92587,-3.66916 -0.7887,-1.47452 -2.26322,-2.19464 -1.47452,-0.75439 -4.2521,-0.75439 -2.64042,0 -5.31514,1.30305 -2.64042,1.30307 -5.28085,3.32625 v 28.59885 h -6.44674 v -38.30326 h 6.44674 v 4.25211 q 3.01763,-2.50325 6.00097,-3.90919 3.01762,-1.40595 6.41245,-1.40595 3.90919,0 6.61819,1.64598 2.7433,1.64598 4.08066,4.56073 3.90919,-3.29196 7.13257,-4.73218 3.22337,-1.47453 6.89253,-1.47453 6.30957,0 9.29291,3.84063 3.01761,3.80631 3.01761,10.66455 z m 44.47567,-18.48295 h -28.22165 q 0,3.53199 1.06303,6.17242 1.06303,2.60613 2.91475,4.2864 1.78314,1.64597 4.21782,2.46896 2.46896,0.82298 5.41801,0.82298 3.90919,0 7.85268,-1.5431 3.97778,-1.57739 5.65805,-3.0862 h 0.3429 v 7.02969 q -3.25765,1.37165 -6.65248,2.29751 -3.39482,0.92586 -7.13257,0.92586 -9.53294,0 -14.88237,-5.14368 -5.34942,-5.17797 -5.34942,-14.67663 0,-9.39578 5.10938,-14.91666 5.14368,-5.52089 13.51073,-5.52089 7.7498,0 11.93333,4.52644 4.21781,4.52645 4.21781,12.8592 z m -6.27528,-4.93793 q -0.0344,-5.07509 -2.57185,-7.85269 -2.50325,-2.77758 -7.64693,-2.77758 -5.17797,0 -8.26417,3.05192 -3.05192,3.05191 -3.46342,7.57835 z m 72.8002,4.93793 h -28.22165 q 0,3.53199 1.06303,6.17242 1.06302,2.60613 2.91475,4.2864 1.78314,1.64597 4.21782,2.46896 2.46896,0.82298 5.418,0.82298 3.9092,0 7.85269,-1.5431 3.97777,-1.57739 5.65804,-3.0862 h 0.34291 v 7.02969 q -3.25766,1.37165 -6.65249,2.29751 -3.39483,0.92586 -7.13256,0.92586 -9.53296,0 -14.88238,-5.14368 -5.34943,-5.17797 -5.34943,-14.67663 0,-9.39578 5.10939,-14.91666 5.14367,-5.52089 13.51073,-5.52089 7.74981,0 11.93333,4.52644 4.21782,4.52645 4.21782,12.8592 z m -6.27529,-4.93793 q -0.0343,-5.07509 -2.57184,-7.85269 -2.50325,-2.77758 -7.64693,-2.77758 -5.17797,0 -8.26418,3.05192 -3.05191,3.05191 -3.46341,7.57835 z m 48.07625,23.42088 h -6.44674 v -21.8092 q 0,-2.64042 -0.30862,-4.93793 -0.30863,-2.33179 -1.13161,-3.63486 -0.85728,-1.44023 -2.46897,-2.12606 -1.61168,-0.7201 -4.18352,-0.7201 -2.64042,0 -5.52088,1.30305 -2.88046,1.30307 -5.52088,3.32625 v 28.59885 h -6.44674 v -38.30326 h 6.44674 v 4.25211 q 3.01762,-2.50325 6.24099,-3.90919 3.22337,-1.40595 6.6182,-1.40595 6.20671,0 9.46437,3.73775 3.25766,3.73773 3.25766,10.76743 z m 43.48122,-4.35498 q 0,9.73869 -4.42356,14.29942 -4.42356,4.56073 -13.6136,4.56073 -3.05191,0 -5.96666,-0.44579 -2.88047,-0.41148 -5.69234,-1.20019 v -6.58391 h 0.34291 q 1.57739,0.61725 5.00652,1.50882 3.42911,0.92586 6.85823,0.92586 3.29195,0 5.45231,-0.7887 2.16034,-0.78869 3.36053,-2.19463 1.20018,-1.33736 1.71456,-3.22337 0.51436,-1.88602 0.51436,-4.21782 v -3.4977 q -2.91475,2.3318 -5.58945,3.4977 -2.64043,1.13161 -6.75538,1.13161 -6.85823,0 -10.90459,-4.93793 -4.01206,-4.97223 -4.01206,-13.99081 0,-4.93793 1.37164,-8.50421 1.40594,-3.60057 3.80633,-6.2067 2.22892,-2.43468 5.418,-3.77204 3.18908,-1.37165 6.34387,-1.37165 3.32624,0 5.55517,0.68583 2.26322,0.65153 4.76647,2.02318 l 0.4115,-1.64598 h 6.03524 z m -6.44674,-6.17242 v -20.88333 q -2.57184,-1.1659 -4.80076,-1.64597 -2.19464,-0.51437 -4.38927,-0.51437 -5.31514,0 -8.36705,3.56629 -3.05192,3.56628 -3.05192,10.35594 0,6.44674 2.26322,9.77298 2.26322,3.32624 7.50977,3.32624 2.81188,0 5.62375,-1.06303 2.84618,-1.09731 5.21226,-2.91475 z m 26.06129,-34.18831 h -7.26973 v -6.68677 h 7.26973 z m -0.41149,44.71571 h -6.44675 v -38.30326 h 6.44675 z m 44.7843,0 h -6.44674 v -21.8092 q 0,-2.64042 -0.30862,-4.93793 -0.30862,-2.33179 -1.13162,-3.63486 -0.85727,-1.44023 -2.46896,-2.12606 -1.61168,-0.7201 -4.18352,-0.7201 -2.64042,0 -5.52088,1.30305 -2.88046,1.30307 -5.52088,3.32625 v 28.59885 h -6.44675 v -38.30326 h 6.44675 v 4.25211 q 3.01761,-2.50325 6.24098,-3.90919 3.22339,-1.40595 6.61821,-1.40595 6.2067,0 9.46437,3.73775 3.25766,3.73773 3.25766,10.76743 z m 44.47567,-18.48295 h -28.22164 q 0,3.53199 1.06302,6.17242 1.06303,2.60613 2.91475,4.2864 1.78315,1.64597 4.21781,2.46896 2.46898,0.82298 5.41802,0.82298 3.90919,0 7.85267,-1.5431 3.97778,-1.57739 5.65805,-3.0862 h 0.34292 v 7.02969 q -3.25767,1.37165 -6.6525,2.29751 -3.39482,0.92586 -7.13257,0.92586 -9.53294,0 -14.88237,-5.14368 -5.34942,-5.17797 -5.34942,-14.67663 0,-9.39578 5.10938,-14.91666 5.14368,-5.52089 13.51073,-5.52089 7.74981,0 11.93333,4.52644 4.21782,4.52645 4.21782,12.8592 z m -6.27528,-4.93793 q -0.0343,-5.07509 -2.57184,-7.85269 -2.50327,-2.77758 -7.64694,-2.77758 -5.17797,0 -8.26417,3.05192 -3.05192,3.05191 -3.46341,7.57835 z" aria-label="Game engine" font-size="66.667" style="-inkscape-font-specification:&quot;Inter Alia, Normal&quot;"/></g></svg>