<?xml version="1.0" encoding="UTF-8"?>
<svg version="1.1" xmlns="http://www.w3.org/2000/svg" width="548" height="207">
<path d="M0 0 C5.0008285 4.28642443 7.22165168 9.04639645 10 15 C15.94 15.33 21.88 15.66 28 16 C28.66 14.02 29.32 12.04 30 10 C30.78716755 8.37268246 31.61822345 6.76555743 32.5 5.1875 C32.9228125 4.41792969 33.345625 3.64835937 33.78125 2.85546875 C35 1 35 1 37 0 C38.83178711 0.40551758 38.83178711 0.40551758 41.02734375 1.14453125 C42.21553711 1.54188477 42.21553711 1.54188477 43.42773438 1.94726562 C44.25595703 2.23279297 45.08417969 2.51832031 45.9375 2.8125 C46.76185547 3.08642578 47.58621094 3.36035156 48.43554688 3.64257812 C51.99819917 4.84942297 54.84319606 5.89546404 58 8 C58.22107787 10.7885289 58.28107535 13.34653181 58.1875 16.125 C58.16719727 17.25615234 58.16719727 17.25615234 58.14648438 18.41015625 C58.11109985 20.27374127 58.05729167 22.13695978 58 24 C58.54938232 23.44014404 59.09876465 22.88028809 59.66479492 22.3034668 C62.16705412 19.75952526 64.67716382 17.22347054 67.1875 14.6875 C68.48397461 13.36588867 68.48397461 13.36588867 69.80664062 12.01757812 C70.64775391 11.17001953 71.48886719 10.32246094 72.35546875 9.44921875 C73.51018677 8.27879028 73.51018677 8.27879028 74.68823242 7.0847168 C77.97186088 4.12359066 80.6334067 2.16733795 85.0625 1.625 C88.34157681 2.04360555 89.6805502 2.6805502 92 5 C92.98285577 7.9485673 93.12662559 9.85626613 93.12939453 12.92919922 C93.13250641 13.93740219 93.13561829 14.94560516 93.13882446 15.98435974 C93.13684052 17.0800679 93.13485657 18.17577606 93.1328125 19.3046875 C93.13413177 20.4444252 93.13545105 21.5841629 93.1368103 22.75843811 C93.13872817 26.46398633 93.13239623 30.16945947 93.125 33.875 C93.12367065 35.74697556 93.12367065 35.74697556 93.12231445 37.6567688 C93.10708598 55.78905259 92.92915898 73.8888134 92 92 C92.79664063 91.54947266 92.79664063 91.54947266 93.609375 91.08984375 C94.31578125 90.70957031 95.0221875 90.32929687 95.75 89.9375 C96.79414063 89.36322266 96.79414063 89.36322266 97.859375 88.77734375 C100.36140628 87.8687594 101.5332355 88.11663163 104 89 C104.33 90.65 104.66 92.3 105 94 C103.21118264 95.00508801 101.41885304 96.00392736 99.625 97 C98.62726563 97.556875 97.62953125 98.11375 96.6015625 98.6875 C94 100 94 100 92 100 C90.61272497 114.8134419 90.61272497 114.8134419 95.48046875 127.85546875 C98.43568649 129.38773522 98.43568649 129.38773522 101.53125 130.17578125 C102.3459375 130.44777344 103.160625 130.71976563 104 131 C104.96875 132.98046875 104.96875 132.98046875 105 135 C104.34 135.66 103.68 136.32 103 137 C98.19791609 136.56344692 93.53606243 134.57131574 89 133 C88.5875 133.50789062 88.175 134.01578125 87.75 134.5390625 C74.24109104 150.64119951 55.14392802 155.46688343 35 158 C29.71120737 158.23977216 24.41866771 158.2450371 19.125 158.25 C18.38423218 158.25100708 17.64346436 158.25201416 16.88024902 158.25305176 C5.96686856 158.24299661 -4.39361173 157.79941078 -15 155 C-16.12277344 154.7215625 -17.24554688 154.443125 -18.40234375 154.15625 C-31.10769945 150.65132429 -42.5070796 145.34745389 -51 135 C-51.33 134.34 -51.66 133.68 -52 133 C-56.15570403 134.30172691 -56.15570403 134.30172691 -60.0625 136.1875 C-62.66680817 137.27962923 -64.33322955 136.74076957 -67 136 C-67 134.35 -67 132.7 -67 131 C-65.56705502 130.15885829 -64.12845595 129.32734313 -62.6875 128.5 C-61.88699219 128.0359375 -61.08648437 127.571875 -60.26171875 127.09375 C-58 126 -58 126 -55 126 C-54.84794232 121.78993103 -54.81921511 117.58761145 -54.8125 113.375 C-54.76802734 112.18519531 -54.72355469 110.99539062 -54.67773438 109.76953125 C-54.70767245 106.19692038 -54.84337953 103.38696368 -56 100 C-59.35658224 97.11330039 -62.84892872 95.4786986 -67 94 C-66.67 92.35 -66.34 90.7 -66 89 C-64.375 88.3125 -64.375 88.3125 -62 88 C-59.97647948 88.95150655 -57.97337518 89.94843432 -56 91 C-55.99857498 89.95874466 -55.99714996 88.91748932 -55.99568176 87.84468079 C-55.97901008 78.03035609 -55.93623129 68.21644593 -55.86790943 58.40234089 C-55.83362292 53.35678987 -55.80852686 48.31154217 -55.80444336 43.26586914 C-55.80016399 38.3961717 -55.77173126 33.52715869 -55.72656822 28.65767479 C-55.71358166 26.80019302 -55.70928964 24.94262938 -55.71384621 23.0851078 C-55.71874408 20.48217556 -55.69269795 17.88124998 -55.65942383 15.27856445 C-55.66804947 14.5110788 -55.67667511 13.74359314 -55.68556213 12.95285034 C-55.60029446 8.97231614 -55.14518532 7.18232525 -52.63456726 4.02946472 C-50 2 -50 2 -47.1875 1.25 C-38.67761323 3.2523263 -31.97251316 12.95938927 -26.01586914 19.01977539 C-25.06635376 19.98258423 -25.06635376 19.98258423 -24.09765625 20.96484375 C-23.52539307 21.5487085 -22.95312988 22.13257324 -22.36352539 22.73413086 C-21.18794683 24.11339593 -21.18794683 24.11339593 -20 24 C-20.33 18.72 -20.66 13.44 -21 8 C-14.08702515 4.72076834 -7.39273621 1.97246541 0 0 Z " fill="#478CBF" transform="translate(88,24)"/>
<path d="M0 0 C3.04192013 0.1415547 6.08346347 0.28809901 9.125 0.4375 C9.9809375 0.47681641 10.836875 0.51613281 11.71875 0.55664062 C16.21721792 0.78156402 20.56806207 1.13540883 25 2 C25.06058594 2.92683594 25.12117188 3.85367188 25.18359375 4.80859375 C25.26738281 6.00613281 25.35117187 7.20367187 25.4375 8.4375 C25.51871094 9.63246094 25.59992187 10.82742187 25.68359375 12.05859375 C25.67656114 14.88570244 25.67656114 14.88570244 27 16 C33.80234087 17.09323335 40.62308087 17.31160762 47.5 17.5625 C49.16289063 17.62727539 49.16289063 17.62727539 50.859375 17.69335938 C53.57280012 17.79862156 56.28638572 17.89973281 59 18 C59.66 13.71 60.32 9.42 61 5 C69.25 5 77.5 5 86 5 C86.99 11.93 86.99 11.93 88 19 C89.22074219 18.86722656 90.44148438 18.73445313 91.69921875 18.59765625 C93.36192812 18.4187957 95.02469241 18.24044518 96.6875 18.0625 C97.54714355 17.9704126 98.40678711 17.8783252 99.29248047 17.78344727 C105.43256556 17.13691154 111.56380855 16.62641484 117.7265625 16.24609375 C119.96484103 16.24412634 119.96484103 16.24412634 121 15 C121.23481693 12.81707226 121.41363323 10.62796826 121.5625 8.4375 C121.64628906 7.23996094 121.73007813 6.04242188 121.81640625 4.80859375 C121.87699219 3.88175781 121.93757812 2.95492187 122 2 C124.85366354 1.66178803 127.70780596 1.3293022 130.5625 1 C131.36236328 0.90460938 132.16222656 0.80921875 132.98632812 0.7109375 C137.69452167 0.17285824 142.26147265 -0.10176703 147 0 C146.94457031 0.72445312 146.88914063 1.44890625 146.83203125 2.1953125 C146.81042208 5.43668787 146.96620265 7.91562518 148 11 C150.72850828 13.11835367 153.34213531 14.37260459 156.53125 15.68359375 C159 17 159 17 159.96875 19.03515625 C159.98421875 20.00775391 159.98421875 20.00775391 160 21 C159.34 21.66 158.68 22.32 158 23 C153.19791609 22.56344692 148.53606243 20.57131574 144 19 C143.5875 19.50789063 143.175 20.01578125 142.75 20.5390625 C129.24109104 36.64119951 110.14392802 41.46688343 90 44 C84.71120737 44.23977216 79.41866771 44.2450371 74.125 44.25 C73.38423218 44.25100708 72.64346436 44.25201416 71.88024902 44.25305176 C60.96686856 44.24299661 50.60638827 43.79941078 40 41 C38.87722656 40.7215625 37.75445312 40.443125 36.59765625 40.15625 C23.89230055 36.65132429 12.4929204 31.34745389 4 21 C3.67 20.34 3.34 19.68 3 19 C-1.15570403 20.30172691 -1.15570403 20.30172691 -5.0625 22.1875 C-7.66680817 23.27962923 -9.33322955 22.74076957 -12 22 C-12 20.35 -12 18.7 -12 17 C-10.56705502 16.15885829 -9.12845595 15.32734313 -7.6875 14.5 C-6.88699219 14.0359375 -6.08648437 13.571875 -5.26171875 13.09375 C-3 12 -3 12 0 12 C0 8.04 0 4.08 0 0 Z " fill="#478CBF" transform="translate(33,138)"/>
<path d="M0 0 C0.96808594 -0.01675781 1.93617188 -0.03351562 2.93359375 -0.05078125 C6.09421173 0.38597577 6.5847289 0.87896211 8.5625 3.3125 C9.53295627 5.27253742 10.42401559 7.27262584 11.26171875 9.29296875 C11.74833984 10.45634766 12.23496094 11.61972656 12.73632812 12.81835938 C13.23583984 14.03330078 13.73535156 15.24824219 14.25 16.5 C14.76559754 17.73921481 15.28186635 18.97815056 15.79882812 20.21679688 C17.06002043 23.24601579 18.31427179 26.27792134 19.5625 29.3125 C19.85906494 28.50506348 20.15562988 27.69762695 20.46118164 26.86572266 C21.57844081 23.86402114 22.71963366 20.87289504 23.87768555 17.88671875 C24.37310626 16.59451393 24.8589211 15.29858238 25.3347168 13.99902344 C26.02175176 12.12776657 26.74682336 10.27061466 27.47265625 8.4140625 C27.89683838 7.29338379 28.32102051 6.17270508 28.75805664 5.01806641 C30.5625 2.3125 30.5625 2.3125 34.01733398 0.94287109 C42.72617793 -0.60566104 42.72617793 -0.60566104 46.5625 1.3125 C46.5625 20.7825 46.5625 40.2525 46.5625 60.3125 C41.9425 60.3125 37.3225 60.3125 32.5625 60.3125 C30.25685855 56.85403783 30.47481894 55.3458286 30.5625 51.3125 C30.2325 50.9825 29.9025 50.6525 29.5625 50.3125 C27.5825 55.2625 27.5825 55.2625 25.5625 60.3125 C21.6025 60.3125 17.6425 60.3125 13.5625 60.3125 C9.5625 51.5625 9.5625 51.5625 9.5625 49.3125 C8.9025 49.3125 8.2425 49.3125 7.5625 49.3125 C7.58570313 49.93898437 7.60890625 50.56546875 7.6328125 51.2109375 C7.65988281 52.43683594 7.65988281 52.43683594 7.6875 53.6875 C7.71070313 54.49960938 7.73390625 55.31171875 7.7578125 56.1484375 C7.5625 58.3125 7.5625 58.3125 5.5625 60.3125 C3.03125 60.54296875 3.03125 60.54296875 0.0625 60.5 C-1.40703125 60.49033203 -1.40703125 60.49033203 -2.90625 60.48046875 C-5.4375 60.3125 -5.4375 60.3125 -7.4375 59.3125 C-7.48379419 51.9151924 -7.51935426 44.51791593 -7.54112434 37.12049294 C-7.5515717 33.68574541 -7.56574805 30.25109683 -7.58837891 26.81640625 C-7.61422063 22.86980362 -7.62396493 18.92324137 -7.6328125 14.9765625 C-7.64313507 13.74007965 -7.65345764 12.5035968 -7.66409302 11.22964478 C-7.66424408 10.08861298 -7.66439514 8.94758118 -7.66455078 7.77197266 C-7.668992 6.763815 -7.67343323 5.75565735 -7.67800903 4.71694946 C-7.18599622 -0.20186766 -4.21843161 0.0168065 0 0 Z " fill="#414042" transform="translate(214.4375,63.6875)"/>
<path d="M0 0 C1.20785156 -0.020625 2.41570312 -0.04125 3.66015625 -0.0625 C13.90401804 -0.10708699 21.64958186 1.06178398 29.2734375 8.21484375 C35.58463249 15.65405775 36.67371232 24.85545595 36 34.25 C34.63251877 42.14198913 31.40347173 48.89735675 24.9375 53.8203125 C19.63535593 57.23161843 15.73056406 58.37546098 9.36328125 58.34765625 C8.06455078 58.34443359 6.76582031 58.34121094 5.42773438 58.33789062 C4.05598892 58.32953531 2.68424413 58.32107037 1.3125 58.3125 C-0.07096195 58.30748335 -1.45442563 58.30292073 -2.83789062 58.29882812 C-6.22530395 58.28702529 -9.61263033 58.27056019 -13 58.25 C-14.28233558 55.68532885 -14.12703853 53.86131278 -14.12939453 50.98999023 C-14.13254669 49.89222763 -14.13569885 48.79446503 -14.13894653 47.66343689 C-14.1369223 46.47383865 -14.13489807 45.28424042 -14.1328125 44.05859375 C-14.13376923 42.84301285 -14.13472595 41.62743195 -14.13571167 40.37501526 C-14.13639312 37.80184884 -14.13454128 35.22868071 -14.13037109 32.65551758 C-14.12501779 28.70064464 -14.13031968 24.74588503 -14.13671875 20.79101562 C-14.13605805 18.29687475 -14.13477707 15.80273394 -14.1328125 13.30859375 C-14.13483673 12.11697128 -14.13686096 10.92534882 -14.13894653 9.69761658 C-14.13579437 8.60300613 -14.13264221 7.50839569 -14.12939453 6.38061523 C-14.12859894 5.41179916 -14.12780334 4.44298309 -14.12698364 3.44480896 C-13.7949683 -2.2938061 -4.31355543 0.01795445 0 0 Z M3 19.25 C3 26.18 3 33.11 3 40.25 C11.26395961 40.99718669 11.26395961 40.99718669 14.9375 38.5625 C17.63361833 35.53957945 18.9270437 33.40006518 19.06640625 29.29296875 C18.84268046 25.63878081 18.33767999 23.68571611 16.0625 20.75 C12.07158186 18.51688759 12.07158186 18.51688759 3 19.25 Z " fill="#414042" transform="translate(400,64.75)"/>
<path d="M0 0 C5.95107547 5.45322285 9.5750538 12.31097363 10.34375 20.35546875 C10.46294384 31.7503994 8.80273984 39.72734046 0.875 48.1484375 C-5.06759796 53.53158586 -11.39479378 55.29932365 -19.2734375 55.171875 C-27.45669102 54.17248341 -33.28453993 49.37000389 -38.3671875 43.16015625 C-43.18935211 36.27466159 -44.70686182 28.14786173 -43.58984375 19.8515625 C-41.65485725 10.84070822 -38.21489355 3.83863342 -30.6171875 -1.59765625 C-20.2922946 -7.77538383 -9.85186087 -7.22116684 0 0 Z M-23.9921875 15.83984375 C-26.60744079 19.89799541 -27.69343498 23.03128962 -26.9921875 27.83984375 C-24.95224842 31.49766555 -23.48799488 33.50930549 -19.9921875 35.83984375 C-15.78040507 36.30781958 -13.70619636 36.3055017 -10.1171875 33.96484375 C-7.13634255 30.9839988 -6.77946254 29.20913334 -6.6171875 25.08984375 C-6.66355309 21.52999642 -6.91112215 19.16588591 -9.0546875 16.27734375 C-14.08777065 12.1009556 -18.90855081 11.46226771 -23.9921875 15.83984375 Z " fill="#414042" transform="translate(482.9921875,69.16015625)"/>
<path d="M0 0 C7.25686663 6.87579829 10.82944321 14.49176247 11.2109375 24.62109375 C10.84553199 33.72086973 7.94642714 41.34109602 1.6484375 47.96484375 C-4.2529368 53.00956694 -10.93748817 54.9916296 -18.59375 54.90234375 C-25.20439331 54.21253749 -32.01145947 50.73536294 -36.2890625 45.62109375 C-43.18612319 36.20303847 -43.85595154 25.86781728 -42.2890625 14.62109375 C-40.23274461 6.69937387 -34.89760575 1.23802123 -28.2890625 -3.37890625 C-18.44892586 -7.78493758 -8.35297646 -7.10855343 0 0 Z M-24.2890625 16.62109375 C-26.6678739 19.6486719 -26.64884778 22.86578075 -26.54296875 26.65625 C-26.16548782 29.57737167 -25.14764878 31.36423899 -23.2890625 33.62109375 C-20.07309809 35.94989556 -17.18027726 35.94536165 -13.2890625 35.62109375 C-10.50116991 34.74489894 -9.43584644 33.79408911 -7.5390625 31.55859375 C-5.80231957 27.47724787 -5.48318202 23.98819845 -6.2890625 19.62109375 C-7.62849437 16.75768607 -8.76750319 15.76710168 -11.2890625 13.62109375 C-16.99760036 11.752845 -19.79816054 12.75682927 -24.2890625 16.62109375 Z " fill="#414042" transform="translate(369.2890625,69.37890625)"/>
<path d="M0 0 C3.09244792 0.03255208 6.18489583 0.06510417 9.27734375 0.09765625 C14.30806131 9.59570879 18.4496388 19.39478408 22.51098633 29.3359375 C23.59761764 31.99165558 24.69587466 34.64236853 25.79492188 37.29296875 C26.49419165 38.99580561 27.19278405 40.69892084 27.890625 42.40234375 C28.21662186 43.18680878 28.54261871 43.9712738 28.87849426 44.7795105 C30.52848358 48.84634552 32.0037768 52.6690613 32.27734375 57.09765625 C31.61734375 58.08765625 30.95734375 59.07765625 30.27734375 60.09765625 C27.78125 60.49609375 27.78125 60.49609375 24.83984375 60.47265625 C23.87175781 60.48039062 22.90367187 60.488125 21.90625 60.49609375 C19.27734375 60.09765625 19.27734375 60.09765625 17.59765625 58.953125 C15.81904676 56.45359983 14.73972941 53.87706586 13.58984375 51.03515625 C13.15285156 49.97167969 12.71585937 48.90820312 12.265625 47.8125 C11.27734375 45.09765625 11.27734375 45.09765625 11.27734375 43.09765625 C5.99734375 43.09765625 0.71734375 43.09765625 -4.72265625 43.09765625 C-5.15578125 44.43828125 -5.58890625 45.77890625 -6.03515625 47.16015625 C-7.39414589 51.25006794 -8.96514279 55.16417374 -10.72265625 59.09765625 C-15.34265625 59.09765625 -19.96265625 59.09765625 -24.72265625 59.09765625 C-25.84404337 53.49072066 -24.80589364 50.85850226 -22.66015625 45.84765625 C-22.31525146 45.01516357 -21.97034668 44.1826709 -21.61499023 43.32495117 C-20.33183176 40.24302841 -19.02659235 37.1708461 -17.72265625 34.09765625 C-16.83171543 31.97795364 -15.94275721 29.85742499 -15.05375671 27.73690796 C-13.4689419 23.95933289 -11.87781793 20.18442866 -10.28515625 16.41015625 C-9.96884247 15.66012329 -9.65252869 14.91009033 -9.32662964 14.1373291 C-8.42116201 11.99395984 -7.51203259 9.85218583 -6.6015625 7.7109375 C-6.32583405 7.05766983 -6.05010559 6.40440216 -5.76602173 5.7313385 C-3.37188039 0.12094263 -3.37188039 0.12094263 0 0 Z M2.27734375 26.09765625 C2.27734375 27.08765625 2.27734375 28.07765625 2.27734375 29.09765625 C2.93734375 29.09765625 3.59734375 29.09765625 4.27734375 29.09765625 C4.27734375 28.10765625 4.27734375 27.11765625 4.27734375 26.09765625 C3.61734375 26.09765625 2.95734375 26.09765625 2.27734375 26.09765625 Z " fill="#414042" transform="translate(293.72265625,64.90234375)"/>
<path d="M0 0 C0.81976822 0.00202423 1.63953644 0.00404846 2.48414612 0.00613403 C3.32143753 0.00517731 4.15872894 0.00422058 5.02139282 0.00323486 C6.79600601 0.00255298 8.57062168 0.00440781 10.3452301 0.00857544 C13.06672257 0.01391694 15.78804949 0.00863418 18.50953674 0.00222778 C20.23024023 0.00288869 21.95094362 0.00417013 23.67164612 0.00613403 C24.48939011 0.0041098 25.30713409 0.00208557 26.1496582 0 C31.91439222 0.02399146 31.91439222 0.02399146 34.14430237 1.13894653 C34.22504439 3.76455763 34.28466467 6.38770329 34.33180237 9.01394653 C34.35693909 9.76031372 34.38207581 10.50668091 34.40797424 11.27566528 C34.43727112 13.44363403 34.43727112 13.44363403 34.14430237 17.13894653 C30.9405022 19.27481331 30.1249027 19.37026828 26.45680237 19.26394653 C25.64856018 19.24589966 24.84031799 19.22785278 24.00758362 19.20925903 C23.39270081 19.18605591 22.77781799 19.16285278 22.14430237 19.13894653 C22.15215759 20.85779053 22.15215759 20.85779053 22.16017151 22.61135864 C22.17821954 26.84735336 22.18973365 31.08334465 22.19923401 35.31936646 C22.20427468 37.15563528 22.21110714 38.99190007 22.21974182 40.82815552 C22.23181909 43.46171055 22.23753318 46.0952127 22.24195862 48.72879028 C22.2471199 49.55483261 22.25228119 50.38087494 22.25759888 51.23194885 C22.25779441 53.20131021 22.20634388 55.17056267 22.14430237 57.13894653 C21.81430237 57.46894653 21.48430237 57.79894653 21.14430237 58.13894653 C15.86430237 58.13894653 10.58430237 58.13894653 5.14430237 58.13894653 C5.14430237 45.26894653 5.14430237 32.39894653 5.14430237 19.13894653 C1.84430237 19.13894653 -1.45569763 19.13894653 -4.85569763 19.13894653 C-6.85569763 17.13894653 -6.85569763 17.13894653 -7.08616638 13.47879028 C-7.08217496 12.0112779 -7.06741921 10.54376444 -7.04319763 9.07644653 C-7.0425531 8.33072388 -7.04190857 7.58500122 -7.04124451 6.81668091 C-6.98640959 0.10854285 -6.65383109 0.0278074 0 0 Z " fill="#414042" transform="translate(501.85569763183594,64.86105346679688)"/>
<path d="M0 0 C3.95181927 0.23639465 7.90267265 0.48487691 11.85302734 0.74462891 C13.19721743 0.83129849 14.54162563 0.9146512 15.88623047 0.99462891 C17.81792334 1.1101028 19.7488323 1.23846382 21.6796875 1.3671875 C23.42354736 1.47716064 23.42354736 1.47716064 25.20263672 1.58935547 C28 2 28 2 30 4 C30.4140625 7.0390625 30.4140625 7.0390625 30.625 10.625 C30.69976562 11.81351563 30.77453125 13.00203125 30.8515625 14.2265625 C30.92503906 15.59941406 30.92503906 15.59941406 31 17 C31.97839844 17.06058594 32.95679688 17.12117188 33.96484375 17.18359375 C40.99968883 17.63321512 48.00116259 18.14049365 55 19 C55.04898438 18.15695313 55.09796875 17.31390625 55.1484375 16.4453125 C55.22320312 15.34960938 55.29796875 14.25390625 55.375 13.125 C55.44460937 12.03445312 55.51421875 10.94390625 55.5859375 9.8203125 C56 7 56 7 58 5 C61.04101562 4.74121094 61.04101562 4.74121094 64.90625 4.734375 C65.92700623 4.73150482 65.92700623 4.73150482 66.96838379 4.72857666 C68.40747446 4.72721537 69.84657744 4.73090795 71.28564453 4.73925781 C73.49149087 4.74995872 75.69652281 4.73936128 77.90234375 4.7265625 C79.29948097 4.72788411 80.69661768 4.73044652 82.09375 4.734375 C83.36927734 4.73663086 84.64480469 4.73888672 85.95898438 4.74121094 C89 5 89 5 91 7 C91.495 12.94 91.495 12.94 92 19 C103.88 18.01 103.88 18.01 116 17 C116.12375 14.89625 116.2475 12.7925 116.375 10.625 C116.75 4.25 116.75 4.25 119 2 C121.4856275 1.71228417 123.88117425 1.53383667 126.375 1.4375 C127.82036628 1.36565718 129.26567898 1.29272885 130.7109375 1.21875 C131.43120117 1.18394531 132.15146484 1.14914063 132.89355469 1.11328125 C137.60406827 0.85995739 142.30177808 0.41821294 147 0 C147 1.98 147 3.96 147 6 C143.95872183 6.33725065 140.91705809 6.66992332 137.875 7 C137.0190625 7.09539062 136.163125 7.19078125 135.28125 7.2890625 C130.82977526 7.76845209 126.48558075 8.11765458 122 8 C122.02320313 8.91523438 122.04640625 9.83046875 122.0703125 10.7734375 C122.08835937 11.96195313 122.10640625 13.15046875 122.125 14.375 C122.14820313 15.55835938 122.17140625 16.74171875 122.1953125 17.9609375 C122 21 122 21 120 23 C117.48144531 23.41064453 117.48144531 23.41064453 114.328125 23.6328125 C113.18859375 23.71660156 112.0490625 23.80039063 110.875 23.88671875 C109.67875 23.96535156 108.4825 24.04398438 107.25 24.125 C106.06921875 24.21136719 104.8884375 24.29773438 103.671875 24.38671875 C98.43432457 24.75830172 93.25271314 25.04614533 88 25 C85.90719948 19.76799869 86 17.12192707 86 11 C77.75 11 69.5 11 61 11 C61 13.64 61 16.28 61 19 C60 22.5 60 22.5 59 25 C55.16643908 24.85980275 51.33321567 24.71181712 47.5 24.5625 C46.42234375 24.52318359 45.3446875 24.48386719 44.234375 24.44335938 C27.79166667 23.79166667 27.79166667 23.79166667 25 21 C24.8046875 17.9609375 24.8046875 17.9609375 24.875 14.375 C24.89304687 13.18648437 24.91109375 11.99796875 24.9296875 10.7734375 C24.95289062 9.85820312 24.97609375 8.94296875 25 8 C24.13048706 7.96241577 24.13048706 7.96241577 23.2434082 7.92407227 C20.59957893 7.80753766 17.95605591 7.68507318 15.3125 7.5625 C14.40048828 7.52318359 13.48847656 7.48386719 12.54882812 7.44335938 C11.66259766 7.40146484 10.77636719 7.35957031 9.86328125 7.31640625 C9.05157471 7.27974854 8.23986816 7.24309082 7.40356445 7.20532227 C4.87855515 6.98962569 2.47399303 6.54100548 0 6 C0 4.02 0 2.04 0 0 Z " fill="#F6F9FB" transform="translate(33,132)"/>
<path d="M0 0 C5.28832816 1.76277605 9.44533489 5.01315372 12 10 C12.99275957 15.61059575 12.78115243 20.31751785 10.375 25.5 C6.1241958 29.97453074 1.98088728 32.64930738 -4.1875 33.375 C-10.40474145 32.76346805 -14.26042077 29.82655819 -18.5 25.375 C-20.65271187 20.5313983 -20.76983661 16.21778148 -20 11 C-15.65013453 2.13916293 -9.37399044 -0.8406455 0 0 Z " fill="#F3F6F8" transform="translate(149,89)"/>
<path d="M0 0 C5.28859743 1.76286581 9.39434905 5.04836778 12 10 C12.91493958 15.12514938 12.50668171 19.5332898 10.8125 24.4375 C7.73159684 28.79325964 4.14097514 31.53114996 -1 33 C-6.47351767 33.72291743 -9.78261117 32.60924796 -14.19921875 29.5390625 C-17.87891737 26.39415739 -19.64423248 23.33472432 -20.375 18.5390625 C-20.64804074 12.856402 -19.86886541 9.39168506 -16 5 C-10.57816818 0.22362435 -7.09579335 -0.63634018 0 0 Z " fill="#F3F5F7" transform="translate(72,89)"/>
<path d="M0 0 C3.36483928 0.44189791 4.45249126 1.51659291 6.8449707 3.8894043 C7.97128906 5.00605469 7.97128906 5.00605469 9.12036133 6.14526367 C9.88928711 6.93352539 10.65821289 7.72178711 11.45043945 8.53393555 C12.23870117 9.30286133 13.02696289 10.07178711 13.83911133 10.86401367 C14.95576172 11.99033203 14.95576172 11.99033203 16.0949707 13.1394043 C16.775354 13.82542725 17.4557373 14.5114502 18.15673828 15.21826172 C19.98528478 17.84549756 20.12350202 19.20731335 19.63793945 22.34643555 C17.80476613 24.41098026 16.10116601 26.08403157 14.01293945 27.84643555 C13.49086914 28.30663086 12.96879883 28.76682617 12.4309082 29.2409668 C11.3776965 30.16415236 10.31635702 31.07814823 9.24707031 31.98266602 C8.15248608 32.91034733 7.07027033 33.85277847 5.99951172 34.80786133 C1.95102189 38.36035032 1.95102189 38.36035032 -1.17456055 38.22143555 C-3.36206055 37.34643555 -3.36206055 37.34643555 -4.36206055 36.34643555 C-4.47533421 33.84889414 -4.52623245 31.38003565 -4.5300293 28.8815918 C-4.5333577 28.13308456 -4.5366861 27.38457733 -4.54011536 26.61338806 C-4.54518748 25.02709571 -4.54752359 23.44079264 -4.54736328 21.85449219 C-4.54954828 19.42259186 -4.56769636 16.99114605 -4.58666992 14.55932617 C-4.58960404 13.02091627 -4.59158871 11.48250421 -4.5925293 9.9440918 C-4.59971481 9.21384293 -4.60690033 8.48359406 -4.61430359 7.73121643 C-4.58223871 0.67206168 -4.58223871 0.67206168 0 0 Z " fill="#77A0BF" transform="translate(41.362060546875,36.653564453125)"/>
<path d="M0 0 C1 1 1 1 1.11352539 4.41821289 C1.11336628 5.93636988 1.10767226 7.45453229 1.09765625 8.97265625 C1.0962413 9.77029892 1.09482635 10.56794159 1.09336853 11.38975525 C1.08775316 13.94737435 1.07519812 16.50490718 1.0625 19.0625 C1.05748698 20.79231645 1.05292373 22.52213426 1.04882812 24.25195312 C1.03777875 28.50133553 1.02050386 32.75065312 1 37 C-1.33666992 37.61523438 -1.33666992 37.61523438 -4 38 C-6.61328125 36.15625 -6.61328125 36.15625 -9.3125 33.5 C-10.27278615 32.57484428 -11.23372918 31.65036991 -12.1953125 30.7265625 C-13.12085938 29.82679687 -14.04640625 28.92703125 -15 28 C-16.55212803 26.61330254 -18.11316615 25.23643461 -19.6875 23.875 C-20.33074219 23.31554687 -20.97398437 22.75609375 -21.63671875 22.1796875 C-22.08660156 21.79039063 -22.53648437 21.40109375 -23 21 C-22.11823527 15.35860197 -17.62802252 12.11520261 -13.75 8.25 C-12.98558594 7.45722656 -12.22117188 6.66445313 -11.43359375 5.84765625 C-10.68722656 5.09871094 -9.94085938 4.34976563 -9.171875 3.578125 C-8.4922168 2.89137695 -7.81255859 2.20462891 -7.11230469 1.49707031 C-4.53280395 -0.33111953 -3.09753221 -0.38505598 0 0 Z " fill="#78A1BF" transform="translate(174,37)"/>
<path d="M0 0 C2.94214318 1.30086496 3.83163498 2.39796197 6 5 C7.05107426 7.75200627 7.35499489 10.07415505 7 13 C5.03190926 16.79560358 3.5566917 18.6288722 0 21 C-3.06526351 21.54531842 -5.93408329 21.54325893 -9 21 C-11.75569447 18.81840855 -13.43588747 17.12822506 -15 14 C-15.5811138 6.91041162 -15.5811138 6.91041162 -13.125 3.0625 C-9.20673997 -0.74051709 -5.2530983 -0.75799741 0 0 Z " fill="#424143" transform="translate(148,96)"/>
<path d="M0 0 C2.87029869 1.79393668 4.49131638 2.98263276 6 6 C6.55512815 10.63213493 6.6364242 13.98172127 4.125 18 C0.61339986 21.30503543 -2.06427518 21.38586099 -6.73828125 21.36328125 C-10.29566317 20.7918883 -11.85459738 18.7487971 -14 16 C-14.33 15.67 -14.66 15.34 -15 15 C-15.58169863 10.38455511 -15.6241677 6.99866833 -13.125 3 C-9.17747933 -0.71531357 -5.22551678 -0.67688041 0 0 Z " fill="#414042" transform="translate(74,96)"/>
<path d="M0 0 C0.33 1.65 0.66 3.3 1 5 C-1.99925342 6.58475045 -4.99954008 8.16753521 -8 9.75 C-8.83917969 10.1934375 -9.67835938 10.636875 -10.54296875 11.09375 C-12.21767031 11.97653842 -13.89475182 12.85482715 -15.57421875 13.72851562 C-17.14850198 14.5536834 -18.71432507 15.39527627 -20.26953125 16.25585938 C-25.52062337 19.08599344 -25.52062337 19.08599344 -28.2265625 18.60058594 C-29.10441406 18.3032959 -29.10441406 18.3032959 -30 18 C-30.33 16.68 -30.66 15.36 -31 14 C-26.22581419 9.67951651 -20.64616058 7.04740879 -14.9375 4.1875 C-13.94427734 3.67251953 -12.95105469 3.15753906 -11.92773438 2.62695312 C-10.97060547 2.14548828 -10.01347656 1.66402344 -9.02734375 1.16796875 C-8.15843506 0.72735107 -7.28952637 0.2867334 -6.39428711 -0.16723633 C-3.74721495 -1.08792187 -2.58355707 -0.9739318 0 0 Z " fill="#212532" transform="translate(192,113)"/>
<path d="M0 0 C3.92641219 0.48017765 6.96640132 1.82642126 10.44921875 3.65234375 C11.46177734 4.18150391 12.47433594 4.71066406 13.51757812 5.25585938 C14.56365234 5.81080078 15.60972656 6.36574219 16.6875 6.9375 C17.74517578 7.48857422 18.80285156 8.03964844 19.89257812 8.60742188 C27.72779439 12.72779439 27.72779439 12.72779439 30 15 C29.625 17.125 29.625 17.125 29 19 C25.07064774 20.09809745 23.17022174 20.01271133 19.6015625 18.05078125 C18.79203125 17.61443359 17.9825 17.17808594 17.1484375 16.72851562 C16.31570312 16.26123047 15.48296875 15.79394531 14.625 15.3125 C13.8 14.86455078 12.975 14.41660156 12.125 13.95507812 C7.38001125 11.3679295 2.68407143 8.69555054 -2 6 C-1.125 1.125 -1.125 1.125 0 0 Z " fill="#212633" transform="translate(23,112)"/>
<path d="M0 0 C5.703807 0.50436785 9.89313412 2.09965244 14.9375 4.75 C15.63681641 5.10835937 16.33613281 5.46671875 17.05664062 5.8359375 C21.86433272 8.3271554 26.49212157 10.99474771 31 14 C30.67 15.32 30.34 16.64 30 18 C27.25181254 19.09640802 26.1216514 19.04281299 23.28271484 18.04370117 C22.26902832 17.54845947 21.2553418 17.05321777 20.2109375 16.54296875 C19.10492188 16.00736328 17.99890625 15.47175781 16.859375 14.91992188 C15.70953125 14.34822266 14.5596875 13.77652344 13.375 13.1875 C12.21742188 12.62740234 11.05984375 12.06730469 9.8671875 11.49023438 C1.30336607 7.30336607 1.30336607 7.30336607 -1 5 C-0.625 2.375 -0.625 2.375 0 0 Z " fill="#212633" transform="translate(162,142)"/>
<path d="M0 0 C0.33 1.32 0.66 2.64 1 4 C-1.99925342 5.58475045 -4.99954008 7.16753521 -8 8.75 C-8.83917969 9.1934375 -9.67835937 9.636875 -10.54296875 10.09375 C-13.0253223 11.40227745 -15.51251173 12.70126718 -18 14 C-18.76054688 14.40573242 -19.52109375 14.81146484 -20.3046875 15.22949219 C-25.66170635 18.02819114 -25.66170635 18.02819114 -29 17.75 C-29.66 17.5025 -30.32 17.255 -31 17 C-31 15.35 -31 13.7 -31 12 C-29.96101563 11.48050781 -28.92203125 10.96101562 -27.8515625 10.42578125 C-27.18036377 10.0898999 -26.50916504 9.75401855 -25.81762695 9.40795898 C-24.35092526 8.67517973 -22.88330623 7.94423384 -21.41479492 7.21508789 C-18.21397529 5.62334998 -15.03319381 4.01790883 -11.88671875 2.3203125 C-11.03722656 1.86398438 -10.18773438 1.40765625 -9.3125 0.9375 C-8.58675781 0.53402344 -7.86101563 0.13054687 -7.11328125 -0.28515625 C-4.42264751 -1.19529668 -2.69808694 -0.75130617 0 0 Z " fill="#202431" transform="translate(52,143)"/>
<path d="M0 0 C5.61 0 11.22 0 17 0 C18 5 18 5 16.48828125 7.2734375 C15.77027344 7.96695313 15.05226563 8.66046875 14.3125 9.375 C13.60738281 10.08398438 12.90226562 10.79296875 12.17578125 11.5234375 C10 13 10 13 7.96875 12.9296875 C5.62657192 11.82365896 4.04866099 10.55238748 2.1875 8.75 C1.56230469 8.16734375 0.93710938 7.5846875 0.29296875 6.984375 C-1 5 -1 5 0 0 Z " fill="#F7F9FB" transform="translate(98,118)"/>
<path d="M0 0 C1.010625 0.103125 2.02125 0.20625 3.0625 0.3125 C4.3825 0.3125 5.7025 0.3125 7.0625 0.3125 C7.12049124 4.08326889 7.15609306 7.85392334 7.1875 11.625 C7.20425781 12.69685547 7.22101563 13.76871094 7.23828125 14.87304688 C7.24472656 15.90107422 7.25117188 16.92910156 7.2578125 17.98828125 C7.26828613 18.93614502 7.27875977 19.88400879 7.28955078 20.8605957 C7.0625 23.3125 7.0625 23.3125 5.0625 26.3125 C1.4827048 27.22649027 -0.40224216 27.49091928 -3.9375 26.3125 C-3.9375 25.6525 -3.9375 24.9925 -3.9375 24.3125 C-1.2975 24.3125 1.3425 24.3125 4.0625 24.3125 C4.0625 22.3325 4.0625 20.3525 4.0625 18.3125 C3.7325 18.6425 3.4025 18.9725 3.0625 19.3125 C0.1875 19.6875 0.1875 19.6875 -2.9375 19.3125 C-5.74132884 16.4152102 -6.15660803 13.70330379 -6.3125 9.8125 C-6.1136707 4.85005209 -5.62804426 0.59872811 0 0 Z M-1.9375 2.3125 C-4.27236745 5.96073039 -4.24149283 9.05660043 -3.9375 13.3125 C-3.05685073 15.66619807 -3.05685073 15.66619807 -1.9375 17.3125 C0.47895782 17.47937448 0.47895782 17.47937448 3.0625 17.3125 C5.31325045 15.48138152 5.31325045 15.48138152 5.328125 12.78125 C5.32296875 11.8015625 5.3178125 10.821875 5.3125 9.8125 C5.31765625 8.8328125 5.3228125 7.853125 5.328125 6.84375 C5.31325045 4.14361848 5.31325045 4.14361848 3.0625 2.3125 C0.47895782 2.14562552 0.47895782 2.14562552 -1.9375 2.3125 Z " fill="#6D6E71" transform="translate(355.9375,144.6875)"/>
<path d="M0 0 C3.9661411 0.82627939 5.48622355 2.51974674 8 5.625 C8 6.285 8 6.945 8 7.625 C7.34 7.625 6.68 7.625 6 7.625 C5.67 6.305 5.34 4.985 5 3.625 C3.72125 3.563125 2.4425 3.50125 1.125 3.4375 C0.40570313 3.40269531 -0.31359375 3.36789063 -1.0546875 3.33203125 C-1.69664062 3.42871094 -2.33859375 3.52539062 -3 3.625 C-5.45281911 7.30422867 -5.26823919 9.24759351 -5.25 13.625 C-5.25515625 14.8625 -5.2603125 16.1 -5.265625 17.375 C-5.25251361 20.77173144 -5.25251361 20.77173144 -3 23.625 C-0.61398509 24.65893979 0.65010584 24.70497581 3.1875 24.125 C5.39585944 22.61562773 5.39585944 22.61562773 5.75 19 C5.8325 17.88625 5.915 16.7725 6 15.625 C4.35 15.625 2.7 15.625 1 15.625 C1 14.965 1 14.305 1 13.625 C3.31 13.625 5.62 13.625 8 13.625 C8.08121924 15.22832791 8.13929134 16.83284026 8.1875 18.4375 C8.23970703 19.77748047 8.23970703 19.77748047 8.29296875 21.14453125 C8 23.625 8 23.625 6.73046875 25.41796875 C4.33662295 27.08771672 1.98876337 27.08435231 -0.8671875 27.21875 C-4.36051446 26.24624872 -5.81634553 24.46674212 -8 21.625 C-8.50759417 18.71081227 -8.70496569 16.5144271 -8.625 13.625 C-8.64433594 12.92632812 -8.66367188 12.22765625 -8.68359375 11.5078125 C-8.64640121 7.56540327 -8.1187401 5.77450996 -5.6484375 2.6640625 C-3 0.625 -3 0.625 0 0 Z " fill="#6D6E71" transform="translate(238,137.375)"/>
<path d="M0 0 C1.32 0 2.64 0 4 0 C5.546875 -0.061875 5.546875 -0.061875 7.125 -0.125 C10 0 10 0 12 2 C13.28568472 5.5255254 13.09965554 9.03444563 13.0625 12.75 C13.05347656 13.92046875 13.04445313 15.0909375 13.03515625 16.296875 C13.02355469 17.18890625 13.01195312 18.0809375 13 19 C12.01 19 11.02 19 10 19 C9.67 13.72 9.34 8.44 9 3 C7.35 3 5.7 3 4 3 C2.5192152 5.9615696 2.64685963 8.83506295 2.4375 12.125 C2.35371094 13.40632812 2.26992188 14.68765625 2.18359375 16.0078125 C2.09271484 17.48894531 2.09271484 17.48894531 2 19 C1.34 19 0.68 19 0 19 C0 12.73 0 6.46 0 0 Z " fill="#6D6E71" transform="translate(375,145)"/>
<path d="M0 0 C1.6796875 1.00390625 1.6796875 1.00390625 3 3 C3.21714241 5.81127043 3.28284276 8.3883345 3.1875 11.1875 C3.17396484 11.93708984 3.16042969 12.68667969 3.14648438 13.45898438 C3.11118539 15.30629767 3.05737917 17.15324066 3 19 C2.01 18.67 1.02 18.34 0 18 C-1.175625 18.185625 -2.35125 18.37125 -3.5625 18.5625 C-4.696875 18.706875 -5.83125 18.85125 -7 19 C-9 17 -9 17 -9.375 14.0625 C-9 11 -9 11 -7.375 9.125 C-4.43362303 7.73171617 -2.21666704 7.78068179 1 8 C0.67 6.02 0.34 4.04 0 2 C-2.97065509 2.34227572 -2.97065509 2.34227572 -6 3 C-6.33 3.66 -6.66 4.32 -7 5 C-7.66 5 -8.32 5 -9 5 C-8.625 3.0625 -8.625 3.0625 -8 1 C-5.20129973 -0.39935013 -3.09501208 -0.25265405 0 0 Z M-7 11 C-7.042721 12.66611905 -7.04063832 14.33382885 -7 16 C-5.94570314 17.26472065 -5.94570314 17.26472065 -3.5625 17.25 C-2.2940625 17.12625 -2.2940625 17.12625 -1 17 C1.36980013 14.04622502 1.36980013 14.04622502 1 10 C-3.14093698 9.79029441 -3.14093698 9.79029441 -7 11 Z " fill="#6D6E71" transform="translate(260,145)"/>
<path d="M0 0 C1.093125 0.0825 2.18625 0.165 3.3125 0.25 C6.4375 5.75 6.4375 5.75 5.3125 10.25 C2.0125 10.25 -1.2875 10.25 -4.6875 10.25 C-3.91270264 13.24152582 -3.91270264 13.24152582 -2.6875 16.25 C0.60226808 17.34658936 2.02553767 17.04953138 5.3125 16.25 C5.3125 16.91 5.3125 17.57 5.3125 18.25 C2.2292365 19.79163175 -0.29628099 19.54747535 -3.6875 19.25 C-5.90012628 17.0678927 -6.62329116 15.67805892 -7.0859375 12.59375 C-7.07820313 11.6553125 -7.07046875 10.716875 -7.0625 9.75 C-7.07023437 8.8115625 -7.07796875 7.873125 -7.0859375 6.90625 C-6.35260888 2.01739253 -4.95009902 0.33559993 0 0 Z M-0.6875 1.25 C-2.76727297 2.47590192 -2.76727297 2.47590192 -4.6875 4.25 C-4.6875 5.57 -4.6875 6.89 -4.6875 8.25 C-2.0475 8.25 0.5925 8.25 3.3125 8.25 C3.3125 6.6 3.3125 4.95 3.3125 3.25 C1.9925 2.59 0.6725 1.93 -0.6875 1.25 Z " fill="#6D6E71" transform="translate(300.6875,144.75)"/>
<path d="M0 0 C1.093125 0.0825 2.18625 0.165 3.3125 0.25 C6.4375 6.875 6.4375 6.875 5.3125 10.25 C2.0125 10.25 -1.2875 10.25 -4.6875 10.25 C-3.91270264 13.24152582 -3.91270264 13.24152582 -2.6875 16.25 C0.60226808 17.34658936 2.02553767 17.04953138 5.3125 16.25 C4.6525 17.24 3.9925 18.23 3.3125 19.25 C-2.71749735 19.90781789 -2.71749735 19.90781789 -5.38671875 18.09765625 C-7.23468531 15.47276681 -7.08609456 13.49383338 -7.0625 10.3125 C-7.07023437 9.27222656 -7.07796875 8.23195312 -7.0859375 7.16015625 C-6.39769358 2.13327666 -5.11795816 0.34698021 0 0 Z M-0.6875 1.25 C-2.76727297 2.47590192 -2.76727297 2.47590192 -4.6875 4.25 C-4.6875 5.57 -4.6875 6.89 -4.6875 8.25 C-2.0475 8.25 0.5925 8.25 3.3125 8.25 C3.3125 6.6 3.3125 4.95 3.3125 3.25 C1.9925 2.59 0.6725 1.93 -0.6875 1.25 Z " fill="#6D6E71" transform="translate(398.6875,144.75)"/>
<path d="M0 0 C1.875 1.625 1.875 1.625 3 4 C3.1875 7.25 3.1875 7.25 3 10 C-0.63 10 -4.26 10 -8 10 C-7.3045656 13.00384054 -7.3045656 13.00384054 -6 16 C-3.12206259 17.4389687 -0.99299029 16.96203259 2 16 C1.67 16.99 1.34 17.98 1 19 C-5.24460432 19.60044272 -5.24460432 19.60044272 -8.4375 17.0625 C-10.51038445 12.99964648 -10.69017733 9.48615265 -10 5 C-7.91826473 -0.13193 -5.41887352 -0.55294628 0 0 Z M-4 1 C-7.22404978 2.66954819 -7.22404978 2.66954819 -7.6875 5.625 C-7.790625 6.40875 -7.89375 7.1925 -8 8 C-5.03 8 -2.06 8 1 8 C0.81171228 5.55519921 0.81171228 5.55519921 0 3 C-1.96758273 1.63979849 -1.96758273 1.63979849 -4 1 Z " fill="#6D6E71" transform="translate(327,145)"/>
<path d="M0 0 C1.32 0 2.64 0 4 0 C5.546875 -0.0928125 5.546875 -0.0928125 7.125 -0.1875 C8.07375 -0.125625 9.0225 -0.06375 10 0 C12.52775351 3.79163027 12.22443035 6.80874031 12.125 11.1875 C12.11597656 11.93708984 12.10695313 12.68667969 12.09765625 13.45898438 C12.07412578 15.30612654 12.03825561 17.15310412 12 19 C11.34 19 10.68 19 10 19 C9.67 13.39 9.34 7.78 9 2 C7.02 2.66 5.04 3.32 3 4 C2.67 8.95 2.34 13.9 2 19 C1.34 19 0.68 19 0 19 C0 12.73 0 6.46 0 0 Z " fill="#6D6E71" transform="translate(334,145)"/>
<path d="M0 0 C3.97041037 -0.22057835 5.23312136 0.11656068 9 2 C8.67 7.61 8.34 13.22 8 19 C7.34 19 6.68 19 6 19 C5.93941406 18.09636719 5.87882812 17.19273437 5.81640625 16.26171875 C5.73261719 15.08222656 5.64882813 13.90273437 5.5625 12.6875 C5.48128906 11.51574219 5.40007812 10.34398437 5.31640625 9.13671875 C5.1132629 5.97409042 5.1132629 5.97409042 4 3 C2.35 2.67 0.7 2.34 -1 2 C-0.67 1.34 -0.34 0.68 0 0 Z " fill="#6D6E71" transform="translate(272,145)"/>
<path d="M0 0 C2.3125 -0.3125 2.3125 -0.3125 5 0 C8.22884003 4.02081966 8.32895082 7.26742068 8.1875 12.3125 C8.16042969 13.56675781 8.13335937 14.82101563 8.10546875 16.11328125 C8.07066406 17.06589844 8.03585937 18.01851562 8 19 C7.34 19 6.68 19 6 19 C5.34 13.72 4.68 8.44 4 3 C2.35 2.67 0.7 2.34 -1 2 C-0.67 1.34 -0.34 0.68 0 0 Z " fill="#6D6E71" transform="translate(282,145)"/>
<path d="M0 0 C0.66 0 1.32 0 2 0 C3.35862973 3.90480249 2.89469712 7.7101776 2.5625 11.75 C2.51029297 12.44738281 2.45808594 13.14476562 2.40429688 13.86328125 C2.27525928 15.57596203 2.13840386 17.28805066 2 19 C1.34 19 0.68 19 0 19 C0 12.73 0 6.46 0 0 Z " fill="#6D6E71" transform="translate(268,145)"/>
<path d="M0 0 C0.66 0 1.32 0 2 0 C2 6.27 2 12.54 2 19 C1.34 19 0.68 19 0 19 C0 12.73 0 6.46 0 0 Z " fill="#6D6E71" transform="translate(368,145)"/>
<path d="M0 0 C2.31 0 4.62 0 7 0 C7 3.3 7 6.6 7 10 C6.01 10 5.02 10 4 10 C4.33 7.03 4.66 4.06 5 1 C3.35 1 1.7 1 0 1 C0 0.67 0 0.34 0 0 Z " fill="#4F91C1" transform="translate(173,138)"/>
<path d="M0 0 C0 0.33 0 0.66 0 1 C-4.76307437 1.95261487 -9.1666528 2.08333357 -14 2 C-14.33 1.34 -14.66 0.68 -15 0 C-9.97560615 -1.67479795 -5.09914442 -1.23615622 0 0 Z " fill="#639DC8" transform="translate(174,132)"/>
<path d="M0 0 C2.97 0 5.94 0 9 0 C8.67 1.32 8.34 2.64 8 4 C5.36 3.01 2.72 2.02 0 1 C0 0.67 0 0.34 0 0 Z " fill="#3E82B5" transform="translate(45,140)"/>
<path d="M0 0 C0.33 1.32 0.66 2.64 1 4 C0.34 3.67 -0.32 3.34 -1 3 C-0.67 2.01 -0.34 1.02 0 0 Z " fill="#6D6E71" transform="translate(369,136)"/>
</svg>
