<?xml version="1.0" encoding="UTF-8"?>
<svg version="1.1" xmlns="http://www.w3.org/2000/svg" width="548" height="207">
<path d="M0,0 L14,0 L14,1 L15,1 L15,2 L16,2 L16,3 L17,3 L17,5 L18,5 L18,7 L19,7 L19,9 L20,9 L20,11 L21,11 L21,13 L22,13 L22,15 L29,15 L29,13 L30,13 L30,11 L31,11 L31,9 L32,9 L32,8 L33,8 L33,6 L34,6 L34,4 L35,4 L35,3 L36,3 L36,2 L37,2 L37,1 L38,1 L38,0 L51,0 L51,1 L54,1 L54,2 L57,2 L57,3 L60,3 L60,4 L63,4 L63,5 L65,5 L65,6 L68,6 L68,7 L69,7 L69,8 L70,8 L70,9 L71,9 L71,10 L72,10 L72,11 L74,11 L74,10 L75,10 L75,9 L76,9 L76,8 L77,8 L77,7 L78,7 L78,6 L80,6 L80,5 L81,5 L81,4 L82,4 L82,3 L83,3 L83,2 L85,2 L85,1 L98,1 L98,2 L100,2 L100,3 L102,3 L102,4 L103,4 L103,5 L104,5 L104,6 L105,6 L105,7 L106,7 L106,9 L107,9 L107,88 L115,88 L115,89 L116,89 L116,90 L117,90 L117,91 L118,91 L118,45 L119,45 L119,43 L120,43 L120,42 L121,42 L121,41 L122,41 L122,40 L123,40 L123,39 L144,39 L144,40 L145,40 L145,41 L146,41 L146,42 L147,42 L147,43 L148,43 L148,44 L149,44 L149,46 L150,46 L150,49 L151,49 L151,51 L152,51 L152,53 L153,53 L153,52 L154,52 L154,49 L155,49 L155,47 L156,47 L156,44 L157,44 L157,43 L158,43 L158,42 L159,42 L159,41 L160,41 L160,40 L162,40 L162,39 L184,39 L184,40 L185,40 L185,41 L186,41 L186,42 L187,42 L187,43 L188,43 L188,75 L189,75 L189,73 L190,73 L190,71 L191,71 L191,68 L192,68 L192,66 L193,66 L193,64 L194,64 L194,61 L195,61 L195,59 L196,59 L196,57 L197,57 L197,54 L198,54 L198,52 L199,52 L199,49 L200,49 L200,47 L201,47 L201,45 L202,45 L202,43 L203,43 L203,42 L204,42 L204,41 L205,41 L205,40 L207,40 L207,39 L224,39 L224,40 L227,40 L227,41 L228,41 L228,42 L229,42 L229,43 L230,43 L230,45 L231,45 L231,47 L232,47 L232,49 L233,49 L233,52 L234,52 L234,54 L235,54 L235,57 L236,57 L236,59 L237,59 L237,61 L238,61 L238,64 L239,64 L239,62 L240,62 L240,59 L241,59 L241,57 L242,57 L242,55 L243,55 L243,54 L244,54 L244,52 L245,52 L245,51 L246,51 L246,50 L247,50 L247,49 L248,49 L248,48 L249,48 L249,47 L250,47 L250,46 L251,46 L251,45 L252,45 L252,44 L254,44 L254,43 L255,43 L255,42 L257,42 L257,41 L260,41 L260,40 L264,40 L264,39 L281,39 L281,40 L284,40 L284,41 L287,41 L287,42 L289,42 L289,43 L290,43 L290,44 L292,44 L292,45 L293,45 L293,46 L294,46 L294,47 L295,47 L295,48 L296,48 L296,49 L297,49 L297,50 L298,50 L298,44 L299,44 L299,43 L300,43 L300,42 L301,42 L301,41 L339,41 L339,42 L342,42 L342,43 L345,43 L345,44 L347,44 L347,45 L348,45 L348,46 L349,46 L349,47 L351,47 L351,48 L352,48 L352,49 L353,49 L353,50 L354,50 L354,51 L355,51 L355,52 L356,52 L356,54 L357,54 L357,53 L358,53 L358,52 L359,52 L359,50 L360,50 L360,49 L361,49 L361,48 L362,48 L362,47 L363,47 L363,46 L365,46 L365,45 L366,45 L366,44 L367,44 L367,43 L369,43 L369,42 L371,42 L371,41 L373,41 L373,40 L377,40 L377,39 L394,39 L394,40 L398,40 L398,41 L400,41 L400,42 L402,42 L402,43 L404,43 L404,44 L405,44 L405,45 L406,45 L406,46 L407,46 L407,44 L408,44 L408,43 L409,43 L409,42 L410,42 L410,41 L459,41 L459,42 L460,42 L460,43 L461,43 L461,44 L462,44 L462,70 L461,70 L461,71 L460,71 L460,72 L459,72 L459,73 L457,73 L457,74 L450,74 L450,110 L449,110 L449,111 L448,111 L448,112 L447,112 L447,113 L422,113 L422,112 L421,112 L421,111 L420,111 L420,110 L419,110 L419,109 L418,109 L418,93 L417,93 L417,95 L416,95 L416,97 L415,97 L415,99 L414,99 L414,100 L413,100 L413,102 L412,102 L412,103 L411,103 L411,104 L410,104 L410,105 L409,105 L409,106 L408,106 L408,107 L407,107 L407,108 L406,108 L406,109 L404,109 L404,110 L403,110 L403,111 L401,111 L401,112 L399,112 L399,113 L396,113 L396,114 L375,114 L375,113 L372,113 L372,112 L370,112 L370,111 L368,111 L368,110 L366,110 L366,109 L365,109 L365,108 L364,108 L364,107 L363,107 L363,106 L362,106 L362,105 L361,105 L361,104 L360,104 L360,103 L359,103 L359,102 L358,102 L358,101 L357,101 L357,100 L356,100 L356,101 L355,101 L355,103 L354,103 L354,104 L353,104 L353,105 L352,105 L352,106 L351,106 L351,107 L350,107 L350,108 L348,108 L348,109 L347,109 L347,110 L345,110 L345,111 L343,111 L343,112 L341,112 L341,113 L336,113 L336,114 L312,114 L312,113 L301,113 L301,112 L300,112 L300,111 L299,111 L299,110 L298,110 L298,104 L297,104 L297,105 L296,105 L296,106 L295,106 L295,107 L294,107 L294,108 L292,108 L292,109 L291,109 L291,110 L290,110 L290,111 L288,111 L288,112 L294,112 L294,113 L295,113 L295,114 L296,114 L296,115 L297,115 L297,120 L308,120 L308,121 L311,121 L311,120 L324,120 L324,121 L326,121 L326,122 L327,122 L327,123 L328,123 L328,124 L329,124 L329,126 L330,126 L330,128 L331,128 L331,142 L330,142 L330,150 L329,150 L329,151 L328,151 L328,152 L327,152 L327,153 L326,153 L326,154 L324,154 L324,155 L311,155 L311,154 L289,154 L289,156 L288,156 L288,158 L287,158 L287,159 L286,159 L286,160 L285,160 L285,161 L283,161 L283,162 L268,162 L268,161 L266,161 L266,160 L265,160 L265,159 L264,159 L264,158 L263,158 L263,154 L250,154 L250,155 L237,155 L237,154 L235,154 L235,153 L234,153 L234,152 L233,152 L233,151 L232,151 L232,150 L231,150 L231,151 L230,151 L230,152 L229,152 L229,153 L228,153 L228,154 L226,154 L226,155 L213,155 L213,154 L181,154 L181,155 L168,155 L168,154 L165,154 L165,155 L151,155 L151,154 L148,154 L148,153 L147,153 L147,152 L146,152 L146,151 L145,151 L145,150 L144,150 L144,149 L143,149 L143,147 L142,147 L142,142 L141,142 L141,126 L142,126 L142,121 L143,121 L143,119 L144,119 L144,118 L145,118 L145,117 L146,117 L146,116 L147,116 L147,115 L122,115 L122,114 L121,114 L121,113 L120,113 L120,112 L119,112 L119,111 L118,111 L118,107 L117,107 L117,108 L116,108 L116,109 L114,109 L114,110 L113,110 L113,111 L110,111 L110,112 L109,112 L109,113 L107,113 L107,126 L108,126 L108,127 L110,127 L110,128 L112,128 L112,129 L114,129 L114,130 L115,130 L115,131 L116,131 L116,132 L117,132 L117,133 L118,133 L118,134 L119,134 L119,147 L118,147 L118,148 L117,148 L117,149 L116,149 L116,150 L115,150 L115,151 L114,151 L114,152 L103,152 L103,151 L101,151 L101,150 L98,150 L98,151 L97,151 L97,152 L96,152 L96,153 L95,153 L95,154 L94,154 L94,155 L93,155 L93,156 L92,156 L92,157 L91,157 L91,158 L89,158 L89,159 L88,159 L88,160 L86,160 L86,161 L85,161 L85,162 L82,162 L82,163 L80,163 L80,164 L78,164 L78,165 L76,165 L76,166 L73,166 L73,167 L70,167 L70,168 L66,168 L66,169 L63,169 L63,170 L57,170 L57,171 L51,171 L51,172 L44,172 L44,173 L7,173 L7,172 L0,172 L0,171 L-6,171 L-6,170 L-11,170 L-11,169 L-15,169 L-15,168 L-19,168 L-19,167 L-22,167 L-22,166 L-25,166 L-25,165 L-27,165 L-27,164 L-29,164 L-29,163 L-31,163 L-31,162 L-33,162 L-33,161 L-35,161 L-35,160 L-37,160 L-37,159 L-38,159 L-38,158 L-40,158 L-40,157 L-41,157 L-41,156 L-42,156 L-42,155 L-43,155 L-43,154 L-44,154 L-44,153 L-45,153 L-45,152 L-46,152 L-46,151 L-47,151 L-47,150 L-50,150 L-50,151 L-52,151 L-52,152 L-62,152 L-62,151 L-63,151 L-63,150 L-65,150 L-65,149 L-66,149 L-66,148 L-67,148 L-67,147 L-68,147 L-68,134 L-67,134 L-67,133 L-66,133 L-66,132 L-65,132 L-65,131 L-64,131 L-64,130 L-62,130 L-62,129 L-60,129 L-60,128 L-58,128 L-58,127 L-56,127 L-56,113 L-57,113 L-57,112 L-59,112 L-59,111 L-61,111 L-61,110 L-63,110 L-63,109 L-64,109 L-64,108 L-65,108 L-65,107 L-66,107 L-66,106 L-67,106 L-67,105 L-68,105 L-68,92 L-67,92 L-67,91 L-66,91 L-66,90 L-65,90 L-65,89 L-63,89 L-63,88 L-56,88 L-56,10 L-55,10 L-55,8 L-54,8 L-54,7 L-53,7 L-53,6 L-52,6 L-52,5 L-51,5 L-51,4 L-50,4 L-50,3 L-49,3 L-49,2 L-47,2 L-47,1 L-34,1 L-34,2 L-32,2 L-32,3 L-30,3 L-30,4 L-29,4 L-29,5 L-28,5 L-28,6 L-27,6 L-27,7 L-26,7 L-26,8 L-25,8 L-25,9 L-24,9 L-24,10 L-23,10 L-23,11 L-22,11 L-22,12 L-21,12 L-21,10 L-20,10 L-20,9 L-19,9 L-19,8 L-18,8 L-18,7 L-16,7 L-16,6 L-14,6 L-14,5 L-11,5 L-11,4 L-9,4 L-9,3 L-6,3 L-6,2 L-3,2 L-3,1 L0,1 Z M271,74 L271,75 L270,75 L270,78 L271,78 L271,79 L273,79 L273,78 L274,78 L274,75 L273,75 L273,74 Z M384,74 L384,76 L383,76 L383,77 L384,77 L384,79 L385,79 L385,80 L386,80 L386,79 L387,79 L387,75 L386,75 L386,74 Z M215,99 L215,100 L214,100 L214,102 L213,102 L213,105 L212,105 L212,107 L211,107 L211,109 L210,109 L210,111 L209,111 L209,112 L208,112 L208,113 L207,113 L207,114 L206,114 L206,115 L205,115 L205,116 L185,116 L185,115 L180,115 L180,116 L169,116 L169,115 L167,115 L167,116 L168,116 L168,117 L169,117 L169,118 L170,118 L170,119 L171,119 L171,120 L210,120 L210,121 L213,121 L213,120 L226,120 L226,121 L228,121 L228,122 L229,122 L229,123 L230,123 L230,124 L231,124 L231,125 L232,125 L232,124 L233,124 L233,123 L234,123 L234,122 L235,122 L235,121 L236,121 L236,120 L266,120 L266,121 L269,121 L269,120 L280,120 L280,115 L281,115 L281,114 L261,114 L261,113 L258,113 L258,112 L256,112 L256,111 L255,111 L255,110 L253,110 L253,111 L252,111 L252,112 L251,112 L251,113 L250,113 L250,114 L249,114 L249,115 L248,115 L248,116 L227,116 L227,115 L226,115 L226,114 L225,114 L225,113 L224,113 L224,112 L223,112 L223,111 L222,111 L222,109 L221,109 L221,107 L220,107 L220,105 L219,105 L219,102 L218,102 L218,100 L217,100 L217,99 Z " fill="#FBFBFC" transform="translate(81,17)"/>
<path d="M0,0 L5,0 L5,1 L6,1 L6,3 L7,3 L7,4 L8,4 L8,6 L9,6 L9,8 L10,8 L10,10 L11,10 L11,12 L12,12 L12,14 L13,14 L13,15 L31,15 L31,13 L32,13 L32,11 L33,11 L33,9 L34,9 L34,7 L35,7 L35,5 L36,5 L36,3 L37,3 L37,1 L38,1 L38,0 L44,0 L44,1 L46,1 L46,2 L50,2 L50,3 L52,3 L52,4 L55,4 L55,5 L58,5 L58,6 L60,6 L60,7 L61,7 L61,16 L60,16 L60,24 L61,24 L61,23 L62,23 L62,22 L63,22 L63,21 L64,21 L64,20 L65,20 L65,19 L66,19 L66,18 L68,18 L68,17 L69,17 L69,16 L70,16 L70,15 L71,15 L71,14 L72,14 L72,13 L73,13 L73,12 L74,12 L74,11 L75,11 L75,10 L76,10 L76,9 L77,9 L77,8 L78,8 L78,7 L79,7 L79,6 L80,6 L80,5 L81,5 L81,4 L82,4 L82,3 L83,3 L83,2 L85,2 L85,1 L91,1 L91,2 L92,2 L92,3 L94,3 L94,5 L95,5 L95,91 L97,91 L97,90 L99,90 L99,89 L101,89 L101,88 L107,88 L107,89 L108,89 L108,93 L106,93 L106,94 L105,94 L105,95 L103,95 L103,96 L101,96 L101,97 L99,97 L99,98 L97,98 L97,99 L95,99 L95,107 L89,107 L89,108 L79,108 L79,109 L67,109 L67,110 L66,110 L66,111 L65,111 L65,124 L64,124 L64,125 L45,125 L45,126 L40,126 L40,117 L39,117 L39,114 L38,114 L38,113 L37,113 L37,112 L6,112 L6,113 L5,113 L5,114 L4,114 L4,123 L3,123 L3,126 L-6,126 L-6,125 L-16,125 L-16,124 L-21,124 L-21,120 L-22,120 L-22,111 L-23,111 L-23,110 L-24,110 L-24,109 L-39,109 L-39,108 L-47,108 L-47,107 L-52,107 L-52,99 L-53,99 L-53,98 L-55,98 L-55,97 L-57,97 L-57,96 L-59,96 L-59,95 L-61,95 L-61,94 L-63,94 L-63,93 L-64,93 L-64,89 L-63,89 L-63,88 L-58,88 L-58,89 L-56,89 L-56,90 L-54,90 L-54,91 L-52,91 L-52,6 L-51,6 L-51,4 L-50,4 L-50,3 L-49,3 L-49,2 L-47,2 L-47,1 L-41,1 L-41,2 L-39,2 L-39,3 L-38,3 L-38,4 L-37,4 L-37,5 L-36,5 L-36,6 L-35,6 L-35,7 L-34,7 L-34,8 L-33,8 L-33,9 L-32,9 L-32,10 L-31,10 L-31,11 L-30,11 L-30,12 L-29,12 L-29,13 L-28,13 L-28,14 L-27,14 L-27,15 L-26,15 L-26,16 L-25,16 L-25,17 L-24,17 L-24,18 L-23,18 L-23,19 L-22,19 L-22,20 L-21,20 L-21,21 L-20,21 L-20,22 L-19,22 L-19,23 L-18,23 L-18,24 L-16,24 L-16,23 L-17,23 L-17,6 L-14,6 L-14,5 L-12,5 L-12,4 L-10,4 L-10,3 L-7,3 L-7,2 L-4,2 L-4,1 L0,1 Z " fill="#478CBF" transform="translate(85,25)"/>
<path d="M0,0 L9,0 L9,1 L19,1 L19,2 L25,2 L25,15 L26,15 L26,16 L27,16 L27,17 L41,17 L41,18 L50,18 L50,19 L59,19 L59,18 L60,18 L60,13 L61,13 L61,5 L86,5 L86,13 L87,13 L87,18 L88,18 L88,19 L94,19 L94,18 L110,18 L110,17 L120,17 L120,16 L121,16 L121,15 L122,15 L122,2 L127,2 L127,1 L138,1 L138,0 L147,0 L147,11 L148,11 L148,12 L150,12 L150,13 L152,13 L152,14 L154,14 L154,15 L156,15 L156,16 L158,16 L158,17 L159,17 L159,18 L160,18 L160,21 L159,21 L159,22 L158,22 L158,23 L155,23 L155,22 L153,22 L153,21 L151,21 L151,20 L149,20 L149,19 L147,19 L147,18 L144,18 L144,19 L143,19 L143,21 L142,21 L142,22 L141,22 L141,23 L140,23 L140,24 L139,24 L139,25 L138,25 L138,26 L137,26 L137,27 L136,27 L136,28 L135,28 L135,29 L133,29 L133,30 L132,30 L132,31 L130,31 L130,32 L129,32 L129,33 L127,33 L127,34 L125,34 L125,35 L122,35 L122,36 L120,36 L120,37 L117,37 L117,38 L114,38 L114,39 L110,39 L110,40 L106,40 L106,41 L103,41 L103,42 L95,42 L95,43 L88,43 L88,44 L60,44 L60,43 L50,43 L50,42 L44,42 L44,41 L41,41 L41,40 L36,40 L36,39 L32,39 L32,38 L30,38 L30,37 L27,37 L27,36 L25,36 L25,35 L22,35 L22,34 L20,34 L20,33 L18,33 L18,32 L17,32 L17,31 L15,31 L15,30 L14,30 L14,29 L12,29 L12,28 L11,28 L11,27 L10,27 L10,26 L9,26 L9,25 L8,25 L8,24 L7,24 L7,23 L6,23 L6,22 L5,22 L5,20 L4,20 L4,19 L3,19 L3,18 L1,18 L1,19 L-1,19 L-1,20 L-3,20 L-3,21 L-5,21 L-5,22 L-7,22 L-7,23 L-10,23 L-10,22 L-11,22 L-11,21 L-12,21 L-12,18 L-11,18 L-11,17 L-10,17 L-10,16 L-9,16 L-9,15 L-6,15 L-6,14 L-4,14 L-4,13 L-2,13 L-2,12 L0,12 Z " fill="#488DBF" transform="translate(33,138)"/>
<path d="M0,0 L11,0 L11,1 L12,1 L12,2 L13,2 L13,3 L14,3 L14,6 L15,6 L15,8 L16,8 L16,11 L17,11 L17,13 L18,13 L18,15 L19,15 L19,18 L20,18 L20,20 L21,20 L21,23 L22,23 L22,25 L23,25 L23,27 L24,27 L24,29 L26,29 L26,28 L27,28 L27,24 L28,24 L28,22 L29,22 L29,20 L30,20 L30,17 L31,17 L31,15 L32,15 L32,12 L33,12 L33,10 L34,10 L34,8 L35,8 L35,5 L36,5 L36,3 L37,3 L37,1 L51,1 L51,2 L52,2 L52,60 L38,60 L38,59 L37,59 L37,51 L36,51 L36,49 L35,49 L35,50 L34,50 L34,51 L33,51 L33,54 L32,54 L32,57 L31,57 L31,59 L30,59 L30,60 L19,60 L19,57 L18,57 L18,55 L17,55 L17,53 L16,53 L16,50 L15,50 L15,49 L13,49 L13,58 L12,58 L12,59 L-2,59 L-2,2 L-1,2 L-1,1 L0,1 Z " fill="#424143" transform="translate(209,64)"/>
<path d="M0,0 L26,0 L26,1 L30,1 L30,2 L33,2 L33,3 L35,3 L35,4 L37,4 L37,5 L38,5 L38,6 L40,6 L40,7 L41,7 L41,8 L42,8 L42,9 L43,9 L43,11 L44,11 L44,12 L45,12 L45,14 L46,14 L46,16 L47,16 L47,19 L48,19 L48,24 L49,24 L49,33 L48,33 L48,38 L47,38 L47,41 L46,41 L46,44 L45,44 L45,46 L44,46 L44,47 L43,47 L43,49 L42,49 L42,50 L41,50 L41,51 L40,51 L40,52 L39,52 L39,53 L37,53 L37,54 L36,54 L36,55 L34,55 L34,56 L32,56 L32,57 L28,57 L28,58 L0,58 Z " fill="#424143" transform="translate(387,65)"/>
<path d="M0,0 L12,0 L12,1 L16,1 L16,2 L18,2 L18,3 L20,3 L20,4 L21,4 L21,5 L22,5 L22,6 L24,6 L24,7 L25,7 L25,8 L26,8 L26,10 L27,10 L27,11 L28,11 L28,13 L29,13 L29,14 L30,14 L30,16 L31,16 L31,19 L32,19 L32,23 L33,23 L33,37 L32,37 L32,40 L31,40 L31,43 L30,43 L30,45 L29,45 L29,47 L28,47 L28,48 L27,48 L27,50 L26,50 L26,51 L25,51 L25,52 L24,52 L24,53 L23,53 L23,54 L22,54 L22,55 L20,55 L20,56 L19,56 L19,57 L17,57 L17,58 L14,58 L14,59 L11,59 L11,60 L1,60 L1,59 L-2,59 L-2,58 L-4,58 L-4,57 L-6,57 L-6,56 L-8,56 L-8,55 L-9,55 L-9,54 L-10,54 L-10,53 L-11,53 L-11,52 L-12,52 L-12,51 L-13,51 L-13,50 L-14,50 L-14,49 L-15,49 L-15,47 L-16,47 L-16,45 L-17,45 L-17,43 L-18,43 L-18,41 L-19,41 L-19,38 L-20,38 L-20,22 L-19,22 L-19,19 L-18,19 L-18,16 L-17,16 L-17,14 L-16,14 L-16,12 L-15,12 L-15,11 L-14,11 L-14,10 L-13,10 L-13,8 L-12,8 L-12,7 L-11,7 L-11,6 L-10,6 L-10,5 L-8,5 L-8,4 L-7,4 L-7,3 L-5,3 L-5,2 L-3,2 L-3,1 L0,1 Z M5,27 L5,29 L4,29 L4,30 L5,30 L5,32 L6,32 L6,33 L7,33 L7,32 L8,32 L8,28 L7,28 L7,27 Z " fill="#434244" transform="translate(460,64)"/>
<path d="M0,0 L13,0 L13,1 L17,1 L17,2 L19,2 L19,3 L20,3 L20,4 L22,4 L22,5 L23,5 L23,6 L24,6 L24,7 L25,7 L25,8 L26,8 L26,9 L27,9 L27,10 L28,10 L28,12 L29,12 L29,13 L30,13 L30,15 L31,15 L31,17 L32,17 L32,20 L33,20 L33,25 L34,25 L34,36 L33,36 L33,39 L32,39 L32,42 L31,42 L31,44 L30,44 L30,46 L29,46 L29,48 L28,48 L28,49 L27,49 L27,51 L26,51 L26,52 L25,52 L25,53 L24,53 L24,54 L22,54 L22,55 L21,55 L21,56 L19,56 L19,57 L18,57 L18,58 L15,58 L15,59 L11,59 L11,60 L3,60 L3,59 L-1,59 L-1,58 L-4,58 L-4,57 L-5,57 L-5,56 L-7,56 L-7,55 L-8,55 L-8,54 L-10,54 L-10,53 L-11,53 L-11,52 L-12,52 L-12,50 L-13,50 L-13,49 L-14,49 L-14,48 L-15,48 L-15,46 L-16,46 L-16,44 L-17,44 L-17,42 L-18,42 L-18,38 L-19,38 L-19,21 L-18,21 L-18,18 L-17,18 L-17,15 L-16,15 L-16,14 L-15,14 L-15,12 L-14,12 L-14,10 L-13,10 L-13,9 L-12,9 L-12,8 L-11,8 L-11,7 L-10,7 L-10,6 L-9,6 L-9,5 L-8,5 L-8,4 L-6,4 L-6,3 L-4,3 L-4,2 L-2,2 L-2,1 L0,1 Z M6,27 L6,28 L5,28 L5,31 L6,31 L6,32 L8,32 L8,31 L9,31 L9,28 L8,28 L8,27 Z " fill="#434244" transform="translate(346,64)"/>
<path d="M0,0 L12,0 L12,1 L13,1 L13,3 L14,3 L14,5 L15,5 L15,8 L16,8 L16,10 L17,10 L17,13 L18,13 L18,15 L19,15 L19,17 L20,17 L20,20 L21,20 L21,22 L22,22 L22,25 L23,25 L23,27 L24,27 L24,30 L25,30 L25,32 L26,32 L26,34 L27,34 L27,37 L28,37 L28,39 L29,39 L29,41 L30,41 L30,44 L31,44 L31,46 L32,46 L32,49 L33,49 L33,51 L34,51 L34,59 L33,59 L33,60 L22,60 L22,59 L21,59 L21,58 L20,58 L20,56 L19,56 L19,54 L18,54 L18,51 L17,51 L17,49 L16,49 L16,47 L15,47 L15,44 L14,44 L14,43 L-2,43 L-2,44 L-3,44 L-3,47 L-4,47 L-4,49 L-5,49 L-5,51 L-6,51 L-6,54 L-7,54 L-7,56 L-8,56 L-8,58 L-9,58 L-9,59 L-22,59 L-22,51 L-21,51 L-21,49 L-20,49 L-20,46 L-19,46 L-19,44 L-18,44 L-18,41 L-17,41 L-17,39 L-16,39 L-16,37 L-15,37 L-15,34 L-14,34 L-14,32 L-13,32 L-13,30 L-12,30 L-12,27 L-11,27 L-11,25 L-10,25 L-10,22 L-9,22 L-9,20 L-8,20 L-8,17 L-7,17 L-7,15 L-6,15 L-6,13 L-5,13 L-5,10 L-4,10 L-4,8 L-3,8 L-3,5 L-2,5 L-2,3 L-1,3 L-1,1 L0,1 Z " fill="#444345" transform="translate(291,65)"/>
<path d="M0,0 L38,0 L38,18 L28,18 L28,19 L27,19 L27,58 L11,58 L11,18 L0,18 Z " fill="#414042" transform="translate(496,65)"/>
<path d="M0,0 L10,0 L10,1 L12,1 L12,2 L14,2 L14,3 L15,3 L15,4 L16,4 L16,5 L17,5 L17,6 L18,6 L18,7 L19,7 L19,8 L20,8 L20,10 L21,10 L21,22 L20,22 L20,24 L19,24 L19,26 L18,26 L18,27 L17,27 L17,28 L16,28 L16,29 L15,29 L15,30 L13,30 L13,31 L11,31 L11,32 L8,32 L8,33 L1,33 L1,32 L-1,32 L-1,31 L-3,31 L-3,30 L-5,30 L-5,29 L-6,29 L-6,28 L-7,28 L-7,27 L-8,27 L-8,25 L-9,25 L-9,24 L-10,24 L-10,22 L-11,22 L-11,11 L-10,11 L-10,9 L-9,9 L-9,7 L-8,7 L-8,6 L-7,6 L-7,5 L-6,5 L-6,4 L-5,4 L-5,3 L-4,3 L-4,2 L-2,2 L-2,1 L0,1 Z " fill="#F3F6F8" transform="translate(140,89)"/>
<path d="M0,0 L10,0 L10,1 L12,1 L12,2 L14,2 L14,3 L15,3 L15,4 L16,4 L16,5 L17,5 L17,6 L18,6 L18,7 L19,7 L19,8 L20,8 L20,10 L21,10 L21,21 L20,21 L20,24 L19,24 L19,26 L18,26 L18,27 L17,27 L17,28 L16,28 L16,29 L15,29 L15,30 L13,30 L13,31 L11,31 L11,32 L8,32 L8,33 L1,33 L1,32 L-1,32 L-1,31 L-3,31 L-3,30 L-5,30 L-5,29 L-6,29 L-6,28 L-7,28 L-7,27 L-8,27 L-8,25 L-9,25 L-9,24 L-10,24 L-10,22 L-11,22 L-11,11 L-10,11 L-10,9 L-9,9 L-9,7 L-8,7 L-8,6 L-7,6 L-7,5 L-6,5 L-6,4 L-5,4 L-5,3 L-4,3 L-4,2 L-2,2 L-2,1 L0,1 Z " fill="#F2F5F7" transform="translate(63,89)"/>
<path d="M0,0 L5,0 L5,1 L6,1 L6,2 L7,2 L7,3 L8,3 L8,4 L9,4 L9,5 L10,5 L10,6 L11,6 L11,7 L12,7 L12,8 L13,8 L13,9 L14,9 L14,10 L15,10 L15,11 L16,11 L16,12 L17,12 L17,13 L18,13 L18,14 L19,14 L19,15 L20,15 L20,16 L21,16 L21,17 L22,17 L22,22 L21,22 L21,23 L20,23 L20,24 L19,24 L19,25 L18,25 L18,26 L16,26 L16,27 L15,27 L15,28 L14,28 L14,29 L13,29 L13,30 L12,30 L12,31 L11,31 L11,32 L10,32 L10,33 L8,33 L8,34 L7,34 L7,35 L6,35 L6,36 L5,36 L5,37 L4,37 L4,38 L0,38 L0,37 L-1,37 L-1,36 L-2,36 L-2,2 L-1,2 L-1,1 L0,1 Z " fill="#77A0BE" transform="translate(39,37)"/>
<path d="M0,0 L5,0 L5,1 L6,1 L6,37 L5,37 L5,38 L1,38 L1,37 L0,37 L0,36 L-1,36 L-1,35 L-2,35 L-2,34 L-4,34 L-4,33 L-5,33 L-5,32 L-6,32 L-6,31 L-7,31 L-7,30 L-8,30 L-8,29 L-9,29 L-9,28 L-10,28 L-10,27 L-12,27 L-12,26 L-13,26 L-13,25 L-14,25 L-14,24 L-15,24 L-15,23 L-16,23 L-16,22 L-17,22 L-17,21 L-18,21 L-18,18 L-17,18 L-17,17 L-16,17 L-16,16 L-15,16 L-15,15 L-14,15 L-14,14 L-13,14 L-13,13 L-12,13 L-12,12 L-11,12 L-11,11 L-10,11 L-10,10 L-9,10 L-9,9 L-8,9 L-8,8 L-7,8 L-7,7 L-6,7 L-6,6 L-5,6 L-5,5 L-4,5 L-4,4 L-3,4 L-3,3 L-2,3 L-2,2 L-1,2 L-1,1 L0,1 Z " fill="#78A1BE" transform="translate(169,37)"/>
<path d="M0,0 L9,0 L9,1 L11,1 L11,2 L12,2 L12,3 L13,3 L13,4 L14,4 L14,5 L15,5 L15,8 L16,8 L16,13 L15,13 L15,15 L14,15 L14,17 L13,17 L13,18 L12,18 L12,19 L11,19 L11,20 L9,20 L9,21 L0,21 L0,20 L-1,20 L-1,19 L-3,19 L-3,18 L-4,18 L-4,16 L-5,16 L-5,14 L-6,14 L-6,6 L-5,6 L-5,5 L-4,5 L-4,3 L-3,3 L-3,2 L-2,2 L-2,1 L0,1 Z " fill="#424143" transform="translate(139,96)"/>
<path d="M0,0 L9,0 L9,1 L11,1 L11,2 L12,2 L12,3 L13,3 L13,4 L14,4 L14,6 L15,6 L15,15 L14,15 L14,17 L13,17 L13,18 L12,18 L12,19 L11,19 L11,20 L9,20 L9,21 L0,21 L0,20 L-2,20 L-2,19 L-3,19 L-3,18 L-4,18 L-4,16 L-5,16 L-5,14 L-6,14 L-6,6 L-5,6 L-5,4 L-4,4 L-4,3 L-3,3 L-3,2 L-2,2 L-2,1 L0,1 Z " fill="#414042" transform="translate(65,96)"/>
<path d="M0,0 L6,0 L6,1 L8,1 L8,2 L9,2 L9,3 L10,3 L10,4 L11,4 L11,5 L12,5 L12,7 L13,7 L13,9 L14,9 L14,15 L13,15 L13,17 L12,17 L12,19 L11,19 L11,20 L10,20 L10,21 L9,21 L9,22 L7,22 L7,23 L-1,23 L-1,22 L-2,22 L-2,21 L-3,21 L-3,20 L-4,20 L-4,19 L-5,19 L-5,18 L-6,18 L-6,15 L-7,15 L-7,8 L-6,8 L-6,6 L-5,6 L-5,4 L-4,4 L-4,3 L-3,3 L-3,2 L-1,2 L-1,1 L0,1 Z M2,9 L2,11 L1,11 L1,12 L2,12 L2,14 L3,14 L3,15 L4,15 L4,14 L5,14 L5,10 L4,10 L4,9 Z " fill="#FBFBFB" transform="translate(463,82)"/>
<path d="M0,0 L6,0 L6,1 L8,1 L8,2 L9,2 L9,3 L10,3 L10,4 L11,4 L11,5 L12,5 L12,7 L13,7 L13,16 L12,16 L12,18 L11,18 L11,20 L10,20 L10,21 L8,21 L8,22 L7,22 L7,23 L-1,23 L-1,22 L-2,22 L-2,21 L-4,21 L-4,20 L-5,20 L-5,18 L-6,18 L-6,16 L-7,16 L-7,7 L-6,7 L-6,5 L-5,5 L-5,4 L-4,4 L-4,3 L-3,3 L-3,2 L-2,2 L-2,1 L0,1 Z M2,9 L2,10 L1,10 L1,13 L2,13 L2,14 L4,14 L4,13 L5,13 L5,10 L4,10 L4,9 Z " fill="#FBFBFB" transform="translate(350,82)"/>
<path d="M0,0 L8,0 L8,1 L11,1 L11,2 L12,2 L12,3 L13,3 L13,4 L14,4 L14,5 L15,5 L15,7 L16,7 L16,14 L15,14 L15,16 L14,16 L14,18 L13,18 L13,19 L12,19 L12,20 L10,20 L10,21 L9,21 L9,22 L7,22 L7,23 L0,23 Z " fill="#F7F7F7" transform="translate(403,83)"/>
<path d="M0,0 L5,0 L5,1 L6,1 L6,2 L7,2 L7,0 L9,0 L9,22 L8,22 L8,24 L7,24 L7,25 L6,25 L6,26 L4,26 L4,27 L1,27 L1,26 L-2,26 L-2,24 L0,24 L0,25 L5,25 L5,24 L6,24 L6,22 L7,22 L7,17 L6,17 L6,18 L5,18 L5,19 L-1,19 L-1,18 L-2,18 L-2,16 L-3,16 L-3,14 L-4,14 L-4,5 L-3,5 L-3,3 L-2,3 L-2,1 L0,1 Z " fill="#F9F9F9" transform="translate(354,145)"/>
<path d="M0,0 L6,0 L6,1 L7,1 L7,5 L5,5 L5,6 L4,6 L4,7 L2,7 L2,8 L0,8 L0,9 L-2,9 L-2,10 L-4,10 L-4,11 L-6,11 L-6,12 L-8,12 L-8,13 L-10,13 L-10,14 L-12,14 L-12,15 L-14,15 L-14,16 L-16,16 L-16,17 L-18,17 L-18,18 L-20,18 L-20,19 L-23,19 L-23,18 L-24,18 L-24,17 L-25,17 L-25,14 L-24,14 L-24,13 L-23,13 L-23,12 L-22,12 L-22,11 L-20,11 L-20,10 L-18,10 L-18,9 L-16,9 L-16,8 L-14,8 L-14,7 L-12,7 L-12,6 L-10,6 L-10,5 L-8,5 L-8,4 L-5,4 L-5,3 L-4,3 L-4,2 L-2,2 L-2,1 L0,1 Z " fill="#252A36" transform="translate(186,113)"/>
<path d="M0,0 L5,0 L5,1 L7,1 L7,2 L9,2 L9,3 L11,3 L11,4 L14,4 L14,5 L16,5 L16,6 L17,6 L17,7 L19,7 L19,8 L21,8 L21,9 L23,9 L23,10 L25,10 L25,11 L27,11 L27,12 L29,12 L29,13 L30,13 L30,14 L31,14 L31,17 L30,17 L30,18 L29,18 L29,19 L25,19 L25,18 L23,18 L23,17 L21,17 L21,16 L19,16 L19,15 L17,15 L17,14 L16,14 L16,13 L13,13 L13,12 L12,12 L12,11 L10,11 L10,10 L8,10 L8,9 L6,9 L6,8 L4,8 L4,7 L2,7 L2,6 L0,6 L0,5 L-1,5 L-1,1 L0,1 Z " fill="#232835" transform="translate(22,113)"/>
<path d="M0,0 L4,0 L4,1 L7,1 L7,2 L9,2 L9,3 L11,3 L11,4 L13,4 L13,5 L15,5 L15,6 L17,6 L17,7 L19,7 L19,8 L21,8 L21,9 L23,9 L23,10 L25,10 L25,11 L27,11 L27,12 L29,12 L29,13 L30,13 L30,14 L31,14 L31,17 L30,17 L30,18 L29,18 L29,19 L26,19 L26,18 L24,18 L24,17 L22,17 L22,16 L20,16 L20,15 L18,15 L18,14 L16,14 L16,13 L13,13 L13,12 L11,12 L11,11 L9,11 L9,10 L7,10 L7,9 L5,9 L5,8 L3,8 L3,7 L1,7 L1,6 L0,6 L0,5 L-1,5 L-1,1 L0,1 Z " fill="#252A37" transform="translate(162,142)"/>
<path d="M0,0 L4,0 L4,1 L5,1 L5,2 L6,2 L6,5 L5,5 L5,6 L4,6 L4,7 L1,7 L1,8 L-1,8 L-1,9 L-3,9 L-3,10 L-5,10 L-5,11 L-7,11 L-7,12 L-9,12 L-9,13 L-10,13 L-10,14 L-13,14 L-13,15 L-15,15 L-15,16 L-17,16 L-17,17 L-19,17 L-19,18 L-21,18 L-21,19 L-24,19 L-24,18 L-25,18 L-25,17 L-26,17 L-26,14 L-25,14 L-25,13 L-24,13 L-24,12 L-23,12 L-23,11 L-20,11 L-20,10 L-18,10 L-18,9 L-16,9 L-16,8 L-14,8 L-14,7 L-12,7 L-12,6 L-10,6 L-10,5 L-8,5 L-8,4 L-6,4 L-6,3 L-4,3 L-4,2 L-2,2 L-2,1 L0,1 Z " fill="#242936" transform="translate(47,142)"/>
<path d="M0,0 L17,0 L17,1 L18,1 L18,5 L17,5 L17,6 L16,6 L16,7 L15,7 L15,8 L14,8 L14,9 L13,9 L13,10 L12,10 L12,11 L11,11 L11,12 L10,12 L10,13 L7,13 L7,12 L6,12 L6,11 L5,11 L5,10 L4,10 L4,9 L3,9 L3,8 L2,8 L2,7 L1,7 L1,6 L0,6 L0,5 L-1,5 L-1,2 L0,2 Z " fill="#F7F9FB" transform="translate(98,118)"/>
<path d="M0,0 L6,0 L6,1 L7,1 L7,2 L8,2 L8,3 L9,3 L9,19 L7,19 L7,17 L6,17 L6,18 L4,18 L4,19 L-1,19 L-1,18 L-2,18 L-2,17 L-3,17 L-3,11 L-2,11 L-2,10 L-1,10 L-1,9 L1,9 L1,8 L7,8 L7,3 L6,3 L6,2 L5,2 L5,1 L1,1 L1,2 L0,2 L0,3 L-1,3 L-1,5 L-3,5 L-3,3 L-2,3 L-2,2 L-1,2 L-1,1 L0,1 Z " fill="#7A7A7D" transform="translate(254,145)"/>
<path d="M0,0 L6,0 L6,1 L8,1 L8,3 L9,3 L9,9 L-1,9 L-1,15 L0,15 L0,16 L1,16 L1,17 L7,17 L7,16 L9,16 L9,17 L8,17 L8,18 L7,18 L7,19 L1,19 L1,18 L-1,18 L-1,17 L-2,17 L-2,15 L-3,15 L-3,4 L-2,4 L-2,2 L-1,2 L-1,1 L0,1 Z " fill="#717274" transform="translate(297,145)"/>
<path d="M0,0 L6,0 L6,1 L7,1 L7,2 L8,2 L8,4 L9,4 L9,9 L-2,9 L-2,14 L-1,14 L-1,16 L0,16 L0,17 L2,17 L2,18 L5,18 L5,17 L7,17 L7,16 L8,16 L8,18 L7,18 L7,19 L0,19 L0,18 L-1,18 L-1,17 L-2,17 L-2,16 L-3,16 L-3,14 L-4,14 L-4,5 L-3,5 L-3,3 L-2,3 L-2,2 L-1,2 L-1,1 L0,1 Z " fill="#76777A" transform="translate(321,145)"/>
<path d="M0,0 L6,0 L6,1 L8,1 L8,3 L9,3 L9,9 L-1,9 L-1,15 L0,15 L0,16 L1,16 L1,17 L2,17 L2,18 L5,18 L5,17 L7,17 L7,16 L9,16 L9,17 L8,17 L8,18 L7,18 L7,19 L0,19 L0,18 L-1,18 L-1,17 L-2,17 L-2,15 L-3,15 L-3,4 L-2,4 L-2,2 L-1,2 L-1,1 L0,1 Z " fill="#797A7D" transform="translate(395,145)"/>
<path d="M0,0 L5,0 L5,1 L6,1 L6,2 L7,2 L7,0 L9,0 L9,22 L8,22 L8,24 L7,24 L7,25 L6,25 L6,26 L4,26 L4,27 L1,27 L1,26 L-2,26 L-2,24 L0,24 L0,25 L5,25 L5,24 L6,24 L6,22 L7,22 L7,17 L6,17 L6,18 L5,18 L5,19 L-1,19 L-1,18 L-2,18 L-2,16 L-3,16 L-3,14 L-4,14 L-4,5 L-3,5 L-3,3 L-2,3 L-2,1 L0,1 Z M1,1 L1,2 L0,2 L0,3 L-1,3 L-1,5 L-2,5 L-2,14 L-1,14 L-1,16 L0,16 L0,17 L5,17 L5,16 L6,16 L6,15 L7,15 L7,4 L6,4 L6,2 L4,2 L4,1 Z " fill="#76777A" transform="translate(354,145)"/>
<path d="M0,0 L6,0 L6,1 L8,1 L8,2 L9,2 L9,3 L10,3 L10,5 L11,5 L11,7 L9,7 L9,5 L8,5 L8,3 L6,3 L6,2 L0,2 L0,3 L-1,3 L-1,4 L-2,4 L-2,6 L-3,6 L-3,20 L-2,20 L-2,22 L-1,22 L-1,23 L0,23 L0,24 L2,24 L2,25 L6,25 L6,24 L8,24 L8,23 L9,23 L9,15 L4,15 L4,13 L11,13 L11,23 L10,23 L10,24 L9,24 L9,25 L7,25 L7,26 L0,26 L0,25 L-2,25 L-2,24 L-3,24 L-3,23 L-4,23 L-4,20 L-5,20 L-5,6 L-4,6 L-4,3 L-3,3 L-3,2 L-2,2 L-2,1 L0,1 Z " fill="#76777A" transform="translate(235,138)"/>
<path d="M0,0 L9,0 L9,11 L8,11 L8,10 L6,10 L6,9 L4,9 L4,8 L2,8 L2,7 L0,7 L0,6 L-2,6 L-2,5 L-5,5 L-5,3 L-3,3 L-3,2 L-11,2 L-11,1 L0,1 Z " fill="#5292C2" transform="translate(171,138)"/>
<path d="M0,0 L1,0 L1,1 L2,1 L2,2 L5,2 L5,3 L6,3 L6,4 L8,4 L8,5 L10,5 L10,6 L12,6 L12,7 L14,7 L14,8 L18,8 L18,7 L19,7 L19,8 L25,8 L25,9 L29,9 L29,10 L13,10 L13,9 L5,9 L5,8 L0,8 Z " fill="#5091C2" transform="translate(33,124)"/>
<path d="M0,0 L2,0 L2,2 L3,2 L3,1 L4,1 L4,0 L10,0 L10,1 L11,1 L11,3 L12,3 L12,19 L10,19 L10,3 L9,3 L9,2 L4,2 L4,3 L3,3 L3,4 L2,4 L2,19 L0,19 Z " fill="#77787B" transform="translate(334,145)"/>
<path d="M0,0 L2,0 L2,2 L3,2 L3,1 L5,1 L5,0 L10,0 L10,1 L11,1 L11,2 L12,2 L12,19 L11,19 L11,5 L10,5 L10,3 L9,3 L9,2 L4,2 L4,3 L3,3 L3,5 L2,5 L2,19 L0,19 Z " fill="#868789" transform="translate(375,145)"/>
<path d="M0,0 L5,0 L5,1 L6,1 L6,2 L4,2 L4,1 L1,1 L1,2 L0,2 L0,3 L-1,3 L-1,5 L-2,5 L-2,14 L-1,14 L-1,16 L0,16 L0,17 L5,17 L5,16 L6,16 L6,15 L7,15 L7,17 L6,17 L6,18 L5,18 L5,19 L-1,19 L-1,18 L-2,18 L-2,16 L-3,16 L-3,14 L-4,14 L-4,5 L-3,5 L-3,3 L-2,3 L-2,1 L0,1 Z " fill="#7C7D80" transform="translate(354,145)"/>
<path d="M0,0 L7,0 L7,5 L6,5 L6,6 L5,6 L5,7 L-1,7 L-1,1 L0,1 Z " fill="#F9F9F9" transform="translate(254,155)"/>
<path d="M0,0 L3,0 L3,1 L5,1 L5,3 L6,3 L6,7 L-3,7 L-3,4 L-2,4 L-2,2 L-1,2 L-1,1 L0,1 Z " fill="#F4F4F4" transform="translate(322,146)"/>
<path d="M0,0 L3,0 L3,1 L4,1 L4,2 L5,2 L5,4 L6,4 L6,7 L-3,7 L-3,3 L-2,3 L-2,2 L-1,2 L-1,1 L0,1 Z " fill="#F3F4F4" transform="translate(299,146)"/>
<path d="M0,0 L5,0 L5,1 L6,1 L6,2 L7,2 L7,3 L8,3 L8,2 L9,2 L9,4 L8,4 L8,19 L6,19 L6,4 L5,4 L5,3 L4,3 L4,2 L3,2 L3,1 L1,1 L1,2 L-1,2 L-1,1 L0,1 Z " fill="#7E7F82" transform="translate(272,145)"/>
<path d="M0,0 L3,0 L3,1 L4,1 L4,2 L5,2 L5,7 L-3,7 L-3,3 L-2,3 L-2,2 L-1,2 L-1,1 L0,1 Z " fill="#F7F7F7" transform="translate(397,146)"/>
<path d="M0,0 L5,0 L5,1 L6,1 L6,2 L7,2 L7,4 L8,4 L8,19 L6,19 L6,5 L5,5 L5,3 L4,3 L4,2 L3,2 L3,1 L1,1 L1,2 L-1,2 L-1,1 L0,1 Z " fill="#8A8B8E" transform="translate(282,145)"/>
<path d="M0,0 L9,0 L9,1 L10,1 L10,2 L2,2 L2,8 L4,8 L4,10 L2,10 L2,11 L0,11 Z " fill="#5B97C3" transform="translate(33,138)"/>
<path d="M0,0 L2,0 L2,2 L3,2 L3,3 L2,3 L2,19 L0,19 Z " fill="#7E7F82" transform="translate(268,145)"/>
<path d="M0,0 L5,0 L5,1 L6,1 L6,2 L7,2 L7,19 L6,19 L6,5 L5,5 L5,3 L4,3 L4,2 L-1,2 L-1,3 L-3,3 L-3,2 L-2,2 L-2,1 L0,1 Z " fill="#7B7C7F" transform="translate(380,145)"/>
<path d="M0,0 L6,0 L6,1 L8,1 L8,2 L9,2 L9,3 L10,3 L10,5 L11,5 L11,7 L9,7 L9,5 L8,5 L8,3 L6,3 L6,2 L0,2 L0,3 L-1,3 L-1,4 L-2,4 L-2,6 L-3,6 L-3,5 L-4,5 L-4,3 L-3,3 L-3,2 L-2,2 L-2,1 L0,1 Z " fill="#7F8082" transform="translate(235,138)"/>
<path d="M0,0 L2,0 L2,5 L3,5 L3,6 L4,6 L4,7 L10,7 L10,6 L12,6 L12,7 L11,7 L11,8 L10,8 L10,9 L4,9 L4,8 L2,8 L2,7 L1,7 L1,5 L0,5 Z " fill="#848587" transform="translate(294,155)"/>
<path d="M0,0 L6,0 L6,1 L8,1 L8,3 L9,3 L9,4 L8,4 L8,8 L7,8 L7,3 L6,3 L6,2 L5,2 L5,1 L2,1 L2,2 L1,2 L1,3 L0,3 L0,4 L-1,4 L-1,8 L-2,8 L-2,5 L-3,5 L-3,4 L-2,4 L-2,2 L-1,2 L-1,1 L0,1 Z " fill="#828385" transform="translate(395,145)"/>
<path d="M0,0 L1,0 L1,2 L2,2 L2,3 L3,3 L3,4 L2,4 L2,5 L0,5 L0,6 L-9,6 L-9,5 L-4,5 L-4,4 L0,4 Z " fill="#4087BC" transform="translate(160,128)"/>
<path d="M0,0 L1,0 L1,1 L2,1 L2,2 L7,2 L7,1 L8,1 L8,0 L9,0 L9,2 L8,2 L8,3 L7,3 L7,4 L1,4 L1,3 L0,3 Z " fill="#87888A" transform="translate(352,160)"/>
<path d="M0,0 L1,0 L1,1 L2,1 L2,3 L3,3 L3,4 L4,4 L4,5 L6,5 L6,6 L5,6 L5,7 L4,7 L4,6 L2,6 L2,5 L1,5 L1,4 L0,4 Z " fill="#818184" transform="translate(231,157)"/>
<path d="M0,0 L2,0 L2,2 L3,2 L3,5 L-1,5 L-1,2 L0,2 Z " fill="#ACACAD" transform="translate(296,90)"/>
<path d="M0,0 L2,0 L2,2 L1,2 L1,3 L0,3 L0,4 L-1,4 L-1,8 L-2,8 L-2,5 L-3,5 L-3,4 L-2,4 L-2,2 L-1,2 L-1,1 L0,1 Z " fill="#828386" transform="translate(297,145)"/>
<path d="M0,0 L5,0 L5,1 L6,1 L6,2 L7,2 L7,3 L6,3 L6,5 L5,5 L5,3 L4,3 L4,2 L3,2 L3,1 L1,1 L1,2 L-1,2 L-1,1 L0,1 Z " fill="#77787A" transform="translate(282,145)"/>
<path d="M0,0 L5,0 L5,1 L6,1 L6,2 L7,2 L7,3 L4,3 L4,2 L3,2 L3,1 L1,1 L1,2 L-1,2 L-1,1 L0,1 Z " fill="#7A7B7D" transform="translate(272,145)"/>
<path d="M0,0 L1,0 L1,2 L-1,2 L-1,3 L-2,3 L-2,4 L-3,4 L-3,3 L-4,3 L-4,2 L-6,2 L-6,1 L0,1 Z " fill="#4182B2" transform="translate(55,140)"/>
<path d="M0,0 L2,0 L2,1 L3,1 L3,2 L4,2 L4,3 L3,3 L3,4 L2,4 L2,3 L1,3 L1,2 L0,2 Z " fill="#5393C3" transform="translate(155,91)"/>
<path d="M0,0 L2,0 L2,1 L3,1 L3,2 L4,2 L4,3 L3,3 L3,4 L2,4 L2,3 L1,3 L1,2 L0,2 Z " fill="#5393C3" transform="translate(78,91)"/>
<path d="M0,0 L1,0 L1,2 L2,2 L2,3 L3,3 L3,4 L2,4 L2,5 L1,5 L1,4 L0,4 Z " fill="#4181B1" transform="translate(160,128)"/>
<path d="M0,0 L2,0 L2,1 L3,1 L3,2 L2,2 L2,4 L1,4 L1,2 L0,2 Z " fill="#818285" transform="translate(286,146)"/>
<path d="M0,0 L2,0 L2,1 L3,1 L3,2 L2,2 L2,3 L1,3 L1,2 L0,2 Z " fill="#4D4C4E" transform="translate(135,112)"/>
</svg>
