<?xml version="1.0" encoding="UTF-8" standalone="no"?>
<svg
   xmlns:dc="http://purl.org/dc/elements/1.1/"
   xmlns:cc="http://creativecommons.org/ns#"
   xmlns:rdf="http://www.w3.org/1999/02/22-rdf-syntax-ns#"
   xmlns:svg="http://www.w3.org/2000/svg"
   xmlns="http://www.w3.org/2000/svg"
   viewBox="0 0 236.27499 84.6875"
   height="84.6875"
   width="236.27499"
   xml:space="preserve"
   version="1.1"
   id="svg3336"><metadata
     id="metadata3342"><rdf:RDF><cc:Work
         rdf:about=""><dc:format>image/svg+xml</dc:format><dc:type
           rdf:resource="http://purl.org/dc/dcmitype/StillImage" /><dc:title></dc:title></cc:Work></rdf:RDF></metadata><defs
     id="defs3340"><clipPath
       id="clipPath3350"
       clipPathUnits="userSpaceOnUse"><path
         id="path3352"
         d="m 0,67.75 189.02,0 L 189.02,0 0,0 0,67.75 Z" /></clipPath></defs><g
     transform="matrix(1.25,0,0,-1.25,0,84.6875)"
     id="g3344"><g
       id="g3346"><g
         clip-path="url(#clipPath3350)"
         id="g3348"><g
           transform="translate(112.7847,43.5176)"
           id="g3354"><path
             id="path3356"
             style="fill:#414042;fill-opacity:1;fill-rule:nonzero;stroke:none"
             d="m 0,0 c -1.082,0 -1.989,-0.497 -2.724,-1.488 -0.732,-0.992 -1.099,-2.385 -1.099,-4.177 0,-1.796 0.349,-3.171 1.05,-4.129 0.699,-0.961 1.617,-1.439 2.756,-1.439 1.139,0 2.064,0.484 2.775,1.457 0.71,0.968 1.066,2.355 1.066,4.161 0,1.803 -0.367,3.192 -1.1,4.162 C 1.992,-0.484 1.083,0 0,0 m -0.017,-17.828 c -3.168,0 -5.752,1.037 -7.749,3.11 -1.994,2.075 -2.991,5.104 -2.991,9.084 0,3.984 1.008,6.999 3.027,9.053 2.018,2.051 4.624,3.077 7.815,3.077 3.191,0 5.769,-1.008 7.73,-3.029 1.964,-2.018 2.945,-5.076 2.945,-9.167 0,-4.094 -1.004,-7.139 -3.012,-9.137 -2.008,-1.994 -4.595,-2.991 -7.765,-2.991" /></g><g
           transform="translate(133.0269,43.2832)"
           id="g3358"><path
             id="path3360"
             style="fill:#414042;fill-opacity:1;fill-rule:nonzero;stroke:none"
             d="m 0,0 0,-10.119 c 0,-0.473 0.035,-0.771 0.103,-0.896 0.066,-0.124 0.27,-0.186 0.607,-0.186 1.242,0 2.183,0.464 2.826,1.388 0.645,0.924 0.964,2.462 0.964,4.617 0,2.155 -0.334,3.559 -0.997,4.212 C 2.837,-0.33 1.782,0 0.338,0 L 0,0 Z m -6.495,-15.7 0,20.298 c 0,0.564 0.14,1.009 0.423,1.34 0.281,0.325 0.648,0.49 1.1,0.49 l 5.65,0 c 3.586,0 6.309,-0.905 8.168,-2.709 1.862,-1.804 2.794,-4.645 2.794,-8.525 0,-8.3 -3.543,-12.45 -10.625,-12.45 l -5.785,0 c -1.149,0 -1.725,0.518 -1.725,1.556" /></g><g
           transform="translate(157.6558,43.5176)"
           id="g3362"><path
             id="path3364"
             style="fill:#414042;fill-opacity:1;fill-rule:nonzero;stroke:none"
             d="m 0,0 c -1.083,0 -1.991,-0.497 -2.726,-1.488 -0.731,-0.992 -1.097,-2.385 -1.097,-4.177 0,-1.796 0.35,-3.171 1.049,-4.129 0.698,-0.961 1.617,-1.439 2.756,-1.439 1.14,0 2.065,0.484 2.775,1.457 0.711,0.968 1.067,2.355 1.067,4.161 0,1.803 -0.367,3.192 -1.1,4.162 C 1.99,-0.484 1.083,0 0,0 m -0.018,-17.828 c -3.169,0 -5.751,1.037 -7.746,3.11 -1.997,2.075 -2.995,5.104 -2.995,9.084 0,3.984 1.009,6.999 3.027,9.053 2.02,2.051 4.624,3.077 7.817,3.077 3.192,0 5.768,-1.008 7.73,-3.029 1.963,-2.018 2.944,-5.076 2.944,-9.167 0,-4.094 -1.004,-7.139 -3.012,-9.137 -2.007,-1.994 -4.596,-2.991 -7.765,-2.991" /></g><g
           transform="translate(181.0239,26.5664)"
           id="g3366"><path
             id="path3368"
             style="fill:#414042;fill-opacity:1;fill-rule:nonzero;stroke:none"
             d="m 0,0 c 0,-0.448 -1.115,-0.676 -3.349,-0.676 -2.232,0 -3.35,0.228 -3.35,0.676 l 0,16.985 -4.059,0 c -0.384,0 -0.655,0.518 -0.812,1.558 -0.068,0.495 -0.1,1.002 -0.1,1.521 0,0.517 0.032,1.026 0.1,1.522 0.157,1.037 0.428,1.559 0.812,1.559 l 14.717,0 c 0.383,0 0.653,-0.522 0.812,-1.559 0.067,-0.496 0.101,-1.005 0.101,-1.522 0,-0.519 -0.034,-1.026 -0.101,-1.521 C 4.612,17.503 4.342,16.985 3.959,16.985 L 0,16.985 0,0 Z" /></g><g
           transform="translate(96.0444,38.5889)"
           id="g3370"><path
             id="path3372"
             style="fill:#414042;fill-opacity:1;fill-rule:nonzero;stroke:none"
             d="m 0,0 c -1.821,0.028 -3.906,-0.352 -3.906,-0.352 l 0,-3.554 2.096,0 -0.023,-1.585 c 0,-0.587 -0.582,-0.882 -1.743,-0.882 -1.162,0 -2.188,0.492 -3.078,1.474 -0.893,0.982 -1.337,2.419 -1.337,4.311 0,1.897 0.434,3.295 1.303,4.197 0.866,0.902 2.002,1.354 3.399,1.354 0.587,0 1.195,-0.095 1.827,-0.288 0.632,-0.192 1.055,-0.371 1.27,-0.539 0.214,-0.173 0.417,-0.255 0.609,-0.255 0.191,0 0.501,0.223 0.929,0.676 0.429,0.451 0.813,1.134 1.152,2.046 0.337,0.916 0.506,1.618 0.506,2.116 0,0.494 -0.01,0.835 -0.032,1.014 -0.474,0.519 -1.348,0.93 -2.624,1.236 -1.273,0.304 -2.7,0.456 -4.279,0.456 -3.474,0 -6.191,-1.094 -8.153,-3.281 -1.963,-2.189 -2.943,-5.03 -2.943,-8.527 0,-4.105 1.003,-7.218 3.008,-9.338 2.01,-2.12 4.648,-3.178 7.919,-3.178 1.759,0 3.321,0.151 4.684,0.456 1.366,0.303 2.274,0.615 2.726,0.93 L 3.445,-0.926 C 3.445,-0.311 1.821,-0.031 0,0" /></g><g
           transform="translate(88.9126,11.8398)"
           id="g3374"><path
             id="path3376"
             style="fill:#6d6e71;fill-opacity:1;fill-rule:nonzero;stroke:none"
             d="m 0,0 c -0.187,-0.384 -0.531,-0.735 -1.034,-1.054 -0.502,-0.32 -1.14,-0.479 -1.915,-0.479 -1.022,0 -1.844,0.322 -2.469,0.973 -0.622,0.647 -0.934,1.579 -0.934,2.794 l 0,3.032 c 0,1.189 0.294,2.101 0.883,2.738 0.588,0.632 1.376,0.952 2.359,0.952 0.962,0 1.707,-0.253 2.234,-0.753 C -0.35,7.701 -0.074,7 -0.05,6.104 l -0.013,-0.04 -0.785,0 C -0.876,6.751 -1.075,7.28 -1.45,7.654 -1.823,8.025 -2.377,8.213 -3.11,8.213 -3.851,8.213 -4.438,7.962 -4.868,7.459 -5.296,6.957 -5.51,6.229 -5.51,5.273 l 0,-3.048 c 0,-0.992 0.231,-1.747 0.693,-2.268 0.461,-0.517 1.083,-0.775 1.868,-0.775 0.574,0 1.034,0.101 1.379,0.309 0.346,0.205 0.587,0.455 0.722,0.752 l 0,2.655 -2.115,0 0,0.739 L 0,3.637 0,0 Z" /></g><g
           transform="translate(92.7988,11.0645)"
           id="g3378"><path
             id="path3380"
             style="fill:#6d6e71;fill-opacity:1;fill-rule:nonzero;stroke:none"
             d="m 0,0 c 0.465,0 0.88,0.132 1.242,0.4 0.362,0.27 0.616,0.611 0.767,1.026 l 0,1.638 -1.346,0 C 0.091,3.064 -0.368,2.902 -0.711,2.578 -1.055,2.256 -1.225,1.854 -1.225,1.375 -1.225,0.971 -1.119,0.639 -0.903,0.383 -0.688,0.126 -0.387,0 0,0 M 2.135,-0.611 C 2.093,-0.349 2.06,-0.136 2.04,0.031 2.02,0.201 2.009,0.37 2.009,0.542 1.779,0.166 1.483,-0.146 1.116,-0.39 0.75,-0.636 0.343,-0.758 -0.105,-0.758 c -0.627,0 -1.109,0.195 -1.45,0.583 -0.34,0.391 -0.511,0.917 -0.511,1.581 0,0.702 0.247,1.266 0.741,1.684 0.494,0.418 1.166,0.627 2.011,0.627 l 1.323,0 0,0.93 C 2.009,5.183 1.873,5.604 1.604,5.909 1.331,6.21 0.954,6.362 0.468,6.362 0.017,6.362 -0.356,6.219 -0.649,5.928 -0.94,5.639 -1.085,5.285 -1.085,4.864 l -0.786,0.007 -0.014,0.041 c -0.022,0.571 0.194,1.076 0.65,1.524 0.454,0.446 1.036,0.668 1.745,0.668 0.701,0 1.265,-0.213 1.696,-0.638 0.428,-0.429 0.643,-1.04 0.643,-1.835 l 0,-3.715 c 0,-0.27 0.012,-0.533 0.036,-0.784 0.024,-0.254 0.063,-0.499 0.125,-0.743 l -0.875,0 z" /></g><g
           transform="translate(98.2871,18.0273)"
           id="g3382"><path
             id="path3384"
             style="fill:#6d6e71;fill-opacity:1;fill-rule:nonzero;stroke:none"
             d="m 0,0 0.072,-1.176 c 0.199,0.421 0.466,0.745 0.796,0.976 0.332,0.227 0.722,0.341 1.171,0.341 0.457,0 0.843,-0.133 1.154,-0.403 0.311,-0.268 0.541,-0.675 0.687,-1.22 0.186,0.503 0.451,0.902 0.794,1.19 0.343,0.289 0.759,0.433 1.242,0.433 0.664,0 1.179,-0.269 1.544,-0.807 0.367,-0.539 0.55,-1.366 0.55,-2.483 l 0,-4.425 -0.846,0 0,4.439 c 0,0.929 -0.128,1.583 -0.378,1.959 -0.252,0.377 -0.612,0.567 -1.078,0.567 -0.491,0 -0.874,-0.207 -1.149,-0.628 C 4.285,-1.658 4.116,-2.185 4.054,-2.82 l 0,-0.197 0,-4.557 -0.842,0 0,4.434 c 0,0.908 -0.127,1.557 -0.387,1.945 -0.259,0.387 -0.619,0.58 -1.081,0.58 -0.442,0 -0.8,-0.135 -1.068,-0.403 C 0.407,-1.286 0.215,-1.654 0.099,-2.121 l 0,-5.453 -0.841,0 0,7.574 L 0,0 Z" /></g><g
           transform="translate(110.499,17.4268)"
           id="g3386"><path
             id="path3388"
             style="fill:#6d6e71;fill-opacity:1;fill-rule:nonzero;stroke:none"
             d="m 0,0 c -0.527,0 -0.959,-0.24 -1.299,-0.72 -0.339,-0.481 -0.514,-1.074 -0.529,-1.781 l 3.495,0 0,0.324 c 0,0.625 -0.147,1.146 -0.441,1.559 C 0.931,-0.205 0.523,0 0,0 m 0.119,-7.12 c -0.817,0 -1.485,0.307 -2.003,0.921 -0.517,0.612 -0.777,1.395 -0.777,2.349 l 0,1.258 c 0,0.956 0.26,1.753 0.78,2.387 0.521,0.631 1.147,0.946 1.881,0.946 0.793,0 1.408,-0.281 1.847,-0.845 0.44,-0.566 0.66,-1.326 0.66,-2.279 l 0,-0.831 -4.335,0 0,-0.63 c 0,-0.733 0.176,-1.344 0.525,-1.831 0.35,-0.488 0.826,-0.73 1.422,-0.73 0.414,0 0.775,0.073 1.075,0.217 0.301,0.147 0.558,0.353 0.773,0.624 L 2.311,-6.16 C 2.083,-6.45 1.786,-6.685 1.424,-6.858 1.063,-7.031 0.627,-7.12 0.119,-7.12" /></g><g
           transform="translate(119.8403,17.4268)"
           id="g3390"><path
             id="path3392"
             style="fill:#6d6e71;fill-opacity:1;fill-rule:nonzero;stroke:none"
             d="m 0,0 c -0.528,0 -0.962,-0.24 -1.301,-0.72 -0.337,-0.481 -0.513,-1.074 -0.528,-1.781 l 3.495,0 0,0.324 c 0,0.625 -0.146,1.146 -0.442,1.559 C 0.93,-0.205 0.522,0 0,0 m 0.118,-7.12 c -0.817,0 -1.484,0.307 -2.001,0.921 -0.52,0.612 -0.78,1.395 -0.78,2.349 l 0,1.258 c 0,0.956 0.262,1.753 0.78,2.387 C -1.36,0.426 -0.734,0.741 0,0.741 0.792,0.741 1.409,0.46 1.847,-0.104 2.286,-0.67 2.505,-1.43 2.505,-2.383 l 0,-0.831 -4.334,0 0,-0.63 c 0,-0.733 0.176,-1.344 0.527,-1.831 0.348,-0.488 0.822,-0.73 1.42,-0.73 0.416,0 0.775,0.073 1.074,0.217 0.302,0.147 0.559,0.353 0.776,0.624 L 2.31,-6.16 C 2.081,-6.45 1.786,-6.685 1.423,-6.858 1.063,-7.031 0.627,-7.12 0.118,-7.12" /></g><g
           transform="translate(124.5659,18.0273)"
           id="g3394"><path
             id="path3396"
             style="fill:#6d6e71;fill-opacity:1;fill-rule:nonzero;stroke:none"
             d="m 0,0 0.069,-1.252 c 0.202,0.444 0.469,0.789 0.804,1.029 0.332,0.242 0.723,0.364 1.172,0.364 0.677,0 1.196,-0.25 1.556,-0.753 0.363,-0.502 0.544,-1.283 0.544,-2.341 l 0,-4.621 -0.847,0 0,4.613 c 0,0.865 -0.127,1.47 -0.379,1.82 -0.251,0.351 -0.619,0.526 -1.098,0.526 -0.43,0 -0.791,-0.14 -1.08,-0.424 C 0.451,-1.32 0.234,-1.695 0.09,-2.168 l 0,-5.406 -0.84,0 L -0.75,0 0,0 Z" /></g><g
           transform="translate(131.1768,13.5771)"
           id="g3398"><path
             id="path3400"
             style="fill:#6d6e71;fill-opacity:1;fill-rule:nonzero;stroke:none"
             d="m 0,0 c 0,-0.769 0.146,-1.38 0.441,-1.835 0.292,-0.459 0.736,-0.686 1.33,-0.686 0.406,0 0.748,0.109 1.029,0.331 0.28,0.221 0.501,0.53 0.664,0.921 l 0,3.752 C 3.307,2.887 3.091,3.213 2.818,3.464 2.545,3.711 2.2,3.835 1.785,3.835 1.193,3.835 0.746,3.577 0.448,3.06 0.149,2.541 0,1.865 0,1.035 L 0,0 Z m -0.849,1.035 c 0,1.073 0.217,1.936 0.652,2.585 0.432,0.647 1.033,0.971 1.8,0.971 0.425,0 0.798,-0.104 1.117,-0.312 C 3.039,4.075 3.303,3.776 3.515,3.396 l 0.082,1.054 0.714,0 0,-7.581 c 0,-0.971 -0.226,-1.723 -0.678,-2.255 -0.452,-0.53 -1.095,-0.799 -1.926,-0.799 -0.298,0 -0.619,0.047 -0.962,0.138 -0.344,0.091 -0.648,0.21 -0.915,0.359 l 0.233,0.739 c 0.227,-0.148 0.481,-0.262 0.763,-0.342 0.279,-0.083 0.568,-0.123 0.867,-0.123 0.602,0 1.049,0.193 1.337,0.579 0.289,0.391 0.434,0.956 0.434,1.704 l 0,0.916 C 3.25,-2.556 2.986,-2.817 2.673,-2.998 2.362,-3.18 1.998,-3.271 1.588,-3.271 c -0.761,0 -1.358,0.298 -1.789,0.894 -0.431,0.595 -0.648,1.388 -0.648,2.377 l 0,1.035 z" /></g><path
           id="path3402"
           style="fill:#6d6e71;fill-opacity:1;fill-rule:nonzero;stroke:none"
           d="m 138.318,10.453 -0.848,0 0,7.574 0.848,0 0,-7.574 z m 0,9.731 -0.848,0 0,1.193 0.848,0 0,-1.193 z" /><g
           transform="translate(141.0552,18.0273)"
           id="g3404"><path
             id="path3406"
             style="fill:#6d6e71;fill-opacity:1;fill-rule:nonzero;stroke:none"
             d="m 0,0 0.069,-1.252 c 0.202,0.444 0.468,0.789 0.803,1.029 0.334,0.242 0.725,0.364 1.173,0.364 0.677,0 1.197,-0.25 1.558,-0.753 0.363,-0.502 0.542,-1.283 0.542,-2.341 l 0,-4.621 -0.847,0 0,4.613 c 0,0.865 -0.127,1.47 -0.378,1.82 -0.253,0.351 -0.618,0.526 -1.099,0.526 -0.43,0 -0.79,-0.14 -1.079,-0.424 C 0.453,-1.32 0.235,-1.695 0.092,-2.168 l 0,-5.406 -0.842,0 L -0.75,0 0,0 Z" /></g><g
           transform="translate(149.4155,17.4268)"
           id="g3408"><path
             id="path3410"
             style="fill:#6d6e71;fill-opacity:1;fill-rule:nonzero;stroke:none"
             d="m 0,0 c -0.528,0 -0.961,-0.24 -1.299,-0.72 -0.338,-0.481 -0.514,-1.074 -0.53,-1.781 l 3.495,0 0,0.324 c 0,0.625 -0.145,1.146 -0.44,1.559 C 0.932,-0.205 0.523,0 0,0 m 0.12,-7.12 c -0.819,0 -1.486,0.307 -2.002,0.921 -0.518,0.612 -0.778,1.395 -0.778,2.349 l 0,1.258 c 0,0.956 0.26,1.753 0.78,2.387 0.521,0.631 1.148,0.946 1.88,0.946 0.793,0 1.41,-0.281 1.85,-0.845 0.438,-0.566 0.657,-1.326 0.657,-2.279 l 0,-0.831 -4.336,0 0,-0.63 c 0,-0.733 0.177,-1.344 0.527,-1.831 0.349,-0.488 0.823,-0.73 1.422,-0.73 0.414,0 0.773,0.073 1.072,0.217 0.304,0.147 0.56,0.353 0.777,0.624 L 2.313,-6.16 C 2.082,-6.45 1.787,-6.685 1.425,-6.858 1.064,-7.031 0.628,-7.12 0.12,-7.12" /></g><g
           transform="translate(64.312,21.7949)"
           id="g3412"><path
             id="path3414"
             style="fill:#478cbf;fill-opacity:1;fill-rule:nonzero;stroke:none"
             d="m 0,0 0,-3.942 c 0,-0.39 -0.25,-0.734 -0.621,-0.852 L -6.835,-6.8 c -0.273,-0.091 -0.57,-0.042 -0.8,0.128 -0.232,0.168 -0.37,0.437 -0.37,0.721 l 0,4.305 -5.818,-1.108 0,-4.381 c 0,-0.447 -0.332,-0.824 -0.775,-0.885 l -8.41,-1.152 c -0.039,-0.003 -0.081,-0.008 -0.121,-0.008 -0.214,0 -0.424,0.078 -0.588,0.22 -0.195,0.172 -0.306,0.416 -0.306,0.676 l 0,4.638 -4.341,-0.018 0,-10e-4 -0.318,10e-4 -0.319,-10e-4 0,10e-4 -4.34,0.018 0,-4.638 c 0,-0.26 -0.112,-0.504 -0.307,-0.676 -0.164,-0.142 -0.374,-0.22 -0.587,-0.22 -0.041,0 -0.082,0.005 -0.123,0.008 l -8.41,1.152 c -0.442,0.061 -0.774,0.438 -0.774,0.885 l 0,4.381 -5.819,1.108 0,-4.305 c 0,-0.284 -0.137,-0.553 -0.368,-0.721 -0.232,-0.17 -0.529,-0.219 -0.802,-0.128 l -6.215,2.006 c -0.369,0.118 -0.619,0.462 -0.619,0.852 l 0,3.942 -3.837,1.29 c -0.19,-0.811 -0.295,-1.642 -0.295,-2.481 0,-10.301 14.512,-18.252 32.448,-18.309 l 0.022,0 0.023,0 c 17.936,0.057 32.448,8.008 32.448,18.309 0,0.766 -0.088,1.521 -0.247,2.266 L 0,0 Z" /></g><g
           transform="translate(5.9634,40.0615)"
           id="g3416"><path
             id="path3418"
             style="fill:#478cbf;fill-opacity:1;fill-rule:nonzero;stroke:none"
             d="m 0,0 0,-16.047 2.163,-0.729 c 0.364,-0.122 0.61,-0.462 0.61,-0.847 l 0,-3.936 4.426,-1.428 0,4.154 c 0,0.27 0.118,0.52 0.323,0.689 0.206,0.172 0.474,0.241 0.739,0.192 l 7.608,-1.452 c 0.422,-0.079 0.728,-0.448 0.728,-0.877 l 0,-4.338 6.62,-0.904 0,4.509 c 0,0.241 0.096,0.467 0.264,0.635 0.167,0.166 0.394,0.259 0.633,0.259 l 0.002,0 5.551,-0.022 5.549,0.022 c 0.245,-10e-4 0.468,-0.093 0.635,-0.259 0.169,-0.168 0.264,-0.394 0.264,-0.635 l 0,-4.509 6.621,0.904 0,4.338 c 0,0.429 0.304,0.798 0.726,0.877 l 7.609,1.452 c 0.262,0.049 0.533,-0.02 0.738,-0.192 0.205,-0.169 0.325,-0.419 0.325,-0.689 l 0,-4.154 4.425,1.428 0,3.936 c 0,0.385 0.245,0.725 0.609,0.847 l 1.475,0.497 0,16.279 0.04,0 c 1.437,1.834 2.767,3.767 4.042,5.828 -1.694,2.883 -3.768,5.459 -5.986,7.846 -2.057,-1.035 -4.055,-2.208 -5.942,-3.456 -0.944,0.938 -2.008,1.706 -3.052,2.509 -1.027,0.824 -2.183,1.428 -3.281,2.132 0.327,2.433 0.489,4.828 0.554,7.327 -2.831,1.424 -5.85,2.369 -8.903,3.047 -1.219,-2.048 -2.334,-4.267 -3.304,-6.436 -1.152,0.192 -2.309,0.264 -3.467,0.277 l 0,0.002 c -0.008,0 -0.015,-0.002 -0.022,-0.002 -0.008,0 -0.015,0.002 -0.022,0.002 l 0,-0.002 c -1.16,-0.013 -2.316,-0.085 -3.468,-0.277 -0.97,2.169 -2.084,4.388 -3.305,6.436 C 19.475,24.555 16.456,23.61 13.626,22.186 13.69,19.687 13.852,17.292 14.18,14.859 13.081,14.155 11.925,13.551 10.898,12.727 9.855,11.924 8.79,11.156 7.846,10.218 5.958,11.466 3.961,12.639 1.904,13.674 -0.314,11.287 -2.388,8.711 -4.082,5.828 -2.807,3.767 -1.477,1.834 -0.04,0 L 0,0 Z" /></g><g
           transform="translate(26.8428,32.3604)"
           id="g3420"><path
             id="path3422"
             style="fill:#ffffff;fill-opacity:1;fill-rule:nonzero;stroke:none"
             d="m 0,0 c 0,-3.611 -2.926,-6.537 -6.537,-6.537 -3.608,0 -6.535,2.926 -6.535,6.537 0,3.609 2.927,6.533 6.535,6.533 C -2.926,6.533 0,3.609 0,0" /></g><g
           transform="translate(25.27,31.9727)"
           id="g3424"><path
             id="path3426"
             style="fill:#414042;fill-opacity:1;fill-rule:nonzero;stroke:none"
             d="m 0,0 c 0,-2.396 -1.941,-4.337 -4.339,-4.337 -2.396,0 -4.339,1.941 -4.339,4.337 0,2.396 1.943,4.339 4.339,4.339 C -1.941,4.339 0,2.396 0,0" /></g><g
           transform="translate(35.6816,25.2285)"
           id="g3428"><path
             id="path3430"
             style="fill:#ffffff;fill-opacity:1;fill-rule:nonzero;stroke:none"
             d="m 0,0 c -1.162,0 -2.104,0.856 -2.104,1.912 l 0,6.018 c 0,1.054 0.942,1.912 2.104,1.912 1.162,0 2.106,-0.858 2.106,-1.912 l 0,-6.018 C 2.106,0.856 1.162,0 0,0" /></g><g
           transform="translate(44.5215,32.3604)"
           id="g3432"><path
             id="path3434"
             style="fill:#ffffff;fill-opacity:1;fill-rule:nonzero;stroke:none"
             d="m 0,0 c 0,-3.611 2.926,-6.537 6.537,-6.537 3.609,0 6.535,2.926 6.535,6.537 0,3.609 -2.926,6.533 -6.535,6.533 C 2.926,6.533 0,3.609 0,0" /></g><g
           transform="translate(46.0947,31.9727)"
           id="g3436"><path
             id="path3438"
             style="fill:#414042;fill-opacity:1;fill-rule:nonzero;stroke:none"
             d="m 0,0 c 0,-2.396 1.941,-4.337 4.336,-4.337 2.398,0 4.339,1.941 4.339,4.337 0,2.396 -1.941,4.339 -4.339,4.339 C 1.941,4.339 0,2.396 0,0" /></g></g></g></g></svg>