<svg xmlns="http://www.w3.org/2000/svg" width="16" height="16"><mask id="a"><path fill="#fefefe" d="M0 0h16v10a2 2 0 0 0-2-2h-2a2 2 0 0 0-2 2 2 2 0 0 0-2 2v2a2 2 0 0 0 2 2H0z"/></mask><path fill="#5fb2ff" d="M12 9a1 1 0 0 0-1 1v1h2v2h1a1 1 0 0 0 1-1v-2a1 1 0 0 0-1-1zm1 4h-2v-2h-1a1 1 0 0 0-1 1v2a1 1 0 0 0 1 1h2a1 1 0 0 0 1-1z"/><g fill="none" stroke="#fc7f7f" mask="url(#a)"><path stroke-width="2" d="M2.5 10a6 4 0 0 0 11 0 4 4 0 0 0 0-4 6 4 0 0 0-11 0 4 4 0 0 0 0 4z"/><path stroke-linecap="round" stroke-width="1.75" d="M6.2 7.2a2 1 0 1 0 3.6 0"/></g></svg>
