<?xml version="1.0" encoding="UTF-8" standalone="no"?>
<!-- Created with Inkscape (http://www.inkscape.org/) -->

<svg
   width="64"
   height="64"
   viewBox="0 0 16.933333 16.933333"
   version="1.1"
   id="svg1"
   inkscape:version="1.3.2 (091e20e, 2023-11-25, custom)"
   sodipodi:docname="brush_icon_hole.svg"
   xml:space="preserve"
   xmlns:inkscape="http://www.inkscape.org/namespaces/inkscape"
   xmlns:sodipodi="http://sodipodi.sourceforge.net/DTD/sodipodi-0.dtd"
   xmlns="http://www.w3.org/2000/svg"
   xmlns:svg="http://www.w3.org/2000/svg"><sodipodi:namedview
     id="namedview1"
     pagecolor="#505050"
     bordercolor="#eeeeee"
     borderopacity="1"
     inkscape:showpageshadow="0"
     inkscape:pageopacity="0"
     inkscape:pagecheckerboard="0"
     inkscape:deskcolor="#d1d1d1"
     inkscape:document-units="mm"
     inkscape:zoom="9.706734"
     inkscape:cx="28.845954"
     inkscape:cy="4.5329356"
     inkscape:current-layer="layer1" /><defs
     id="defs1" /><g
     inkscape:label="Layer 1"
     inkscape:groupmode="layer"
     id="layer1"><path
       style="fill:#e0e0e0;stroke-width:0.261443"
       d="M 6.8099484,12.438857 C 6.0139251,12.357957 4.5747121,12.065605 3.9212001,11.85206 3.1328181,11.594445 2.0581961,11.04548 1.6044851,10.668578 1.1137821,10.260949 0.64987014,9.6487784 0.48570914,9.1922631 0.11090714,8.1499751 0.66793314,6.8726431 1.8461921,6.0725028 4.4294301,4.3182589 9.4751542,3.9030137 13.149878,5.1422497 c 1.69821,0.5726913 2.68936,1.3212323 3.216057,2.4288458 0.159629,0.3356888 0.197373,0.5091467 0.197417,0.9072539 4.7e-5,0.4232987 -0.03349,0.5592578 -0.239502,0.97106 -0.782547,1.5642216 -2.892638,2.5885036 -6.107118,2.9645206 -0.9460538,0.110667 -2.4545723,0.121704 -3.4067836,0.02493 z m 3.7945996,-0.65306 c 1.778357,-0.263169 3.446975,-0.837214 4.194936,-1.443158 0.204221,-0.165445 0.20532,-0.169819 0.06918,-0.275123 C 14.569299,9.8359721 13.520911,9.3390203 12.897216,9.1330222 11.543745,8.6859886 10.184837,8.4889336 8.4701138,8.4910479 6.7354169,8.4931479 5.3491521,8.69442 4.0257851,9.1361913 3.3706191,9.354902 2.3976831,9.8068534 2.1021821,10.02975 c -0.161904,0.122125 -0.162684,0.127761 -0.03695,0.266706 0.172057,0.190121 1.348634,0.784118 1.908597,0.963559 1.012319,0.3244 2.354586,0.580743 3.4586742,0.660534 0.6891089,0.0498 2.4225454,-0.02384 3.1720387,-0.134752 z"
       id="path2" /></g></svg>
