<?xml version="1.0" encoding="UTF-8" standalone="no"?>
<!-- Created with Inkscape (http://www.inkscape.org/) -->

<svg
   width="64"
   height="64"
   viewBox="0 0 16.933333 16.933333"
   version="1.1"
   id="svg1"
   inkscape:version="1.3.2 (091e20e, 2023-11-25, custom)"
   sodipodi:docname="eraser_icon.svg"
   xml:space="preserve"
   xmlns:inkscape="http://www.inkscape.org/namespaces/inkscape"
   xmlns:sodipodi="http://sodipodi.sourceforge.net/DTD/sodipodi-0.dtd"
   xmlns="http://www.w3.org/2000/svg"
   xmlns:svg="http://www.w3.org/2000/svg"><sodipodi:namedview
     id="namedview1"
     pagecolor="#505050"
     bordercolor="#eeeeee"
     borderopacity="1"
     inkscape:showpageshadow="0"
     inkscape:pageopacity="0"
     inkscape:pagecheckerboard="0"
     inkscape:deskcolor="#d1d1d1"
     inkscape:document-units="mm"
     inkscape:zoom="13.969287"
     inkscape:cx="38.226718"
     inkscape:cy="40.374286"
     inkscape:current-layer="layer1" /><defs
     id="defs1" /><g
     inkscape:label="Layer 1"
     inkscape:groupmode="layer"
     id="layer1"><path
       style="fill:#e0e0e0;stroke-width:0.0599096"
       d="M 5.8471634,16.545933 C 5.5885388,16.499035 5.3299615,16.367919 5.1063785,16.17031 5.0322535,16.104813 4.0008968,15.078606 2.8144222,13.889842 0.53810386,11.609135 0.57830816,11.651857 0.45261926,11.379837 c -0.1015884,-0.219873 -0.1235023,-0.331266 -0.1232181,-0.626219 2.368e-4,-0.239111 0.00395,-0.273694 0.043417,-0.403228 0.052417,-0.171798 0.1568467,-0.3772178 0.26246901,-0.5161399 0.1245996,-0.16388 9.08863193,-9.11376655 9.20727193,-9.19274645 0.14023,-0.093355 0.3378889,-0.1847995 0.4867229,-0.2251776 0.191549,-0.051943 0.56519,-0.051469 0.752926,7.894e-4 0.168167,0.04697 0.328771,0.1217183 0.478639,0.2227068 0.08703,0.058653 0.679039,0.64200635 2.38442,2.34960625 2.063006,2.0656816 2.275948,2.2836361 2.349188,2.4044623 0.262722,0.4334303 0.294598,0.9707226 0.08422,1.4196489 -0.03387,0.072309 -0.09192,0.1769765 -0.128965,0.2326137 -0.04681,0.070257 -1.350852,1.3852624 -4.269517,4.3053356 l -4.2021647,4.204181 2.6467457,0.0043 2.646739,0.0043 0.09069,0.03664 c 0.324706,0.131165 0.415882,0.544347 0.178397,0.808481 -0.04184,0.04653 -0.103688,0.09309 -0.153697,0.115687 l -0.08368,0.03782 -3.5664897,0.0026 c -3.0066041,0.0022 -3.5858216,-8.68e-4 -3.6895967,-0.01971 z m 0.5035294,-1.03776 c 0.08303,-0.03978 0.2063661,-0.156905 0.9713462,-0.922463 L 8.1982777,13.7088 5.6898667,11.200452 3.1814557,8.6921008 2.3045775,9.5683081 C 1.3125173,10.559622 1.3285422,10.540076 1.3285422,10.759254 c 0,0.234438 -0.1762897,0.04144 2.2924301,2.50924 1.5842712,1.583656 2.2263963,2.215617 2.2767051,2.240665 0.1446504,0.07202 0.3013235,0.07168 0.4530154,-0.001 z"
       id="path3" /></g></svg>
