<?xml version="1.0" encoding="UTF-8" standalone="no"?>
<svg
   width="24"
   height="24"
   fill-rule="evenodd"
   clip-rule="evenodd"
   version="1.1"
   id="svg1"
   sodipodi:docname="humuan.svg"
   inkscape:version="1.3.2 (091e20e, 2023-11-25, custom)"
   xmlns:inkscape="http://www.inkscape.org/namespaces/inkscape"
   xmlns:sodipodi="http://sodipodi.sourceforge.net/DTD/sodipodi-0.dtd"
   xmlns="http://www.w3.org/2000/svg"
   xmlns:svg="http://www.w3.org/2000/svg">
  <defs
     id="defs1" />
  <sodipodi:namedview
     id="namedview1"
     pagecolor="#505050"
     bordercolor="#eeeeee"
     borderopacity="1"
     inkscape:showpageshadow="0"
     inkscape:pageopacity="0"
     inkscape:pagecheckerboard="0"
     inkscape:deskcolor="#d1d1d1"
     inkscape:zoom="56.75"
     inkscape:cx="12"
     inkscape:cy="12"
     inkscape:current-layer="svg1" />
  <path
     d="M11.978 17c-.948.011-1.529.896-1.978 1.608-.965 1.535-2.01 3.161-2.909 4.529-.312.475-.65.859-1.219.863-.57.004-1.052-.685-.777-1.265.731-1.539 3.905-7.077 3.905-11.735 0-1.613-.858-2-2-2h-4c-.552 0-1-.448-1-1s.448-1 1-1h18c.553 0 1 .449 1 1 0 .551-.447 1-1 1h-4c-1.141 0-2 .387-2 2 0 4.658 3.175 10.196 3.906 11.735.275.58-.207 1.269-.777 1.265-.569-.004-.908-.388-1.219-.863-.899-1.368-1.944-2.994-2.91-4.529-.451-.717-1.038-1.611-2-1.608h-.022zm.022-17c1.657 0 3 1.344 3 3s-1.343 3-3 3c-1.655 0-3-1.344-3-3s1.345-3 3-3"
     id="path1"
     style="fill:#009fea;fill-opacity:1" />
</svg>
