<?xml version="1.0" encoding="UTF-8" standalone="no"?>
<svg
   width="64"
   height="64"
   fill-rule="evenodd"
   clip-rule="evenodd"
   version="1.1"
   id="svg1"
   sodipodi:docname="human_disabled.svg"
   inkscape:version="1.3.2 (091e20e, 2023-11-25, custom)"
   xmlns:inkscape="http://www.inkscape.org/namespaces/inkscape"
   xmlns:sodipodi="http://sodipodi.sourceforge.net/DTD/sodipodi-0.dtd"
   xmlns="http://www.w3.org/2000/svg"
   xmlns:svg="http://www.w3.org/2000/svg">
  <defs
     id="defs1" />
  <sodipodi:namedview
     id="namedview1"
     pagecolor="#505050"
     bordercolor="#eeeeee"
     borderopacity="1"
     inkscape:showpageshadow="0"
     inkscape:pageopacity="0"
     inkscape:pagecheckerboard="0"
     inkscape:deskcolor="#d1d1d1"
     inkscape:zoom="10.465025"
     inkscape:cx="39.94257"
     inkscape:cy="32.680284"
     inkscape:current-layer="svg1"
     showgrid="false" />
  <path
     d="m 31.944189,44.684299 c -2.404947,0.0279 -3.878865,2.27303 -5.017917,4.079277 -2.448074,3.894087 -5.099097,8.019028 -7.379738,11.489458 -0.791501,1.20501 -1.648961,2.179166 -3.092437,2.189314 -1.446013,0.01015 -2.668781,-1.737752 -1.971144,-3.209133 1.854448,-3.904234 9.906455,-17.953388 9.906455,-29.770101 0,-4.091962 -2.17663,-5.073728 -5.073728,-5.073728 H 9.1682231 c -1.400349,0 -2.5368641,-1.136515 -2.5368641,-2.536864 0,-1.400349 1.1365151,-2.536864 2.5368641,-2.536864 H 54.831777 c 1.402886,0 2.536864,1.139052 2.536864,2.536864 0,1.397812 -1.133978,2.536864 -2.536864,2.536864 H 44.684321 c -2.894562,0 -5.073729,0.981766 -5.073729,5.073728 0,11.816713 8.054544,25.865867 9.908992,29.770101 0.697637,1.471381 -0.525131,3.21928 -1.971144,3.209133 -1.443475,-0.01015 -2.303472,-0.984304 -3.092437,-2.189314 C 42.175362,56.782604 39.524339,52.657663 37.073728,48.763576 35.929603,46.944645 34.440463,44.676688 32,44.684299 Z M 32,1.5576085 c 4.203584,0 7.610592,3.4095454 7.610592,7.6105923 0,4.2010472 -3.407008,7.6105932 -7.610592,7.6105932 -4.19851,0 -7.610592,-3.409546 -7.610592,-7.6105932 0,-4.2010469 3.412082,-7.6105923 7.610592,-7.6105923"
     id="path1"
     style="fill:#e0e0e0;stroke-width:2.53686" />
</svg>
