<?xml version="1.0" encoding="UTF-8" standalone="no"?>
<!-- Created with Inkscape (http://www.inkscape.org/) -->

<svg
   width="64"
   height="64"
   viewBox="0 0 16.933333 16.933333"
   version="1.1"
   id="svg1"
   inkscape:version="1.3.2 (091e20e, 2023-11-25, custom)"
   sodipodi:docname="invert_icon.svg"
   xml:space="preserve"
   xmlns:inkscape="http://www.inkscape.org/namespaces/inkscape"
   xmlns:sodipodi="http://sodipodi.sourceforge.net/DTD/sodipodi-0.dtd"
   xmlns="http://www.w3.org/2000/svg"
   xmlns:svg="http://www.w3.org/2000/svg"><sodipodi:namedview
     id="namedview1"
     pagecolor="#505050"
     bordercolor="#eeeeee"
     borderopacity="1"
     inkscape:showpageshadow="0"
     inkscape:pageopacity="0"
     inkscape:pagecheckerboard="0"
     inkscape:deskcolor="#d1d1d1"
     inkscape:document-units="mm"
     inkscape:zoom="3.4318488"
     inkscape:cx="-54.198193"
     inkscape:cy="17.1919"
     inkscape:current-layer="layer1"
     showgrid="false" /><defs
     id="defs1" /><g
     inkscape:label="Layer 1"
     inkscape:groupmode="layer"
     id="layer1"><rect
       style="fill:#000000;fill-opacity:1;stroke:none;stroke-width:0.537;stroke-dasharray:none"
       id="rect1"
       width="16.933332"
       height="16.933332"
       x="0"
       y="0" /><path
       style="fill:#e0e0e0;stroke-width:0.110822"
       d="M 2.4033044,15.913597 C 2.1355055,15.863269 1.7861921,15.669819 1.5666261,15.450253 1.3387342,15.222361 1.1531251,14.878291 1.1005099,14.586199 c -0.043905,-0.243728 -0.043905,-12.0459352 0,-12.2896628 0.1144334,-0.6352773 0.6948944,-1.2157382 1.3301716,-1.33017158 0.2437277,-0.0439046 12.0459345,-0.0439046 12.2896625,0 0.635276,0.11443338 1.215738,0.69489428 1.330171,1.33017158 0.0439,0.2437276 0.0439,12.0459348 0,12.2896628 -0.114433,0.635276 -0.694895,1.215738 -1.330171,1.330171 C 14.495895,15.9568 2.6189478,15.95413 2.4033044,15.91367 Z M 14.410521,8.4413673 V 2.6063583 H 11.493016 8.5755127 V 3.4420251 4.2776929 H 8.3878349 c -0.2310315,0 -0.7835442,0.092605 -1.0555042,0.1769113 -1.3141933,0.4073909 -2.3361902,1.4293878 -2.7435811,2.7435811 -0.2312872,0.7461042 -0.2312872,1.7402589 0,2.486363 0.4073909,1.3141947 1.4293878,2.3361917 2.7435811,2.7435827 0.27196,0.08431 0.8244727,0.176911 1.0555042,0.176911 h 0.1876778 v 0.835667 0.835667 h 2.9175033 2.917505 z m -5.8350083,0 V 4.2776929 l 0.1685991,5.208e-4 c 0.3348181,0.00101 0.9672464,0.1272896 1.3237742,0.2642518 0.559613,0.2149791 1.026119,0.5191288 1.456756,0.9497659 0.7943,0.7942996 1.213493,1.8130574 1.213493,2.9491304 0,1.136073 -0.419193,2.1548312 -1.213493,2.9491312 -0.430637,0.430638 -0.897143,0.734786 -1.456756,0.949765 -0.3565278,0.136963 -0.9889561,0.263209 -1.3237742,0.264253 l -0.1685991,5.21e-4 z"
       id="path1"
       sodipodi:nodetypes="csscccsssccccccccsssscscccccccccsssssccc" /><path
       d="M 14.410521,8.4413671 V 2.6063583 H 11.493016 8.5755125 V 3.4420251 4.2776928 H 8.3878347 c -0.2310315,0 -0.7835441,0.092605 -1.0555041,0.1769114 -1.3141933,0.4073908 -2.3361898,1.4293877 -2.7435807,2.743581 -0.2312873,0.7461041 -0.2312873,1.7402588 0,2.486363 0.4073909,1.3141948 1.4293874,2.3361918 2.7435807,2.7435828 0.27196,0.08431 0.8244726,0.176911 1.0555041,0.176911 h 0.1876778 v 0.835667 0.835667 h 2.9175035 2.917505 z m -5.8350085,0 V 4.2776928 l 0.1685991,5.208e-4 c 0.3348181,0.00101 0.9672464,0.1272896 1.3237744,0.2642519 0.559613,0.214979 1.026119,0.5191287 1.456756,0.9497658 0.7943,0.7942996 1.213493,1.8130574 1.213493,2.9491303 0,1.136073 -0.419193,2.1548314 -1.213493,2.9491314 -0.430637,0.430638 -0.897143,0.734786 -1.456756,0.949765 -0.356528,0.136963 -0.9889563,0.263209 -1.3237744,0.264253 l -0.1685991,5.21e-4 z"
       style="fill:#000000;fill-opacity:1;stroke-width:0.110822"
       id="path1-1" /></g></svg>
