<?xml version="1.0" encoding="UTF-8" standalone="no"?>
<!-- Uploaded to: SVG Repo, www.svgrepo.com, Generator: SVG Repo Mixer Tools -->

<svg
   version="1.1"
   id="Icons"
   viewBox="0 0 32 32"
   xml:space="preserve"
   sodipodi:docname="magnet_icon.svg"
   inkscape:version="1.3.2 (091e20e, 2023-11-25, custom)"
   xmlns:inkscape="http://www.inkscape.org/namespaces/inkscape"
   xmlns:sodipodi="http://sodipodi.sourceforge.net/DTD/sodipodi-0.dtd"
   xmlns="http://www.w3.org/2000/svg"
   xmlns:svg="http://www.w3.org/2000/svg"><defs
   id="defs6" /><sodipodi:namedview
   id="namedview6"
   pagecolor="#505050"
   bordercolor="#eeeeee"
   borderopacity="1"
   inkscape:showpageshadow="0"
   inkscape:pageopacity="0"
   inkscape:pagecheckerboard="0"
   inkscape:deskcolor="#d1d1d1"
   inkscape:zoom="30.096232"
   inkscape:cx="11.197415"
   inkscape:cy="10.898374"
   inkscape:current-layer="Icons" />
<style
   type="text/css"
   id="style1">
	.st0{fill:none;stroke:#000000;stroke-width:2;stroke-linecap:round;stroke-linejoin:round;stroke-miterlimit:10;}
	.st1{fill:none;stroke:#000000;stroke-width:2;stroke-linecap:round;stroke-linejoin:round;}
	.st2{fill:none;stroke:#000000;stroke-width:2;stroke-linecap:round;stroke-linejoin:round;stroke-dasharray:6,6;}
	.st3{fill:none;stroke:#000000;stroke-width:2;stroke-linecap:round;stroke-linejoin:round;stroke-dasharray:4,4;}
	.st4{fill:none;stroke:#000000;stroke-width:2;stroke-linecap:round;}
	.st5{fill:none;stroke:#000000;stroke-width:2;stroke-linecap:round;stroke-dasharray:3.1081,3.1081;}
	
		.st6{fill:none;stroke:#000000;stroke-width:2;stroke-linecap:round;stroke-linejoin:round;stroke-miterlimit:10;stroke-dasharray:4,3;}
</style>







<path
   style="fill:#e0e0e0;stroke-width:0.0674805"
   d="M 26.86301,23.456871 C 23.887212,26.432669 21.892061,28.390273 21.55235,28.66756 17.544136,31.939335 12.103396,32.5552 7.5139828,30.256628 3.1210611,28.056467 0.37045545,23.602887 0.37045515,18.69034 c -4e-7,-3.017632 1.02656125,-5.878318 2.95897665,-8.245698 0.277294,-0.339704 2.2348908,-2.3348622 5.2106891,-5.3106603 l 4.7665301,-4.76653049 3.053815,3.05381459 3.053817,3.0538175 -4.763952,4.7639527 c -4.585218,4.585218 -4.7742221,4.781293 -5.0377701,5.22596 -0.814131,1.373673 -0.814127,3.077022 0,4.450694 1.1986061,2.022404 3.8677881,2.684687 5.9194401,1.468746 0.44467,-0.263544 0.640741,-0.452552 5.225959,-5.037771 l 4.763952,-4.763952 3.053815,3.053815 3.053818,3.053817 z m -3.631462,-7.056893 -2.290363,2.290363 2.29036,2.29036 2.290363,2.290364 2.290364,-2.290364 2.29036,-2.29036 -2.290363,-2.290364 -2.29036,-2.29036 z M 11.016286,4.1847156 8.7259229,6.475079 11.016284,8.7654396 13.306647,11.055803 15.59701,8.7654396 17.887371,6.475079 15.597008,4.1847156 13.306647,1.894355 Z"
   id="path6" /></svg>
