<?xml version="1.0" encoding="UTF-8" standalone="no"?>
<!-- Created with Inkscape (http://www.inkscape.org/) -->

<svg
   width="64"
   height="64"
   viewBox="0 0 16.933334 16.933333"
   version="1.1"
   id="svg1"
   inkscape:version="1.3.2 (091e20e, 2023-11-25, custom)"
   xml:space="preserve"
   sodipodi:docname="merge_layers_icon.svg"
   xmlns:inkscape="http://www.inkscape.org/namespaces/inkscape"
   xmlns:sodipodi="http://sodipodi.sourceforge.net/DTD/sodipodi-0.dtd"
   xmlns="http://www.w3.org/2000/svg"
   xmlns:svg="http://www.w3.org/2000/svg"><sodipodi:namedview
     id="namedview1"
     pagecolor="#505050"
     bordercolor="#eeeeee"
     borderopacity="1"
     inkscape:showpageshadow="0"
     inkscape:pageopacity="0"
     inkscape:pagecheckerboard="0"
     inkscape:deskcolor="#d1d1d1"
     inkscape:document-units="mm"
     showgrid="false"
     inkscape:zoom="9.706734"
     inkscape:cx="14.938083"
     inkscape:cy="29.36106"
     inkscape:current-layer="layer1" /><defs
     id="defs1" /><g
     inkscape:label="Layer 1"
     inkscape:groupmode="layer"
     id="layer1"><path
       style="fill:#e0e0e0;stroke-width:0.118292"
       d="M 8.2348318,16.404477 C 8.0059229,16.265914 7.9999848,16.23599 7.9985021,15.213512 l -0.0013,-0.905377 -0.2595028,0.253294 C 7.4327809,14.859052 7.3294369,14.897638 7.0967621,14.80074 7.0188771,14.7683 6.9280222,14.70534 6.8948659,14.66081 6.8253569,14.56748 6.7902844,14.36282 6.8218969,14.235059 c 0.024028,-0.09712 1.2861678,-1.390534 1.4319652,-1.467447 0.108398,-0.05718 0.317223,-0.05718 0.4256345,-10e-6 0.046487,0.02452 0.3755276,0.337892 0.7312093,0.696387 0.535063,0.539297 0.6524941,0.67372 0.6803011,0.778729 0.07929,0.299419 -0.1371241,0.577293 -0.4496061,0.577293 -0.158055,0 -0.2175174,-0.03633 -0.4783355,-0.292223 L 8.936153,14.305156 v 0.902605 c 0,0.877109 -0.00199,0.906133 -0.070176,1.027466 -0.130596,0.232364 -0.4052058,0.306005 -0.6311318,0.16925 z M 5.5402744,11.053537 C 3.9737955,10.531385 2.6476006,10.081028 2.5931746,10.052747 2.3742792,9.9389996 2.2883281,9.704112 2.3809213,9.4726982 2.4097615,9.4006169 2.4678056,9.3145444 2.5099045,9.2814297 2.552003,9.248314 3.0855698,9.0550693 3.6956071,8.8519939 4.3056435,8.6489207 4.8047658,8.4754294 4.8047658,8.4664586 c 0,-0.00898 -0.4991223,-0.1824631 -1.1091587,-0.3855363 C 3.0855698,7.8778485 2.5520035,7.6846018 2.5099045,7.6514872 2.4678056,7.6183717 2.4097637,7.5323017 2.3809213,7.4602202 2.2855325,7.2218197 2.3752851,6.9910387 2.6090195,6.8736274 2.780673,6.7874092 8.3784988,4.9297523 8.4666646,4.9297523 c 0.088166,0 5.6859944,1.8576534 5.8576474,1.9438751 0.233747,0.1174113 0.323487,0.3481923 0.228098,0.5865928 -0.02884,0.072085 -0.08688,0.1581524 -0.128983,0.191267 -0.0421,0.033116 -0.575666,0.2263613 -1.185702,0.4294351 -0.610038,0.2030732 -1.109159,0.3765656 -1.109159,0.3855363 0,0.00898 0.499121,0.1824621 1.109159,0.3855353 0.610036,0.2030754 1.143603,0.3963211 1.185702,0.4294358 0.0421,0.033116 0.100136,0.119185 0.128983,0.1912685 0.09539,0.2383996 0.0056,0.4691791 -0.228098,0.5865908 -0.173378,0.08709 -5.7699984,1.943894 -5.8586619,1.943746 -0.042481,-7.2e-5 -1.3588952,-0.427347 -2.9253757,-0.949498 z M 10.516702,10.356093 C 11.635617,9.983839 12.562888,9.6685282 12.577306,9.6554013 12.591726,9.6422773 12.151592,9.4808933 11.599234,9.296776 L 10.594949,8.9620197 9.5884179,9.2975242 C 9.0348232,9.4820534 8.530035,9.6330298 8.4666646,9.6330298 c -0.063369,0 -0.5681577,-0.1509764 -1.1217512,-0.3355056 L 6.3383815,8.9620197 5.3348784,9.2965164 C 4.7829516,9.480488 4.3402765,9.6401098 4.3511554,9.6512276 c 0.02062,0.021077 4.0449651,1.3748854 4.0998593,1.3792194 0.017213,0.0014 0.9467714,-0.302101 2.0656873,-0.674354 z m 0.04187,-2.3736684 C 11.683291,7.60785 12.591724,7.2906409 12.577306,7.2775143 12.562886,7.264386 11.632098,6.9479044 10.50888,6.5742169 L 8.4666655,5.8947828 6.4244524,6.5742169 C 5.3012357,6.9479044 4.3704446,7.2643887 4.3560269,7.2775143 4.3288682,7.3022444 8.4268601,8.6871939 8.4823153,8.6720273 8.4995283,8.6673168 9.433842,8.356998 10.558567,7.9824246 Z M 8.2319287,4.1506812 C 8.0588409,4.0419619 6.8450349,2.7913195 6.8218974,2.6978582 6.7902733,2.5701133 6.8253659,2.3654527 6.8948573,2.2721067 6.9280161,2.2275798 7.0188666,2.1646127 7.0967535,2.132177 7.3294283,2.0352775 7.4327722,2.0738628 7.7376908,2.3714879 L 7.9971927,2.6247821 V 1.7259818 c 0,-1.02355356 0.00944,-1.0701069 0.2435937,-1.20170971 0.2313862,-0.13004616 0.4958541,-0.0566835 0.6251807,0.1734173 0.06819,0.12133331 0.070176,0.15035775 0.070176,1.02746611 V 2.6277607 L 9.1630563,2.4051289 C 9.4238736,2.1492324 9.4833359,2.112906 9.6413919,2.112906 c 0.312481,0 0.5288961,0.2778737 0.4496071,0.577292 C 10.063189,2.7952086 9.9457589,2.9296303 9.4106959,3.4689266 9.0550142,3.8274222 8.7259715,4.1407959 8.6794875,4.1653139 8.5603289,4.2281632 8.3440314,4.2210874 8.2319321,4.1506855 Z"
       id="path1" /></g></svg>
