<?xml version="1.0" encoding="UTF-8" standalone="no"?>
<!-- Created with Inkscape (http://www.inkscape.org/) -->

<svg
   width="32"
   height="64"
   viewBox="0 0 8.4666664 16.933333"
   version="1.1"
   id="svg1"
   inkscape:version="1.3.2 (091e20e, 2023-11-25, custom)"
   xml:space="preserve"
   sodipodi:docname="more_options_icon.svg"
   xmlns:inkscape="http://www.inkscape.org/namespaces/inkscape"
   xmlns:sodipodi="http://sodipodi.sourceforge.net/DTD/sodipodi-0.dtd"
   xmlns="http://www.w3.org/2000/svg"
   xmlns:svg="http://www.w3.org/2000/svg"><sodipodi:namedview
     id="namedview1"
     pagecolor="#505050"
     bordercolor="#eeeeee"
     borderopacity="1"
     inkscape:showpageshadow="0"
     inkscape:pageopacity="0"
     inkscape:pagecheckerboard="0"
     inkscape:deskcolor="#d1d1d1"
     inkscape:document-units="mm"
     inkscape:zoom="9.7067344"
     inkscape:cx="10.714211"
     inkscape:cy="42.135695"
     inkscape:current-layer="layer1" /><defs
     id="defs1" /><g
     inkscape:label="Layer 1"
     inkscape:groupmode="layer"
     id="layer1"
     transform="translate(-75.725842,-53.813063)"><path
       style="fill:#e0e0e0;stroke-width:0.276086"
       d="m 79.720118,68.429105 c -0.628858,-0.136308 -1.095602,-0.477568 -1.372232,-1.003308 -0.215658,-0.409859 -0.216181,-1.134222 -0.0011,-1.538985 0.339923,-0.639742 0.934254,-1.007216 1.62901,-1.007216 0.707074,0 1.28307,0.36604 1.580251,1.00423 0.42472,0.912081 0.006,2.053202 -0.886297,2.414987 -0.264638,0.107307 -0.749042,0.173769 -0.949621,0.130292 z m 0,-4.382863 c -0.630236,-0.136607 -1.099006,-0.480041 -1.369468,-1.003308 -0.214478,-0.414958 -0.216466,-1.140405 -0.0042,-1.538986 0.342005,-0.642246 0.936737,-1.00835 1.631277,-1.004181 0.71527,0.0043 1.281309,0.363356 1.578326,1.001196 0.42472,0.912081 0.006,2.053203 -0.886297,2.414987 -0.264639,0.107306 -0.749042,0.173769 -0.949621,0.130292 z m -0.08572,-4.412141 c -0.858781,-0.158853 -1.435303,-0.857562 -1.44068,-1.746015 -0.0061,-1.007042 0.769711,-1.777271 1.784,-1.771182 0.71527,0.0043 1.281309,0.363356 1.578326,1.001196 0.620783,1.333123 -0.485553,2.781642 -1.921646,2.516001 z"
       id="path1" /></g></svg>
