<?xml version="1.0" encoding="UTF-8" standalone="no"?>
<!-- Created with Inkscape (http://www.inkscape.org/) -->

<svg
   width="64"
   height="64"
   viewBox="0 0 16.933333 16.933333"
   version="1.1"
   id="svg1"
   inkscape:version="1.3.2 (091e20e, 2023-11-25, custom)"
   sodipodi:docname="no_mask_icon.svg"
   xmlns:inkscape="http://www.inkscape.org/namespaces/inkscape"
   xmlns:sodipodi="http://sodipodi.sourceforge.net/DTD/sodipodi-0.dtd"
   xmlns="http://www.w3.org/2000/svg"
   xmlns:svg="http://www.w3.org/2000/svg">
  <sodipodi:namedview
     id="namedview1"
     pagecolor="#505050"
     bordercolor="#eeeeee"
     borderopacity="1"
     inkscape:showpageshadow="0"
     inkscape:pageopacity="0"
     inkscape:pagecheckerboard="0"
     inkscape:deskcolor="#d1d1d1"
     inkscape:document-units="mm"
     inkscape:zoom="19.755556"
     inkscape:cx="11.591676"
     inkscape:cy="14.730034"
     inkscape:current-layer="layer1" />
  <defs
     id="defs1" />
  <g
     inkscape:label="Layer 1"
     inkscape:groupmode="layer"
     id="layer1">
    <g
       id="text1"
       style="font-size:5.29167px;line-height:1.25;fill:#e0e0e0;stroke-width:0.264583"
       aria-label="NO&#10;MASK">
      <path
         style="text-align:center;text-anchor:middle"
         d="M 7.6269245,7.0881972 H 6.9938878 L 5.1697086,3.6465448 V 7.0881972 H 4.6917013 V 3.2408845 h 0.7932338 l 1.6639821,3.141929 V 3.2408845 H 7.6269245 Z M 11.518162,3.6827183 q 0.235128,0.2583823 0.359152,0.6330367 0.126607,0.3746543 0.126607,0.8500778 0,0.4754235 -0.129191,0.8526616 -0.126607,0.3746544 -0.356568,0.6252852 -0.237711,0.2609662 -0.563273,0.3927412 -0.322978,0.1317749 -0.738974,0.1317749 -0.4056599,0 -0.7389731,-0.1343588 Q 9.1462126,6.8995781 8.9136685,6.6437796 8.6811244,6.3879812 8.5545171,6.0159106 8.4304936,5.6438401 8.4304936,5.1658328 q 0,-0.4702558 0.1240235,-0.8423264 Q 8.6785406,3.9488521 8.9162523,3.6827183 9.1436288,3.4295036 9.4795258,3.2951448 9.8180066,3.160786 10.215915,3.160786 q 0.413412,0 0.741558,0.1369426 0.330729,0.1343589 0.560689,0.3849897 z m -0.04651,1.4831145 q 0,-0.7493087 -0.335897,-1.154969 -0.335897,-0.408244 -0.917257,-0.408244 -0.5865277,0 -0.9224247,0.408244 -0.3333132,0.4056603 -0.3333132,1.154969 0,0.7570602 0.3410647,1.1601366 0.3410646,0.4004926 0.9146732,0.4004926 0.573609,0 0.91209,-0.4004926 0.341064,-0.4030764 0.341064,-1.1601366 z"
         id="path2" />
      <path
         style="text-align:center;text-anchor:middle"
         d="M 4.5121256,13.702785 H 4.0005287 V 10.387739 L 2.9308259,12.643417 H 2.6259347 L 1.5639834,10.387739 v 3.315046 H 1.0859761 V 9.8554718 H 1.7836084 L 2.8093862,11.997461 3.8015743,9.8554718 h 0.7105513 z m 4.0669376,0 H 8.0338765 L 7.6566383,12.630498 H 5.9926562 L 5.615418,13.702785 H 5.0960695 L 6.4965017,9.8554718 H 7.178631 Z M 7.4990251,12.191248 6.8246472,10.302473 6.1476856,12.191248 Z m 4.4338409,0.413412 q 0,0.224792 -0.105937,0.444417 -0.103353,0.219625 -0.291972,0.372071 -0.206706,0.165364 -0.483175,0.258382 -0.273885,0.09302 -0.661458,0.09302 -0.4159959,0 -0.7493091,-0.07752 -0.3307294,-0.07752 -0.6743779,-0.22996 v -0.640788 h 0.036174 q 0.291972,0.242879 0.6743778,0.374654 0.3824056,0.131775 0.7183026,0.131775 0.475424,0 0.738974,-0.178284 0.266133,-0.178284 0.266133,-0.475423 0,-0.255799 -0.126607,-0.377238 -0.124023,-0.12144 -0.379822,-0.18862 -0.193787,-0.05168 -0.421163,-0.08527 -0.224793,-0.03359 -0.4780074,-0.08527 -0.5115969,-0.10852 -0.759644,-0.369487 -0.2454632,-0.26355 -0.2454632,-0.684713 0,-0.483175 0.4082441,-0.79065 0.4082441,-0.3100584 1.0361135,-0.3100584 0.40566,0 0.744141,0.077515 0.33848,0.077515 0.599447,0.1912027 v 0.604615 h -0.03617 q -0.219625,-0.186035 -0.578776,-0.307475 -0.356568,-0.124024 -0.731222,-0.124024 -0.410828,0 -0.661459,0.170533 -0.248047,0.170532 -0.248047,0.43925 0,0.240295 0.1240235,0.377238 0.1240235,0.136942 0.4366665,0.20929 0.165364,0.03617 0.470255,0.08785 0.304892,0.05168 0.516765,0.105937 0.428915,0.113688 0.645956,0.343649 0.217041,0.22996 0.217041,0.643372 z m 3.914491,1.098125 h -0.664042 l -1.521872,-1.713075 -0.382406,0.408244 v 1.304831 H 12.76744 V 9.8554718 h 0.511597 v 2.0076302 l 1.868104,-2.0076302 h 0.620118 l -1.718243,1.8086762 z"
         id="path3" />
    </g>
  </g>
</svg>
