<?xml version="1.0" encoding="UTF-8" standalone="no"?>
<!-- Created with Inkscape (http://www.inkscape.org/) -->

<svg
   width="32"
   height="32"
   viewBox="0 0 8.4666665 8.4666666"
   version="1.1"
   id="svg1"
   inkscape:version="1.3.2 (091e20e, 2023-11-25, custom)"
   xml:space="preserve"
   sodipodi:docname="paint.svg"
   xmlns:inkscape="http://www.inkscape.org/namespaces/inkscape"
   xmlns:sodipodi="http://sodipodi.sourceforge.net/DTD/sodipodi-0.dtd"
   xmlns:xlink="http://www.w3.org/1999/xlink"
   xmlns="http://www.w3.org/2000/svg"
   xmlns:svg="http://www.w3.org/2000/svg"><sodipodi:namedview
     id="namedview1"
     pagecolor="#505050"
     bordercolor="#eeeeee"
     borderopacity="1"
     inkscape:showpageshadow="0"
     inkscape:pageopacity="0"
     inkscape:pagecheckerboard="0"
     inkscape:deskcolor="#d1d1d1"
     inkscape:document-units="mm"
     inkscape:zoom="4.4255494"
     inkscape:cx="-5.8749768"
     inkscape:cy="32.877274"
     inkscape:current-layer="svg1" /><defs
     id="defs1"><linearGradient
       id="linearGradient3"
       inkscape:collect="always"><stop
         style="stop-color:#00838a;stop-opacity:1;"
         offset="0.11666667"
         id="stop3" /><stop
         style="stop-color:#027e81;stop-opacity:1;"
         offset="0.19375001"
         id="stop5" /><stop
         style="stop-color:#035ef3;stop-opacity:1;"
         offset="0.22708334"
         id="stop6" /><stop
         style="stop-color:#1a4afa;stop-opacity:1;"
         offset="0.296875"
         id="stop18" /><stop
         style="stop-color:#8f07f0;stop-opacity:1;"
         offset="0.31666666"
         id="stop7" /><stop
         style="stop-color:#9407e1;stop-opacity:1;"
         offset="0.421875"
         id="stop22" /><stop
         style="stop-color:#c20866;stop-opacity:1;"
         offset="0.43645835"
         id="stop19" /><stop
         style="stop-color:#bc0b69;stop-opacity:1;"
         offset="0.53958333"
         id="stop20" /><stop
         style="stop-color:#cc7f13;stop-opacity:1;"
         offset="0.55520833"
         id="stop21" /><stop
         style="stop-color:#c57d1b;stop-opacity:1;"
         offset="0.640625"
         id="stop23" /><stop
         style="stop-color:#5f6817;stop-opacity:1;"
         offset="0.65520835"
         id="stop24" /><stop
         style="stop-color:#586824;stop-opacity:1;"
         offset="0.74270833"
         id="stop25" /><stop
         style="stop-color:#316c56;stop-opacity:1;"
         offset="0.75520831"
         id="stop26" /><stop
         style="stop-color:#2d6c60;stop-opacity:1;"
         offset="0.87916666"
         id="stop27" /><stop
         style="stop-color:#3545e7;stop-opacity:1;"
         offset="0.90312499"
         id="stop28" /><stop
         style="stop-color:#0071d5;stop-opacity:1;"
         offset="1"
         id="stop4" /></linearGradient><linearGradient
       inkscape:collect="always"
       xlink:href="#linearGradient3"
       id="linearGradient4"
       x1="79.447075"
       y1="126.46442"
       x2="82.460052"
       y2="129.30217"
       gradientUnits="userSpaceOnUse"
       gradientTransform="translate(0.52916667,-0.52916667)" /></defs><path
     style="fill:none;stroke:#ffffff;stroke-width:0.4;stroke-dasharray:none;stroke-opacity:1"
     d="m 77.784958,128.54653 1.463087,-1.37289 0.804615,-0.75501 c 0.890191,1.35486 1.618565,0.88762 2.684596,2.71208 0.02744,0.0388 -0.168665,0.26883 -0.467789,0.58484 -0.643622,0.67995 -1.764218,1.75812 -2.161251,2.18709 -0.113672,0.11515 -0.273606,0.2149 -0.441887,0.1764 -0.151597,-0.0372 -0.271082,-0.14501 -0.408737,-0.21315 -0.195293,-0.10458 -0.408033,-0.18693 -0.630218,-0.20544 -0.146308,-0.009 -0.291179,0.0512 -0.391572,0.1573 -0.176345,0.16804 -0.298255,0.38204 -0.455958,0.56617 -0.37582,0.48693 -0.706133,1.02073 -1.183193,1.4186 -0.191591,0.15764 -0.41939,0.30175 -0.676618,0.2975 -0.399716,0.009 -0.791439,-0.28412 -0.875875,-0.67855 -0.03664,-0.18698 -0.02363,-0.38773 0.0512,-0.56391 0.109202,-0.23258 0.320811,-0.39006 0.502451,-0.56298 0.444142,-0.39849 0.916837,-0.76336 1.382707,-1.13565 0.164101,-0.12078 0.354605,-0.23956 0.425681,-0.44163 0.07327,-0.2187 -0.0072,-0.44928 -0.09441,-0.65107 -0.09588,-0.22678 -0.236278,-0.43937 -0.27794,-0.6856 -0.0088,-0.19968 0.470092,-0.64236 0.89896,-0.97283 0.134878,0.1126 0.479376,0.42801 0.608549,0.54685 0.609336,0.6107 1.221522,1.2186 1.829481,1.83067 0.102958,0.10816 0.199241,0.22255 0.295441,0.33675"
     id="path1"
     sodipodi:nodetypes="ccccsccccccccccccccccccc"
     transform="translate(-74.702866,-125.95477)" /><path
     style="fill:url(#linearGradient4);fill-opacity:1;stroke:#000000;stroke-width:0;stroke-linecap:butt;stroke-linejoin:miter;stroke-dasharray:none;stroke-opacity:1"
     d="m 79.584136,126.584 c 0.230595,1.64171 1.469651,1.21491 1.932197,1.93531 0.526866,0.55198 1.424624,0.91127 1.406671,0.68004 0.03237,-0.084 0.03012,-0.10712 -0.01071,-0.24931 -0.365511,-0.75243 -0.914044,-1.16174 -1.346664,-1.44392 -0.674702,-0.37333 -1.059432,-0.69128 -1.503192,-1.39503 -0.297387,0.23175 -0.36414,0.23888 -0.478306,0.47291 z"
     id="path2"
     sodipodi:nodetypes="cccccccc"
     transform="translate(-74.702866,-125.95477)" /></svg>
