<?xml version="1.0" encoding="UTF-8" standalone="no"?>
<!-- Uploaded to: SVG Repo, www.svgrepo.com, Generator: SVG Repo Mixer Tools -->

<svg
   fill="#000000"
   height="32"
   width="32"
   version="1.1"
   id="Capa_1"
   viewBox="0 0 8.57468 8.57468"
   xml:space="preserve"
   sodipodi:docname="rotation.svg"
   inkscape:version="1.3.2 (091e20e, 2023-11-25, custom)"
   xmlns:inkscape="http://www.inkscape.org/namespaces/inkscape"
   xmlns:sodipodi="http://sodipodi.sourceforge.net/DTD/sodipodi-0.dtd"
   xmlns="http://www.w3.org/2000/svg"
   xmlns:svg="http://www.w3.org/2000/svg"><defs
   id="defs1" /><sodipodi:namedview
   id="namedview1"
   pagecolor="#ffffff"
   bordercolor="#000000"
   borderopacity="0.25"
   inkscape:showpageshadow="2"
   inkscape:pageopacity="0.0"
   inkscape:pagecheckerboard="0"
   inkscape:deskcolor="#d1d1d1"
   inkscape:zoom="11.426846"
   inkscape:cx="34.742745"
   inkscape:cy="11.551744"
   inkscape:window-width="1920"
   inkscape:window-height="1012"
   inkscape:window-x="0"
   inkscape:window-y="0"
   inkscape:window-maximized="1"
   inkscape:current-layer="Capa_1" />
<path
   d="m 7.7652311,3.8292583 c 0,1.7301286 -1.2416715,3.1755137 -2.8806459,3.4923851 V 8.2803645 L 2.2784836,6.7860402 4.8845852,5.291716 V 6.1694074 C 5.8998293,5.8753991 6.6444886,4.9379347 6.6444886,3.8292209 c 0,-1.3434722 -1.0930242,-2.4364957 -2.4364962,-2.4364957 -1.343472,0 -2.4364953,1.0930235 -2.4364953,2.4364957 0,0.3618506 0.077258,0.7098414 0.2296772,1.0343713 L 0.98675226,5.3400574 C 0.76379961,4.865348 0.65075372,4.3570536 0.65075372,3.8292583 0.65079121,1.8678082 2.2465801,0.27201935 4.2080299,0.27201935 c 1.9614498,0 3.5572012,1.59578885 3.5572012,3.55723895 z"
   id="path1"
   style="stroke-width:0.0373581;fill:#e0e0e0" />
</svg>
