<?xml version="1.0" encoding="UTF-8" standalone="no"?>
<!-- Uploaded to: SVG Repo, www.svgrepo.com, Generator: SVG Repo Mixer Tools -->

<svg
   fill="#000000"
   width="800px"
   height="800px"
   viewBox="0 0 1024 1024"
   class="icon"
   version="1.1"
   id="svg1"
   sodipodi:docname="toggle_connection.svg"
   inkscape:version="1.3.2 (091e20e, 2023-11-25, custom)"
   xml:space="preserve"
   xmlns:inkscape="http://www.inkscape.org/namespaces/inkscape"
   xmlns:sodipodi="http://sodipodi.sourceforge.net/DTD/sodipodi-0.dtd"
   xmlns="http://www.w3.org/2000/svg"
   xmlns:svg="http://www.w3.org/2000/svg"><defs
     id="defs1" /><sodipodi:namedview
     id="namedview1"
     pagecolor="#505050"
     bordercolor="#eeeeee"
     borderopacity="1"
     inkscape:showpageshadow="0"
     inkscape:pageopacity="0"
     inkscape:pagecheckerboard="0"
     inkscape:deskcolor="#d1d1d1"
     inkscape:zoom="1.2038493"
     inkscape:cx="202.68318"
     inkscape:cy="418.65705"
     inkscape:current-layer="svg1" /><path
     d="m 490.00556,85.528222 c -66.16321,-66.163209 -173.22872,-66.163209 -239.31372,0 l -75.78268,75.782668 39.88562,39.88562 75.78268,-75.78267 c 42.07541,-42.075418 113.08746,-46.533218 159.54248,0 46.53322,46.53322 42.07542,117.46706 0,159.54248 l -75.78268,75.78267 39.96382,39.96383 75.78268,-75.78268 c 66.00677,-66.1632 66.00677,-173.22871 -0.0782,-239.391918 z M 284.15353,452.7171 c -42.07542,42.07542 -113.08746,46.53323 -159.54248,0 -46.533222,-46.53322 -42.075422,-117.46706 0,-159.54248 L 200.39373,217.39194 160.4299,177.42812 84.647228,253.2108 c -66.163207,66.16321 -66.163212,173.22872 0,239.31372 66.163202,66.08499 173.228712,66.1632 239.313712,0 L 399.74361,416.74184 359.858,376.85622 Z"
     id="path1"
     style="fill:#e0e0e0;stroke-width:0.782072"
     sodipodi:nodetypes="ccccscsccccccsccsscccc" /><g
     style="fill:#000000"
     id="g9"
     transform="matrix(0.62801053,0,0,0.62801053,378.86439,369.27882)"><path
       d="m 886.05154,138.06513 c -98.69518,-98.695177 -258.40405,-98.695177 -356.98256,0 l -113.04448,113.04448 59.49709,59.4971 113.04448,-113.04448 c 62.7636,-62.7636 168.69176,-69.41328 237.98838,0 69.41328,69.41328 62.7636,175.22478 0,237.98838 L 713.50997,548.59509 773.12372,608.20884 886.1682,495.16436 c 98.46182,-98.69518 98.46182,-258.40404 -0.11666,-357.09923 z m -450.428,688.53305 c -62.7636,62.7636 -168.69176,69.41328 -237.98838,0 -69.41328,-69.41328 -62.7636,-175.22478 0,-237.98838 L 310.67964,475.56532 251.06588,415.95156 138.02141,528.99604 c -98.695192,98.69518 -98.695192,258.40405 0,356.98257 98.69518,98.57852 258.40404,98.69518 356.98256,0 L 608.04845,772.93413 548.55136,713.43704 Z M 312.1572,244.66777 c -3.65077,-3.61494 -9.53192,-3.61494 -13.18269,0 l -46.19774,46.19774 c -3.61494,3.65077 -3.61494,9.53192 0,13.18269 L 805.7888,865.21296 c 3.58993,3.64286 9.5662,3.61649 13.18269,0 l 46.19774,-46.19774 c 3.61649,-3.61649 3.58993,-9.53983 0,-13.18269 z"
       id="path1-8"
       style="fill:#e0e0e0;stroke-width:1.16661"
       sodipodi:nodetypes="ccccscsccccccsccssccccccccssssc" /></g></svg>
