<?xml version="1.0" encoding="UTF-8" standalone="no"?>
<!-- Created with Inkscape (http://www.inkscape.org/) -->

<svg
   width="64"
   height="64"
   viewBox="0 0 16.933333 16.933333"
   version="1.1"
   id="svg1"
   inkscape:version="1.3.2 (091e20e, 2023-11-25, custom)"
   xml:space="preserve"
   sodipodi:docname="walk_icon.svg"
   xmlns:inkscape="http://www.inkscape.org/namespaces/inkscape"
   xmlns:sodipodi="http://sodipodi.sourceforge.net/DTD/sodipodi-0.dtd"
   xmlns="http://www.w3.org/2000/svg"
   xmlns:svg="http://www.w3.org/2000/svg"><sodipodi:namedview
     id="namedview1"
     pagecolor="#505050"
     bordercolor="#eeeeee"
     borderopacity="1"
     inkscape:showpageshadow="0"
     inkscape:pageopacity="0"
     inkscape:pagecheckerboard="0"
     inkscape:deskcolor="#d1d1d1"
     inkscape:document-units="mm"
     inkscape:zoom="4.853367"
     inkscape:cx="-14.835062"
     inkscape:cy="31.318464"
     inkscape:current-layer="layer1" /><defs
     id="defs1" /><g
     inkscape:label="Layer 1"
     inkscape:groupmode="layer"
     id="layer1"><path
       style="fill:#e0e0e0;stroke-width:0.265592;fill-opacity:1"
       d="m 0.45352357,16.091695 c 0,-0.09633 1.43856743,-2.575042 1.58375083,-2.728865 0.2546019,-0.26975 0.5717373,-0.306845 1.3704472,-0.160297 l 0.6842659,0.125547 1.1848631,-0.510496 c 1.4672086,-0.632142 2.6590403,-1.033021 3.2578644,-1.095799 0.3939402,-0.0413 0.5679108,-0.113068 1.264883,-0.52177 1.128468,-0.66174 1.365685,-0.773715 1.639097,-0.773715 0.357159,0 0.548867,0.194159 1.309733,1.326482 0.604653,0.899842 0.88511,1.227126 2.255734,2.632355 1.199216,1.229495 1.541911,1.619509 1.465512,1.667866 -0.09369,0.0593 -16.01615043,0.09777 -16.01615043,0.03869 z M 3.4751865,12.479604 c 0,-0.03945 0.2002992,-0.636166 0.4451094,-1.326032 C 4.6512337,9.0938165 4.7834967,8.6143972 4.6703303,8.4348862 4.4469979,8.0806217 4.3895544,7.9145929 4.3891453,7.622177 4.3888002,7.3698035 4.6192403,5.9646407 4.7808099,5.2339903 4.8160003,5.0748525 4.8041211,5.0683117 4.553712,5.1089475 4.3336255,5.1446626 4.1469539,5.2940117 3.4363568,6.0029026 L 2.583232,6.853979 2.1545776,6.3790347 1.725923,5.9040905 2.2202439,5.3557506 C 2.9280529,4.5705933 3.4593677,4.1038188 3.8247857,3.9461171 4.2494506,3.7628466 4.9678505,3.7160238 5.8607409,3.8134206 6.844791,3.9207607 7.2034702,4.0923102 7.9333093,4.8046879 c 0.3167261,0.3091487 0.6046573,0.5620884 0.6398481,0.5620884 0.035191,0 0.2793082,-0.08228 0.5424835,-0.1828451 L 9.594141,5.0010863 9.547367,4.5876752 C 9.503192,4.1972055 9.509868,4.1706773 9.667665,4.1096283 c 0.224174,-0.086729 0.417346,0.043056 0.519894,0.3492996 0.06362,0.1899742 0.123363,0.2451273 0.285443,0.2634666 0.579102,0.065528 0.754484,0.7624607 0.304985,1.2119592 l -0.151561,0.1515622 0.486312,1.8128597 0.486313,1.8128606 -0.319988,0.0274 c -0.175995,0.01506 -0.336252,0.0042 -0.356129,-0.02407 -0.01987,-0.02831 -0.237048,-0.8083352 -0.482602,-1.73339 L 9.993868,6.2996598 9.5278086,6.4641768 C 8.9793305,6.6577875 8.3217355,6.6823039 7.9412484,6.5233261 7.798648,6.4637442 7.5418092,6.2857957 7.3704968,6.1278853 7.1991841,5.9699749 7.0590195,5.8601636 7.0590195,5.88386 c 0,0.023696 -0.065947,0.4571897 -0.1465475,0.9633182 -0.080601,0.5061285 -0.1359399,0.9298456 -0.1229748,0.9415923 0.012966,0.011739 0.3458972,0.1824839 0.7398492,0.3794159 0.3939521,0.1969319 0.8247624,0.4533106 0.9573557,0.5697288 0.3433444,0.3014602 0.5501816,0.830735 0.5930275,1.5174878 0.04131,0.662189 0.093661,0.610496 -0.8064461,0.796423 l -0.5776518,0.119326 0.037814,-0.495396 C 7.7897046,9.9387292 7.669624,9.7505652 6.9887481,9.5088121 6.044866,9.1736742 6.1095402,9.1616006 5.9319484,9.7061162 5.8468794,9.9669482 5.6150548,10.620438 5.4167831,11.158316 l -0.3604939,0.977961 -0.3864917,0.177775 c -0.4025951,0.185182 -1.194611,0.294941 -1.194611,0.165552 z M 6.1988348,3.301484 C 5.7804328,3.1485047 5.6097307,3.0062061 5.4508132,2.6779262 5.2666373,2.2974696 5.2607757,1.8585841 5.4353026,1.516627 5.5996623,1.1945926 5.7592944,1.0467078 6.0931037,0.90723354 6.6204726,0.68688414 7.2343754,0.85886234 7.5914168,1.3269674 7.8724061,1.6953632 7.9097861,2.3263605 7.6746168,2.7314061 7.3911184,3.2196898 6.7025764,3.4856655 6.1988348,3.301484 Z"
       id="path3" /></g></svg>
