<svg height="32" viewBox="0 0 25.6 25.6" width="32" xmlns="http://www.w3.org/2000/svg"><path d="M.948 19.474V6.126c0-2.767 2.42-5.178 5.178-5.178h6.904s-2.992 7.506-2.992 13.233c0 .346.337.69.69.69h2.877c0 6.648.906 8.436 1.266 9.781H6.126c-2.75 0-5.178-2.407-5.178-5.178z" fill="#1c9ef8"/><path d="M7.162 8.312v1.496" fill="none" stroke="#323232" stroke-linecap="round" stroke-width="1.036"/><path d="M10.729 14.871c-.352 0-.69-.344-.69-.69C10.038 8.414 13.03.948 13.03.948h6.444c2.77 0 5.178 2.416 5.178 5.178v13.348c0 2.754-2.407 5.178-5.178 5.178h-4.603c-.357-1.333-1.266-2.887-1.266-9.78z" fill="#e1e6ed"/><g fill="none" stroke="#323232" stroke-linecap="round"><path d="M17.575 8.255V9.75" stroke-width="1.036"/><path d="M5.55 16.943c1.037 1.794 3.907 2.876 6.79 2.876 2.877 0 5.745-1.068 6.789-2.876" stroke-width=".69"/></g></svg>
