<svg height="16" width="16" xml:space="preserve" xmlns="http://www.w3.org/2000/svg"><path fill="#e0e0e0" d="M4.418 1.055a3.364 3.364 0 0 0-3.364 3.364v7.164a3.364 3.364 0 0 0 3.364 3.364h7.164a3.364 3.364 0 0 0 3.364-3.364V4.418a3.364 3.364 0 0 0-3.364-3.364H7.729Zm3.875 1.164h3.291a2.2 2.2 0 0 1 2.2 2.2v7.164a2.2 2.2 0 0 1-2.2 2.2h-2.15a8.884 8.884 0 0 1-.358-1.598c-.135.02-.487.082-.693.117a7.345 7.345 0 0 1-1.254 0 7.114 7.114 0 0 1-.926-.139 6.057 6.057 0 0 1-.867-.271 3.843 3.843 0 0 1-.988-.566 3.214 3.214 0 0 1-.397-.378 2.8 2.8 0 0 1-.318-.441.56.56 0 0 1 .968-.56c.083.138.188.26.312.362.096.082.2.158.307.224.12.075.243.142.371.201.285.139.583.247.89.319a5.35 5.35 0 0 0 1.282.158c.065 0 .129-.005.184-.006.056 0 .102-.005.148-.008l.096-.006c.114-.009.228-.02.31-.032.083-.013.11-.021.143-.028.099-.022.204-.058.327-.089a28.438 28.438 0 0 1-.06-1.929V8.53H6.887c.048-1.963.746-4.357 1.181-5.677.1-.293.184-.527.225-.633ZM5.531 6.394a.56.56 0 0 1-1.118 0v-.9a.56.56 0 0 1 1.118 0Zm3.432 4.646.02.306c.02.264.049.527.082.788l.011.05c1.154-.235 2.281-.773 2.806-1.68a.56.56 0 1 0-.968-.56c-.261.454-1.082.873-1.951 1.097zM10 6.364a.56.56 0 0 0 1.118 0v-.9a.56.56 0 0 0-1.118 0z"/></svg>
