<?xml version="1.0" encoding="UTF-8" standalone="no"?>
<!DOCTYPE svg PUBLIC "-//W3C//DTD SVG 1.1//EN" "http://www.w3.org/Graphics/SVG/1.1/DTD/svg11.dtd">
<svg height="16" viewBox="0 0 16 16" width="16" version="1.1" xmlns="http://www.w3.org/2000/svg" xmlns:xlink="http://www.w3.org/1999/xlink" xml:space="preserve" xmlns:serif="http://www.serif.com/" style="fill-rule:evenodd;clip-rule:evenodd;stroke-linejoin:round;stroke-miterlimit:2;">
    <path d="M7,1L6.436,3.258C6.199,3.334 5.969,3.427 5.746,3.538L3.758,2.343L2.344,3.758L3.539,5.752L3.254,6.437L1,7L1,9L6.27,9C6.093,8.695 6,8.349 6,7.996C6,6.899 6.903,5.996 8,5.996C9.097,5.996 10,6.899 10,7.996C10,8.349 9.907,8.695 9.73,9L15,9L15,7L12.742,6.435C12.666,6.199 12.572,5.97 12.462,5.748L13.656,3.758L12.242,2.344L10.248,3.539C10.027,3.427 9.797,3.332 9.562,3.254L9,1L7,1Z" style="fill:rgb(224,224,224);fill-rule:nonzero;"/>
    <g transform="matrix(1.04463,0,0,1.04463,-0.637841,-0.681276)">
        <g transform="matrix(7.03086,0,0,7.03086,1.8125,15.1961)">
            <path d="M0.395,-0.566C0.372,-0.566 0.352,-0.561 0.334,-0.552C0.316,-0.542 0.301,-0.528 0.288,-0.51C0.275,-0.492 0.266,-0.469 0.259,-0.443C0.252,-0.417 0.249,-0.387 0.249,-0.354C0.249,-0.309 0.255,-0.271 0.266,-0.241C0.278,-0.21 0.295,-0.187 0.318,-0.171C0.341,-0.156 0.371,-0.148 0.406,-0.148C0.438,-0.148 0.468,-0.152 0.498,-0.161C0.527,-0.17 0.557,-0.181 0.587,-0.193L0.587,-0.03C0.555,-0.016 0.523,-0.006 0.49,0C0.457,0.007 0.422,0.01 0.385,0.01C0.307,0.01 0.244,-0.006 0.195,-0.036C0.145,-0.067 0.109,-0.11 0.086,-0.165C0.062,-0.219 0.051,-0.283 0.051,-0.355C0.051,-0.409 0.058,-0.458 0.073,-0.503C0.089,-0.548 0.111,-0.587 0.14,-0.62C0.169,-0.653 0.206,-0.679 0.249,-0.697C0.292,-0.715 0.341,-0.724 0.397,-0.724C0.431,-0.724 0.468,-0.72 0.506,-0.712C0.544,-0.704 0.582,-0.691 0.618,-0.674L0.559,-0.522C0.533,-0.534 0.507,-0.545 0.48,-0.553C0.453,-0.562 0.425,-0.566 0.395,-0.566Z" style="fill:rgb(224,224,224);fill-rule:nonzero;"/>
        </g>
        <g transform="matrix(7.03086,0,0,7.03086,6.375,15.1961)">
            <path d="M0.358,-0.418L0.54,-0.418L0.54,-0.287L0.358,-0.287L0.358,-0.111L0.227,-0.111L0.227,-0.287L0.045,-0.287L0.045,-0.418L0.227,-0.418L0.227,-0.597L0.358,-0.597L0.358,-0.418Z" style="fill:rgb(224,224,224);fill-rule:nonzero;"/>
        </g>
        <g transform="matrix(7.03086,0,0,7.03086,10.4946,15.1961)">
            <path d="M0.358,-0.418L0.54,-0.418L0.54,-0.287L0.358,-0.287L0.358,-0.111L0.227,-0.111L0.227,-0.287L0.045,-0.287L0.045,-0.418L0.227,-0.418L0.227,-0.597L0.358,-0.597L0.358,-0.418Z" style="fill:rgb(224,224,224);fill-rule:nonzero;"/>
        </g>
        <g transform="matrix(7.03086,0,0,7.03086,14.6143,15.1961)">
        </g>
    </g>
</svg>
