<?xml version="1.0" encoding="UTF-8" standalone="no"?>
<!DOCTYPE svg PUBLIC "-//W3C//DTD SVG 1.1//EN" "http://www.w3.org/Graphics/SVG/1.1/DTD/svg11.dtd">
<svg height="16" viewBox="0 0 16 16" width="16" version="1.1" xmlns="http://www.w3.org/2000/svg" xmlns:xlink="http://www.w3.org/1999/xlink" xml:space="preserve" xmlns:serif="http://www.serif.com/" style="fill-rule:evenodd;clip-rule:evenodd;stroke-linejoin:round;stroke-miterlimit:2;">
    <path d="M7,1L6.436,3.258C6.199,3.334 5.969,3.427 5.746,3.538L3.758,2.343L2.344,3.758L3.539,5.752L3.254,6.437L1,7L1,9L6.27,9C6.093,8.695 6,8.349 6,7.996C6,6.899 6.903,5.996 8,5.996C9.097,5.996 10,6.899 10,7.996C10,8.349 9.907,8.695 9.73,9L15,9L15,7L12.742,6.435C12.666,6.199 12.572,5.97 12.462,5.748L13.656,3.758L12.242,2.344L10.248,3.539C10.027,3.427 9.797,3.332 9.562,3.254L9,1L7,1Z" style="fill:rgb(224,224,224);fill-rule:nonzero;"/>
    <g transform="matrix(1.04463,0,0,1.04463,-0.637841,-0.681276)">
        <g transform="matrix(0.0264047,0,0,0.0264047,1.27202,3.31788)">
            <path d="M226.611,446.831C226.611,450.305 218.012,452.042 200.814,452.042C183.616,452.042 175.017,450.305 175.017,446.831L175.017,316.022L143.747,316.022C140.794,316.022 138.71,312.026 137.494,304.035C136.972,300.213 136.712,296.305 136.712,292.309C136.712,288.314 136.972,284.405 137.494,280.583C138.71,272.592 140.794,268.597 143.747,268.597L257.098,268.597C260.051,268.597 262.136,272.592 263.352,280.583C263.873,284.405 264.134,288.314 264.134,292.309C264.134,296.305 263.873,300.213 263.352,304.035C262.136,312.026 260.051,316.022 257.098,316.022L226.611,316.022L226.611,446.831Z" style="fill:rgb(224,224,224);fill-rule:nonzero;"/>
            <path d="M285.761,387.419C289.062,390.025 294.751,393.586 302.829,398.103C310.907,402.62 318.637,404.878 326.02,404.878C333.403,404.878 337.095,402.012 337.095,396.279C337.095,393.673 336.053,391.371 333.968,389.374C331.883,387.376 328.062,385.074 322.503,382.468C316.944,379.863 312.775,377.822 309.995,376.345C307.216,374.868 303.524,372.436 298.921,369.049C294.317,365.661 290.799,362.144 288.367,358.495C281.419,348.594 277.944,335.999 277.944,320.712C277.944,305.425 283.633,292.526 295.012,282.016C306.39,271.506 321.287,266.251 339.701,266.251C352.208,266.251 363.761,267.598 374.357,270.29C384.954,272.983 390.426,276.501 390.774,280.844L390.774,282.407C390.774,288.487 388.863,296.174 385.041,305.468C381.219,314.762 378.527,319.93 376.963,320.972C365.845,315.24 355.9,312.373 347.127,312.373C338.354,312.373 333.968,315.5 333.968,321.754C333.968,325.576 337.182,328.963 343.609,331.917C344.999,332.612 346.997,333.567 349.603,334.783C352.208,335.999 355.205,337.432 358.592,339.083C361.98,340.733 365.628,342.817 369.537,345.336C373.445,347.855 377.658,351.199 382.175,355.369C391.382,364.054 395.985,375.52 395.985,389.765C395.985,408.352 390.861,423.553 380.611,435.365C370.362,447.178 354.554,453.258 333.186,453.606C322.763,453.606 313.339,452.737 304.914,451C296.488,449.263 289.149,445.875 282.895,440.838C276.641,435.8 273.514,429.72 273.514,422.597C273.514,415.475 274.817,408.396 277.423,401.36C280.029,394.325 282.808,389.678 285.761,387.419Z" style="fill:rgb(224,224,224);fill-rule:nonzero;"/>
        </g>
    </g>
</svg>
