<svg xmlns="http://www.w3.org/2000/svg" xml:space="preserve" fill-rule="evenodd" stroke-linejoin="round" stroke-miterlimit="2" clip-rule="evenodd" viewBox="0 0 1024 1024"><path fill="#fff" d="M104.743,673.152C104.728,673.152 104.714,673.152 104.699,673.152L104.699,427.387C86.329,404.634 66.493,375.457 48,346.429C71.531,306.384 100.337,270.598 131.144,237.443C159.724,251.825 187.468,268.117 213.68,285.455C226.801,272.417 241.599,261.753 256.089,250.605C270.35,239.154 286.397,230.758 301.665,220.976C297.116,187.188 294.872,153.925 293.973,119.208C333.289,99.419 375.223,86.299 417.615,76.875C434.573,105.334 450.05,136.154 463.528,166.283C479.525,163.611 495.581,162.62 511.698,162.429L511.698,162.404C511.798,162.404 511.902,162.429 512.002,162.429C512.098,162.429 512.202,162.404 512.314,162.404L512.314,162.429C528.403,162.62 544.47,163.611 560.463,166.283C573.95,136.154 589.435,105.334 606.368,76.875C648.781,86.299 690.711,99.419 730.031,119.208C729.128,153.925 726.884,187.188 722.347,220.976C737.586,230.758 753.654,239.154 767.911,250.605C782.422,261.753 797.195,272.417 810.311,285.455C836.523,268.117 864.276,251.825 892.848,237.443C923.655,270.598 952.477,306.384 976,346.429C960.608,371.216 940.518,400.678 919.301,427.387L919.301,653.521L919.239,653.542L919.239,673.14C919.24,673.148 919.241,673.152 919.241,673.152L919.449,705.662L919.39,705.672L919.502,705.661C919.435,720.23 919.24,736.115 919.24,739.349C919.24,882.434 737.792,951.209 512.278,952L511.724,952C286.211,951.209 104.7,882.434 104.7,739.349C104.7,736.173 104.513,720.222 104.45,705.661L104.497,705.665L104.701,673.16C104.715,673.16 104.729,673.158 104.743,673.152Z"/></svg>
