<svg xmlns="http://www.w3.org/2000/svg" xml:space="preserve" fill-rule="evenodd" stroke-linejoin="round" stroke-miterlimit="2" clip-rule="evenodd" viewBox="0 0 1024 1024"><path fill="#414042" fill-rule="nonzero" d="M0,0C0,-7.994 -6.479,-14.473 -14.479,-14.473C-22.475,-14.473 -28.958,-7.994 -28.958,0C-28.958,7.994 -22.475,14.479 -14.479,14.479C-6.479,14.479 0,7.994 0,0" transform="matrix(4.16261 0 0 -4.16261 367.367 532.537)"/><path fill="#414042" fill-rule="nonzero" d="M0,0C0,-7.994 6.477,-14.473 14.471,-14.473C22.473,-14.473 28.95,-7.994 28.95,0C28.95,7.994 22.473,14.479 14.471,14.479C6.477,14.479 0,7.994 0,0" transform="matrix(4.16261 0 0 -4.16261 656.641 532.537)"/></svg>
