<svg width="32" height="32"><path fill="#fff" d="M13 31h6s3 0 6-6c2.864-5.727-6-17-6-17h-6S3.775 18.55 7 25c3 6 6 6 6 6z"/><path fill="#333" d="M15.876 28.636c-.05.322-.116.637-.204.941-.142.496-.35.993-.659 1.416.32.02.649.023.985.007a9.1 9.1 0 0 0 .985-.007c-.309-.423-.516-.92-.659-1.416a7.666 7.666 0 0 1-.203-.94l-.123.003c-.04 0-.081-.003-.122-.004z"/><path fill="#f4bb37" d="M21.693 21.916c-.629.01-.934.633-1.497.7-.694.08-1.128-.722-2.11-.123-.98.6-1.826 7.473.45 8.409 2.274.935 6.506-4.545 6.23-5.662-.275-1.116-1.146-.853-1.582-1.399-.436-.545.003-1.41-.995-1.82a1.246 1.246 0 0 0-.496-.105zm-11.461 0a1.315 1.315 0 0 0-.421.105c-.998.41-.56 1.275-.995 1.82-.436.546-1.31.283-1.586 1.4-.275 1.116 3.956 6.596 6.232 5.66 2.275-.935 1.429-7.808.448-8.408-.981-.6-1.415.204-2.11.122-.584-.068-.888-.739-1.568-.7z"/><path fill="#333" d="M15.998.99c-2.934 0-4.657 1.79-4.982 4.204-.324 2.414.198 2.856-.614 5.328-.813 2.472-4.456 6.71-4.37 10.62.026 1.217.166 2.27.41 3.192.3-.496.743-.846 1.066-.995.253-.117.375-.173.432-.194.008-.062.04-.205.098-.485.08-.386.387-.99.91-1.386-.005-.12-.01-.239-.013-.363-.06-3.033 3.073-6.318 3.65-8.236.577-1.917.326-2.114.421-2.59.096-.477.463-1.032.992-1.475a.23.23 0 0 1 .15-.06c.482-.005.965 1.75 1.898 1.752.933 0 1.419-2.141 1.956-1.692.529.443.896.998.992 1.474.095.477-.156.674.42 2.591.578 1.918 3.708 5.203 3.648 8.236-.003.123-.008.24-.014.36.526.396.834 1.002.914 1.389.058.28.09.423.098.485.057.021.18.08.432.197.323.15.764.499 1.063.995.244-.922.387-1.976.414-3.195.085-3.91-3.562-8.148-4.374-10.62-.813-2.472-.287-2.914-.611-5.328C20.659 2.78 18.933.99 15.998.99z"/></svg>