<svg xmlns="http://www.w3.org/2000/svg" xml:space="preserve" width="16" height="16"><path fill="#e0e0e0" d="M7.941 13.966a3.62 3.62 0 0 1-.096.444 2.129 2.129 0 0 1-.31.668c.15.01.305.01.464.003.16.008.314.007.465-.003a2.129 2.129 0 0 1-.31-.668 3.62 3.62 0 0 1-.097-.444zM8 .914c-1.386 0-2.2.845-2.353 1.985-.153 1.14.094 1.348-.29 2.515s-2.103 3.168-2.063 5.013c.012.575.078 1.072.194 1.507a1.25 1.25 0 0 1 .503-.47 4.37 4.37 0 0 1 .204-.09c.004-.03.019-.098.046-.23.038-.182.183-.467.43-.654a4.773 4.773 0 0 1-.006-.172c-.029-1.431 1.45-2.982 1.723-3.888.272-.905.154-.998.199-1.223.045-.225.218-.487.468-.696.253-.211.483.798.945.799.462 0 .692-1.01.945-.799.25.21.423.471.468.696.045.225-.073.318.199 1.223.272.906 1.75 2.457 1.722 3.888a4.773 4.773 0 0 0-.007.17 1.2 1.2 0 0 1 .432.656c.027.132.042.2.046.23.027.01.085.037.204.092.153.07.36.236.502.47.115-.435.183-.933.195-1.509.04-1.845-1.681-3.846-2.065-5.013-.383-1.167-.135-1.376-.288-2.515C10.2 1.759 9.385.914 7.999.914z"/><path fill="#e0e0e0" d="M10.688 10.793c-.297.005-.441.299-.707.33-.328.038-.533-.34-.996-.058-.463.283-.862 3.528.212 3.97 1.074.442 3.072-2.146 2.942-2.673-.13-.527-.542-.403-.747-.66-.206-.258 0-.666-.47-.86a.588.588 0 0 0-.234-.05zm-5.411 0a.62.62 0 0 0-.199.05c-.47.193-.264.601-.47.859-.205.257-.618.133-.748.66s1.867 3.115 2.942 2.673c1.074-.442.674-3.687.211-3.97-.463-.283-.668.096-.995.058-.277-.032-.42-.349-.741-.33z"/></svg>