<svg xmlns="http://www.w3.org/2000/svg" width="16" height="16"><path d="M12.698 4.59c-.368-.508-2.218-.623-3.086-.546.034-1.064.492-1.839-.593-2.766m-6.49-.51H7.25c1.205-.032 1.977.591 2.788 1.326L11.97 3.81c.998.89 1.393 1.729 1.5 2.94v8.483H2.53z" fill="#eff1f5" stroke="#9f9fa1" stroke-linecap="round" stroke-linejoin="round"/><path d="M7.39 4.721l-.346 1.38a3.056 3.056 0 0 0-.421.171l-1.216-.73-.864.865.73 1.219a3.056 3.056 0 0 0-.174.419l-1.377.344V9.61l1.38.345a3.056 3.056 0 0 0 .17.42l-.729 1.217.864.864 1.22-.73a3.056 3.056 0 0 0 .418.174l.344 1.377h1.222l.345-1.38a3.056 3.056 0 0 0 .42-.17l1.217.73.864-.865-.73-1.219a3.056 3.056 0 0 0 .174-.42l1.378-.343V8.39l-1.38-.345a3.056 3.056 0 0 0-.17-.42l.729-1.217-.865-.864-1.219.73a3.056 3.056 0 0 0-.419-.174L8.611 4.72H7.39zM8 7.777A1.222 1.222 0 0 1 9.223 9 1.222 1.222 0 0 1 8 10.222 1.222 1.222 0 0 1 6.778 9 1.222 1.222 0 0 1 8 7.777z" fill="#478cbf"/></svg>
