<svg xmlns="http://www.w3.org/2000/svg" xmlns:xlink="http://www.w3.org/1999/xlink" width="1024" height="1024"><defs><filter id="a" width="1.076" height="1.057" x="-.041" y="-.026" color-interpolation-filters="sRGB"><feFlood flood-color="#000" flood-opacity=".502" result="flood"/><feGaussianBlur in="SourceGraphic" result="blur" stdDeviation="10"/><feOffset dx="-4" dy="4" in="blur" result="offset"/><feComposite in="flood" in2="offset" operator="in" result="comp1"/><feComposite in="SourceGraphic" in2="comp1" result="comp2"/></filter><filter id="b" width="2.262" height="2.261" x="-.68" y="-.582" color-interpolation-filters="sRGB"><feFlood flood-color="#000" flood-opacity=".4" result="flood"/><feGaussianBlur in="SourceGraphic" result="blur" stdDeviation="40"/><feOffset dx="-20" dy="20" in="blur" result="offset"/><feComposite in="flood" in2="offset" operator="in" result="comp1"/><feComposite in="SourceGraphic" in2="comp1" result="fbSourceGraphic"/><feColorMatrix in="fbSourceGraphic" result="fbSourceGraphicAlpha" values="0 0 0 -1 0 0 0 0 -1 0 0 0 0 -1 0 0 0 0 1 0"/><feFlood flood-color="#000" flood-opacity=".2" result="flood"/><feGaussianBlur in="fbSourceGraphic" result="blur" stdDeviation="20"/><feOffset dx="-4" dy="4" in="blur" result="offset"/><feComposite in="flood" in2="offset" operator="in" result="comp1"/><feComposite in="fbSourceGraphic" in2="comp1" result="comp2"/></filter></defs><path fill="#fff" d="m 193,58 c -13.85,-6.8e-5 -25,11.15 -25,25 v 858 c 0,13.85 11.15,25 25,25 h 638 c 13.85,0 25,-11.15 25,-25 0,0 -0.004,-609.40334 -0.006,-609.40434 -0.0115,-0.5396 -0.48983,-11.63499 -6.79883,-23.10888 L 727.16587,186.28218 607.13658,66.07759 C 600.03311,60.161839 590.4778,58.524457 581.41002,58.0019 Z" filter="url(#a)"/><path fill="#fff" d="m 603.10742,63.296875 c -6.47611,-3.68445 -14.251,-4.865809 -21.69726,-5.294922 L 193,58 c -13.85,-6.8e-5 -25,11.15 -25,25 v 858 c 0,13.85 11.15,25 25,25 h 638 c 13.85,0 25,-11.15 25,-25 0,0 -0.004,-609.4033 -0.006,-609.4043 -0.0108,-0.50492 -0.43123,-10.25259 -5.6543,-20.90429 H 628.10742 c -13.85,0 -25,-11.15 -25,-25 z"/><path fill="#fff" d="M 603.10742,63.296875 V 285.69141 c 0,13.85 11.15,25 25,25 h 222.23242 c -0.35869,-0.73152 -0.7391,-1.46774 -1.14453,-2.20508 L 727.16602,186.28125 607.13672,66.078125 c -1.27025,-1.057863 -2.61905,-1.978917 -4.0293,-2.78125 z" filter="url(#b)"/><path fill="none" d="M0 0H1024V1024H0z"/><text x="184.504" y="878.644" fill="#333f67" font-family="Montserrat" font-size="16" font-weight="800" letter-spacing="0" word-spacing="0"><tspan x="184.504" y="878.644" font-size="112">GDSCRIPT</tspan></text><path fill="#478cbf" d="m 481.818,330.713 -17.037,68.149 a 150.92,150.92 0 0 0 -20.81,8.43 l -60.015,-36.021 -42.683,42.683 36.079,60.19 a 150.92,150.92 0 0 0 -8.608,20.693 l -68.031,16.978 v 60.368 l 68.149,17.037 a 150.92,150.92 0 0 0 8.43,20.752 l -36.021,60.072 42.683,42.683 60.19,-36.079 a 150.92,150.92 0 0 0 20.693,8.608 l 16.978,68.031 h 60.368 l 17.037,-68.149 a 150.92,150.92 0 0 0 20.752,-8.43 l 60.072,36.021 42.683,-42.683 -36.079,-60.19 a 150.92,150.92 0 0 0 8.608,-20.693 l 68.031,-16.978 V 511.817 L 655.138,494.78 a 150.92,150.92 0 0 0 -8.43,-20.752 l 36.021,-60.072 -42.683,-42.683 -60.19,36.079 a 150.92,150.92 0 0 0 -20.693,-8.608 l -16.978,-68.031 h -60.368 z m 30.184,150.92 A 60.368,60.368 0 0 1 572.37,542 60.368,60.368 0 0 1 512.002,602.368 60.368,60.368 0 0 1 451.634,542 60.368,60.368 0 0 1 512.002,481.632 Z"/></svg>
