<svg xmlns="http://www.w3.org/2000/svg" width="1024" height="1024"><path fill="#eff1f5" stroke="#9f9fa1" stroke-linecap="round" stroke-linejoin="round" stroke-width="19.603" d="m812.681 293.783c-23.575-32.543-141.93-39.865-197.505-34.983 2.17-68.048 31.457-117.656-37.966-177.026m-415.32-32.623h302.11c77.128-2.02 126.554 37.835 178.444 84.881l123.665 109.83c63.819 56.94 89.13 110.625 96 188.174v542.886h-700.219z"/><text x="207.666" y="878.644" fill="#333f67" font-family="Montserrat" font-size="16" font-weight="800" letter-spacing="0" word-spacing="0"><tspan x="207.666" y="878.644" font-size="112">GDSCRIPT</tspan></text><path fill="#478cbf" d="m481.818 300.713-17.037 68.149a150.92 150.92 0 0 0 -20.81 8.43l-60.015-36.021-42.683 42.683 36.079 60.19a150.92 150.92 0 0 0 -8.608 20.693l-68.031 16.978v60.368l68.149 17.037a150.92 150.92 0 0 0 8.43 20.752l-36.021 60.072 42.683 42.683 60.19-36.079a150.92 150.92 0 0 0 20.693 8.608l16.978 68.031h60.368l17.037-68.149a150.92 150.92 0 0 0 20.752-8.43l60.072 36.021 42.683-42.683-36.079-60.19a150.92 150.92 0 0 0 8.608-20.693l68.031-16.978v-60.368l-68.149-17.037a150.92 150.92 0 0 0 -8.43-20.752l36.021-60.072-42.683-42.683-60.19 36.079a150.92 150.92 0 0 0 -20.693-8.608l-16.978-68.031h-60.368zm30.184 150.92a60.368 60.368 0 0 1 60.368 60.367 60.368 60.368 0 0 1 -60.368 60.368 60.368 60.368 0 0 1 -60.368-60.368 60.368 60.368 0 0 1 60.368-60.368z"/></svg>
