<svg xmlns="http://www.w3.org/2000/svg" xmlns:xlink="http://www.w3.org/1999/xlink" xml:space="preserve" width="22.882" height="29.932"><defs><linearGradient xlink:href="#a" id="b" x1="455.851" x2="524.112" y1="527.88" y2="597.427" gradientTransform="matrix(.21833 0 0 .21827 -94.904 -106.44)" gradientUnits="userSpaceOnUse"/><linearGradient id="a"><stop offset="0" stop-color="#ff1300"/><stop offset="1" stop-color="#ff6e01"/></linearGradient></defs><path fill="#eff1f5" stroke="#9f9fa1" stroke-linecap="round" stroke-linejoin="round" d="m 20.837,8.1462384 c -0.736,-1.016 -4.435,-1.245 -6.172,-1.093 0.068,-2.126 0.983,-3.676 -1.186,-5.532 M 0.49999998,0.50223838 H 9.941 c 2.41,-0.063 3.955,1.18200002 5.576,2.65200002 l 3.865,3.433 c 1.994,1.779 2.785,3.4569996 3,5.8799996 v 16.965 H 0.49999998 Z"/><path fill="url(#b)" d="M 9.032238,7.1533805 8.537503,8.7162614 C 7.998616,8.9492974 7.459829,9.1822954 6.92094,9.4154894 6.349252,9.2950864 5.775998,9.1556514 5.1966016,9.0857814 5.1049656,9.1886964 2.7910242,12.747377 2.791648,12.784148 c 0.1066335,0.261048 0.2896992,0.485595 0.4281952,0.729883 l 8.4170758,2.956299 8.416971,-2.956299 c 0.138499,-0.244288 0.321669,-0.468835 0.428196,-0.729883 0,-0.03678 -2.31342,-3.5954586 -2.405057,-3.6983666 -0.579396,0.06992 -1.152544,0.209305 -1.724236,0.329708 -0.538784,-0.233194 -1.077775,-0.466192 -1.616562,-0.699228 L 14.241393,7.1533805 Z M 3.8609921,14.589235 c -0.010413,-0.0038 -0.031239,0.01226 -0.031239,0.01756 -0.1010088,0.826579 -0.2994868,2.480283 -0.2994868,2.480283 l 0.512856,2.216954 3.8799957,1.76259 3.714739,-1.389037 3.714845,1.389037 3.879998,-1.76259 0.512855,-2.216954 c 0,0 -0.198062,-1.653704 -0.299487,-2.480283 0,-0.0068 -0.03748,-0.03253 -0.03748,-0.0068 -2.539911,0.902827 -5.189473,1.777149 -7.770099,2.667658 -2.580729,-0.890509 -5.230291,-1.764838 -7.7703052,-2.667658 0,-0.0061 0,-0.0097 -0.010413,-0.01082 z m 1.8233699,1.882781 3.632161,1.340817 A 1.9781926,1.977656 0 0 1 9.221763,18.198117 1.9781926,1.977656 0 0 1 6.68071,19.36832 1.9781926,1.977656 0 0 1 5.51015,16.827999 1.9781926,1.977656 0 0 1 5.68426,16.472016 Z m 11.905011,0 a 1.9781926,1.977656 0 0 1 0.174111,0.355983 1.9781926,1.977656 0 0 1 -1.170559,2.540321 1.9781926,1.977656 0 0 1 -2.541055,-1.170203 1.9781926,1.977656 0 0 1 -0.09476,-0.385284 z M 2.8579808,17.968168 1.926303,18.891194 3.3222063,23.784463 7.733805,25.593592 7.496485,21.787067 3.3126266,19.840643 Z m 17.5577742,0 -0.454648,1.872467 -4.183752,1.946432 -0.237424,3.806525 4.411703,-1.809129 1.395903,-4.893269 z m -8.778836,2.520436 -3.308308,1.308966 0.200771,4.112041 3.107434,1.265658 3.107434,-1.265658 0.200873,-4.112041 z" style="font-variation-settings:normal;-inkscape-stroke:none"/></svg>