<svg xmlns="http://www.w3.org/2000/svg" xmlns:xlink="http://www.w3.org/1999/xlink" xml:space="preserve" width="719.822" height="945.446"><defs><linearGradient xlink:href="#a" id="b" x1="455.851" x2="524.112" y1="527.88" y2="597.427" gradientTransform="matrix(5.20288 0 0 5.20147 -2186.336 -2481.447)" gradientUnits="userSpaceOnUse"/><linearGradient id="a"><stop offset="0" stop-color="#ff1300"/><stop offset="1" stop-color="#ff6e01"/></linearGradient></defs><path fill="#eff1f5" stroke="#9f9fa1" stroke-linecap="round" stroke-linejoin="round" stroke-width="19.603" d="m 660.5925,254.50703 c -23.575,-32.542 -141.93,-39.864 -197.505,-34.983 2.17,-68.048 31.457,-117.655 -37.966,-177.025 M 9.801499,9.8740295 H 311.9115 c 77.128,-2.02 126.554,37.8360005 178.444,84.8820005 l 123.665,109.83 c 63.819,56.94 89.13,110.624 96,188.174 v 542.885 H 9.801499 Z"/><text x="82.327" y="839.368" fill="#333f67" font-family="Montserrat" font-size="16" font-weight="800" letter-spacing="0" word-spacing="0"><tspan x="82.327" y="839.368" font-size="112">PROJECT</tspan></text><path fill="url(#b)" d="m 290.51833,225.54718 -11.78971,37.24419 c -12.84203,5.55336 -25.68152,11.10581 -38.52346,16.66295 -13.62362,-2.86926 -27.28453,-6.19208 -41.09183,-7.85711 -2.18373,2.45252 -57.32604,87.25756 -57.31118,88.13382 2.54113,6.22092 6.90367,11.57196 10.2041,17.39347 L 352.58914,447.57451 553.1696,377.1245 c 3.30054,-5.82151 7.66552,-11.17255 10.20405,-17.39347 0,-0.87644 -55.12977,-85.68146 -57.31353,-88.13382 -13.80731,1.66629 -27.4658,4.98785 -41.08945,7.85711 -12.83949,-5.55714 -25.68391,-11.10959 -38.5234,-16.66295 L 414.65502,225.54718 Z M 167.28511,402.74712 c -0.24812,-0.0902 -0.74441,0.29213 -0.74441,0.41837 -2.40709,19.69778 -7.13692,59.10632 -7.13692,59.10632 l 12.22159,52.83109 92.46213,42.00336 88.52408,-33.10142 88.52646,33.10142 92.46221,-42.00336 12.22164,-52.83109 c 0,0 -4.71989,-39.40854 -7.13697,-59.10632 0,-0.16229 -0.89333,-0.77542 -0.89333,-0.16229 -60.52733,21.51479 -123.66767,42.35029 -185.16521,63.57154 -61.49993,-21.22125 -124.64028,-42.05692 -185.17002,-63.57154 0,-0.14447 0,-0.23085 -0.24814,-0.2579 z m 43.45179,44.86759 86.55616,31.95228 a 47.141268,47.128483 0 0 1 -2.25825,9.18151 47.141268,47.128483 0 0 1 -60.55453,27.8865 47.141268,47.128483 0 0 1 -27.895,-60.53709 47.141268,47.128483 0 0 1 4.14912,-8.4832 z m 283.70206,0 a 47.141268,47.128483 0 0 1 4.14917,8.4832 47.141268,47.128483 0 0 1 -27.89505,60.53709 47.141268,47.128483 0 0 1 -60.55455,-27.8865 47.141268,47.128483 0 0 1 -2.25809,-9.18151 z m -351.05605,35.65398 -22.20234,21.99615 33.26504,116.60893 105.13049,43.11241 -5.65541,-90.71132 -99.70337,-46.38418 z m 418.41016,0 -10.8346,44.6218 -99.70073,46.38437 -5.65795,90.71132 105.13299,-43.11241 33.26508,-116.60893 z m -209.20393,60.0632 -78.83856,31.19327 4.7845,97.9919 74.05167,30.16124 74.05166,-30.16124 4.7869,-97.9919 z" style="font-variation-settings:normal;-inkscape-stroke:none"/></svg>