<svg xmlns="http://www.w3.org/2000/svg" width="16" height="16"><path fill="#eff1f5" stroke="#9f9fa1" stroke-linecap="round" stroke-linejoin="round" d="m12.698 4.59c-.368-.508-2.218-.623-3.086-.546.034-1.064.492-1.839-.593-2.766m-6.49-.51h4.721c1.205-.032 1.977.591 2.788 1.326l1.932 1.716c.998.89 1.393 1.729 1.5 2.94v8.483h-10.94z"/><g stroke-width=".32"><path fill="#fff" d="m12.062 10.583s-.014-.083-.022-.082l-1.502.145a.244.244 0 0 0 -.22.226l-.042.592-1.162.083-.079-.536a.246.246 0 0 0 -.242-.21h-1.585c-.12 0-.225.09-.243.21l-.079.536-1.162-.083-.041-.592a.244.244 0 0 0 -.22-.226l-1.505-.146c-.007-.001-.013.082-.02.082l-.003.325 1.273.205.042.597c.008.12.105.218.226.227l1.6.114h.019c.12 0 .224-.089.242-.208l.081-.552h1.163l.08.552a.246.246 0 0 0 .26.208l1.601-.114a.246.246 0 0 0 .227-.227l.042-.597 1.272-.206z"/><path fill="#478cbf" d="m3.938 8.132v2.45l.013.001 1.503.145c.078773.0076.1405059.07105.146.15l.046.663 1.311.094.09-.612c.01187-.07924.079879-.137895.16-.138h1.586c.080121.000105.1481303.05876.16.138l.09.612 1.311-.094.046-.663c.0055-.07895.06723-.142375.146-.15l1.502-.145h.014v-2.451c.22118-.2597567.402804-.5673567.566-.808-.236303-.3914463-.514617-.7559371-.83-1.087-.283508.1437236-.558316.3040004-.823.48-.13-.13-.278-.237-.422-.348-.143-.115-.303-.198-.455-.296.044019-.3366902.069724-.6755224.077-1.015-.392294-.1911688-.8067944-.3329185-1.234-.422-.1691916.2883902-.3217734.5862085-.457.892-.158761-.0253078-.3192359-.0383464-.48-.039h-.004-.003c-.16.002-.32.012-.48.039-.135411-.3058816-.288331-.6037083-.458-.892-.4268603.0891708-.841019.2309186-1.233.422.009.346.031.678.076 1.015-.152.098-.312.181-.454.296-.145.11-.292.217-.423.347-.264694-.1756817-.5395029-.3356251-.823-.479-.307.331-.595.688-.83 1.087.1718588.2982703.3967405.5717122.566.808z"/><path fill="#478cbf" d="m10.714 11.037-.047.667a.162.162 0 0 1 -.15.15l-1.6.114a.162.162 0 0 1 -.172-.137l-.092-.623h-1.306l-.092.623a.162.162 0 0 1 -.171.137l-1.6-.114a.162.162 0 0 1 -.15-.15l-.047-.667-1.351-.13.002.336c0 1.427 1.81 2.113 4.06 2.12h.005c2.25-.007 4.059-.693 4.059-2.12l.002-.336z"/><path fill="#fff" d="m6.776 9.127a.905.905 0 1 1 -1.811 0 .905.905 0 0 1 1.81 0"/><path fill="#414042" d="m6.558 9.18a.6.6 0 1 1 -1.202 0 .6.6 0 0 1 1.202 0"/><path fill="#fff" d="m8 10.115c-.16 0-.291-.119-.291-.265v-.834c0-.146.13-.265.291-.265s.292.119.292.265v.834c0 .146-.13.265-.292.265m1.225-.988a.906.906 0 1 0 1.81 0 .906.906 0 0 0 -1.81 0"/><path fill="#414042" d="m9.443 9.18a.6.6 0 1 0 1.201 0 .6.6 0 0 0 -1.201 0"/></g></svg>