<svg xmlns="http://www.w3.org/2000/svg" width="32" height="32"><path fill="#eff1f5" stroke="#9f9fa1" stroke-linecap="round" stroke-linejoin="round" d="m25.396 9.18c-.736-1.016-4.435-1.245-6.172-1.093.068-2.126.983-3.676-1.186-5.532m-12.979-1.019h9.441c2.41-.063 3.955 1.182 5.576 2.652l3.865 3.433c1.994 1.779 2.785 3.457 3 5.88v16.965h-21.882z"/><g stroke-width=".32"><path fill="#fff" d="m22.268 20.443s-.02-.128-.033-.127l-2.318.224a.377.377 0 0 0 -.34.35l-.064.912-1.793.128-.122-.827a.38.38 0 0 0 -.374-.323h-2.447a.38.38 0 0 0 -.374.323l-.122.827-1.793-.128-.064-.913a.377.377 0 0 0 -.34-.35l-2.32-.223c-.011-.001-.02.127-.032.127l-.003.501 1.964.317.064.921a.38.38 0 0 0 .35.35l2.47.177h.028a.38.38 0 0 0 .373-.322l.125-.851h1.795l.125.851a.38.38 0 0 0 .4.322l2.471-.176a.38.38 0 0 0 .35-.351l.064-.92 1.964-.32z"/><path fill="#478cbf" d="m9.732 16.66v3.783h.02l2.32.224c.120882.01233.215393.109796.224.231l.072 1.024 2.023.144.14-.945c.01825-.121952.122691-.212385.246-.213h2.447c.123688.000122.228694.09067.247.213l.14.945 2.022-.144.072-1.024c.0091-.121156.104074-.218195.225-.23l2.318-.225h.02v-.302h.001v-3.481c.337369-.403598.623887-.872775.873-1.246-.364428-.603874-.793632-1.166199-1.28-1.677-.44.22-.867.472-1.27.738-.202-.2-.43-.364-.653-.536-.22-.176-.466-.305-.701-.456.07-.52.104-1.032.118-1.566-.604936-.295179-1.244149-.514184-1.903-.652-.26.438-.499.913-.707 1.376-.244789-.03861-.492185-.05834-.74-.059h-.01c-.248507.00091-.496575.02097-.742.06-.208692-.472178-.444416-.93194-.706-1.377-.658846.137836-1.298056.35684-1.903.652.014.534.048 1.046.118 1.566-.235.15-.482.28-.701.456-.223.172-.451.336-.653.536-.403-.266-.83-.517-1.27-.738-.4863434.510822-.9155458 1.073144-1.28 1.677.2695251.457258.6077461.88389.873 1.246z"/><path fill="#478cbf" d="m20.188 21.144-.072 1.029a.25.25 0 0 1 -.231.232l-2.47.176a.25.25 0 0 1 -.265-.213l-.142-.96h-2.015l-.142.96a.25.25 0 0 1 -.265.213l-2.47-.176a.25.25 0 0 1 -.231-.232l-.072-1.03-2.085-.2c0 .224.004.47.004.518 0 2.203 2.793 3.261 6.264 3.273h.009c3.47-.012 6.263-1.07 6.263-3.273l.004-.518z"/><path fill="#fff" d="m14.11 18.195a1.397 1.397 0 1 1 -2.794.001 1.397 1.397 0 0 1 2.795 0"/><path fill="#414042" d="m13.774 18.278a.927.927 0 1 1 -1.854 0 .927.927 0 0 1 1.854 0"/><path fill="#fff" d="m16 19.72c-.248 0-.45-.183-.45-.409v-1.286c0-.226.202-.409.45-.409.249 0 .45.183.45.409v1.286c0 .226-.201.41-.45.41m1.89-1.526a1.397 1.397 0 1 0 2.795 0 1.397 1.397 0 0 0 -2.795 0"/><path fill="#414042" d="m18.227 18.278a.927.927 0 1 0 1.854 0 .927.927 0 0 0 -1.854 0"/></g></svg>