<svg xmlns="http://www.w3.org/2000/svg" xmlns:xlink="http://www.w3.org/1999/xlink" width="1024" height="1024"><defs><filter id="a" width="1.076" height="1.057" x="-.041" y="-.026" color-interpolation-filters="sRGB"><feFlood flood-color="#000" flood-opacity=".502" result="flood"/><feGaussianBlur in="SourceGraphic" result="blur" stdDeviation="10"/><feOffset dx="-4" dy="4" in="blur" result="offset"/><feComposite in="flood" in2="offset" operator="in" result="comp1"/><feComposite in="SourceGraphic" in2="comp1" result="comp2"/></filter><filter id="b" width="2.262" height="2.261" x="-.68" y="-.582" color-interpolation-filters="sRGB"><feFlood flood-color="#000" flood-opacity=".4" result="flood"/><feGaussianBlur in="SourceGraphic" result="blur" stdDeviation="40"/><feOffset dx="-20" dy="20" in="blur" result="offset"/><feComposite in="flood" in2="offset" operator="in" result="comp1"/><feComposite in="SourceGraphic" in2="comp1" result="fbSourceGraphic"/><feColorMatrix in="fbSourceGraphic" result="fbSourceGraphicAlpha" values="0 0 0 -1 0 0 0 0 -1 0 0 0 0 -1 0 0 0 0 1 0"/><feFlood flood-color="#000" flood-opacity=".2" result="flood"/><feGaussianBlur in="fbSourceGraphic" result="blur" stdDeviation="20"/><feOffset dx="-4" dy="4" in="blur" result="offset"/><feComposite in="flood" in2="offset" operator="in" result="comp1"/><feComposite in="fbSourceGraphic" in2="comp1" result="comp2"/></filter></defs><path fill="#fff" d="m 193,58 c -13.85,-6.8e-5 -25,11.15 -25,25 v 858 c 0,13.85 11.15,25 25,25 h 638 c 13.85,0 25,-11.15 25,-25 0,0 -0.004,-609.40334 -0.006,-609.40434 -0.0115,-0.5396 -0.48983,-11.63499 -6.79883,-23.10888 L 727.16587,186.28218 607.13658,66.07759 C 600.03311,60.161839 590.4778,58.524457 581.41002,58.0019 Z" filter="url(#a)"/><path fill="#fff" d="M 603.10742 63.296875 C 596.63131 59.612425 588.85642 58.431066 581.41016 58.001953 L 193 58 C 179.15 57.999932 168 69.15 168 83 L 168 941 C 168 954.85 179.15 966 193 966 L 831 966 C 844.85 966 856 954.85 856 941 C 856 941 855.99614 331.5967 855.99414 331.5957 C 855.98338 331.09078 855.56291 321.34311 850.33984 310.69141 L 628.10742 310.69141 C 614.25742 310.69141 603.10742 299.54141 603.10742 285.69141 L 603.10742 63.296875 z"/><path fill="#fff" d="M 603.10742 63.296875 L 603.10742 285.69141 C 603.10742 299.54141 614.25742 310.69141 628.10742 310.69141 L 850.33984 310.69141 C 849.98115 309.95989 849.60074 309.22367 849.19531 308.48633 L 727.16602 186.28125 L 607.13672 66.078125 C 605.86647 65.020262 604.51767 64.099208 603.10742 63.296875 z" filter="url(#b)"/><path fill="none" d="M0 0H1024V1024H0z"/><g stroke-width=".32"><path fill="#fff" d="m 712.572,590.17 c 0,0 -0.666,-4.089 -1.056,-4.052 l -74.179,7.157 a 12.056,12.056 0 0 0 -10.9,11.191 l -2.038,29.21 -57.387,4.094 -3.905,-26.472 c -0.868,-5.888 -6.01,-10.327 -11.961,-10.327 h -78.292 c -5.95,0 -11.09,4.439 -11.96,10.327 l -3.906,26.472 -57.387,-4.095 -2.038,-29.208 a 12.057,12.057 0 0 0 -10.901,-11.194 l -74.214,-7.155 c -0.384,-0.037 -0.665,4.056 -1.049,4.056 l -0.1,16.052 62.853,10.136 2.059,29.47 c 0.416,5.965 5.23,10.788 11.2,11.217 l 79.035,5.638 c 0.299,0.021 0.594,0.033 0.89,0.033 5.94,0 11.072,-4.44 11.941,-10.329 l 4.017,-27.237 h 57.414 l 4.017,27.237 c 0.867,5.886 6.006,10.326 11.953,10.326 0.292,0 0.583,-0.009 0.868,-0.03 l 79.046,-5.638 c 5.967,-0.428 10.783,-5.252 11.2,-11.218 l 2.056,-29.469 62.826,-10.18 z" transform="translate(0 30)"/><path fill="#478cbf" d="m 311.398,469.127 v 121.042 c 0.221,0.003 0.443,0.01 0.662,0.031 l 74.207,7.155 c 3.88703,0.37478 6.93367,3.50431 7.204,7.4 l 2.289,32.756 64.731,4.619 4.46,-30.234 c 0.57822,-3.91981 3.94178,-6.82377 7.904,-6.824 h 78.292 c 3.96222,2.3e-4 7.32578,2.90419 7.904,6.824 l 4.458,30.234 64.733,-4.619 2.287,-32.757 c 0.27147,-3.89481 3.31693,-7.02357 7.203,-7.4 L 711.91,590.2 c 0.22,-0.02 0.44,-0.028 0.66,-0.031 v -9.658 l 0.032,-0.01 V 469.128 c 10.4496,-13.15476 20.3441,-27.66594 27.925,-39.874 -11.586,-19.722 -25.78,-37.347 -40.954,-53.677 -14.073,7.083 -27.74,15.108 -40.65,23.647 -6.46,-6.421 -13.736,-11.674 -20.883,-17.164 -7.022,-5.64 -14.936,-9.775 -22.44,-14.593 2.234,-16.641 3.339,-33.024 3.783,-50.122 -19.366,-9.747 -40.017,-16.209 -60.905,-20.85 -8.34,14.017 -15.967,29.196 -22.61,44.035 -7.876,-1.316 -15.79,-1.804 -23.713,-1.898 v -0.013 c -0.055,0 -0.107,0.013 -0.154,0.013 -0.05,0 -0.1,-0.013 -0.15,-0.013 v 0.013 c -7.937,0.095 -15.845,0.582 -23.724,1.898 -6.638,-14.84 -14.261,-30.018 -22.613,-44.035 -20.879,4.641 -41.532,11.104 -60.895,20.85 0.442,17.098 1.548,33.48 3.788,50.122 -7.52,4.818 -15.423,8.953 -22.447,14.592 -7.137,5.491 -14.425,10.745 -20.887,17.165 -12.91,-8.539 -26.573,-16.564 -40.65,-23.646 -15.173,16.329 -29.36,33.953 -40.95,53.676 9.10746,14.29708 18.8786,28.66782 27.925,39.873 z" transform="translate(0 30)"/><path fill="#478cbf" d="m 646,612.615 -2.3,32.93 a 7.992,7.992 0 0 1 -7.402,7.413 l -79.044,5.64 a 7.991,7.991 0 0 1 -8.474,-6.806 l -4.531,-30.74 h -64.496 l -4.533,30.74 c -0.608,4.137 -4.308,7.112 -8.474,6.806 l -79.043,-5.64 a 7.992,7.992 0 0 1 -7.402,-7.413 l -2.3,-32.931 -66.726,-6.434 c 0.032,7.173 0.124,15.028 0.124,16.592 0,70.472 89.397,104.344 200.465,104.734 h 0.273 c 111.07,-0.39 200.435,-34.262 200.435,-104.734 0,-1.592 0.096,-9.416 0.129,-16.592 z" transform="translate(0 30)"/><path fill="#fff" d="m 451.527,518.261 c 0,24.71 -20.02,44.725 -44.72,44.725 -24.688,0 -44.714,-20.016 -44.714,-44.725 0,-24.691 20.026,-44.697 44.713,-44.697 24.7,0 44.72,20.006 44.72,44.697" transform="translate(0 30)"/><path fill="#414042" d="m 440.766,520.915 c 0,16.388 -13.283,29.671 -29.684,29.671 -16.393,0 -29.684,-13.283 -29.684,-29.671 0,-16.39 13.29,-29.685 29.684,-29.685 16.401,0 29.684,13.295 29.684,29.685" transform="translate(0 30)"/><path fill="#fff" d="m 511.997,567.054 c -7.951,0 -14.394,-5.86 -14.394,-13.081 v -41.17 c 0,-7.216 6.444,-13.08 14.394,-13.08 7.95,0 14.408,5.864 14.408,13.08 v 41.17 c 0,7.222 -6.458,13.081 -14.408,13.081 m 60.477,-48.793 c 0,24.71 20.02,44.725 44.724,44.725 24.686,0 44.71,-20.016 44.71,-44.725 0,-24.691 -20.024,-44.697 -44.71,-44.697 -24.704,0 -44.724,20.006 -44.724,44.697" transform="translate(0 30)"/><path fill="#414042" d="m 583.238,520.915 c 0,16.388 13.279,29.671 29.668,29.671 16.405,0 29.683,-13.283 29.683,-29.671 0,-16.39 -13.278,-29.685 -29.684,-29.685 -16.388,0 -29.668,13.295 -29.668,29.685" transform="translate(0 30)"/></g><text x="227.434" y="878.644" fill="#333f67" font-family="Montserrat" font-size="16" font-weight="800" letter-spacing="0" word-spacing="0"><tspan x="227.434" y="878.644" font-size="112">PROJECT</tspan></text></svg>
