<svg xmlns="http://www.w3.org/2000/svg" xmlns:xlink="http://www.w3.org/1999/xlink" xml:space="preserve" width="11.941" height="15.466"><defs><linearGradient xlink:href="#a" id="b" x1="455.851" x2="524.112" y1="527.88" y2="597.427" gradientTransform="matrix(.10773 0 0 .1077 -46.666 -51.952)" gradientUnits="userSpaceOnUse"/><linearGradient id="a"><stop offset="0" stop-color="#ff1300"/><stop offset="1" stop-color="#ff6e01"/></linearGradient></defs><path fill="#eff1f5" stroke="#9f9fa1" stroke-linecap="round" stroke-linejoin="round" d="m 10.669,4.3231271 c -0.368,-0.508 -2.218,-0.623 -3.086,-0.546 0.034,-1.064 0.492,-1.839 -0.593,-2.766 M 0.49999996,0.50112715 H 5.221 c 1.205,-0.032 1.977,0.59099995 2.788,1.32599995 l 1.932,1.716 c 0.998,0.89 1.393,1.729 1.5,2.94 V 14.966127 H 0.50099996 Z"/><path fill="url(#b)" d="M 4.6186683,4.0974838 4.3745536,4.8686474 C 4.1086521,4.9836304 3.8428042,5.0986 3.5769027,5.2136632 3.2948183,5.1542517 3.011961,5.0854515 2.7260727,5.0509748 2.6808564,5.1017584 1.5391028,6.8576944 1.5394106,6.8758378 1.5920272,7.004645 1.6823564,7.1154426 1.7506946,7.2359794 L 5.9038795,8.6946888 10.057011,7.2359794 c 0.06833,-0.1205368 0.158721,-0.2313344 0.211284,-0.3601416 0,-0.018134 -1.141499,-1.774083 -1.186713,-1.824863 C 8.795695,5.0854788 8.512887,5.1542509 8.230803,5.2136632 7.9649522,5.0986 7.6990034,4.9836304 7.433152,4.8686474 L 7.1889871,4.0974838 Z M 2.0670517,7.766511 c -0.00515,-0.00201 -0.015423,0.00605 -0.015423,0.00866 -0.04984,0.4078537 -0.1477736,1.2238321 -0.1477736,1.2238321 L 2.1569092,10.092903 4.071392,10.962605 5.9043315,10.277221 7.7373247,10.962605 9.651808,10.092903 9.904862,8.9990055 c 0,0 -0.09773,-0.8159784 -0.147774,-1.2238321 0,-0.00335 -0.0185,-0.016059 -0.0185,-0.00335 C 8.485336,8.2173015 7.1779768,8.6487118 5.9046359,9.0881116 4.6312448,8.6487118 3.3238854,8.2172981 2.0705849,7.7718259 c 0,-0.00302 0,-0.00478 -0.00515,-0.00536 z M 2.9667447,8.6955186 4.758941,9.3571091 A 0.97608708,0.97582238 0 0 1 4.7121827,9.5472184 0.97608708,0.97582238 0 0 1 3.4583669,10.124626 0.97608708,0.97582238 0 0 1 2.8807855,8.871168 0.97608708,0.97582238 0 0 1 2.9666946,8.6955186 Z m 5.8742163,0 A 0.97608708,0.97582238 0 0 1 8.92687,8.871168 0.97608708,0.97582238 0 0 1 8.349289,10.124626 0.97608708,0.97582238 0 0 1 7.0954731,9.5472184 0.97608708,0.97582238 0 0 1 7.0487148,9.3571091 Z M 1.5721411,9.4337577 1.1124299,9.8892001 1.8012003,12.303656 3.9779881,13.196323 3.8608907,11.318089 1.7964763,10.35768 Z m 8.6634239,0 -0.224335,0.9239193 -2.0643614,0.960412 -0.1171506,1.878234 2.176837,-0.892667 0.688771,-2.4144559 z M 5.9038795,10.6774 l -1.6323984,0.645872 0.099065,2.028981 1.5332806,0.624504 1.5332839,-0.624504 0.099115,-2.028981 z" style="font-variation-settings:normal;-inkscape-stroke:none"/></svg>