<svg xmlns="http://www.w3.org/2000/svg" xmlns:xlink="http://www.w3.org/1999/xlink" width="32" height="32"><defs><filter id="d" width="1.076" height="1.057" x="-.041" y="-.026" color-interpolation-filters="sRGB"><feFlood flood-color="#000" flood-opacity=".502" result="flood"/><feGaussianBlur in="SourceGraphic" result="blur" stdDeviation="10"/><feOffset dx="-4" dy="4" in="blur" result="offset"/><feComposite in="flood" in2="offset" operator="in" result="comp1"/><feComposite in="SourceGraphic" in2="comp1" result="comp2"/></filter><filter id="e" width="1.824" height="1.821" x="-.44" y="-.383" color-interpolation-filters="sRGB"><feFlood flood-color="#000" flood-opacity=".502" result="flood"/><feGaussianBlur in="SourceGraphic" result="blur" stdDeviation="20"/><feOffset dx="-10" dy="10" in="blur" result="offset"/><feComposite in="flood" in2="offset" operator="in" result="comp1"/><feComposite in="SourceGraphic" in2="comp1" result="fbSourceGraphic"/><feColorMatrix in="fbSourceGraphic" result="fbSourceGraphicAlpha" values="0 0 0 -1 0 0 0 0 -1 0 0 0 0 -1 0 0 0 0 1 0"/><feFlood flood-color="#000" flood-opacity=".2" result="flood"/><feGaussianBlur in="fbSourceGraphic" result="blur" stdDeviation="20"/><feOffset dx="-4" dy="4" in="blur" result="offset"/><feComposite in="flood" in2="offset" operator="in" result="comp1"/><feComposite in="fbSourceGraphic" in2="comp1" result="comp2"/></filter><filter id="a" width="1.076" height="1.057" x="-.041" y="-.026" color-interpolation-filters="sRGB"><feFlood flood-color="#000" flood-opacity=".502" result="flood"/><feGaussianBlur in="SourceGraphic" result="blur" stdDeviation="10"/><feOffset dx="-4" dy="4" in="blur" result="offset"/><feComposite in="flood" in2="offset" operator="in" result="comp1"/><feComposite in="SourceGraphic" in2="comp1" result="comp2"/></filter><filter id="b" width="2.262" height="2.261" x="-.68" y="-.582" color-interpolation-filters="sRGB"><feFlood flood-color="#000" flood-opacity=".4" result="flood"/><feGaussianBlur in="SourceGraphic" result="blur" stdDeviation="40"/><feOffset dx="-20" dy="20" in="blur" result="offset"/><feComposite in="flood" in2="offset" operator="in" result="comp1"/><feComposite in="SourceGraphic" in2="comp1" result="fbSourceGraphic"/><feColorMatrix in="fbSourceGraphic" result="fbSourceGraphicAlpha" values="0 0 0 -1 0 0 0 0 -1 0 0 0 0 -1 0 0 0 0 1 0"/><feFlood flood-color="#000" flood-opacity=".2" result="flood"/><feGaussianBlur in="fbSourceGraphic" result="blur" stdDeviation="20"/><feOffset dx="-4" dy="4" in="blur" result="offset"/><feComposite in="flood" in2="offset" operator="in" result="comp1"/><feComposite in="fbSourceGraphic" in2="comp1" result="comp2"/></filter><path id="c" fill="none" d="M0 0H1024V1024H0z"/></defs><path fill="#fff" d="m 193,58 c -13.85,-6.8e-5 -25,11.15 -25,25 v 858 c 0,13.85 11.15,25 25,25 h 638 c 13.85,0 25,-11.15 25,-25 0,0 -0.004,-609.40334 -0.006,-609.40434 -0.0115,-0.5396 -0.48983,-11.63499 -6.79883,-23.10888 L 727.16587,186.28218 607.13658,66.07759 C 600.03311,60.161839 590.4778,58.524457 581.41002,58.0019 Z" filter="url(#a)" transform="scale(.03125)"/><path fill="#fff" d="m 603.10742,63.296875 c -6.47611,-3.68445 -14.251,-4.865809 -21.69726,-5.294922 L 193,58 c -13.85,-6.8e-5 -25,11.15 -25,25 v 858 c 0,13.85 11.15,25 25,25 h 638 c 13.85,0 25,-11.15 25,-25 0,0 -0.004,-609.4033 -0.006,-609.4043 -0.0108,-0.50492 -0.43123,-10.25259 -5.6543,-20.90429 H 628.10742 c -13.85,0 -25,-11.15 -25,-25 z" transform="scale(.03125)"/><path fill="#fff" d="M 603.10742,63.296875 V 285.69141 c 0,13.85 11.15,25 25,25 h 222.23242 c -0.35869,-0.73152 -0.7391,-1.46774 -1.14453,-2.20508 L 727.16602,186.28125 607.13672,66.078125 c -1.27025,-1.057863 -2.61905,-1.978917 -4.0293,-2.78125 z" filter="url(#b)" transform="scale(.03125)"/><use xlink:href="#c" stroke-width=".8" transform="scale(.03125)"/><g stroke-width=".32"><path fill="#fff" d="m22.268 20.443s-.02-.128-.033-.127l-2.318.224a.377.377 0 0 0 -.34.35l-.064.912-1.793.128-.122-.827a.38.38 0 0 0 -.374-.323h-2.447a.38.38 0 0 0 -.374.323l-.122.827-1.793-.128-.064-.913a.377.377 0 0 0 -.34-.35l-2.32-.223c-.011-.001-.02.127-.032.127l-.003.501 1.964.317.064.921a.38.38 0 0 0 .35.35l2.47.177h.028a.38.38 0 0 0 .373-.322l.125-.851h1.795l.125.851a.38.38 0 0 0 .4.322l2.471-.176a.38.38 0 0 0 .35-.351l.064-.92 1.964-.32z"/><path fill="#478cbf" d="m9.732 16.66v3.783h.02l2.32.224c.120882.01233.215393.109796.224.231l.072 1.024 2.023.144.14-.945c.01825-.121952.122691-.212385.246-.213h2.447c.123688.000122.228694.09067.247.213l.14.945 2.022-.144.072-1.024c.0091-.121156.104074-.218195.225-.23l2.318-.225h.02v-.302h.001v-3.481c.337369-.403598.623887-.872775.873-1.246-.364428-.603874-.793632-1.166199-1.28-1.677-.44.22-.867.472-1.27.738-.202-.2-.43-.364-.653-.536-.22-.176-.466-.305-.701-.456.07-.52.104-1.032.118-1.566-.604936-.295179-1.244149-.514184-1.903-.652-.26.438-.499.913-.707 1.376-.244789-.03861-.492185-.05834-.74-.059h-.01c-.248507.00091-.496575.02097-.742.06-.208692-.472178-.444416-.93194-.706-1.377-.658846.137836-1.298056.35684-1.903.652.014.534.048 1.046.118 1.566-.235.15-.482.28-.701.456-.223.172-.451.336-.653.536-.403-.266-.83-.517-1.27-.738-.4863434.510822-.9155458 1.073144-1.28 1.677.2695251.457258.6077461.88389.873 1.246z"/><path fill="#478cbf" d="m20.188 21.144-.072 1.029a.25.25 0 0 1 -.231.232l-2.47.176a.25.25 0 0 1 -.265-.213l-.142-.96h-2.015l-.142.96a.25.25 0 0 1 -.265.213l-2.47-.176a.25.25 0 0 1 -.231-.232l-.072-1.03-2.085-.2c0 .224.004.47.004.518 0 2.203 2.793 3.261 6.264 3.273h.009c3.47-.012 6.263-1.07 6.263-3.273l.004-.518z"/><path fill="#fff" d="m14.11 18.195a1.397 1.397 0 1 1 -2.794.001 1.397 1.397 0 0 1 2.795 0"/><path fill="#414042" d="m13.774 18.278a.927.927 0 1 1 -1.854 0 .927.927 0 0 1 1.854 0"/><path fill="#fff" d="m16 19.72c-.248 0-.45-.183-.45-.409v-1.286c0-.226.202-.409.45-.409.249 0 .45.183.45.409v1.286c0 .226-.201.41-.45.41m1.89-1.526a1.397 1.397 0 1 0 2.795 0 1.397 1.397 0 0 0 -2.795 0"/><path fill="#414042" d="m18.227 18.278a.927.927 0 1 0 1.854 0 .927.927 0 0 0 -1.854 0"/></g><path fill="#fff" d="m 193,58 c -13.85,0 -25,11.15 -25,25 v 858 c 0,13.85 11.15,25 25,25 h 638 c 13.85,0 25,-11.15 25,-25 V 321.59766 c -0.002,-6.7e-4 -0.004,-0.001 -0.006,-0.002 -0.0799,-3.74989 -0.37203,-8.49999 -2.76953,-10.90429 L 603.10728,59.865194 v 0.0078 C 600.0063,58.600167 596.70653,57.971622 593.41002,58.0019 V 58 Z" filter="url(#d)" transform="matrix(.03125 0 0 .02553 -485 .923)"/><path fill="#fff" d="m 603.10742,59.86523 v 225.82618 c 0,13.85 11.15,25 25,25 H 853.2246 C 781.48812,238.95493 688.60605,145.36386 603.10742,59.86523 Z" filter="url(#e)" transform="matrix(.03125 0 0 .02553 -485 .923)"/><use xlink:href="#c" stroke-width=".8" transform="matrix(.03125 0 0 .02553 -485 .923)"/></svg>
