<svg xmlns="http://www.w3.org/2000/svg" width="32" height="32"><path d="M25.396 9.18c-.736-1.016-4.435-1.245-6.172-1.093.068-2.126.983-3.676-1.186-5.532M5.059 1.536H14.5c2.41-.063 3.955 1.182 5.576 2.652l3.865 3.433c1.994 1.779 2.785 3.457 3 5.88v16.965H5.059z" fill="#eff1f5" stroke="#9f9fa1" stroke-linecap="round" stroke-linejoin="round"/><g stroke-width=".32"><path d="M22.268 20.443s-.02-.128-.033-.127l-2.318.224a.377.377 0 0 0-.34.35l-.064.912-1.793.128-.122-.827a.38.38 0 0 0-.374-.323h-2.447a.38.38 0 0 0-.374.323l-.122.827-1.793-.128-.064-.913a.377.377 0 0 0-.34-.35l-2.32-.223c-.011-.001-.02.127-.032.127l-.003.501 1.964.317.064.921a.38.38 0 0 0 .35.35l2.47.177h.028a.38.38 0 0 0 .373-.322l.125-.851h1.795l.125.851a.38.38 0 0 0 .4.322l2.471-.176a.38.38 0 0 0 .35-.351l.064-.92 1.964-.32z" fill="#fff"/><path d="M9.732 16.66v3.783h.02l2.32.224a.25.25 0 0 1 .224.231l.072 1.024 2.023.144.14-.945a.25.25 0 0 1 .246-.213h2.447a.25.25 0 0 1 .247.213l.14.945 2.022-.144.072-1.024a.25.25 0 0 1 .225-.23l2.318-.225h.02v-.302h.001V16.66h.009c.307-.392.591-.805.864-1.246a9.7 9.7 0 0 0-1.28-1.677c-.44.22-.867.472-1.27.738-.202-.2-.43-.364-.653-.536-.22-.176-.466-.305-.701-.456.07-.52.104-1.032.118-1.566a8.14 8.14 0 0 0-1.903-.652c-.26.438-.499.913-.707 1.376a4.832 4.832 0 0 0-.74-.059h-.01a4.837 4.837 0 0 0-.742.06 13.44 13.44 0 0 0-.706-1.377 8.142 8.142 0 0 0-1.903.652c.014.534.048 1.046.118 1.566-.235.15-.482.28-.701.456-.223.172-.451.336-.653.536-.403-.266-.83-.517-1.27-.738a9.704 9.704 0 0 0-1.28 1.677c.273.44.557.854.864 1.246z" fill="#478cbf"/><path d="M20.188 21.144l-.072 1.029a.25.25 0 0 1-.231.232l-2.47.176a.25.25 0 0 1-.265-.213l-.142-.96h-2.015l-.142.96a.25.25 0 0 1-.265.213l-2.47-.176a.25.25 0 0 1-.231-.232l-.072-1.03-2.085-.2c0 .224.004.47.004.518 0 2.203 2.793 3.261 6.264 3.273h.009c3.47-.012 6.263-1.07 6.263-3.273l.004-.518z" fill="#478cbf"/><path d="M14.11 18.195a1.397 1.397 0 1 1-2.794.001 1.397 1.397 0 0 1 2.795 0" fill="#fff"/><path d="M13.774 18.278a.927.927 0 1 1-1.854 0 .927.927 0 0 1 1.854 0" fill="#414042"/><path d="M16 19.72c-.248 0-.45-.183-.45-.409v-1.286c0-.226.202-.409.45-.409.249 0 .45.183.45.409v1.286c0 .226-.201.41-.45.41m1.89-1.526a1.397 1.397 0 1 0 2.795 0 1.397 1.397 0 0 0-2.795 0" fill="#fff"/><path d="M18.227 18.278a.927.927 0 1 0 1.854 0 .927.927 0 0 0-1.854 0" fill="#414042"/></g></svg>
