<svg xmlns="http://www.w3.org/2000/svg" width="16" height="16"><path fill="#eff1f5" stroke="#9f9fa1" stroke-linecap="round" stroke-linejoin="round" d="m12.698 4.59c-.368-.508-2.218-.623-3.086-.546.034-1.064.492-1.839-.593-2.766m-6.49-.51h4.721c1.205-.032 1.977.591 2.788 1.326l1.932 1.716c.998.89 1.393 1.729 1.5 2.94v8.483h-10.94z"/><path fill="#478cbf" fill-rule="evenodd" d="m7.976 4.51a.642.642 0 0 0 -.263.067l-3.849 1.923a.642.642 0 0 0 -.354.574v3.849a.642.642 0 0 0 .354.574l3.85 1.924a.642.642 0 0 0 .573 0l3.85-1.924a.642.642 0 0 0 .354-.574v-3.85a.642.642 0 0 0 -.355-.573l-3.849-1.924a.642.642 0 0 0 -.31-.066zm.024 1.358 2.415 1.207-.886.444-2.415-1.209zm-3.207 2.246 2.566 1.283v2.414l-2.566-1.283zm6.415 0v2.414l-2.566 1.283v-2.414z"/></svg>
