<svg xmlns="http://www.w3.org/2000/svg" width="32" height="32"><path d="M25.396 9.18c-.736-1.016-4.435-1.245-6.172-1.093.068-2.126.983-3.676-1.186-5.532M5.059 1.536H14.5c2.41-.063 3.955 1.182 5.576 2.652l3.865 3.433c1.994 1.779 2.785 3.457 3 5.88v16.965H5.059z" fill="#eff1f5" stroke="#9f9fa1" stroke-linecap="round" stroke-linejoin="round"/><path style="text-indent:0;text-decoration-line:none;text-decoration-style:solid;text-decoration-color:#000;text-transform:none;isolation:auto;mix-blend-mode:normal" d="M15.964 11.071a.99.99 0 0 0-.406.103l-5.94 2.97a.99.99 0 0 0-.547.885v5.94a.99.99 0 0 0 .547.886l5.94 2.97a.99.99 0 0 0 .885 0l5.94-2.97a.99.99 0 0 0 .547-.886v-5.94a.99.99 0 0 0-.547-.885l-5.94-2.97a.99.99 0 0 0-.48-.103zM16 13.167l3.726 1.862-1.367.685-3.727-1.864 1.368-.683zm-4.95 3.465l3.96 1.98v3.726l-3.96-1.98zm9.9 0v3.726l-3.96 1.98v-3.726z" color="#000" white-space="normal" fill="#478cbf" fill-rule="evenodd"/></svg>
