<svg xmlns="http://www.w3.org/2000/svg" width="1024" height="1024"><path fill="#eff1f5" stroke="#9f9fa1" stroke-linecap="round" stroke-linejoin="round" stroke-width="19.603" d="m812.681 293.783c-23.575-32.543-141.93-39.865-197.505-34.983 2.17-68.048 31.457-117.656-37.966-177.026m-415.32-32.623h302.11c77.128-2.02 126.554 37.835 178.444 84.881l123.665 109.83c63.819 56.94 89.13 110.625 96 188.174v542.886h-700.219z"/><text x="183.282" y="878.644" fill="#333f67" font-family="Montserrat" font-size="16" font-weight="800" letter-spacing="0" word-spacing="0"><tspan x="183.282" y="878.644" font-size="112">RESOURCE</tspan></text><path fill="#478cbf" fill-rule="evenodd" d="m510.825 290.281a31.683 31.683 0 0 0 -12.994 3.28l-190.081 95.039a31.683 31.683 0 0 0 -17.51 28.339v190.08a31.683 31.683 0 0 0 17.51 28.338l190.08 95.04a31.683 31.683 0 0 0 28.338 0l190.08-95.04a31.683 31.683 0 0 0 17.51-28.338v-190.079a31.683 31.683 0 0 0 -17.51-28.34l-190.08-95.04a31.683 31.683 0 0 0 -15.345-3.279zm1.175 67.073 119.234 59.587-43.747 21.904-119.234-59.647 43.747-21.842zm-158.4 110.88 126.72 63.36v119.234l-126.72-63.36zm316.8 0v119.234l-126.72 63.36v-119.234z"/></svg>