<svg xmlns="http://www.w3.org/2000/svg" width="1024" height="1024"><path d="M812.681 293.783c-23.575-32.543-141.93-39.865-197.505-34.983 2.17-68.048 31.457-117.656-37.966-177.026M161.89 49.151H464c77.128-2.02 126.554 37.835 178.444 84.881l123.665 109.83c63.819 56.94 89.13 110.625 96 188.174v542.886H161.89z" fill="#eff1f5" stroke="#9f9fa1" stroke-width="19.603" stroke-linecap="round" stroke-linejoin="round"/><text style="line-height:1.25;-inkscape-font-specification:'Montserrat Ultra-Bold'" x="183.282" y="878.644" font-weight="800" font-size="16" letter-spacing="0" word-spacing="0" font-family="Montserrat" fill="#333f67"><tspan x="183.282" y="878.644" font-size="112">RESOURCE</tspan></text><path style="text-indent:0;text-decoration-line:none;text-decoration-style:solid;text-decoration-color:#000;text-transform:none;isolation:auto;mix-blend-mode:normal" d="M510.825 290.281a31.683 31.683 0 0 0-12.994 3.28L307.75 388.6a31.683 31.683 0 0 0-17.51 28.339v190.08a31.683 31.683 0 0 0 17.51 28.338l190.08 95.04a31.683 31.683 0 0 0 28.338 0l190.08-95.04a31.683 31.683 0 0 0 17.51-28.338V416.94a31.683 31.683 0 0 0-17.51-28.34l-190.08-95.04a31.683 31.683 0 0 0-15.345-3.279zM512 357.354l119.234 59.587-43.747 21.904-119.234-59.647L512 357.356zm-158.4 110.88l126.72 63.36v119.234l-126.72-63.36zm316.8 0v119.234l-126.72 63.36V531.594z" color="#000" white-space="normal" fill-rule="evenodd" fill="#478cbf"/></svg>
