<svg xmlns="http://www.w3.org/2000/svg" width="16" height="16"><path d="M12.698 4.59c-.368-.508-2.218-.623-3.086-.546.034-1.064.492-1.839-.593-2.766m-6.49-.51H7.25c1.205-.032 1.977.591 2.788 1.326L11.97 3.81c.998.89 1.393 1.729 1.5 2.94v8.483H2.53z" fill="#eff1f5" stroke="#9f9fa1" stroke-linecap="round" stroke-linejoin="round"/><path d="M12.101 5.027l-1.372.2.5 1.162 1.049-.153zm-2.581.376l-1.21.177.5 1.162 1.21-.176zm-2.42.353l-1.21.177.501 1.163 1.21-.177zm-2.419.354l-1.048.152.177 1.21 1.372-.2zM3.81 8.083v3.667c0 .676.547 1.223 1.222 1.223h7.335v-4.89z" fill="#478cbf"/></svg>
