<svg xmlns="http://www.w3.org/2000/svg" width="32" height="32"><path d="M25.396 9.18c-.736-1.016-4.435-1.245-6.172-1.093.068-2.126.983-3.676-1.186-5.532M5.059 1.536H14.5c2.41-.063 3.955 1.182 5.576 2.652l3.865 3.433c1.994 1.779 2.785 3.457 3 5.88v16.965H5.059z" fill="#eff1f5" stroke="#9f9fa1" stroke-linecap="round" stroke-linejoin="round"/><path d="M22.329 11.869l-2.117.31.772 1.792 1.617-.236zm-3.983.58l-1.867.273.772 1.794 1.867-.273zm-3.735.545l-1.866.273.772 1.794 1.866-.272zm-3.732.546l-1.618.235.273 1.867 2.117-.31zm-1.345 3.045v5.66c0 1.041.845 1.886 1.887 1.886H22.74v-7.546z" fill="#478cbf"/></svg>
