<svg xmlns="http://www.w3.org/2000/svg" width="1024" height="1024"><path d="M812.681 293.783c-23.575-32.542-141.93-39.864-197.505-34.983 2.17-68.048 31.457-117.655-37.966-177.025M161.89 49.15H464c77.128-2.02 126.554 37.836 178.444 84.882l123.665 109.83c63.819 56.94 89.13 110.624 96 188.174v542.885H161.89z" fill="#eff1f5" stroke="#9f9fa1" stroke-width="19.603" stroke-linecap="round" stroke-linejoin="round"/><text style="line-height:1.25;-inkscape-font-specification:'Montserrat Ultra-Bold'" x="315.088" y="878.644" font-weight="800" font-size="16" font-family="Montserrat" letter-spacing="0" word-spacing="0" fill="#333f67"><tspan x="315.088" y="878.644" font-size="112">SCENE</tspan></text><path d="M714.504 315.805l-67.735 9.904 24.7 57.361 51.76-7.546zm-127.458 18.57l-59.719 8.725 24.702 57.419 59.719-8.725zm-119.498 17.45l-59.719 8.725 24.701 57.419 59.72-8.725zm-119.438 17.45l-51.76 7.546 8.725 59.719 67.736-9.904zm-43.036 97.449v181.104c0 33.34 27.027 60.368 60.368 60.368H727.65V466.724z" fill="#478cbf"/></svg>
