<svg height="16" width="16" xmlns="http://www.w3.org/2000/svg"><path d="m12.698 4.59c-.368-.508-2.218-.623-3.086-.546.034-1.064.492-1.839-.593-2.766m-6.49-.51h4.721c1.205-.032 1.977.591 2.788 1.326l1.932 1.716c.998.89 1.393 1.729 1.5 2.94v8.483h-10.94z" fill="#eff1f5" stroke="#9f9fa1" stroke-linecap="round" stroke-linejoin="round"/><path d="m12.101 5.027-1.372.2.5 1.162 1.049-.153zm-2.581.376-1.21.177.5 1.162 1.21-.176zm-2.42.353-1.21.177.501 1.163 1.21-.177zm-2.419.354-1.048.152.177 1.21 1.372-.2zm-.871 1.973v3.667c0 .676.547 1.223 1.222 1.223h7.335v-4.89z" fill="#478cbf"/></svg>
