<svg height="1024" width="1024" xmlns="http://www.w3.org/2000/svg"><path d="m812.681 293.783c-23.575-32.542-141.93-39.864-197.505-34.983 2.17-68.048 31.457-117.655-37.966-177.025m-415.32-32.625h302.11c77.128-2.02 126.554 37.836 178.444 84.882l123.665 109.83c63.819 56.94 89.13 110.624 96 188.174v542.885h-700.219z" fill="#eff1f5" stroke="#9f9fa1" stroke-linecap="round" stroke-linejoin="round" stroke-width="19.603"/><text style="font-weight:800;font-size:16;font-family:Montserrat;letter-spacing:0;word-spacing:0;fill:#333f67" x="315.088" y="878.644"><tspan font-size="112" x="315.088" y="878.644">SCENE</tspan></text><path d="m714.504 315.805-67.735 9.904 24.7 57.361 51.76-7.546zm-127.458 18.57-59.719 8.725 24.702 57.419 59.719-8.725zm-119.498 17.45-59.719 8.725 24.701 57.419 59.72-8.725zm-119.438 17.45-51.76 7.546 8.725 59.719 67.736-9.904zm-43.036 97.449v181.104c0 33.34 27.027 60.368 60.368 60.368h362.208v-241.472z" fill="#478cbf"/></svg>
