<svg xmlns="http://www.w3.org/2000/svg" xmlns:xlink="http://www.w3.org/1999/xlink" width="16" height="16"><defs><filter id="a" width="1.076" height="1.057" x="-.041" y="-.026" color-interpolation-filters="sRGB"><feFlood flood-color="#000" flood-opacity=".502" result="flood"/><feGaussianBlur in="SourceGraphic" result="blur" stdDeviation="10"/><feOffset dx="-4" dy="4" in="blur" result="offset"/><feComposite in="flood" in2="offset" operator="in" result="comp1"/><feComposite in="SourceGraphic" in2="comp1" result="comp2"/></filter><filter id="b" width="2.262" height="2.261" x="-.68" y="-.582" color-interpolation-filters="sRGB"><feFlood flood-color="#000" flood-opacity=".4" result="flood"/><feGaussianBlur in="SourceGraphic" result="blur" stdDeviation="40"/><feOffset dx="-20" dy="20" in="blur" result="offset"/><feComposite in="flood" in2="offset" operator="in" result="comp1"/><feComposite in="SourceGraphic" in2="comp1" result="fbSourceGraphic"/><feColorMatrix in="fbSourceGraphic" result="fbSourceGraphicAlpha" values="0 0 0 -1 0 0 0 0 -1 0 0 0 0 -1 0 0 0 0 1 0"/><feFlood flood-color="#000" flood-opacity=".2" result="flood"/><feGaussianBlur in="fbSourceGraphic" result="blur" stdDeviation="20"/><feOffset dx="-4" dy="4" in="blur" result="offset"/><feComposite in="flood" in2="offset" operator="in" result="comp1"/><feComposite in="fbSourceGraphic" in2="comp1" result="comp2"/></filter></defs><path fill="#fff" d="m 193,58 c -13.85,-6.8e-5 -25,11.15 -25,25 v 858 c 0,13.85 11.15,25 25,25 h 638 c 13.85,0 25,-11.15 25,-25 0,0 -0.004,-609.40334 -0.006,-609.40434 -0.0115,-0.5396 -0.48983,-11.63499 -6.79883,-23.10888 L 727.16587,186.28218 607.13658,66.07759 C 600.03311,60.161839 590.4778,58.524457 581.41002,58.0019 Z" filter="url(#a)" transform="scale(.01563)"/><path fill="#fff" d="m 603.10742,63.296875 c -6.47611,-3.68445 -14.251,-4.865809 -21.69726,-5.294922 L 193,58 c -13.85,-6.8e-5 -25,11.15 -25,25 v 858 c 0,13.85 11.15,25 25,25 h 638 c 13.85,0 25,-11.15 25,-25 0,0 -0.004,-609.4033 -0.006,-609.4043 -0.0108,-0.50492 -0.43123,-10.25259 -5.6543,-20.90429 H 628.10742 c -13.85,0 -25,-11.15 -25,-25 z" transform="scale(.01563)"/><path fill="#fff" d="M 603.10742,63.296875 V 285.69141 c 0,13.85 11.15,25 25,25 h 222.23242 c -0.35869,-0.73152 -0.7391,-1.46774 -1.14453,-2.20508 L 727.16602,186.28125 607.13672,66.078125 c -1.27025,-1.057863 -2.61905,-1.978917 -4.0293,-2.78125 z" filter="url(#b)" transform="scale(.01563)"/><path fill="none" d="M0 0H1024V1024H0z" transform="scale(.01563)"/><path fill="#478cbf" d="M10.77 5.465a.88.88 0 0 0-.627.264l-.77.78-1.03 1.048-1.027 1.047-.734.744.299.3h1.918l1.027-1.044 1.03-1.047.54-.551a.902.902 0 0 0 .249-.496.91.91 0 0 0-.249-.781.877.877 0 0 0-.626-.264zM8.799 9.648 6.88 9.65l.959.975.959-.977zm-2.975.301a.715.715 0 0 0-.486.24.922.922 0 0 0-.21.506h.003c-.006.046-.014.093-.014.143 0 .73-1.19.15-.613.904.096.126.227.28.437.492.462.47 1.39.351 1.852-.119a1.21 1.21 0 0 0 .246-.373 1.22 1.22 0 0 0-.047-1.047 1.19 1.19 0 0 0-.199-.283c-.288-.293-.576-.436-.83-.46a.715.715 0 0 0-.139-.003z"/></svg>
