<svg width="16" height="16" xmlns="http://www.w3.org/2000/svg"><path d="M12.698 4.59c-.368-.508-2.218-.623-3.086-.546.034-1.064.492-1.839-.593-2.766m-6.49-.51H7.25c1.205-.032 1.977.591 2.788 1.326L11.97 3.81c.998.89 1.393 1.729 1.5 2.94v8.483H2.53z" fill="#eff1f5" stroke="#9f9fa1" stroke-linecap="round" stroke-linejoin="round"/><path d="M10.77 5.465a.88.88 0 0 0-.627.264l-.77.78-1.03 1.048-1.027 1.047-.734.744.299.3h1.918l1.027-1.044 1.03-1.047.54-.551a.902.902 0 0 0 .249-.496.91.91 0 0 0-.249-.781.877.877 0 0 0-.626-.264zM8.799 9.648 6.88 9.65l.959.975.959-.977zm-2.975.301a.715.715 0 0 0-.486.24.922.922 0 0 0-.21.506h.003c-.006.046-.014.093-.014.143 0 .73-1.19.15-.613.904.096.126.227.28.437.492.462.47 1.39.351 1.852-.119a1.21 1.21 0 0 0 .246-.373 1.22 1.22 0 0 0-.047-1.047 1.19 1.19 0 0 0-.199-.283c-.288-.293-.576-.436-.83-.46a.715.715 0 0 0-.139-.003z" style="fill:#478cbf;fill-opacity:1"/></svg>
