<svg xmlns="http://www.w3.org/2000/svg" width="1024" height="1024"><path fill="#eff1f5" stroke="#9f9fa1" stroke-linecap="round" stroke-linejoin="round" stroke-width="19.603" d="M812.681 293.783c-23.575-32.543-141.93-39.865-197.505-34.983 2.17-68.048 31.457-117.656-37.966-177.026M161.89 49.151H464c77.128-2.02 126.554 37.835 178.444 84.881l123.665 109.83c63.819 56.94 89.13 110.625 96 188.174v542.886H161.89z"/><text x="249.582" y="878.644" fill="#333f67" font-family="Montserrat" font-size="16" font-weight="800" letter-spacing="0" word-spacing="0"><tspan x="249.582" y="878.644" font-size="112">SHADER</tspan></text><path fill="#478cbf" d="M640.44 348.066c-10.54 0-21.102 4.097-29.145 12.276l-35.64 36.254-47.725 48.529h-.004l-47.676 48.53-33.98 34.546 13.744 13.98h89.002l47.675-48.529 47.723-48.527h.006l25.12-25.543c6.375-6.486 10.147-14.571 11.468-22.986h-.002c2.01-12.81-1.762-26.38-11.469-36.254-8.042-8.18-18.558-12.276-29.098-12.276zM460.013 542.184l44.502 45.257 44.5-45.257h-89.002zm-46.848 13.834c-9.932.124-18.509 4.228-24.668 11.236-5.21 5.927-8.55 14.024-9.668 23.459-.254 2.153-.52 4.295-.52 6.588 0 33.842-55.28 6.971-28.53 41.94h117.626c6.64-15.57 5.836-33.447-2.13-48.528h-.003c-2.48-4.695-5.392-9.213-9.289-13.176-13.348-13.578-26.713-20.143-38.48-21.326h-.002a38.536 38.536 0 0 0-4.336-.193zm-63.387 83.224c4.467 5.84 10.605 12.952 20.33 22.844 21.446 21.814 64.428 16.264 85.875-5.547 5.035-5.12 8.751-11.034 11.422-17.297H349.78z"/></svg>