<svg xmlns="http://www.w3.org/2000/svg" width="32" height="32"><path fill="#eff1f5" stroke="#9f9fa1" stroke-linecap="round" stroke-linejoin="round" d="M25.396 9.18c-.736-1.016-4.435-1.245-6.172-1.093.068-2.126.983-3.676-1.186-5.532M5.059 1.536H14.5c2.41-.063 3.955 1.182 5.576 2.652l3.865 3.433c1.994 1.779 2.785 3.457 3 5.88v16.965H5.059z"/><path fill="#478cbf" d="M21.295 11.242c-.434 0-.871.17-1.201.506l-1.471 1.494-1.965 2h-.002l-1.963 2-1.4 1.426.566.574 1.834 1.867 1.834-1.867 1.963-2 1.967-2 1.037-1.05a1.73 1.73 0 0 0 .473-.95 1.74 1.74 0 0 0-.475-1.494 1.676 1.676 0 0 0-1.197-.506zm-9.453 8.572a1.367 1.367 0 0 0-.932.463c-.215.244-.35.577-.396.965-.01.09-.024.179-.024.274 0 1.395-2.277.285-1.174 1.726.184.241.436.536.836.944.884.899 2.657.668 3.541-.23.207-.21.36-.455.47-.714a2.33 2.33 0 0 0-.089-2 2.273 2.273 0 0 0-.383-.543c-.55-.56-1.099-.829-1.584-.877a1.367 1.367 0 0 0-.265-.008z"/></svg>