<svg xmlns="http://www.w3.org/2000/svg" xmlns:xlink="http://www.w3.org/1999/xlink" width="1024" height="1024"><defs><filter id="a" width="1.076" height="1.057" x="-.041" y="-.026" color-interpolation-filters="sRGB"><feFlood flood-color="#000" flood-opacity=".502" result="flood"/><feGaussianBlur in="SourceGraphic" result="blur" stdDeviation="10"/><feOffset dx="-4" dy="4" in="blur" result="offset"/><feComposite in="flood" in2="offset" operator="in" result="comp1"/><feComposite in="SourceGraphic" in2="comp1" result="comp2"/></filter><filter id="b" width="2.262" height="2.261" x="-.68" y="-.582" color-interpolation-filters="sRGB"><feFlood flood-color="#000" flood-opacity=".4" result="flood"/><feGaussianBlur in="SourceGraphic" result="blur" stdDeviation="40"/><feOffset dx="-20" dy="20" in="blur" result="offset"/><feComposite in="flood" in2="offset" operator="in" result="comp1"/><feComposite in="SourceGraphic" in2="comp1" result="fbSourceGraphic"/><feColorMatrix in="fbSourceGraphic" result="fbSourceGraphicAlpha" values="0 0 0 -1 0 0 0 0 -1 0 0 0 0 -1 0 0 0 0 1 0"/><feFlood flood-color="#000" flood-opacity=".2" result="flood"/><feGaussianBlur in="fbSourceGraphic" result="blur" stdDeviation="20"/><feOffset dx="-4" dy="4" in="blur" result="offset"/><feComposite in="flood" in2="offset" operator="in" result="comp1"/><feComposite in="fbSourceGraphic" in2="comp1" result="comp2"/></filter></defs><path fill="#fff" d="m 193,58 c -13.85,-6.8e-5 -25,11.15 -25,25 v 858 c 0,13.85 11.15,25 25,25 h 638 c 13.85,0 25,-11.15 25,-25 0,0 -0.004,-609.40334 -0.006,-609.40434 -0.0115,-0.5396 -0.48983,-11.63499 -6.79883,-23.10888 L 727.16587,186.28218 607.13658,66.07759 C 600.03311,60.161839 590.4778,58.524457 581.41002,58.0019 Z" filter="url(#a)"/><path fill="#fff" d="m 603.10742,63.296875 c -6.47611,-3.68445 -14.251,-4.865809 -21.69726,-5.294922 L 193,58 c -13.85,-6.8e-5 -25,11.15 -25,25 v 858 c 0,13.85 11.15,25 25,25 h 638 c 13.85,0 25,-11.15 25,-25 0,0 -0.004,-609.4033 -0.006,-609.4043 -0.0108,-0.50492 -0.43123,-10.25259 -5.6543,-20.90429 H 628.10742 c -13.85,0 -25,-11.15 -25,-25 z"/><path fill="#fff" d="M 603.10742,63.296875 V 285.69141 c 0,13.85 11.15,25 25,25 h 222.23242 c -0.35869,-0.73152 -0.7391,-1.46774 -1.14453,-2.20508 L 727.16602,186.28125 607.13672,66.078125 c -1.27025,-1.057863 -2.61905,-1.978917 -4.0293,-2.78125 z" filter="url(#b)"/><path fill="none" d="M0 0H1024V1024H0z"/><text x="249.719" y="878.644" fill="#333f67" font-family="Montserrat" font-size="16" font-weight="800" letter-spacing="0" word-spacing="0"><tspan x="249.719" y="878.644" font-size="112">SHADER</tspan></text><path fill="#478cbf" d="m 640.44,378.066 c -10.54,0 -21.102,4.097 -29.145,12.276 l -35.64,36.254 -47.725,48.529 h -0.004 l -47.676,48.53 -33.98,34.546 13.744,13.98 h 89.002 l 47.675,-48.529 47.723,-48.527 h 0.006 l 25.12,-25.543 c 6.375,-6.486 10.147,-14.571 11.468,-22.986 h -0.002 c 2.01,-12.81 -1.762,-26.38 -11.469,-36.254 -8.042,-8.18 -18.558,-12.276 -29.098,-12.276 z m -180.427,194.118 44.502,45.257 44.5,-45.257 z m -46.848,13.834 c -9.932,0.124 -18.509,4.228 -24.668,11.236 -5.21,5.927 -8.55,14.024 -9.668,23.459 -0.254,2.153 -0.52,4.295 -0.52,6.588 0,33.842 -55.28,6.971 -28.53,41.94 h 117.626 c 6.64,-15.57 5.836,-33.447 -2.13,-48.528 h -0.003 c -2.48,-4.695 -5.392,-9.213 -9.289,-13.176 -13.348,-13.578 -26.713,-20.143 -38.48,-21.326 h -0.002 a 38.536,38.536 0 0 0 -4.336,-0.193 z m -63.387,83.224 c 4.467,5.84 10.605,12.952 20.33,22.844 21.446,21.814 64.428,16.264 85.875,-5.547 5.035,-5.12 8.751,-11.034 11.422,-17.297 H 349.78 Z"/></svg>
