<?xml version="1.0" encoding="UTF-8" standalone="no"?>
<!-- Created with Inkscape (http://www.inkscape.org/) -->

<svg
   xmlns:dc="http://purl.org/dc/elements/1.1/"
   xmlns:cc="http://creativecommons.org/ns#"
   xmlns:rdf="http://www.w3.org/1999/02/22-rdf-syntax-ns#"
   xmlns:svg="http://www.w3.org/2000/svg"
   xmlns="http://www.w3.org/2000/svg"
   xmlns:sodipodi="http://sodipodi.sourceforge.net/DTD/sodipodi-0.dtd"
   xmlns:inkscape="http://www.inkscape.org/namespaces/inkscape"
   width="16"
   height="16"
   viewBox="0 0 16 16"
   id="svg2"
   version="1.1"
   inkscape:version="0.91 r13725"
   inkscape:export-filename="/home/djrm/Projects/godot/tools/editor/icons/icon_color.png"
   inkscape:export-xdpi="90"
   inkscape:export-ydpi="90"
   sodipodi:docname="icon_color.svg">
  <defs
     id="defs4">
    <clipPath
       clipPathUnits="userSpaceOnUse"
       id="clipPath4253">
      <path
         style="fill:#ffffff;fill-opacity:1;stroke:none;stroke-width:4;stroke-linecap:round;stroke-linejoin:round;stroke-miterlimit:4;stroke-dasharray:none;stroke-opacity:1"
         d="m 16.458984,1024.37 a 12.000027,12.000027 0 0 0 -3.564453,0.4004 12.000027,12.000027 0 0 0 -8.4863279,14.6973 12.000027,12.000027 0 0 0 14.6972659,8.4863 12.000027,12.000027 0 0 0 8.486328,-14.6973 12.000027,12.000027 0 0 0 -11.132813,-8.8867 z M 16.25,1029.8212 a 6.5451717,6.5451717 0 0 1 6.072266,4.8476 6.5451717,6.5451717 0 0 1 -4.628907,8.0157 6.5451717,6.5451717 0 0 1 -8.0156246,-4.6289 6.5451717,6.5451717 0 0 1 4.6289066,-8.0157 6.5451717,6.5451717 0 0 1 1.943359,-0.2187 z"
         id="path4255"
         inkscape:connector-curvature="0" />
    </clipPath>
    <clipPath
       clipPathUnits="userSpaceOnUse"
       id="clipPath4218">
      <path
         style="opacity:1;fill:#ffffff;fill-opacity:1;stroke:none;stroke-width:2;stroke-linecap:round;stroke-linejoin:round;stroke-miterlimit:4;stroke-dasharray:none;stroke-dashoffset:0;stroke-opacity:0.99607843"
         d="m 8,1037.3622 a 7.0000172,7.0000172 0 0 0 -7,7 7.0000172,7.0000172 0 0 0 7,7 7.0000172,7.0000172 0 0 0 7,-7 7.0000172,7.0000172 0 0 0 -7,-7 z m 0,3 a 4,4 0 0 1 4,4 4,4 0 0 1 -4,4 4,4 0 0 1 -4,-4 4,4 0 0 1 4,-4 z"
         id="path4221"
         inkscape:connector-curvature="0" />
    </clipPath>
  </defs>
  <sodipodi:namedview
     id="base"
     pagecolor="#ffffff"
     bordercolor="#666666"
     borderopacity="1.0"
     inkscape:pageopacity="0.0"
     inkscape:pageshadow="2"
     inkscape:zoom="31.999998"
     inkscape:cx="4.4710872"
     inkscape:cy="8.9389443"
     inkscape:document-units="px"
     inkscape:current-layer="layer1"
     showgrid="true"
     units="px"
     inkscape:snap-bbox="true"
     inkscape:bbox-paths="true"
     inkscape:bbox-nodes="true"
     inkscape:snap-bbox-edge-midpoints="true"
     inkscape:snap-bbox-midpoints="true"
     inkscape:snap-object-midpoints="true"
     inkscape:snap-center="true"
     inkscape:window-width="1920"
     inkscape:window-height="1016"
     inkscape:window-x="0"
     inkscape:window-y="27"
     inkscape:window-maximized="1"
     showguides="true">
    <inkscape:grid
       type="xygrid"
       id="grid3336" />
  </sodipodi:namedview>
  <metadata
     id="metadata7">
    <rdf:RDF>
      <cc:Work
         rdf:about="">
        <dc:format>image/svg+xml</dc:format>
        <dc:type
           rdf:resource="http://purl.org/dc/dcmitype/StillImage" />
        <dc:title />
      </cc:Work>
    </rdf:RDF>
  </metadata>
  <g
     inkscape:label="Layer 1"
     inkscape:groupmode="layer"
     id="layer1"
     transform="translate(0,-1036.3622)">
    <circle
       style="opacity:1;fill:#ffffff;fill-opacity:1;stroke:none;stroke-width:2;stroke-linecap:square;stroke-linejoin:round;stroke-miterlimit:4;stroke-dasharray:none;stroke-dashoffset:0;stroke-opacity:1"
       id="path4151"
       cx="8"
       cy="1044.3622"
       r="8" />
    <g
       id="g4204"
       clip-path="url(#clipPath4218)">
      <path
         inkscape:transform-center-y="-3.5000174"
         d="m 6.1882667,1037.6007 a 7,7 0 0 1 3.6234668,0 L 8,1044.3622 Z"
         sodipodi:end="4.9741884"
         sodipodi:start="4.4505896"
         sodipodi:ry="7"
         sodipodi:rx="7"
         sodipodi:cy="1044.3622"
         sodipodi:cx="8"
         sodipodi:type="arc"
         id="path4153"
         style="opacity:1;fill:#ff0000;fill-opacity:1;stroke:none;stroke-width:2;stroke-linecap:round;stroke-linejoin:round;stroke-miterlimit:4;stroke-dasharray:none;stroke-dashoffset:0;stroke-opacity:0.99607843" />
      <path
         inkscape:transform-center-x="-2.4749025"
         transform="matrix(0.8660254,0.5,-0.5,0.8660254,0,0)"
         style="opacity:1;fill:#ff4d00;fill-opacity:1;stroke:none;stroke-width:2;stroke-linecap:round;stroke-linejoin:round;stroke-miterlimit:4;stroke-dasharray:none;stroke-dashoffset:0;stroke-opacity:0.99607843"
         id="path4157"
         sodipodi:type="arc"
         sodipodi:cx="529.10931"
         sodipodi:cy="900.44415"
         sodipodi:rx="7"
         sodipodi:ry="7"
         sodipodi:start="4.4505896"
         sodipodi:end="4.9741884"
         d="m 527.29758,893.68267 a 7,7 0 0 1 3.62347,0 l -1.81174,6.76148 z"
         inkscape:transform-center-y="-3.3807758" />
      <path
         inkscape:transform-center-y="-2.4748757"
         d="m 906.63248,508.49139 a 7,7 0 0 1 3.62347,0 l -1.81174,6.76148 z"
         sodipodi:end="4.9741884"
         sodipodi:start="4.4505896"
         sodipodi:ry="7"
         sodipodi:rx="7"
         sodipodi:cy="515.25287"
         sodipodi:cx="908.44421"
         sodipodi:type="arc"
         id="path4159"
         style="opacity:1;fill:#ff9900;fill-opacity:1;stroke:none;stroke-width:2;stroke-linecap:round;stroke-linejoin:round;stroke-miterlimit:4;stroke-dasharray:none;stroke-dashoffset:0;stroke-opacity:0.99607843"
         transform="matrix(0.5,0.8660254,-0.8660254,0.5,0,0)"
         inkscape:transform-center-x="-3.3807755" />
      <path
         inkscape:transform-center-x="-3.500017"
         transform="matrix(0,1,-1,0,0,0)"
         style="opacity:1;fill:#ffca00;fill-opacity:1;stroke:none;stroke-width:2;stroke-linecap:round;stroke-linejoin:round;stroke-miterlimit:4;stroke-dasharray:none;stroke-dashoffset:0;stroke-opacity:0.99607843"
         id="path4161"
         sodipodi:type="arc"
         sodipodi:cx="1044.3622"
         sodipodi:cy="-8.0000172"
         sodipodi:rx="7"
         sodipodi:ry="7"
         sodipodi:start="4.4505896"
         sodipodi:end="4.9741884"
         d="m 1042.5504,-14.761498 a 7,7 0 0 1 3.6235,0 l -1.8117,6.7614808 z"
         inkscape:transform-center-y="-1.7222787e-05" />
      <path
         inkscape:transform-center-y="2.4749218"
         d="m 898.63248,-535.87086 a 7,7 0 0 1 3.62347,0 l -1.81174,6.76149 z"
         sodipodi:end="4.9741884"
         sodipodi:start="4.4505896"
         sodipodi:ry="7"
         sodipodi:rx="7"
         sodipodi:cy="-529.10938"
         sodipodi:cx="900.44421"
         sodipodi:type="arc"
         id="path4163"
         style="opacity:1;fill:#ffff00;fill-opacity:1;stroke:none;stroke-width:2;stroke-linecap:round;stroke-linejoin:round;stroke-miterlimit:4;stroke-dasharray:none;stroke-dashoffset:0;stroke-opacity:0.99607843"
         transform="matrix(-0.5,0.8660254,-0.8660254,-0.5,0,0)"
         inkscape:transform-center-x="-3.3807914" />
      <path
         inkscape:transform-center-x="-2.4748559"
         transform="matrix(-0.8660254,0.5,-0.5,-0.8660254,0,0)"
         style="opacity:1;fill:#9fff00;fill-opacity:1;stroke:none;stroke-width:2;stroke-linecap:round;stroke-linejoin:round;stroke-miterlimit:4;stroke-dasharray:none;stroke-dashoffset:0;stroke-opacity:0.99607843"
         id="path4165"
         sodipodi:type="arc"
         sodipodi:cx="515.25293"
         sodipodi:cy="-908.44421"
         sodipodi:rx="7"
         sodipodi:ry="7"
         sodipodi:start="4.4505896"
         sodipodi:end="4.9741884"
         d="m 513.4412,-915.20569 a 7,7 0 0 1 3.62346,0 l -1.81173,6.76148 z"
         inkscape:transform-center-y="3.3807689" />
      <path
         inkscape:transform-center-y="3.4999826"
         d="m -9.8117504,-1051.1237 a 7,7 0 0 1 3.6234668,0 l -1.8117336,6.7615 z"
         sodipodi:end="4.9741884"
         sodipodi:start="4.4505896"
         sodipodi:ry="7"
         sodipodi:rx="7"
         sodipodi:cy="-1044.3622"
         sodipodi:cx="-8.0000172"
         sodipodi:type="arc"
         id="path4167"
         style="opacity:1;fill:#00ff00;fill-opacity:1;stroke:none;stroke-width:2;stroke-linecap:round;stroke-linejoin:round;stroke-miterlimit:4;stroke-dasharray:none;stroke-dashoffset:0;stroke-opacity:0.99607843"
         transform="scale(-1,-1)"
         inkscape:transform-center-x="-1.6750127e-05" />
      <path
         inkscape:transform-center-x="2.4749062"
         transform="matrix(-0.8660254,-0.5,0.5,-0.8660254,0,0)"
         style="opacity:1;fill:#00ffaa;fill-opacity:1;stroke:none;stroke-width:2;stroke-linecap:round;stroke-linejoin:round;stroke-miterlimit:4;stroke-dasharray:none;stroke-dashoffset:0;stroke-opacity:0.99607843"
         id="path4169"
         sodipodi:type="arc"
         sodipodi:cx="-529.10931"
         sodipodi:cy="-900.44427"
         sodipodi:rx="7"
         sodipodi:ry="7"
         sodipodi:start="4.4505896"
         sodipodi:end="4.9741884"
         d="m -530.92105,-907.20576 a 7,7 0 0 1 3.62347,0 l -1.81173,6.76149 z"
         inkscape:transform-center-y="3.3808107" />
      <path
         inkscape:transform-center-y="2.4748493"
         d="m -910.25589,-522.01441 a 7,7 0 0 1 3.62347,0 l -1.81173,6.76148 z"
         sodipodi:end="4.9741884"
         sodipodi:start="4.4505896"
         sodipodi:ry="7"
         sodipodi:rx="7"
         sodipodi:cy="-515.25293"
         sodipodi:cx="-908.44415"
         sodipodi:type="arc"
         id="path4171"
         style="opacity:1;fill:#0000ff;fill-opacity:1;stroke:none;stroke-width:2;stroke-linecap:round;stroke-linejoin:round;stroke-miterlimit:4;stroke-dasharray:none;stroke-dashoffset:0;stroke-opacity:0.99607843"
         transform="matrix(-0.5,-0.8660254,0.8660254,-0.5,0,0)"
         inkscape:transform-center-x="3.3807887" />
      <path
         inkscape:transform-center-x="3.4999821"
         transform="matrix(0,-1,1,0,0,0)"
         style="opacity:1;fill:#9000ff;fill-opacity:1;stroke:none;stroke-width:2;stroke-linecap:round;stroke-linejoin:round;stroke-miterlimit:4;stroke-dasharray:none;stroke-dashoffset:0;stroke-opacity:0.99607843"
         id="path4173"
         sodipodi:type="arc"
         sodipodi:cx="-1044.3622"
         sodipodi:cy="8.0000181"
         sodipodi:rx="7"
         sodipodi:ry="7"
         sodipodi:start="4.4505896"
         sodipodi:end="4.9741884"
         d="m -1046.1739,1.2385373 a 7,7 0 0 1 3.6235,1e-7 l -1.8118,6.7614807 z"
         inkscape:transform-center-y="-1.7714781e-05" />
      <path
         inkscape:transform-center-y="-2.474887"
         d="m -902.25595,522.34777 a 7,7 0 0 1 3.62347,0 l -1.81173,6.76148 z"
         sodipodi:end="4.9741884"
         sodipodi:start="4.4505896"
         sodipodi:ry="7"
         sodipodi:rx="7"
         sodipodi:cy="529.10925"
         sodipodi:cx="-900.44421"
         sodipodi:type="arc"
         id="path4175"
         style="opacity:1;fill:#ff00ee;fill-opacity:1;stroke:none;stroke-width:2;stroke-linecap:round;stroke-linejoin:round;stroke-miterlimit:4;stroke-dasharray:none;stroke-dashoffset:0;stroke-opacity:0.99607843"
         transform="matrix(0.5,-0.8660254,0.8660254,0.5,0,0)"
         inkscape:transform-center-x="3.3807952" />
      <path
         inkscape:transform-center-x="2.4748691"
         transform="matrix(0.8660254,-0.5,0.5,0.8660254,0,0)"
         style="opacity:1;fill:#ff009a;fill-opacity:1;stroke:none;stroke-width:2;stroke-linecap:round;stroke-linejoin:round;stroke-miterlimit:4;stroke-dasharray:none;stroke-dashoffset:0;stroke-opacity:0.99607843"
         id="path4177"
         sodipodi:type="arc"
         sodipodi:cx="-515.25287"
         sodipodi:cy="908.44415"
         sodipodi:rx="7"
         sodipodi:ry="7"
         sodipodi:start="4.4505896"
         sodipodi:end="4.9741884"
         d="m -517.0646,901.68267 a 7,7 0 0 1 3.62346,0 l -1.81173,6.76148 z"
         inkscape:transform-center-y="-3.3807953" />
    </g>
  </g>
</svg>
