<?xml version="1.0" encoding="UTF-8" standalone="no"?>
<!-- Created with Inkscape (http://www.inkscape.org/) -->

<svg
   xmlns:dc="http://purl.org/dc/elements/1.1/"
   xmlns:cc="http://creativecommons.org/ns#"
   xmlns:rdf="http://www.w3.org/1999/02/22-rdf-syntax-ns#"
   xmlns:svg="http://www.w3.org/2000/svg"
   xmlns="http://www.w3.org/2000/svg"
   xmlns:sodipodi="http://sodipodi.sourceforge.net/DTD/sodipodi-0.dtd"
   xmlns:inkscape="http://www.inkscape.org/namespaces/inkscape"
   width="16"
   height="16"
   viewBox="0 0 16 16"
   id="svg2"
   version="1.1"
   inkscape:version="0.91 r13725"
   inkscape:export-filename="/home/djrm/Projects/godot/tools/editor/icons/icon_canvas_item.png"
   inkscape:export-xdpi="90"
   inkscape:export-ydpi="90"
   sodipodi:docname="icon_canvas_layer.svg">
  <defs
     id="defs4" />
  <sodipodi:namedview
     id="base"
     pagecolor="#ffffff"
     bordercolor="#666666"
     borderopacity="1.0"
     inkscape:pageopacity="0.0"
     inkscape:pageshadow="2"
     inkscape:zoom="22.627417"
     inkscape:cx="-2.2677599"
     inkscape:cy="10.08915"
     inkscape:document-units="px"
     inkscape:current-layer="layer1"
     showgrid="true"
     units="px"
     inkscape:snap-bbox="true"
     inkscape:bbox-paths="true"
     inkscape:bbox-nodes="true"
     inkscape:snap-bbox-edge-midpoints="true"
     inkscape:snap-bbox-midpoints="false"
     inkscape:snap-object-midpoints="true"
     inkscape:snap-center="true"
     inkscape:window-width="1920"
     inkscape:window-height="1016"
     inkscape:window-x="0"
     inkscape:window-y="27"
     inkscape:window-maximized="1"
     inkscape:snap-midpoints="true"
     inkscape:snap-smooth-nodes="true"
     inkscape:object-nodes="true"
     inkscape:snap-intersection-paths="false"
     inkscape:object-paths="false">
    <inkscape:grid
       type="xygrid"
       id="grid3336" />
  </sodipodi:namedview>
  <metadata
     id="metadata7">
    <rdf:RDF>
      <cc:Work
         rdf:about="">
        <dc:format>image/svg+xml</dc:format>
        <dc:type
           rdf:resource="http://purl.org/dc/dcmitype/StillImage" />
        <dc:title />
      </cc:Work>
    </rdf:RDF>
  </metadata>
  <g
     inkscape:label="Layer 1"
     inkscape:groupmode="layer"
     id="layer1"
     transform="translate(0,-1036.3622)">
    <path
       style="fill:#e0e0e0;fill-opacity:0.99607843;stroke:none;stroke-width:4;stroke-linecap:round;stroke-linejoin:miter;stroke-miterlimit:4;stroke-dasharray:none;stroke-opacity:1"
       d="M 3 1 A 2 2 0 0 0 1 3 L 1 9 L 2 9 L 2 3 A 1.0000174 1.0000174 0 0 1 3 2 L 9 2 L 9 1 L 3 1 z M 13.302734 1 C 12.868331 1 12.433001 1.1688094 12.101562 1.5058594 L 5.3007812 8.4238281 L 7.7011719 10.865234 L 14.501953 3.9472656 C 15.164816 3.2730656 15.164816 2.1800594 14.501953 1.5058594 C 14.170515 1.1688094 13.737138 1 13.302734 1 z M 14 7 L 14 13 A 1.0000174 1.0000174 0 0 1 13 14 L 7 14 L 7 15 L 13 15 A 2 2 0 0 0 15 13 L 15 7 L 14 7 z M 4.1152344 9.578125 C 3.6302227 9.5294 3.2100212 9.7031531 2.9199219 10.033203 C 2.6561955 10.333203 2.5 10.762784 2.5 11.271484 C 2.5 12.899184 -0.63846349 11.093006 2.1621094 13.941406 C 3.0459301 14.840406 4.817336 14.611791 5.7011719 13.712891 C 6.5850071 12.813891 6.5849882 11.355931 5.7011719 10.457031 C 5.1510613 9.8974813 4.6002461 9.62685 4.1152344 9.578125 z "
       transform="translate(0,1036.3622)"
       id="path4146" />
  </g>
</svg>
