<?xml version="1.0" encoding="UTF-8" standalone="no"?>
<!-- Created with Inkscape (http://www.inkscape.org/) -->

<svg
   xmlns:dc="http://purl.org/dc/elements/1.1/"
   xmlns:cc="http://creativecommons.org/ns#"
   xmlns:rdf="http://www.w3.org/1999/02/22-rdf-syntax-ns#"
   xmlns:svg="http://www.w3.org/2000/svg"
   xmlns="http://www.w3.org/2000/svg"
   xmlns:sodipodi="http://sodipodi.sourceforge.net/DTD/sodipodi-0.dtd"
   xmlns:inkscape="http://www.inkscape.org/namespaces/inkscape"
   width="32"
   height="32"
   viewBox="0 0 32.000001 32.000001"
   id="svg2"
   version="1.1"
   inkscape:version="0.91 r13725"
   inkscape:export-filename="/home/djrm/Projects/godot/tools/editor/icons/icon_confirmation_dialog.png"
   inkscape:export-xdpi="45"
   inkscape:export-ydpi="45"
   sodipodi:docname="icon_confirmation_dialog.svg">
  <defs
     id="defs4" />
  <sodipodi:namedview
     id="base"
     pagecolor="#ffffff"
     bordercolor="#666666"
     borderopacity="1.0"
     inkscape:pageopacity="0.0"
     inkscape:pageshadow="2"
     inkscape:zoom="18.274291"
     inkscape:cx="9.5135518"
     inkscape:cy="12.761146"
     inkscape:document-units="px"
     inkscape:current-layer="layer1"
     showgrid="true"
     units="px"
     inkscape:snap-bbox="true"
     inkscape:bbox-paths="true"
     inkscape:bbox-nodes="true"
     inkscape:snap-bbox-edge-midpoints="true"
     inkscape:snap-bbox-midpoints="true"
     inkscape:snap-object-midpoints="true"
     inkscape:snap-center="true"
     inkscape:window-width="1920"
     inkscape:window-height="1016"
     inkscape:window-x="0"
     inkscape:window-y="27"
     inkscape:window-maximized="1">
    <inkscape:grid
       type="xygrid"
       id="grid3336" />
    <sodipodi:guide
       position="4.0000001,28.000018"
       orientation="1,2.7777727e-09"
       id="guide4140" />
    <sodipodi:guide
       position="4.0000001,4.0000175"
       orientation="0,24"
       id="guide4142" />
    <sodipodi:guide
       position="28.000001,4.0000175"
       orientation="-24,0"
       id="guide4144" />
    <sodipodi:guide
       position="28.000001,28.000018"
       orientation="0,-24"
       id="guide4146" />
  </sodipodi:namedview>
  <metadata
     id="metadata7">
    <rdf:RDF>
      <cc:Work
         rdf:about="">
        <dc:format>image/svg+xml</dc:format>
        <dc:type
           rdf:resource="http://purl.org/dc/dcmitype/StillImage" />
        <dc:title></dc:title>
      </cc:Work>
    </rdf:RDF>
  </metadata>
  <g
     inkscape:label="Layer 1"
     inkscape:groupmode="layer"
     id="layer1"
     transform="translate(0,-1020.3622)">
    <path
       style="fill:#a5efac;fill-opacity:1;stroke:none;stroke-width:2;stroke-linecap:round;stroke-linejoin:round;stroke-miterlimit:4;stroke-dasharray:none;stroke-opacity:1"
       d="M 7 4 C 5.0399735 4.3621427 4.3081079 5.3033026 4.0019531 7 L 4 7 L 4 7.0703125 L 4 18.101562 L 7 15.101562 L 7 13 L 25 13 L 25 15.162109 L 25.181641 14.980469 L 28 17.798828 L 28 7 C 27.999991 5.3431497 26.65685 4.0000095 25 4 L 7 4 z M 7 7 L 25 7 L 25 10 L 7 10 L 7 7 z M 28 23.474609 L 24.828125 26.646484 L 23.474609 28 C 23.983024 28.000053 24.491609 28 25 28 C 26.656857 27.999995 28.000002 26.65685 28 25 L 28 23.474609 z M 16.152344 25.748047 L 13.902344 27.998047 C 15.402508 27.998196 16.902297 27.997684 18.402344 27.998047 L 17.050781 26.646484 L 16.152344 25.748047 z "
       transform="translate(0,1020.3622)"
       id="rect4142" />
    <path
       style="opacity:1;fill:#a5efac;fill-opacity:1;stroke:none;stroke-width:4;stroke-linecap:round;stroke-linejoin:round;stroke-miterlimit:4;stroke-dasharray:none;stroke-opacity:1"
       d="m 5,1040.9983 2.121321,2.1213 L 5,1045.2409 l 2.121321,2.1213 2.12132,-2.1213 2.12132,2.1213 2.121321,-2.1213 -2.121321,-2.1213 2.121321,-2.1213 -2.121321,-2.1213 -2.12132,2.1213 -2.12132,-2.1213 L 5,1040.9983 Z"
       id="rect4159"
       inkscape:connector-curvature="0" />
    <path
       style="opacity:1;fill:#a5efac;fill-opacity:1;stroke:none;stroke-width:4;stroke-linecap:round;stroke-linejoin:round;stroke-miterlimit:4;stroke-dasharray:none;stroke-opacity:1"
       d="m 16.696699,1043.1196 2.12132,2.1213 2.121321,2.1213 2.12132,-2.1213 4.242641,-4.2427 -2.12132,-2.1213 -4.242641,4.2427 -2.121321,-2.1214 -2.12132,2.1214 z"
       id="rect4168"
       inkscape:connector-curvature="0" />
  </g>
</svg>
