<?xml version="1.0" encoding="UTF-8" standalone="no"?>
<!-- Created with Inkscape (http://www.inkscape.org/) -->

<svg
   xmlns:dc="http://purl.org/dc/elements/1.1/"
   xmlns:cc="http://creativecommons.org/ns#"
   xmlns:rdf="http://www.w3.org/1999/02/22-rdf-syntax-ns#"
   xmlns:svg="http://www.w3.org/2000/svg"
   xmlns="http://www.w3.org/2000/svg"
   xmlns:sodipodi="http://sodipodi.sourceforge.net/DTD/sodipodi-0.dtd"
   xmlns:inkscape="http://www.inkscape.org/namespaces/inkscape"
   width="16"
   height="16"
   viewBox="0 0 16 16"
   id="svg2"
   version="1.1"
   inkscape:version="0.91 r13725"
   inkscape:export-filename="/home/godotengine/godot/tools/editor/icons/2x/icon_load.png"
   inkscape:export-xdpi="180"
   inkscape:export-ydpi="180"
   sodipodi:docname="icon_load.svg">
  <defs
     id="defs4" />
  <sodipodi:namedview
     id="base"
     pagecolor="#ffffff"
     bordercolor="#666666"
     borderopacity="1.0"
     inkscape:pageopacity="0.0"
     inkscape:pageshadow="2"
     inkscape:zoom="22.627417"
     inkscape:cx="12.685427"
     inkscape:cy="1.6294402"
     inkscape:document-units="px"
     inkscape:current-layer="layer1"
     showgrid="false"
     units="px"
     inkscape:snap-bbox="true"
     inkscape:bbox-paths="true"
     inkscape:bbox-nodes="true"
     inkscape:snap-bbox-edge-midpoints="true"
     inkscape:snap-bbox-midpoints="false"
     inkscape:snap-object-midpoints="true"
     inkscape:snap-center="true"
     inkscape:window-width="1920"
     inkscape:window-height="1119"
     inkscape:window-x="0"
     inkscape:window-y="26"
     inkscape:window-maximized="1"
     inkscape:snap-smooth-nodes="true"
     inkscape:object-nodes="true"
     showguides="false">
    <inkscape:grid
       type="xygrid"
       id="grid3336"
       spacingx="0.5"
       spacingy="0.5"
       empspacing="2" />
  </sodipodi:namedview>
  <metadata
     id="metadata7">
    <rdf:RDF>
      <cc:Work
         rdf:about="">
        <dc:format>image/svg+xml</dc:format>
        <dc:type
           rdf:resource="http://purl.org/dc/dcmitype/StillImage" />
        <dc:title></dc:title>
      </cc:Work>
    </rdf:RDF>
  </metadata>
  <g
     inkscape:label="Layer 1"
     inkscape:groupmode="layer"
     id="layer1"
     transform="translate(0,-1036.3622)">
    <path
       style="color:#000000;font-style:normal;font-variant:normal;font-weight:normal;font-stretch:normal;font-size:medium;line-height:normal;font-family:sans-serif;text-indent:0;text-align:start;text-decoration:none;text-decoration-line:none;text-decoration-style:solid;text-decoration-color:#000000;letter-spacing:normal;word-spacing:normal;text-transform:none;direction:ltr;block-progression:tb;writing-mode:lr-tb;baseline-shift:baseline;text-anchor:start;white-space:normal;clip-rule:nonzero;display:inline;overflow:visible;visibility:visible;opacity:1;isolation:auto;mix-blend-mode:normal;color-interpolation:sRGB;color-interpolation-filters:linearRGB;solid-color:#000000;solid-opacity:1;fill:#e0e0e0;fill-opacity:1;fill-rule:evenodd;stroke:none;stroke-width:1px;stroke-linecap:butt;stroke-linejoin:round;stroke-miterlimit:4;stroke-dasharray:none;stroke-dashoffset:0;stroke-opacity:1;color-rendering:auto;image-rendering:auto;shape-rendering:auto;text-rendering:auto;enable-background:accumulate"
       d="M 1.5000703,2 C 1.0834036,2 0.7251221,2.1928844 0.4590547,2.4589844 0.1929873,2.7250844 7.03e-5,3.0834 7.03e-5,3.5 l 0.5,8.5 c 0.041565,0.581917 0.1536332,1.110716 0.5214844,1.478516 C 1.3894058,13.846416 1.916737,14 2.5000703,14 l 0.5,0 0.5,0 9.9997657,0 c 0.231666,-10e-5 0.432919,-0.159266 0.486328,-0.384766 l 2,-7.4999996 C 16.060474,5.8013344 15.822456,5.5002 15.499836,5.5 L 4.7559297,5.5 C 4.5236856,5.5003 4.3126587,5.6584963 4.2696015,5.8867188 L 3.0383769,12.412759 C 2.9838992,12.701515 2.7130529,12.963778 2.2988984,12.972656 1.7175274,12.985119 1.5058274,12.46121 1.5000703,12 l -0.5,-8.5 c 0,-0.083 0.057083,-0.2249844 0.1660156,-0.3339844 C 1.2750185,3.0571156 1.416737,3 1.5000703,3 L 12.499836,3 c 0.08333,0 0.225052,0.057016 0.333984,0.1660156 0.108933,0.109 0.224913,0.2750776 0.166016,0.3339844 l 0,1 1,0 0,-1 c 0,-0.4166 -0.192917,-0.7749156 -0.458984,-1.0410156 C 13.274784,2.1928844 12.916503,2 12.499836,2 Z"
       transform="translate(0,1036.3622)"
       id="path8167"
       inkscape:connector-curvature="0"
       sodipodi:nodetypes="sscccscccccccssscccssssccssss" />
  </g>
</svg>
