<?xml version="1.0" encoding="UTF-8" standalone="no"?>
<!-- Created with Inkscape (http://www.inkscape.org/) -->

<svg
   xmlns:dc="http://purl.org/dc/elements/1.1/"
   xmlns:cc="http://creativecommons.org/ns#"
   xmlns:rdf="http://www.w3.org/1999/02/22-rdf-syntax-ns#"
   xmlns:svg="http://www.w3.org/2000/svg"
   xmlns="http://www.w3.org/2000/svg"
   xmlns:sodipodi="http://sodipodi.sourceforge.net/DTD/sodipodi-0.dtd"
   xmlns:inkscape="http://www.inkscape.org/namespaces/inkscape"
   width="32"
   height="32"
   viewBox="0 0 32.000001 32.000001"
   id="svg2"
   version="1.1"
   inkscape:version="0.91 r13725"
   inkscape:export-filename="/home/djrm/Projects/godot/tools/editor/icons/icon_sprite_3d.png"
   inkscape:export-xdpi="45"
   inkscape:export-ydpi="45"
   sodipodi:docname="icon_sprite_3d.svg">
  <defs
     id="defs4" />
  <sodipodi:namedview
     id="base"
     pagecolor="#ffffff"
     bordercolor="#666666"
     borderopacity="1.0"
     inkscape:pageopacity="0.0"
     inkscape:pageshadow="2"
     inkscape:zoom="11.313708"
     inkscape:cx="24.019012"
     inkscape:cy="20.42252"
     inkscape:document-units="px"
     inkscape:current-layer="layer1"
     showgrid="false"
     units="px"
     inkscape:snap-bbox="true"
     inkscape:bbox-paths="true"
     inkscape:bbox-nodes="true"
     inkscape:snap-bbox-edge-midpoints="true"
     inkscape:snap-bbox-midpoints="true"
     inkscape:snap-object-midpoints="true"
     inkscape:snap-center="true"
     inkscape:window-width="1920"
     inkscape:window-height="1016"
     inkscape:window-x="0"
     inkscape:window-y="27"
     inkscape:window-maximized="1">
    <inkscape:grid
       type="xygrid"
       id="grid3336" />
    <sodipodi:guide
       position="4.0000001,28.000018"
       orientation="24,0"
       id="guide4140" />
    <sodipodi:guide
       position="4.0000001,4.0000175"
       orientation="0,24"
       id="guide4142" />
    <sodipodi:guide
       position="28.000001,4.0000175"
       orientation="-24,0"
       id="guide4144" />
    <sodipodi:guide
       position="28.000001,28.000018"
       orientation="0,-24"
       id="guide4146" />
  </sodipodi:namedview>
  <metadata
     id="metadata7">
    <rdf:RDF>
      <cc:Work
         rdf:about="">
        <dc:format>image/svg+xml</dc:format>
        <dc:type
           rdf:resource="http://purl.org/dc/dcmitype/StillImage" />
        <dc:title></dc:title>
      </cc:Work>
    </rdf:RDF>
  </metadata>
  <g
     inkscape:label="Layer 1"
     inkscape:groupmode="layer"
     id="layer1"
     transform="translate(0,-1020.3622)">
    <path
       style="fill:#fc9c9c;fill-opacity:0.99607843;stroke:none"
       d="m 15.998527,1024.3628 c -6.6272628,6e-4 -11.999205,5.3737 -11.9985275,12.0009 6.36e-4,6.6263 5.3721934,11.9979 11.9985275,11.9984 6.627484,0 12.000836,-5.371 12.001473,-11.9984 0.0011,-6.6287 -5.372795,-12.0026 -12.001473,-12.0015 z m -5.140963,8.5712 c 0.946327,4e-4 1.713383,0.7675 1.713654,1.7138 0.0012,0.9474 -0.766265,1.7161 -1.713654,1.7164 -0.9473897,-3e-4 -1.714885,-0.769 -1.7136538,-1.7164 2.707e-4,-0.9463 0.7673265,-1.7134 1.7136538,-1.7138 z m 10.284872,0 c 0.946328,4e-4 1.713385,0.7675 1.713655,1.7138 0.0012,0.9474 -0.766265,1.7161 -1.713655,1.7164 -0.947389,-3e-4 -1.714884,-0.769 -1.713653,-1.7164 2.71e-4,-0.9463 0.767326,-1.7134 1.713653,-1.7138 z m -10.284872,6.8576 10.284872,0 c -5.48e-4,1.5308 -0.980932,2.9452 -2.571955,3.7104 -1.590715,0.765 -3.550246,0.765 -5.140962,0 -1.591023,-0.7652 -2.571407,-2.1796 -2.571955,-3.7104 z"
       id="path4148"
       inkscape:connector-curvature="0"
       sodipodi:nodetypes="csccccccccccccccccccc" />
  </g>
</svg>
