<?xml version="1.0" encoding="UTF-8" standalone="no"?>
<!-- Created with Inkscape (http://www.inkscape.org/) -->

<svg
   xmlns:dc="http://purl.org/dc/elements/1.1/"
   xmlns:cc="http://creativecommons.org/ns#"
   xmlns:rdf="http://www.w3.org/1999/02/22-rdf-syntax-ns#"
   xmlns:svg="http://www.w3.org/2000/svg"
   xmlns="http://www.w3.org/2000/svg"
   xmlns:sodipodi="http://sodipodi.sourceforge.net/DTD/sodipodi-0.dtd"
   xmlns:inkscape="http://www.inkscape.org/namespaces/inkscape"
   width="32"
   height="32"
   viewBox="0 0 32.000001 32.000001"
   id="svg2"
   version="1.1"
   inkscape:version="0.91 r13725"
   inkscape:export-filename="/home/djrm/Projects/godot/tools/editor/icons/icon_tool_pan.png"
   inkscape:export-xdpi="45"
   inkscape:export-ydpi="45"
   sodipodi:docname="icon_tool_pan.svg">
  <defs
     id="defs4" />
  <sodipodi:namedview
     id="base"
     pagecolor="#ffffff"
     bordercolor="#666666"
     borderopacity="1.0"
     inkscape:pageopacity="0.0"
     inkscape:pageshadow="2"
     inkscape:zoom="16"
     inkscape:cx="20.018669"
     inkscape:cy="14.88652"
     inkscape:document-units="px"
     inkscape:current-layer="layer1"
     showgrid="true"
     units="px"
     inkscape:snap-bbox="true"
     inkscape:bbox-paths="true"
     inkscape:bbox-nodes="true"
     inkscape:snap-bbox-edge-midpoints="true"
     inkscape:snap-bbox-midpoints="false"
     inkscape:snap-object-midpoints="false"
     inkscape:snap-center="true"
     inkscape:window-width="1920"
     inkscape:window-height="1016"
     inkscape:window-x="0"
     inkscape:window-y="27"
     inkscape:window-maximized="1"
     inkscape:snap-others="true">
    <inkscape:grid
       type="xygrid"
       id="grid3336" />
  </sodipodi:namedview>
  <metadata
     id="metadata7">
    <rdf:RDF>
      <cc:Work
         rdf:about="">
        <dc:format>image/svg+xml</dc:format>
        <dc:type
           rdf:resource="http://purl.org/dc/dcmitype/StillImage" />
        <dc:title></dc:title>
      </cc:Work>
    </rdf:RDF>
  </metadata>
  <g
     inkscape:label="Layer 1"
     inkscape:groupmode="layer"
     id="layer1"
     transform="translate(0,-1020.3622)">
    <g
       transform="matrix(0.63636994,0,0,0.63636994,11.81847,382.85245)"
       inkscape:label="Layer 1"
       id="g4515"
       style="stroke:#ffffff;stroke-opacity:1;stroke-width:6.28565202;stroke-miterlimit:4;stroke-dasharray:none;stroke-linejoin:miter" />
    <path
       style="fill:#e0e0e0;fill-opacity:0.99607843;stroke:none;stroke-width:3;stroke-linecap:round;stroke-linejoin:miter;stroke-miterlimit:4;stroke-dasharray:none;stroke-opacity:1"
       d="m 13.5,1026.3646 c -0.831,0 -1.5,0.669 -1.5,1.5 l 0,14.5 3,0 0,-14.5 c 0,-0.831 -0.669,-1.5 -1.5,-1.5 z"
       id="rect4550"
       inkscape:connector-curvature="0"
       sodipodi:nodetypes="sccccs" />
    <path
       style="fill:#e0e0e0;fill-opacity:0.99607843;stroke:none;stroke-width:3;stroke-linecap:round;stroke-linejoin:miter;stroke-miterlimit:4;stroke-dasharray:none;stroke-opacity:1"
       d="m 12,1036.3646 0,7.0156 c -1.981545,-0.6003 -5,-2.0156 -6,-2.0156 -1.1045729,0 -2.0000048,0.8954 -2,2 5.621e-4,0.714 0.3816847,1.3735 1,1.7305 l 0,0 0.041016,0.023 c 2.0879427,1.1984 5.628658,3.0949 6.958984,4.2441 l 12,0 c 1.656858,0 3,-1.3431 3,-3 l 0,-10 -3,0 z"
       id="rect4577"
       inkscape:connector-curvature="0"
       sodipodi:nodetypes="ccscccccssccc" />
    <path
       sodipodi:nodetypes="sccccs"
       inkscape:connector-curvature="0"
       id="path4583"
       d="m 17.5,1023.3646 c -0.831,0 -1.5,0.669 -1.5,1.5 l 0,14.5 3,0 0,-14.5 c 0,-0.831 -0.669,-1.5 -1.5,-1.5 z"
       style="fill:#e0e0e0;fill-opacity:0.99607843;stroke:none;stroke-width:3;stroke-linecap:round;stroke-linejoin:miter;stroke-miterlimit:4;stroke-dasharray:none;stroke-opacity:1" />
    <path
       style="fill:#e0e0e0;fill-opacity:0.99607843;stroke:none;stroke-width:3;stroke-linecap:round;stroke-linejoin:miter;stroke-miterlimit:4;stroke-dasharray:none;stroke-opacity:1"
       d="m 21.5,1024.3646 c -0.831,0 -1.5,0.669 -1.5,1.5 l 0,14.5 3,0 0,-14.5 c 0,-0.831 -0.669,-1.5 -1.5,-1.5 z"
       id="path4585"
       inkscape:connector-curvature="0"
       sodipodi:nodetypes="sccccs" />
    <path
       sodipodi:nodetypes="sccccs"
       inkscape:connector-curvature="0"
       id="path4587"
       d="m 25.5,1028.3646 c -0.831,0 -1.5,0.669 -1.5,1.5 l 0,14.5 3,0 0,-14.5 c 0,-0.831 -0.669,-1.5 -1.5,-1.5 z"
       style="fill:#e0e0e0;fill-opacity:0.99607843;stroke:none;stroke-width:3;stroke-linecap:round;stroke-linejoin:miter;stroke-miterlimit:4;stroke-dasharray:none;stroke-opacity:1" />
  </g>
</svg>
