<?xml version="1.0" encoding="UTF-8" standalone="no"?>
<!-- Created with Inkscape (http://www.inkscape.org/) -->

<svg
   xmlns:dc="http://purl.org/dc/elements/1.1/"
   xmlns:cc="http://creativecommons.org/ns#"
   xmlns:rdf="http://www.w3.org/1999/02/22-rdf-syntax-ns#"
   xmlns:svg="http://www.w3.org/2000/svg"
   xmlns="http://www.w3.org/2000/svg"
   xmlns:sodipodi="http://sodipodi.sourceforge.net/DTD/sodipodi-0.dtd"
   xmlns:inkscape="http://www.inkscape.org/namespaces/inkscape"
   width="16"
   height="12"
   viewBox="0 0 16 12"
   id="svg2"
   version="1.1"
   inkscape:version="0.91 r13725"
   inkscape:export-filename="/home/djrm/Projects/godot/tools/editor/icons/icon_add_track.png"
   inkscape:export-xdpi="45"
   inkscape:export-ydpi="45"
   sodipodi:docname="icon_mini_image.svg">
  <defs
     id="defs4" />
  <sodipodi:namedview
     id="base"
     pagecolor="#ffffff"
     bordercolor="#666666"
     borderopacity="1.0"
     inkscape:pageopacity="0.0"
     inkscape:pageshadow="2"
     inkscape:zoom="32.000001"
     inkscape:cx="3.9681011"
     inkscape:cy="5.5702556"
     inkscape:document-units="px"
     inkscape:current-layer="layer1"
     showgrid="true"
     units="px"
     inkscape:snap-bbox="true"
     inkscape:bbox-paths="true"
     inkscape:bbox-nodes="true"
     inkscape:snap-bbox-edge-midpoints="true"
     inkscape:snap-bbox-midpoints="false"
     inkscape:snap-object-midpoints="true"
     inkscape:snap-center="true"
     inkscape:window-width="1920"
     inkscape:window-height="1016"
     inkscape:window-x="0"
     inkscape:window-y="27"
     inkscape:window-maximized="1"
     inkscape:object-nodes="true"
     inkscape:snap-smooth-nodes="true">
    <inkscape:grid
       type="xygrid"
       id="grid3336" />
  </sodipodi:namedview>
  <metadata
     id="metadata7">
    <rdf:RDF>
      <cc:Work
         rdf:about="">
        <dc:format>image/svg+xml</dc:format>
        <dc:type
           rdf:resource="http://purl.org/dc/dcmitype/StillImage" />
        <dc:title></dc:title>
      </cc:Work>
    </rdf:RDF>
  </metadata>
  <g
     inkscape:label="Layer 1"
     inkscape:groupmode="layer"
     id="layer1"
     transform="translate(0,-1040.3622)">
    <rect
       y="1043.3622"
       x="0"
       height="5.9999657"
       width="2"
       id="rect4158"
       style="fill:#e0e0e0;fill-opacity:1;stroke:none;stroke-width:2;stroke-linecap:round;stroke-linejoin:round;stroke-miterlimit:4;stroke-dasharray:none;stroke-opacity:1" />
    <rect
       style="fill:#e0e0e0;fill-opacity:1;stroke:none;stroke-width:2;stroke-linecap:round;stroke-linejoin:round;stroke-miterlimit:4;stroke-dasharray:none;stroke-opacity:1"
       id="rect4160"
       width="2"
       height="1.9999654"
       x="0"
       y="1040.3622" />
    <path
       style="fill:#e0e0e0;fill-opacity:1;stroke:none;stroke-width:2;stroke-linecap:round;stroke-linejoin:round;stroke-miterlimit:4;stroke-dasharray:none;stroke-opacity:1"
       d="M 3.0703125,1044.3622 A 3,3 0 0 0 1.5,1044.7645 3,3 0 0 0 0,1047.3622 l 2,0 a 1.0000174,1.0000174 0 0 1 1,-1 1.0000174,1.0000174 0 0 1 1,1 l 2,0 a 3,3 0 0 0 -1.5,-2.5977 3,3 0 0 0 -1.4296875,-0.4023 z"
       id="path4168"
       inkscape:connector-curvature="0" />
    <path
       style="fill:#e0e0e0;fill-opacity:1;stroke:none;stroke-width:2;stroke-linecap:round;stroke-linejoin:round;stroke-miterlimit:4;stroke-dasharray:none;stroke-opacity:1"
       d="M 7.0703125,1044.3622 A 3,3 0 0 0 5.5,1044.7645 3,3 0 0 0 4,1047.3622 l 2,0 a 1.0000174,1.0000174 0 0 1 1,-1 1.0000174,1.0000174 0 0 1 1,1 l 2,0 a 3,3 0 0 0 -1.5,-2.5977 3,3 0 0 0 -1.4296875,-0.4023 z"
       id="path4172"
       inkscape:connector-curvature="0" />
    <rect
       y="1047.3622"
       x="4"
       height="1.9999654"
       width="2"
       id="rect4183"
       style="fill:#e0e0e0;fill-opacity:1;stroke:none;stroke-width:2;stroke-linecap:round;stroke-linejoin:round;stroke-miterlimit:4;stroke-dasharray:none;stroke-opacity:1" />
    <rect
       style="fill:#e0e0e0;fill-opacity:1;stroke:none;stroke-width:2;stroke-linecap:round;stroke-linejoin:round;stroke-miterlimit:4;stroke-dasharray:none;stroke-opacity:1"
       id="rect4185"
       width="2"
       height="1.9999654"
       x="8"
       y="1047.3622" />
    <path
       style="fill:#e0e0e0;fill-opacity:1;stroke:none;stroke-width:2;stroke-linecap:round;stroke-linejoin:round;stroke-miterlimit:4;stroke-dasharray:none;stroke-opacity:1"
       d="M 13 3 A 3 3 0 0 0 10 6 A 3 3 0 0 0 13 9 A 3 3 0 0 0 16 6 A 3 3 0 0 0 13 3 z M 13 5 A 1 1 0 0 1 14 6 A 1 1 0 0 1 13 7 A 1 1 0 0 1 12 6 A 1 1 0 0 1 13 5 z "
       transform="translate(0,1040.3622)"
       id="circle4189" />
    <rect
       style="fill:#e0e0e0;fill-opacity:1;stroke:none;stroke-width:2;stroke-linecap:round;stroke-linejoin:round;stroke-miterlimit:4;stroke-dasharray:none;stroke-opacity:1"
       id="rect4194"
       width="2"
       height="6.9999657"
       x="14"
       y="1043.3622" />
    <rect
       y="1050.3622"
       x="11"
       height="1.9999654"
       width="3"
       id="rect4196"
       style="fill:#e0e0e0;fill-opacity:1;stroke:none;stroke-width:2;stroke-linecap:round;stroke-linejoin:round;stroke-miterlimit:4;stroke-dasharray:none;stroke-opacity:1" />
    <path
       style="fill:#e0e0e0;fill-opacity:1;stroke:none;stroke-width:2;stroke-linecap:round;stroke-linejoin:round;stroke-miterlimit:4;stroke-dasharray:none;stroke-opacity:1"
       id="path4198"
       sodipodi:type="arc"
       sodipodi:cx="14"
       sodipodi:cy="1050.3622"
       sodipodi:rx="2"
       sodipodi:ry="2"
       sodipodi:start="0"
       sodipodi:end="1.5707963"
       d="m 16,1050.3622 a 2,2 0 0 1 -2,2 l 0,-2 z" />
  </g>
</svg>
