<?xml version="1.0" encoding="UTF-8" standalone="no"?>
<!-- Created with Inkscape (http://www.inkscape.org/) -->

<svg
   xmlns:dc="http://purl.org/dc/elements/1.1/"
   xmlns:cc="http://creativecommons.org/ns#"
   xmlns:rdf="http://www.w3.org/1999/02/22-rdf-syntax-ns#"
   xmlns:svg="http://www.w3.org/2000/svg"
   xmlns="http://www.w3.org/2000/svg"
   xmlns:sodipodi="http://sodipodi.sourceforge.net/DTD/sodipodi-0.dtd"
   xmlns:inkscape="http://www.inkscape.org/namespaces/inkscape"
   width="16"
   height="12"
   viewBox="0 0 16 12"
   id="svg2"
   version="1.1"
   inkscape:version="0.91 r13725"
   inkscape:export-filename="/home/djrm/Projects/godot/tools/editor/icons/icon_add_track.png"
   inkscape:export-xdpi="45"
   inkscape:export-ydpi="45"
   sodipodi:docname="icon_mini_matrix32.svg">
  <defs
     id="defs4" />
  <sodipodi:namedview
     id="base"
     pagecolor="#ffffff"
     bordercolor="#666666"
     borderopacity="1.0"
     inkscape:pageopacity="0.0"
     inkscape:pageshadow="2"
     inkscape:zoom="32.000001"
     inkscape:cx="1.5471383"
     inkscape:cy="5.978497"
     inkscape:document-units="px"
     inkscape:current-layer="layer1"
     showgrid="true"
     units="px"
     inkscape:snap-bbox="true"
     inkscape:bbox-paths="true"
     inkscape:bbox-nodes="true"
     inkscape:snap-bbox-edge-midpoints="true"
     inkscape:snap-bbox-midpoints="false"
     inkscape:snap-object-midpoints="true"
     inkscape:snap-center="true"
     inkscape:window-width="1920"
     inkscape:window-height="1016"
     inkscape:window-x="0"
     inkscape:window-y="27"
     inkscape:window-maximized="1"
     inkscape:object-nodes="true"
     inkscape:snap-smooth-nodes="true">
    <inkscape:grid
       type="xygrid"
       id="grid3336" />
  </sodipodi:namedview>
  <metadata
     id="metadata7">
    <rdf:RDF>
      <cc:Work
         rdf:about="">
        <dc:format>image/svg+xml</dc:format>
        <dc:type
           rdf:resource="http://purl.org/dc/dcmitype/StillImage" />
        <dc:title />
      </cc:Work>
    </rdf:RDF>
  </metadata>
  <g
     inkscape:label="Layer 1"
     inkscape:groupmode="layer"
     id="layer1"
     transform="translate(0,-1040.3622)">
    <path
       style="fill:#ddf4aa;fill-opacity:1;stroke:none;stroke-width:2;stroke-linecap:butt;stroke-linejoin:round;stroke-miterlimit:4;stroke-dasharray:none;stroke-opacity:1"
       d="M 8 2 L 8 4 L 9 4 L 10 4 A 1 1 0 0 1 9 5 L 9 7 A 1 1 0 0 1 10 8 A 1 1 0 0 1 9 9 L 8 9 L 8 11 L 9 11 A 3 3 0 0 0 11.597656 9.5 A 3 3 0 0 0 11.597656 6.5 A 3 3 0 0 0 11.232422 5.9980469 A 3 3 0 0 0 11.597656 5.5 A 3 3 0 0 0 11.994141 4 L 12 4 L 12 2 L 9 2 L 8 2 z "
       transform="translate(0,1040.3622)"
       id="path4753" />
    <rect
       y="1048.3622"
       x="11"
       height="2"
       width="5"
       id="rect4763"
       style="fill:#c4ec69;fill-opacity:1;stroke:none;stroke-width:2;stroke-linecap:round;stroke-linejoin:round;stroke-miterlimit:4;stroke-dasharray:none;stroke-opacity:1" />
    <path
       sodipodi:open="true"
       d="m 13,1050.3622 a 2,2 0 0 1 -1.732051,-1 2,2 0 0 1 0,-2 2,2 0 0 1 1.732051,-1"
       sodipodi:end="4.712389"
       sodipodi:start="1.5707963"
       sodipodi:ry="2"
       sodipodi:rx="2"
       sodipodi:cy="1048.3622"
       sodipodi:cx="13"
       sodipodi:type="arc"
       id="path4765"
       style="fill:#c4ec69;fill-opacity:1;stroke:none;stroke-width:2;stroke-linecap:butt;stroke-linejoin:round;stroke-miterlimit:4;stroke-dasharray:none;stroke-opacity:1" />
    <path
       inkscape:connector-curvature="0"
       id="path4767"
       d="m 13,1042.3622 0,2 a 1,1 0 0 1 1,1 1,1 0 0 1 -1,1 l 0,2 a 3,3 0 0 0 2.597656,-1.5 3,3 0 0 0 0,-3 3,3 0 0 0 -2.597656,-1.5 z"
       style="fill:#c4ec69;fill-opacity:1;stroke:none;stroke-width:2;stroke-linecap:butt;stroke-linejoin:round;stroke-miterlimit:4;stroke-dasharray:none;stroke-opacity:1" />
    <path
       style="fill:#c4ec69;fill-opacity:1;stroke:none;stroke-width:2;stroke-linecap:butt;stroke-linejoin:round;stroke-miterlimit:4;stroke-dasharray:none;stroke-opacity:1"
       d="m 2,1044.3622 a 3,3 0 0 1 3,3 l -2,0 a 1.0000174,1.0000174 0 0 0 -1,-1 l 0,-2 z"
       id="path4771"
       inkscape:connector-curvature="0" />
    <rect
       y="-1050.3622"
       x="3"
       height="3"
       width="2"
       id="rect4773"
       style="fill:#c4ec69;fill-opacity:1;stroke:none;stroke-width:2;stroke-linecap:butt;stroke-linejoin:round;stroke-miterlimit:4;stroke-dasharray:none;stroke-opacity:1"
       transform="scale(1,-1)" />
    <rect
       style="fill:#c4ec69;fill-opacity:1;stroke:none;stroke-width:2;stroke-linecap:butt;stroke-linejoin:round;stroke-miterlimit:4;stroke-dasharray:none;stroke-opacity:1"
       id="rect4775"
       width="2"
       height="5.9999828"
       x="0"
       y="-1050.3622"
       transform="scale(1,-1)" />
    <rect
       transform="scale(1,-1)"
       y="-1050.3622"
       x="3"
       height="5.9999828"
       width="2"
       id="rect4777"
       style="fill:#c4ec69;fill-opacity:1;stroke:none;stroke-width:2;stroke-linecap:butt;stroke-linejoin:round;stroke-miterlimit:4;stroke-dasharray:none;stroke-opacity:1" />
    <path
       inkscape:connector-curvature="0"
       id="path4779"
       d="m 5,1044.3622 a 3,3 0 0 1 3,3 l -2,0 a 1.0000174,1.0000174 0 0 0 -1,-1 l 0,-2 z"
       style="fill:#c4ec69;fill-opacity:1;stroke:none;stroke-width:2;stroke-linecap:butt;stroke-linejoin:round;stroke-miterlimit:4;stroke-dasharray:none;stroke-opacity:1" />
    <rect
       style="fill:#c4ec69;fill-opacity:1;stroke:none;stroke-width:2;stroke-linecap:butt;stroke-linejoin:round;stroke-miterlimit:4;stroke-dasharray:none;stroke-opacity:1"
       id="rect4781"
       width="2"
       height="3.0000002"
       x="6"
       y="-1050.3622"
       transform="scale(1,-1)" />
  </g>
</svg>
