<?xml version="1.0" encoding="UTF-8" standalone="no"?>
<!-- Created with Inkscape (http://www.inkscape.org/) -->

<svg
   xmlns:dc="http://purl.org/dc/elements/1.1/"
   xmlns:cc="http://creativecommons.org/ns#"
   xmlns:rdf="http://www.w3.org/1999/02/22-rdf-syntax-ns#"
   xmlns:svg="http://www.w3.org/2000/svg"
   xmlns="http://www.w3.org/2000/svg"
   xmlns:sodipodi="http://sodipodi.sourceforge.net/DTD/sodipodi-0.dtd"
   xmlns:inkscape="http://www.inkscape.org/namespaces/inkscape"
   sodipodi:docname="icon_material_preview_light_2_off.svg"
   inkscape:export-ydpi="90"
   inkscape:export-xdpi="90"
   inkscape:export-filename="/home/djrm/Projects/godot/tools/editor/icons/icon_box_shape.png"
   inkscape:version="0.91 r13725"
   version="1.1"
   id="svg2"
   viewBox="0 0 16 16"
   height="16"
   width="16">
  <sodipodi:namedview
     inkscape:snap-smooth-nodes="false"
     inkscape:object-nodes="false"
     inkscape:snap-intersection-paths="false"
     inkscape:object-paths="false"
     inkscape:window-maximized="1"
     inkscape:window-y="27"
     inkscape:window-x="0"
     inkscape:window-height="1016"
     inkscape:window-width="1920"
     inkscape:snap-center="true"
     inkscape:snap-object-midpoints="true"
     inkscape:snap-bbox-midpoints="true"
     inkscape:snap-bbox-edge-midpoints="true"
     inkscape:bbox-nodes="true"
     inkscape:bbox-paths="true"
     inkscape:snap-bbox="true"
     units="px"
     showgrid="true"
     inkscape:current-layer="layer1"
     inkscape:document-units="px"
     inkscape:cy="7.4131842"
     inkscape:cx="7.6431783"
     inkscape:zoom="45.254832"
     inkscape:pageshadow="2"
     inkscape:pageopacity="0.0"
     borderopacity="1.0"
     bordercolor="#666666"
     pagecolor="#ffffff"
     id="base">
    <inkscape:grid
       id="grid3336"
       type="xygrid"
       empspacing="4" />
  </sodipodi:namedview>
  <defs
     id="defs4" />
  <metadata
     id="metadata7">
    <rdf:RDF>
      <cc:Work
         rdf:about="">
        <dc:format>image/svg+xml</dc:format>
        <dc:type
           rdf:resource="http://purl.org/dc/dcmitype/StillImage" />
        <dc:title></dc:title>
      </cc:Work>
    </rdf:RDF>
  </metadata>
  <g
     transform="translate(0,-1036.3622)"
     id="layer1"
     inkscape:groupmode="layer"
     inkscape:label="Layer 1">
    <path
       style="opacity:1;fill:#f0f0f0;fill-opacity:1;stroke:none;stroke-width:2;stroke-linecap:round;stroke-linejoin:round;stroke-miterlimit:4;stroke-dasharray:none;stroke-dashoffset:0;stroke-opacity:1"
       d="M 7 1 L 7 3 L 9 3 L 9 1 L 7 1 z M 3.7578125 2.34375 L 2.34375 3.7578125 L 3.7578125 5.171875 L 5.171875 3.7578125 L 3.7578125 2.34375 z M 12.242188 2.34375 L 10.828125 3.7578125 L 12.242188 5.171875 L 13.65625 3.7578125 L 12.242188 2.34375 z M 8 4 A 4 4 0 0 0 4 8 A 4 4 0 0 0 8 12 A 4 4 0 0 0 12 8 A 4 4 0 0 0 8 4 z M 7 5 L 9 5 L 9 7 L 9 8 L 7 8 L 7 9 L 9 9 L 9 10 L 7 10 L 6 10 L 6 8 L 6 7 L 8 7 L 8 6 L 7 6 L 7 5 z M 1 7 L 1 9 L 3 9 L 3 7 L 1 7 z M 13 7 L 13 9 L 15 9 L 15 7 L 13 7 z M 3.7578125 10.828125 L 2.34375 12.242188 L 3.7578125 13.65625 L 5.171875 12.242188 L 3.7578125 10.828125 z M 12.242188 10.828125 L 10.828125 12.242188 L 12.242188 13.65625 L 13.65625 12.242188 L 12.242188 10.828125 z M 7 13 L 7 15 L 9 15 L 9 13 L 7 13 z "
       transform="translate(0,1036.3622)"
       id="path4157" />
    <path
       id="path4176"
       transform="translate(0,1036.3622)"
       d="M 7 1 L 7 3 L 9 3 L 9 1 L 7 1 z M 3.7578125 2.34375 L 2.34375 3.7578125 L 3.7578125 5.171875 L 5.171875 3.7578125 L 3.7578125 2.34375 z M 12.242188 2.34375 L 10.828125 3.7578125 L 12.242188 5.171875 L 13.65625 3.7578125 L 12.242188 2.34375 z M 8 4 A 4 4 0 0 0 4 8 A 4 4 0 0 0 8 12 A 4 4 0 0 0 12 8 A 4 4 0 0 0 8 4 z M 7 5 L 9 5 L 9 7 L 9 8 L 7 8 L 7 9 L 9 9 L 9 10 L 7 10 L 6 10 L 6 8 L 6 7 L 8 7 L 8 6 L 7 6 L 7 5 z M 1 7 L 1 9 L 3 9 L 3 7 L 1 7 z M 13 7 L 13 9 L 15 9 L 15 7 L 13 7 z M 3.7578125 10.828125 L 2.34375 12.242188 L 3.7578125 13.65625 L 5.171875 12.242188 L 3.7578125 10.828125 z M 12.242188 10.828125 L 10.828125 12.242188 L 12.242188 13.65625 L 13.65625 12.242188 L 12.242188 10.828125 z M 7 13 L 7 15 L 9 15 L 9 13 L 7 13 z "
       style="opacity:1;fill:#000000;fill-opacity:0.23529412;stroke:none;stroke-width:2;stroke-linecap:round;stroke-linejoin:round;stroke-miterlimit:4;stroke-dasharray:none;stroke-dashoffset:0;stroke-opacity:1" />
  </g>
</svg>
