<?xml version="1.0" encoding="UTF-8" standalone="no"?>
<!-- Created with Inkscape (http://www.inkscape.org/) -->

<svg
   xmlns:dc="http://purl.org/dc/elements/1.1/"
   xmlns:cc="http://creativecommons.org/ns#"
   xmlns:rdf="http://www.w3.org/1999/02/22-rdf-syntax-ns#"
   xmlns:svg="http://www.w3.org/2000/svg"
   xmlns="http://www.w3.org/2000/svg"
   xmlns:sodipodi="http://sodipodi.sourceforge.net/DTD/sodipodi-0.dtd"
   xmlns:inkscape="http://www.inkscape.org/namespaces/inkscape"
   width="16"
   height="16"
   viewBox="0 0 16 16"
   id="svg2"
   version="1.1"
   inkscape:version="0.91 r13725"
   inkscape:export-filename="/home/djrm/Projects/godot/tools/editor/icons/icon_canvas_item_shader_graph.png"
   inkscape:export-xdpi="90"
   inkscape:export-ydpi="90"
   sodipodi:docname="icon_canvas_item_shader_graph.svg">
  <defs
     id="defs4">
    <clipPath
       clipPathUnits="userSpaceOnUse"
       id="clipPath4196">
      <path
         style="opacity:1;fill:#ffffff;fill-opacity:1;stroke:none;stroke-width:2;stroke-linecap:round;stroke-linejoin:miter;stroke-miterlimit:4;stroke-dasharray:none;stroke-dashoffset:0;stroke-opacity:1"
         d="m 8.0624999,1025.8622 a 3.375,2.9999997 0 0 0 -3.375,3 3.375,2.9999997 0 0 0 1.6875,2.5957 l 0,9.8115 a 3.375,2.9999997 0 0 0 -1.6875,2.5928 3.375,2.9999997 0 0 0 3.375,3 3.375,2.9999997 0 0 0 3.3750001,-3 3.375,2.9999997 0 0 0 -1.6875001,-2.5957 l 0,-8.7832 11.9311511,10.6054 a 3.375,2.9999997 0 0 0 -0.118651,0.7735 3.375,2.9999997 0 0 0 3.375,3 3.375,2.9999997 0 0 0 3.375,-3 3.375,2.9999997 0 0 0 -3.375,-3 3.375,2.9999997 0 0 0 -0.873413,0.1025 l -11.927857,-10.6025 9.884399,0 a 3.375,2.9999997 0 0 0 2.916871,1.5 3.375,2.9999997 0 0 0 3.375,-3 3.375,2.9999997 0 0 0 -3.375,-3 3.375,2.9999997 0 0 0 -2.920166,1.5 l -11.037964,0 a 3.375,2.9999997 0 0 0 -2.9168701,-1.5 z"
         id="path4198"
         inkscape:connector-curvature="0" />
    </clipPath>
  </defs>
  <sodipodi:namedview
     id="base"
     pagecolor="#ffffff"
     bordercolor="#666666"
     borderopacity="1.0"
     inkscape:pageopacity="0.0"
     inkscape:pageshadow="2"
     inkscape:zoom="11.313708"
     inkscape:cx="-2.8222537"
     inkscape:cy="15.541098"
     inkscape:document-units="px"
     inkscape:current-layer="layer1"
     showgrid="true"
     units="px"
     inkscape:snap-bbox="true"
     inkscape:bbox-paths="true"
     inkscape:bbox-nodes="true"
     inkscape:snap-bbox-edge-midpoints="true"
     inkscape:snap-bbox-midpoints="true"
     inkscape:snap-object-midpoints="true"
     inkscape:snap-center="true"
     inkscape:window-width="1920"
     inkscape:window-height="1016"
     inkscape:window-x="0"
     inkscape:window-y="27"
     inkscape:window-maximized="1">
    <inkscape:grid
       type="xygrid"
       id="grid3336" />
  </sodipodi:namedview>
  <metadata
     id="metadata7">
    <rdf:RDF>
      <cc:Work
         rdf:about="">
        <dc:format>image/svg+xml</dc:format>
        <dc:type
           rdf:resource="http://purl.org/dc/dcmitype/StillImage" />
        <dc:title></dc:title>
      </cc:Work>
    </rdf:RDF>
  </metadata>
  <g
     inkscape:label="Layer 1"
     inkscape:groupmode="layer"
     id="layer1"
     transform="translate(0,-1036.3622)">
    <g
       id="g4181"
       mask="none"
       clip-path="url(#clipPath4196)"
       transform="matrix(0.59259259,0,0,0.66666674,-1.7777777,353.454)">
      <rect
         y="1025.8622"
         x="3"
         height="3.0000043"
         width="27"
         id="rect4159"
         style="fill:#ff7070;fill-opacity:1;stroke:none;stroke-width:4;stroke-linecap:round;stroke-linejoin:miter;stroke-miterlimit:4;stroke-dasharray:none;stroke-opacity:1" />
      <rect
         style="fill:#ffeb70;fill-opacity:1;stroke:none;stroke-width:4;stroke-linecap:round;stroke-linejoin:miter;stroke-miterlimit:4;stroke-dasharray:none;stroke-opacity:1"
         id="rect4161"
         width="27"
         height="3.0000041"
         x="3"
         y="1028.8622" />
      <rect
         style="fill:#9dff70;fill-opacity:1;stroke:none;stroke-width:4;stroke-linecap:round;stroke-linejoin:miter;stroke-miterlimit:4;stroke-dasharray:none;stroke-opacity:1"
         id="rect4163"
         width="27"
         height="2.9999995"
         x="3"
         y="1031.8622" />
      <rect
         y="1034.8622"
         x="3"
         height="3.0000031"
         width="27"
         id="rect4165"
         style="fill:#70ffb9;fill-opacity:1;stroke:none;stroke-width:4;stroke-linecap:round;stroke-linejoin:miter;stroke-miterlimit:4;stroke-dasharray:none;stroke-opacity:1" />
      <rect
         y="1037.8622"
         x="3"
         height="3.0000029"
         width="27"
         id="rect4167"
         style="fill:#70deff;fill-opacity:1;stroke:none;stroke-width:4;stroke-linecap:round;stroke-linejoin:miter;stroke-miterlimit:4;stroke-dasharray:none;stroke-opacity:1" />
      <rect
         style="fill:#ff70ac;fill-opacity:1;stroke:none;stroke-width:4;stroke-linecap:round;stroke-linejoin:miter;stroke-miterlimit:4;stroke-dasharray:none;stroke-opacity:1"
         id="rect4169"
         width="27"
         height="2.9999976"
         x="3"
         y="1043.8622" />
      <rect
         style="fill:#9f70ff;fill-opacity:1;stroke:none;stroke-width:4;stroke-linecap:round;stroke-linejoin:miter;stroke-miterlimit:4;stroke-dasharray:none;stroke-opacity:1"
         id="rect4146"
         width="27"
         height="3.0000029"
         x="3"
         y="1040.8622" />
    </g>
    <ellipse
       r="2"
       style="opacity:1;fill:#6e6e6e;fill-opacity:1;stroke:none;stroke-width:2;stroke-linecap:round;stroke-linejoin:miter;stroke-miterlimit:4;stroke-dasharray:none;stroke-dashoffset:0;stroke-opacity:1"
       id="ellipse4152"
       cx="3"
       cy="1039.3622" />
  </g>
</svg>
