<?xml version="1.0" encoding="UTF-8" standalone="no"?>
<!-- Created with Inkscape (http://www.inkscape.org/) -->

<svg
   xmlns:dc="http://purl.org/dc/elements/1.1/"
   xmlns:cc="http://creativecommons.org/ns#"
   xmlns:rdf="http://www.w3.org/1999/02/22-rdf-syntax-ns#"
   xmlns:svg="http://www.w3.org/2000/svg"
   xmlns="http://www.w3.org/2000/svg"
   xmlns:sodipodi="http://sodipodi.sourceforge.net/DTD/sodipodi-0.dtd"
   xmlns:inkscape="http://www.inkscape.org/namespaces/inkscape"
   width="128"
   height="128"
   viewBox="0 0 128 128"
   id="svg2"
   version="1.1"
   inkscape:version="0.91 r13725"
   inkscape:export-filename="/home/djrm/Projects/godot/tools/editor/icons/icon_gizmo_directional_light.png"
   inkscape:export-xdpi="360"
   inkscape:export-ydpi="360"
   sodipodi:docname="icon_gizmo_directional_light.svg">
  <defs
     id="defs4" />
  <sodipodi:namedview
     id="base"
     pagecolor="#ffffff"
     bordercolor="#666666"
     borderopacity="1.0"
     inkscape:pageopacity="0.0"
     inkscape:pageshadow="2"
     inkscape:zoom="4"
     inkscape:cx="69.526732"
     inkscape:cy="53.07939"
     inkscape:document-units="px"
     inkscape:current-layer="layer1"
     showgrid="true"
     units="px"
     inkscape:snap-bbox="true"
     inkscape:bbox-paths="true"
     inkscape:bbox-nodes="true"
     inkscape:snap-bbox-edge-midpoints="true"
     inkscape:snap-bbox-midpoints="false"
     inkscape:snap-object-midpoints="true"
     inkscape:snap-center="true"
     inkscape:window-width="1920"
     inkscape:window-height="1016"
     inkscape:window-x="0"
     inkscape:window-y="27"
     inkscape:window-maximized="1">
    <inkscape:grid
       type="xygrid"
       id="grid3336"
       empspacing="4" />
  </sodipodi:namedview>
  <metadata
     id="metadata7">
    <rdf:RDF>
      <cc:Work
         rdf:about="">
        <dc:format>image/svg+xml</dc:format>
        <dc:type
           rdf:resource="http://purl.org/dc/dcmitype/StillImage" />
        <dc:title></dc:title>
      </cc:Work>
    </rdf:RDF>
  </metadata>
  <g
     inkscape:label="Layer 1"
     inkscape:groupmode="layer"
     id="layer1"
     transform="translate(0,-924.3622)">
    <circle
       style="opacity:1;fill:#f7f5cf;fill-opacity:1;stroke:none;stroke-width:2;stroke-linecap:round;stroke-linejoin:round;stroke-miterlimit:4;stroke-dasharray:none;stroke-dashoffset:0;stroke-opacity:1"
       id="path4156"
       cx="64"
       cy="988.36218"
       r="24.000017" />
    <path
       style="opacity:1;fill:#f7f5cf;fill-opacity:1;stroke:none;stroke-width:2;stroke-linecap:round;stroke-linejoin:round;stroke-miterlimit:4;stroke-dasharray:none;stroke-dashoffset:0;stroke-opacity:1"
       d="m 64,4 a 8.0000172,8.0000172 0 0 0 -8,8 l 0,12 a 7.9999828,7.9999828 0 0 0 8,8 7.9999828,7.9999828 0 0 0 8,-8 L 72,12 A 8.0000172,8.0000172 0 0 0 64,4 Z"
       transform="translate(0,924.3622)"
       id="rect4169"
       inkscape:connector-curvature="0"
       inkscape:transform-center-y="-46" />
    <path
       inkscape:connector-curvature="0"
       id="path4148"
       d="m 124,988.3622 a 8.0000172,8.0000172 0 0 0 -8,-8 l -12,0 a 7.9999828,7.9999828 0 0 0 -8,8 7.9999828,7.9999828 0 0 0 8,8 l 12,0 a 8.0000172,8.0000172 0 0 0 8,-8 z"
       style="opacity:1;fill:#f7f5cf;fill-opacity:1;stroke:none;stroke-width:2;stroke-linecap:round;stroke-linejoin:round;stroke-miterlimit:4;stroke-dasharray:none;stroke-dashoffset:0;stroke-opacity:1"
       inkscape:transform-center-x="-46" />
    <path
       style="opacity:1;fill:#f7f5cf;fill-opacity:1;stroke:none;stroke-width:2;stroke-linecap:round;stroke-linejoin:round;stroke-miterlimit:4;stroke-dasharray:none;stroke-dashoffset:0;stroke-opacity:1"
       d="m 64,1048.3622 a 8.0000172,8.0000172 0 0 0 8,-8 l 0,-12 a 7.9999828,7.9999828 0 0 0 -8,-8 7.9999828,7.9999828 0 0 0 -8,8 l 0,12 a 8.0000172,8.0000172 0 0 0 8,8 z"
       id="path4150"
       inkscape:connector-curvature="0"
       inkscape:transform-center-y="46" />
    <path
       inkscape:connector-curvature="0"
       id="path4152"
       d="m 4,988.3622 a 8.0000172,8.0000172 0 0 0 8,8 l 12,0 a 7.9999828,7.9999828 0 0 0 8,-8 7.9999828,7.9999828 0 0 0 -8,-8 l -12,0 a 8.0000172,8.0000172 0 0 0 -8,8 z"
       style="opacity:1;fill:#f7f5cf;fill-opacity:1;stroke:none;stroke-width:2;stroke-linecap:round;stroke-linejoin:round;stroke-miterlimit:4;stroke-dasharray:none;stroke-dashoffset:0;stroke-opacity:1"
       inkscape:transform-center-x="46" />
    <path
       inkscape:transform-center-y="-32.526909"
       inkscape:connector-curvature="0"
       id="path4154"
       d="m 106.42641,945.93579 a 8.0000172,8.0000172 0 0 0 -11.313712,0 l -8.485281,8.48528 a 7.9999828,7.9999828 0 0 0 0,11.31371 7.9999828,7.9999828 0 0 0 11.313708,0 l 8.485285,-8.48528 a 8.0000172,8.0000172 0 0 0 0,-11.31371 z"
       style="opacity:1;fill:#f7f5cf;fill-opacity:1;stroke:none;stroke-width:2;stroke-linecap:round;stroke-linejoin:round;stroke-miterlimit:4;stroke-dasharray:none;stroke-dashoffset:0;stroke-opacity:1"
       inkscape:transform-center-x="-32.526906" />
    <path
       inkscape:transform-center-x="-32.526906"
       style="opacity:1;fill:#f7f5cf;fill-opacity:1;stroke:none;stroke-width:2;stroke-linecap:round;stroke-linejoin:round;stroke-miterlimit:4;stroke-dasharray:none;stroke-dashoffset:0;stroke-opacity:1"
       d="m 106.42641,1030.7886 a 8.0000172,8.0000172 0 0 0 0,-11.3137 l -8.485285,-8.4853 a 7.9999828,7.9999828 0 0 0 -11.313708,0 7.9999828,7.9999828 0 0 0 0,11.3137 l 8.485281,8.4853 a 8.0000172,8.0000172 0 0 0 11.313712,0 z"
       id="path4157"
       inkscape:connector-curvature="0"
       inkscape:transform-center-y="32.526894" />
    <path
       inkscape:transform-center-y="32.526893"
       inkscape:connector-curvature="0"
       id="path4159"
       d="m 21.573593,1030.7886 a 8.0000172,8.0000172 0 0 0 11.313709,0 l 8.485281,-8.4853 a 7.9999828,7.9999828 0 0 0 0,-11.3137 7.9999828,7.9999828 0 0 0 -11.313708,0 l -8.485282,8.4853 a 8.0000172,8.0000172 0 0 0 0,11.3137 z"
       style="opacity:1;fill:#f7f5cf;fill-opacity:1;stroke:none;stroke-width:2;stroke-linecap:round;stroke-linejoin:round;stroke-miterlimit:4;stroke-dasharray:none;stroke-dashoffset:0;stroke-opacity:1"
       inkscape:transform-center-x="32.526905" />
    <path
       inkscape:transform-center-x="32.526905"
       style="opacity:1;fill:#f7f5cf;fill-opacity:1;stroke:none;stroke-width:2;stroke-linecap:round;stroke-linejoin:round;stroke-miterlimit:4;stroke-dasharray:none;stroke-dashoffset:0;stroke-opacity:1"
       d="m 21.573593,945.93579 a 8.0000172,8.0000172 0 0 0 0,11.31371 l 8.485282,8.48528 a 7.9999828,7.9999828 0 0 0 11.313708,0 7.9999828,7.9999828 0 0 0 0,-11.31371 l -8.485281,-8.48528 a 8.0000172,8.0000172 0 0 0 -11.313709,0 z"
       id="path4161"
       inkscape:connector-curvature="0"
       inkscape:transform-center-y="-32.526908" />
  </g>
</svg>
