<?xml version="1.0" encoding="UTF-8" standalone="no"?>
<!-- Created with Inkscape (http://www.inkscape.org/) -->

<svg
   xmlns:dc="http://purl.org/dc/elements/1.1/"
   xmlns:cc="http://creativecommons.org/ns#"
   xmlns:rdf="http://www.w3.org/1999/02/22-rdf-syntax-ns#"
   xmlns:svg="http://www.w3.org/2000/svg"
   xmlns="http://www.w3.org/2000/svg"
   xmlns:sodipodi="http://sodipodi.sourceforge.net/DTD/sodipodi-0.dtd"
   xmlns:inkscape="http://www.inkscape.org/namespaces/inkscape"
   width="32"
   height="32"
   viewBox="0 0 32.000001 32.000001"
   id="svg2"
   version="1.1"
   inkscape:version="0.91 r13725"
   inkscape:export-filename="/home/djrm/Projects/godot/tools/editor/icons/icon_collision_shape.png"
   inkscape:export-xdpi="45"
   inkscape:export-ydpi="45"
   sodipodi:docname="icon_collision_shape.svg">
  <defs
     id="defs4" />
  <sodipodi:namedview
     id="base"
     pagecolor="#ffffff"
     bordercolor="#666666"
     borderopacity="1.0"
     inkscape:pageopacity="0.0"
     inkscape:pageshadow="2"
     inkscape:zoom="22.627417"
     inkscape:cx="13.927026"
     inkscape:cy="15.580475"
     inkscape:document-units="px"
     inkscape:current-layer="layer1"
     showgrid="true"
     units="px"
     inkscape:snap-bbox="true"
     inkscape:bbox-paths="true"
     inkscape:bbox-nodes="true"
     inkscape:snap-bbox-edge-midpoints="true"
     inkscape:snap-bbox-midpoints="true"
     inkscape:snap-object-midpoints="true"
     inkscape:snap-center="true"
     inkscape:window-width="1920"
     inkscape:window-height="1016"
     inkscape:window-x="0"
     inkscape:window-y="27"
     inkscape:window-maximized="1"
     inkscape:object-paths="false"
     inkscape:snap-intersection-paths="false"
     inkscape:object-nodes="false"
     inkscape:snap-smooth-nodes="false"
     inkscape:snap-midpoints="true">
    <inkscape:grid
       type="xygrid"
       id="grid3336" />
    <sodipodi:guide
       position="4.0000001,28.000018"
       orientation="24,0"
       id="guide4140" />
    <sodipodi:guide
       position="4.0000001,4.0000175"
       orientation="0,24"
       id="guide4142" />
    <sodipodi:guide
       position="28.000001,4.0000175"
       orientation="-24,0"
       id="guide4144" />
    <sodipodi:guide
       position="28.000001,28.000018"
       orientation="0,-24"
       id="guide4146" />
  </sodipodi:namedview>
  <metadata
     id="metadata7">
    <rdf:RDF>
      <cc:Work
         rdf:about="">
        <dc:format>image/svg+xml</dc:format>
        <dc:type
           rdf:resource="http://purl.org/dc/dcmitype/StillImage" />
        <dc:title></dc:title>
      </cc:Work>
    </rdf:RDF>
  </metadata>
  <g
     inkscape:label="Layer 1"
     inkscape:groupmode="layer"
     id="layer1"
     transform="translate(0,-1020.3622)">
    <path
       style="fill:#efa5a5;fill-opacity:0.99607843;stroke:none;stroke-width:4;stroke-linecap:round;stroke-linejoin:round;stroke-miterlimit:4;stroke-dasharray:none;stroke-opacity:1"
       d="m 15.5,1024.3622 -1.750329,1 -1.750329,1 -1.748355,1 -1.7503292,1 -1.7503289,1 -1.7503289,1 0,2 0,2 0,2 0,2 0,2 0,2 1.7503289,1 1.7503289,1 1.7503292,1 1.748355,1 1.750329,1 1.750329,1 1.750329,-1 1.750329,-1 1.748355,-1 1.750329,-1 1.750329,-1 1.750329,-1 0,-2 0,-2 0,-2 0,-2 0,-2 0,-2 -1.750329,-1 -1.750329,-1 -1.750329,-1 -1.748355,-1 -1.750329,-1 -1.750329,-1 z m 0,4 1.750329,1 1.750329,1 1.748355,1 1.750329,1 0,2 0,2 0,2 0,2 -1.750329,1 -1.748355,1 -1.750329,1 -1.750329,1 -1.750329,-1 -1.750329,-1 -1.748355,-1 -1.7503292,-1 0,-2 0,-2 0,-2 0,-2 1.7503292,-1 1.748355,-1 1.750329,-1 1.750329,-1 z"
       id="path4285"
       inkscape:connector-curvature="0" />
  </g>
</svg>
