<?xml version="1.0" encoding="UTF-8" standalone="no"?>
<!-- Created with Inkscape (http://www.inkscape.org/) -->

<svg
   xmlns:dc="http://purl.org/dc/elements/1.1/"
   xmlns:cc="http://creativecommons.org/ns#"
   xmlns:rdf="http://www.w3.org/1999/02/22-rdf-syntax-ns#"
   xmlns:svg="http://www.w3.org/2000/svg"
   xmlns="http://www.w3.org/2000/svg"
   xmlns:sodipodi="http://sodipodi.sourceforge.net/DTD/sodipodi-0.dtd"
   xmlns:inkscape="http://www.inkscape.org/namespaces/inkscape"
   width="16"
   height="12"
   viewBox="0 0 16 12"
   id="svg2"
   version="1.1"
   inkscape:version="0.91 r13725"
   inkscape:export-filename="/home/djrm/Projects/godot/tools/editor/icons/icon_add_track.png"
   inkscape:export-xdpi="45"
   inkscape:export-ydpi="45"
   sodipodi:docname="icon_mini_string.svg">
  <defs
     id="defs4">
    <clipPath
       id="clipPath4253"
       clipPathUnits="userSpaceOnUse">
      <path
         inkscape:connector-curvature="0"
         id="path4255"
         d="m 16.458984,1024.37 a 12.000027,12.000027 0 0 0 -3.564453,0.4004 12.000027,12.000027 0 0 0 -8.4863279,14.6973 12.000027,12.000027 0 0 0 14.6972659,8.4863 12.000027,12.000027 0 0 0 8.486328,-14.6973 12.000027,12.000027 0 0 0 -11.132813,-8.8867 z M 16.25,1029.8212 a 6.5451717,6.5451717 0 0 1 6.072266,4.8476 6.5451717,6.5451717 0 0 1 -4.628907,8.0157 6.5451717,6.5451717 0 0 1 -8.0156246,-4.6289 6.5451717,6.5451717 0 0 1 4.6289066,-8.0157 6.5451717,6.5451717 0 0 1 1.943359,-0.2187 z"
         style="fill:#ffffff;fill-opacity:1;stroke:none;stroke-width:4;stroke-linecap:round;stroke-linejoin:round;stroke-miterlimit:4;stroke-dasharray:none;stroke-opacity:1" />
    </clipPath>
    <clipPath
       id="clipPath4199"
       clipPathUnits="userSpaceOnUse">
      <path
         style="opacity:1;fill:#ffffff;fill-opacity:1;stroke:none;stroke-width:2;stroke-linecap:round;stroke-linejoin:miter;stroke-miterlimit:4;stroke-dasharray:none;stroke-dashoffset:0;stroke-opacity:1"
         d="m 16.5,1025.8622 a 11.8125,10.499999 0 0 0 -11.8125001,10.5 11.8125,10.499999 0 0 0 11.8125001,10.5 11.8125,10.499999 0 0 0 11.8125,-10.5 11.8125,10.499999 0 0 0 -11.8125,-10.5 z m -3.375,3 a 3.375,2.9999997 0 0 1 3.375,3 3.375,2.9999997 0 0 1 -3.375,3 3.375,2.9999997 0 0 1 -3.3750001,-3 3.375,2.9999997 0 0 1 3.3750001,-3 z"
         id="path4201"
         inkscape:connector-curvature="0" />
    </clipPath>
    <clipPath
       clipPathUnits="userSpaceOnUse"
       id="clipPath4392">
      <path
         style="fill:#e0e0e0;fill-opacity:1;stroke:none;stroke-width:2;stroke-linecap:round;stroke-linejoin:round;stroke-miterlimit:4;stroke-dasharray:none;stroke-opacity:1"
         d="m 8.072266,1041.3622 a 5,5 0 0 0 -3.607422,1.4648 5,5 0 0 0 0,7.0704 5,5 0 0 0 7.070312,0 l -1.416015,-1.4161 A 3,3 0 0 1 8,1049.3622 a 3,3 0 0 1 -3,-3 3,3 0 0 1 3,-3 3,3 0 0 1 2.119141,0.8809 l 1.416015,-1.4161 a 5,5 0 0 0 -3.46289,-1.4648 z"
         id="path4394"
         inkscape:connector-curvature="0" />
    </clipPath>
    <clipPath
       id="clipPath4196"
       clipPathUnits="userSpaceOnUse">
      <path
         inkscape:connector-curvature="0"
         id="path4198"
         d="m 8.0624999,1025.8622 a 3.375,2.9999997 0 0 0 -3.375,3 3.375,2.9999997 0 0 0 1.6875,2.5957 l 0,9.8115 a 3.375,2.9999997 0 0 0 -1.6875,2.5928 3.375,2.9999997 0 0 0 3.375,3 3.375,2.9999997 0 0 0 3.3750001,-3 3.375,2.9999997 0 0 0 -1.6875001,-2.5957 l 0,-8.7832 11.9311511,10.6054 a 3.375,2.9999997 0 0 0 -0.118651,0.7735 3.375,2.9999997 0 0 0 3.375,3 3.375,2.9999997 0 0 0 3.375,-3 3.375,2.9999997 0 0 0 -3.375,-3 3.375,2.9999997 0 0 0 -0.873413,0.1025 l -11.927857,-10.6025 9.884399,0 a 3.375,2.9999997 0 0 0 2.916871,1.5 3.375,2.9999997 0 0 0 3.375,-3 3.375,2.9999997 0 0 0 -3.375,-3 3.375,2.9999997 0 0 0 -2.920166,1.5 l -11.037964,0 a 3.375,2.9999997 0 0 0 -2.9168701,-1.5 z"
         style="opacity:1;fill:#ffffff;fill-opacity:1;stroke:none;stroke-width:2;stroke-linecap:round;stroke-linejoin:miter;stroke-miterlimit:4;stroke-dasharray:none;stroke-dashoffset:0;stroke-opacity:1" />
    </clipPath>
  </defs>
  <sodipodi:namedview
     id="base"
     pagecolor="#ffffff"
     bordercolor="#666666"
     borderopacity="1.0"
     inkscape:pageopacity="0.0"
     inkscape:pageshadow="2"
     inkscape:zoom="22.627417"
     inkscape:cx="8.0593097"
     inkscape:cy="5.2892963"
     inkscape:document-units="px"
     inkscape:current-layer="layer1"
     showgrid="true"
     units="px"
     inkscape:snap-bbox="true"
     inkscape:bbox-paths="true"
     inkscape:bbox-nodes="true"
     inkscape:snap-bbox-edge-midpoints="true"
     inkscape:snap-bbox-midpoints="false"
     inkscape:snap-object-midpoints="true"
     inkscape:snap-center="true"
     inkscape:window-width="1920"
     inkscape:window-height="1016"
     inkscape:window-x="0"
     inkscape:window-y="27"
     inkscape:window-maximized="1"
     inkscape:object-nodes="true"
     inkscape:snap-smooth-nodes="true">
    <inkscape:grid
       type="xygrid"
       id="grid3336" />
  </sodipodi:namedview>
  <metadata
     id="metadata7">
    <rdf:RDF>
      <cc:Work
         rdf:about="">
        <dc:format>image/svg+xml</dc:format>
        <dc:type
           rdf:resource="http://purl.org/dc/dcmitype/StillImage" />
        <dc:title />
      </cc:Work>
    </rdf:RDF>
  </metadata>
  <g
     inkscape:label="Layer 1"
     inkscape:groupmode="layer"
     id="layer1"
     transform="translate(0,-1040.3622)">
    <rect
       style="fill:#e0e0e0;fill-opacity:1;stroke:none;stroke-width:2;stroke-linecap:round;stroke-linejoin:round;stroke-miterlimit:4;stroke-dasharray:none;stroke-opacity:1"
       id="rect4155"
       width="3"
       height="2"
       x="0"
       y="1041.3622" />
    <rect
       style="fill:#e0e0e0;fill-opacity:1;stroke:none;stroke-width:2;stroke-linecap:round;stroke-linejoin:round;stroke-miterlimit:4;stroke-dasharray:none;stroke-opacity:1"
       id="rect4162"
       width="3"
       height="2"
       x="13"
       y="1042.3622" />
    <path
       style="fill:#e0e0e0;fill-opacity:1;stroke:none;stroke-width:2;stroke-linecap:round;stroke-linejoin:round;stroke-miterlimit:4;stroke-dasharray:none;stroke-opacity:1"
       id="path4164"
       sodipodi:type="arc"
       sodipodi:cx="2"
       sodipodi:cy="1043.3622"
       sodipodi:rx="2"
       sodipodi:ry="2"
       sodipodi:start="1.5707963"
       sodipodi:end="3.1415927"
       d="M 2.0000001,1045.3622 A 2,2 0 0 1 0.58578642,1044.7764 2,2 0 0 1 0,1043.3622 l 2,0 z" />
    <path
       transform="scale(-1,1)"
       d="m -14,1046.3622 a 2,2 0 0 1 -1.414214,-0.5858 A 2,2 0 0 1 -16,1044.3622 l 2,0 z"
       sodipodi:end="3.1415927"
       sodipodi:start="1.5707963"
       sodipodi:ry="2"
       sodipodi:rx="2"
       sodipodi:cy="1044.3622"
       sodipodi:cx="-14"
       sodipodi:type="arc"
       id="path4170"
       style="fill:#e0e0e0;fill-opacity:1;stroke:none;stroke-width:2;stroke-linecap:round;stroke-linejoin:round;stroke-miterlimit:4;stroke-dasharray:none;stroke-opacity:1" />
    <path
       style="opacity:1;fill:#e0e0e0;fill-opacity:1;stroke:none;stroke-width:2;stroke-linecap:round;stroke-linejoin:round;stroke-miterlimit:4;stroke-dasharray:none;stroke-dashoffset:0;stroke-opacity:1"
       d="m 8,1041.3622 c -1.656854,0 -3,1.3431 -3,3 0,1.6569 1.343146,3 3,3 0.552281,0 0.99999,0.4477 1,1 -10e-6,0.5523 -0.447719,1 -1,1 l -2,0 0,2 2,0 c 1.656854,0 3,-1.3431 3,-3 0,-1.6569 -1.343146,-3 -3,-3 -0.552281,0 -0.99999,-0.4477 -1,-1 10e-6,-0.5523 0.447719,-1 1,-1 l 2,0 0,-2 z"
       id="path4193"
       inkscape:connector-curvature="0"
       sodipodi:nodetypes="ssscsccssscsccs" />
  </g>
</svg>
