<?xml version="1.0" encoding="UTF-8" standalone="no"?>
<!-- Created with Inkscape (http://www.inkscape.org/) -->

<svg
   xmlns:dc="http://purl.org/dc/elements/1.1/"
   xmlns:cc="http://creativecommons.org/ns#"
   xmlns:rdf="http://www.w3.org/1999/02/22-rdf-syntax-ns#"
   xmlns:svg="http://www.w3.org/2000/svg"
   xmlns="http://www.w3.org/2000/svg"
   xmlns:sodipodi="http://sodipodi.sourceforge.net/DTD/sodipodi-0.dtd"
   xmlns:inkscape="http://www.inkscape.org/namespaces/inkscape"
   width="32"
   height="32"
   viewBox="0 0 32.000001 32.000001"
   id="svg2"
   version="1.1"
   inkscape:version="0.91 r13725"
   inkscape:export-filename="/home/djrm/Projects/godot/tools/editor/icons/icon_canvas_item_shader_graph.png"
   inkscape:export-xdpi="45"
   inkscape:export-ydpi="45"
   sodipodi:docname="icon_canvas_item_shader_graph.svg">
  <defs
     id="defs4">
    <clipPath
       clipPathUnits="userSpaceOnUse"
       id="clipPath4148">
      <path
         inkscape:connector-curvature="0"
         id="path4150"
         d="m 8,1024.3622 a 4,4.0000043 0 0 0 -4,4 4,4.0000043 0 0 0 2.5,3.7051 l 0,8.5898 a 4,3.9999871 0 0 0 -2.5,3.7051 4,3.9999871 0 0 0 4,4 4,3.9999871 0 0 0 4,-4 4,3.9999871 0 0 0 -2.5,-3.7051 l 0,-8.5937 a 4,4.0000043 0 0 0 0.056641,-0.022 l 10.759765,10.7598 A 4,4.0000043 0 0 0 20,1044.3598 a 4,4.0000043 0 0 0 4,4 4,4.0000043 0 0 0 4,-4 4,4.0000043 0 0 0 -4,-4 4,4.0000043 0 0 0 -1.558594,0.3203 l -10.759765,-10.7598 a 4,4.0000043 0 0 1 0.002,0 4,4.0000043 0 0 0 0.02148,-0.059 l 8.589844,0 a 4,4.0000043 0 0 0 3.705078,2.5 4,4.0000043 0 0 0 4,-4 4,4.0000043 0 0 0 -4,-4 4,4.0000043 0 0 0 -3.705078,2.5 l -8.589844,0 A 4,4.0000043 0 0 0 8,1024.3622 Z"
         style="fill:#ffffff;fill-opacity:1;stroke:none;stroke-width:4;stroke-linecap:round;stroke-linejoin:miter;stroke-miterlimit:4;stroke-dasharray:none;stroke-opacity:1" />
    </clipPath>
  </defs>
  <sodipodi:namedview
     id="base"
     pagecolor="#ffffff"
     bordercolor="#666666"
     borderopacity="1.0"
     inkscape:pageopacity="0.0"
     inkscape:pageshadow="2"
     inkscape:zoom="15.999999"
     inkscape:cx="6.4439633"
     inkscape:cy="20.370338"
     inkscape:document-units="px"
     inkscape:current-layer="layer1"
     showgrid="true"
     units="px"
     inkscape:snap-bbox="true"
     inkscape:bbox-paths="true"
     inkscape:bbox-nodes="true"
     inkscape:snap-bbox-edge-midpoints="true"
     inkscape:snap-bbox-midpoints="true"
     inkscape:snap-object-midpoints="true"
     inkscape:snap-center="true"
     inkscape:window-width="1920"
     inkscape:window-height="1016"
     inkscape:window-x="0"
     inkscape:window-y="27"
     inkscape:window-maximized="1">
    <inkscape:grid
       type="xygrid"
       id="grid3336" />
    <sodipodi:guide
       position="4.0000001,28.000018"
       orientation="24,0"
       id="guide4140" />
    <sodipodi:guide
       position="4.0000001,4.0000175"
       orientation="0,24"
       id="guide4142" />
    <sodipodi:guide
       position="28.000001,4.0000175"
       orientation="-24,0"
       id="guide4144" />
    <sodipodi:guide
       position="28.000001,28.000018"
       orientation="0,-24"
       id="guide4146" />
  </sodipodi:namedview>
  <metadata
     id="metadata7">
    <rdf:RDF>
      <cc:Work
         rdf:about="">
        <dc:format>image/svg+xml</dc:format>
        <dc:type
           rdf:resource="http://purl.org/dc/dcmitype/StillImage" />
        <dc:title />
      </cc:Work>
    </rdf:RDF>
  </metadata>
  <g
     inkscape:label="Layer 1"
     inkscape:groupmode="layer"
     id="layer1"
     transform="translate(0,-1020.3622)">
    <g
       id="g4254"
       mask="none"
       clip-path="url(#clipPath4148)">
      <rect
         y="1024.3622"
         x="4"
         height="4"
         width="24"
         id="rect4242"
         style="fill:#ff7070;fill-opacity:1;stroke:none;stroke-width:3;stroke-linecap:round;stroke-linejoin:miter;stroke-miterlimit:4;stroke-dasharray:none;stroke-opacity:1" />
      <rect
         style="fill:#ffeb70;fill-opacity:1;stroke:none;stroke-width:3;stroke-linecap:round;stroke-linejoin:miter;stroke-miterlimit:4;stroke-dasharray:none;stroke-opacity:1"
         id="rect4244"
         width="24"
         height="4"
         x="4"
         y="1028.3622" />
      <rect
         style="fill:#9dff70;fill-opacity:1;stroke:none;stroke-width:3;stroke-linecap:round;stroke-linejoin:miter;stroke-miterlimit:4;stroke-dasharray:none;stroke-opacity:1"
         id="rect4246"
         width="24"
         height="4"
         x="4"
         y="1032.3622" />
      <rect
         y="1036.3622"
         x="4"
         height="4"
         width="24"
         id="rect4248"
         style="fill:#70dbff;fill-opacity:1;stroke:none;stroke-width:3;stroke-linecap:round;stroke-linejoin:miter;stroke-miterlimit:4;stroke-dasharray:none;stroke-opacity:1" />
      <rect
         y="1040.3622"
         x="4"
         height="4"
         width="24"
         id="rect4250"
         style="fill:#a670ff;fill-opacity:1;stroke:none;stroke-width:3;stroke-linecap:round;stroke-linejoin:miter;stroke-miterlimit:4;stroke-dasharray:none;stroke-opacity:1" />
      <rect
         style="fill:#ff70ac;fill-opacity:1;stroke:none;stroke-width:3;stroke-linecap:round;stroke-linejoin:miter;stroke-miterlimit:4;stroke-dasharray:none;stroke-opacity:1"
         id="rect4252"
         width="24"
         height="4"
         x="4"
         y="1044.3622" />
    </g>
  </g>
</svg>
