<?xml version="1.0" encoding="UTF-8" standalone="no"?>
<!-- Created with Inkscape (http://www.inkscape.org/) -->

<svg
   xmlns:dc="http://purl.org/dc/elements/1.1/"
   xmlns:cc="http://creativecommons.org/ns#"
   xmlns:rdf="http://www.w3.org/1999/02/22-rdf-syntax-ns#"
   xmlns:svg="http://www.w3.org/2000/svg"
   xmlns="http://www.w3.org/2000/svg"
   xmlns:sodipodi="http://sodipodi.sourceforge.net/DTD/sodipodi-0.dtd"
   xmlns:inkscape="http://www.inkscape.org/namespaces/inkscape"
   width="16"
   height="16"
   viewBox="0 0 16 16"
   id="svg2"
   version="1.1"
   inkscape:version="0.91 r13725"
   inkscape:export-filename="/home/djrm/Projects/godot/tools/editor/icons/icon_ungroup.png"
   inkscape:export-xdpi="90"
   inkscape:export-ydpi="90"
   sodipodi:docname="icon_group.svg">
  <defs
     id="defs4" />
  <sodipodi:namedview
     id="base"
     pagecolor="#ffffff"
     bordercolor="#666666"
     borderopacity="1.0"
     inkscape:pageopacity="0.0"
     inkscape:pageshadow="2"
     inkscape:zoom="5.6568543"
     inkscape:cx="14.789684"
     inkscape:cy="26.718572"
     inkscape:document-units="px"
     inkscape:current-layer="layer1"
     showgrid="true"
     units="px"
     inkscape:snap-bbox="true"
     inkscape:bbox-paths="true"
     inkscape:bbox-nodes="true"
     inkscape:snap-bbox-edge-midpoints="true"
     inkscape:snap-bbox-midpoints="true"
     inkscape:snap-object-midpoints="true"
     inkscape:snap-center="true"
     inkscape:window-width="1920"
     inkscape:window-height="1016"
     inkscape:window-x="0"
     inkscape:window-y="27"
     inkscape:window-maximized="1"
     inkscape:snap-midpoints="false"
     inkscape:snap-smooth-nodes="false"
     inkscape:object-nodes="false"
     showguides="false">
    <inkscape:grid
       type="xygrid"
       id="grid3336"
       empspacing="4" />
  </sodipodi:namedview>
  <metadata
     id="metadata7">
    <rdf:RDF>
      <cc:Work
         rdf:about="">
        <dc:format>image/svg+xml</dc:format>
        <dc:type
           rdf:resource="http://purl.org/dc/dcmitype/StillImage" />
        <dc:title />
      </cc:Work>
    </rdf:RDF>
  </metadata>
  <g
     inkscape:label="Layer 1"
     inkscape:groupmode="layer"
     id="layer1"
     transform="translate(0,-1036.3622)">
    <path
       style="opacity:1;fill:#e0e0e0;fill-opacity:0.39215687;stroke:none;stroke-width:2;stroke-linecap:round;stroke-linejoin:round;stroke-miterlimit:4;stroke-dasharray:none;stroke-dashoffset:0;stroke-opacity:1"
       d="M 7 1 L 7 3 L 7 7 L 3 7 C 3 6.9999766 2.554 7 2 7 C 1.446 7 1 6.9999766 1 7 L 1 9 L 1 13 C 1 13.000023 1.446 13 2 13 C 2.554 13 3 13.000023 3 13 L 3 9 L 7 9 L 7 13 L 3 13 C 2.9999766 13 3 13.446 3 14 C 3 14.554 2.9999766 15 3 15 L 7 15 C 7 15.000023 7.446 15 8 15 C 8.554 15 9 15.000023 9 15 L 9 13 L 9 9 L 13 9 C 13 9.0000234 13.446 9 14 9 C 14.554 9 15 9.0000234 15 9 L 15 7 L 15 3 C 15 2.9999766 14.554 3 14 3 C 13.446 3 13 2.9999766 13 3 L 13 7 L 9 7 L 9 3 L 13 3 C 13.000023 3 13 2.554 13 2 C 13 1.446 13.000023 1 13 1 L 9 1 C 9 0.99997659 8.554 1 8 1 C 7.446 1 7 0.99997659 7 1 z "
       id="rect4697"
       transform="translate(0,1036.3622)" />
    <rect
       style="opacity:1;fill:#e0e0e0;fill-opacity:1;stroke:none;stroke-width:2;stroke-linecap:round;stroke-linejoin:round;stroke-miterlimit:4;stroke-dasharray:none;stroke-dashoffset:0;stroke-opacity:1"
       id="rect4679"
       width="2"
       height="1.9999826"
       x="1"
       y="1049.3622"
       rx="2.5000134"
       ry="4.2248896e-05" />
    <rect
       ry="4.224963e-05"
       rx="2.5000134"
       y="1037.3622"
       x="1"
       height="2.0000174"
       width="2"
       id="rect4681"
       style="opacity:1;fill:#e0e0e0;fill-opacity:1;stroke:none;stroke-width:2;stroke-linecap:round;stroke-linejoin:round;stroke-miterlimit:4;stroke-dasharray:none;stroke-dashoffset:0;stroke-opacity:1" />
    <rect
       style="opacity:1;fill:#e0e0e0;fill-opacity:1;stroke:none;stroke-width:2;stroke-linecap:round;stroke-linejoin:round;stroke-miterlimit:4;stroke-dasharray:none;stroke-dashoffset:0;stroke-opacity:1"
       id="rect4693"
       width="2"
       height="2.0000174"
       x="13"
       y="1037.3622"
       rx="2.5000134"
       ry="4.224963e-05" />
    <rect
       style="opacity:1;fill:#e0e0e0;fill-opacity:1;stroke:none;stroke-width:2;stroke-linecap:round;stroke-linejoin:round;stroke-miterlimit:4;stroke-dasharray:none;stroke-dashoffset:0;stroke-opacity:1"
       id="rect4726"
       width="2"
       height="2.0000174"
       x="13"
       y="1049.3622"
       rx="2.5000134"
       ry="4.224963e-05" />
  </g>
</svg>
