<?xml version="1.0" encoding="UTF-8" standalone="no"?>
<!-- Created with Inkscape (http://www.inkscape.org/) -->

<svg
   xmlns:dc="http://purl.org/dc/elements/1.1/"
   xmlns:cc="http://creativecommons.org/ns#"
   xmlns:rdf="http://www.w3.org/1999/02/22-rdf-syntax-ns#"
   xmlns:svg="http://www.w3.org/2000/svg"
   xmlns="http://www.w3.org/2000/svg"
   xmlns:sodipodi="http://sodipodi.sourceforge.net/DTD/sodipodi-0.dtd"
   xmlns:inkscape="http://www.inkscape.org/namespaces/inkscape"
   width="16"
   height="16"
   viewBox="0 0 16 16"
   id="svg2"
   version="1.1"
   inkscape:version="0.91 r13725"
   inkscape:export-filename="/home/djrm/Projects/godot/tools/editor/icons/icon_node_2d.png"
   inkscape:export-xdpi="90"
   inkscape:export-ydpi="90"
   sodipodi:docname="icon_remote_transform.svg">
  <defs
     id="defs4" />
  <sodipodi:namedview
     id="base"
     pagecolor="#ffffff"
     bordercolor="#666666"
     borderopacity="1.0"
     inkscape:pageopacity="0.0"
     inkscape:pageshadow="2"
     inkscape:zoom="16"
     inkscape:cx="7.0691739"
     inkscape:cy="9.3738931"
     inkscape:document-units="px"
     inkscape:current-layer="layer1"
     showgrid="true"
     units="px"
     inkscape:snap-bbox="true"
     inkscape:bbox-paths="true"
     inkscape:bbox-nodes="true"
     inkscape:snap-bbox-edge-midpoints="true"
     inkscape:snap-bbox-midpoints="true"
     inkscape:snap-object-midpoints="true"
     inkscape:snap-center="true"
     inkscape:window-width="1680"
     inkscape:window-height="1050"
     inkscape:window-x="1366"
     inkscape:window-y="0"
     inkscape:window-maximized="1"
     inkscape:object-paths="true"
     inkscape:snap-intersection-paths="true"
     inkscape:object-nodes="true"
     inkscape:snap-smooth-nodes="true">
    <inkscape:grid
       type="xygrid"
       id="grid3336"
       empspacing="4" />
  </sodipodi:namedview>
  <metadata
     id="metadata7">
    <rdf:RDF>
      <cc:Work
         rdf:about="">
        <dc:format>image/svg+xml</dc:format>
        <dc:type
           rdf:resource="http://purl.org/dc/dcmitype/StillImage" />
        <dc:title></dc:title>
      </cc:Work>
    </rdf:RDF>
  </metadata>
  <g
     inkscape:label="Layer 1"
     inkscape:groupmode="layer"
     id="layer1"
     transform="translate(0,-1036.3622)">
    <path
       style="opacity:1;fill:#fc9c9c;fill-opacity:0.99607843;stroke:none;stroke-width:2;stroke-linecap:round;stroke-linejoin:round;stroke-miterlimit:4;stroke-dasharray:none;stroke-dashoffset:0;stroke-opacity:1"
       id="path4155"
       sodipodi:type="arc"
       sodipodi:cx="744.13245"
       sodipodi:cy="734.23291"
       sodipodi:rx="4"
       sodipodi:ry="4"
       sodipodi:start="0"
       sodipodi:end="3.1415927"
       d="m 748.13245,734.23291 a 4,4 0 0 1 -2,3.4641 4,4 0 0 1 -4,0 4,4 0 0 1 -2,-3.4641 l 4,0 z"
       inkscape:transform-center-y="0.58575321"
       transform="matrix(0.70710678,0.70710678,-0.70710678,0.70710678,0,0)"
       inkscape:transform-center-x="0.58575732" />
    <circle
       style="opacity:1;fill:#fc9c9c;fill-opacity:0.99607843;stroke:none;stroke-width:2;stroke-linecap:round;stroke-linejoin:round;stroke-miterlimit:4;stroke-dasharray:none;stroke-dashoffset:0;stroke-opacity:1"
       id="path4159"
       cx="7"
       cy="1045.3622"
       r="1" />
    <path
       style="opacity:1;fill:#fc9c9c;fill-opacity:0.99607843;stroke:none;stroke-width:2;stroke-linecap:round;stroke-linejoin:round;stroke-miterlimit:4;stroke-dasharray:none;stroke-dashoffset:0;stroke-opacity:1"
       d="m 13.242641,1039.1196 a 6.0000172,6.0000172 0 0 0 -8.4852817,0 l 0.7071068,0.7071 a 5.0000172,5.0000172 0 0 1 7.0710679,0 5.0000172,5.0000172 0 0 1 0,7.071 l 0.707107,0.7071 a 6.0000172,6.0000172 0 0 0 0,-8.4852 z"
       id="circle4163"
       inkscape:connector-curvature="0"
       inkscape:transform-center-y="-0.87867618"
       inkscape:transform-center-x="-0.8786559" />
    <path
       style="opacity:1;fill:#fc9c9c;fill-opacity:0.99607843;stroke:none;stroke-width:2;stroke-linecap:round;stroke-linejoin:round;stroke-miterlimit:4;stroke-dasharray:none;stroke-dashoffset:0;stroke-opacity:1"
       d="m 11.828427,1040.5338 a 4.0000172,4.0000172 0 0 0 -5.6568541,0 l 0.7071068,0.7071 a 3.0000174,3.0000174 0 0 1 4.2426403,0 3.0000174,3.0000174 0 0 1 0,4.2426 l 0.707107,0.7071 a 4.0000172,4.0000172 0 0 0 0,-5.6568 z"
       id="circle4168"
       inkscape:connector-curvature="0"
       inkscape:transform-center-y="-0.58578284"
       inkscape:transform-center-x="-0.58576926" />
    <path
       style="opacity:1;fill:#fc9c9c;fill-opacity:0.99607843;stroke:none;stroke-width:2;stroke-linecap:round;stroke-linejoin:round;stroke-miterlimit:4;stroke-dasharray:none;stroke-dashoffset:0;stroke-opacity:1"
       d="m 10.414214,1041.948 a 2,2 0 0 0 -2.8284276,0 l 0.7071068,0.7071 a 1.0000174,1.0000174 0 0 1 1.4142136,0 1.0000174,1.0000174 0 0 1 0,1.4142 l 0.7071072,0.7071 a 2,2 0 0 0 0,-2.8284 z"
       id="circle4172"
       inkscape:connector-curvature="0"
       inkscape:transform-center-y="-0.29289334"
       inkscape:transform-center-x="-0.29288664" />
    <path
       style="fill:#fc9c9c;fill-opacity:0.99607843;fill-rule:evenodd;stroke:none;stroke-width:1px;stroke-linecap:butt;stroke-linejoin:miter;stroke-opacity:1"
       d="m 1,1051.3622 4,-5 1,0 0,5 z"
       id="path4181"
       inkscape:connector-curvature="0"
       sodipodi:nodetypes="ccccc" />
  </g>
</svg>
