<?xml version="1.0" encoding="UTF-8" standalone="no"?>
<!-- Created with Inkscape (http://www.inkscape.org/) -->

<svg
   xmlns:dc="http://purl.org/dc/elements/1.1/"
   xmlns:cc="http://creativecommons.org/ns#"
   xmlns:rdf="http://www.w3.org/1999/02/22-rdf-syntax-ns#"
   xmlns:svg="http://www.w3.org/2000/svg"
   xmlns="http://www.w3.org/2000/svg"
   xmlns:sodipodi="http://sodipodi.sourceforge.net/DTD/sodipodi-0.dtd"
   xmlns:inkscape="http://www.inkscape.org/namespaces/inkscape"
   width="32"
   height="32"
   viewBox="0 0 32.000001 32.000001"
   id="svg2"
   version="1.1"
   inkscape:version="0.91 r13725"
   inkscape:export-filename="/home/djrm/Projects/godot/tools/editor/icons/icon_anchor.png"
   inkscape:export-xdpi="45"
   inkscape:export-ydpi="45"
   sodipodi:docname="icon_anchor.svg">
  <defs
     id="defs4" />
  <sodipodi:namedview
     id="base"
     pagecolor="#ffffff"
     bordercolor="#666666"
     borderopacity="1.0"
     inkscape:pageopacity="0.0"
     inkscape:pageshadow="2"
     inkscape:zoom="16"
     inkscape:cx="18.708139"
     inkscape:cy="10.860114"
     inkscape:document-units="px"
     inkscape:current-layer="layer1"
     showgrid="true"
     units="px"
     inkscape:snap-bbox="true"
     inkscape:bbox-paths="true"
     inkscape:bbox-nodes="true"
     inkscape:snap-bbox-edge-midpoints="true"
     inkscape:snap-bbox-midpoints="true"
     inkscape:snap-object-midpoints="true"
     inkscape:snap-center="true"
     inkscape:window-width="1920"
     inkscape:window-height="1016"
     inkscape:window-x="0"
     inkscape:window-y="27"
     inkscape:window-maximized="1">
    <inkscape:grid
       type="xygrid"
       id="grid3336" />
    <sodipodi:guide
       position="4.0000001,28.000018"
       orientation="24,0"
       id="guide4140" />
    <sodipodi:guide
       position="4.0000001,4.0000175"
       orientation="0,24"
       id="guide4142" />
    <sodipodi:guide
       position="28.000001,4.0000175"
       orientation="-24,0"
       id="guide4144" />
    <sodipodi:guide
       position="28.000001,28.000018"
       orientation="0,-24"
       id="guide4146" />
  </sodipodi:namedview>
  <metadata
     id="metadata7">
    <rdf:RDF>
      <cc:Work
         rdf:about="">
        <dc:format>image/svg+xml</dc:format>
        <dc:type
           rdf:resource="http://purl.org/dc/dcmitype/StillImage" />
        <dc:title />
      </cc:Work>
    </rdf:RDF>
  </metadata>
  <g
     inkscape:label="Layer 1"
     inkscape:groupmode="layer"
     id="layer1"
     transform="translate(0,-1020.3622)">
    <path
       style="fill:#a5efac;fill-opacity:1;stroke:none;stroke-width:4;stroke-linecap:round;stroke-linejoin:miter;stroke-miterlimit:4;stroke-dasharray:none;stroke-opacity:1"
       d="M 16 3 A 4 4 0 0 0 12 7 A 4 4 0 0 0 16 11 A 4 4 0 0 0 20 7 A 4 4 0 0 0 16 3 z M 16 5 A 2.0000174 2.0000174 0 0 1 18 7 A 2.0000174 2.0000174 0 0 1 16 9 A 2.0000174 2.0000174 0 0 1 14 7 A 2.0000174 2.0000174 0 0 1 16 5 z "
       transform="translate(0,1020.3622)"
       id="path4229" />
    <rect
       style="fill:#a5efac;fill-opacity:1;stroke:none;stroke-width:4;stroke-linecap:round;stroke-linejoin:miter;stroke-miterlimit:4;stroke-dasharray:none;stroke-opacity:1"
       id="rect4236"
       width="2"
       height="18.000034"
       x="15"
       y="1030.3622" />
    <path
       style="fill:#a5efac;fill-opacity:1;stroke:none;stroke-width:4;stroke-linecap:round;stroke-linejoin:miter;stroke-miterlimit:4;stroke-dasharray:none;stroke-opacity:1"
       d="m 5,1038.3631 a 11,11 0 0 0 5.5,9.5254 11,11 0 0 0 11,0 11,11 0 0 0 5.5,-9.5254 l -3,0 a 8,8 0 0 1 -8,8 8,8 0 0 1 -8,-8 l -3,0 z"
       id="circle4238"
       inkscape:connector-curvature="0" />
    <rect
       style="fill:#a5efac;fill-opacity:1;stroke:none;stroke-width:4;stroke-linecap:round;stroke-linejoin:miter;stroke-miterlimit:4;stroke-dasharray:none;stroke-opacity:1"
       id="rect4258"
       width="12"
       height="2"
       x="10"
       y="1034.3622" />
  </g>
</svg>
