<?xml version="1.0" encoding="UTF-8" standalone="no"?>
<!-- Created with Inkscape (http://www.inkscape.org/) -->

<svg
   xmlns:dc="http://purl.org/dc/elements/1.1/"
   xmlns:cc="http://creativecommons.org/ns#"
   xmlns:rdf="http://www.w3.org/1999/02/22-rdf-syntax-ns#"
   xmlns:svg="http://www.w3.org/2000/svg"
   xmlns="http://www.w3.org/2000/svg"
   xmlns:sodipodi="http://sodipodi.sourceforge.net/DTD/sodipodi-0.dtd"
   xmlns:inkscape="http://www.inkscape.org/namespaces/inkscape"
   width="16"
   height="16"
   viewBox="0 0 16 16"
   id="svg2"
   version="1.1"
   inkscape:version="0.91 r13725"
   inkscape:export-filename="/home/godotengine/godot/tools/editor/icons/con_script_create.png"
   inkscape:export-xdpi="90"
   inkscape:export-ydpi="90"
   sodipodi:docname="icon_script_remove.svg">
  <defs
     id="defs4" />
  <sodipodi:namedview
     id="base"
     pagecolor="#ffffff"
     bordercolor="#666666"
     borderopacity="1.0"
     inkscape:pageopacity="0.0"
     inkscape:pageshadow="2"
     inkscape:zoom="42.379266"
     inkscape:cx="6.774667"
     inkscape:cy="6.9870579"
     inkscape:document-units="px"
     inkscape:current-layer="layer1"
     showgrid="true"
     units="px"
     inkscape:snap-bbox="true"
     inkscape:bbox-paths="true"
     inkscape:bbox-nodes="true"
     inkscape:snap-bbox-edge-midpoints="true"
     inkscape:snap-bbox-midpoints="true"
     inkscape:snap-object-midpoints="true"
     inkscape:snap-center="true"
     inkscape:window-width="1920"
     inkscape:window-height="1016"
     inkscape:window-x="0"
     inkscape:window-y="27"
     inkscape:window-maximized="1"
     showguides="false"
     inkscape:snap-smooth-nodes="true"
     inkscape:object-nodes="true">
    <inkscape:grid
       type="xygrid"
       id="grid3336"
       empspacing="4" />
  </sodipodi:namedview>
  <metadata
     id="metadata7">
    <rdf:RDF>
      <cc:Work
         rdf:about="">
        <dc:format>image/svg+xml</dc:format>
        <dc:type
           rdf:resource="http://purl.org/dc/dcmitype/StillImage" />
        <dc:title />
      </cc:Work>
    </rdf:RDF>
  </metadata>
  <g
     inkscape:label="Layer 1"
     inkscape:groupmode="layer"
     id="layer1"
     transform="translate(0,-1036.3622)">
    <path
       style="opacity:1;fill:#e0e0e0;fill-opacity:1;stroke:none;stroke-width:2;stroke-linecap:butt;stroke-linejoin:bevel;stroke-miterlimit:4;stroke-dasharray:none;stroke-dashoffset:0;stroke-opacity:0.99607843"
       d="M 6 1 L 6 2 C 5.4477153 2 5 2.4477153 5 3 L 5 13 L 4 13 L 4 11 L 2 11 L 2 13 C 2.0002826 13.356983 2.1908437 13.686743 2.5 13.865234 C 2.6519425 13.953279 2.8243914 13.999759 3 14 L 3 15 L 8.6347656 15 L 7.0507812 13.416016 L 8.4648438 12.001953 L 7.0507812 10.585938 L 10.585938 7.0507812 L 12 8.4648438 L 12 8 L 12 5 L 15 5 L 15 3 C 15 1.8954305 14.104569 1 13 1 L 6 1 z "
       transform="translate(0,1036.3622)"
       id="rect4255" />
    <path
       style="opacity:1;fill:#b4b4b4;fill-opacity:1;stroke:none;stroke-width:2;stroke-linecap:butt;stroke-linejoin:bevel;stroke-miterlimit:4;stroke-dasharray:none;stroke-dashoffset:0;stroke-opacity:0.99607843"
       d="M 6 1 C 4.8954305 1 4 1.8954305 4 3 L 4 10 L 2 10 L 1 10 L 1 11 L 1 13 C 1 14.104569 1.8954305 15 3 15 C 4.1045695 15 5 14.104569 5 13 L 5 3 C 5 2.4477153 5.4477153 2 6 2 C 6.5522847 2 7 2.4477153 7 3 L 7 4 L 7 5 L 7 6 L 8 6 L 12 6 L 12 5 L 8 5 L 8 4 L 8 3 C 8 1.8954305 7.1045695 1 6 1 z M 2 11 L 4 11 L 4 13 C 4 13.552285 3.5522847 14 3 14 C 2.4477153 14 2 13.552285 2 13 L 2 11 z "
       id="path4265"
       transform="translate(0,1036.3622)" />
    <circle
       cy="1048.3622"
       cx="3"
       id="ellipse4234"
       style="opacity:1;fill:#e0e0e0;fill-opacity:1;stroke:none;stroke-width:2;stroke-linecap:butt;stroke-linejoin:bevel;stroke-miterlimit:4;stroke-dasharray:none;stroke-dashoffset:0;stroke-opacity:0.99607843"
       ry="1.0000174"
       rx="1" />
    <path
       style="fill:#ff8484;fill-opacity:1;fill-rule:evenodd;stroke:none;stroke-width:1px;stroke-linecap:butt;stroke-linejoin:miter;stroke-opacity:1"
       d="m 13.414214,1048.3622 1.414213,-1.4142 -1.414213,-1.4142 L 12,1046.948 l -1.414214,-1.4142 -1.4142131,1.4142 1.4142131,1.4142 -1.4142131,1.4142 1.4142131,1.4142 1.414214,-1.4142 1.414214,1.4142 1.414213,-1.4142 z"
       id="path8069"
       inkscape:connector-curvature="0"
       sodipodi:nodetypes="ccccccccccccc" />
  </g>
</svg>
