<?xml version="1.0" encoding="UTF-8" standalone="no"?>
<!-- Created with Inkscape (http://www.inkscape.org/) -->

<svg
   xmlns:dc="http://purl.org/dc/elements/1.1/"
   xmlns:cc="http://creativecommons.org/ns#"
   xmlns:rdf="http://www.w3.org/1999/02/22-rdf-syntax-ns#"
   xmlns:svg="http://www.w3.org/2000/svg"
   xmlns="http://www.w3.org/2000/svg"
   xmlns:sodipodi="http://sodipodi.sourceforge.net/DTD/sodipodi-0.dtd"
   xmlns:inkscape="http://www.inkscape.org/namespaces/inkscape"
   width="16"
   height="16"
   viewBox="0 0 16 16"
   id="svg2"
   version="1.1"
   inkscape:version="0.91 r13725"
   inkscape:export-filename="/home/djrm/Projects/godot/tools/editor/icons/icon_sprite.png"
   inkscape:export-xdpi="45"
   inkscape:export-ydpi="45"
   sodipodi:docname="icon_viewport_texture.svg">
  <defs
     id="defs4" />
  <sodipodi:namedview
     id="base"
     pagecolor="#ffffff"
     bordercolor="#666666"
     borderopacity="1.0"
     inkscape:pageopacity="0.0"
     inkscape:pageshadow="2"
     inkscape:zoom="22.627417"
     inkscape:cx="18.523635"
     inkscape:cy="6.064799"
     inkscape:document-units="px"
     inkscape:current-layer="layer1"
     showgrid="true"
     units="px"
     inkscape:snap-bbox="true"
     inkscape:bbox-paths="true"
     inkscape:bbox-nodes="true"
     inkscape:snap-bbox-edge-midpoints="true"
     inkscape:snap-bbox-midpoints="true"
     inkscape:snap-object-midpoints="true"
     inkscape:snap-center="true"
     inkscape:window-width="1920"
     inkscape:window-height="1016"
     inkscape:window-x="0"
     inkscape:window-y="27"
     inkscape:window-maximized="1"
     inkscape:snap-smooth-nodes="true"
     inkscape:object-nodes="true"
     inkscape:snap-intersection-paths="true">
    <inkscape:grid
       type="xygrid"
       id="grid3336" />
  </sodipodi:namedview>
  <metadata
     id="metadata7">
    <rdf:RDF>
      <cc:Work
         rdf:about="">
        <dc:format>image/svg+xml</dc:format>
        <dc:type
           rdf:resource="http://purl.org/dc/dcmitype/StillImage" />
        <dc:title></dc:title>
      </cc:Work>
    </rdf:RDF>
  </metadata>
  <g
     inkscape:label="Layer 1"
     inkscape:groupmode="layer"
     id="layer1"
     transform="translate(0,-1036.3622)">
    <path
       style="opacity:1;fill:#e0e0e0;fill-opacity:0.99607843;stroke:none;stroke-width:2;stroke-linecap:butt;stroke-linejoin:bevel;stroke-miterlimit:4;stroke-dasharray:none;stroke-dashoffset:0;stroke-opacity:0.99607843"
       d="M 3 2 C 2.4695977 2.0000801 1.9609485 2.2108464 1.5859375 2.5859375 C 1.2108464 2.9609485 1.0000801 3.4695977 1 4 L 1 12 C 1.0000803 12.530402 1.2108465 13.039051 1.5859375 13.414062 C 1.9609484 13.789154 2.4695976 13.99992 3 14 L 13 14 C 14.104569 14 15 13.104569 15 12 L 15 4 C 15 2.8954305 14.104569 2 13 2 L 3 2 z M 3 3 L 13 3 C 13.552281 3.0000096 13.99999 3.4477192 14 4 L 14 12 C 13.99999 12.552281 13.552281 12.99999 13 13 L 3 13 C 2.4477192 12.99999 2.0000096 12.552281 2 12 L 2 4 C 2.0000096 3.4477192 2.4477192 3.0000096 3 3 z M 9 6 L 9 7 L 8 7 L 8 8 L 6 8 L 6 9 L 5 9 L 5 10 L 4 10 L 4 11 L 6 11 L 8 11 L 10 11 L 12 11 L 12 9 L 11 9 L 11 8 L 11 7 L 10 7 L 10 6 L 9 6 z "
       transform="translate(0,1036.3622)"
       id="rect4179" />
  </g>
</svg>
