<?xml version="1.0" encoding="UTF-8" standalone="no"?>
<!-- Created with Inkscape (http://www.inkscape.org/) -->

<svg
   xmlns:dc="http://purl.org/dc/elements/1.1/"
   xmlns:cc="http://creativecommons.org/ns#"
   xmlns:rdf="http://www.w3.org/1999/02/22-rdf-syntax-ns#"
   xmlns:svg="http://www.w3.org/2000/svg"
   xmlns="http://www.w3.org/2000/svg"
   xmlns:sodipodi="http://sodipodi.sourceforge.net/DTD/sodipodi-0.dtd"
   xmlns:inkscape="http://www.inkscape.org/namespaces/inkscape"
   width="16"
   height="12"
   viewBox="0 0 16 12"
   id="svg2"
   version="1.1"
   inkscape:version="0.91 r13725"
   inkscape:export-filename="/home/djrm/Projects/godot/tools/editor/icons/icon_add_track.png"
   inkscape:export-xdpi="45"
   inkscape:export-ydpi="45"
   sodipodi:docname="icon_mini_aabb.svg">
  <defs
     id="defs4" />
  <sodipodi:namedview
     id="base"
     pagecolor="#ffffff"
     bordercolor="#666666"
     borderopacity="1.0"
     inkscape:pageopacity="0.0"
     inkscape:pageshadow="2"
     inkscape:zoom="45.254835"
     inkscape:cx="5.0272453"
     inkscape:cy="5.132155"
     inkscape:document-units="px"
     inkscape:current-layer="layer1"
     showgrid="true"
     units="px"
     inkscape:snap-bbox="true"
     inkscape:bbox-paths="true"
     inkscape:bbox-nodes="true"
     inkscape:snap-bbox-edge-midpoints="true"
     inkscape:snap-bbox-midpoints="false"
     inkscape:snap-object-midpoints="true"
     inkscape:snap-center="true"
     inkscape:window-width="1920"
     inkscape:window-height="1016"
     inkscape:window-x="0"
     inkscape:window-y="27"
     inkscape:window-maximized="1"
     inkscape:object-nodes="false"
     inkscape:snap-smooth-nodes="false">
    <inkscape:grid
       type="xygrid"
       id="grid3336" />
  </sodipodi:namedview>
  <metadata
     id="metadata7">
    <rdf:RDF>
      <cc:Work
         rdf:about="">
        <dc:format>image/svg+xml</dc:format>
        <dc:type
           rdf:resource="http://purl.org/dc/dcmitype/StillImage" />
        <dc:title />
      </cc:Work>
    </rdf:RDF>
  </metadata>
  <g
     inkscape:label="Layer 1"
     inkscape:groupmode="layer"
     id="layer1"
     transform="translate(0,-1040.3622)">
    <path
       style="fill:#ee7991;fill-opacity:1;stroke:none;stroke-width:2;stroke-linecap:butt;stroke-linejoin:round;stroke-miterlimit:4;stroke-dasharray:none;stroke-opacity:1"
       d="m 5,1041.3622 a 3,3 0 0 0 -3,3 3,3 0 0 0 3,3 l 2,0 0,-6 -2,0 z m 0,2 0,2 a 1.0000174,1.0000174 0 0 1 -1,-1 1.0000174,1.0000174 0 0 1 1,-1 z"
       id="path4893"
       inkscape:connector-curvature="0" />
    <path
       style="fill:#f39bad;fill-opacity:1;stroke:none;stroke-width:2;stroke-linecap:butt;stroke-linejoin:round;stroke-miterlimit:4;stroke-dasharray:none;stroke-opacity:1"
       d="m 3,1046.3622 a 3,3 0 0 0 -3,3 3,3 0 0 0 3,3 l 2,0 0,-6 -2,0 z m 0,2 0,2 a 1.0000174,1.0000174 0 0 1 -1,-1 1.0000174,1.0000174 0 0 1 1,-1 z"
       id="path4234"
       inkscape:connector-curvature="0" />
    <path
       id="path4145"
       d="m 12.999983,1043.3622 a 3,3 0 0 1 3,3 l -2,0 a 1.0000174,1.0000174 0 0 0 -1,-1 l 0,-2 z"
       style="fill:#ee7991;fill-opacity:1;stroke:none;stroke-width:2;stroke-linecap:butt;stroke-linejoin:round;stroke-miterlimit:4;stroke-dasharray:none;stroke-opacity:1"
       inkscape:connector-curvature="0" />
    <path
       inkscape:connector-curvature="0"
       style="fill:#ee7991;fill-opacity:1;stroke:none;stroke-width:2;stroke-linecap:butt;stroke-linejoin:round;stroke-miterlimit:4;stroke-dasharray:none;stroke-opacity:1"
       d="m 12.999983,1049.3622 a 3,3 0 0 0 3,-3 l -2,0 a 1.0000174,1.0000174 0 0 1 -1,1 l 0,2 z"
       id="path4147" />
    <rect
       transform="matrix(0,1,1,0,0,0)"
       y="11"
       x="1041.3622"
       height="2.0000002"
       width="8.0000172"
       id="rect4149"
       style="fill:#ee7991;fill-opacity:1;stroke:none;stroke-width:2;stroke-linecap:butt;stroke-linejoin:round;stroke-miterlimit:4;stroke-dasharray:none;stroke-opacity:1" />
    <path
       style="fill:#f39bad;fill-opacity:1;stroke:none;stroke-width:2;stroke-linecap:butt;stroke-linejoin:round;stroke-miterlimit:4;stroke-dasharray:none;stroke-opacity:1"
       d="m 8,1044.3622 0,8 2,0 a 3,3 0 0 0 3,-3 3,3 0 0 0 -3,-3 l 0,-2 -2,0 z m 2,4 a 1.0000174,1.0000174 0 0 1 1,1 1.0000174,1.0000174 0 0 1 -1,1 l 0,-2 z"
       id="path4151"
       inkscape:connector-curvature="0" />
  </g>
</svg>
