<svg xmlns="http://www.w3.org/2000/svg" width="1024pt" height="1024pt" viewBox="0 0 1024 1024"><path fill="#fff" d="M 105 673 L 105 706 C 376.332031 942 647.667969 942 919 706 L 919 673 Z M 105 673"/><path fill="#478cbf" d="M 105 673 L 257 687 C 265 687.667969 270 692.332031 272 701 L 276 768 L 408 778 L 416 717 C 417.332031 709.667969 422.332031 704.667969 431 702 L 593 702 C 601.667969 704.667969 606.667969 709.667969 608 717 L 616 778 L 748 768 L 752 701 C 754 692.332031 759 687.667969 767 687 L 919 673 L 919 427 C 939 401 957.667969 374 975 346 C 951.667969 306.667969 924 270.667969 892 238 C 863.332031 251.332031 836 267 810 285 C 783.332031 260.332031 754 239 722 221 C 726.667969 187 729.332031 153 730 119 C 690.667969 100.332031 649.667969 86.332031 607 77 C 589.667969 105.667969 574.332031 135.332031 561 166 C 528.332031 161.332031 495.667969 161.332031 463 166 C 449.667969 135.332031 434.332031 105.667969 417 77 C 374.332031 86.332031 333.332031 100.332031 294 119 C 294.667969 153 297.332031 187 302 221 C 270 239 240.667969 260.332031 214 285 C 188 267 160.667969 251.332031 132 238 C 100 270.667969 72.332031 306.667969 49 346 C 66.332031 374 85 401 105 427 Z M 105 706 L 105 745 C 105 1021 918 1021 919 745 L 919 706 L 785 718 L 780 787 C 778.667969 793.667969 774 798 766 800 L 604 811 C 596 811 590.667969 807.332031 588 800 L 578 735 L 446 735 L 436 800 C 433.332031 807.332031 428 811 420 811 L 258 800 C 250 798 245.332031 793.667969 244 787 L 239 718 Z M 105 706"/><path fill="#fff" d="M483 600C483 634 541 634 541 600L541 514C541 480 483 480 483 514ZM815 526C815 575.707031 774.707031 616 725 616 675.292969 616 635 575.707031 635 526 635 476.292969 675.292969 436 725 436 774.707031 436 815 476.292969 815 526M389 526C389 575.707031 348.707031 616 299 616 249.292969 616 209 575.707031 209 526 209 476.292969 249.292969 436 299 436 348.707031 436 389 476.292969 389 526"/><path fill="#414042" d="M367 532C367 565.136719 340.136719 592 307 592 273.863281 592 247 565.136719 247 532 247 498.863281 273.863281 472 307 472 340.136719 472 367 498.863281 367 532M777 532C777 565.136719 750.136719 592 717 592 683.863281 592 657 565.136719 657 532 657 498.863281 683.863281 472 717 472 750.136719 472 777 498.863281 777 532"/></svg>