<svg xmlns="http://www.w3.org/2000/svg" width="16" height="16"><g fill="#e0e0e0"><path fill-opacity=".5" d="M10.5 11.5H6.125V11l1-1V8l-1-1-1 1v2l-1 1v.5H2.75V5.625L3.125 6h1l.5-.5H10.5v.125L9.125 7l1 1h.375z"/><path d="M1 14a1 1 0 001 1h9.5a1 1 0 00.707-.293l2.5-2.5A1 1 0 0015 11.5V2a1 1 0 00-1-1H4.5a1 1 0 00-.707.293l-2.5 2.5A1 1 0 001 4.5zm1.25-9H11v7H2.25zm10 6.25v-6.5L14 3v6.5zm-1-7.5H3L4.75 2H13zM7.625 11.5l.5-.5v-1l1-1 1 1v1l.375.375v.125zm-4.875-.125V7h.375l1 1v1l-1 1v1zM8.625 5.5l-.5.5v1h-1l-1-1v-.5z"/></g></svg>
