<svg xmlns="http://www.w3.org/2000/svg" width="16" height="16"><path fill="#e0e0e0" d="M1 14a1 1 0 0 0 1 1h9.5a1 1 0 0 0 .707-.293l2.5-2.5A1 1 0 0 0 15 11.5V2a1 1 0 0 0-1-1H4.5a1 1 0 0 0-.707.293l-2.5 2.5A1 1 0 0 0 1 4.5zm1.25-9H11v7H2.25zm10 6.25v-6.5L14 3v6.5zm-1-7.5H3L4.75 2H13zM3 11h4l1.25-1.25V9H9l1.25-1.25v-2h-2L7 7v.75h-.75v-2h-2L3 7z"/><path fill-opacity=".4" d="M3 7h2l1.25-1.25h-2zm2 2h2V7.75h-.75zm2-2h2l1.25-1.25H8z"/><path fill-opacity=".2" d="M5 7v2l1.25-1.25v-2zm2 2v2l1.25-1.25V9zm2 0V7l1.25-1.25v2z"/></svg>