<svg width="32" height="32" xmlns="http://www.w3.org/2000/svg">
 <g>
  <title>Layer 1</title>
  <path stroke="#000" stroke-width="0" id="svg_10" d="m0.73394,16.88073l0,0c0,-5.32017 3.57351,-9.63303 7.98165,-9.63303l0,0c2.11686,0 4.14703,1.0149 5.64388,2.82145c1.49685,1.80654 2.33777,4.25674 2.33777,6.81158l0,0c0,5.32017 -3.57351,9.63303 -7.98165,9.63303l0,0c-4.40814,0 -7.98165,-4.31285 -7.98165,-9.63303zm3.99083,0l0,0c0,2.66009 1.78675,4.81651 3.99083,4.81651c2.20407,0 3.99083,-2.15643 3.99083,-4.81651c0,-2.66009 -1.78675,-4.81651 -3.99083,-4.81651l0,0c-2.20407,0 -3.99083,2.15643 -3.99083,4.81651z" fill="#ffffff"/>
  <rect stroke="#000" id="svg_13" height="21.46789" width="4.22018" y="6.14679" x="17.68807" stroke-width="0" fill="#ffffff"/>
  <rect stroke="#000" id="svg_14" height="4" width="6.6055" y="14.88073" x="20.99082" stroke-width="0" fill="#ffffff"/>
  <rect stroke="#000" id="svg_17" height="21.46789" width="4.22018" y="6.14679" x="26.86238" stroke-width="0" fill="#ffffff"/>
 </g>
</svg>