<svg xmlns="http://www.w3.org/2000/svg" width="32" height="32"><path fill="#fff" d="m.73394 16.88073 0 0c0-5.32017 3.57351-9.63303 7.98165-9.63303l0 0c2.11686 0 4.14703 1.0149 5.64388 2.82145 1.49685 1.80654 2.33777 4.25674 2.33777 6.81158l0 0c0 5.32017-3.57351 9.63303-7.98165 9.63303l0 0c-4.40814 0-7.98165-4.31285-7.98165-9.63303zm3.99083 0 0 0c0 2.66009 1.78675 4.81651 3.99083 4.81651 2.20407 0 3.99083-2.15643 3.99083-4.81651 0-2.66009-1.78675-4.81651-3.99083-4.81651l0 0c-2.20407 0-3.99083 2.15643-3.99083 4.81651zM17.688 6.147H21.907999999999998V27.615000000000002H17.688z"/><path fill="#fff" d="M20.991 14.881H27.597V18.881H20.991z"/><path fill="#fff" d="M26.862 6.147H31.081999999999997V27.615000000000002H26.862z"/></svg>