<svg xmlns="http://www.w3.org/2000/svg" width="16" height="16"><g fill="#fff"><path d="M541.55 83.42c-.31559-.8542-1.5559-.26994-2.3053-.43h-26.985c4.0734 8.6461 6.8296 17.916 8.1 27.39h27.21c-.87833-7.7083-2.2516-15.391-4.7118-22.763-.43606-1.3989-.87212-2.7977-1.3082-4.1966zM574.9 137.56c-.63816 8.7882-2.239 17.524-4.6106 26.006-.0134.40611-.67138 1.2979.0983 1.1139h27.182c2.1482-8.8979 3.5565-17.976 4.17-27.11h-26.87zM574.75 108.68c.05.66667.1 1.3333.15 2h26.87c-.63471-9.1329-2.0205-18.214-4.18-27.11h-27.59c2.4168 8.1873 3.7971 16.682 4.75 25.11zM482.75 163.49c4.7691-7.4162 9.8119-17.361 10.448-25.77h-27.638c-4.0439 12.332-13.844 22.642-26.07 27.11h42.3c.32-.44667.64-.89333.96-1.34zM464.38 107.11c.36667 1 .73333 2 1.1 3h27.92c-1.9087-9.7046-5.8533-19.158-11.8-27.11h-42.85c11.429 3.9591 20.954 12.963 25.63 24.11z" transform="translate(-16.078 1.388)scale(.0533)"/><path d="m546.38 137.61h-25.09c-1.6941 5.987-2.8156 13.085-5.9007 20.132-13.266 37.443-51.509 63.875-91.099 63.468-69.243 3.7476-121.3-78.435-88.32-139.44 20.996-47.132 81.704-67.144 127.49-46.507 11.44 4.759 21.411 12.472 30.421 20.732 32.52-.27198.0639.14238 32.807-.25786-2.8595-6.1373-8.5332-12.062-14.837-19.352-35.021-35.297-92.132-47.263-137.7-25.335-74.653 30.48-97.277 137.55-41.337 195.63 35.7 42.083 100.84 53.563 148.76 27.427 36.014-18.339 61.846-55.67 65.764-95.939l-.394-.42402z" transform="translate(-16.078 1.388)scale(.0533)"/></g></svg>
