<svg width="16" height="16" xmlns="http://www.w3.org/2000/svg">
 <g>
  <title>Layer 1</title>
  <path stroke="#000" stroke-width="0" id="svg_10" d="m0.73394,8.72215l0,-0.14417c0,-2.53341 1.80729,-4.58715 4.0367,-4.58715l0,0c1.0706,0 2.09734,0.48329 2.85437,1.34354c0.75703,0.86026 1.18233,2.02702 1.18233,3.24361l0,0c0,2.53342 -1.80729,4.58716 -4.0367,4.58716l0,0c-2.22941,0 -4.0367,-1.90957 -4.0367,-4.44298zm2.01835,-0.14417l0,0c0,1.26671 0.90364,2.29358 2.01835,2.29358c1.1147,0 2.01835,-1.02687 2.01835,-2.29358c0,-1.2667 -0.90364,-2.29358 -2.01835,-2.29358l0,0c-1.11471,0 -2.01835,1.02687 -2.01835,2.29358z" fill="#ffffff"/>
  <rect stroke="#000" id="svg_13" height="10" width="2" y="3.57798" x="9.06422" stroke-width="0" fill="#ffffff"/>
  <rect stroke="#000" id="svg_14" height="2.16514" width="3" y="7.49541" x="10.53211" stroke-width="0" fill="#ffffff"/>
  <rect stroke="#000" id="svg_17" height="10" width="2" y="3.57798" x="13.10091" stroke-width="0" fill="#ffffff"/>
 </g>
</svg>