<svg xmlns="http://www.w3.org/2000/svg" width="16" height="16"><path fill="#fff" d="m.73394 8.72215 0-.14417c0-2.53341 1.80729-4.58715 4.0367-4.58715l0 0c1.0706 0 2.09734.48329 2.85437 1.34354.75703.86026 1.18233 2.02702 1.18233 3.24361l0 0c0 2.53342-1.80729 4.58716-4.0367 4.58716l0 0c-2.22941 0-4.0367-1.90957-4.0367-4.44298zm2.01835-.14417 0 0c0 1.26671.90364 2.29358 2.01835 2.29358 1.1147 0 2.01835-1.02687 2.01835-2.29358 0-1.2667-.90364-2.29358-2.01835-2.29358l0 0c-1.11471 0-2.01835 1.02687-2.01835 2.29358zM9.064 3.578H11.064V13.578H9.064z"/><path fill="#fff" d="M10.532 7.495H13.532V9.66H10.532z"/><path fill="#fff" d="M13.101 3.578H15.101V13.578H13.101z"/></svg>
