<svg height="16" viewBox="0 0 16 16" width="16" xmlns="http://www.w3.org/2000/svg"><path d="m7 1-.56445 2.2578a5 5 0 0 0 -.68945.2793l-1.9883-1.1934-1.4141 1.4141 1.1953 1.9941a5 5 0 0 0 -.28516.68555l-2.2539.5625v2l2.2578.56445a5 5 0 0 0 .2793.6875l-1.1934 1.9902 1.4141 1.4141 1.9941-1.1953a5 5 0 0 0 .68555.28516l.5625 2.2539v-5.2695a2 2 0 0 1 -1-1.7305 2 2 0 0 1 1-1.7285v-.27148h1 4.5762a5 5 0 0 0 -.11328-.25195l1.1934-1.9902-1.4141-1.4141-1.9941 1.1953a5 5 0 0 0 -.68555-.28516l-.5625-2.2539h-2zm2 7v1 5 1h5c.55228 0 1-.4477 1-1v-5c0-.5523-.44772-1-1-1v4l-1-1-1 1v-4z" fill="#e0e0e0"/></svg>
