<svg height="16" viewBox="0 0 16 16" width="16" xmlns="http://www.w3.org/2000/svg"><path d="m7 1-.56445 2.2578a5 5 0 0 0 -.68945.2793l-1.9883-1.1934-1.4141 1.4141 1.1953 1.9941a5 5 0 0 0 -.28516.68555l-2.2539.5625h3v1 1h2v-.95117a2 2 0 0 1 0-.048828 2 2 0 0 1 2-2 2 2 0 0 1 2 2v1h5v-2l-2.2578-.56445a5 5 0 0 0 -.2793-.6875l1.1934-1.9902-1.4141-1.4141-1.9941 1.1953a5 5 0 0 0 -.68555-.28516l-.5625-2.2539h-2zm-6 7v4 4h2a3 3 0 0 0 3-3 3 3 0 0 0 -3-3v-2zm6 0v2h2v-2zm3 2v6h2v-4a1 1 0 0 1 1 1v3h2v-3a3 3 0 0 0 -3-3zm-7 2a1 1 0 0 1 1 1 1 1 0 0 1 -1 1zm4 0v4h2v-4z" fill="#e0e0e0"/></svg>
