<svg width="16" height="16" version="1.1" viewBox="0 0 16 16" xmlns="http://www.w3.org/2000/svg">
<g transform="translate(0 -1036.4)">
<path transform="translate(0 1036.4)" d="m7 1l-0.56445 2.2578a5 5 0 0 0 -0.68945 0.2793l-1.9883-1.1934-1.4141 1.4141 1.1953 1.9941a5 5 0 0 0 -0.28516 0.68555l-2.2539 0.5625h3v1 1h2v-0.95117a2 2 0 0 1 0 -0.048828 2 2 0 0 1 2 -2 2 2 0 0 1 2 2v1h5v-2l-2.2578-0.56445a5 5 0 0 0 -0.2793 -0.6875l1.1934-1.9902-1.4141-1.4141-1.9941 1.1953a5 5 0 0 0 -0.68555 -0.28516l-0.5625-2.2539h-2zm-6 7v4 4h2a3 3 0 0 0 3 -3 3 3 0 0 0 -3 -3v-2h-2zm6 0v2h2v-2h-2zm3 2v6h2v-4a1 1 0 0 1 1 1v3h2v-3a3 3 0 0 0 -3 -3h-2zm-7 2a1 1 0 0 1 1 1 1 1 0 0 1 -1 1v-2zm4 0v4h2v-4h-2z" fill="#e0e0e0"/>
</g>
</svg>
