<svg xmlns="http://www.w3.org/2000/svg" viewBox="0 0 25.205 24.795"><g fill="#fff" fill-opacity=".85"><path d="M6.572 24.795h11.7c2.236 0 3.935-.235 5.136-1.445 1.211-1.211 1.436-2.881 1.436-5.127V6.602c0-2.247-.225-3.926-1.436-5.127-1.21-1.211-2.9-1.446-5.137-1.446H6.505c-2.158 0-3.858.244-5.068 1.455C.225 2.695 0 4.375 0 6.534v11.689c0 2.246.215 3.925 1.426 5.127 1.22 1.21 2.91 1.445 5.146 1.445m-.342-1.729c-1.416 0-2.763-.214-3.535-.986-.761-.771-.966-2.09-.966-3.515V6.317c0-1.464.205-2.812.966-3.584.762-.771 2.13-.976 3.594-.976h12.324c1.416 0 2.764.215 3.526.986.771.772.976 2.09.976 3.516v12.305c0 1.425-.205 2.744-.976 3.515-.762.772-2.11.986-3.526.986Z"/><path d="M6.738 9.658c1.026.117 1.826-1.015 1.758-1.914-1.025.049-1.777.957-1.758 1.914m3.496 4.375c-.488-.205-.8-.527-.976-.976-.205-.498-.156-1.006 0-1.436.088-.283.283-.635.762-.928-.362-.546-.938-.83-1.622-.83-.771 0-1.22.4-1.61.4-.323 0-.694-.38-1.31-.38-.673 0-1.22.273-1.582.732-.43.518-.605 1.182-.605 1.846 0 1.104.498 2.383 1.211 3.193.371.43.674.635 1.025.635.518 0 .801-.371 1.416-.371.274 0 .498.117.664.166.254.088.43.195.723.195.313 0 .566-.127.723-.283a4.7 4.7 0 0 0 1.181-1.963m3.457-5.664h-1.308v1.494h-.908v1.016h.908v3.662c0 1.28.498 1.738 1.797 1.738.283 0 .595-.039.703-.049v-1.074c-.059.04-.293.04-.42.04-.518 0-.772-.225-.772-.801v-3.516h1.211V9.863h-1.21Zm5.518 7.861 2.305-6.367h-1.426l-1.563 5.108-1.64-5.108h-1.387l2.344 6.368Z"/></g></svg>
