<svg height="16" width="16" xmlns="http://www.w3.org/2000/svg"><path d="m8.5833347.9999999c-.5651036 0-1.0208334.4557298-1.0208334 1.0208332v5.9791669h-.2916667v-4.8125001c0-.5651036-.4557296-1.0208334-1.0208332-1.0208334-.5651037 0-1.0208333.4557298-1.0208333 1.0208334v7.1458331l-1.4036461-1.8684892c-.2187498-.2916664-.5651044-.4648438-.9296874-.4648438-.6471348 0-1.1666667.5286464-1.1666667 1.1666666 0 .2552083.082032.5013023.2369791.7018234l3.5000002 4.666666c.2187497.291667.5651045.464844.9296875.464844h6.2708333c.419271 0 .783854-.300781.865885-.710938l.692709-3.691406c.02734-.173177.04557-.355468.04557-.53776v-4.5390627c0-.5651037-.455729-1.0208333-1.020833-1.0208333-.565103 0-1.020833.4557296-1.020833 1.0208333v2.4791667h-.29167v-4.8125001c0-.5651036-.45573-1.0208334-1.020833-1.0208334s-1.0208337.4557298-1.0208337 1.0208334v4.8125001h-.2916612v-5.9791669c0-.5651034-.4557299-1.0208332-1.0208334-1.0208332z" fill="#fc7f7f"/></svg>
