<?xml version="1.0" encoding="UTF-8" standalone="no"?><!DOCTYPE svg PUBLIC "-//W3C//DTD SVG 1.1//EN" "http://www.w3.org/Graphics/SVG/1.1/DTD/svg11.dtd"><svg width="100%" height="100%" viewBox="0 0 256 256" version="1.1" xmlns="http://www.w3.org/2000/svg" xmlns:xlink="http://www.w3.org/1999/xlink" xml:space="preserve" xmlns:serif="http://www.serif.com/" style="fill-rule:evenodd;clip-rule:evenodd;stroke-linejoin:round;stroke-miterlimit:2;"><rect id="Artboard1" x="0" y="0" width="256" height="256" style="fill:none;"/><clipPath id="_clip1"><rect id="Artboard11" serif:id="Artboard1" x="0" y="0" width="256" height="256"/></clipPath><g clip-path="url(#_clip1)"><g transform="matrix(0.231047,0,0,0.723164,-406.271,-1037.61)"><path d="M2866.39,1470.21c0,-19.538 -49.648,-35.4 -110.8,-35.4l-886.4,-0c-61.152,-0 -110.8,15.862 -110.8,35.4l0,283.2c0,19.538 49.648,35.4 110.8,35.4l886.4,-0c61.152,-0 110.8,-15.862 110.8,-35.4l0,-283.2Z" style="fill:rgb(54,61,74);"/></g><g transform="matrix(0.889952,0.337893,-0.337893,0.889952,-327.619,-2301.47)"><path d="M1455.6,2255.14c13.453,-0 24.372,10.918 24.372,24.371c-0,13.453 -10.919,24.372 -24.372,24.372c-13.453,-0 -24.371,-10.919 -24.371,-24.372c-0,-0.064 0.001,-0.127 0.003,-0.19c0,-0 -33.382,-14.915 -33.382,-14.915c-7.123,8.908 -18.043,14.66 -30.333,14.66c-8.941,0 -17.086,-3.117 -23.644,-8.2c-0,0 -35.906,26.837 -35.906,26.837c0.502,1.886 0.81,3.845 0.81,5.899c0,13.454 -10.918,24.372 -24.371,24.372c-13.453,-0 -24.371,-10.918 -24.371,-24.372c-0,-13.469 10.918,-24.371 24.371,-24.371c4.203,0 8.15,1.088 11.596,2.978c-0,0 35.835,-26.78 35.835,-26.78c-2.054,-4.708 -3.273,-9.843 -3.273,-15.315c0,-9.701 3.589,-18.529 9.448,-25.331c-0,0 -38.179,-55.05 -38.179,-55.05c-1.494,0.316 -3.034,0.513 -4.623,0.513c-13.453,-0 -24.372,-10.919 -24.372,-24.372c0,-13.469 10.919,-24.371 24.372,-24.371c13.453,0 24.371,10.902 24.371,24.371c0,4.674 -1.341,9.009 -3.632,12.717c-0,-0 38.126,54.971 38.126,54.971c4.187,-1.546 8.715,-2.401 13.442,-2.401c4.558,0 8.942,0.801 13.012,2.251c-0,0 28.625,-42.333 28.626,-42.333c-2.383,-3.752 -3.793,-8.171 -3.793,-12.942c0,-13.453 10.919,-24.371 24.372,-24.371c13.469,-0 24.371,10.918 24.371,24.371c0,13.453 -10.902,24.371 -24.371,24.371c-1.493,0 -2.945,-0.174 -4.357,-0.454c0,0 -28.649,42.356 -28.649,42.355c6.048,6.852 9.741,15.847 9.741,25.705c0,2.205 -0.212,4.348 -0.579,6.448c-0,0 33.374,14.926 33.374,14.926c4.32,-3.931 10.041,-6.348 16.336,-6.348Z" style="fill:rgb(224,224,224);"/></g></g></svg>