<svg height="16" viewBox="0 0 16 16" width="16" xmlns="http://www.w3.org/2000/svg"><path d="m7 1-.56445 2.2578a5 5 0 0 0 -.68945.2793l-1.9883-1.1934-1.4141 1.4141 1.1953 1.9941a5 5 0 0 0 -.28516.68555l-2.2539.5625v2l2.2578.56445a5 5 0 0 0 .2793.6875l-1.1934 1.9902 1.4141 1.4141 1.9941-1.1953a5 5 0 0 0 .68555.28516l.5625 2.2539h2l.56445-2.2578a5 5 0 0 0 .6875-.2793l1.9902 1.1934 1.4141-1.4141-1.1953-1.9941a5 5 0 0 0 .28516-.68555l2.2539-.5625v-2l-2.2578-.56445a5 5 0 0 0 -.2793-.6875l1.1934-1.9902-1.4141-1.4141-1.9941 1.1953a5 5 0 0 0 -.68555-.28516l-.5625-2.2539h-2zm1 5a2 2 0 0 1 2 2 2 2 0 0 1 -2 2 2 2 0 0 1 -2-2 2 2 0 0 1 2-2z" fill="#e0e0e0"/></svg>
