<svg xmlns="http://www.w3.org/2000/svg" width="16" height="16"><path fill="#e0e0e0" d="m7 1-.565 2.258a5 5 0 0 0-.689.28L3.758 2.343 2.344 3.758l1.195 1.994a5 5 0 0 0-.285.685L1 7v2l2.258.564a5 5 0 0 0 .279.688l-1.193 1.99 1.414 1.414 1.994-1.195a5 5 0 0 0 .685.285L7 15h2l.564-2.258a5 5 0 0 0 .688-.28l1.99 1.194 1.414-1.414-1.195-1.994a5 5 0 0 0 .285-.685L15 9V7l-2.258-.564a5 5 0 0 0-.28-.688l1.194-1.99-1.414-1.414-1.994 1.195a5 5 0 0 0-.686-.285L9 1H7zm1 5a2 2 0 0 1 0 4 2 2 0 0 1 0-4z"/></svg>
