<svg xmlns="http://www.w3.org/2000/svg" width="16" height="16"><path fill="none" stroke="#e0e0e0" d="m 7.1381011,3.8014797 -0.565,2.258 c -0.2362992,0.076099 -0.4666028,0.1696916 -0.689,0.28 l -1.988,-1.195 -1.414,1.415 1.195,1.994 c -0.1118329,0.2209603 -0.207095,0.4499238 -0.285,0.685 l -2.254,0.563 V 11.80148 H 15.138101 V 9.8014797 l -2.258,-0.564 c -0.07615,-0.2359585 -0.169737,-0.4659262 -0.28,-0.688 l 1.194,-1.99 -1.414,-1.414 -1.994,1.195 C 10.164817,6.2286012 9.9355182,6.1333384 9.7001011,6.0554797 l -0.562,-2.254 z m 0.9802713,5.8877928 c 2.6666656,0 2.6666656,4.0000005 0,4.0000005 -2.6666655,0 -2.6666655,-4.0000005 0,-4.0000005 z"/></svg>