<svg xmlns="http://www.w3.org/2000/svg" width="16" height="16"><path fill="#e0e0e0" d="m 7.1578298,2.7163995 -0.565,2.258 c -0.2362992,0.076099 -0.4666028,0.1696916 -0.689,0.28 l -1.988,-1.195 -1.414,1.415 1.195,1.994 c -0.1118329,0.2209603 -0.207095,0.4499238 -0.285,0.685 l -2.254,0.563 V 10.716399 H 15.15783 V 8.7163995 l -2.258,-0.564 c -0.07615,-0.2359585 -0.169737,-0.4659262 -0.28,-0.688 l 1.194,-1.99 -1.414,-1.414 -1.994,1.195 C 10.184546,5.143521 9.9552469,5.0482582 9.7198298,4.9703995 l -0.562,-2.254 z M 8.217016,8.5647349 c 2.666666,0 2.666666,3.9999991 0,3.9999991 -2.6666655,0 -2.6666655,-3.9999991 0,-3.9999991 z"/></svg>