<svg clip-rule="evenodd" fill-rule="evenodd" stroke-linejoin="round" stroke-miterlimit="2" viewBox="0 0 16 16" xmlns="http://www.w3.org/2000/svg"><g fill="#fefffe" fill-opacity=".85"><path d="m14.505 1.476h-12.995v13.049l6.491-5.185 6.504 5.185z"/><path d="m15.018 1.476c0-.25-.23-.452-.514-.452h-12.994c-.284 0-.513.202-.513.452v13.049c0 .178.119.34.306.413.185.071.402.041.552-.079l6.146-4.909 6.158 4.909c.151.12.367.15.553.079.187-.073.306-.235.306-.413zm-.514 0h-12.994v13.049l6.491-5.185 6.503 5.185z"/></g></svg>
