<svg clip-rule="evenodd" fill-rule="evenodd" stroke-linejoin="round" stroke-miterlimit="2" viewBox="0 0 256 20" xmlns="http://www.w3.org/2000/svg"><g fill-rule="nonzero"><path d="m0 0v5h5v-5zm5 5v5h5v-5z" fill="#e0e0e0"/><path d="m5 0v5h5v-5zm0 5h-5v5h5z" fill="#fff"/><path d="m80 0v5h5v-5zm5 5v5h5v-5z" fill="#e0e0e0"/><path d="m85 0v5h5v-5zm0 5h-5v5h5z" fill="#fff"/><path d="m159.978 0v5h5v-5zm5 5v5h5v-5z" fill="#e0e0e0"/><path d="m164.978 0v5h5v-5zm0 5h-5v5h5z" fill="#fff"/><path d="m39.991 0v5h5v-5zm5 5v5h5v-5z" fill="#e0e0e0"/><path d="m44.991 0v5h5v-5zm0 5h-5v5h5z" fill="#fff"/><path d="m119.99 0v5h5v-5zm5 5v5h5v-5z" fill="#e0e0e0"/><path d="m124.99 0v5h5v-5zm0 5h-5v5h5z" fill="#fff"/><path d="m199.968 0v5h5v-5zm5 5v5h5v-5z" fill="#e0e0e0"/><path d="m204.968 0v5h5v-5zm0 5h-5v5h5z" fill="#fff"/><path d="m9.98 0v5h5v-5zm5 5v5h5v-5z" fill="#e0e0e0"/><path d="m14.98 0v5h5v-5zm0 5h-5v5h5z" fill="#fff"/><path d="m89.98 0v5h5v-5zm5 5v5h5v-5z" fill="#e0e0e0"/><path d="m94.98 0v5h5v-5zm0 5h-5v5h5z" fill="#fff"/><path d="m169.957 0v5h5v-5zm5 5v5h5v-5z" fill="#e0e0e0"/><path d="m174.957 0v5h5v-5zm0 5h-5v5h5z" fill="#fff"/><path d="m49.97 0v5h5v-5zm5 5v5h5v-5z" fill="#e0e0e0"/><path d="m54.97 0v5h5v-5zm0 5h-5v5h5z" fill="#fff"/><path d="m129.97 0v5h5v-5zm5 5v5h5v-5z" fill="#e0e0e0"/><path d="m134.97 0v5h5v-5zm0 5h-5v5h5z" fill="#fff"/><path d="m209.948 0v5h5v-5zm5 5v5h5v-5z" fill="#e0e0e0"/><path d="m214.948 0v5h5v-5zm0 5h-5v5h5z" fill="#fff"/><path d="m19.995 0v5h5v-5zm5 5v5h5v-5z" fill="#e0e0e0"/><path d="m24.995 0v5h5v-5zm0 5h-5v5h5z" fill="#fff"/><path d="m99.995 0v5h5v-5zm5 5v5h5v-5z" fill="#e0e0e0"/><path d="m104.995 0v5h5v-5zm0 5h-5v5h5z" fill="#fff"/><path d="m179.973 0v5h5v-5zm5 5v5h5v-5z" fill="#e0e0e0"/><path d="m184.973 0v5h5v-5zm0 5h-5v5h5z" fill="#fff"/><path d="m59.986 0v5h5v-5zm5 5v5h5v-5z" fill="#e0e0e0"/><path d="m64.986 0v5h5v-5zm0 5h-5v5h5z" fill="#fff"/><path d="m139.986 0v5h5v-5zm5 5v5h5v-5z" fill="#e0e0e0"/><path d="m144.986 0v5h5v-5zm0 5h-5v5h5z" fill="#fff"/><path d="m219.964 0v5h5v-5zm5 5v5h5v-5z" fill="#e0e0e0"/><path d="m224.964 0v5h5v-5zm0 5h-5v5h5z" fill="#fff"/><path d="m30.011 0v5h5v-5zm5 5v5h5v-5z" fill="#e0e0e0"/><path d="m35.011 0v5h5v-5zm0 5h-5v5h5z" fill="#fff"/><path d="m110.011 0v5h5v-5zm5 5v5h5v-5z" fill="#e0e0e0"/><path d="m115.011 0v5h5v-5zm0 5h-5v5h5z" fill="#fff"/><path d="m189.989 0v5h5v-5zm5 5v5h5v-5z" fill="#e0e0e0"/><path d="m194.989 0v5h5v-5zm0 5h-5v5h5z" fill="#fff"/><path d="m70.001 0v5h5v-5zm5 5v5h5v-5z" fill="#e0e0e0"/><path d="m75.001 0v5h5v-5zm0 5h-5v5h5z" fill="#fff"/><path d="m150.001 0v5h5v-5zm5 5v5h5v-5z" fill="#e0e0e0"/><path d="m155.001 0v5h5v-5zm0 5h-5v5h5z" fill="#fff"/><path d="m229.979 0v5h5v-5zm5 5v5h5v-5z" fill="#e0e0e0"/><path d="m234.979 0v5h5v-5zm0 5h-5v5h5z" fill="#fff"/><path d="m240.017 0v5h5v-5zm5 5v5h5v-5z" fill="#e0e0e0"/><path d="m245.017 0v5h5v-5zm0 5h-5v5h5z" fill="#fff"/><path d="m249.996 0v5h5v-5zm5 5v5h5v-5z" fill="#e0e0e0"/><path d="m254.996 0v5h5v-5zm0 5h-5v5h5z" fill="#fff"/><path d="m249.996 10v5h5v-5zm5 5v5h5v-5z" fill="#e0e0e0"/><path d="m254.996 10v5h5v-5zm0 5h-5v5h5z" fill="#fff"/><path d="m240.017 10v5h5v-5zm5 5v5h5v-5z" fill="#e0e0e0"/><path d="m245.017 10v5h5v-5zm0 5h-5v5h5z" fill="#fff"/><path d="m0 10v5h5v-5zm5 5v5h5v-5z" fill="#e0e0e0"/><path d="m5 10v5h5v-5zm0 5h-5v5h5z" fill="#fff"/><path d="m80 10v5h5v-5zm5 5v5h5v-5z" fill="#e0e0e0"/><path d="m85 10v5h5v-5zm0 5h-5v5h5z" fill="#fff"/><path d="m159.978 10v5h5v-5zm5 5v5h5v-5z" fill="#e0e0e0"/><path d="m164.978 10v5h5v-5zm0 5h-5v5h5z" fill="#fff"/><path d="m39.991 10v5h5v-5zm5 5v5h5v-5z" fill="#e0e0e0"/><path d="m44.991 10v5h5v-5zm0 5h-5v5h5z" fill="#fff"/><path d="m119.99 10v5h5v-5zm5 5v5h5v-5z" fill="#e0e0e0"/><path d="m124.99 10v5h5v-5zm0 5h-5v5h5z" fill="#fff"/><path d="m199.968 10v5h5v-5zm5 5v5h5v-5z" fill="#e0e0e0"/><path d="m204.968 10v5h5v-5zm0 5h-5v5h5z" fill="#fff"/><path d="m9.98 10v5h5v-5zm5 5v5h5v-5z" fill="#e0e0e0"/><path d="m14.98 10v5h5v-5zm0 5h-5v5h5z" fill="#fff"/><path d="m89.98 10v5h5v-5zm5 5v5h5v-5z" fill="#e0e0e0"/><path d="m94.98 10v5h5v-5zm0 5h-5v5h5z" fill="#fff"/><path d="m169.957 10v5h5v-5zm5 5v5h5v-5z" fill="#e0e0e0"/><path d="m174.957 10v5h5v-5zm0 5h-5v5h5z" fill="#fff"/><path d="m49.97 10v5h5v-5zm5 5v5h5v-5z" fill="#e0e0e0"/><path d="m54.97 10v5h5v-5zm0 5h-5v5h5z" fill="#fff"/><path d="m129.97 10v5h5v-5zm5 5v5h5v-5z" fill="#e0e0e0"/><path d="m134.97 10v5h5v-5zm0 5h-5v5h5z" fill="#fff"/><path d="m209.948 10v5h5v-5zm5 5v5h5v-5z" fill="#e0e0e0"/><path d="m214.948 10v5h5v-5zm0 5h-5v5h5z" fill="#fff"/><path d="m19.995 10v5h5v-5zm5 5v5h5v-5z" fill="#e0e0e0"/><path d="m24.995 10v5h5v-5zm0 5h-5v5h5z" fill="#fff"/><path d="m99.995 10v5h5v-5zm5 5v5h5v-5z" fill="#e0e0e0"/><path d="m104.995 10v5h5v-5zm0 5h-5v5h5z" fill="#fff"/><path d="m179.973 10v5h5v-5zm5 5v5h5v-5z" fill="#e0e0e0"/><path d="m184.973 10v5h5v-5zm0 5h-5v5h5z" fill="#fff"/><path d="m59.986 10v5h5v-5zm5 5v5h5v-5z" fill="#e0e0e0"/><path d="m64.986 10v5h5v-5zm0 5h-5v5h5z" fill="#fff"/><path d="m139.986 10v5h5v-5zm5 5v5h5v-5z" fill="#e0e0e0"/><path d="m144.986 10v5h5v-5zm0 5h-5v5h5z" fill="#fff"/><path d="m219.964 10v5h5v-5zm5 5v5h5v-5z" fill="#e0e0e0"/><path d="m224.964 10v5h5v-5zm0 5h-5v5h5z" fill="#fff"/><path d="m30.011 10v5h5v-5zm5 5v5h5v-5z" fill="#e0e0e0"/><path d="m35.011 10v5h5v-5zm0 5h-5v5h5z" fill="#fff"/><path d="m110.011 10v5h5v-5zm5 5v5h5v-5z" fill="#e0e0e0"/><path d="m115.011 10v5h5v-5zm0 5h-5v5h5z" fill="#fff"/><path d="m189.989 10v5h5v-5zm5 5v5h5v-5z" fill="#e0e0e0"/><path d="m194.989 10v5h5v-5zm0 5h-5v5h5z" fill="#fff"/><path d="m70.001 10v5h5v-5zm5 5v5h5v-5z" fill="#e0e0e0"/><path d="m75.001 10v5h5v-5zm0 5h-5v5h5z" fill="#fff"/><path d="m150.001 10v5h5v-5zm5 5v5h5v-5z" fill="#e0e0e0"/><path d="m155.001 10v5h5v-5zm0 5h-5v5h5z" fill="#fff"/><path d="m229.979 10v5h5v-5zm5 5v5h5v-5z" fill="#e0e0e0"/><path d="m234.979 10v5h5v-5zm0 5h-5v5h5z" fill="#fff"/></g></svg>
