/* XPM */
static const char * error_icon_xpm[] = {
"32 32 3 1",
" 	c None",
".	c #FF00FF",
"+	c #000000",
"................................",
"................................",
"................................",
"................................",
"................................",
"................................",
"................................",
"................................",
"................................",
"................................",
"................................",
"................................",
"................................",
"....++++.+++..+++...++..+++.....",
"....+....+..+.+..+.+..+.+..+....",
"....+....+..+.+..+.+..+.+..+....",
"....+++..+++..+++..+..+.+++.....",
"....+....+..+.+..+.+..+.+..+....",
"....+....+..+.+..+.+..+.+..+....",
"....++++.+..+.+..+..++..+..+....",
"................................",
"................................",
"................................",
"................................",
"................................",
"................................",
"................................",
"................................",
"................................",
"................................",
"................................",
"................................"};
