<svg clip-rule="evenodd" fill-rule="evenodd" stroke-linejoin="round" stroke-miterlimit="2" viewBox="0 0 16 16" xmlns="http://www.w3.org/2000/svg"><g fill-rule="nonzero"><path d="m14 2.199v2.615l-2.625 1.313v-2.615zm-12 4.065 2.625 1.312v2.551l-2.625-1.313zm12 0v2.55l-2.625 1.313v-2.551zm-8 1.455h4v2.64h-4zm-4 2.56 2.625 1.313v2.521l-2.625-1.312zm12 0v2.522l-2.625 1.312v-2.521zm-8 1.455h4v2.641h-4zm1.701-8.109h2.299v2.734h-4.156s-.749.647-.875.641c-.131-.007-1.51-1.456-1.51-1.456l-1.459-.73v-2.615l.068.034s.027-.457.063-.676c.034-.212.197-.592.197-.592l-1.049-.524c-.079-.04-.167-.062-.256-.066-.354-.013-.648.27-.648.625v12c0 .237.134.453.346.559l4 2c.086.043.182.066.279.066h6c.097 0 .193-.023.279-.066l4-2c.212-.106.346-.322.346-.559v-12c0-.464-.489-.766-.904-.559l-3.869 1.934h-2.971s.033.417.016.625c-.03.346-.196.625-.196.625z" fill="#b2b2b2" fill-opacity=".65"/><path d="m5 6s-2.219-2.162-2.219-3.243c0-1.08 0-2.607 2.219-2.607s2.219 1.527 2.219 2.607c0 1.081-2.219 3.243-2.219 3.243z" fill="#fefffe"/></g></svg>
