<svg clip-rule="evenodd" fill-rule="evenodd" stroke-linejoin="round" stroke-miterlimit="2" viewBox="0 0 14 8" xmlns="http://www.w3.org/2000/svg"><path d="m3.859 0c-2.138 0-3.859 1.721-3.859 3.859v.282c0 2.138 1.721 3.859 3.859 3.859h6.282c2.138 0 3.859-1.721 3.859-3.859v-.282c0-2.138-1.721-3.859-3.859-3.859zm-.859 3c.549 0 1 .451 1 1s-.451 1-1 1-1-.451-1-1 .451-1 1-1zm4 0c.549 0 1 .451 1 1s-.451 1-1 1-1-.451-1-1 .451-1 1-1zm4 0c.549 0 1 .451 1 1s-.451 1-1 1-1-.451-1-1 .451-1 1-1z" fill="#fefffe" fill-opacity=".25" fill-rule="nonzero"/></svg>
