<svg xmlns="http://www.w3.org/2000/svg" width="16" height="16"><linearGradient id="a" x2="0" y2="16" gradientUnits="userSpaceOnUse"><stop offset=".188" stop-color="#ff4545"/><stop stop-color="#ffe345"/><stop offset=".313" stop-color="#ffe345"/><stop stop-color="#80ff45"/><stop offset=".438" stop-color="#80ff45"/><stop stop-color="#45ffa2"/><stop offset=".563" stop-color="#45ffa2"/><stop stop-color="#45d7ff"/><stop offset=".688" stop-color="#45d7ff"/><stop stop-color="#8045ff"/><stop offset=".813" stop-color="#8045ff"/><stop stop-color="#ff4596"/></linearGradient><path fill="url(#a)" d="M1 2q7 4 14 0v12q-7-4-14 0zm2 7a1 1 0 0 0 0 2h1a1 1 0 0 0 0-2zm8 0a1 1 0 0 0 1-1h1a1 1 0 0 0 0-2h-2a1 1 0 0 0-1 1H9a1 1 0 0 0 0 2z"/></svg>
