<svg xmlns="http://www.w3.org/2000/svg" width="64" height="64"><path fill="none" stroke="#e0e0e0" stroke-linecap="round" stroke-width="2" d="M1 8a7 7 0 0 1 7-7h48a7 7 0 0 1 7 7v48a-7 7 0 0 1-7 7H8 a-7-7 0 0 1-7-7zM8 8l8 8M8 56l8-8M56 56l-8-8M56 8l-8 8"/><path fill="#e0e0e0" d="M22 18a2 2 0 0 0-2 2c0 3 1.934 5.25 3.746 7.32 1.52 1.74 2.832 3.286 3.75 4.68-.918 1.394-2.228 2.944-3.75 4.684C21.934 38.754 20 41 20 44a2 2 0 0 0 2 2h20a2 2 0 0 0 2-2c0-3-1.934-5.246-3.746-7.316-1.52-1.74-2.832-3.29-3.75-4.684.918-1.394 2.228-2.94 3.75-4.68C42.066 25.25 44 23 44 20a2 2 0 0 0-2-2zm16.824 4c-.476.88-.61 1.58-1.578 2.684-1.688 1.928-3.796 3.944-5.036 6.42A2 2 0 0 0 32 32a2 2 0 0 0-.212-.894c-1.238-2.478-3.346-4.494-5.034-6.422-.968-1.106-1.102-1.802-1.58-2.684z"/></svg>
