<svg xmlns="http://www.w3.org/2000/svg" width="16" height="16"><path fill="#fc7f7f" d="M4 12v1c0 .553.448 1 1 1-.552 0-1 .447-1 1v1h1v-1h1v1h1v-1c0-.553-.448-1-1-1 .552 0 1-.447 1-1v-1h-1v1h-1v-1zm5 0v4h1v-1h1v1h1v-1c-.001-.176-.049-.348-.137-.5.088-.152.136-.324.137-.5v-1c0-.553-.447-1-1-1zm1 1h1v1h-1zM12.375 4.948c-.38-.186-.839-.028-1.025.353l-.916 1.88.688-3.795c.076-.414-.201-.813-.617-.89-.417-.075-.814.2-.891.616l-.575 3.166-.091-.641v-3.869c0-.426-.343-.768-.767-.768s-.766.342-.766.768v3.869 1.146l-.666-3.671c-.076-.416-.475-.693-.891-.617-.417.076-.693.475-.617.89l.745 4.111-1.254-.902c-.37-.344-.949-.322-1.293.047-.344.371-.323.949.048 1.293l3.161 3.066h3.065c.551 0 1.202-1.314 1.202-1.314l1.813-3.712c.185-.383.028-.841-.353-1.026z"/></svg>
