<svg height="32" width="32" xmlns="http://www.w3.org/2000/svg"><path d="M1 23.27h2.504V12.61H1zm1.247-12.057c.784 0 1.398-.603 1.398-1.358 0-.764-.614-1.367-1.398-1.367-.774 0-1.388.603-1.388 1.367 0 .755.614 1.358 1.388 1.358zm9.594-2.695c-4.233 0-6.888 2.886-6.888 7.502s2.654 7.492 6.888 7.492c4.224 0 6.88-2.876 6.88-7.492s-2.656-7.502-6.88-7.502zm0 2.212c2.585 0 4.234 2.052 4.234 5.29 0 3.228-1.649 5.28-4.234 5.28-2.594 0-4.233-2.052-4.233-5.28 0-3.238 1.639-5.29 4.233-5.29zm7.936 8.458c.11 2.675 2.303 4.324 5.641 4.324 3.51 0 5.723-1.73 5.723-4.485 0-2.162-1.247-3.379-4.194-4.053l-1.67-.382c-1.78-.422-2.513-.985-2.513-1.95 0-1.208 1.106-2.012 2.745-2.012 1.66 0 2.796.814 2.916 2.172H30.9c-.06-2.554-2.172-4.284-5.37-4.284-3.158 0-5.4 1.74-5.4 4.314 0 2.072 1.267 3.36 3.942 3.973l1.88.442c1.83.433 2.575 1.036 2.575 2.082 0 1.207-1.217 2.072-2.967 2.072-1.77 0-3.107-.875-3.268-2.213h-2.514z" fill="#bfbfbf"/></svg>
