<svg xmlns="http://www.w3.org/2000/svg" width="16" height="16"><path fill="#fff" d="M.462 11.653H1.72V6.296H.462Zm.627-6.059a.687.687 0 0 0 .702-.682.688.688 0 0 0-.702-.687.687.687 0 0 0-.698.687c0 .38.309.682.698.682zM5.91 4.24c-2.127 0-3.461 1.45-3.461 3.77 0 2.32 1.333 3.765 3.461 3.765 2.123 0 3.457-1.445 3.457-3.765 0-2.32-1.334-3.77-3.457-3.77zm0 1.112c1.299 0 2.128 1.03 2.128 2.658 0 1.622-.829 2.653-2.128 2.653-1.304 0-2.127-1.03-2.127-2.653 0-1.627.823-2.658 2.127-2.658zm3.988 4.25c.055 1.344 1.157 2.173 2.835 2.173 1.764 0 2.876-.87 2.876-2.254 0-1.086-.627-1.698-2.108-2.037l-.839-.192c-.895-.212-1.263-.495-1.263-.98 0-.607.556-1.01 1.38-1.01.834 0 1.405.408 1.465 1.09h1.244c-.03-1.283-1.092-2.152-2.699-2.152-1.587 0-2.714.874-2.714 2.168 0 1.041.637 1.688 1.981 1.997l.945.222c.92.217 1.294.52 1.294 1.046 0 .606-.611 1.041-1.49 1.041-.89 0-1.562-.44-1.643-1.112H9.899Z"/></svg>
