<?xml version="1.0" encoding="UTF-8" standalone="no"?>
<!-- Created with Inkscape (http://www.inkscape.org/) -->

<svg
   xmlns:dc="http://purl.org/dc/elements/1.1/"
   xmlns:cc="http://creativecommons.org/ns#"
   xmlns:rdf="http://www.w3.org/1999/02/22-rdf-syntax-ns#"
   xmlns:svg="http://www.w3.org/2000/svg"
   xmlns="http://www.w3.org/2000/svg"
   xmlns:xlink="http://www.w3.org/1999/xlink"
   xmlns:sodipodi="http://sodipodi.sourceforge.net/DTD/sodipodi-0.dtd"
   xmlns:inkscape="http://www.inkscape.org/namespaces/inkscape"
   width="156"
   height="78"
   id="svg2"
   version="1.1"
   inkscape:version="0.48.4 r9939"
   sodipodi:docname="bubble.svg"
   inkscape:export-filename="/home/edwin/apps/godot/workspace/test2d/bubble.png"
   inkscape:export-xdpi="90.056984"
   inkscape:export-ydpi="90.056984">
  <defs
     id="defs4">
    <linearGradient
       id="linearGradient3789">
      <stop
         style="stop-color:#ffffff;stop-opacity:1;"
         offset="0"
         id="stop3791" />
      <stop
         id="stop3797"
         offset="0.67123288"
         style="stop-color:#ffffff;stop-opacity:0.49803922;" />
      <stop
         style="stop-color:#ffffff;stop-opacity:0;"
         offset="1"
         id="stop3793" />
    </linearGradient>
    <linearGradient
       id="linearGradient3775">
      <stop
         id="stop3777"
         offset="0"
         style="stop-color:#9bfcff;stop-opacity:0.73076922;" />
      <stop
         style="stop-color:#86fbff;stop-opacity:0;"
         offset="0.67123288"
         id="stop3779" />
      <stop
         id="stop3783"
         offset="1"
         style="stop-color:#47faff;stop-opacity:0;" />
    </linearGradient>
    <linearGradient
       id="linearGradient3757">
      <stop
         style="stop-color:#9bfcff;stop-opacity:0;"
         offset="0"
         id="stop3759" />
      <stop
         id="stop3767"
         offset="0.69750422"
         style="stop-color:#86fbff;stop-opacity:0;" />
      <stop
         id="stop3765"
         offset="0.86301368"
         style="stop-color:#71fbff;stop-opacity:0.33076924;" />
      <stop
         style="stop-color:#47faff;stop-opacity:1;"
         offset="1"
         id="stop3761" />
    </linearGradient>
    <radialGradient
       inkscape:collect="always"
       xlink:href="#linearGradient3757"
       id="radialGradient3763"
       cx="180"
       cy="300.93362"
       fx="180"
       fy="300.93362"
       r="257.14285"
       gradientUnits="userSpaceOnUse"
       gradientTransform="matrix(0.54765916,-0.83670152,0.91666668,0.59999999,-194.43448,270.97973)" />
    <radialGradient
       inkscape:collect="always"
       xlink:href="#linearGradient3775"
       id="radialGradient3785"
       gradientUnits="userSpaceOnUse"
       gradientTransform="matrix(0.55732217,-0.83029632,0.81111112,0.54444443,-164.40861,286.54533)"
       cx="180"
       cy="300.93362"
       fx="180"
       fy="300.93362"
       r="257.14285" />
    <radialGradient
       inkscape:collect="always"
       xlink:href="#linearGradient3789"
       id="radialGradient3795"
       cx="-172.14285"
       cy="188.07646"
       fx="-172.14285"
       fy="188.07646"
       r="67.85714"
       gradientTransform="matrix(1,0,0,0.58947371,0,77.210332)"
       gradientUnits="userSpaceOnUse" />
    <radialGradient
       inkscape:collect="always"
       xlink:href="#linearGradient3789"
       id="radialGradient3801"
       gradientUnits="userSpaceOnUse"
       gradientTransform="matrix(1,0,0,0.58947371,0,77.210332)"
       cx="-172.14285"
       cy="188.07646"
       fx="-172.14285"
       fy="188.07646"
       r="67.85714" />
    <filter
       inkscape:collect="always"
       id="filter4188"
       color-interpolation-filters="sRGB">
      <feGaussianBlur
         inkscape:collect="always"
         stdDeviation="1.3463364"
         id="feGaussianBlur4190" />
    </filter>
    <filter
       inkscape:collect="always"
       id="filter4192"
       color-interpolation-filters="sRGB">
      <feGaussianBlur
         inkscape:collect="always"
         stdDeviation="1.3463364"
         id="feGaussianBlur4194" />
    </filter>
    <radialGradient
       inkscape:collect="always"
       xlink:href="#linearGradient3775"
       id="radialGradient4255"
       gradientUnits="userSpaceOnUse"
       gradientTransform="matrix(0.55732217,-0.83029632,0.81111112,0.54444443,-164.40861,286.54533)"
       cx="180"
       cy="300.93362"
       fx="180"
       fy="300.93362"
       r="257.14285" />
    <radialGradient
       inkscape:collect="always"
       xlink:href="#linearGradient3757"
       id="radialGradient4257"
       gradientUnits="userSpaceOnUse"
       gradientTransform="matrix(0.54765916,-0.83670152,0.91666668,0.59999999,-194.43448,270.97973)"
       cx="180"
       cy="300.93362"
       fx="180"
       fy="300.93362"
       r="257.14285" />
    <radialGradient
       inkscape:collect="always"
       xlink:href="#linearGradient3789"
       id="radialGradient4259"
       gradientUnits="userSpaceOnUse"
       gradientTransform="matrix(1,0,0,0.58947371,0,77.210332)"
       cx="-172.14285"
       cy="188.07646"
       fx="-172.14285"
       fy="188.07646"
       r="67.85714" />
    <radialGradient
       inkscape:collect="always"
       xlink:href="#linearGradient3789"
       id="radialGradient4261"
       gradientUnits="userSpaceOnUse"
       gradientTransform="matrix(1,0,0,0.58947371,0,77.210332)"
       cx="-172.14285"
       cy="188.07646"
       fx="-172.14285"
       fy="188.07646"
       r="67.85714" />
  </defs>
  <sodipodi:namedview
     id="base"
     pagecolor="#ffffff"
     bordercolor="#666666"
     borderopacity="1.0"
     inkscape:pageopacity="0.0"
     inkscape:pageshadow="2"
     inkscape:zoom="2.8284271"
     inkscape:cx="3.4323617"
     inkscape:cy="5.109467"
     inkscape:document-units="px"
     inkscape:current-layer="layer1"
     showgrid="true"
     inkscape:snap-global="false"
     inkscape:window-width="1621"
     inkscape:window-height="723"
     inkscape:window-x="205"
     inkscape:window-y="203"
     inkscape:window-maximized="0">
    <inkscape:grid
       type="xygrid"
       id="grid4162"
       empspacing="2"
       visible="true"
       enabled="true"
       snapvisiblegridlinesonly="true"
       spacingx="39px"
       spacingy="39px" />
  </sodipodi:namedview>
  <metadata
     id="metadata7">
    <rdf:RDF>
      <cc:Work
         rdf:about="">
        <dc:format>image/svg+xml</dc:format>
        <dc:type
           rdf:resource="http://purl.org/dc/dcmitype/StillImage" />
        <dc:title></dc:title>
      </cc:Work>
    </rdf:RDF>
  </metadata>
  <g
     inkscape:groupmode="layer"
     id="layer2"
     inkscape:label="bg"
     style="opacity:0.65;display:inline"
     transform="translate(0,-974.36218)"
     sodipodi:insensitive="true">
    <path
       transform="matrix(0.11809356,0,0,0.11809356,17.743159,977.82386)"
       d="m 437.14285,300.93362 a 257.14285,257.14285 0 1 1 -514.285703,0 257.14285,257.14285 0 1 1 514.285703,0 z"
       sodipodi:ry="257.14285"
       sodipodi:rx="257.14285"
       sodipodi:cy="300.93362"
       sodipodi:cx="180"
       id="path3772"
       style="fill:url(#radialGradient3785);fill-opacity:1;fill-rule:nonzero;stroke:none"
       sodipodi:type="arc" />
    <path
       sodipodi:type="arc"
       style="fill:url(#radialGradient4255);fill-opacity:1;fill-rule:nonzero;stroke:none"
       id="path4247"
       sodipodi:cx="180"
       sodipodi:cy="300.93362"
       sodipodi:rx="257.14285"
       sodipodi:ry="257.14285"
       d="m 437.14285,300.93362 a 257.14285,257.14285 0 1 1 -514.285703,0 257.14285,257.14285 0 1 1 514.285703,0 z"
       transform="matrix(0.11809412,0,0,0.11809412,95.743059,977.82369)" />
  </g>
  <g
     inkscape:groupmode="layer"
     id="layer5"
     inkscape:label="Layer"
     sodipodi:insensitive="true">
    <g
       id="g4277"
       transform="matrix(0.99911852,-0.04197839,0.04197839,0.99911852,-3.5306651,6.9568565)">
      <path
         inkscape:transform-center-y="2.601871"
         inkscape:transform-center-x="-5.1943569"
         style="fill:#c94900;fill-opacity:1;stroke:#000000;stroke-width:1;stroke-linecap:round;stroke-linejoin:miter;stroke-miterlimit:4;stroke-opacity:1;stroke-dasharray:none;stroke-dashoffset:0"
         d="m 113.59242,44.520052 c 0,0 6.28728,4.886114 9.88192,5.698794 2.11295,-2.196433 1.41023,-1.050859 2.72229,-3.444864 -1.00377,-1.044039 -10.93396,-4.330611 -10.75919,-4.755482"
         id="path3800"
         inkscape:connector-curvature="0"
         sodipodi:nodetypes="cccc" />
      <path
         inkscape:transform-center-y="3.8817557"
         inkscape:transform-center-x="-4.095532"
         style="fill:#c94900;fill-opacity:1;stroke:#000000;stroke-width:1;stroke-linecap:round;stroke-linejoin:miter;stroke-miterlimit:4;stroke-opacity:1;stroke-dasharray:none;stroke-dashoffset:0"
         d="m 124.38586,31.881587 c 0.82215,-0.302226 5.07002,1.71152 8.10989,6.109715 -0.84318,2.798308 -2.23397,3.171962 -3.46733,3.670737 -2.15248,-1.990271 -6.87032,-7.684067 -6.86243,-7.424963"
         id="path3798"
         inkscape:connector-curvature="0"
         sodipodi:nodetypes="cccc" />
      <path
         inkscape:transform-center-y="-16.743336"
         inkscape:transform-center-x="-0.064285097"
         style="fill:#ff8000;fill-opacity:1;stroke:#000000;stroke-width:1;stroke-linecap:round;stroke-linejoin:miter;stroke-miterlimit:4;stroke-opacity:1;stroke-dasharray:none;stroke-dashoffset:0"
         d="m 112.22855,20.381883 c 1.00927,-9.754051 2.61046,-9.380531 2.61046,-9.380531 l 3.0204,8.161573"
         id="path3804"
         inkscape:connector-curvature="0" />
      <g
         inkscape:transform-center-y="7.8407012"
         inkscape:transform-center-x="-10.387573"
         id="g3836"
         transform="matrix(-0.05975962,-0.12176762,0.12176762,-0.05975962,96.947593,83.442627)"
         style="stroke-width:7.37238503;stroke-miterlimit:4;stroke-dasharray:none">
        <path
           style="fill:#ff8000;fill-opacity:1;stroke:#000000;stroke-width:7.37238503;stroke-linecap:round;stroke-linejoin:miter;stroke-miterlimit:4;stroke-opacity:1;stroke-dasharray:none;stroke-dashoffset:0"
           d="m 232.70635,189.65584 c -73.59883,8.49348 -90.26914,-49.83438 -162.857146,12.85714 23.66177,8.93814 33.791486,-5.70828 67.142856,5.71428 -32.88029,-8.28582 -56.647126,-1.5979 -108.571418,52.85714 54.042472,-27.45397 61.795902,-25.36314 87.142848,-21.42856 -49.596113,8.98098 -51.21489,19.74014 -82.857138,72.85713 44.448252,-30.12826 50.733562,-35.56008 85.714278,-49.99999 -31.066546,20.46668 -33.870686,30.31237 -49.999994,57.14286 39.796024,-41.27302 22.110998,-28.24949 88.571424,-54.28571 -45.38985,26.91522 -33.65522,20.23145 -45.71429,58.57142 23.32877,-41.22019 129.35753,-114.89036 131.42858,-101.42857"
           id="path3838"
           inkscape:connector-curvature="0"
           sodipodi:nodetypes="ccccccccccc" />
        <path
           sodipodi:nodetypes="cccsc"
           inkscape:connector-curvature="0"
           id="path3840"
           d="m 232.70635,202.78782 c -40.92467,14.41921 -71.88107,22.17333 -117.14286,36.86802 -46.565655,12.01144 -51.21489,19.74014 -82.857138,72.85713 44.448252,-30.12826 50.547688,-36.01884 85.714278,-49.99999 45.10228,-17.93127 57.06612,-36.96592 115.19435,-44.04061"
           style="fill:#f9f9f9;fill-opacity:1;stroke:none" />
        <path
           sodipodi:nodetypes="ccccccccccc"
           inkscape:connector-curvature="0"
           id="path3842"
           d="m 232.70635,189.65584 c -73.59883,8.49348 -90.26914,-49.83438 -162.857146,12.85714 23.66177,8.93814 33.791486,-5.70828 67.142856,5.71428 -32.88029,-8.28582 -56.647126,-1.5979 -108.571418,52.85714 54.042472,-27.45397 61.795902,-25.36314 87.142848,-21.42856 -49.596113,8.98098 -51.21489,19.74014 -82.857138,72.85713 44.448252,-30.12826 50.733562,-35.56008 85.714278,-49.99999 -31.066546,20.46668 -33.870686,30.31237 -49.999994,57.14286 39.796024,-41.27302 22.110998,-28.24949 88.571424,-54.28571 -45.38985,26.91522 -33.65522,20.23145 -45.71429,58.57142 23.32877,-41.22019 129.35753,-114.89036 131.42858,-101.42857"
           style="fill:none;stroke:#000000;stroke-width:7.37238503;stroke-linecap:round;stroke-linejoin:miter;stroke-miterlimit:4;stroke-opacity:1;stroke-dasharray:none;stroke-dashoffset:0" />
      </g>
      <path
         transform="matrix(0.08180644,-0.10819552,0.10819552,0.08180644,49.667917,39.464394)"
         d="m 454.28573,350.93362 a 115.71429,100 0 1 1 -231.42858,0 115.71429,100 0 1 1 231.42858,0 z"
         sodipodi:ry="100"
         sodipodi:rx="115.71429"
         sodipodi:cy="350.93362"
         sodipodi:cx="338.57144"
         id="path3806"
         style="fill:#ff8000;fill-opacity:1;stroke:#000000;stroke-width:7.3723855;stroke-linecap:round;stroke-linejoin:miter;stroke-miterlimit:4;stroke-opacity:1;stroke-dasharray:none;stroke-dashoffset:0"
         sodipodi:type="arc" />
      <path
         inkscape:transform-center-y="-14.923996"
         inkscape:transform-center-x="3.5961599"
         inkscape:connector-curvature="0"
         id="path3808"
         d="m 108.56811,22.201226 c 1.00921,-9.754136 2.61047,-9.380535 2.61047,-9.380535 l 3.02038,8.161576"
         style="fill:#ff8000;fill-opacity:1;stroke:#000000;stroke-width:1;stroke-linecap:round;stroke-linejoin:miter;stroke-miterlimit:4;stroke-opacity:1;stroke-dasharray:none;stroke-dashoffset:0" />
      <path
         inkscape:transform-center-y="-9.7395856"
         inkscape:transform-center-x="-6.5582331"
         transform="matrix(0.11519521,-0.07161444,0.07161444,0.11519521,51.91149,14.379103)"
         d="m 408.57144,323.07648 a 5,22.142857 0 1 1 -10,0 5,22.142857 0 1 1 10,0 z"
         sodipodi:ry="22.142857"
         sodipodi:rx="5"
         sodipodi:cy="323.07648"
         sodipodi:cx="403.57144"
         id="path3810"
         style="fill:#000000;fill-opacity:1;stroke:#000000;stroke-width:7.3723855;stroke-linecap:round;stroke-linejoin:miter;stroke-miterlimit:4;stroke-opacity:1;stroke-dasharray:none;stroke-dashoffset:0"
         sodipodi:type="arc" />
      <path
         inkscape:transform-center-y="-4.6295795"
         inkscape:transform-center-x="-19.55057"
         sodipodi:nodetypes="cccc"
         inkscape:connector-curvature="0"
         id="path3812"
         d="m 128.51501,25.900664 c 2.31489,-2.159032 4.56763,-4.053767 7.88742,-4.803648 l 3.88759,6.253381 c -2.99578,3.34688 -4.88349,4.257136 -11.83518,7.350849"
         style="fill:#ff8000;fill-opacity:1;stroke:#000000;stroke-width:1;stroke-linecap:round;stroke-linejoin:miter;stroke-miterlimit:4;stroke-opacity:1;stroke-dasharray:none;stroke-dashoffset:0" />
      <path
         inkscape:transform-center-y="-8.7529323"
         inkscape:transform-center-x="-24.055944"
         transform="matrix(0.05825011,-0.03621287,0.07306305,0.11752535,86.318922,-1.0788414)"
         d="m 498.57142,353.07648 a 36.42857,27.857143 0 1 1 -72.85714,0 36.42857,27.857143 0 1 1 72.85714,0 z"
         sodipodi:ry="27.857143"
         sodipodi:rx="36.42857"
         sodipodi:cy="353.07648"
         sodipodi:cx="462.14285"
         id="path3814"
         style="fill:#000000;stroke:#000000;stroke-width:10.26427555;stroke-linecap:round;stroke-linejoin:miter;stroke-miterlimit:4;stroke-opacity:1;stroke-dasharray:none;stroke-dashoffset:0"
         sodipodi:type="arc" />
      <path
         inkscape:transform-center-y="7.4515377"
         inkscape:transform-center-x="-4.5534275"
         sodipodi:nodetypes="cscc"
         inkscape:connector-curvature="0"
         id="path3816"
         d="m 121.23053,32.458408 c 0,0 2.81524,6.595087 5.62111,9.888264 1.21988,1.431748 4.49194,-0.477786 4.18231,-2.333071 -1.31383,-2.458434 -3.98913,-6.633597 -6.11749,-9.095245"
         style="fill:#ff8000;fill-opacity:1;stroke:#000000;stroke-width:1;stroke-linecap:round;stroke-linejoin:miter;stroke-miterlimit:4;stroke-opacity:1;stroke-dasharray:none;stroke-dashoffset:0" />
      <path
         inkscape:transform-center-y="2.1921294"
         inkscape:transform-center-x="-6.4058329"
         sodipodi:nodetypes="cccc"
         inkscape:connector-curvature="0"
         id="path3818"
         d="m 115.74266,40.671534 c 0.63647,-0.766646 9.97082,2.125651 12.14521,2.866687 0.39466,2.358155 -0.19236,3.169898 -1.11824,4.365327 -3.33021,0.589211 -12.01936,-3.89711 -11.86369,-3.646684"
         style="fill:#ff8000;fill-opacity:1;stroke:#000000;stroke-width:1;stroke-linecap:round;stroke-linejoin:miter;stroke-miterlimit:4;stroke-opacity:1;stroke-dasharray:none;stroke-dashoffset:0" />
    </g>
  </g>
  <g
     inkscape:label="Layer 1"
     inkscape:groupmode="layer"
     id="layer1"
     style="opacity:0.65"
     transform="translate(0,-974.36218)">
    <path
       sodipodi:type="arc"
       style="fill:url(#radialGradient3763);fill-opacity:1;fill-rule:nonzero;stroke:#3df3f4;stroke-opacity:1;stroke-width:8.46786226000000042;stroke-miterlimit:4;stroke-dasharray:none;opacity:0.8"
       id="path2987"
       sodipodi:cx="180"
       sodipodi:cy="300.93362"
       sodipodi:rx="257.14285"
       sodipodi:ry="257.14285"
       d="m 437.14285,300.93362 a 257.14285,257.14285 0 1 1 -514.285703,0 257.14285,257.14285 0 1 1 514.285703,0 z"
       transform="matrix(0.11809356,0,0,0.11809356,17.743159,977.82386)" />
    <path
       sodipodi:type="arc"
       style="fill:url(#radialGradient3795);fill-opacity:1;fill-rule:nonzero;stroke:none;filter:url(#filter4192)"
       id="path3787"
       sodipodi:cx="-172.14285"
       sodipodi:cy="188.07646"
       sodipodi:rx="67.85714"
       sodipodi:ry="40"
       d="m -104.28571,188.07646 a 67.85714,40 0 1 1 -135.71428,0 67.85714,40 0 1 1 135.71428,0 z"
       transform="matrix(0.1198103,-0.14087587,0.14087587,0.1198103,16.533692,952.40986)" />
    <path
       transform="matrix(0.09033073,-0.16137186,0.16137186,0.09033073,43.409076,977.19018)"
       d="m -104.28571,188.07646 a 67.85714,40 0 1 1 -135.71428,0 67.85714,40 0 1 1 135.71428,0 z"
       sodipodi:ry="40"
       sodipodi:rx="67.85714"
       sodipodi:cy="188.07646"
       sodipodi:cx="-172.14285"
       id="path3799"
       style="fill:url(#radialGradient3801);fill-opacity:1;fill-rule:nonzero;stroke:none;filter:url(#filter4188)"
       sodipodi:type="arc"
       inkscape:transform-center-x="-20.284023"
       inkscape:transform-center-y="10.448663" />
    <path
       transform="matrix(0.11809412,0,0,0.11809412,95.743059,977.82369)"
       d="m 437.14285,300.93362 a 257.14285,257.14285 0 1 1 -514.285703,0 257.14285,257.14285 0 1 1 514.285703,0 z"
       sodipodi:ry="257.14285"
       sodipodi:rx="257.14285"
       sodipodi:cy="300.93362"
       sodipodi:cx="180"
       id="path4249"
       style="fill:url(#radialGradient4257);fill-opacity:1;fill-rule:nonzero;stroke:#3df3f4;stroke-opacity:1;stroke-width:8.46782211000000018;stroke-miterlimit:4;stroke-dasharray:none;opacity:0.8"
       sodipodi:type="arc" />
    <path
       transform="matrix(0.11981086,-0.14087654,0.14087654,0.11981086,94.533586,952.40958)"
       d="m -104.28571,188.07646 a 67.85714,40 0 1 1 -135.71428,0 67.85714,40 0 1 1 135.71428,0 z"
       sodipodi:ry="40"
       sodipodi:rx="67.85714"
       sodipodi:cy="188.07646"
       sodipodi:cx="-172.14285"
       id="path4251"
       style="fill:url(#radialGradient4259);fill-opacity:1;fill-rule:nonzero;stroke:none;filter:url(#filter4192)"
       sodipodi:type="arc" />
    <path
       inkscape:transform-center-y="10.448701"
       inkscape:transform-center-x="-20.284113"
       sodipodi:type="arc"
       style="fill:url(#radialGradient4261);fill-opacity:1;fill-rule:nonzero;stroke:none;filter:url(#filter4188)"
       id="path4253"
       sodipodi:cx="-172.14285"
       sodipodi:cy="188.07646"
       sodipodi:rx="67.85714"
       sodipodi:ry="40"
       d="m -104.28571,188.07646 a 67.85714,40 0 1 1 -135.71428,0 67.85714,40 0 1 1 135.71428,0 z"
       transform="matrix(0.09033115,-0.16137262,0.16137262,0.09033115,121.40909,977.19)" />
  </g>
</svg>
