/* XPM */
static char * atlas_import_failed_xpm[] = {
"128 64 3 1",
" 	c #000000",
".	c #FF0000",
"+	c #FFFFFF",
"                                                                                                                                ",
"                                                                                                                                ",
"                                                                                                                                ",
"                                                                                                                                ",
"                                                                                                                                ",
"                                                                                                                .               ",
"               ...   .                                                     .         ...                        .               ",
"              .   . .... .     ...   ....     . ... ..  ....   ...   ...  ....      .     ...  . .     ...   ....               ",
"              .   .  .   .    .   . .         . .  .  . .   . .   . .   .  .       ....  .   . . .    .   . .   .               ",
"              .....  .   .     ....  ...      . .  .  . .   . .   . .      .        .     .... . .    ..... .   .               ",
"              .   .  .   .    .   .     .     . .  .  . ....  .   . .      .        .    .   . . .    .     .   .               ",
"              .   .  .   .    .   .     .     . .  .  . .     .   . .      .        .    .   . . .    .   . .   .               ",
"              .   .   ..  ...  .... ....      . .  .  . .      ...  .       ..      .     .... .  ...  ...   ....               ",
"                                                                                                                                ",
"                                                                                                                                ",
"                                                                                                                                ",
"                                                                                                                                ",
"                                                                                                                                ",
"                                                                                                                                ",
"                                                                                                                                ",
"                                                                                                                                ",
"                                                                                                                                ",
"                                         +                                                                                      ",
"               ++++                  +   +               + +  +++   +                         ++++              + +             ",
"              +     + +    +        ++++ ++++   +++      + + +   + ++++ +     +++   ++++     +     + +     +++  + +             ",
"              +     + +    +         +   +   + +   +         +   +  +   +    +   + +         +     + +    +   +                 ",
"              +++++ + +    +         +   +   + +++++         +++++  +   +     ++++  +++      +++++ + +    +++++                 ",
"              +     + +    +         +   +   + +             +   +  +   +    +   +     +     +     + +    +                     ",
"              +     + +    +         +   +   + +   +         +   +  +   +    +   +     +     +     + +    +   +                 ",
"              +     +  +++  +++       ++ +   +  +++          +   +   ++  +++  ++++ ++++      +     +  +++  +++                  ",
"                                                                                                                                ",
"                                                                                                                                ",
"                                                                                                                                ",
"                                                                                                                                ",
"                                                                                                                                ",
"                                                                                                                                ",
"                         +                      +                                                          +                    ",
"    +++                  +                  +   +               +++                            +           +                    ",
"   +    +  +++  +     ++++     + ++++      ++++ ++++   +++       +  +++ ++  ++++   +++   +++  ++++      ++++  +++   +++  +   +  ",
"  ++++  + +   + +    +   +     + +   +      +   +   + +   +      +  +  +  + +   + +   + +   +  +       +   + +   + +   + +   +  ",
"   +    + +++++ +    +   +     + +   +      +   +   + +++++      +  +  +  + +   + +   + +      +       +   + +   + +     ++++   ",
"   +    + +     +    +   +     + +   +      +   +   + +          +  +  +  + ++++  +   + +      +       +   + +   + +     +   +  ",
"   +    + +   + +    +   +     + +   +      +   +   + +   +      +  +  +  + +     +   + +      +       +   + +   + +   + +   +  ",
"   +    +  +++   +++  ++++     + +   +       ++ +   +  +++      +++ +  +  + +      +++  +       ++      ++++  +++   +++  +   +  ",
"                                                                                                                                ",
"                                                                                                                                ",
"                                                                                                                                ",
"                                                                                                                                ",
"                                                                                                                                ",
"                                                                                                                                ",
"                                            +                                                                                   ",
"                                            +                                                    +                              ",
"                             +++  ++++   ++++      +++   +++        + +++ ++  ++++   +++   +++  ++++                            ",
"                            +   + +   + +   +     +   + +   +       + +  +  + +   + +   + +   +  +                              ",
"                             ++++ +   + +   +     +     +++++ +++++ + +  +  + +   + +   + +      +                              ",
"                            +   + +   + +   +     +     +           + +  +  + ++++  +   + +      +                              ",
"                            +   + +   + +   +     +     +   +       + +  +  + +     +   + +      +                              ",
"                             ++++ +   +  ++++     +      +++        + +  +  + +      +++  +       ++                            ",
"                                                                                                                                ",
"                                                                                                                                ",
"                                                                                                                                ",
"                                                                                                                                ",
"                                                                                                                                ",
"                                                                                                                                "};
