<?xml version="1.0" encoding="UTF-8" standalone="no"?>
<!DOCTYPE svg PUBLIC "-//W3C//DTD SVG 1.1//EN" "http://www.w3.org/Graphics/SVG/1.1/DTD/svg11.dtd">
<svg height="16" viewBox="0 0 16 16" width="16" version="1.1" xmlns="http://www.w3.org/2000/svg" xmlns:xlink="http://www.w3.org/1999/xlink" xml:space="preserve" xmlns:serif="http://www.serif.com/" style="fill-rule:evenodd;clip-rule:evenodd;stroke-linejoin:round;stroke-miterlimit:2;">
    <path d="M7,1L6.436,3.258C6.199,3.334 5.969,3.427 5.746,3.538L3.758,2.343L2.344,3.758L3.539,5.752L3.254,6.437L1,7L1,9L6.27,9C6.093,8.695 6,8.349 6,7.996C6,6.899 6.903,5.996 8,5.996C9.097,5.996 10,6.899 10,7.996C10,8.349 9.907,8.695 9.73,9L15,9L15,7L12.742,6.435C12.666,6.199 12.572,5.97 12.462,5.748L13.656,3.758L12.242,2.344L10.248,3.539C10.027,3.427 9.797,3.332 9.562,3.254L9,1L7,1Z" style="fill:rgb(224,224,224);fill-rule:nonzero;"/>
    <g transform="matrix(1.04463,0,0,1.04463,-0.637841,-0.681276)">
        <g transform="matrix(0.0264047,0,0,0.0264047,1.27202,3.31788)">
            <path d="M79.385,316.022C76.432,316.022 74.347,312.026 73.131,304.035C72.61,300.734 72.35,297.086 72.35,293.091C72.35,289.095 72.784,284.926 73.652,280.583C75.216,272.592 77.822,268.597 81.47,268.597L177.883,268.597C188.48,268.597 195.341,278.238 198.468,297.521C199.163,301.69 199.511,304.73 199.511,306.641L138.536,399.145L186.742,399.145C190.564,399.145 193.257,403.315 194.82,411.653C195.515,415.648 195.863,419.818 195.863,424.161C195.863,428.504 195.341,433.107 194.299,437.971C192.388,446.657 189.435,451 185.44,451L84.075,451C82.512,451 79.689,445.745 75.607,435.235C71.524,424.725 69.483,418.167 69.483,415.562C69.483,412.956 69.744,411.306 70.265,410.611L131.24,316.022L79.385,316.022Z" style="fill:rgb(224,224,224);fill-rule:nonzero;"/>
            <path d="M236.513,406.181L236.513,313.416L218.012,313.416C215.058,313.416 212.974,309.681 211.758,302.211C211.237,298.563 210.976,294.828 210.976,291.006C210.976,287.184 211.237,283.449 211.758,279.801C212.974,272.332 215.058,268.597 218.012,268.597L305.565,268.597C308.518,268.597 310.516,272.332 311.558,279.801C312.253,283.449 312.601,287.184 312.601,291.006C312.601,294.828 312.253,298.563 311.558,302.211C310.516,309.681 308.518,313.416 305.565,313.416L288.107,313.416L288.107,406.181L306.347,406.181C309.3,406.181 311.385,409.916 312.601,417.386C313.296,421.034 313.643,424.769 313.643,428.59C313.643,432.412 313.296,436.147 312.601,439.795C311.385,447.265 309.3,451 306.347,451L218.533,451C215.58,451 213.582,447.265 212.54,439.795C211.845,436.147 211.497,432.412 211.497,428.59C211.497,424.769 211.845,421.034 212.54,417.386C213.582,409.916 215.58,406.181 218.533,406.181L236.513,406.181Z" style="fill:rgb(224,224,224);fill-rule:nonzero;"/>
            <path d="M427.515,396.54L428.036,361.101C428.036,358.669 430.555,357.062 435.593,356.281C440.631,355.499 444.8,355.108 448.1,355.108L458.263,355.89C464.864,356.932 468.165,358.756 468.165,361.362L467.122,442.922C463.648,445.354 456.656,447.743 446.146,450.088C435.636,452.433 423.606,453.606 410.056,453.606C384.867,453.606 364.542,445.441 349.081,429.112C333.621,412.782 325.89,388.809 325.89,357.193C325.89,330.266 333.447,308.378 348.56,291.527C363.674,274.677 384.607,266.251 411.359,266.251C423.519,266.251 434.507,267.424 444.322,269.769C454.137,272.114 460.869,275.285 464.517,279.28C464.69,280.67 464.777,283.276 464.777,287.098C464.777,290.919 463.474,296.348 460.869,303.384C458.263,310.419 455.31,315.674 452.009,319.148C448.708,322.623 446.32,324.36 444.843,324.36C443.367,324.36 441.803,323.709 440.153,322.406C438.503,321.103 435.245,319.713 430.381,318.236C425.517,316.76 420.827,316.022 416.31,316.022C405.54,316.022 396.81,319.496 390.122,326.445C383.434,333.393 380.09,344.164 380.09,358.756C380.09,373.348 383.521,384.423 390.383,391.979C397.245,399.536 405.149,403.315 414.095,403.315C423.042,403.315 427.515,401.056 427.515,396.54Z" style="fill:rgb(224,224,224);fill-rule:nonzero;"/>
        </g>
    </g>
</svg>
