<svg xmlns="http://www.w3.org/2000/svg" xml:space="preserve" width="64mm" height="64mm" viewBox="0 0 64 64"><path fill="#e0e0e0" stroke="#0f0f0f" stroke-width="1.75" d="M26.69 46.873v-3.642s-5.205-3.791-6.192-5.672c-2.748-5.24 2.342-4.63 2.342-4.63l1.864.05-1.421-3.304s-.864-1.226.181-2.367c1.145-1.248 2.29-1.144 3.539 0 1.249 1.145 1.665 3.33 1.665 3.33l.104-3.694s.148-2.073 2.341-1.977c.996.043 2.466-.243 2.855 2.374.425 2.865.424 1.945.424 1.945l.052-1.873s-.156-2.394 2.653-2.186 2.29 1.3 2.29 1.3l.052 3.28 1.613-1.874s.7-.962 2.394-.364c1.769.624.52 8.221.52 8.221l-3.018 6.192-1.873 1.873v3.122z"/></svg>
