<svg xmlns="http://www.w3.org/2000/svg" xml:space="preserve" width="64mm" height="64mm" viewBox="0 0 64 64"><path fill="#e0e0e0" stroke="#0f0f0f" stroke-width="1.75" d="M26.69 46.873v-3.642s-5.515-3.538-9.47-9.99c-3.954-6.453 2.29-4.372 2.29-4.372l5.559 3.069-2.67-7.102s-1.328-3.564-.808-5.02c.52-1.457 2.394-2.81 3.643-1.666s3.538 8.742 3.538 8.742l.104-7.753s.148-3.217 2.342-3.122c.995.043 2.31-.035 2.698 2.582.425 2.865.424 8.033.424 8.033l.884-6.817s-.312-2.705 2.498-2.497 2.393 2.497 2.393 2.497l.104 8.43 3.123-4.683s.699-2.471 2.393-1.873c1.77.624 1.301 6.036 1.301 6.036l-6.088 14.257-1.873 1.873v3.122z"/></svg>
