/* XPM */
static const char * default_mouse_cursor_xpm[] = {
"16 16 4 1",
" 	c None",
".	c #000000",
"+	c #FF00FF",
"@	c #FFFFFF",
"...+++++++++++++",
".@...+++++++++++",
".@@@...+++++++++",
".@@@@@....++++++",
".@@@@@@@@...++++",
".@@@@@@@@@@...++",
".@@@@@@@@@@@@..+",
".@@@@@@@@@@@@@..",
".@@@@@@@@@@@@..+",
".@@@@@@@@@@@..++",
".@@@@@@@@@...+++",
".@@@.....@@..+++",
".....+++.@@@..++",
"++++++++..@@@..+",
"+++++++++..@@@.+",
"++++++++++.....+"};
