<?xml version="1.0" encoding="UTF-8" standalone="no"?>
<!-- Created with Inkscape (http://www.inkscape.org/) -->

<svg
   xmlns:dc="http://purl.org/dc/elements/1.1/"
   xmlns:cc="http://creativecommons.org/ns#"
   xmlns:rdf="http://www.w3.org/1999/02/22-rdf-syntax-ns#"
   xmlns:svg="http://www.w3.org/2000/svg"
   xmlns="http://www.w3.org/2000/svg"
   xmlns:sodipodi="http://sodipodi.sourceforge.net/DTD/sodipodi-0.dtd"
   xmlns:inkscape="http://www.inkscape.org/namespaces/inkscape"
   width="16"
   height="16"
   viewBox="0 0 16 16"
   id="svg2"
   version="1.1"
   inkscape:version="0.92+devel unknown"
   inkscape:export-filename="/home/djrm/Projects/godot/tools/editor/icons/icon_help.png"
   inkscape:export-xdpi="90"
   inkscape:export-ydpi="90"
   sodipodi:docname="icon_help_search.svg">
  <defs
     id="defs4" />
  <sodipodi:namedview
     id="base"
     pagecolor="#ffffff"
     bordercolor="#666666"
     borderopacity="1.0"
     inkscape:pageopacity="0.0"
     inkscape:pageshadow="2"
     inkscape:zoom="22.627417"
     inkscape:cx="10.167683"
     inkscape:cy="7.1383117"
     inkscape:document-units="px"
     inkscape:current-layer="layer1"
     showgrid="true"
     units="px"
     inkscape:snap-bbox="true"
     inkscape:bbox-paths="true"
     inkscape:bbox-nodes="true"
     inkscape:snap-bbox-edge-midpoints="true"
     inkscape:snap-bbox-midpoints="true"
     inkscape:snap-object-midpoints="true"
     inkscape:snap-center="true"
     inkscape:window-width="1920"
     inkscape:window-height="1016"
     inkscape:window-x="0"
     inkscape:window-y="27"
     inkscape:window-maximized="1"
     inkscape:document-rotation="0">
    <inkscape:grid
       type="xygrid"
       id="grid3336" />
  </sodipodi:namedview>
  <metadata
     id="metadata7">
    <rdf:RDF>
      <cc:Work
         rdf:about="">
        <dc:format>image/svg+xml</dc:format>
        <dc:type
           rdf:resource="http://purl.org/dc/dcmitype/StillImage" />
        <dc:title></dc:title>
      </cc:Work>
    </rdf:RDF>
  </metadata>
  <g
     inkscape:label="Layer 1"
     inkscape:groupmode="layer"
     id="layer1"
     transform="translate(0,-1036.3622)">
    <path
       style="fill:#e0e0e0;fill-opacity:1;stroke-width:2;stroke-linecap:round;stroke-linejoin:round;stroke-opacity:0.3254902"
       d="m 0,10 v 6 H 2 C 3.6568542,16 5,14.656854 5,13 5,11.343146 3.6568542,10 2,10 Z m 5,3 c 0,1.656854 1.3431458,3 3,3 1.6568542,0 3,-1.343146 3,-3 0,-1.656854 -1.3431458,-3 -3,-3 -1.6568542,0 -3,1.343146 -3,3 z m 6,0 c 0,1.656854 1.343146,3 3,3 h 1 v -2 h -1 c -0.552281,-10e-6 -0.99999,-0.447719 -1,-1 10e-6,-0.552281 0.447719,-0.99999 1,-1 h 1 v -2 h -1 c -1.656854,0 -3,1.343146 -3,3 z M 2,12 c 0.5522847,0 1,0.447715 1,1 0,0.552285 -0.4477153,1 -1,1 z m 6,0 c 0.5522808,10e-6 0.9999904,0.447719 1,1 -9.6e-6,0.552281 -0.4477192,0.99999 -1,1 -0.5522808,-10e-6 -0.9999904,-0.447719 -1,-1 9.6e-6,-0.552281 0.4477192,-0.99999 1,-1 z"
       transform="translate(0,1036.3622)"
       id="path4270"
       inkscape:connector-curvature="0"
       sodipodi:nodetypes="ccssscssssssscccccccsscsccccccc" />
    <path
       style="fill:#e0e0e0;fill-opacity:1;stroke-width:2;stroke-linecap:round;stroke-linejoin:round;stroke-opacity:0.3254902"
       d="m 9,1036.3622 a 4,4 0 0 0 -4,4 4,4 0 0 0 4,4 4,4 0 0 0 4,-4 4,4 0 0 0 -4,-4 z m 0,2 a 2.0000174,2.0000174 0 0 1 2,2 2.0000174,2.0000174 0 0 1 -2,2 2.0000174,2.0000174 0 0 1 -2,-2 2.0000174,2.0000174 0 0 1 2,-2 z"
       id="path4285"
       inkscape:connector-curvature="0" />
    <path
       style="fill:none;stroke:#e0e0e0;stroke-width:2;stroke-linecap:butt;stroke-linejoin:miter;stroke-miterlimit:4;stroke-dasharray:none;stroke-opacity:1"
       d="m 7,1042.3622 -3,3"
       id="path4290"
       inkscape:connector-curvature="0"
       sodipodi:nodetypes="cc" />
  </g>
</svg>
