<?xml version="1.0" encoding="UTF-8" standalone="no"?>
<!-- Created with Inkscape (http://www.inkscape.org/) -->

<svg
   xmlns:dc="http://purl.org/dc/elements/1.1/"
   xmlns:cc="http://creativecommons.org/ns#"
   xmlns:rdf="http://www.w3.org/1999/02/22-rdf-syntax-ns#"
   xmlns:svg="http://www.w3.org/2000/svg"
   xmlns="http://www.w3.org/2000/svg"
   xmlns:sodipodi="http://sodipodi.sourceforge.net/DTD/sodipodi-0.dtd"
   xmlns:inkscape="http://www.inkscape.org/namespaces/inkscape"
   width="14"
   height="14"
   viewBox="0 0 14 14"
   id="svg2"
   version="1.1"
   inkscape:version="0.91 r13725"
   inkscape:export-filename="/home/djrm/Projects/godot/tools/editor/icons/icon_collision_shape_2d.png"
   inkscape:export-xdpi="90"
   inkscape:export-ydpi="90"
   sodipodi:docname="icon_graph_rgb.svg">
  <defs
     id="defs4" />
  <sodipodi:namedview
     id="base"
     pagecolor="#ffffff"
     bordercolor="#666666"
     borderopacity="1.0"
     inkscape:pageopacity="0.0"
     inkscape:pageshadow="2"
     inkscape:zoom="22.627417"
     inkscape:cx="1.5006521"
     inkscape:cy="11.075034"
     inkscape:document-units="px"
     inkscape:current-layer="layer1"
     showgrid="true"
     units="px"
     inkscape:snap-bbox="true"
     inkscape:bbox-paths="true"
     inkscape:bbox-nodes="true"
     inkscape:snap-bbox-edge-midpoints="true"
     inkscape:snap-bbox-midpoints="true"
     inkscape:snap-object-midpoints="true"
     inkscape:snap-center="true"
     inkscape:window-width="1920"
     inkscape:window-height="1016"
     inkscape:window-x="0"
     inkscape:window-y="27"
     inkscape:window-maximized="1">
    <inkscape:grid
       type="xygrid"
       id="grid3336" />
  </sodipodi:namedview>
  <metadata
     id="metadata7">
    <rdf:RDF>
      <cc:Work
         rdf:about="">
        <dc:format>image/svg+xml</dc:format>
        <dc:type
           rdf:resource="http://purl.org/dc/dcmitype/StillImage" />
        <dc:title></dc:title>
      </cc:Work>
    </rdf:RDF>
  </metadata>
  <g
     inkscape:label="Layer 1"
     inkscape:groupmode="layer"
     id="layer1"
     transform="translate(0,-1038.3622)">
    <path
       style="opacity:1;fill:#ffffff;fill-opacity:0.39215686;stroke:none;stroke-width:4;stroke-linecap:round;stroke-linejoin:round;stroke-miterlimit:4;stroke-dasharray:none;stroke-dashoffset:0;stroke-opacity:1"
       d="m 7,1039.3622 a 4.0000172,4.0000172 0 0 0 -4,4 4.0000172,4.0000172 0 0 0 0.03906,0.5195 4.0000172,4.0000172 0 0 0 -2.039062,3.4805 4.0000172,4.0000172 0 0 0 4,4 4.0000172,4.0000172 0 0 0 1.998047,-0.541 4.0000172,4.0000172 0 0 0 2.001953,0.541 4.0000172,4.0000172 0 0 0 4,-4 4.0000172,4.0000172 0 0 0 -2.037109,-3.4824 4.0000172,4.0000172 0 0 0 0.03711,-0.5176 4.0000172,4.0000172 0 0 0 -4,-4 z"
       id="circle4161"
       inkscape:connector-curvature="0" />
    <path
       style="opacity:1;fill:#ffffff;fill-opacity:0.39215686;stroke:none;stroke-width:4;stroke-linecap:round;stroke-linejoin:round;stroke-miterlimit:4;stroke-dasharray:none;stroke-dashoffset:0;stroke-opacity:1"
       d="m 7,1040.3622 a 3,3 0 0 0 -3,3 3,3 0 0 0 0.210937,1.1055 A 3,3 0 0 0 2,1047.3622 a 3,3 0 0 0 3,3 3,3 0 0 0 2,-0.7676 3,3 0 0 0 2,0.7676 3,3 0 0 0 3,-3 3,3 0 0 0 -2.2148438,-2.8906 A 3,3 0 0 0 10,1043.3622 a 3,3 0 0 0 -3,-3 z"
       id="circle4268"
       inkscape:connector-curvature="0" />
    <circle
       style="opacity:1;fill:#ff0000;fill-opacity:0.39215686;stroke:none;stroke-width:4;stroke-linecap:round;stroke-linejoin:round;stroke-miterlimit:4;stroke-dasharray:none;stroke-dashoffset:0;stroke-opacity:1"
       id="path4262"
       cx="7"
       cy="1043.3622"
       r="3" />
    <circle
       r="3"
       cy="1047.3622"
       cx="5"
       id="circle4264"
       style="opacity:1;fill:#0000ff;fill-opacity:0.39215686;stroke:none;stroke-width:4;stroke-linecap:round;stroke-linejoin:round;stroke-miterlimit:4;stroke-dasharray:none;stroke-dashoffset:0;stroke-opacity:1" />
    <circle
       style="opacity:1;fill:#00ff00;fill-opacity:0.39215686;stroke:none;stroke-width:4;stroke-linecap:round;stroke-linejoin:round;stroke-miterlimit:4;stroke-dasharray:none;stroke-dashoffset:0;stroke-opacity:1"
       id="circle4266"
       cx="9"
       cy="1047.3622"
       r="3" />
    <circle
       r="3"
       cy="1043.3622"
       cx="7"
       id="circle4281"
       style="opacity:1;fill:#ff0000;fill-opacity:0.39215686;stroke:none;stroke-width:4;stroke-linecap:round;stroke-linejoin:round;stroke-miterlimit:4;stroke-dasharray:none;stroke-dashoffset:0;stroke-opacity:1" />
    <circle
       style="opacity:1;fill:#0000ff;fill-opacity:0.39215686;stroke:none;stroke-width:4;stroke-linecap:round;stroke-linejoin:round;stroke-miterlimit:4;stroke-dasharray:none;stroke-dashoffset:0;stroke-opacity:1"
       id="circle4283"
       cx="5"
       cy="1047.3622"
       r="3" />
    <circle
       r="3"
       cy="1047.3622"
       cx="9"
       id="circle4285"
       style="opacity:1;fill:#00ff00;fill-opacity:0.39215686;stroke:none;stroke-width:4;stroke-linecap:round;stroke-linejoin:round;stroke-miterlimit:4;stroke-dasharray:none;stroke-dashoffset:0;stroke-opacity:1" />
  </g>
</svg>
