<?xml version="1.0" encoding="UTF-8" standalone="no"?>
<!-- Created with Inkscape (http://www.inkscape.org/) -->

<svg
   xmlns:dc="http://purl.org/dc/elements/1.1/"
   xmlns:cc="http://creativecommons.org/ns#"
   xmlns:rdf="http://www.w3.org/1999/02/22-rdf-syntax-ns#"
   xmlns:svg="http://www.w3.org/2000/svg"
   xmlns="http://www.w3.org/2000/svg"
   xmlns:sodipodi="http://sodipodi.sourceforge.net/DTD/sodipodi-0.dtd"
   xmlns:inkscape="http://www.inkscape.org/namespaces/inkscape"
   width="16"
   height="16"
   viewBox="0 0 16 16"
   id="svg2"
   version="1.1"
   inkscape:version="0.92.1 r"
   inkscape:export-filename="/home/djrm/Projects/godot/tools/editor/icons/icon_key.png"
   inkscape:export-xdpi="90"
   inkscape:export-ydpi="90"
   sodipodi:docname="icon_curve_texture.svg">
  <defs
     id="defs4" />
  <sodipodi:namedview
     id="base"
     pagecolor="#ffffff"
     bordercolor="#666666"
     borderopacity="1.0"
     inkscape:pageopacity="0.0"
     inkscape:pageshadow="2"
     inkscape:zoom="32"
     inkscape:cx="5.2803314"
     inkscape:cy="6.7903753"
     inkscape:document-units="px"
     inkscape:current-layer="layer1"
     showgrid="true"
     units="px"
     inkscape:snap-bbox="true"
     inkscape:bbox-paths="true"
     inkscape:bbox-nodes="true"
     inkscape:snap-bbox-edge-midpoints="true"
     inkscape:snap-bbox-midpoints="false"
     inkscape:snap-object-midpoints="true"
     inkscape:snap-center="true"
     inkscape:window-width="1600"
     inkscape:window-height="836"
     inkscape:window-x="0"
     inkscape:window-y="27"
     inkscape:window-maximized="1"
     inkscape:object-paths="true"
     inkscape:snap-intersection-paths="true"
     inkscape:object-nodes="true"
     inkscape:snap-smooth-nodes="true">
    <inkscape:grid
       type="xygrid"
       id="grid3336" />
  </sodipodi:namedview>
  <metadata
     id="metadata7">
    <rdf:RDF>
      <cc:Work
         rdf:about="">
        <dc:format>image/svg+xml</dc:format>
        <dc:type
           rdf:resource="http://purl.org/dc/dcmitype/StillImage" />
        <dc:title></dc:title>
      </cc:Work>
    </rdf:RDF>
  </metadata>
  <g
     inkscape:label="Layer 1"
     inkscape:groupmode="layer"
     id="layer1"
     transform="translate(0,-1036.3622)">
    <path
       style="opacity:1;fill:#e0e0e0;fill-opacity:0.99607843;stroke:none;stroke-width:2;stroke-linecap:round;stroke-linejoin:round;stroke-miterlimit:4;stroke-dasharray:none;stroke-dashoffset:0;stroke-opacity:0.99607843"
       d="M 2 1 C 1.4477153 1 1 1.4477153 1 2 L 1 11.160156 C 1.3218501 11.050492 1.6599997 10.996335 2 11 C 2.3311746 11 2.665754 10.992098 3 10.986328 L 3 3 L 13 3 L 13 4.1347656 C 13.290071 4.0308316 13.594421 3.9722014 13.902344 3.9609375 C 14.275493 3.9481411 14.647753 4.0051061 15 4.1289062 L 15 2 C 15 1.4477153 14.552285 1 14 1 L 2 1 z M 9 5 L 9 6 L 8 6 L 8 7 L 6 7 L 6 8 L 5 8 L 5 9 L 4 9 L 4 10 L 6 10 L 8 10 L 8.390625 10 C 9.5025431 9.4332285 10.358388 8.54624 11 6.5273438 L 11 6 L 10 6 L 10 5 L 9 5 z M 13.966797 5.9882812 A 1.0001 1.0001 0 0 0 13.039062 6.7265625 C 12.111631 9.9725625 10.403509 11.409059 8.3867188 12.193359 C 6.369928 12.977659 4 13 2 13 A 1.0001 1.0001 0 1 0 2 15 C 4 15 6.6300719 15.023994 9.1132812 14.058594 C 11.596491 13.092894 13.888369 11.029391 14.960938 7.2753906 A 1.0001 1.0001 0 0 0 13.966797 5.9882812 z "
       transform="translate(0,1036.3622)"
       id="rect4156" />
  </g>
</svg>
