<?xml version="1.0" encoding="UTF-8" standalone="no"?>
<!-- Created with Inkscape (http://www.inkscape.org/) -->

<svg
   xmlns:dc="http://purl.org/dc/elements/1.1/"
   xmlns:cc="http://creativecommons.org/ns#"
   xmlns:rdf="http://www.w3.org/1999/02/22-rdf-syntax-ns#"
   xmlns:svg="http://www.w3.org/2000/svg"
   xmlns="http://www.w3.org/2000/svg"
   xmlns:xlink="http://www.w3.org/1999/xlink"
   xmlns:sodipodi="http://sodipodi.sourceforge.net/DTD/sodipodi-0.dtd"
   xmlns:inkscape="http://www.inkscape.org/namespaces/inkscape"
   width="32"
   height="128"
   viewBox="0 0 32 128"
   id="svg2"
   version="1.1"
   inkscape:version="0.92.1 r"
   inkscape:export-filename="/home/djrm/Projects/godot/tools/editor/icons/icon_vu_empty.png"
   inkscape:export-xdpi="90"
   inkscape:export-ydpi="90"
   sodipodi:docname="icon_bus_vu_db.svg">
  <defs
     id="defs4">
    <linearGradient
       inkscape:collect="always"
       xlink:href="#linearGradient959-5"
       id="linearGradient4736"
       x1="16"
       y1="0"
       x2="16"
       y2="128"
       gradientUnits="userSpaceOnUse" />
    <linearGradient
       inkscape:collect="always"
       id="linearGradient959-5">
      <stop
         id="stop957-3"
         offset="0"
         style="stop-color:#ff8484;stop-opacity:1" />
      <stop
         style="stop-color:#e1dc7a;stop-opacity:1"
         offset="0.5"
         id="stop955-5" />
      <stop
         id="stop953-6"
         offset="1"
         style="stop-color:#84ffb1;stop-opacity:1" />
    </linearGradient>
  </defs>
  <sodipodi:namedview
     id="base"
     pagecolor="#ffffff"
     bordercolor="#666666"
     borderopacity="1.0"
     inkscape:pageopacity="0.0"
     inkscape:pageshadow="2"
     inkscape:zoom="4"
     inkscape:cx="21.367149"
     inkscape:cy="54.069367"
     inkscape:document-units="px"
     inkscape:current-layer="layer1"
     showgrid="true"
     units="px"
     inkscape:snap-bbox="true"
     inkscape:bbox-paths="true"
     inkscape:bbox-nodes="true"
     inkscape:snap-bbox-edge-midpoints="true"
     inkscape:snap-bbox-midpoints="true"
     inkscape:snap-object-midpoints="true"
     inkscape:snap-center="true"
     inkscape:window-width="1600"
     inkscape:window-height="836"
     inkscape:window-x="0"
     inkscape:window-y="27"
     inkscape:window-maximized="1"
     inkscape:object-paths="true"
     inkscape:snap-intersection-paths="true"
     inkscape:object-nodes="true"
     inkscape:snap-smooth-nodes="true"
     inkscape:snap-midpoints="false"
     showguides="false">
    <inkscape:grid
       type="xygrid"
       id="grid3336"
       empspacing="4" />
  </sodipodi:namedview>
  <metadata
     id="metadata7">
    <rdf:RDF>
      <cc:Work
         rdf:about="">
        <dc:format>image/svg+xml</dc:format>
        <dc:type
           rdf:resource="http://purl.org/dc/dcmitype/StillImage" />
        <dc:title></dc:title>
      </cc:Work>
    </rdf:RDF>
  </metadata>
  <g
     inkscape:label="Layer 1"
     inkscape:groupmode="layer"
     id="layer1"
     transform="translate(0,-924.3622)">
    <path
       style="fill:url(#linearGradient4736);fill-opacity:1;stroke:none;stroke-width:2.68328929;stroke-linecap:butt;stroke-linejoin:round;stroke-miterlimit:4;stroke-dasharray:none;stroke-opacity:0.49019608"
       d="M 1.5 0 C 0.66899518 0 0 0.66899518 0 1.5 C 0 2.3310048 0.66899518 3 1.5 3 L 3.5 3 C 4.3310048 3 5 2.3310048 5 1.5 C 5 0.66899518 4.3310048 0 3.5 0 L 1.5 0 z M 1.5 7 C 0.669 7 0 7.669 0 8.5 C 0 9.331 0.669 10 1.5 10 C 2.331 10 3 9.331 3 8.5 C 3 7.669 2.331 7 1.5 7 z M 24 10.75 C 22.5 10.75 21 12.05555 21 14 A 1.0001 1.0001 0 1 0 23 14 C 23 12.94444 23.5 12.75 24 12.75 C 24.5 12.75 25 12.94444 25 14 C 25 14.59157 24.641069 15.156041 23.808594 15.863281 C 22.976118 16.570521 21.747003 17.315092 20.451172 18.164062 A 1.0001 1.0001 0 0 0 21 20 L 26 20 A 1.0001 1.0001 0 1 0 26 18 L 24.214844 18 C 24.498598 17.79333 24.845909 17.605569 25.103516 17.386719 C 26.133676 16.511529 27 15.40842 27 14 C 27 12.05555 25.5 10.75 24 10.75 z M 16.970703 11.001953 A 1.0001 1.0001 0 0 0 16.552734 11.105469 L 14.552734 12.105469 A 1.0001163 1.0001163 0 0 0 15.447266 13.894531 L 16 13.619141 L 16 19 A 1.0001 1.0001 0 1 0 18 19 L 18 12 A 1.0001 1.0001 0 0 0 16.970703 11.001953 z M 1.5 14 C 0.66899518 14 0 14.668995 0 15.5 C 0 16.331005 0.66899518 17 1.5 17 L 3.5 17 C 4.3310048 17 5 16.331005 5 15.5 C 5 14.668995 4.3310048 14 3.5 14 L 1.5 14 z M 1.5 21 C 0.669 21 0 21.669 0 22.5 C 0 23.331 0.669 24 1.5 24 C 2.331 24 3 23.331 3 22.5 C 3 21.669 2.331 21 1.5 21 z M 23 24 C 22.446 24 22 24.446 22 25 L 22 26 L 22 28 L 21.070312 28 A 1.0001 1.0001 0 0 0 21 28 C 19.929806 28 18.937441 28.57318 18.402344 29.5 C 17.867247 30.42681 17.867247 31.57318 18.402344 32.5 C 18.937441 33.42681 19.929806 34 21 34 L 23 34 C 23.554 34 24 33.554 24 33 L 24 25 C 24 24.446 23.554 24 23 24 z M 27 24 C 26.446 24 26 24.446 26 25 L 26 33 C 26 33.554 26.446 34 27 34 L 29 34 C 30.070194 34 31.062559 33.42681 31.597656 32.5 C 32.132753 31.57318 32.132753 30.42681 31.597656 29.5 C 31.492619 29.31807 31.365922 29.153017 31.228516 29 C 31.366318 28.846693 31.49237 28.682361 31.597656 28.5 C 32.132753 27.57318 32.132753 26.42681 31.597656 25.5 C 31.062559 24.57318 30.070194 24 29 24 L 27 24 z M 13 25 C 11.355297 25 10 26.3553 10 28 L 10 31 C 10 32.6447 11.355297 34 13 34 C 14.644703 34 16 32.6447 16 31 L 16 28 C 16 26.3553 14.644703 25 13 25 z M 28 26 L 29 26 C 29.358869 26 29.6858 26.18921 29.865234 26.5 C 30.044669 26.81079 30.044669 27.18921 29.865234 27.5 C 29.6858 27.81079 29.358869 28 29 28 L 28.929688 28 L 28 28 L 28 26 z M 13 27 C 13.571297 27 14 27.4287 14 28 L 14 31 C 14 31.5713 13.571297 32 13 32 C 12.428703 32 12 31.5713 12 31 L 12 28 C 12 27.4287 12.428703 27 13 27 z M 1.5 28 C 0.66899518 28 0 28.668995 0 29.5 C 0 30.331005 0.66899518 31 1.5 31 L 3.5 31 C 4.3310048 31 5 30.331005 5 29.5 C 5 28.668995 4.3310048 28 3.5 28 L 1.5 28 z M 21 30 L 22 30 L 22 32 L 21.070312 32 A 1.0001 1.0001 0 0 0 21 32 C 20.641131 32 20.3142 31.81079 20.134766 31.5 C 19.955331 31.18921 19.955331 30.81079 20.134766 30.5 C 20.3142 30.18921 20.641131 30 21 30 z M 28 30 L 29 30 C 29.358869 30 29.6858 30.18921 29.865234 30.5 C 30.044669 30.81079 30.044669 31.18921 29.865234 31.5 C 29.6858 31.81079 29.358869 32 29 32 L 28 32 L 28 30 z M 1.5 35 C 0.669 35 0 35.669 0 36.5 C 0 37.331 0.669 38 1.5 38 C 2.331 38 3 37.331 3 36.5 C 3 35.669 2.331 35 1.5 35 z M 24 37.75 C 22.5 37.75 21 39.05555 21 41 A 1.0001 1.0001 0 1 0 23 41 C 23 39.94444 23.5 39.75 24 39.75 C 24.5 39.75 25 39.94444 25 41 C 25 41.59157 24.641069 42.156041 23.808594 42.863281 C 22.976118 43.570521 21.747003 44.315092 20.451172 45.164062 A 1.0001 1.0001 0 0 0 21 47 L 26 47 A 1.0001 1.0001 0 1 0 26 45 L 24.214844 45 C 24.498598 44.79333 24.845909 44.605569 25.103516 44.386719 C 26.133676 43.511529 27 42.40842 27 41 C 27 39.05555 25.5 37.75 24 37.75 z M 16.970703 38.001953 A 1.0001 1.0001 0 0 0 16.552734 38.105469 L 14.552734 39.105469 A 1.0001163 1.0001163 0 0 0 15.447266 40.894531 L 16 40.619141 L 16 46 A 1.0001 1.0001 0 1 0 18 46 L 18 39 A 1.0001 1.0001 0 0 0 16.970703 38.001953 z M 1.5 42 C 0.66899518 42 0 42.668995 0 43.5 C 0 44.331005 0.66899518 45 1.5 45 L 3.5 45 C 4.3310048 45 5 44.331005 5 43.5 C 5 42.668995 4.3310048 42 3.5 42 L 1.5 42 z M 9 43 L 9 45 L 12 45 L 12 43 L 9 43 z M 2 49 C 1.169 49 0.5 49.669 0.5 50.5 C 0.5 51.331 1.169 52 2 52 C 2.831 52 3.5 51.331 3.5 50.5 C 3.5 49.669 2.831 49 2 49 z M 17.986328 52.75 C 16.486328 52.75 14.986328 54.05555 14.986328 56 A 1.0001 1.0001 0 1 0 16.986328 56 C 16.986328 54.94444 17.486328 54.75 17.986328 54.75 C 18.486328 54.75 18.986328 54.94444 18.986328 56 C 18.986328 56.59157 18.627397 57.156041 17.794922 57.863281 C 16.962447 58.570521 15.733331 59.315092 14.4375 60.164062 A 1.0001 1.0001 0 0 0 14.986328 62 L 19.986328 62 A 1.0001 1.0001 0 1 0 19.986328 60 L 18.199219 60 C 18.483315 59.79311 18.83195 59.605809 19.089844 59.386719 C 20.120004 58.511529 20.986328 57.40842 20.986328 56 C 20.986328 54.05555 19.486328 52.75 17.986328 52.75 z M 25.033203 52.988281 A 1.0001 1.0001 0 0 0 24.142578 53.486328 L 21.142578 58.486328 A 1.0001 1.0001 0 0 0 22 60 L 25 60 L 25 61 A 1.0001 1.0001 0 1 0 27 61 L 27 59 A 1.0001 1.0001 0 0 0 26 58 L 23.767578 58 L 25.857422 54.515625 A 1.0001 1.0001 0 0 0 25.033203 52.988281 z M 1.5 56 C 0.66899518 56 0 56.668995 0 57.5 C 0 58.331005 0.66899518 59 1.5 59 L 3.5 59 C 4.3310048 59 5 58.331005 5 57.5 C 5 56.668995 4.3310048 56 3.5 56 L 1.5 56 z M 9 58 L 9 60 L 12 60 L 12 58 L 9 58 z M 1.5 63 C 0.669 63 0 63.669 0 64.5 C 0 65.331 0.669 66 1.5 66 C 2.331 66 3 65.331 3 64.5 C 3 63.669 2.331 63 1.5 63 z M 26.046875 67.996094 A 1.0001 1.0001 0 0 0 25.683594 68.052734 C 25.683594 68.052734 24.700104 68.385829 23.792969 69.292969 C 22.885834 70.200139 22 71.75 22 74 A 1.0001 1.0001 0 0 0 22.021484 74.214844 C 22.135372 75.759296 23.42866 77 25 77 C 26.64501 77 28 75.64497 28 74 C 28 72.35499 26.64501 71 25 71 C 24.984666 71 24.970361 71.003672 24.955078 71.003906 C 25.03908 70.902917 25.122032 70.79203 25.207031 70.707031 C 25.799896 70.114161 26.316406 69.949219 26.316406 69.949219 A 1.0001 1.0001 0 0 0 26.046875 67.996094 z M 16.986328 68.001953 C 15.94567 68.009427 14.945809 68.560643 14.402344 69.501953 A 1.0001607 1.0001607 0 0 0 16.134766 70.501953 C 16.380733 70.075953 16.87953 69.892287 17.341797 70.060547 C 17.804064 70.228797 18.069795 70.689368 17.984375 71.173828 C 17.898952 71.658288 17.491934 72.001953 17 72.001953 A 1.0001 1.0001 0 0 0 16.916016 72.003906 A 1.0001 1.0001 0 0 0 16.751953 72.029297 A 1.0001 1.0001 0 0 0 16.722656 72.037109 A 1.0001 1.0001 0 0 0 16.634766 72.064453 A 1.0001 1.0001 0 0 0 16.574219 72.091797 A 1.0001 1.0001 0 0 0 16.527344 72.113281 A 1.0001 1.0001 0 0 0 16.486328 72.136719 A 1.0001 1.0001 0 0 0 16.453125 72.15625 A 1.0001 1.0001 0 0 0 16.3125 72.263672 A 1.0001 1.0001 0 0 0 16.287109 72.287109 A 1.0001 1.0001 0 0 0 16.269531 72.306641 A 1.0001 1.0001 0 0 0 16.21875 72.359375 A 1.0001 1.0001 0 0 0 16.1875 72.400391 A 1.0001 1.0001 0 0 0 16.162109 72.435547 A 1.0001 1.0001 0 0 0 16.142578 72.466797 A 1.0001 1.0001 0 0 0 16.064453 72.611328 A 1.0001 1.0001 0 0 0 16.041016 72.677734 A 1.0001 1.0001 0 0 0 16.033203 72.695312 A 1.0001 1.0001 0 0 0 15.996094 72.861328 A 1.0001 1.0001 0 0 0 15.990234 72.912109 A 1.0001 1.0001 0 0 0 15.990234 72.927734 A 1.0001 1.0001 0 0 0 15.986328 73 A 1.0001 1.0001 0 0 0 15.990234 73.074219 A 1.0001 1.0001 0 0 0 15.990234 73.089844 A 1.0001 1.0001 0 0 0 15.996094 73.140625 A 1.0001 1.0001 0 0 0 16.033203 73.304688 A 1.0001 1.0001 0 0 0 16.041016 73.324219 A 1.0001 1.0001 0 0 0 16.064453 73.390625 A 1.0001 1.0001 0 0 0 16.070312 73.404297 A 1.0001 1.0001 0 0 0 16.101562 73.466797 A 1.0001 1.0001 0 0 0 16.142578 73.535156 A 1.0001 1.0001 0 0 0 16.162109 73.566406 A 1.0001 1.0001 0 0 0 16.1875 73.601562 A 1.0001 1.0001 0 0 0 16.21875 73.642578 A 1.0001 1.0001 0 0 0 16.269531 73.695312 A 1.0001 1.0001 0 0 0 16.287109 73.714844 A 1.0001 1.0001 0 0 0 16.3125 73.738281 A 1.0001 1.0001 0 0 0 16.4375 73.835938 A 1.0001 1.0001 0 0 0 16.515625 73.882812 A 1.0001 1.0001 0 0 0 16.521484 73.886719 A 1.0001 1.0001 0 0 0 16.59375 73.919922 A 1.0001 1.0001 0 0 0 16.615234 73.929688 A 1.0001 1.0001 0 0 0 16.679688 73.953125 A 1.0001 1.0001 0 0 0 16.720703 73.964844 A 1.0001 1.0001 0 0 0 16.751953 73.972656 A 1.0001 1.0001 0 0 0 16.919922 73.998047 A 1.0001 1.0001 0 0 0 17 74.001953 C 17.491934 74.001953 17.898952 74.343665 17.984375 74.828125 C 18.069795 75.312585 17.804064 75.773206 17.341797 75.941406 C 16.87953 76.109706 16.380733 75.92637 16.134766 75.5 A 1.0001607 1.0001607 0 0 0 14.402344 76.5 C 15.126964 77.7551 16.66355 78.316013 18.025391 77.820312 C 19.387231 77.324714 20.206736 75.907669 19.955078 74.480469 C 19.854803 73.911777 19.590188 73.406592 19.222656 73 C 19.589698 72.593206 19.854887 72.089699 19.955078 71.521484 C 20.206736 70.094264 19.387231 68.677311 18.025391 68.181641 C 17.68493 68.057723 17.333214 67.999462 16.986328 68.001953 z M 1.5 70 C 0.66899518 70 0 70.668995 0 71.5 C 0 72.331005 0.66899518 73 1.5 73 L 3.5 73 C 4.3310048 73 5 72.331005 5 71.5 C 5 70.668995 4.3310048 70 3.5 70 L 1.5 70 z M 9 72 L 9 74 L 12 74 L 12 72 L 9 72 z M 25 73 C 25.564129 73 26 73.43587 26 74 C 26 74.56413 25.564129 75 25 75 C 24.435871 75 24 74.56413 24 74 C 24 73.43587 24.435871 73 25 73 z M 1.5 77 C 0.669 77 0 77.669 0 78.5 C 0 79.331 0.669 80 1.5 80 C 2.331 80 3 79.331 3 78.5 C 3 77.669 2.331 77 1.5 77 z M 18.033203 80.988281 A 1.0001 1.0001 0 0 0 17.142578 81.486328 L 14.142578 86.486328 A 1.0001 1.0001 0 0 0 15 88 L 18 88 L 18 89 A 1.0001 1.0001 0 1 0 20 89 L 20 87 A 1.0001 1.0001 0 0 0 19 86 L 16.767578 86 L 18.857422 82.515625 A 1.0001 1.0001 0 0 0 18.033203 80.988281 z M 25 81 C 23.35499 81 22 82.355 22 84 C 22 84.768995 22.303687 85.466552 22.787109 86 C 22.304287 86.533316 22 87.231542 22 88 C 22 89.645 23.35499 91 25 91 C 26.64501 91 28 89.645 28 88 C 28 87.231542 27.695713 86.533316 27.212891 86 C 27.696313 85.466552 28 84.768995 28 84 C 28 82.355 26.64501 81 25 81 z M 25 83 C 25.564129 83 26 83.4359 26 84 C 26 84.5642 25.564129 85 25 85 C 24.435871 85 24 84.5642 24 84 C 24 83.4359 24.435871 83 25 83 z M 1.5 84 C 0.66899518 84 0 84.668995 0 85.5 C 0 86.331005 0.66899518 87 1.5 87 L 3.5 87 C 4.3310048 87 5 86.331005 5 85.5 C 5 84.668995 4.3310048 84 3.5 84 L 1.5 84 z M 9 86 L 9 88 L 12 88 L 12 86 L 9 86 z M 25 87 C 25.564129 87 26 87.4359 26 88 C 26 88.5642 25.564129 89 25 89 C 24.435871 89 24 88.5642 24 88 C 24 87.4359 24.435871 87 25 87 z M 1.5 91 C 0.669 91 0 91.669 0 92.5 C 0 93.331 0.669 94 1.5 94 C 2.331 94 3 93.331 3 92.5 C 3 91.669 2.331 91 1.5 91 z M 17.947266 94.982422 A 1.0001 1.0001 0 0 0 17.683594 95.037109 C 17.683594 95.037109 16.700104 95.372197 15.792969 96.279297 C 14.885834 97.186097 14 98.736326 14 100.98633 A 1.0001 1.0001 0 0 0 14.021484 101.20117 C 14.135372 102.74565 15.42866 103.98633 17 103.98633 C 18.64501 103.98633 20 102.63133 20 100.98633 C 20 99.341226 18.64501 97.986328 17 97.986328 C 16.984666 97.986328 16.970361 97.99 16.955078 97.990234 C 17.03908 97.889241 17.122032 97.778363 17.207031 97.693359 C 17.799896 97.100459 18.316406 96.935547 18.316406 96.935547 A 1.0001 1.0001 0 0 0 18.046875 94.982422 A 1.0001 1.0001 0 0 0 17.947266 94.982422 z M 25 95 C 23.355297 95 22 96.3553 22 98 L 22 101 C 22 102.6447 23.355297 104 25 104 C 26.644703 104 28 102.6447 28 101 L 28 98 C 28 96.3553 26.644703 95 25 95 z M 25 97 C 25.571297 97 26 97.4287 26 98 L 26 101 C 26 101.5713 25.571297 102 25 102 C 24.428703 102 24 101.5713 24 101 L 24 98 C 24 97.4287 24.428703 97 25 97 z M 1.5 98 C 0.66899518 98 0 98.668995 0 99.5 C 0 100.331 0.66899518 101 1.5 101 L 3.5 101 C 4.3310048 101 5 100.331 5 99.5 C 5 98.668995 4.3310048 98 3.5 98 L 1.5 98 z M 17 99.986328 C 17.564129 99.986328 18 100.42213 18 100.98633 C 18 101.55043 17.564129 101.98633 17 101.98633 C 16.435871 101.98633 16 101.55043 16 100.98633 C 16 100.42213 16.435871 99.986328 17 99.986328 z M 9 100 L 9 102 L 12 102 L 12 100 L 9 100 z M 1.5 105 C 0.669 105 0 105.669 0 106.5 C 0 107.331 0.669 108 1.5 108 C 2.331 108 3 107.331 3 106.5 C 3 105.669 2.331 105 1.5 105 z M 24 108.75 C 22.5 108.75 21 110.0556 21 112 A 1.0001 1.0001 0 1 0 23 112 C 23 110.9445 23.5 110.75 24 110.75 C 24.5 110.75 25 110.9445 25 112 C 25 112.5916 24.641069 113.15608 23.808594 113.86328 C 22.976118 114.57048 21.747004 115.31506 20.451172 116.16406 A 1.0001 1.0001 0 0 0 21 118 L 26 118 A 1.0001 1.0001 0 1 0 26 116 L 24.214844 116 C 24.498598 115.7934 24.845909 115.60562 25.103516 115.38672 C 26.133676 114.51162 27 113.4085 27 112 C 27 110.0556 25.5 108.75 24 108.75 z M 14 109 A 1.0001 1.0001 0 1 0 14 111 L 17.382812 111 L 14.105469 117.55273 A 1.0001181 1.0001181 0 0 0 15.894531 118.44727 L 19.894531 110.44727 A 1.0001 1.0001 0 0 0 19 109 L 14 109 z M 1.5 112 C 0.66899518 112 0 112.669 0 113.5 C 0 114.331 0.66899518 115 1.5 115 L 3.5 115 C 4.3310048 115 5 114.331 5 113.5 C 5 112.669 4.3310048 112 3.5 112 L 1.5 112 z M 9 114 L 9 116 L 12 116 L 12 114 L 9 114 z M 1.5 119 C 0.669 119 0 119.669 0 120.5 C 0 121.331 0.669 122 1.5 122 C 2.331 122 3 121.331 3 120.5 C 3 119.669 2.331 119 1.5 119 z "
       transform="translate(0,924.3622)"
       id="rect4527" />
  </g>
</svg>
