<?xml version="1.0" encoding="UTF-8" standalone="no"?>
<!-- Created with Inkscape (http://www.inkscape.org/) -->

<svg
   xmlns:dc="http://purl.org/dc/elements/1.1/"
   xmlns:cc="http://creativecommons.org/ns#"
   xmlns:rdf="http://www.w3.org/1999/02/22-rdf-syntax-ns#"
   xmlns:svg="http://www.w3.org/2000/svg"
   xmlns="http://www.w3.org/2000/svg"
   xmlns:sodipodi="http://sodipodi.sourceforge.net/DTD/sodipodi-0.dtd"
   xmlns:inkscape="http://www.inkscape.org/namespaces/inkscape"
   width="14"
   height="14"
   viewBox="0 0 14 14"
   id="svg2"
   version="1.1"
   inkscape:version="0.91 r13725"
   inkscape:export-filename="/home/djrm/Projects/godot/tools/editor/icons/icon_collision_shape_2d.png"
   inkscape:export-xdpi="90"
   inkscape:export-ydpi="90"
   sodipodi:docname="icon_graph_cube_uniform.svg">
  <defs
     id="defs4" />
  <sodipodi:namedview
     id="base"
     pagecolor="#ffffff"
     bordercolor="#666666"
     borderopacity="1.0"
     inkscape:pageopacity="0.0"
     inkscape:pageshadow="2"
     inkscape:zoom="32"
     inkscape:cx="2.6772247"
     inkscape:cy="6.7867928"
     inkscape:document-units="px"
     inkscape:current-layer="layer1"
     showgrid="true"
     units="px"
     inkscape:snap-bbox="true"
     inkscape:bbox-paths="true"
     inkscape:bbox-nodes="true"
     inkscape:snap-bbox-edge-midpoints="true"
     inkscape:snap-bbox-midpoints="true"
     inkscape:snap-object-midpoints="true"
     inkscape:snap-center="true"
     inkscape:window-width="1920"
     inkscape:window-height="1016"
     inkscape:window-x="0"
     inkscape:window-y="27"
     inkscape:window-maximized="1">
    <inkscape:grid
       type="xygrid"
       id="grid3336" />
  </sodipodi:namedview>
  <metadata
     id="metadata7">
    <rdf:RDF>
      <cc:Work
         rdf:about="">
        <dc:format>image/svg+xml</dc:format>
        <dc:type
           rdf:resource="http://purl.org/dc/dcmitype/StillImage" />
        <dc:title />
      </cc:Work>
    </rdf:RDF>
  </metadata>
  <g
     inkscape:label="Layer 1"
     inkscape:groupmode="layer"
     id="layer1"
     transform="translate(0,-1038.3622)">
    <path
       style="opacity:1;fill:#eac968;fill-opacity:1;stroke:none;stroke-width:2;stroke-linecap:round;stroke-linejoin:round;stroke-miterlimit:4;stroke-dasharray:none;stroke-dashoffset:0;stroke-opacity:1"
       d="M 2 0 C 0.8954305 0 0 0.8954 0 2 L 0 12 C 0 13.1046 0.8954305 14 2 14 L 12 14 C 13.104569 14 14 13.1046 14 12 L 14 2 C 14 0.8954 13.104569 0 12 0 L 2 0 z M 6.9726562 2 A 0.71438238 0.71438238 0 0 1 7.3203125 2.0742188 L 11.605469 4.2167969 A 0.71438238 0.71438238 0 0 1 12 4.8574219 L 12 9.1425781 A 0.71438238 0.71438238 0 0 1 11.605469 9.78125 L 7.3203125 11.923828 A 0.71438238 0.71438238 0 0 1 6.6796875 11.923828 L 2.3945312 9.78125 A 0.71438238 0.71438238 0 0 1 2 9.1425781 L 2 4.8574219 A 0.71438238 0.71438238 0 0 1 2.3945312 4.2167969 L 6.6796875 2.0742188 A 0.71438238 0.71438238 0 0 1 6.9726562 2 z M 7 3.5136719 L 4.3105469 4.8574219 L 7 6.2011719 L 9.6894531 4.8574219 L 7 3.5136719 z M 3.4277344 6.0117188 L 3.4277344 8.7011719 L 6.2851562 10.128906 L 6.2851562 7.4414062 L 3.4277344 6.0117188 z M 10.572266 6.0117188 L 7.7148438 7.4414062 L 7.7148438 10.128906 L 10.572266 8.7011719 L 10.572266 6.0117188 z "
       transform="translate(0,1038.3622)"
       id="rect4147" />
  </g>
</svg>
