<?xml version="1.0" encoding="UTF-8" standalone="no"?>
<!-- Created with Inkscape (http://www.inkscape.org/) -->

<svg
   xmlns:dc="http://purl.org/dc/elements/1.1/"
   xmlns:cc="http://creativecommons.org/ns#"
   xmlns:rdf="http://www.w3.org/1999/02/22-rdf-syntax-ns#"
   xmlns:svg="http://www.w3.org/2000/svg"
   xmlns="http://www.w3.org/2000/svg"
   xmlns:sodipodi="http://sodipodi.sourceforge.net/DTD/sodipodi-0.dtd"
   xmlns:inkscape="http://www.inkscape.org/namespaces/inkscape"
   width="16"
   height="16"
   viewBox="0 0 16 16"
   id="svg2"
   version="1.1"
   inkscape:version="0.91 r13725"
   inkscape:export-filename="/home/djrm/Projects/godot/tools/editor/icons/icon_backed_light_sampler.png"
   inkscape:export-xdpi="90"
   inkscape:export-ydpi="90"
   sodipodi:docname="icon_baked_light_sampler.svg">
  <defs
     id="defs4" />
  <sodipodi:namedview
     id="base"
     pagecolor="#ffffff"
     bordercolor="#666666"
     borderopacity="1.0"
     inkscape:pageopacity="0.0"
     inkscape:pageshadow="2"
     inkscape:zoom="32"
     inkscape:cx="9.2162526"
     inkscape:cy="7.9395501"
     inkscape:document-units="px"
     inkscape:current-layer="layer1"
     showgrid="true"
     units="px"
     inkscape:snap-bbox="true"
     inkscape:bbox-paths="true"
     inkscape:bbox-nodes="true"
     inkscape:snap-bbox-edge-midpoints="true"
     inkscape:snap-bbox-midpoints="true"
     inkscape:snap-object-midpoints="true"
     inkscape:snap-center="true"
     inkscape:window-width="1920"
     inkscape:window-height="1016"
     inkscape:window-x="0"
     inkscape:window-y="27"
     inkscape:window-maximized="1"
     showguides="true">
    <inkscape:grid
       type="xygrid"
       id="grid3336" />
  </sodipodi:namedview>
  <metadata
     id="metadata7">
    <rdf:RDF>
      <cc:Work
         rdf:about="">
        <dc:format>image/svg+xml</dc:format>
        <dc:type
           rdf:resource="http://purl.org/dc/dcmitype/StillImage" />
        <dc:title />
      </cc:Work>
    </rdf:RDF>
  </metadata>
  <g
     inkscape:label="Layer 1"
     inkscape:groupmode="layer"
     id="layer1"
     transform="translate(0,-1036.3622)">
    <path
       style="opacity:1;fill:#fc9c9c;fill-opacity:1;stroke:none;stroke-width:3;stroke-linecap:round;stroke-linejoin:round;stroke-miterlimit:4;stroke-dasharray:none;stroke-dashoffset:0;stroke-opacity:1"
       d="M 2 1 L 2 3 L 14 3 L 14 1 L 2 1 z M 1 4 L 1 13 A 2 2.0000174 0 0 0 3 15 L 7 15 L 7 13 L 3 13 L 3 7 L 7 7 L 13 7 L 15 7 L 15 4 L 1 4 z M 3 5 L 4 5 L 4 6 L 3 6 L 3 5 z M 6 5 L 7 5 L 7 6 L 6 6 L 6 5 z M 9 5 L 10 5 L 10 6 L 9 6 L 9 5 z M 12 5 L 13 5 L 13 6 L 12 6 L 12 5 z M 6 8 L 6 9 L 7 9 L 7 8 L 6 8 z M 10 9 A 1 1 0 0 0 9 10 L 9 14 A 1 1 0 0 0 10 15 L 14 15 A 1 1 0 0 0 15 14 L 15 10 A 1 1 0 0 0 14 9 L 10 9 z M 13 10 A 1 1 0 0 1 14 11 A 1 1 0 0 1 13 12 A 1 1 0 0 1 12 11 A 1 1 0 0 1 13 10 z M 11 12 A 1 1 0 0 1 12 13 A 1 1 0 0 1 11 14 A 1 1 0 0 1 10 13 A 1 1 0 0 1 11 12 z "
       transform="translate(0,1036.3622)"
       id="rect4155" />
  </g>
</svg>
