<?xml version="1.0" encoding="UTF-8" standalone="no"?>
<!-- Created with Inkscape (http://www.inkscape.org/) -->

<svg
   xmlns:dc="http://purl.org/dc/elements/1.1/"
   xmlns:cc="http://creativecommons.org/ns#"
   xmlns:rdf="http://www.w3.org/1999/02/22-rdf-syntax-ns#"
   xmlns:svg="http://www.w3.org/2000/svg"
   xmlns="http://www.w3.org/2000/svg"
   xmlns:sodipodi="http://sodipodi.sourceforge.net/DTD/sodipodi-0.dtd"
   xmlns:inkscape="http://www.inkscape.org/namespaces/inkscape"
   width="16"
   height="12"
   viewBox="0 0 16 12"
   id="svg2"
   version="1.1"
   inkscape:version="0.91 r13725"
   inkscape:export-filename="/home/djrm/Projects/godot/tools/editor/icons/icon_add_track.png"
   inkscape:export-xdpi="45"
   inkscape:export-ydpi="45"
   sodipodi:docname="icon_mini_vector3.svg">
  <defs
     id="defs4" />
  <sodipodi:namedview
     id="base"
     pagecolor="#ffffff"
     bordercolor="#666666"
     borderopacity="1.0"
     inkscape:pageopacity="0.0"
     inkscape:pageshadow="2"
     inkscape:zoom="32.000002"
     inkscape:cx="5.3282118"
     inkscape:cy="6.0229362"
     inkscape:document-units="px"
     inkscape:current-layer="layer1"
     showgrid="true"
     units="px"
     inkscape:snap-bbox="true"
     inkscape:bbox-paths="true"
     inkscape:bbox-nodes="true"
     inkscape:snap-bbox-edge-midpoints="true"
     inkscape:snap-bbox-midpoints="false"
     inkscape:snap-object-midpoints="true"
     inkscape:snap-center="true"
     inkscape:window-width="1920"
     inkscape:window-height="1016"
     inkscape:window-x="0"
     inkscape:window-y="27"
     inkscape:window-maximized="1"
     inkscape:object-nodes="true"
     inkscape:snap-smooth-nodes="true">
    <inkscape:grid
       type="xygrid"
       id="grid3336" />
  </sodipodi:namedview>
  <metadata
     id="metadata7">
    <rdf:RDF>
      <cc:Work
         rdf:about="">
        <dc:format>image/svg+xml</dc:format>
        <dc:type
           rdf:resource="http://purl.org/dc/dcmitype/StillImage" />
        <dc:title />
      </cc:Work>
    </rdf:RDF>
  </metadata>
  <g
     inkscape:label="Layer 1"
     inkscape:groupmode="layer"
     id="layer1"
     transform="translate(0,-1040.3622)">
    <path
       inkscape:connector-curvature="0"
       id="path4705"
       d="m 3.0004202,1050.3622 a 3,3 0 0 0 3,-3 l -2,0 a 1.0000174,1.0000174 0 0 1 -1,1 l 0,2 z"
       style="fill:#e286f0;fill-opacity:1;stroke:none;stroke-width:2;stroke-linecap:butt;stroke-linejoin:round;stroke-miterlimit:4;stroke-dasharray:none;stroke-opacity:1" />
    <rect
       style="fill:#e286f0;fill-opacity:1;stroke:none;stroke-width:2;stroke-linecap:butt;stroke-linejoin:round;stroke-miterlimit:4;stroke-dasharray:none;stroke-opacity:1"
       id="rect4707"
       width="2"
       height="3"
       x="4.0004206"
       y="1044.3622" />
    <rect
       y="1044.3622"
       x="1.0004202"
       height="5.9999828"
       width="2"
       id="rect4711"
       style="fill:#e286f0;fill-opacity:1;stroke:none;stroke-width:2;stroke-linecap:butt;stroke-linejoin:round;stroke-miterlimit:4;stroke-dasharray:none;stroke-opacity:1" />
    <rect
       y="1044.3622"
       x="9.0004196"
       height="2.0000174"
       width="1"
       id="rect4713"
       style="fill:#e286f0;fill-opacity:1;stroke:none;stroke-width:2;stroke-linecap:butt;stroke-linejoin:round;stroke-miterlimit:4;stroke-dasharray:none;stroke-opacity:1" />
    <path
       style="fill:#e286f0;fill-opacity:1;stroke:none;stroke-width:2;stroke-linecap:butt;stroke-linejoin:round;stroke-miterlimit:4;stroke-dasharray:none;stroke-opacity:1"
       d="m 9.0004202,1044.3622 a 3,3 0 0 0 -3,3 l 2,0 a 1.0000174,1.0000174 0 0 1 1,-1 l 0,-2 z"
       id="path4715"
       inkscape:connector-curvature="0" />
    <rect
       style="fill:#e286f0;fill-opacity:1;stroke:none;stroke-width:2;stroke-linecap:butt;stroke-linejoin:round;stroke-miterlimit:4;stroke-dasharray:none;stroke-opacity:1"
       id="rect4717"
       width="1"
       height="2.0000174"
       x="9.0004196"
       y="-1050.3622"
       transform="scale(1,-1)" />
    <path
       inkscape:connector-curvature="0"
       id="path4719"
       d="m 9.0004202,1050.3622 a 3,3 0 0 1 -3,-3 l 2,0 a 1.0000174,1.0000174 0 0 0 1,1 l 0,2 z"
       style="fill:#e286f0;fill-opacity:1;stroke:none;stroke-width:2;stroke-linecap:butt;stroke-linejoin:round;stroke-miterlimit:4;stroke-dasharray:none;stroke-opacity:1" />
    <path
       style="fill:#eeb9f6;fill-opacity:1;stroke:none;stroke-width:2;stroke-linecap:butt;stroke-linejoin:round;stroke-miterlimit:4;stroke-dasharray:none;stroke-opacity:1"
       d="M 13 2 L 13 3 A 1 1 0 0 1 14 4 A 1 1 0 0 1 13 5 L 13 7 A 3 3 0 0 0 15.597656 5.5 A 3 3 0 0 0 15.597656 2.5 A 3 3 0 0 0 15.234375 2 L 13 2 z "
       transform="translate(0,1040.3622)"
       id="path4723" />
    <rect
       style="fill:#eeb9f6;fill-opacity:1;stroke:none;stroke-width:2;stroke-linecap:round;stroke-linejoin:round;stroke-miterlimit:4;stroke-dasharray:none;stroke-opacity:1"
       id="rect4725"
       width="3.9995804"
       height="2"
       x="12.00042"
       y="1042.3622" />
    <path
       style="fill:#eeb9f6;fill-opacity:1;stroke:none;stroke-width:2;stroke-linecap:butt;stroke-linejoin:round;stroke-miterlimit:4;stroke-dasharray:none;stroke-opacity:1"
       d="m 13.00042,1045.3622 0,2 a 1,1 0 0 1 1,1 1,1 0 0 1 -1,1 l 0,2 a 3,3 0 0 0 2.597656,-1.5 3,3 0 0 0 0,-3 3,3 0 0 0 -2.597656,-1.5 z"
       id="path4727"
       inkscape:connector-curvature="0" />
    <rect
       y="1049.3622"
       x="12.00042"
       height="2"
       width="1"
       id="rect4729"
       style="fill:#eeb9f6;fill-opacity:1;stroke:none;stroke-width:2;stroke-linecap:round;stroke-linejoin:round;stroke-miterlimit:4;stroke-dasharray:none;stroke-opacity:1" />
  </g>
</svg>
