<?xml version="1.0" encoding="UTF-8" standalone="no"?>
<!-- Created with Inkscape (http://www.inkscape.org/) -->

<svg
   xmlns:dc="http://purl.org/dc/elements/1.1/"
   xmlns:cc="http://creativecommons.org/ns#"
   xmlns:rdf="http://www.w3.org/1999/02/22-rdf-syntax-ns#"
   xmlns:svg="http://www.w3.org/2000/svg"
   xmlns="http://www.w3.org/2000/svg"
   xmlns:sodipodi="http://sodipodi.sourceforge.net/DTD/sodipodi-0.dtd"
   xmlns:inkscape="http://www.inkscape.org/namespaces/inkscape"
   width="16"
   height="16"
   viewBox="0 0 16 16"
   id="svg2"
   version="1.1"
   inkscape:version="0.91 r13725"
   inkscape:export-filename="/home/djrm/Projects/godot/tools/editor/icons/icon_edit_pivot.png"
   inkscape:export-xdpi="90"
   inkscape:export-ydpi="90"
   sodipodi:docname="icon_move_point.svg">
  <defs
     id="defs4" />
  <sodipodi:namedview
     id="base"
     pagecolor="#ffffff"
     bordercolor="#666666"
     borderopacity="1.0"
     inkscape:pageopacity="0.0"
     inkscape:pageshadow="2"
     inkscape:zoom="25.84375"
     inkscape:cx="8.9607405"
     inkscape:cy="10.687849"
     inkscape:document-units="px"
     inkscape:current-layer="layer1"
     showgrid="true"
     units="px"
     inkscape:snap-bbox="true"
     inkscape:bbox-paths="true"
     inkscape:bbox-nodes="true"
     inkscape:snap-bbox-edge-midpoints="true"
     inkscape:snap-bbox-midpoints="true"
     inkscape:snap-object-midpoints="true"
     inkscape:snap-center="true"
     inkscape:window-width="1920"
     inkscape:window-height="1016"
     inkscape:window-x="0"
     inkscape:window-y="27"
     inkscape:window-maximized="1"
     inkscape:object-paths="false"
     inkscape:snap-intersection-paths="false"
     inkscape:object-nodes="false"
     inkscape:snap-smooth-nodes="false"
     inkscape:snap-midpoints="false">
    <inkscape:grid
       type="xygrid"
       id="grid3336"
       empspacing="4" />
  </sodipodi:namedview>
  <metadata
     id="metadata7">
    <rdf:RDF>
      <cc:Work
         rdf:about="">
        <dc:format>image/svg+xml</dc:format>
        <dc:type
           rdf:resource="http://purl.org/dc/dcmitype/StillImage" />
        <dc:title></dc:title>
      </cc:Work>
    </rdf:RDF>
  </metadata>
  <g
     inkscape:label="Layer 1"
     inkscape:groupmode="layer"
     id="layer1"
     transform="translate(0,-1036.3622)">
    <path
       style="opacity:1;fill:#ffffff;fill-opacity:1;stroke:none;stroke-width:3;stroke-linecap:round;stroke-linejoin:round;stroke-miterlimit:4;stroke-dasharray:none;stroke-dashoffset:0;stroke-opacity:1"
       d="M 8 1 A 7 7 0 0 0 1 8 A 7 7 0 0 0 8 15 A 7 7 0 0 0 9.2128906 14.892578 L 6.6132812 8.5722656 A 1.50015 1.50015 0 0 1 7.984375 6.5019531 L 7.984375 6.5 A 1.50015 1.50015 0 0 1 8.5703125 6.6113281 L 14.888672 9.2109375 A 7 7 0 0 0 15 8 A 7 7 0 0 0 8 1 z M 10.755859 10.755859 L 11.279297 12.029297 A 1.50015 1.50015 0 0 1 11.759766 11.759766 A 1.50015 1.50015 0 0 1 12.029297 11.28125 L 10.755859 10.755859 z "
       transform="translate(0,1036.3622)"
       id="path4137" />
    <path
       style="opacity:1;fill:#ff8484;fill-opacity:1;stroke:none;stroke-width:3;stroke-linecap:round;stroke-linejoin:round;stroke-miterlimit:4;stroke-dasharray:none;stroke-dashoffset:0;stroke-opacity:1"
       d="M 8 3 A 5.0000172 5.0000172 0 0 0 3 8 A 5.0000172 5.0000172 0 0 0 8 13 A 5.0000172 5.0000172 0 0 0 8.4257812 12.978516 L 6.6132812 8.5722656 A 1.50015 1.50015 0 0 1 7.984375 6.5019531 L 7.984375 6.5 A 1.50015 1.50015 0 0 1 8.5703125 6.6113281 L 12.978516 8.4238281 A 5.0000172 5.0000172 0 0 0 13 8 A 5.0000172 5.0000172 0 0 0 8 3 z M 10.755859 10.755859 L 11.199219 11.835938 A 5.0000172 5.0000172 0 0 0 11.837891 11.203125 L 10.755859 10.755859 z "
       transform="translate(0,1036.3622)"
       id="circle4156" />
    <path
       style="opacity:1;fill:#e0e0e0;fill-opacity:1;stroke:none;stroke-width:1;stroke-linecap:round;stroke-linejoin:round;stroke-miterlimit:4;stroke-dasharray:none;stroke-dashoffset:0;stroke-opacity:1"
       d="m 16,1047.6532 -8,-3.291 3.290998,8 0.947104,-2.8201 1.8836,1.8835 0.941801,-0.9418 -1.8836,-1.8835 z"
       id="rect4163"
       inkscape:connector-curvature="0"
       sodipodi:nodetypes="cccccccc" />
  </g>
</svg>
