<?xml version="1.0" encoding="UTF-8" standalone="no"?>
<!-- Created with Inkscape (http://www.inkscape.org/) -->

<svg
   xmlns:dc="http://purl.org/dc/elements/1.1/"
   xmlns:cc="http://creativecommons.org/ns#"
   xmlns:rdf="http://www.w3.org/1999/02/22-rdf-syntax-ns#"
   xmlns:svg="http://www.w3.org/2000/svg"
   xmlns="http://www.w3.org/2000/svg"
   xmlns:sodipodi="http://sodipodi.sourceforge.net/DTD/sodipodi-0.dtd"
   xmlns:inkscape="http://www.inkscape.org/namespaces/inkscape"
   width="16"
   height="16"
   viewBox="0 0 16 16"
   id="svg2"
   version="1.1"
   inkscape:version="0.91 r13725"
   inkscape:export-filename="/home/djrm/Projects/godot/tools/editor/icons/icon_dependency_changed_hl.png"
   inkscape:export-xdpi="45"
   inkscape:export-ydpi="45"
   sodipodi:docname="icon_snap.svg">
  <defs
     id="defs4" />
  <sodipodi:namedview
     id="base"
     pagecolor="#ffffff"
     bordercolor="#666666"
     borderopacity="1.0"
     inkscape:pageopacity="0.0"
     inkscape:pageshadow="2"
     inkscape:zoom="30.700696"
     inkscape:cx="3.5856659"
     inkscape:cy="9.0785551"
     inkscape:document-units="px"
     inkscape:current-layer="layer1"
     showgrid="true"
     units="px"
     inkscape:snap-bbox="true"
     inkscape:bbox-paths="true"
     inkscape:bbox-nodes="true"
     inkscape:snap-bbox-edge-midpoints="true"
     inkscape:snap-bbox-midpoints="false"
     inkscape:snap-object-midpoints="true"
     inkscape:snap-center="true"
     inkscape:window-width="1920"
     inkscape:window-height="1016"
     inkscape:window-x="0"
     inkscape:window-y="27"
     inkscape:window-maximized="1"
     showguides="false">
    <inkscape:grid
       type="xygrid"
       id="grid3336" />
  </sodipodi:namedview>
  <metadata
     id="metadata7">
    <rdf:RDF>
      <cc:Work
         rdf:about="">
        <dc:format>image/svg+xml</dc:format>
        <dc:type
           rdf:resource="http://purl.org/dc/dcmitype/StillImage" />
        <dc:title />
      </cc:Work>
    </rdf:RDF>
  </metadata>
  <g
     inkscape:label="Layer 1"
     inkscape:groupmode="layer"
     id="layer1"
     transform="translate(0,-1036.3622)">
    <path
       style="fill:#f3f3f3;fill-opacity:1;stroke:none;stroke-width:2;stroke-miterlimit:4;stroke-dasharray:none;stroke-opacity:1"
       d="m 3,1036.3622 0,3 -3,0 0,2 3,0 0,4 -3,0 0,2 3,0 0,3 2,0 0,-3 0,-2 0,-4 4,0 2,0 3,0 0,-2 -3,0 0,-3 -2,0 0,3 -4,0 0,-3 -2,0 z"
       id="rect4139"
       inkscape:connector-curvature="0" />
    <path
       style="fill:#ff8484;fill-opacity:1;stroke:none;stroke-width:2;stroke-miterlimit:4;stroke-dasharray:none;stroke-opacity:1"
       d="m 11,1043.3622 a 4,4 0 0 0 -4,4 l 2,0 a 2.0000174,2.0000174 0 0 1 2,-2 2.0000174,2.0000174 0 0 1 2,2 l 2,0 a 4,4 0 0 0 -4,-4 z"
       id="path4151"
       inkscape:connector-curvature="0" />
    <rect
       style="fill:#ff8484;fill-opacity:1;stroke:none;stroke-width:2;stroke-miterlimit:4;stroke-dasharray:none;stroke-opacity:1"
       id="rect4155"
       width="2"
       height="2"
       x="7"
       y="1047.3622" />
    <rect
       y="1047.3622"
       x="13"
       height="2"
       width="2"
       id="rect4157"
       style="fill:#ff8484;fill-opacity:1;stroke:none;stroke-width:2;stroke-miterlimit:4;stroke-dasharray:none;stroke-opacity:1" />
    <rect
       y="1049.3622"
       x="7"
       height="2.0000174"
       width="2"
       id="rect4161"
       style="opacity:1;fill:#ffffff;fill-opacity:1;stroke:none;stroke-width:3;stroke-linecap:round;stroke-linejoin:round;stroke-miterlimit:4;stroke-dasharray:none;stroke-dashoffset:0;stroke-opacity:1" />
    <rect
       style="opacity:1;fill:#ffffff;fill-opacity:1;stroke:none;stroke-width:3;stroke-linecap:round;stroke-linejoin:round;stroke-miterlimit:4;stroke-dasharray:none;stroke-dashoffset:0;stroke-opacity:1"
       id="rect4163"
       width="2"
       height="2.0000174"
       x="13"
       y="1049.3622" />
  </g>
</svg>
