<?xml version="1.0" encoding="UTF-8" standalone="no"?>
<!-- Created with Inkscape (http://www.inkscape.org/) -->

<svg
   xmlns:dc="http://purl.org/dc/elements/1.1/"
   xmlns:cc="http://creativecommons.org/ns#"
   xmlns:rdf="http://www.w3.org/1999/02/22-rdf-syntax-ns#"
   xmlns:svg="http://www.w3.org/2000/svg"
   xmlns="http://www.w3.org/2000/svg"
   xmlns:sodipodi="http://sodipodi.sourceforge.net/DTD/sodipodi-0.dtd"
   xmlns:inkscape="http://www.inkscape.org/namespaces/inkscape"
   width="64"
   height="32"
   viewBox="0 0 64 31.999998"
   id="svg2"
   version="1.1"
   inkscape:version="0.92+devel unknown"
   sodipodi:docname="icon_GUI_toggle_on.svg"
   inkscape:export-filename="/mnt/2TB/Development/godot_dev/editor/icons/2x/icon_hslider_bg.png"
   inkscape:export-xdpi="96"
   inkscape:export-ydpi="96">
  <defs
     id="defs4" />
  <sodipodi:namedview
     id="base"
     pagecolor="#ffffff"
     bordercolor="#666666"
     borderopacity="1.0"
     inkscape:pageopacity="0.0"
     inkscape:pageshadow="2"
     inkscape:zoom="8"
     inkscape:cx="32.275235"
     inkscape:cy="18.558884"
     inkscape:document-units="px"
     inkscape:current-layer="layer1"
     showgrid="true"
     units="px"
     inkscape:object-paths="false"
     inkscape:snap-intersection-paths="false"
     inkscape:snap-bbox="true"
     inkscape:bbox-paths="true"
     inkscape:bbox-nodes="true"
     inkscape:snap-bbox-edge-midpoints="true"
     inkscape:window-width="1920"
     inkscape:window-height="1016"
     inkscape:window-x="0"
     inkscape:window-y="27"
     inkscape:window-maximized="1"
     inkscape:snap-smooth-nodes="true"
     inkscape:object-nodes="true"
     inkscape:document-rotation="0">
    <inkscape:grid
       type="xygrid"
       id="grid4136"
       empspacing="4" />
  </sodipodi:namedview>
  <metadata
     id="metadata7">
    <rdf:RDF>
      <cc:Work
         rdf:about="">
        <dc:format>image/svg+xml</dc:format>
        <dc:type
           rdf:resource="http://purl.org/dc/dcmitype/StillImage" />
        <dc:title />
      </cc:Work>
    </rdf:RDF>
  </metadata>
  <g
     inkscape:label="Layer 1"
     inkscape:groupmode="layer"
     id="layer1"
     transform="translate(0,-1020.3623)">
    <path
       style="color:#000000;font-style:normal;font-variant:normal;font-weight:normal;font-stretch:normal;font-size:medium;line-height:normal;font-family:sans-serif;font-variant-ligatures:normal;font-variant-position:normal;font-variant-caps:normal;font-variant-numeric:normal;font-variant-alternates:normal;font-variant-east-asian:normal;font-feature-settings:normal;text-indent:0;text-align:start;text-decoration:none;text-decoration-line:none;text-decoration-style:solid;text-decoration-color:#000000;letter-spacing:normal;word-spacing:normal;text-transform:none;writing-mode:lr-tb;direction:ltr;text-orientation:mixed;dominant-baseline:auto;baseline-shift:baseline;text-anchor:start;white-space:normal;shape-padding:0;clip-rule:nonzero;display:inline;overflow:visible;visibility:visible;opacity:1;isolation:auto;mix-blend-mode:normal;color-interpolation:sRGB;color-interpolation-filters:linearRGB;solid-color:#000000;solid-opacity:1;vector-effect:none;fill:#e0e0e0;fill-opacity:0.78431374;fill-rule:nonzero;stroke:none;stroke-width:2;stroke-linecap:round;stroke-linejoin:round;stroke-miterlimit:4;stroke-dasharray:none;stroke-dashoffset:0;stroke-opacity:1;color-rendering:auto;image-rendering:auto;shape-rendering:auto;text-rendering:auto;enable-background:accumulate"
       d="M 24 4.0019531 C 17.3693 4.0019531 12 9.3673469 12 15.998047 C 12 22.628747 17.3693 27.998047 24 27.998047 L 40 27.998047 C 46.6307 27.998047 52 22.628747 52 15.998047 C 52 9.3673469 46.6307 4.0019531 40 4.0019531 L 24 4.0019531 z M 41 10.998047 A 1 1 0 0 1 42 11.998047 L 42 19.998047 A 1.0001 1.0001 0 0 1 40.248047 20.660156 L 35 14.660156 L 35 19.998047 A 1 1 0 0 1 34 20.998047 A 1 1 0 0 1 33 19.998047 L 33 11.998047 A 1.0001 1.0001 0 0 1 34.751953 11.339844 L 40 17.339844 L 40 11.998047 A 1 1 0 0 1 41 10.998047 z M 26 11.001953 C 28.749579 11.001953 31 13.252353 31 16.001953 C 31 18.751553 28.749579 21.001953 26 21.001953 C 23.250421 21.001953 21 18.751553 21 16.001953 C 21 13.252353 23.250421 11.001953 26 11.001953 z M 26 13.001953 C 24.331301 13.001953 23 14.333253 23 16.001953 C 23 17.670653 24.331301 19.001953 26 19.001953 C 27.668699 19.001953 29 17.670653 29 16.001953 C 29 14.333253 27.668699 13.001953 26 13.001953 z "
       transform="translate(0,1020.3623)"
       id="path4272" />
  </g>
</svg>
