<?xml version="1.0" encoding="UTF-8" standalone="no"?>
<!-- Created with Inkscape (http://www.inkscape.org/) -->

<svg
   xmlns:dc="http://purl.org/dc/elements/1.1/"
   xmlns:cc="http://creativecommons.org/ns#"
   xmlns:rdf="http://www.w3.org/1999/02/22-rdf-syntax-ns#"
   xmlns:svg="http://www.w3.org/2000/svg"
   xmlns="http://www.w3.org/2000/svg"
   xmlns:sodipodi="http://sodipodi.sourceforge.net/DTD/sodipodi-0.dtd"
   xmlns:inkscape="http://www.inkscape.org/namespaces/inkscape"
   width="16"
   height="16"
   viewBox="0 0 16 16"
   id="svg2"
   version="1.1"
   inkscape:version="0.91 r13725"
   inkscape:export-filename="/home/djrm/Projects/godot/tools/editor/icons/icon_animated_sprite.png"
   inkscape:export-xdpi="90"
   inkscape:export-ydpi="90"
   sodipodi:docname="icon_rigid_body.svg">
  <defs
     id="defs4" />
  <sodipodi:namedview
     id="base"
     pagecolor="#ffffff"
     bordercolor="#666666"
     borderopacity="1.0"
     inkscape:pageopacity="0.0"
     inkscape:pageshadow="2"
     inkscape:zoom="16"
     inkscape:cx="5.8981998"
     inkscape:cy="3.2693775"
     inkscape:document-units="px"
     inkscape:current-layer="layer1"
     showgrid="true"
     units="px"
     inkscape:snap-bbox="true"
     inkscape:bbox-paths="true"
     inkscape:bbox-nodes="true"
     inkscape:snap-bbox-edge-midpoints="true"
     inkscape:snap-bbox-midpoints="true"
     inkscape:snap-object-midpoints="true"
     inkscape:snap-center="true"
     inkscape:window-width="1920"
     inkscape:window-height="1016"
     inkscape:window-x="0"
     inkscape:window-y="27"
     inkscape:window-maximized="1"
     inkscape:object-paths="false"
     inkscape:snap-intersection-paths="false"
     inkscape:object-nodes="false"
     inkscape:snap-smooth-nodes="false">
    <inkscape:grid
       type="xygrid"
       id="grid3336" />
  </sodipodi:namedview>
  <metadata
     id="metadata7">
    <rdf:RDF>
      <cc:Work
         rdf:about="">
        <dc:format>image/svg+xml</dc:format>
        <dc:type
           rdf:resource="http://purl.org/dc/dcmitype/StillImage" />
        <dc:title></dc:title>
      </cc:Work>
    </rdf:RDF>
  </metadata>
  <g
     inkscape:label="Layer 1"
     inkscape:groupmode="layer"
     id="layer1"
     transform="translate(0,-1036.3622)">
    <path
       style="opacity:1;fill:#fc9c9c;fill-opacity:0.99607843;stroke:none;stroke-width:2;stroke-linecap:butt;stroke-linejoin:bevel;stroke-miterlimit:4;stroke-dasharray:none;stroke-dashoffset:0;stroke-opacity:1"
       d="M 8 1 A 7 7 0 0 0 1 8 A 7 7 0 0 0 1.0351562 8.6992188 A 7 7 0 0 0 1.3125 10.068359 A 7 7 0 0 0 2.2226562 11.953125 A 7 7 0 0 0 2.5253906 12.361328 C 2.5261756 12.358768 2.5265573 12.356076 2.5273438 12.353516 A 7 7 0 0 0 8 15 A 7 7 0 0 0 11.242188 14.197266 C 11.243563 14.197659 11.244719 14.198826 11.246094 14.199219 A 7 7 0 0 0 11.28125 14.177734 A 7 7 0 0 0 11.707031 13.927734 A 7 7 0 0 0 11.876953 13.824219 A 7 7 0 0 0 12.246094 13.554688 A 7 7 0 0 0 12.451172 13.398438 A 7 7 0 0 0 12.792969 13.089844 A 7 7 0 0 0 12.957031 12.935547 A 7 7 0 0 0 13.287109 12.574219 A 7 7 0 0 0 13.427734 12.414062 A 7 7 0 0 0 13.705078 12.041016 A 7 7 0 0 0 13.84375 11.845703 A 7 7 0 0 0 14.0625 11.484375 A 7 7 0 0 0 14.205078 11.234375 A 7 7 0 0 0 14.361328 10.900391 A 7 7 0 0 0 14.5 10.589844 A 7 7 0 0 0 14.607422 10.28125 A 7 7 0 0 0 14.726562 9.9277344 A 7 7 0 0 0 14.814453 9.5585938 A 7 7 0 0 0 14.880859 9.265625 A 7 7 0 0 0 14.9375 8.8652344 A 7 7 0 0 0 14.974609 8.5527344 A 7 7 0 0 0 15 8 A 7 7 0 0 0 10.615234 1.5117188 A 7 7 0 0 0 10.607422 1.5078125 A 7 7 0 0 0 10.605469 1.5078125 A 7 7 0 0 0 9.9902344 1.2949219 A 7 7 0 0 0 9.9453125 1.2792969 A 7 7 0 0 0 9.9394531 1.2773438 A 7 7 0 0 0 9.3886719 1.1464844 A 7 7 0 0 0 9.2480469 1.1152344 A 7 7 0 0 0 8.6972656 1.0429688 A 7 7 0 0 0 8.5546875 1.0253906 A 7 7 0 0 0 8 1 z M 9.9511719 2.3339844 A 6 6 0 0 1 14 8 L 7 8 A 1.9999826 1.9999826 0 0 1 6.0507812 9.6992188 C 7.3958011 11.726012 8.6521082 12.963726 9.9472656 13.667969 A 6 6 0 0 1 8 14 A 6 6 0 0 1 2.9453125 11.230469 C 3.1830255 10.651966 3.4486773 10.090161 3.7714844 9.5742188 A 1.9999826 1.9999826 0 0 1 3 8 L 2 8 A 6 6 0 0 1 3.1230469 4.5136719 C 3.2693647 5.1646014 3.4808033 5.7970038 3.8066406 6.3984375 A 1.9999826 1.9999826 0 0 1 5 6 A 1.9999826 1.9999826 0 0 1 6.0507812 6.3007812 C 7.397198 4.2718995 8.6545329 3.0376638 9.9511719 2.3339844 z "
       transform="translate(0,1036.3622)"
       id="circle4189" />
    <circle
       style="opacity:1;fill:#fc9c9c;fill-opacity:0.99607843;stroke:none;stroke-width:2;stroke-linecap:butt;stroke-linejoin:bevel;stroke-miterlimit:4;stroke-dasharray:none;stroke-dashoffset:0;stroke-opacity:1"
       id="path4195"
       cx="5"
       cy="1044.3622"
       r="2" />
  </g>
</svg>
