<?xml version="1.0" encoding="UTF-8" standalone="no"?>
<!-- Created with Inkscape (http://www.inkscape.org/) -->

<svg
   xmlns:dc="http://purl.org/dc/elements/1.1/"
   xmlns:cc="http://creativecommons.org/ns#"
   xmlns:rdf="http://www.w3.org/1999/02/22-rdf-syntax-ns#"
   xmlns:svg="http://www.w3.org/2000/svg"
   xmlns="http://www.w3.org/2000/svg"
   xmlns:sodipodi="http://sodipodi.sourceforge.net/DTD/sodipodi-0.dtd"
   xmlns:inkscape="http://www.inkscape.org/namespaces/inkscape"
   width="16"
   height="16"
   viewBox="0 0 16 16"
   id="svg2"
   version="1.1"
   inkscape:version="0.91 r13725"
   inkscape:export-filename="/home/djrm/Projects/godot/tools/editor/icons/icon_animated_sprite.png"
   inkscape:export-xdpi="90"
   inkscape:export-ydpi="90"
   sodipodi:docname="icon_rigid_body_2d.svg">
  <defs
     id="defs4" />
  <sodipodi:namedview
     id="base"
     pagecolor="#ffffff"
     bordercolor="#666666"
     borderopacity="1.0"
     inkscape:pageopacity="0.0"
     inkscape:pageshadow="2"
     inkscape:zoom="32"
     inkscape:cx="6.941452"
     inkscape:cy="2.9508684"
     inkscape:document-units="px"
     inkscape:current-layer="layer1"
     showgrid="true"
     units="px"
     inkscape:snap-bbox="true"
     inkscape:bbox-paths="true"
     inkscape:bbox-nodes="true"
     inkscape:snap-bbox-edge-midpoints="true"
     inkscape:snap-bbox-midpoints="true"
     inkscape:snap-object-midpoints="true"
     inkscape:snap-center="true"
     inkscape:window-width="1920"
     inkscape:window-height="1016"
     inkscape:window-x="0"
     inkscape:window-y="27"
     inkscape:window-maximized="1"
     inkscape:object-paths="false"
     inkscape:snap-intersection-paths="false"
     inkscape:object-nodes="false"
     inkscape:snap-smooth-nodes="false">
    <inkscape:grid
       type="xygrid"
       id="grid3336" />
  </sodipodi:namedview>
  <metadata
     id="metadata7">
    <rdf:RDF>
      <cc:Work
         rdf:about="">
        <dc:format>image/svg+xml</dc:format>
        <dc:type
           rdf:resource="http://purl.org/dc/dcmitype/StillImage" />
        <dc:title></dc:title>
      </cc:Work>
    </rdf:RDF>
  </metadata>
  <g
     inkscape:label="Layer 1"
     inkscape:groupmode="layer"
     id="layer1"
     transform="translate(0,-1036.3622)">
    <path
       style="opacity:1;fill:#a5b7f1;fill-opacity:0.98823529;stroke:none;stroke-width:2;stroke-linecap:butt;stroke-linejoin:bevel;stroke-miterlimit:4;stroke-dasharray:none;stroke-dashoffset:0;stroke-opacity:1"
       d="m 8,1037.3622 a 7,7 0 0 0 -7,7 7,7 0 0 0 7,7 7,7 0 0 0 7,-7 7,7 0 0 0 -7,-7 z m 0,1 a 6,6 0 0 1 6,6 6,6 0 0 1 -6,6 6,6 0 0 1 -6,-6 6,6 0 0 1 6,-6 z"
       id="circle4189"
       inkscape:connector-curvature="0" />
    <path
       style="opacity:1;fill:#a5b7f1;fill-opacity:0.98823529;stroke:none;stroke-width:2;stroke-linecap:butt;stroke-linejoin:bevel;stroke-miterlimit:4;stroke-dasharray:none;stroke-dashoffset:0;stroke-opacity:1"
       d="m 8,1037.3622 a 7,7 0 0 0 -5.087891,2.2051 c 0.104949,1.1207 0.354173,2.1959 0.894532,3.1933 A 1.9999826,1.9999826 0 0 1 5,1042.3622 a 1.9999826,1.9999826 0 0 1 1.050781,0.3008 c 1.787275,-2.6932 3.418131,-3.9904 5.191407,-4.4981 A 7,7 0 0 0 8,1037.3622 Z m -7,7 a 7,7 0 0 0 1.525391,4.3613 c 0.302809,-0.9877 0.71628,-1.9403 1.246093,-2.7871 A 1.9999826,1.9999826 0 0 1 3,1044.3622 l -2,0 z m 6,0 a 1.9999826,1.9999826 0 0 1 -0.949219,1.6992 c 1.788654,2.6953 3.420447,3.9932 5.195313,4.5 A 7,7 0 0 0 15,1044.3622 l -8,0 z"
       id="path4174"
       inkscape:connector-curvature="0" />
    <circle
       style="opacity:1;fill:#a5b7f2;fill-opacity:0.98823529;stroke:none;stroke-width:2;stroke-linecap:butt;stroke-linejoin:bevel;stroke-miterlimit:4;stroke-dasharray:none;stroke-dashoffset:0;stroke-opacity:1"
       id="path4195"
       cx="5"
       cy="1044.3622"
       r="2" />
    <path
       style="opacity:1;fill:#a5b7f2;fill-opacity:0.98823529;stroke:none;stroke-width:2;stroke-linecap:butt;stroke-linejoin:bevel;stroke-miterlimit:4;stroke-dasharray:none;stroke-dashoffset:0;stroke-opacity:1"
       d="m 45,1037.3585 a 7,7 0 0 0 -7,7 7,7 0 0 0 7,7 7,7 0 0 0 7,-7 7,7 0 0 0 -7,-7 z m 0,1 a 6.0000172,6.0000172 0 0 1 6,6 6.0000172,6.0000172 0 0 1 -6,6 6.0000172,6.0000172 0 0 1 -6,-6 6.0000172,6.0000172 0 0 1 6,-6 z"
       id="path4199"
       inkscape:connector-curvature="0" />
    <path
       style="fill:#a5b7f3;fill-opacity:0.98823529;fill-rule:evenodd;stroke:none;stroke-width:1px;stroke-linecap:butt;stroke-linejoin:miter;stroke-opacity:1"
       d="m 38,1044.3585 c 5,0.01 9,0.01 14,0 -2,-2.9934 -5,-4 -7,-4 -2,0 -5,1.0066 -7,4 z"
       id="path4204"
       inkscape:connector-curvature="0"
       sodipodi:nodetypes="ccsc" />
    <path
       style="opacity:1;fill:#a3b6f2;fill-opacity:1;stroke:none;stroke-width:2;stroke-linecap:butt;stroke-linejoin:bevel;stroke-miterlimit:4;stroke-dasharray:none;stroke-dashoffset:0;stroke-opacity:1"
       d="m 38,1044.3585 c 0,3.866 3.134007,7 7,7 3.865993,0 7,-3.134 7,-7 -2,2.9933 -5,4 -7,4 -2,0 -5,-1.0067 -7,-4 z"
       id="path4224"
       inkscape:connector-curvature="0" />
    <path
       style="opacity:1;fill:#a3b6f2;fill-opacity:1;stroke:none;stroke-width:2;stroke-linecap:butt;stroke-linejoin:bevel;stroke-miterlimit:4;stroke-dasharray:none;stroke-dashoffset:0;stroke-opacity:1"
       d="m -9,1037.3622 a 7,7 0 0 0 -7,7 7,7 0 0 0 7,7 7,7 0 0 0 7,-7 7,7 0 0 0 -7,-7 z m 0,1 a 6,6 0 0 1 6,6 6,6 0 0 1 -6,6 6,6 0 0 1 -6,-6 6,6 0 0 1 6,-6 z"
       id="path4230"
       inkscape:connector-curvature="0" />
    <circle
       style="opacity:1;fill:#a3b6f2;fill-opacity:1;stroke:none;stroke-width:2;stroke-linecap:butt;stroke-linejoin:bevel;stroke-miterlimit:4;stroke-dasharray:none;stroke-dashoffset:0;stroke-opacity:1"
       id="path4235"
       cx="-9"
       cy="1044.3622"
       r="2" />
    <path
       style="opacity:1;fill:#a3b6f2;fill-opacity:1;stroke:none;stroke-width:2;stroke-linecap:butt;stroke-linejoin:bevel;stroke-miterlimit:4;stroke-dasharray:none;stroke-dashoffset:0;stroke-opacity:1"
       d="m -9,1037.3622 a 7,7 0 0 0 -3.5,0.9375 l 3.5,6.0625 3.5,-6.0625 a 7,7 0 0 0 -3.5,-0.9375 z m 0,7 3.5,6.0625 a 7,7 0 0 0 2.5625,-2.5625 7,7 0 0 0 0.9375,-3.5 l -7,0 z m 0,0 -7,0 a 7,7 0 0 0 0.9375,3.5 7,7 0 0 0 2.5625,2.5625 l 3.5,-6.0625 z"
       id="path4237"
       inkscape:connector-curvature="0" />
  </g>
</svg>
