<?xml version="1.0" encoding="UTF-8" standalone="no"?>
<!-- Created with Inkscape (http://www.inkscape.org/) -->

<svg
   xmlns:dc="http://purl.org/dc/elements/1.1/"
   xmlns:cc="http://creativecommons.org/ns#"
   xmlns:rdf="http://www.w3.org/1999/02/22-rdf-syntax-ns#"
   xmlns:svg="http://www.w3.org/2000/svg"
   xmlns="http://www.w3.org/2000/svg"
   xmlns:sodipodi="http://sodipodi.sourceforge.net/DTD/sodipodi-0.dtd"
   xmlns:inkscape="http://www.inkscape.org/namespaces/inkscape"
   width="16"
   height="16"
   viewBox="0 0 16 16"
   id="svg2"
   version="1.1"
   inkscape:version="0.92.1 r"
   inkscape:export-filename="/home/djrm/Projects/godot/tools/editor/icons/icon_add_track.png"
   inkscape:export-xdpi="45"
   inkscape:export-ydpi="45"
   sodipodi:docname="icon_asset_lib.svg">
  <defs
     id="defs4" />
  <sodipodi:namedview
     id="base"
     pagecolor="#ffffff"
     bordercolor="#666666"
     borderopacity="1.0"
     inkscape:pageopacity="0.0"
     inkscape:pageshadow="2"
     inkscape:zoom="45.254835"
     inkscape:cx="8.3739682"
     inkscape:cy="8.9121875"
     inkscape:document-units="px"
     inkscape:current-layer="layer1"
     showgrid="true"
     units="px"
     inkscape:snap-bbox="true"
     inkscape:bbox-paths="true"
     inkscape:bbox-nodes="true"
     inkscape:snap-bbox-edge-midpoints="true"
     inkscape:snap-bbox-midpoints="false"
     inkscape:snap-object-midpoints="true"
     inkscape:snap-center="true"
     inkscape:window-width="1600"
     inkscape:window-height="836"
     inkscape:window-x="0"
     inkscape:window-y="27"
     inkscape:window-maximized="1"
     inkscape:snap-midpoints="true"
     inkscape:snap-smooth-nodes="true"
     inkscape:object-nodes="true">
    <inkscape:grid
       type="xygrid"
       id="grid3336" />
  </sodipodi:namedview>
  <metadata
     id="metadata7">
    <rdf:RDF>
      <cc:Work
         rdf:about="">
        <dc:format>image/svg+xml</dc:format>
        <dc:type
           rdf:resource="http://purl.org/dc/dcmitype/StillImage" />
        <dc:title></dc:title>
      </cc:Work>
    </rdf:RDF>
  </metadata>
  <g
     inkscape:label="Layer 1"
     inkscape:groupmode="layer"
     id="layer1"
     transform="translate(0,-1036.3622)">
    <path
       style="fill:#e0e0e0;fill-opacity:1;stroke:none;stroke-width:1.87082875;stroke-linejoin:round;stroke-miterlimit:4;stroke-dasharray:none;stroke-opacity:1"
       d="M 8 1 A 3 3 0 0 0 5 4 L 5 6 L 1 6 L 1 10 L 1 13 C 1 14.10801 1.8919904 15 3 15 L 13 15 C 14.10801 15 15 14.10801 15 13 L 15 10 L 15 6 L 11 6 L 11 4 A 3 3 0 0 0 8 1 z M 8 2 A 2 2 0 0 0 7.84375 2.0078125 A 2.0000174 2.0000174 0 0 1 8 2 z M 8.15625 2.0078125 A 2.0000174 2.0000174 0 0 1 8.296875 2.0234375 A 2 2 0 0 0 8.15625 2.0078125 z M 7.703125 2.0234375 A 2 2 0 0 0 7.640625 2.0332031 A 2.0000174 2.0000174 0 0 1 7.703125 2.0234375 z M 8.359375 2.0332031 A 2.0000174 2.0000174 0 0 1 8.4648438 2.0566406 A 2 2 0 0 0 8.359375 2.0332031 z M 7.5351562 2.0566406 A 2 2 0 0 0 7.4296875 2.0839844 A 2.0000174 2.0000174 0 0 1 7.5351562 2.0566406 z M 8.5703125 2.0839844 A 2.0000174 2.0000174 0 0 1 8.6621094 2.1152344 A 2 2 0 0 0 8.5703125 2.0839844 z M 7.3378906 2.1152344 A 2 2 0 0 0 7.2558594 2.1464844 A 2.0000174 2.0000174 0 0 1 7.3378906 2.1152344 z M 8.7441406 2.1464844 A 2.0000174 2.0000174 0 0 1 8.8496094 2.1914062 A 2 2 0 0 0 8.7441406 2.1464844 z M 7.1503906 2.1914062 A 2 2 0 0 0 7.0722656 2.2304688 A 2.0000174 2.0000174 0 0 1 7.1503906 2.1914062 z M 8.9277344 2.2304688 A 2.0000174 2.0000174 0 0 1 9.0195312 2.28125 A 2 2 0 0 0 8.9277344 2.2304688 z M 6.9804688 2.28125 A 2 2 0 0 0 6.8886719 2.3378906 A 2.0000174 2.0000174 0 0 1 6.9804688 2.28125 z M 6.8320312 2.3789062 A 2 2 0 0 0 6.7304688 2.4550781 A 2.0000174 2.0000174 0 0 1 6.8320312 2.3789062 z M 9.2695312 2.4550781 A 2.0000174 2.0000174 0 0 1 9.3378906 2.515625 A 2 2 0 0 0 9.2695312 2.4550781 z M 6.6621094 2.515625 A 2 2 0 0 0 6.5859375 2.5859375 A 2.0000174 2.0000174 0 0 1 6.6621094 2.515625 z M 9.4140625 2.5859375 A 2.0000174 2.0000174 0 0 1 9.484375 2.6621094 A 2 2 0 0 0 9.4140625 2.5859375 z M 6.515625 2.6621094 A 2 2 0 0 0 6.4550781 2.7304688 A 2.0000174 2.0000174 0 0 1 6.515625 2.6621094 z M 9.5449219 2.7304688 A 2.0000174 2.0000174 0 0 1 9.6210938 2.8320312 A 2 2 0 0 0 9.5449219 2.7304688 z M 9.6621094 2.8886719 A 2.0000174 2.0000174 0 0 1 9.71875 2.9804688 A 2 2 0 0 0 9.6621094 2.8886719 z M 6.28125 2.9804688 A 2 2 0 0 0 6.2304688 3.0722656 A 2.0000174 2.0000174 0 0 1 6.28125 2.9804688 z M 8 3 A 1 1 0 0 1 9 4 L 9 6 L 7 6 L 7 4 A 1 1 0 0 1 8 3 z M 9.7695312 3.0722656 A 2.0000174 2.0000174 0 0 1 9.8085938 3.1503906 A 2 2 0 0 0 9.7695312 3.0722656 z M 6.1914062 3.1503906 A 2 2 0 0 0 6.1464844 3.2558594 A 2.0000174 2.0000174 0 0 1 6.1914062 3.1503906 z M 9.8535156 3.2558594 A 2.0000174 2.0000174 0 0 1 9.8847656 3.3378906 A 2 2 0 0 0 9.8535156 3.2558594 z M 6.1152344 3.3378906 A 2 2 0 0 0 6.0839844 3.4296875 A 2.0000174 2.0000174 0 0 1 6.1152344 3.3378906 z M 9.9160156 3.4296875 A 2.0000174 2.0000174 0 0 1 9.9433594 3.5351562 A 2 2 0 0 0 9.9160156 3.4296875 z M 6.0566406 3.5351562 A 2 2 0 0 0 6.0332031 3.640625 A 2.0000174 2.0000174 0 0 1 6.0566406 3.5351562 z M 9.9667969 3.640625 A 2.0000174 2.0000174 0 0 1 9.9765625 3.703125 A 2 2 0 0 0 9.9667969 3.640625 z M 6.0234375 3.703125 A 2 2 0 0 0 6.0078125 3.84375 A 2.0000174 2.0000174 0 0 1 6.0234375 3.703125 z M 9.9921875 3.84375 A 2.0000174 2.0000174 0 0 1 10 4 A 2 2 0 0 0 9.9921875 3.84375 z "
       transform="translate(0,1036.3622)"
       id="rect4503" />
  </g>
</svg>
