<?xml version="1.0" encoding="UTF-8" standalone="no"?>
<!-- Created with Inkscape (http://www.inkscape.org/) -->

<svg
   xmlns:dc="http://purl.org/dc/elements/1.1/"
   xmlns:cc="http://creativecommons.org/ns#"
   xmlns:rdf="http://www.w3.org/1999/02/22-rdf-syntax-ns#"
   xmlns:svg="http://www.w3.org/2000/svg"
   xmlns="http://www.w3.org/2000/svg"
   xmlns:sodipodi="http://sodipodi.sourceforge.net/DTD/sodipodi-0.dtd"
   xmlns:inkscape="http://www.inkscape.org/namespaces/inkscape"
   width="16"
   height="16"
   viewBox="0 0 16 16"
   id="svg2"
   version="1.1"
   inkscape:version="0.91 r13725"
   inkscape:export-filename="/home/djrm/Projects/godot/tools/editor/icons/icon_help.png"
   inkscape:export-xdpi="90"
   inkscape:export-ydpi="90"
   sodipodi:docname="icon_help.svg">
  <defs
     id="defs4" />
  <sodipodi:namedview
     id="base"
     pagecolor="#ffffff"
     bordercolor="#666666"
     borderopacity="1.0"
     inkscape:pageopacity="0.0"
     inkscape:pageshadow="2"
     inkscape:zoom="31.999999"
     inkscape:cx="5.4018713"
     inkscape:cy="8.2308388"
     inkscape:document-units="px"
     inkscape:current-layer="layer1"
     showgrid="true"
     units="px"
     inkscape:snap-bbox="true"
     inkscape:bbox-paths="true"
     inkscape:bbox-nodes="true"
     inkscape:snap-bbox-edge-midpoints="true"
     inkscape:snap-bbox-midpoints="true"
     inkscape:snap-object-midpoints="true"
     inkscape:snap-center="true"
     inkscape:window-width="1920"
     inkscape:window-height="1016"
     inkscape:window-x="0"
     inkscape:window-y="27"
     inkscape:window-maximized="1">
    <inkscape:grid
       type="xygrid"
       id="grid3336" />
  </sodipodi:namedview>
  <metadata
     id="metadata7">
    <rdf:RDF>
      <cc:Work
         rdf:about="">
        <dc:format>image/svg+xml</dc:format>
        <dc:type
           rdf:resource="http://purl.org/dc/dcmitype/StillImage" />
        <dc:title></dc:title>
      </cc:Work>
    </rdf:RDF>
  </metadata>
  <g
     inkscape:label="Layer 1"
     inkscape:groupmode="layer"
     id="layer1"
     transform="translate(0,-1036.3622)">
    <path
       style="opacity:1;fill:#f1f1f1;fill-opacity:1;stroke:none;stroke-width:3;stroke-linecap:round;stroke-linejoin:miter;stroke-miterlimit:4;stroke-dasharray:none;stroke-dashoffset:0;stroke-opacity:1"
       d="M 8 1 A 7 7 0 0 0 1 8 A 7 7 0 0 0 8 15 A 7 7 0 0 0 15 8 A 7 7 0 0 0 8 1 z M 8 4 A 4.0000172 4.0000172 0 0 1 12 8 A 4.0000172 4.0000172 0 0 1 8 12 A 4.0000172 4.0000172 0 0 1 4 8 A 4.0000172 4.0000172 0 0 1 8 4 z "
       transform="translate(0,1036.3622)"
       id="circle4160" />
    <path
       style="opacity:1;fill:#ff8484;fill-opacity:1;stroke:none;stroke-width:3;stroke-linecap:round;stroke-linejoin:miter;stroke-miterlimit:4;stroke-dasharray:none;stroke-dashoffset:0;stroke-opacity:1"
       d="m 8,1 0,3 c 1.1045715,-4.8e-6 2.104267,0.4480167 2.828125,1.171875 L 12.949219,3.0507812 C 11.68247,1.7840321 9.9329986,1.0000047 8,1 Z"
       transform="translate(0,1036.3622)"
       id="circle4154"
       inkscape:connector-curvature="0"
       sodipodi:nodetypes="ccccc"
       inkscape:transform-center-x="-2.4746095"
       inkscape:transform-center-y="-4.9140625" />
    <path
       inkscape:transform-center-y="2.4746"
       inkscape:transform-center-x="-4.9140625"
       sodipodi:nodetypes="ccccc"
       inkscape:connector-curvature="0"
       id="path4163"
       d="m 15,1044.3622 -3,0 c 5e-6,1.1046 -0.448017,2.1043 -1.171875,2.8281 l 2.121094,2.1211 c 1.266749,-1.2667 2.050776,-3.0162 2.050781,-4.9492 z"
       style="opacity:1;fill:#ff8484;fill-opacity:1;stroke:none;stroke-width:3;stroke-linecap:round;stroke-linejoin:miter;stroke-miterlimit:4;stroke-dasharray:none;stroke-dashoffset:0;stroke-opacity:1" />
    <path
       style="opacity:1;fill:#ff8484;fill-opacity:1;stroke:none;stroke-width:3;stroke-linecap:round;stroke-linejoin:miter;stroke-miterlimit:4;stroke-dasharray:none;stroke-dashoffset:0;stroke-opacity:1"
       d="m 8,1051.3622 0,-3 c -1.1046,0 -2.1043,-0.448 -2.8281,-1.1719 l -2.1211,2.1211 c 1.2667,1.2668 3.0162,2.0508 4.9492,2.0508 z"
       id="path4165"
       inkscape:connector-curvature="0"
       sodipodi:nodetypes="ccccc"
       inkscape:transform-center-x="2.4746"
       inkscape:transform-center-y="4.91405" />
    <path
       inkscape:transform-center-y="-2.4746"
       inkscape:transform-center-x="4.91405"
       sodipodi:nodetypes="ccccc"
       inkscape:connector-curvature="0"
       id="path4167"
       d="m 1,1044.3622 3,0 c 0,-1.1046 0.448,-2.1043 1.1719,-2.8281 L 3.0508,1039.413 C 1.784,1040.6797 1,1042.4292 1,1044.3622 Z"
       style="opacity:1;fill:#ff8484;fill-opacity:1;stroke:none;stroke-width:3;stroke-linecap:round;stroke-linejoin:miter;stroke-miterlimit:4;stroke-dasharray:none;stroke-dashoffset:0;stroke-opacity:1" />
  </g>
</svg>
