<?xml version="1.0" encoding="UTF-8" standalone="no"?>
<!-- Created with Inkscape (http://www.inkscape.org/) -->

<svg
   xmlns:dc="http://purl.org/dc/elements/1.1/"
   xmlns:cc="http://creativecommons.org/ns#"
   xmlns:rdf="http://www.w3.org/1999/02/22-rdf-syntax-ns#"
   xmlns:svg="http://www.w3.org/2000/svg"
   xmlns="http://www.w3.org/2000/svg"
   xmlns:sodipodi="http://sodipodi.sourceforge.net/DTD/sodipodi-0.dtd"
   xmlns:inkscape="http://www.inkscape.org/namespaces/inkscape"
   width="16"
   height="16"
   viewBox="0 0 16 16"
   id="svg2"
   version="1.1"
   inkscape:version="0.92.1 r"
   inkscape:export-filename="/home/djrm/Projects/godot/tools/editor/icons/icon_collision_shape.png"
   inkscape:export-xdpi="90"
   inkscape:export-ydpi="90"
   sodipodi:docname="icon_bit_map.svg">
  <defs
     id="defs4" />
  <sodipodi:namedview
     id="base"
     pagecolor="#ffffff"
     bordercolor="#666666"
     borderopacity="1.0"
     inkscape:pageopacity="0.0"
     inkscape:pageshadow="2"
     inkscape:zoom="32"
     inkscape:cx="3.664815"
     inkscape:cy="7.867044"
     inkscape:document-units="px"
     inkscape:current-layer="layer1"
     showgrid="true"
     units="px"
     inkscape:snap-bbox="true"
     inkscape:bbox-paths="true"
     inkscape:bbox-nodes="true"
     inkscape:snap-bbox-edge-midpoints="true"
     inkscape:snap-bbox-midpoints="true"
     inkscape:snap-object-midpoints="true"
     inkscape:snap-center="true"
     inkscape:window-width="1600"
     inkscape:window-height="836"
     inkscape:window-x="0"
     inkscape:window-y="27"
     inkscape:window-maximized="1"
     inkscape:object-paths="false"
     inkscape:snap-intersection-paths="false"
     inkscape:object-nodes="true"
     inkscape:snap-smooth-nodes="true"
     inkscape:snap-midpoints="true">
    <inkscape:grid
       type="xygrid"
       id="grid3336" />
  </sodipodi:namedview>
  <metadata
     id="metadata7">
    <rdf:RDF>
      <cc:Work
         rdf:about="">
        <dc:format>image/svg+xml</dc:format>
        <dc:type
           rdf:resource="http://purl.org/dc/dcmitype/StillImage" />
        <dc:title />
      </cc:Work>
    </rdf:RDF>
  </metadata>
  <g
     inkscape:label="Layer 1"
     inkscape:groupmode="layer"
     id="layer1"
     transform="translate(0,-1036.3622)">
    <path
       style="opacity:1;fill:#e0e0e0;fill-opacity:1;stroke:none;stroke-width:2;stroke-linecap:round;stroke-linejoin:round;stroke-miterlimit:4;stroke-dasharray:none;stroke-opacity:1"
       d="M 1 1 L 1 3 L 3 3 L 3 1 L 1 1 z M 3 3 L 3 5 L 5 5 L 5 3 L 3 3 z M 5 3 L 7 3 L 7 1 L 5 1 L 5 3 z M 7 3 L 7 5 L 9 5 L 9 3 L 7 3 z M 9 3 L 11 3 L 11 1 L 9 1 L 9 3 z M 11 3 L 11 5 L 13 5 L 13 3 L 11 3 z M 13 3 L 15 3 L 15 1 L 13 1 L 13 3 z M 13 5 L 13 7 L 15 7 L 15 5 L 13 5 z M 13 7 L 11 7 L 11 9 L 13 9 L 13 7 z M 13 9 L 13 11 L 15 11 L 15 9 L 13 9 z M 13 11 L 11 11 L 11 13 L 13 13 L 13 11 z M 13 13 L 13 15 L 15 15 L 15 13 L 13 13 z M 11 13 L 9 13 L 9 15 L 11 15 L 11 13 z M 9 13 L 9 11 L 7 11 L 7 13 L 9 13 z M 7 13 L 5 13 L 5 15 L 7 15 L 7 13 z M 5 13 L 5 11 L 3 11 L 3 13 L 5 13 z M 3 13 L 1 13 L 1 15 L 3 15 L 3 13 z M 3 11 L 3 9 L 1 9 L 1 11 L 3 11 z M 3 9 L 5 9 L 5 7 L 3 7 L 3 9 z M 3 7 L 3 5 L 1 5 L 1 7 L 3 7 z M 5 7 L 7 7 L 7 5 L 5 5 L 5 7 z M 7 7 L 7 9 L 9 9 L 9 7 L 7 7 z M 9 7 L 11 7 L 11 5 L 9 5 L 9 7 z M 9 9 L 9 11 L 11 11 L 11 9 L 9 9 z M 7 9 L 5 9 L 5 11 L 7 11 L 7 9 z "
       id="rect4170"
       transform="translate(0,1036.3622)" />
  </g>
</svg>
