<?xml version="1.0" encoding="UTF-8" standalone="no"?>
<!-- Created with Inkscape (http://www.inkscape.org/) -->

<svg
   xmlns:dc="http://purl.org/dc/elements/1.1/"
   xmlns:cc="http://creativecommons.org/ns#"
   xmlns:rdf="http://www.w3.org/1999/02/22-rdf-syntax-ns#"
   xmlns:svg="http://www.w3.org/2000/svg"
   xmlns="http://www.w3.org/2000/svg"
   xmlns:xlink="http://www.w3.org/1999/xlink"
   xmlns:sodipodi="http://sodipodi.sourceforge.net/DTD/sodipodi-0.dtd"
   xmlns:inkscape="http://www.inkscape.org/namespaces/inkscape"
   width="16"
   height="128"
   viewBox="0 0 16 128"
   id="svg2"
   version="1.1"
   inkscape:version="0.92.1 r"
   inkscape:export-filename="/home/djrm/Projects/godot/tools/editor/icons/icon_vu_empty.png"
   inkscape:export-xdpi="90"
   inkscape:export-ydpi="90"
   sodipodi:docname="icon_bus_vu_full.svg">
  <defs
     id="defs4">
    <linearGradient
       id="linearGradient959"
       inkscape:collect="always">
      <stop
         style="stop-color:#ff8484;stop-opacity:1"
         offset="0"
         id="stop957" />
      <stop
         id="stop955"
         offset="0.5"
         style="stop-color:#e1dc7a;stop-opacity:1" />
      <stop
         style="stop-color:#84ffb1;stop-opacity:1"
         offset="1"
         id="stop953" />
    </linearGradient>
    <linearGradient
       inkscape:collect="always"
       xlink:href="#linearGradient959"
       id="linearGradient951"
       x1="8"
       y1="2"
       x2="8"
       y2="126"
       gradientUnits="userSpaceOnUse" />
  </defs>
  <sodipodi:namedview
     id="base"
     pagecolor="#ffffff"
     bordercolor="#666666"
     borderopacity="1.0"
     inkscape:pageopacity="0.0"
     inkscape:pageshadow="2"
     inkscape:zoom="5.6568543"
     inkscape:cx="1.8206711"
     inkscape:cy="73.901674"
     inkscape:document-units="px"
     inkscape:current-layer="layer1"
     showgrid="true"
     units="px"
     inkscape:snap-bbox="true"
     inkscape:bbox-paths="true"
     inkscape:bbox-nodes="true"
     inkscape:snap-bbox-edge-midpoints="true"
     inkscape:snap-bbox-midpoints="true"
     inkscape:snap-object-midpoints="true"
     inkscape:snap-center="true"
     inkscape:window-width="1600"
     inkscape:window-height="836"
     inkscape:window-x="0"
     inkscape:window-y="27"
     inkscape:window-maximized="1"
     inkscape:object-paths="false"
     inkscape:snap-intersection-paths="false"
     inkscape:object-nodes="false"
     inkscape:snap-smooth-nodes="false"
     inkscape:snap-midpoints="false">
    <inkscape:grid
       type="xygrid"
       id="grid3336"
       empspacing="4" />
  </sodipodi:namedview>
  <metadata
     id="metadata7">
    <rdf:RDF>
      <cc:Work
         rdf:about="">
        <dc:format>image/svg+xml</dc:format>
        <dc:type
           rdf:resource="http://purl.org/dc/dcmitype/StillImage" />
        <dc:title></dc:title>
      </cc:Work>
    </rdf:RDF>
  </metadata>
  <g
     inkscape:label="Layer 1"
     inkscape:groupmode="layer"
     id="layer1"
     transform="translate(0,-924.3622)">
    <path
       style="fill:url(#linearGradient951);fill-opacity:1;stroke:none;stroke-width:1.28571427;stroke-linecap:butt;stroke-linejoin:round;stroke-miterlimit:4;stroke-dasharray:none;stroke-opacity:1"
       d="M 3 2 C 2.4459952 2 2 2.4459952 2 3 C 2 3.5540048 2.4459952 4 3 4 L 13 4 C 13.554005 4 14 3.5540048 14 3 C 14 2.4459952 13.554005 2 13 2 L 3 2 z M 3 5 C 2.4459952 5 2 5.4459952 2 6 C 2 6.5540048 2.4459952 7 3 7 L 13 7 C 13.554005 7 14 6.5540048 14 6 C 14 5.4459952 13.554005 5 13 5 L 3 5 z M 3 8 C 2.4459952 8 2 8.4459952 2 9 C 2 9.5540048 2.4459952 10 3 10 L 13 10 C 13.554005 10 14 9.5540048 14 9 C 14 8.4459952 13.554005 8 13 8 L 3 8 z M 3 11 C 2.4459952 11 2 11.445995 2 12 C 2 12.554005 2.4459952 13 3 13 L 13 13 C 13.554005 13 14 12.554005 14 12 C 14 11.445995 13.554005 11 13 11 L 3 11 z M 3 14 C 2.4459952 14 2 14.445995 2 15 C 2 15.554005 2.4459952 16 3 16 L 13 16 C 13.554005 16 14 15.554005 14 15 C 14 14.445995 13.554005 14 13 14 L 3 14 z M 3 17 C 2.4459952 17 2 17.445995 2 18 C 2 18.554005 2.4459952 19 3 19 L 13 19 C 13.554005 19 14 18.554005 14 18 C 14 17.445995 13.554005 17 13 17 L 3 17 z M 3 20 C 2.4459952 20 2 20.445995 2 21 C 2 21.554005 2.4459952 22 3 22 L 13 22 C 13.554005 22 14 21.554005 14 21 C 14 20.445995 13.554005 20 13 20 L 3 20 z M 3 23 C 2.4459952 23 2 23.445995 2 24 C 2 24.554005 2.4459952 25 3 25 L 13 25 C 13.554005 25 14 24.554005 14 24 C 14 23.445995 13.554005 23 13 23 L 3 23 z M 3 26 C 2.4459952 26 2 26.445995 2 27 C 2 27.554005 2.4459952 28 3 28 L 13 28 C 13.554005 28 14 27.554005 14 27 C 14 26.445995 13.554005 26 13 26 L 3 26 z M 3 31 C 2.4459952 31 2 31.445995 2 32 C 2 32.554005 2.4459952 33 3 33 L 13 33 C 13.554005 33 14 32.554005 14 32 C 14 31.445995 13.554005 31 13 31 L 3 31 z M 3 34 C 2.4459952 34 2 34.445995 2 35 C 2 35.554005 2.4459952 36 3 36 L 13 36 C 13.554005 36 14 35.554005 14 35 C 14 34.445995 13.554005 34 13 34 L 3 34 z M 3 37 C 2.4459952 37 2 37.445995 2 38 C 2 38.554005 2.4459952 39 3 39 L 13 39 C 13.554005 39 14 38.554005 14 38 C 14 37.445995 13.554005 37 13 37 L 3 37 z M 3 40 C 2.4459952 40 2 40.445995 2 41 C 2 41.554005 2.4459952 42 3 42 L 13 42 C 13.554005 42 14 41.554005 14 41 C 14 40.445995 13.554005 40 13 40 L 3 40 z M 3 43 C 2.4459952 43 2 43.445995 2 44 C 2 44.554005 2.4459952 45 3 45 L 13 45 C 13.554005 45 14 44.554005 14 44 C 14 43.445995 13.554005 43 13 43 L 3 43 z M 3 46 C 2.4459952 46 2 46.445995 2 47 C 2 47.554005 2.4459952 48 3 48 L 13 48 C 13.554005 48 14 47.554005 14 47 C 14 46.445995 13.554005 46 13 46 L 3 46 z M 3 49 C 2.4459952 49 2 49.445995 2 50 C 2 50.554005 2.4459952 51 3 51 L 13 51 C 13.554005 51 14 50.554005 14 50 C 14 49.445995 13.554005 49 13 49 L 3 49 z M 3 52 C 2.4459952 52 2 52.445995 2 53 C 2 53.554005 2.4459952 54 3 54 L 13 54 C 13.554005 54 14 53.554005 14 53 C 14 52.445995 13.554005 52 13 52 L 3 52 z M 3 55 C 2.4459952 55 2 55.445995 2 56 C 2 56.554005 2.4459952 57 3 57 L 13 57 C 13.554005 57 14 56.554005 14 56 C 14 55.445995 13.554005 55 13 55 L 3 55 z M 3 58 C 2.4459952 58 2 58.445995 2 59 C 2 59.554005 2.4459952 60 3 60 L 13 60 C 13.554005 60 14 59.554005 14 59 C 14 58.445995 13.554005 58 13 58 L 3 58 z M 3 61 C 2.4459952 61 2 61.445995 2 62 C 2 62.554005 2.4459952 63 3 63 L 13 63 C 13.554005 63 14 62.554005 14 62 C 14 61.445995 13.554005 61 13 61 L 3 61 z M 3 64 C 2.4459952 64 2 64.445995 2 65 C 2 65.554005 2.4459952 66 3 66 L 13 66 C 13.554005 66 14 65.554005 14 65 C 14 64.445995 13.554005 64 13 64 L 3 64 z M 3 67 C 2.4459952 67 2 67.445995 2 68 C 2 68.554005 2.4459952 69 3 69 L 13 69 C 13.554005 69 14 68.554005 14 68 C 14 67.445995 13.554005 67 13 67 L 3 67 z M 3 70 C 2.4459952 70 2 70.445995 2 71 C 2 71.554005 2.4459952 72 3 72 L 13 72 C 13.554005 72 14 71.554005 14 71 C 14 70.445995 13.554005 70 13 70 L 3 70 z M 3 73 C 2.4459952 73 2 73.445995 2 74 C 2 74.554005 2.4459952 75 3 75 L 13 75 C 13.554005 75 14 74.554005 14 74 C 14 73.445995 13.554005 73 13 73 L 3 73 z M 3 76 C 2.4459952 76 2 76.445995 2 77 C 2 77.554005 2.4459952 78 3 78 L 13 78 C 13.554005 78 14 77.554005 14 77 C 14 76.445995 13.554005 76 13 76 L 3 76 z M 3 79 C 2.4459952 79 2 79.445995 2 80 C 2 80.554005 2.4459952 81 3 81 L 13 81 C 13.554005 81 14 80.554005 14 80 C 14 79.445995 13.554005 79 13 79 L 3 79 z M 3 82 C 2.4459952 82 2 82.445995 2 83 C 2 83.554005 2.4459952 84 3 84 L 13 84 C 13.554005 84 14 83.554005 14 83 C 14 82.445995 13.554005 82 13 82 L 3 82 z M 3 85 C 2.4459952 85 2 85.445995 2 86 C 2 86.554005 2.4459952 87 3 87 L 13 87 C 13.554005 87 14 86.554005 14 86 C 14 85.445995 13.554005 85 13 85 L 3 85 z M 3 88 C 2.4459952 88 2 88.445995 2 89 C 2 89.554005 2.4459952 90 3 90 L 13 90 C 13.554005 90 14 89.554005 14 89 C 14 88.445995 13.554005 88 13 88 L 3 88 z M 3 91 C 2.4459952 91 2 91.445995 2 92 C 2 92.554005 2.4459952 93 3 93 L 13 93 C 13.554005 93 14 92.554005 14 92 C 14 91.445995 13.554005 91 13 91 L 3 91 z M 3 94 C 2.4459952 94 2 94.445995 2 95 C 2 95.554005 2.4459952 96 3 96 L 13 96 C 13.554005 96 14 95.554005 14 95 C 14 94.445995 13.554005 94 13 94 L 3 94 z M 3 97 C 2.4459952 97 2 97.445995 2 98 C 2 98.554005 2.4459952 99 3 99 L 13 99 C 13.554005 99 14 98.554005 14 98 C 14 97.445995 13.554005 97 13 97 L 3 97 z M 3 100 C 2.4459952 100 2 100.446 2 101 C 2 101.554 2.4459952 102 3 102 L 13 102 C 13.554005 102 14 101.554 14 101 C 14 100.446 13.554005 100 13 100 L 3 100 z M 3 103 C 2.4459952 103 2 103.446 2 104 C 2 104.554 2.4459952 105 3 105 L 13 105 C 13.554005 105 14 104.554 14 104 C 14 103.446 13.554005 103 13 103 L 3 103 z M 3 106 C 2.4459952 106 2 106.446 2 107 C 2 107.554 2.4459952 108 3 108 L 13 108 C 13.554005 108 14 107.554 14 107 C 14 106.446 13.554005 106 13 106 L 3 106 z M 3 109 C 2.4459952 109 2 109.446 2 110 C 2 110.554 2.4459952 111 3 111 L 13 111 C 13.554005 111 14 110.554 14 110 C 14 109.446 13.554005 109 13 109 L 3 109 z M 3 112 C 2.4459952 112 2 112.446 2 113 C 2 113.554 2.4459952 114 3 114 L 13 114 C 13.554005 114 14 113.554 14 113 C 14 112.446 13.554005 112 13 112 L 3 112 z M 3 115 C 2.4459952 115 2 115.446 2 116 C 2 116.554 2.4459952 117 3 117 L 13 117 C 13.554005 117 14 116.554 14 116 C 14 115.446 13.554005 115 13 115 L 3 115 z M 3 118 C 2.4459952 118 2 118.446 2 119 C 2 119.554 2.4459952 120 3 120 L 13 120 C 13.554005 120 14 119.554 14 119 C 14 118.446 13.554005 118 13 118 L 3 118 z M 3 121 C 2.4459952 121 2 121.446 2 122 C 2 122.554 2.4459952 123 3 123 L 13 123 C 13.554005 123 14 122.554 14 122 C 14 121.446 13.554005 121 13 121 L 3 121 z M 3 124 C 2.4459952 124 2 124.446 2 125 C 2 125.554 2.4459952 126 3 126 L 13 126 C 13.554005 126 14 125.554 14 125 C 14 124.446 13.554005 124 13 124 L 3 124 z "
       transform="translate(0,924.3622)"
       id="rect852" />
  </g>
</svg>
