<?xml version="1.0" encoding="UTF-8" standalone="no"?>
<!-- Created with Inkscape (http://www.inkscape.org/) -->

<svg
   xmlns:dc="http://purl.org/dc/elements/1.1/"
   xmlns:cc="http://creativecommons.org/ns#"
   xmlns:rdf="http://www.w3.org/1999/02/22-rdf-syntax-ns#"
   xmlns:svg="http://www.w3.org/2000/svg"
   xmlns="http://www.w3.org/2000/svg"
   xmlns:sodipodi="http://sodipodi.sourceforge.net/DTD/sodipodi-0.dtd"
   xmlns:inkscape="http://www.inkscape.org/namespaces/inkscape"
   width="16"
   height="16"
   viewBox="0 0 16 16"
   id="svg2"
   version="1.1"
   inkscape:version="0.91 r13725"
   inkscape:export-filename="/home/djrm/Projects/godot/tools/editor/icons/icon_canvas_item.png"
   inkscape:export-xdpi="90"
   inkscape:export-ydpi="90"
   sodipodi:docname="icon_canvas_layer.svg">
  <defs
     id="defs4" />
  <sodipodi:namedview
     id="base"
     pagecolor="#ffffff"
     bordercolor="#666666"
     borderopacity="1.0"
     inkscape:pageopacity="0.0"
     inkscape:pageshadow="2"
     inkscape:zoom="22.627417"
     inkscape:cx="-3.1074492"
     inkscape:cy="10.973033"
     inkscape:document-units="px"
     inkscape:current-layer="layer1"
     showgrid="true"
     units="px"
     inkscape:snap-bbox="true"
     inkscape:bbox-paths="true"
     inkscape:bbox-nodes="true"
     inkscape:snap-bbox-edge-midpoints="true"
     inkscape:snap-bbox-midpoints="false"
     inkscape:snap-object-midpoints="true"
     inkscape:snap-center="true"
     inkscape:window-width="1920"
     inkscape:window-height="1016"
     inkscape:window-x="0"
     inkscape:window-y="27"
     inkscape:window-maximized="1"
     inkscape:snap-midpoints="true"
     inkscape:snap-smooth-nodes="true"
     inkscape:object-nodes="true"
     inkscape:snap-intersection-paths="false"
     inkscape:object-paths="false">
    <inkscape:grid
       type="xygrid"
       id="grid3336" />
  </sodipodi:namedview>
  <metadata
     id="metadata7">
    <rdf:RDF>
      <cc:Work
         rdf:about="">
        <dc:format>image/svg+xml</dc:format>
        <dc:type
           rdf:resource="http://purl.org/dc/dcmitype/StillImage" />
        <dc:title></dc:title>
      </cc:Work>
    </rdf:RDF>
  </metadata>
  <g
     inkscape:label="Layer 1"
     inkscape:groupmode="layer"
     id="layer1"
     transform="translate(0,-1036.3622)">
    <path
       sodipodi:nodetypes="cscsccccsssc"
       inkscape:connector-curvature="0"
       id="path4146"
       d="m 2.920797,1046.3957 c -0.2637264,0.3 -0.4203983,0.7296 -0.4203983,1.2383 0,1.6277 -3.13814186,-0.1781 -0.337569,2.6703 0.8838207,0.899 2.6543881,0.6701 3.538224,-0.2288 0.8838352,-0.899 0.8838163,-2.3565 0,-3.2554 -1.1002211,-1.1191 -2.200058,-1.0845 -2.7802567,-0.4244 z m 2.3801743,-1.6103 2.4004918,2.4416 6.8013899,-6.9177 c 0.662863,-0.6742 0.662863,-1.7673 0,-2.4415 -0.662877,-0.6741 -1.737613,-0.6741 -2.400491,0 z"
       style="fill:#e0e0e0;fill-opacity:0.99607843;stroke:none;stroke-width:4;stroke-linecap:round;stroke-linejoin:miter;stroke-miterlimit:4;stroke-dasharray:none;stroke-opacity:1" />
    <path
       style="opacity:1;fill:#e0e0e0;fill-opacity:0.99607843;stroke:none;stroke-width:2;stroke-linecap:butt;stroke-linejoin:round;stroke-miterlimit:4;stroke-dasharray:none;stroke-dashoffset:0;stroke-opacity:1"
       d="M 3 1 A 2 2 0 0 0 1 3 L 2 3 A 1.0000174 1.0000174 0 0 1 3 2 L 3 1 z "
       transform="translate(0,1036.3622)"
       id="path4160" />
    <rect
       style="opacity:1;fill:#e0e0e0;fill-opacity:0.99607843;stroke:none;stroke-width:2;stroke-linecap:butt;stroke-linejoin:round;stroke-miterlimit:4;stroke-dasharray:none;stroke-dashoffset:0;stroke-opacity:1"
       id="rect4164"
       width="6"
       height="1"
       x="3"
       y="1037.3622" />
    <rect
       y="-2"
       x="1039.3622"
       height="1"
       width="6"
       id="rect4166"
       style="opacity:1;fill:#e0e0e0;fill-opacity:0.99607843;stroke:none;stroke-width:2;stroke-linecap:butt;stroke-linejoin:round;stroke-miterlimit:4;stroke-dasharray:none;stroke-dashoffset:0;stroke-opacity:1"
       transform="matrix(0,1,-1,0,0,0)" />
    <path
       style="opacity:1;fill:#e0e0e0;fill-opacity:0.99607843;stroke:none;stroke-width:2;stroke-linecap:butt;stroke-linejoin:round;stroke-miterlimit:4;stroke-dasharray:none;stroke-dashoffset:0;stroke-opacity:1"
       d="m 13,1051.3622 a 2,2 0 0 0 2,-2 l 0,-6 -1,0 0,6 a 1.0000174,1.0000174 0 0 1 -1,1 l -6,0 0,1 6,0 z"
       id="path4169"
       inkscape:connector-curvature="0" />
  </g>
</svg>
