<?xml version="1.0" encoding="UTF-8" standalone="no"?>
<!-- Created with Inkscape (http://www.inkscape.org/) -->

<svg
   xmlns:dc="http://purl.org/dc/elements/1.1/"
   xmlns:cc="http://creativecommons.org/ns#"
   xmlns:rdf="http://www.w3.org/1999/02/22-rdf-syntax-ns#"
   xmlns:svg="http://www.w3.org/2000/svg"
   xmlns="http://www.w3.org/2000/svg"
   xmlns:sodipodi="http://sodipodi.sourceforge.net/DTD/sodipodi-0.dtd"
   xmlns:inkscape="http://www.inkscape.org/namespaces/inkscape"
   width="16"
   height="16"
   viewBox="0 0 14.999999 14.999999"
   id="svg2"
   version="1.1"
   inkscape:version="0.92+devel unknown"
   inkscape:export-filename="/home/djrm/Projects/godot/tools/editor/icons/icon_collision_shape.png"
   inkscape:export-xdpi="90"
   inkscape:export-ydpi="90"
   sodipodi:docname="icon_cylinder_mesh.svg">
  <defs
     id="defs4" />
  <sodipodi:namedview
     id="base"
     pagecolor="#ffffff"
     bordercolor="#666666"
     borderopacity="1.0"
     inkscape:pageopacity="0.0"
     inkscape:pageshadow="2"
     inkscape:zoom="32"
     inkscape:cx="8.8446434"
     inkscape:cy="10.246909"
     inkscape:document-units="px"
     inkscape:current-layer="layer1"
     showgrid="true"
     units="px"
     inkscape:snap-bbox="true"
     inkscape:bbox-paths="true"
     inkscape:bbox-nodes="true"
     inkscape:snap-bbox-edge-midpoints="true"
     inkscape:snap-bbox-midpoints="true"
     inkscape:snap-object-midpoints="true"
     inkscape:snap-center="true"
     inkscape:window-width="1920"
     inkscape:window-height="1016"
     inkscape:window-x="0"
     inkscape:window-y="27"
     inkscape:window-maximized="1"
     inkscape:object-paths="true"
     inkscape:snap-intersection-paths="true"
     inkscape:object-nodes="true"
     inkscape:snap-smooth-nodes="true"
     inkscape:snap-midpoints="true"
     inkscape:document-rotation="0">
    <inkscape:grid
       type="xygrid"
       id="grid3336"
       originx="0"
       originy="0"
       spacingx="0.93749994"
       spacingy="0.93749994" />
  </sodipodi:namedview>
  <metadata
     id="metadata7">
    <rdf:RDF>
      <cc:Work
         rdf:about="">
        <dc:format>image/svg+xml</dc:format>
        <dc:type
           rdf:resource="http://purl.org/dc/dcmitype/StillImage" />
        <dc:title></dc:title>
      </cc:Work>
    </rdf:RDF>
  </metadata>
  <g
     inkscape:label="Layer 1"
     inkscape:groupmode="layer"
     id="layer1"
     transform="translate(0,-1037.3622)">
    <path
       style="color:#000000;font-style:normal;font-variant:normal;font-weight:normal;font-stretch:normal;font-size:medium;line-height:normal;font-family:sans-serif;font-variant-ligatures:normal;font-variant-position:normal;font-variant-caps:normal;font-variant-numeric:normal;font-variant-alternates:normal;font-variant-east-asian:normal;font-feature-settings:normal;text-indent:0;text-align:start;text-decoration:none;text-decoration-line:none;text-decoration-style:solid;text-decoration-color:#000000;letter-spacing:normal;word-spacing:normal;text-transform:none;writing-mode:lr-tb;direction:ltr;text-orientation:mixed;dominant-baseline:auto;baseline-shift:baseline;text-anchor:start;white-space:normal;shape-padding:0;clip-rule:nonzero;display:inline;overflow:visible;visibility:visible;isolation:auto;mix-blend-mode:normal;color-interpolation:sRGB;color-interpolation-filters:linearRGB;solid-color:#000000;solid-opacity:1;vector-effect:none;fill:#ffd684;fill-opacity:1;fill-rule:nonzero;stroke:none;stroke-width:2;stroke-linecap:butt;stroke-linejoin:miter;stroke-miterlimit:4;stroke-dasharray:none;stroke-dashoffset:0;stroke-opacity:1;color-rendering:auto;image-rendering:auto;shape-rendering:auto;text-rendering:auto;enable-background:accumulate"
       d="M 8,1 C 6.2530724,1 4.6719569,1.2264786 3.4414062,1.6367188 2.8261309,1.8418388 2.2942826,2.0885933 1.8515625,2.4375 1.4088424,2.7864067 1,3.3185066 1,4 v 8 c 0,0.681493 0.4088424,1.215546 0.8515625,1.564453 0.4427201,0.348907 0.9745684,0.595768 1.5898437,0.800781 C 4.6719569,14.775474 6.2530724,15 8,15 c 1.7469276,0 3.328042,-0.224526 4.558594,-0.634766 0.615274,-0.205013 1.147122,-0.451874 1.589844,-0.800781 C 14.591158,13.215546 15,12.681493 15,12 V 4 C 15,3.3185066 14.591158,2.7864067 14.148438,2.4375 13.705716,2.0885933 13.173868,1.8418388 12.558594,1.6367188 11.328042,1.2264786 9.7469276,1 8,1 Z m 0,2 c 1.5667809,0 2.986711,0.2214496 3.927734,0.5351562 0.463676,0.1545602 0.801384,0.3374102 0.96875,0.4667969 -0.167523,0.12928 -0.505463,0.3104971 -0.96875,0.4648438 C 10.986711,4.7805036 9.5667809,5 8,5 6.4332191,5 5.0132879,4.7805036 4.0722656,4.4667969 3.6089791,4.3124502 3.271039,4.1312331 3.1035156,4.0019531 3.2708819,3.8725664 3.6085896,3.6897164 4.0722656,3.5351562 5.0132879,3.2214496 6.4332191,3 8,3 Z M 3,6.1875 C 3.1467977,6.2465706 3.2834962,6.3126178 3.4414062,6.3652344 4.6719569,6.7754744 6.2530724,7 8,7 9.7469276,7 11.328042,6.7754744 12.558594,6.3652344 12.716504,6.3126178 12.853202,6.2465706 13,6.1875 V 12 c -0.167523,0.12928 -0.608979,0.31245 -1.072266,0.466797 C 10.986711,12.780504 9.5667809,13 8,13 6.4332191,13 5.0132879,12.780504 4.0722656,12.466797 3.6089791,12.31245 3.1675234,12.12928 3,12 Z"
       transform="matrix(0.93749994,0,0,0.93749994,0,1037.3622)"
       id="path4385"
       inkscape:connector-curvature="0"
       sodipodi:nodetypes="sssssscsccsscssscccscccsccsccccsccc" />
  </g>
</svg>
