<?xml version="1.0" encoding="UTF-8" standalone="no"?>
<!-- Created with Inkscape (http://www.inkscape.org/) -->

<svg
   xmlns:dc="http://purl.org/dc/elements/1.1/"
   xmlns:cc="http://creativecommons.org/ns#"
   xmlns:rdf="http://www.w3.org/1999/02/22-rdf-syntax-ns#"
   xmlns:svg="http://www.w3.org/2000/svg"
   xmlns="http://www.w3.org/2000/svg"
   xmlns:sodipodi="http://sodipodi.sourceforge.net/DTD/sodipodi-0.dtd"
   xmlns:inkscape="http://www.inkscape.org/namespaces/inkscape"
   width="64"
   height="32"
   viewBox="0 0 64 31.999998"
   id="svg2"
   version="1.1"
   inkscape:version="0.92+devel unknown"
   sodipodi:docname="icon_GUI_toggle_off.svg"
   inkscape:export-filename="/mnt/2TB/Development/godot_dev/editor/icons/2x/icon_hslider_bg.png"
   inkscape:export-xdpi="96"
   inkscape:export-ydpi="96">
  <defs
     id="defs4" />
  <sodipodi:namedview
     id="base"
     pagecolor="#ffffff"
     bordercolor="#666666"
     borderopacity="1.0"
     inkscape:pageopacity="0.0"
     inkscape:pageshadow="2"
     inkscape:zoom="16"
     inkscape:cx="35.349571"
     inkscape:cy="18.723365"
     inkscape:document-units="px"
     inkscape:current-layer="layer1"
     showgrid="true"
     units="px"
     inkscape:object-paths="false"
     inkscape:snap-intersection-paths="false"
     inkscape:snap-bbox="true"
     inkscape:bbox-paths="true"
     inkscape:bbox-nodes="true"
     inkscape:snap-bbox-edge-midpoints="true"
     inkscape:window-width="1920"
     inkscape:window-height="1016"
     inkscape:window-x="0"
     inkscape:window-y="27"
     inkscape:window-maximized="1"
     inkscape:snap-smooth-nodes="true"
     inkscape:object-nodes="true"
     inkscape:document-rotation="0">
    <inkscape:grid
       type="xygrid"
       id="grid4136"
       empspacing="4" />
  </sodipodi:namedview>
  <metadata
     id="metadata7">
    <rdf:RDF>
      <cc:Work
         rdf:about="">
        <dc:format>image/svg+xml</dc:format>
        <dc:type
           rdf:resource="http://purl.org/dc/dcmitype/StillImage" />
        <dc:title></dc:title>
      </cc:Work>
    </rdf:RDF>
  </metadata>
  <g
     inkscape:label="Layer 1"
     inkscape:groupmode="layer"
     id="layer1"
     transform="translate(0,-1020.3623)">
    <path
       style="color:#000000;font-style:normal;font-variant:normal;font-weight:normal;font-stretch:normal;font-size:medium;line-height:normal;font-family:sans-serif;font-variant-ligatures:normal;font-variant-position:normal;font-variant-caps:normal;font-variant-numeric:normal;font-variant-alternates:normal;font-variant-east-asian:normal;font-feature-settings:normal;text-indent:0;text-align:start;text-decoration:none;text-decoration-line:none;text-decoration-style:solid;text-decoration-color:#000000;letter-spacing:normal;word-spacing:normal;text-transform:none;writing-mode:lr-tb;direction:ltr;text-orientation:mixed;dominant-baseline:auto;baseline-shift:baseline;text-anchor:start;white-space:normal;shape-padding:0;clip-rule:nonzero;display:inline;overflow:visible;visibility:visible;isolation:auto;mix-blend-mode:normal;color-interpolation:sRGB;color-interpolation-filters:linearRGB;solid-color:#000000;solid-opacity:1;vector-effect:none;fill:#e0e0e0;fill-opacity:0.78431374;fill-rule:nonzero;stroke:none;stroke-width:2;stroke-linecap:round;stroke-linejoin:round;stroke-miterlimit:4;stroke-dasharray:none;stroke-dashoffset:0;stroke-opacity:1;filter-blend-mode:normal;filter-gaussianBlur-deviation:0;color-rendering:auto;image-rendering:auto;shape-rendering:auto;text-rendering:auto;enable-background:accumulate;opacity:1"
       d="M 24 4.0019531 C 17.3693 4.0019531 12 9.3673469 12 15.998047 L 12 16.001953 C 12 22.632653 17.3693 28.001953 24 28.001953 L 40 28.001953 C 46.6307 28.001953 52 22.632653 52 16.001953 L 52 15.998047 C 52 9.3673469 46.6307 4.0019531 40 4.0019531 L 24 4.0019531 z M 24 6.0019531 L 40 6.0019531 C 45.557295 6.0019531 50 10.440747 50 15.998047 L 50 16.001953 C 50 21.559253 45.557295 26.001953 40 26.001953 L 24 26.001953 C 18.442705 26.001953 14 21.559253 14 16.001953 L 14 15.998047 C 14 10.440747 18.442705 6.0019531 24 6.0019531 z M 31 10.998047 A 1.0001 1.0001 0 0 0 30 11.998047 L 30 19.998047 A 1 1 0 0 0 31 20.998047 A 1 1 0 0 0 32 19.998047 L 32 16.998047 L 34 16.998047 A 1 1 0 0 0 35 15.998047 A 1 1 0 0 0 34 14.998047 L 32 14.998047 L 32 12.998047 L 36 12.998047 A 1 1 0 0 0 37 11.998047 A 1 1 0 0 0 36 10.998047 L 31 10.998047 z M 40 10.998047 A 1.0001 1.0001 0 0 0 39 11.998047 L 39 15.998047 L 39 19.998047 A 1 1 0 0 0 40 20.998047 A 1 1 0 0 0 41 19.998047 L 41 16.998047 L 43 16.998047 A 1 1 0 0 0 44 15.998047 A 1 1 0 0 0 43 14.998047 L 41 14.998047 L 41 12.998047 L 45 12.998047 A 1 1 0 0 0 46 11.998047 A 1 1 0 0 0 45 10.998047 L 40 10.998047 z M 23 11.001953 C 20.250421 11.001953 18 13.252353 18 16.001953 C 18 18.751553 20.250421 21.001953 23 21.001953 C 25.749579 21.001953 28 18.751553 28 16.001953 C 28 13.252353 25.749579 11.001953 23 11.001953 z M 23 13.001953 C 24.668699 13.001953 26 14.333253 26 16.001953 C 26 17.670653 24.668699 19.001953 23 19.001953 C 21.331301 19.001953 20 17.670653 20 16.001953 C 20 14.333253 21.331301 13.001953 23 13.001953 z "
       transform="translate(0,1020.3623)"
       id="path4442" />
  </g>
</svg>
