<?xml version="1.0" encoding="UTF-8" standalone="no"?>
<!-- Created with Inkscape (http://www.inkscape.org/) -->

<svg
   xmlns:dc="http://purl.org/dc/elements/1.1/"
   xmlns:cc="http://creativecommons.org/ns#"
   xmlns:rdf="http://www.w3.org/1999/02/22-rdf-syntax-ns#"
   xmlns:svg="http://www.w3.org/2000/svg"
   xmlns="http://www.w3.org/2000/svg"
   xmlns:sodipodi="http://sodipodi.sourceforge.net/DTD/sodipodi-0.dtd"
   xmlns:inkscape="http://www.inkscape.org/namespaces/inkscape"
   width="16"
   height="16"
   viewBox="0 0 16 16"
   id="svg2"
   version="1.1"
   inkscape:version="0.92.1 r"
   inkscape:export-filename="/home/djrm/Projects/godot/tools/editor/icons/icon_center_container.png"
   inkscape:export-xdpi="90"
   inkscape:export-ydpi="90"
   sodipodi:docname="icon_option_button.svg">
  <defs
     id="defs4" />
  <sodipodi:namedview
     id="base"
     pagecolor="#ffffff"
     bordercolor="#666666"
     borderopacity="1.0"
     inkscape:pageopacity="0.0"
     inkscape:pageshadow="2"
     inkscape:zoom="32"
     inkscape:cx="10.188738"
     inkscape:cy="6.593409"
     inkscape:document-units="px"
     inkscape:current-layer="layer1"
     showgrid="true"
     units="px"
     inkscape:snap-bbox="true"
     inkscape:bbox-paths="true"
     inkscape:bbox-nodes="true"
     inkscape:snap-bbox-edge-midpoints="true"
     inkscape:snap-bbox-midpoints="true"
     inkscape:snap-object-midpoints="true"
     inkscape:snap-center="true"
     inkscape:window-width="1600"
     inkscape:window-height="836"
     inkscape:window-x="0"
     inkscape:window-y="27"
     inkscape:window-maximized="1"
     inkscape:object-nodes="true"
     inkscape:snap-intersection-paths="true"
     inkscape:object-paths="true"
     inkscape:snap-smooth-nodes="true">
    <inkscape:grid
       type="xygrid"
       id="grid3336" />
  </sodipodi:namedview>
  <metadata
     id="metadata7">
    <rdf:RDF>
      <cc:Work
         rdf:about="">
        <dc:format>image/svg+xml</dc:format>
        <dc:type
           rdf:resource="http://purl.org/dc/dcmitype/StillImage" />
        <dc:title />
      </cc:Work>
    </rdf:RDF>
  </metadata>
  <g
     inkscape:label="Layer 1"
     inkscape:groupmode="layer"
     id="layer1"
     transform="translate(0,-1036.3622)">
    <path
       style="opacity:1;fill:#a5efac;fill-opacity:1;stroke:none;stroke-width:2;stroke-linecap:round;stroke-linejoin:miter;stroke-miterlimit:4;stroke-dasharray:none;stroke-dashoffset:0;stroke-opacity:1"
       d="M 3 3 C 1.8954305 3 1 3.8954305 1 5 L 1 11 C 1 12.104569 1.8954305 13 3 13 L 8 13 L 9 13 L 10 13 L 12 13 L 13 13 C 14.104569 13 15 12.104569 15 11 L 15 5 C 15 3.8954305 14.104569 3 13 3 L 12 3 L 10 3 L 9 3 L 8 3 L 3 3 z M 11 5.9863281 A 1.0001 1.0001 0 0 1 11.716797 7.7070312 L 8.7167969 10.707031 A 1.0001 1.0001 0 0 1 7.3027344 10.707031 L 4.3027344 7.7070312 A 1.0001 1.0001 0 0 1 5 5.9902344 A 1.0001 1.0001 0 0 1 5.7167969 6.2929688 L 8.0097656 8.5859375 L 10.302734 6.2929688 A 1.0001 1.0001 0 0 1 11 5.9863281 z "
       transform="translate(0,1036.3622)"
       id="rect4140" />
    <rect
       style="opacity:1;fill:none;fill-opacity:1;stroke:none;stroke-width:2;stroke-linecap:round;stroke-linejoin:round;stroke-miterlimit:4;stroke-dasharray:none;stroke-dashoffset:0;stroke-opacity:0.99607843"
       id="rect4181"
       width="4"
       height="4"
       x="4"
       y="1042.3622" />
  </g>
</svg>
