<?xml version="1.0" encoding="UTF-8" standalone="no"?>
<!-- Created with Inkscape (http://www.inkscape.org/) -->

<svg
   xmlns:dc="http://purl.org/dc/elements/1.1/"
   xmlns:cc="http://creativecommons.org/ns#"
   xmlns:rdf="http://www.w3.org/1999/02/22-rdf-syntax-ns#"
   xmlns:svg="http://www.w3.org/2000/svg"
   xmlns="http://www.w3.org/2000/svg"
   xmlns:sodipodi="http://sodipodi.sourceforge.net/DTD/sodipodi-0.dtd"
   xmlns:inkscape="http://www.inkscape.org/namespaces/inkscape"
   width="14"
   height="14"
   viewBox="0 0 14 14"
   id="svg2"
   version="1.1"
   inkscape:version="0.91 r13725"
   inkscape:export-filename="/home/djrm/Projects/godot/tools/editor/icons/icon_collision_shape_2d.png"
   inkscape:export-xdpi="90"
   inkscape:export-ydpi="90"
   sodipodi:docname="icon_graph_xform_uniform.svg">
  <defs
     id="defs4" />
  <sodipodi:namedview
     id="base"
     pagecolor="#ffffff"
     bordercolor="#666666"
     borderopacity="1.0"
     inkscape:pageopacity="0.0"
     inkscape:pageshadow="2"
     inkscape:zoom="32"
     inkscape:cx="6.0470074"
     inkscape:cy="8.0773899"
     inkscape:document-units="px"
     inkscape:current-layer="layer1"
     showgrid="true"
     units="px"
     inkscape:snap-bbox="true"
     inkscape:bbox-paths="true"
     inkscape:bbox-nodes="true"
     inkscape:snap-bbox-edge-midpoints="true"
     inkscape:snap-bbox-midpoints="true"
     inkscape:snap-object-midpoints="true"
     inkscape:snap-center="true"
     inkscape:window-width="1920"
     inkscape:window-height="1016"
     inkscape:window-x="0"
     inkscape:window-y="27"
     inkscape:window-maximized="1"
     inkscape:snap-smooth-nodes="true"
     inkscape:object-nodes="true"
     inkscape:snap-intersection-paths="true">
    <inkscape:grid
       type="xygrid"
       id="grid3336" />
  </sodipodi:namedview>
  <metadata
     id="metadata7">
    <rdf:RDF>
      <cc:Work
         rdf:about="">
        <dc:format>image/svg+xml</dc:format>
        <dc:type
           rdf:resource="http://purl.org/dc/dcmitype/StillImage" />
        <dc:title></dc:title>
      </cc:Work>
    </rdf:RDF>
  </metadata>
  <g
     inkscape:label="Layer 1"
     inkscape:groupmode="layer"
     id="layer1"
     transform="translate(0,-1038.3622)">
    <path
       style="opacity:1;fill:#ea686c;fill-opacity:1;stroke:none;stroke-width:2;stroke-linecap:round;stroke-linejoin:round;stroke-miterlimit:4;stroke-dasharray:none;stroke-dashoffset:0;stroke-opacity:1"
       d="M 2 0 C 0.8954305 0 0 0.8954 0 2 L 0 12 C 0 13.1046 0.8954305 14 2 14 L 12 14 C 13.104569 14 14 13.1046 14 12 L 14 2 C 14 0.8954 13.104569 0 12 0 L 2 0 z M 1 1 L 2 1 L 4 1 L 4 2 L 2 2 L 2 12 L 4 12 L 4 13 L 2 13 L 1 13 L 1 12 L 1 2 L 1 1 z M 10 1 L 13 1 L 13 12 L 13 13 L 10 13 L 10 12 L 12 12 L 12 2 L 10 2 L 10 1 z M 9.9707031 3 A 1.0001 1.0001 0 0 1 11 4 L 11 11 L 9 11 L 9 6.4140625 L 7.7070312 7.7070312 A 1.0001 1.0001 0 0 1 6.2929688 7.7070312 L 5 6.4140625 L 5 11 L 3 11 L 3 4 A 1.0001 1.0001 0 0 1 3.984375 3.0019531 A 1.0001 1.0001 0 0 1 4.7070312 3.2929688 L 7 5.5859375 L 9.2929688 3.2929688 A 1.0001 1.0001 0 0 1 9.9707031 3 z "
       transform="translate(0,1038.3622)"
       id="rect4147" />
  </g>
</svg>
