<?xml version="1.0" encoding="UTF-8" standalone="no"?>
<!-- Created with Inkscape (http://www.inkscape.org/) -->

<svg
   xmlns:dc="http://purl.org/dc/elements/1.1/"
   xmlns:cc="http://creativecommons.org/ns#"
   xmlns:rdf="http://www.w3.org/1999/02/22-rdf-syntax-ns#"
   xmlns:svg="http://www.w3.org/2000/svg"
   xmlns="http://www.w3.org/2000/svg"
   xmlns:sodipodi="http://sodipodi.sourceforge.net/DTD/sodipodi-0.dtd"
   xmlns:inkscape="http://www.inkscape.org/namespaces/inkscape"
   width="16"
   height="16"
   viewBox="0 0 16 16"
   id="svg2"
   version="1.1"
   inkscape:version="0.92.1 r"
   inkscape:export-filename="/home/djrm/Projects/godot/tools/editor/icons/icon_animation_tree_player.png"
   inkscape:export-xdpi="90"
   inkscape:export-ydpi="90"
   sodipodi:docname="icon_animation_tree_player.svg">
  <defs
     id="defs4" />
  <sodipodi:namedview
     id="base"
     pagecolor="#ffffff"
     bordercolor="#666666"
     borderopacity="1.0"
     inkscape:pageopacity="0.0"
     inkscape:pageshadow="2"
     inkscape:zoom="22.627416"
     inkscape:cx="-0.31764706"
     inkscape:cy="5.3536612"
     inkscape:document-units="px"
     inkscape:current-layer="layer1"
     showgrid="true"
     units="px"
     inkscape:snap-bbox="true"
     inkscape:bbox-paths="true"
     inkscape:bbox-nodes="true"
     inkscape:snap-bbox-edge-midpoints="true"
     inkscape:snap-bbox-midpoints="false"
     inkscape:snap-object-midpoints="true"
     inkscape:snap-center="true"
     inkscape:window-width="1600"
     inkscape:window-height="836"
     inkscape:window-x="0"
     inkscape:window-y="27"
     inkscape:window-maximized="1">
    <inkscape:grid
       type="xygrid"
       id="grid3336" />
  </sodipodi:namedview>
  <metadata
     id="metadata7">
    <rdf:RDF>
      <cc:Work
         rdf:about="">
        <dc:format>image/svg+xml</dc:format>
        <dc:type
           rdf:resource="http://purl.org/dc/dcmitype/StillImage" />
        <dc:title />
      </cc:Work>
    </rdf:RDF>
  </metadata>
  <g
     inkscape:label="Layer 1"
     inkscape:groupmode="layer"
     id="layer1"
     transform="translate(0,-1036.3622)">
    <path
       style="opacity:1;fill:#fbe87a;fill-opacity:1;stroke:none;stroke-width:2;stroke-linecap:round;stroke-linejoin:miter;stroke-miterlimit:4;stroke-dasharray:none;stroke-dashoffset:0;stroke-opacity:1"
       d="M 1 1 L 1 15 L 2.1660156 15 L 2.1660156 13 L 4 13 L 4 15 L 12 15 L 12 13 L 14 13 L 14 15 L 15 15 L 15 1 L 14 1 L 14 3 L 12 3 L 12 1 L 4 1 L 4 3 L 2.1660156 3 L 2.1660156 1 L 1 1 z M 5.984375 2.9863281 A 1.0001 1.0001 0 0 1 7 4 L 7 6.3828125 L 9.5527344 5.1054688 A 1.0001 1.0001 0 0 1 10.003906 4.9941406 A 1.0001 1.0001 0 0 1 10.447266 6.8945312 L 7 8.6171875 L 7 12 A 1.0001 1.0001 0 1 1 5 12 L 5 7.9921875 L 5 4 A 1.0001 1.0001 0 0 1 5.984375 2.9863281 z M 2.1660156 5 L 4 5 L 4 7 L 2.1660156 7 L 2.1660156 5 z M 12 5 L 14 5 L 14 7 L 12 7 L 12 5 z M 2.1660156 9 L 4 9 L 4 11 L 2.1660156 11 L 2.1660156 9 z M 12 9 L 14 9 L 14 11 L 12 11 L 12 9 z "
       transform="translate(0,1036.3622)"
       id="rect4136" />
  </g>
</svg>
