<?xml version="1.0" encoding="UTF-8" standalone="no"?>
<!-- Created with Inkscape (http://www.inkscape.org/) -->

<svg
   xmlns:dc="http://purl.org/dc/elements/1.1/"
   xmlns:cc="http://creativecommons.org/ns#"
   xmlns:rdf="http://www.w3.org/1999/02/22-rdf-syntax-ns#"
   xmlns:svg="http://www.w3.org/2000/svg"
   xmlns="http://www.w3.org/2000/svg"
   xmlns:sodipodi="http://sodipodi.sourceforge.net/DTD/sodipodi-0.dtd"
   xmlns:inkscape="http://www.inkscape.org/namespaces/inkscape"
   width="16"
   height="16"
   viewBox="0 0 16 16"
   id="svg2"
   version="1.1"
   inkscape:version="0.91 r13725"
   inkscape:export-filename="/home/godotengine/godot/tools/editor/icons/2x/icon_load.png"
   inkscape:export-xdpi="180"
   inkscape:export-ydpi="180"
   sodipodi:docname="icon_load.svg">
  <defs
     id="defs4" />
  <sodipodi:namedview
     id="base"
     pagecolor="#ffffff"
     bordercolor="#666666"
     borderopacity="1.0"
     inkscape:pageopacity="0.0"
     inkscape:pageshadow="2"
     inkscape:zoom="22.627417"
     inkscape:cx="6.3187685"
     inkscape:cy="7.6629717"
     inkscape:document-units="px"
     inkscape:current-layer="layer1"
     showgrid="true"
     units="px"
     inkscape:snap-bbox="true"
     inkscape:bbox-paths="true"
     inkscape:bbox-nodes="true"
     inkscape:snap-bbox-edge-midpoints="true"
     inkscape:snap-bbox-midpoints="false"
     inkscape:snap-object-midpoints="true"
     inkscape:snap-center="true"
     inkscape:window-width="1920"
     inkscape:window-height="1016"
     inkscape:window-x="0"
     inkscape:window-y="27"
     inkscape:window-maximized="1"
     inkscape:snap-smooth-nodes="true"
     inkscape:object-nodes="true"
     showguides="false">
    <inkscape:grid
       type="xygrid"
       id="grid3336"
       spacingx="1"
       spacingy="1"
       empspacing="2" />
  </sodipodi:namedview>
  <metadata
     id="metadata7">
    <rdf:RDF>
      <cc:Work
         rdf:about="">
        <dc:format>image/svg+xml</dc:format>
        <dc:type
           rdf:resource="http://purl.org/dc/dcmitype/StillImage" />
        <dc:title></dc:title>
      </cc:Work>
    </rdf:RDF>
  </metadata>
  <g
     inkscape:label="Layer 1"
     inkscape:groupmode="layer"
     id="layer1"
     transform="translate(0,-1036.3622)">
    <rect
       style="opacity:1;fill:#e0e0e0;fill-opacity:1;stroke:none;stroke-width:2;stroke-linecap:butt;stroke-linejoin:round;stroke-miterlimit:4;stroke-dasharray:none;stroke-opacity:1"
       id="rect4153"
       width="1"
       height="8.9999657"
       x="1"
       y="1040.3622" />
    <path
       style="opacity:1;fill:#e0e0e0;fill-opacity:1;stroke:none;stroke-width:2;stroke-linecap:butt;stroke-linejoin:round;stroke-miterlimit:4;stroke-dasharray:none;stroke-opacity:1"
       d="m 3,1038.3622 c -1.1045695,0 -2,0.8954 -2,2 l 1,0 c 0,-0.5523 0.4477153,-1 1,-1 z"
       id="path4155"
       inkscape:connector-curvature="0"
       sodipodi:nodetypes="ccccc" />
    <path
       style="opacity:1;fill:#e0e0e0;fill-opacity:1;stroke:none;stroke-width:2;stroke-linecap:butt;stroke-linejoin:round;stroke-miterlimit:4;stroke-dasharray:none;stroke-opacity:1"
       d="M 6,6 C 5.643017,6.0002824 5.313257,6.1908435 5.1347656,6.5 5.0426478,6.6588009 4.9960226,6.8398957 5,7.0234375 L 4,13 c -0.091144,0.544728 -0.4477153,1 -1,1 l 0,1 9,0 c 1.10457,0 1.818405,-0.910429 2,-2 L 15,7 C 15.003977,6.8164581 14.957352,6.6588009 14.865234,6.5 14.686743,6.1908437 14.356983,6.0002826 14,6 Z"
       transform="translate(0,1036.3622)"
       id="rect4159"
       inkscape:connector-curvature="0"
       sodipodi:nodetypes="cccsccsscccc" />
    <rect
       style="opacity:1;fill:#e0e0e0;fill-opacity:1;stroke:none;stroke-width:2;stroke-linecap:butt;stroke-linejoin:round;stroke-miterlimit:4;stroke-dasharray:none;stroke-opacity:1"
       id="rect4182"
       width="2"
       height="1"
       x="3"
       y="1038.3622" />
    <path
       sodipodi:nodetypes="ccccc"
       inkscape:connector-curvature="0"
       id="path4184"
       d="m 5,1038.3622 c 1.10457,0 2,0.8954 2,2 l -1,0 c 0,-0.5523 -0.4477153,-1 -1,-1 z"
       style="opacity:1;fill:#e0e0e0;fill-opacity:1;stroke:none;stroke-width:2;stroke-linecap:butt;stroke-linejoin:round;stroke-miterlimit:4;stroke-dasharray:none;stroke-opacity:1" />
    <path
       sodipodi:nodetypes="ccccc"
       inkscape:connector-curvature="0"
       id="path4188"
       d="m 3,1051.3622 c -1.1045695,0 -2,-0.8954 -2,-2 l 1,0 c 0,0.5523 0.4477153,1 1,1 z"
       style="opacity:1;fill:#e0e0e0;fill-opacity:1;stroke:none;stroke-width:2;stroke-linecap:butt;stroke-linejoin:round;stroke-miterlimit:4;stroke-dasharray:none;stroke-opacity:1" />
    <rect
       y="1040.3622"
       x="7"
       height="1"
       width="4"
       id="rect4192"
       style="opacity:1;fill:#e0e0e0;fill-opacity:1;stroke:none;stroke-width:2;stroke-linecap:butt;stroke-linejoin:round;stroke-miterlimit:4;stroke-dasharray:none;stroke-opacity:1" />
    <path
       d="M 7,1041.3622 A 1,1 0 0 1 6.2928932,1041.0693 1,1 0 0 1 6,1040.3622 l 1,0 z"
       sodipodi:end="3.1415927"
       sodipodi:start="1.5707963"
       sodipodi:ry="1"
       sodipodi:rx="1"
       sodipodi:cy="1040.3622"
       sodipodi:cx="7"
       sodipodi:type="arc"
       id="path4208"
       style="opacity:1;fill:#e0e0e0;fill-opacity:1;stroke:none;stroke-width:2;stroke-linecap:butt;stroke-linejoin:round;stroke-miterlimit:4;stroke-dasharray:none;stroke-opacity:1" />
    <path
       style="opacity:1;fill:#e0e0e0;fill-opacity:1;stroke:none;stroke-width:2;stroke-linecap:butt;stroke-linejoin:round;stroke-miterlimit:4;stroke-dasharray:none;stroke-opacity:1"
       id="path4210"
       sodipodi:type="arc"
       sodipodi:cx="-11"
       sodipodi:cy="-1041.3622"
       sodipodi:rx="1"
       sodipodi:ry="1"
       sodipodi:start="1.5707963"
       sodipodi:end="3.1415927"
       d="m -11,-1040.3622 a 1,1 0 0 1 -0.707107,-0.2929 A 1,1 0 0 1 -12,-1041.3622 l 1,0 z"
       transform="scale(-1,-1)" />
  </g>
</svg>
