<?xml version="1.0" encoding="UTF-8" standalone="no"?>
<!-- Created with Inkscape (http://www.inkscape.org/) -->

<svg
   xmlns:dc="http://purl.org/dc/elements/1.1/"
   xmlns:cc="http://creativecommons.org/ns#"
   xmlns:rdf="http://www.w3.org/1999/02/22-rdf-syntax-ns#"
   xmlns:svg="http://www.w3.org/2000/svg"
   xmlns="http://www.w3.org/2000/svg"
   xmlns:sodipodi="http://sodipodi.sourceforge.net/DTD/sodipodi-0.dtd"
   xmlns:inkscape="http://www.inkscape.org/namespaces/inkscape"
   width="16"
   height="16"
   viewBox="0 0 16 16"
   id="svg2"
   version="1.1"
   inkscape:version="0.91 r13725"
   inkscape:export-filename="/home/djrm/Projects/godot/tools/editor/icons/icon_button_group.png"
   inkscape:export-xdpi="90"
   inkscape:export-ydpi="90"
   sodipodi:docname="icon_button_group.svg">
  <defs
     id="defs4" />
  <sodipodi:namedview
     id="base"
     pagecolor="#ffffff"
     bordercolor="#666666"
     borderopacity="1.0"
     inkscape:pageopacity="0.0"
     inkscape:pageshadow="2"
     inkscape:zoom="32"
     inkscape:cx="3.5392558"
     inkscape:cy="8.9453899"
     inkscape:document-units="px"
     inkscape:current-layer="layer1"
     showgrid="true"
     units="px"
     inkscape:snap-bbox="true"
     inkscape:bbox-paths="true"
     inkscape:bbox-nodes="true"
     inkscape:snap-bbox-edge-midpoints="true"
     inkscape:snap-bbox-midpoints="true"
     inkscape:snap-object-midpoints="true"
     inkscape:snap-center="true"
     inkscape:window-width="1920"
     inkscape:window-height="1016"
     inkscape:window-x="0"
     inkscape:window-y="27"
     inkscape:window-maximized="1">
    <inkscape:grid
       type="xygrid"
       id="grid3336"
       empspacing="4" />
  </sodipodi:namedview>
  <metadata
     id="metadata7">
    <rdf:RDF>
      <cc:Work
         rdf:about="">
        <dc:format>image/svg+xml</dc:format>
        <dc:type
           rdf:resource="http://purl.org/dc/dcmitype/StillImage" />
        <dc:title />
      </cc:Work>
    </rdf:RDF>
  </metadata>
  <g
     inkscape:label="Layer 1"
     inkscape:groupmode="layer"
     id="layer1"
     transform="translate(0,-1036.3622)">
    <rect
       style="opacity:1;fill:#a5efac;fill-opacity:1;stroke:none;stroke-width:2;stroke-linecap:butt;stroke-linejoin:round;stroke-miterlimit:4;stroke-dasharray:none;stroke-dashoffset:0;stroke-opacity:1"
       id="rect4172"
       width="1"
       height="10"
       x="0"
       y="1039.3622" />
    <rect
       y="1039.3622"
       x="15"
       height="10"
       width="1"
       id="rect4174"
       style="opacity:1;fill:#a5efac;fill-opacity:1;stroke:none;stroke-width:2;stroke-linecap:butt;stroke-linejoin:round;stroke-miterlimit:4;stroke-dasharray:none;stroke-dashoffset:0;stroke-opacity:1" />
    <path
       style="opacity:1;fill:#a5efac;fill-opacity:1;stroke:none;stroke-width:2;stroke-linecap:butt;stroke-linejoin:round;stroke-miterlimit:4;stroke-dasharray:none;stroke-dashoffset:0;stroke-opacity:1"
       id="path4176"
       sodipodi:type="arc"
       sodipodi:cx="1"
       sodipodi:cy="1049.3622"
       sodipodi:rx="1"
       sodipodi:ry="1"
       sodipodi:start="0"
       sodipodi:end="4.712389"
       d="m 2,1049.3622 a 1,1 0 0 1 -0.6173166,0.9239 1,1 0 0 1 -1.08979019,-0.2168 1,1 0 0 1 -0.21677274,-1.0898 A 1,1 0 0 1 1,1048.3622 l 0,1 z" />
    <rect
       y="-15"
       x="1049.3622"
       height="14"
       width="1"
       id="rect4178"
       style="opacity:1;fill:#a5efac;fill-opacity:1;stroke:none;stroke-width:2;stroke-linecap:butt;stroke-linejoin:round;stroke-miterlimit:4;stroke-dasharray:none;stroke-dashoffset:0;stroke-opacity:1"
       transform="matrix(0,1,-1,0,0,0)" />
    <path
       d="m -14,1049.3622 a 1,1 0 0 1 -0.617317,0.9239 1,1 0 0 1 -1.08979,-0.2168 1,1 0 0 1 -0.216773,-1.0898 1,1 0 0 1 0.92388,-0.6173 l 0,1 z"
       sodipodi:end="4.712389"
       sodipodi:start="0"
       sodipodi:ry="1"
       sodipodi:rx="1"
       sodipodi:cy="1049.3622"
       sodipodi:cx="-15"
       sodipodi:type="arc"
       id="path4180"
       style="opacity:1;fill:#a5efac;fill-opacity:1;stroke:none;stroke-width:2;stroke-linecap:butt;stroke-linejoin:round;stroke-miterlimit:4;stroke-dasharray:none;stroke-dashoffset:0;stroke-opacity:1"
       transform="scale(-1,1)" />
    <path
       d="m 2,-1039.3622 a 1,1 0 0 1 -0.6173166,0.9239 1,1 0 0 1 -1.08979019,-0.2168 1,1 0 0 1 -0.21677274,-1.0898 A 1,1 0 0 1 1,-1040.3622 l 0,1 z"
       sodipodi:end="4.712389"
       sodipodi:start="0"
       sodipodi:ry="1"
       sodipodi:rx="1"
       sodipodi:cy="-1039.3622"
       sodipodi:cx="1"
       sodipodi:type="arc"
       id="path4182"
       style="opacity:1;fill:#a5efac;fill-opacity:1;stroke:none;stroke-width:2;stroke-linecap:butt;stroke-linejoin:round;stroke-miterlimit:4;stroke-dasharray:none;stroke-dashoffset:0;stroke-opacity:1"
       transform="scale(1,-1)" />
    <path
       transform="scale(-1,-1)"
       style="opacity:1;fill:#a5efac;fill-opacity:1;stroke:none;stroke-width:2;stroke-linecap:butt;stroke-linejoin:round;stroke-miterlimit:4;stroke-dasharray:none;stroke-dashoffset:0;stroke-opacity:1"
       id="path4184"
       sodipodi:type="arc"
       sodipodi:cx="-15"
       sodipodi:cy="-1039.3622"
       sodipodi:rx="1"
       sodipodi:ry="1"
       sodipodi:start="0"
       sodipodi:end="4.712389"
       d="m -14,-1039.3622 a 1,1 0 0 1 -0.617317,0.9239 1,1 0 0 1 -1.08979,-0.2168 1,1 0 0 1 -0.216773,-1.0898 1,1 0 0 1 0.92388,-0.6173 l 0,1 z" />
    <rect
       transform="matrix(0,1,-1,0,0,0)"
       style="opacity:1;fill:#a5efac;fill-opacity:1;stroke:none;stroke-width:2;stroke-linecap:butt;stroke-linejoin:round;stroke-miterlimit:4;stroke-dasharray:none;stroke-dashoffset:0;stroke-opacity:1"
       id="rect4186"
       width="1"
       height="14"
       x="1038.3622"
       y="-15" />
    <rect
       style="opacity:1;fill:#a5efac;fill-opacity:1;stroke:none;stroke-width:2;stroke-linecap:butt;stroke-linejoin:round;stroke-miterlimit:4;stroke-dasharray:none;stroke-dashoffset:0;stroke-opacity:1"
       id="rect4188"
       width="4"
       height="6.0000172"
       x="3"
       y="1041.3622" />
    <rect
       y="1041.3622"
       x="9"
       height="6.0000172"
       width="4"
       id="rect4190"
       style="opacity:1;fill:#a5efac;fill-opacity:1;stroke:none;stroke-width:2;stroke-linecap:butt;stroke-linejoin:round;stroke-miterlimit:4;stroke-dasharray:none;stroke-dashoffset:0;stroke-opacity:1" />
    <rect
       y="1045.3622"
       x="3"
       height="1.9999998"
       width="4"
       id="rect4192"
       style="opacity:1;fill:#98dc9f;fill-opacity:1;stroke:none;stroke-width:2;stroke-linecap:butt;stroke-linejoin:round;stroke-miterlimit:4;stroke-dasharray:none;stroke-dashoffset:0;stroke-opacity:1" />
    <rect
       style="opacity:1;fill:#98dc9f;fill-opacity:1;stroke:none;stroke-width:2;stroke-linecap:butt;stroke-linejoin:round;stroke-miterlimit:4;stroke-dasharray:none;stroke-dashoffset:0;stroke-opacity:1"
       id="rect4194"
       width="4"
       height="1.9999998"
       x="9"
       y="1045.3622" />
  </g>
</svg>
