<?xml version="1.0" encoding="UTF-8" standalone="no"?>
<!-- Created with Inkscape (http://www.inkscape.org/) -->

<svg
   xmlns:dc="http://purl.org/dc/elements/1.1/"
   xmlns:cc="http://creativecommons.org/ns#"
   xmlns:rdf="http://www.w3.org/1999/02/22-rdf-syntax-ns#"
   xmlns:svg="http://www.w3.org/2000/svg"
   xmlns="http://www.w3.org/2000/svg"
   xmlns:sodipodi="http://sodipodi.sourceforge.net/DTD/sodipodi-0.dtd"
   xmlns:inkscape="http://www.inkscape.org/namespaces/inkscape"
   width="16"
   height="16"
   viewBox="0 0 16 16"
   id="svg2"
   version="1.1"
   inkscape:version="0.92.1 r"
   inkscape:export-filename="/home/djrm/Projects/godot/tools/editor/icons/icon_center_container.png"
   inkscape:export-xdpi="90"
   inkscape:export-ydpi="90"
   sodipodi:docname="icon_v_scroll_bar.svg">
  <defs
     id="defs4" />
  <sodipodi:namedview
     id="base"
     pagecolor="#ffffff"
     bordercolor="#666666"
     borderopacity="1.0"
     inkscape:pageopacity="0.0"
     inkscape:pageshadow="2"
     inkscape:zoom="32"
     inkscape:cx="4.199596"
     inkscape:cy="9.3134214"
     inkscape:document-units="px"
     inkscape:current-layer="layer1"
     showgrid="true"
     units="px"
     inkscape:snap-bbox="true"
     inkscape:bbox-paths="true"
     inkscape:bbox-nodes="true"
     inkscape:snap-bbox-edge-midpoints="true"
     inkscape:snap-bbox-midpoints="true"
     inkscape:snap-object-midpoints="true"
     inkscape:snap-center="true"
     inkscape:window-width="1600"
     inkscape:window-height="836"
     inkscape:window-x="0"
     inkscape:window-y="27"
     inkscape:window-maximized="1"
     inkscape:object-nodes="true"
     inkscape:snap-intersection-paths="true"
     inkscape:object-paths="true"
     inkscape:snap-smooth-nodes="true">
    <inkscape:grid
       type="xygrid"
       id="grid3336" />
  </sodipodi:namedview>
  <metadata
     id="metadata7">
    <rdf:RDF>
      <cc:Work
         rdf:about="">
        <dc:format>image/svg+xml</dc:format>
        <dc:type
           rdf:resource="http://purl.org/dc/dcmitype/StillImage" />
        <dc:title />
      </cc:Work>
    </rdf:RDF>
  </metadata>
  <g
     inkscape:label="Layer 1"
     inkscape:groupmode="layer"
     id="layer1"
     transform="translate(0,-1036.3622)">
    <path
       style="fill:#a5efac;fill-opacity:1;stroke:none;stroke-width:2;stroke-linecap:round;stroke-linejoin:round;stroke-miterlimit:4;stroke-dasharray:none;stroke-opacity:1"
       d="M 5 1 C 3.8919904 1 3 1.8919904 3 3 L 3 13 C 3 14.10801 3.8919904 15 5 15 L 11 15 C 12.10801 15 13 14.10801 13 13 L 13 3 C 13 1.8919904 12.10801 1 11 1 L 5 1 z M 7.9882812 2 A 1.0001 1.0001 0 0 1 8.5546875 2.1679688 L 11.554688 4.1679688 A 1.0001 1.0001 0 1 1 10.445312 5.8320312 L 8 4.203125 L 5.5546875 5.8320312 A 1.0001 1.0001 0 1 1 4.4453125 4.1679688 L 7.4453125 2.1679688 A 1.0001 1.0001 0 0 1 7.9882812 2 z M 4.9902344 9.9921875 A 1.0001 1.0001 0 0 1 5.5546875 10.167969 L 8 11.798828 L 10.445312 10.167969 A 1.0001 1.0001 0 1 1 11.554688 11.832031 L 8.5546875 13.832031 A 1.0001 1.0001 0 0 1 7.4453125 13.832031 L 4.4453125 11.832031 A 1.0001 1.0001 0 0 1 4.9902344 9.9921875 z "
       transform="translate(0,1036.3622)"
       id="rect825" />
  </g>
</svg>
