<svg height="16" viewBox="0 0 16 16" width="16" xmlns="http://www.w3.org/2000/svg"><circle cx="3" cy="3.000024" fill="#6e6e6e" r="0"/><path d="m11 10a2 2 0 0 0 -1.7324 1 2 2 0 0 0 0 2 2 2 0 0 0 1.7324 1h-2v2h2a2 2 0 0 0 1.7324-1 2 2 0 0 0 0-2 2 2 0 0 0 -1.7324-1h2v-2z" fill="#e0e0e0"/><path d="m3 10v6h2a3 3 0 0 0 3-3v-3h-2v3a1 1 0 0 1 -1 1v-4z" fill="#e0e0e0"/><path d="m7 1-.56445 2.2578a5 5 0 0 0 -.68945.2793l-1.9883-1.1934-1.4141 1.4141 1.1953 1.9941a5 5 0 0 0 -.28516.68555l-2.2539.5625v2h5.2715a2 2 0 0 1 -.27148-1 2 2 0 0 1 2-2 2 2 0 0 1 2 2 2 2 0 0 1 -.26953 1h5.2695v-2l-2.2578-.56445a5 5 0 0 0 -.2793-.6875l1.1934-1.9902-1.4141-1.4141-1.9941 1.1953a5 5 0 0 0 -.68555-.28516l-.5625-2.2539h-2z" fill="none" stroke="#e0e0e0"/></svg>
