<svg width="16" height="16" version="1.1" viewBox="0 0 16 16" xmlns="http://www.w3.org/2000/svg">
<g transform="translate(0 -1036.4)">
<ellipse cx="3" cy="1039.4" r="2" fill="#6e6e6e"/>
<path transform="translate(0 1036.4)" d="m7 1l-0.56445 2.2578a5 5 0 0 0 -0.68945 0.2793l-1.9883-1.1934-1.4141 1.4141 1.1953 1.9941a5 5 0 0 0 -0.28516 0.68555l-2.2539 0.5625v2h5.2715a2 2 0 0 1 -0.27148 -1 2 2 0 0 1 2 -2 2 2 0 0 1 2 2 2 2 0 0 1 -0.26953 1h5.2695v-2l-2.2578-0.56445a5 5 0 0 0 -0.2793 -0.6875l1.1934-1.9902-1.4141-1.4141-1.9941 1.1953a5 5 0 0 0 -0.68555 -0.28516l-0.5625-2.2539h-2zm-4 9v6h2a3 3 0 0 0 3 -3v-3h-2v3a1 1 0 0 1 -1 1v-4h-2zm8 0a2 2 0 0 0 -1.7324 1 2 2 0 0 0 0 2 2 2 0 0 0 1.7324 1h-2v2h2a2 2 0 0 0 1.7324 -1 2 2 0 0 0 0 -2 2 2 0 0 0 -1.7324 -1h2v-2h-2z" fill="#e0e0e0"/>
</g>
</svg>
