<svg width="16" height="16" version="1.1" viewBox="0 0 16 16" xmlns="http://www.w3.org/2000/svg">
<g transform="translate(0 -1036.4)">
<path d="m6 1046.4c-1.6569 0-3 1.3431-3 3s1.3431 3 3 3h1v-2h-1c-0.55228 0-1-0.4478-1-1 0-0.5523 0.44772-1 1-1h1v-2zm1-9-0.56445 2.2578c-0.23643 0.076-0.46689 0.1692-0.68945 0.2793l-1.9883-1.1933-1.4141 1.414 1.1953 1.9942c-0.11191 0.2211-0.20723 0.4502-0.28516 0.6855l-2.2539 0.5625v2h5.2715c-0.17677-0.3037-0.27041-0.6486-0.27148-1 9.6e-6 -1.1046 0.89543-2 2-2s2 0.8954 2 2c-4.817e-4 0.3512-0.093442 0.6961-0.26953 1h5.2695v-2l-2.2578-0.5645c-0.07594-0.2357-0.1693-0.4655-0.2793-0.6875l1.1934-1.9902-1.4141-1.414-1.9941 1.1953c-0.22113-0.1119-0.45028-0.2073-0.68555-0.2852l-0.5625-2.2539zm4 9c-0.71466-1e-4 -1.3751 0.3811-1.7324 1-0.35727 0.6188-0.35727 1.3812 0 2 0.35733 0.6189 1.0178 1.0001 1.7324 1h-2v2h2c0.71466 1e-4 1.3751-0.3811 1.7324-1 0.35727-0.6188 0.35727-1.3812 0-2-0.35733-0.6189-1.0178-1.0001-1.7324-1h2v-2z" fill="#e0e0e0"/>
</g>
</svg>
