<svg height="16" viewBox="0 0 16 16" width="16" xmlns="http://www.w3.org/2000/svg"><path d="m6 1046.4c-1.6569 0-3 1.3431-3 3s1.3431 3 3 3h1v-2h-1c-.55228 0-1-.4478-1-1 0-.5523.44772-1 1-1h1v-2zm1-9-.56445 2.2578c-.23643.076-.46689.1692-.68945.2793l-1.9883-1.1933-1.4141 1.414 1.1953 1.9942c-.11191.2211-.20723.4502-.28516.6855l-2.2539.5625v2h5.2715c-.17677-.3037-.27041-.6486-.27148-1 .0000096-1.1046.89543-2 2-2s2 .8954 2 2c-.0004817.3512-.093442.6961-.26953 1h5.2695v-2l-2.2578-.5645c-.07594-.2357-.1693-.4655-.2793-.6875l1.1934-1.9902-1.4141-1.414-1.9941 1.1953c-.22113-.1119-.45028-.2073-.68555-.2852l-.5625-2.2539zm4 9c-.71466-.0001-1.3751.3811-1.7324 1-.35727.6188-.35727 1.3812 0 2 .35733.6189 1.0178 1.0001 1.7324 1h-2v2h2c.71466.0001 1.3751-.3811 1.7324-1 .35727-.6188.35727-1.3812 0-2-.35733-.6189-1.0178-1.0001-1.7324-1h2v-2z" fill="#e0e0e0" transform="translate(0 -1036.4)"/></svg>
