<svg xmlns="http://www.w3.org/2000/svg" width="1024" height="1024">
<path d="M159.143 69.856v884.288h705.714v-665.51L646.08 69.856z" fill="#fff" stroke="#d2d2d2" stroke-width="20"/>
<g stroke-width=".32">
	<path d="M723.128 594.284s-.701-4.304-1.111-4.265l-78.083 7.534a12.691 12.691 0 0 0-11.474 11.78l-2.145 30.747-60.408 4.31-4.11-27.866c-.914-6.198-6.326-10.87-12.591-10.87h-82.412c-6.263 0-11.675 4.672-12.59 10.87l-4.111 27.865-60.408-4.31-2.145-30.745a12.692 12.692 0 0 0-11.475-11.783l-78.12-7.532c-.404-.039-.7 4.269-1.104 4.269l-.105 16.897 66.161 10.67 2.167 31.02c.438 6.28 5.505 11.357 11.79 11.808l83.194 5.935c.315.022.626.035.937.035 6.252 0 11.655-4.675 12.57-10.873l4.228-28.671h60.436l4.228 28.671c.913 6.196 6.323 10.87 12.583 10.87.307 0 .613-.01.913-.032l83.206-5.935c6.282-.45 11.351-5.528 11.79-11.808l2.164-31.02 66.133-10.717z" fill="#fff"/>
	<path d="M300.84 466.87v127.413c.233.003.466.011.697.033l78.113 7.531a8.41 8.41 0 0 1 7.583 7.789l2.409 34.481 68.138 4.862 4.694-31.825a8.41 8.41 0 0 1 8.321-7.184h82.412a8.41 8.41 0 0 1 8.32 7.184l4.693 31.825 68.14-4.862 2.407-34.481a8.414 8.414 0 0 1 7.583-7.789l78.082-7.531c.231-.022.462-.03.695-.033v-10.166l.033-.01V466.87h.289c10.348-13.207 19.923-27.124 29.105-41.972-12.195-20.76-27.137-39.313-43.109-56.502-14.813 7.456-29.2 15.903-42.79 24.891-6.8-6.759-14.458-12.288-21.981-18.067-7.392-5.937-15.722-10.29-23.622-15.361 2.352-17.517 3.515-34.762 3.983-52.76-20.385-10.26-42.123-17.062-64.111-21.947-8.779 14.754-16.807 30.732-23.799 46.352-8.291-1.385-16.621-1.899-24.962-1.998v-.013c-.058 0-.112.013-.162.013-.052 0-.106-.013-.157-.013v.013c-8.356.1-16.68.613-24.973 1.998-6.988-15.62-15.012-31.598-23.804-46.352-21.977 4.885-43.717 11.688-64.1 21.947.466 17.998 1.63 35.243 3.988 52.76-7.916 5.071-16.235 9.424-23.629 15.36-7.512 5.78-15.184 11.31-21.986 18.068-13.589-8.988-27.972-17.435-42.79-24.89-15.971 17.188-30.905 35.74-43.104 56.501 9.178 14.848 18.76 28.765 29.105 41.972z" fill="#478cbf"/>
	<path d="M653.052 617.91l-2.42 34.664a8.413 8.413 0 0 1-7.792 7.803l-83.204 5.937a8.412 8.412 0 0 1-8.92-7.165l-4.77-32.357h-67.89l-4.772 32.358c-.64 4.354-4.534 7.486-8.92 7.164l-83.203-5.937a8.413 8.413 0 0 1-7.792-7.803l-2.42-34.665-70.238-6.772c.033 7.55.13 15.819.13 17.465 0 74.181 94.102 109.836 211.016 110.246h.287c116.915-.41 210.984-36.065 210.984-110.246 0-1.676.101-9.912.136-17.465z" fill="#478cbf"/>
	<path d="M448.344 518.591c0 26.01-21.074 47.078-47.074 47.078-25.987 0-47.067-21.069-47.067-47.078 0-25.991 21.08-47.05 47.067-47.05 26 0 47.074 21.059 47.074 47.05" fill="#fff"/>
	<path d="M437.017 521.384c0 17.251-13.982 31.233-31.246 31.233-17.256 0-31.247-13.982-31.247-31.233 0-17.252 13.99-31.247 31.247-31.247 17.264 0 31.246 13.995 31.246 31.247" fill="#414042"/>
	<path d="M511.997 569.952c-8.37 0-15.152-6.168-15.152-13.77v-43.336c0-7.596 6.783-13.77 15.152-13.77 8.368 0 15.166 6.174 15.166 13.77v43.336c0 7.602-6.798 13.77-15.166 13.77M575.657 518.591c0 26.01 21.074 47.078 47.078 47.078 25.985 0 47.063-21.069 47.063-47.078 0-25.991-21.078-47.05-47.063-47.05-26.004 0-47.078 21.059-47.078 47.05" fill="#fff"/>
	<path d="M586.987 521.384c0 17.251 13.978 31.233 31.23 31.233 17.268 0 31.245-13.982 31.245-31.233 0-17.252-13.977-31.247-31.246-31.247-17.251 0-31.23 13.995-31.23 31.247" fill="#414042"/>
</g>
</svg>