<svg xmlns="http://www.w3.org/2000/svg" xmlns:xlink="http://www.w3.org/1999/xlink" width="902.647" height="948.893"><defs><linearGradient id="a" x1="125.253" x2="817.918" y1="75.586" y2="781.107" gradientUnits="userSpaceOnUse"><stop offset="0" stop-color="#ff1300"/><stop offset="1" stop-color="#ff6e01"/></linearGradient></defs><path fill="url(#a)" d="M330.265 0l-22.994 72.638-75.133 32.498c-26.571-5.596-53.214-12.077-80.143-15.324-4.259 4.783-111.805 170.181-111.776 171.89 4.956 12.133 13.464 22.569 19.901 33.923l391.203 137.401 391.198-137.401c6.437-11.354 14.95-21.79 19.901-33.923 0-1.709-107.522-167.107-111.781-171.89-26.929 3.25-53.567 9.728-80.138 15.324l-75.133-32.498L572.372 0zM89.919 345.598c-.484-.176-1.452.57-1.452.816L74.548 461.691l23.836 103.038 180.332 81.92 172.651-64.559 172.656 64.559 180.332-81.92 23.836-103.038-13.919-115.277c0-.317-1.742-1.512-1.742-.317L451.396 470.083 90.253 346.098c0-.282 0-.45-.484-.503zm84.745 87.507l168.813 62.318a91.941 91.916 0 0 1-4.404 17.907 91.941 91.916 0 0 1-118.101 54.388 91.941 91.916 0 0 1-54.404-118.067 91.941 91.916 0 0 1 8.092-16.545zm553.313 0a91.941 91.916 0 0 1 8.092 16.545 91.941 91.916 0 0 1-54.404 118.067 91.941 91.916 0 0 1-118.101-54.388 91.941 91.916 0 0 1-4.404-17.907zM43.302 502.642L0 545.542l64.878 227.426 205.039 84.083-11.03-176.917L64.433 589.67zm816.038 0l-21.131 87.027-194.449 90.465-11.035 176.917 205.044-84.083 64.878-227.426zM451.323 619.785l-153.761 60.837 9.331 191.117 144.425 58.824 144.425-58.824 9.336-191.117z"/><rect width="430" height="330" x="460.933" y="608.893" fill="#414042" stroke="#fff" stroke-width="20" rx="20"/><path fill="#fff" d="M500.933 708.893a10 10 0 0 0 0 14.142l70 70-70 70a10 10 0 0 0 0 14.142l20 20a10 10 0 0 0 14.142 0l97.071-97.071a10 10 0 0 0 0-14.142l-97.071-97.071a10 10 0 0 0-14.142 0zm180 145a10 10 0 0 0-10 10v25a10 10 0 0 0 10 10h160a10 10 0 0 0 10-10v-25a10 10 0 0 0-10-10z"/></svg>