<svg xmlns="http://www.w3.org/2000/svg" xmlns:xlink="http://www.w3.org/1999/xlink" width="1024" height="1024"><defs><linearGradient xlink:href="#a" id="f" x1="635.831" x2="721.822" y1="589.778" y2="368.408" gradientTransform="translate(-16.947 -11.956)scale(1.03664)" gradientUnits="userSpaceOnUse"/><linearGradient id="a"><stop offset=".045" stop-color="#7f24ce"/><stop offset=".468" stop-color="#b846e4"/><stop offset=".848" stop-color="#d055ee"/><stop offset="1" stop-color="#f87cfe"/></linearGradient><linearGradient xlink:href="#b" id="e" x1="269.585" x2="488.27" y1="847.204" y2="393.079" gradientTransform="translate(-16.947 -11.956)scale(1.03664)" gradientUnits="userSpaceOnUse"/><linearGradient id="b"><stop offset=".045" stop-color="#7f24ce"/><stop offset=".478" stop-color="#b846e4"/><stop offset=".848" stop-color="#d055ee"/><stop offset="1" stop-color="#f87cfe"/></linearGradient><linearGradient xlink:href="#c" id="d" x1="496.519" x2="635.831" y1="813.477" y2="589.778" gradientTransform="translate(-16.947 -11.956)scale(1.03664)" gradientUnits="userSpaceOnUse"/><linearGradient id="c"><stop offset=".045" stop-color="#7f24ce"/><stop offset=".468" stop-color="#b846e4"/><stop offset=".825" stop-color="#d055ee"/><stop offset="1" stop-color="#f87cfe"/></linearGradient></defs><path fill="url(#d)" d="m 521.28745,585.60847 c 71.23628,-3.91903 134.89236,62.84498 127.59419,133.82498 -2.4485,65.72039 -63.52074,123.49801 -130.0753,117.01885 -77.30198,2.83742 -137.13148,-80.10447 -118.549,-152.91143 11.04385,-56.02326 64.33718,-97.91729 121.03011,-97.9324 z" paint-order="markers stroke fill" style="mix-blend-mode:normal"/><path fill="url(#e)" d="m 277.61353,35.521453 c 15.57111,31.99878 40.98974,61.09768 50.83204,96.810367 28.382,74.40024 7.78485,156.42949 -29.14727,223.88715 -56.56988,111.08147 -111.47219,233.56588 -95.64586,361.15485 15.98433,115.25862 97.90936,221.02132 210.66799,255.2406 113.18937,37.78368 246.5376,0.14746 322.42711,-92.2186 C 788.81855,819.69107 819.1433,735.59229 804.87443,655.66697 783.16569,566.79943 713.91413,492.84334 626.32807,466.07785 573.2562,448.34491 520.93532,421.82771 485.94873,376.90714 c -8.70548,28.57527 -18.5936,64.18318 -28.97741,96.07779 -9.79908,34.53979 -24.46177,68.05818 -31.52648,103.1379 29.06071,-11.4284 63.15881,-31.16015 98.4082,-28.49558 88.72325,-1.71978 166.75211,79.32871 163.24942,167.76826 -0.71564,86.36446 -79.43819,163.06213 -166.20611,159.59985 C 434.46043,875.3863 360.37807,798.87923 357.79203,713.52279 356.60728,648.74998 382.93439,587.40705 400.68798,526.04607 435.05807,424.17695 468.01169,316.01883 454.72458,207.352 447.95979,131.51721 395.62568,57.995483 318.91846,41.461513 c -13.47958,-3.47312 -27.3229,-6.21132 -41.30493,-5.94006 z" paint-order="markers stroke fill" style="mix-blend-mode:normal"/><path fill="url(#f)" d="m 570.0036,91.141813 c -34.76774,24.146717 -67.06497,58.931797 -77.78434,100.602447 7.37507,44.24643 2.21431,89.43693 1.54591,133.60688 18.92531,66.76789 88.07738,97.21734 148.31363,117.53711 73.44154,25.33962 137.13386,79.09767 168.37649,150.99666 7.28885,14.20442 32.34909,76.20619 29.59951,25.15387 C 842.55384,530.97273 805.09613,442.44026 736.15397,386.59993 685.24945,340.89394 613.34005,316.17762 581.88653,251.06023 554.64969,203.28133 556.26219,144.72529 572.44539,93.583583 l -1.22089,-1.22089 z" paint-order="markers stroke fill" style="mix-blend-mode:normal"/><rect width="309.872" height="210.528" x="673.505" y="772.849" fill="#414042" stroke="#fff" stroke-width="18.886" rx="14.413"/><path fill="#fff" d="m 702.78361,817.67017 a 7.1804097,7.1804097 0 0 0 0,10.15453 l 50.26287,50.26287 -50.26287,50.26287 a 7.1804097,7.1804097 0 0 0 0,10.15453 l 14.36082,14.36082 a 7.1804097,7.1804097 0 0 0 10.15454,0 l 69.70095,-69.70095 a 7.1804097,7.1804097 0 0 0 0,-10.15454 l -69.70095,-69.70095 a 7.1804097,7.1804097 0 0 0 -10.15454,0 z m 129.24738,104.11594 a 7.1804097,7.1804097 0 0 0 -7.18041,7.18041 v 17.95102 a 7.1804097,7.1804097 0 0 0 7.18041,7.18041 h 114.88655 a 7.1804097,7.1804097 0 0 0 7.18041,-7.18041 v -17.95102 a 7.1804097,7.1804097 0 0 0 -7.18041,-7.18041 z"/></svg>