<svg xmlns="http://www.w3.org/2000/svg" viewBox="0 0 999 999"><rect fill="#1e1a21" x="8" y="8" width="983" height="983" rx="176" stroke-width="16" stroke="#2e2832"/><g fill="#fff"><path d="M102 657v32q397 345 795 0v-32z"/><path fill="#478cbf" d="M128 232q-46 48-81 106 26 41 55 79v240l149 14q12 2 14 15l4 64 128 10 9-60q2-11 14-14H579q12 3 14 15l8 59 129-9 4-67q4-12 14-13l149-14V417q29-38 55-79-35-57-81-106-42 21-80 46-39-35-86-62 6-50 7-100-56-27-120-41-25 41-45 87-48-7-95 0-19-44-45-87-62 13-120 41 1 50 7 100-46 26-86 62-39-26-80-46M102 689v39c3 272 798 267 795 0v-39l-132 12-5 67q-1 10-13 13l-157 11q-12 1-17-10l-10-64H436l-10 63q-3 10-13 11l-161-11q-10-2-13-12l-5-68Z"/><path d="M471 502v84c3 33 54 33 57 0v-84c-3-32-53-33-57 0"/><circle cx="708" cy="514" r="88"/><circle cx="291" cy="514" r="88"/></g><g fill="#414042"><circle cx="300" cy="520" r="59"/><circle cx="700" cy="520" r="59"/></g></svg>
