<?xml version="1.0" encoding="UTF-8"?>
<svg id="Logo" xmlns="http://www.w3.org/2000/svg" width="128" height="128" viewBox="0 0 388 388">
  <g id="Graphics">
    <rect id="Background" width="388" height="388" rx="80" ry="80" fill="#478cbf" shape-rendering="geometricPrecision"/>
    <g id="Mark">
      <path d="M223.1094,363.5c-4.0879,0-7.1895-1.2598-9.2188-3.7451-4.1934-5.144-1.0781-10.9165,1.1963-15.1313,2.1318-3.9502,4.5479-8.4272,3.583-12.9863-2.0088-9.5015-23.7158-13.6021-34.1475-15.5728-1.3516-.2554-2.6191-.4951-3.7783-.7256-56.4941-11.2568-106.835-52.9038-117.979-72.0732-1.6118-2.772-3.5918-6.9463-2.1865-11.1733,.4751-1.4214,2.5425-6.0229,9.3535-6.0229,2.749,0,6.2139,.7202,10.9009,1.9033-17.4189-6.4243-32.5908-15.1763-44.8511-26.0464l-.8394-.7393c-8.5068-7.4868-26.208-23.0649-26.1426-46.2749,.0552-24.8887,17.8452-45.4668,25.4419-54.2539,21.7471-24.9756,56.146-45.2192,99.4937-58.5615,36.8652-11.3477,79.9727-17.5967,121.3809-17.5967,31.0312,0,58.7578,3.4087,80.1816,9.8574,24.4258,7.353,38.4443,17.9448,41.6641,31.4819,2.6777,11.2505-2.5771,23.8716-16.0098,38.2329,1.8564-.9814,3.6455-1.4727,5.6094-1.4727,1.9004,0,3.7617,.5439,5.3818,1.5732,6.6338,4.2046,8.4805,15.9224,5.4834,34.8237-2.6348,16.6147-8.5596,34.7021-16.2539,49.624-1.6367,3.1763-4.3057,7.8706-8.2646,13.4976,2.7939-1.7593,5.2402-2.6777,7.7695-2.6777,2.4287,0,4.7207,.9082,6.4551,2.5571,3.9131,3.7202,4.5195,10.1187,1.9639,20.7446-1.5645,6.5059-4.3193,14.5234-7.5566,21.9971-17.6309,40.6685-49.2695,69.7705-72.707,87.0229-24.9814,18.3892-52.7061,31.7368-65.9238,31.7378Zm4.0576-130.7671c-17.2803,4.1147-35.085,6.6997-52.9541,7.6406,18.6172-.5454,36.1689-3.0718,52.9541-7.6406Zm-10.5479-161.5342c-25.1279,0-74.1289,4.2334-119.9883,32.5884-.8818,.5449-1.8584,1.1396-2.9121,1.7808-11.8916,7.2407-39.7393,24.1973-38.7407,40.5908,.3604,5.8125,4.2373,10.4058,7.5742,13.7578,13.3086,13.377,41.3374,29.3203,99.3032,29.3203,1.3096,0,2.623-.0078,3.9639-.0249,29.3154-.3687,84.6182-4.8252,125.6221-30.5308,22.0996-13.8511,34.5137-24.1577,34.6367-24.2603,.0303-.0254,.0635-.0522,.0938-.0771,3.5986-2.9014,6.8389-5.6436,9.7598-8.1992-18.8145,14.1738-38.0469,25.1758-43.7295,28.3374-47.0127,26.2109-89.1475,27.7661-107.1396,28.4302-3.4336,.126-7.0664,.1899-10.7988,.1899-23.7246,.0005-49.1455-2.5-68.001-6.6895-27.1958-6.0425-40.5576-15.1421-40.8491-27.8184-.6182-27.584,64.979-57.645,114.3921-59.9521,2.4199-.1118,4.9268-.1685,7.4561-.1685,10.2881,0,20.7627,.9351,28.7383,2.5649,8.3203,1.7002,17.9365,4.6948,18.4551,12.8281,.7334,11.4409-15.6631,16.3955-62.7061,27.6367-9.3018,2.2227-20.5195,4.9033-29.2793,7.3721,3.6162,.2705,7.915,.4443,12.9199,.4443,9.4375,0,19.335-.6226,28.6221-1.8008,24.249-3.0464,53.3887-11.0391,76.0547-20.8604,25.5098-11.0527,34.3105-20.7988,33.8652-24.3462-.3281-2.5728-6.0859-8.1982-20.5957-13.0952-15.3232-5.1709-35.4658-8.0186-56.7168-8.0186Z" fill="#fff" shape-rendering="geometricPrecision"/>
      <path d="M255.3173,31.5c60.3951,0,109.6951,13.5082,115.0347,35.9591,7.3954,31.0644-74.9778,77.2477-81.5536,80.9058-44.655,24.8962-85.2903,26.8615-103.9933,27.5522-3.3439,.1227-6.8796,.1852-10.542,.1852-41.9346,0-101.4029-8.1728-101.8515-27.6694-.4489-20.0222,56.6846-50.4153,107.7203-52.7989,2.3411-.108,4.7308-.1605,7.1277-.1605,19.6282,0,39.871,3.5152,40.2101,8.8387,.7903,12.3363-104.8518,26.6183-104.647,36.1624,.0847,3.5277,14.1592,5.8453,32.5676,5.8453,9.1579,0,19.3868-.5733,29.5026-1.8564,50.7234-6.3724,118.501-32.9713,115.9838-53.0227-1.7806-13.9594-37.6085-27.2395-84.2579-27.2423-38.2072-.0023-83.6686,8.9019-123.6701,33.6343-12.8882,7.968-46.3038,26.6572-44.9574,48.7517,.5073,8.1917,5.5904,14.2432,9.6003,18.2709,9.5873,9.6366,36.4224,31.3818,104.2654,31.3818,1.3342,0,2.6837-.0084,4.0499-.0255,23.9617-.3016,84.4024-3.483,129.2526-31.5996,22.8494-14.321,35.4059-24.8185,35.4059-24.8185,22.8292-18.4055,31.171-30.1928,36.196-30.1942,.5822-.0002,1.1189,.1579,1.6294,.4821,7.7661,4.9228,2.8391,44.1498-13.2394,75.331-3.0928,6.0028-17.7175,33.273-55.4163,56.5348-59.9334,36.9504-117.2814,35.3743-117.0961,37.5342,.0491,.5743,3.2707,1.0108,8.7543,1.0108,10.8664,0,30.621-1.7128,52.2134-7.4611,40.9475-10.8964,70.7142-31.5314,78.0803-36.7948,21.4446-15.3291,33.7856-29.7963,39.1909-29.7963,.6394,0,1.1809,.202,1.6298,.6291,3.9708,3.7747-1.6195,22.0263-7.1904,34.8879-31.0946,71.7248-112.6597,114.5429-132.2083,114.5429-1.8579,0-3.1547-.3865-3.7957-1.1718-2.9269-3.59,8.7905-12.92,6.205-25.1396-3.2585-15.4106-30.3716-19.1173-43.4061-21.7149-64.4018-12.8325-117.8278-65.3395-114.8912-74.1733,.2875-.8601,1.1996-1.2308,2.7112-1.2308,8.7991,0,37.9504,12.547,82.9693,14.1411,3.7306,.1314,8.2915,.2753,13.5477,.2753,22.7585,0,58.6225-2.6931,97.2849-20.7449,41.6401-19.4481,68.8605-48.4208,68.08-49.8899-.0361-.0671-.1128-.0997-.2274-.0998-2.3284-.0013-20.4724,13.42-39.6273,23.9162-39.8023,21.811-87.8073,33.1063-132.9202,33.1063-46.6475,0-90.2028-12.0745-118.414-37.0855-7.4051-6.5475-24.6837-20.9561-24.6251-41.7565,.0489-22.036,16.2932-41.0852,23.7373-49.6953C85.2053,53.0193,179.0958,31.5,255.3173,31.5m0-14c-42.0877,0-85.9266,6.3593-123.441,17.9062-21.1575,6.5123-40.3132,14.6286-56.9352,24.1233-18.4402,10.5332-33.8367,22.8181-45.7619,36.5134-8.1373,9.4118-27.1179,31.3654-27.179,58.8579-.0742,26.3778,19.9625,44.0115,28.5184,51.5414l.8332,.7343c7.5018,6.6508,16.0227,12.5414,25.431,17.6309-1.3269,1.5828-2.2656,3.3379-2.8394,5.0546-2.571,7.7342,1.4489,14.6492,2.77,16.9215,6.5536,11.2733,23.5854,27.2958,43.3903,40.8192,17.741,12.114,45.8953,27.9504,79.2729,34.6012,1.1796,.2351,2.4708,.4792,3.8471,.7392,6.5726,1.2416,14.7526,2.7868,21.2817,5.4299,5.6814,2.2999,7.2357,4.3322,7.3159,4.7119,.4332,2.0476-1.3347,5.3238-2.8948,8.2144-1.116,2.0682-2.2701,4.2068-3.0672,6.6009-2.791,8.3835,.8909,14.1741,2.6034,16.2746,2.3583,2.8891,6.8085,6.3252,14.6465,6.3252,14.7832,0,43.5986-13.6112,70.0739-33.0999,24.1315-17.7634,56.7281-47.7752,74.9794-89.8744,3.3921-7.8315,6.2855-16.2665,7.9402-23.1463,2.1604-8.9821,3.6638-20.2202-3.9489-27.457-1.585-1.5078-3.4341-2.6628-5.4414-3.4224,.3217-.5954,.6163-1.1551,.8844-1.6754,8.0203-15.5537,14.1968-34.4107,16.9435-51.7317,3.5735-22.5345,.8236-35.8282-8.6538-41.8358-.2256-.1433-.4542-.2811-.6854-.4132,8.3823-12.0067,11.2646-23.1497,8.7703-33.6271-3.8376-16.1362-19.4678-28.4384-46.4554-36.5621-22.0693-6.6432-50.493-10.1547-82.1985-10.1547h0Zm-80.5779,64.4422c16.8133-2.9962,31.4501-3.7437,41.8645-3.7437,18.3817,.0011,36.2222,2.2468,50.2493,6.3234,10.6659,3.0998,16.4321,6.4785,18.99,8.5206-3.2834,3.6058-12.91,11.0169-34.3262,19.5949-5.8441,2.3408-12.0099,4.5443-18.3261,6.5654,7.2026-5.2568,8.5354-11.3344,8.2502-15.7856-.9244-14.5134-18.3226-18.0688-24.0399-19.2372-8.4168-1.7201-19.4031-2.7066-30.1415-2.7066-2.6352,0-5.2504,.059-7.7729,.1753-1.571,.0734-3.1552,.1714-4.7473,.2934h0Z" fill="#478cbf" shape-rendering="geometricPrecision"/>
    </g>
  </g>
</svg>
