<svg height="16" width="16" xml:space="preserve" xmlns="http://www.w3.org/2000/svg"><path style="color:#000;fill:#e0e0e0;fill-opacity:1;stroke-width:.93168;-inkscape-stroke:none" d="M4.418 1.055c-1.82 0-3.365 1.537-3.365 3.363v7.164c0 1.829 1.548 3.363 3.365 3.363h7.164c1.828 0 3.363-1.544 3.363-3.363V4.418c0-1.822-1.537-3.363-3.363-3.363H7.729Zm3.875 1.164h3.291c1.149 0 2.2 1.053 2.2 2.199v7.164c0 1.14-1.052 2.2-2.2 2.2h-2.15a8.884 8.884 0 0 1-.358-1.598c-.135.02-.487.082-.693.117a3.947 3.947 0 0 1-.049.004l-.008-.002a7.345 7.345 0 0 1-1.205-.004 7.114 7.114 0 0 1-.926-.139 6.057 6.057 0 0 1-.867-.271 3.843 3.843 0 0 1-.988-.566 3.214 3.214 0 0 1-.397-.378 2.8 2.8 0 0 1-.318-.441.558.558 0 0 1-.059-.424.564.564 0 0 1 .881-.299.56.56 0 0 1 .145.164c.083.138.188.26.312.362.096.082.2.158.307.224.12.075.243.142.371.201.285.139.583.247.89.319a5.35 5.35 0 0 0 1.282.158c.065 0 .129-.005.184-.006.056 0 .102-.005.148-.008l.096-.006c.114-.009.228-.02.31-.032.083-.013.11-.021.143-.028.099-.022.204-.058.327-.089a28.438 28.438 0 0 1-.06-1.929V8.53H6.887c.048-1.963.746-4.357 1.181-5.677.1-.293.184-.527.225-.633ZM4.973 5.03h.002a.562.562 0 0 1 .558.559v.805a.556.556 0 0 1-.558.558.56.56 0 0 1-.397-.162.565.565 0 0 1-.164-.396V5.59a.561.561 0 0 1 .559-.559Z"/><path style="color:#000;fill:#e0e0e0;fill-opacity:1;stroke-linecap:round;-inkscape-stroke:none" d="M26.117 11.467c.008.11.014.225.022.328.022.283.052.565.088.846l.012.053c1.238-.252 2.448-.829 3.011-1.803a.6.6 0 1 0-1.039-.6c-.28.486-1.161.936-2.094 1.176z" transform="translate(-15.37 .357) scale(.93168)"/><g style="fill:#e0e0e0;fill-opacity:1;stroke:none;stroke-opacity:1"><path style="color:#000;fill:#e0e0e0;fill-opacity:1;stroke:none;stroke-width:1.2;stroke-linecap:round;stroke-opacity:1;-inkscape-stroke:none" d="M27.836 5.585v.862" transform="translate(-15.37 .357) scale(.93168)"/><path style="color:#000;fill:#e0e0e0;fill-opacity:1;stroke:none;stroke-linecap:round;stroke-opacity:1;-inkscape-stroke:none" d="M27.836 4.984a.6.6 0 0 0-.6.6v.863a.6.6 0 0 0 .6.6.6.6 0 0 0 .6-.6v-.863a.6.6 0 0 0-.6-.6Z" transform="translate(-15.37 .357) scale(.93168)"/></g></svg>
