<?xml version="1.0" encoding="UTF-8" standalone="no"?>
<!-- Created with Inkscape (http://www.inkscape.org/) -->

<svg
   xmlns:dc="http://purl.org/dc/elements/1.1/"
   xmlns:cc="http://creativecommons.org/ns#"
   xmlns:rdf="http://www.w3.org/1999/02/22-rdf-syntax-ns#"
   xmlns:svg="http://www.w3.org/2000/svg"
   xmlns="http://www.w3.org/2000/svg"
   xmlns:sodipodi="http://sodipodi.sourceforge.net/DTD/sodipodi-0.dtd"
   xmlns:inkscape="http://www.inkscape.org/namespaces/inkscape"
   width="16"
   height="16"
   viewBox="0 0 16 16"
   id="svg2"
   version="1.1"
   inkscape:version="0.91 r13725"
   inkscape:export-filename="/home/djrm/Projects/godot/tools/editor/icons/icon_animation_tree_player.png"
   inkscape:export-xdpi="90"
   inkscape:export-ydpi="90"
   sodipodi:docname="icon_animation_tree_player (copy).svg">
  <defs
     id="defs4" />
  <sodipodi:namedview
     id="base"
     pagecolor="#ffffff"
     bordercolor="#666666"
     borderopacity="1.0"
     inkscape:pageopacity="0.0"
     inkscape:pageshadow="2"
     inkscape:zoom="45.254831"
     inkscape:cx="9.7184474"
     inkscape:cy="8.2407739"
     inkscape:document-units="px"
     inkscape:current-layer="layer1"
     showgrid="true"
     units="px"
     inkscape:snap-bbox="true"
     inkscape:bbox-paths="true"
     inkscape:bbox-nodes="true"
     inkscape:snap-bbox-edge-midpoints="true"
     inkscape:snap-bbox-midpoints="false"
     inkscape:snap-object-midpoints="true"
     inkscape:snap-center="true"
     inkscape:window-width="1920"
     inkscape:window-height="1016"
     inkscape:window-x="0"
     inkscape:window-y="27"
     inkscape:window-maximized="1">
    <inkscape:grid
       type="xygrid"
       id="grid3336" />
  </sodipodi:namedview>
  <metadata
     id="metadata7">
    <rdf:RDF>
      <cc:Work
         rdf:about="">
        <dc:format>image/svg+xml</dc:format>
        <dc:type
           rdf:resource="http://purl.org/dc/dcmitype/StillImage" />
        <dc:title></dc:title>
      </cc:Work>
    </rdf:RDF>
  </metadata>
  <g
     inkscape:label="Layer 1"
     inkscape:groupmode="layer"
     id="layer1"
     transform="translate(0,-1036.3622)">
    <path
       style="opacity:1;fill:#e1cb50;fill-opacity:0.98431373;stroke:none;stroke-width:2;stroke-linecap:round;stroke-linejoin:miter;stroke-miterlimit:4;stroke-dasharray:none;stroke-dashoffset:0;stroke-opacity:1"
       d="M 1 1 L 1 15 L 2.1660156 15 L 2.1660156 13 L 4 13 L 4 15 L 12 15 L 12 13 L 14 13 L 14 15 L 15 15 L 15 1 L 14 1 L 14 3 L 12 3 L 12 1 L 4 1 L 4 3 L 2.1660156 3 L 2.1660156 1 L 1 1 z M 2.1660156 5 L 4 5 L 4 7 L 2.1660156 7 L 2.1660156 5 z M 8 5 A 1 1 0 0 1 9 6 A 1 1 0 0 1 8.8339844 6.5507812 L 10.060547 9.0039062 A 1 1 0 0 1 11 10 A 1 1 0 0 1 10 11 A 1 1 0 0 1 9 10 A 1 1 0 0 1 9.1660156 9.4492188 L 8 7.1171875 L 6.8339844 9.4492188 A 1 1 0 0 1 7 10 A 1 1 0 0 1 6 11 A 1 1 0 0 1 5 10 A 1 1 0 0 1 5.9414062 9.0019531 L 7.1660156 6.5507812 A 1 1 0 0 1 7 6 A 1 1 0 0 1 8 5 z M 12 5 L 14 5 L 14 7 L 12 7 L 12 5 z M 2.1660156 9 L 4 9 L 4 11 L 2.1660156 11 L 2.1660156 9 z M 12 9 L 14 9 L 14 11 L 12 11 L 12 9 z "
       transform="translate(0,1036.3622)"
       id="rect4136" />
  </g>
</svg>
