<?xml version="1.0" encoding="UTF-8" standalone="no"?>
<!-- Created with Inkscape (http://www.inkscape.org/) -->

<svg
   xmlns:dc="http://purl.org/dc/elements/1.1/"
   xmlns:cc="http://creativecommons.org/ns#"
   xmlns:rdf="http://www.w3.org/1999/02/22-rdf-syntax-ns#"
   xmlns:svg="http://www.w3.org/2000/svg"
   xmlns="http://www.w3.org/2000/svg"
   xmlns:sodipodi="http://sodipodi.sourceforge.net/DTD/sodipodi-0.dtd"
   xmlns:inkscape="http://www.inkscape.org/namespaces/inkscape"
   width="16"
   height="16"
   viewBox="0 0 16 16"
   id="svg2"
   version="1.1"
   inkscape:version="0.91 r13725"
   inkscape:export-filename="/home/djrm/Projects/godot/tools/editor/icons/icon_sprite.png"
   inkscape:export-xdpi="45"
   inkscape:export-ydpi="45"
   sodipodi:docname="icon_static_body.svg">
  <defs
     id="defs4" />
  <sodipodi:namedview
     id="base"
     pagecolor="#ffffff"
     bordercolor="#666666"
     borderopacity="1.0"
     inkscape:pageopacity="0.0"
     inkscape:pageshadow="2"
     inkscape:zoom="22.627417"
     inkscape:cx="7.2543819"
     inkscape:cy="7.4903504"
     inkscape:document-units="px"
     inkscape:current-layer="layer1"
     showgrid="true"
     units="px"
     inkscape:snap-bbox="true"
     inkscape:bbox-paths="true"
     inkscape:bbox-nodes="true"
     inkscape:snap-bbox-edge-midpoints="true"
     inkscape:snap-bbox-midpoints="true"
     inkscape:snap-object-midpoints="true"
     inkscape:snap-center="true"
     inkscape:window-width="1920"
     inkscape:window-height="1016"
     inkscape:window-x="0"
     inkscape:window-y="27"
     inkscape:window-maximized="1"
     inkscape:snap-smooth-nodes="true"
     inkscape:object-nodes="true"
     inkscape:snap-intersection-paths="true">
    <inkscape:grid
       type="xygrid"
       id="grid3336" />
  </sodipodi:namedview>
  <metadata
     id="metadata7">
    <rdf:RDF>
      <cc:Work
         rdf:about="">
        <dc:format>image/svg+xml</dc:format>
        <dc:type
           rdf:resource="http://purl.org/dc/dcmitype/StillImage" />
        <dc:title />
      </cc:Work>
    </rdf:RDF>
  </metadata>
  <g
     inkscape:label="Layer 1"
     inkscape:groupmode="layer"
     id="layer1"
     transform="translate(0,-1036.3622)">
    <path
       style="fill:#a5b7f5;fill-opacity:0.98823529;fill-rule:evenodd;stroke:none;stroke-width:1px;stroke-linecap:butt;stroke-linejoin:miter;stroke-opacity:1"
       d="M 25 3 C 22 3 21 6 21 6 C 20.879708 6.3608765 20.803605 6.6663233 20.707031 7 L 21 7 A 1 1 0 0 0 22 8 A 1 1 0 0 0 23 7 L 24 7 A 1 1 0 0 0 25 8 A 1 1 0 0 0 26 7 L 27 7 A 1 1 0 0 0 28 8 A 1 1 0 0 0 29 7 L 29.292969 7 C 29.196395 6.6663233 29.120292 6.3608765 29 6 C 29 6 28 3 25 3 z M 20.369141 8.1542969 C 19.864457 10.037394 19.478832 11.521168 18 13 L 32 13 C 30.521168 11.521168 30.135543 10.037394 29.630859 8.1542969 A 2 2 0 0 1 29 8.7324219 A 2 2 0 0 1 27 8.7324219 A 2 2 0 0 1 26.5 8.3203125 A 2 2 0 0 1 26 8.7324219 A 2 2 0 0 1 24 8.7324219 A 2 2 0 0 1 23.5 8.3203125 A 2 2 0 0 1 23 8.7324219 A 2 2 0 0 1 21 8.7324219 A 2 2 0 0 1 20.369141 8.1542969 z "
       transform="translate(0,1036.3622)"
       id="path4161" />
    <rect
       style="opacity:1;fill:#fefeff;fill-opacity:1;stroke:none;stroke-width:2;stroke-linecap:butt;stroke-linejoin:bevel;stroke-miterlimit:4;stroke-dasharray:none;stroke-dashoffset:0;stroke-opacity:0.99607843"
       id="rect4175"
       width="1"
       height="1"
       x="20"
       y="1042.3622" />
    <rect
       y="1042.3622"
       x="29"
       height="1"
       width="1"
       id="rect4177"
       style="opacity:1;fill:#fefeff;fill-opacity:1;stroke:none;stroke-width:2;stroke-linecap:butt;stroke-linejoin:bevel;stroke-miterlimit:4;stroke-dasharray:none;stroke-dashoffset:0;stroke-opacity:0.99607843" />
    <path
       style="opacity:1;fill:#fc9c9c;fill-opacity:0.99607843;stroke:none;stroke-width:2;stroke-linecap:butt;stroke-linejoin:bevel;stroke-miterlimit:4;stroke-dasharray:none;stroke-dashoffset:0;stroke-opacity:0.99607843"
       d="M 3 1 A 2 2 0 0 0 1.5859375 1.5859375 A 2 2 0 0 0 1 3 L 1 13 A 2 2 0 0 0 1.5859375 14.414062 A 2 2 0 0 0 3 15 L 13 15 A 2 2 0 0 0 15 13 L 15 3 A 2 2 0 0 0 13 1 L 3 1 z M 3 2 L 13 2 A 1.0000174 1.0000174 0 0 1 14 3 L 14 13 A 1.0000174 1.0000174 0 0 1 13 14 L 3 14 A 1.0000174 1.0000174 0 0 1 2 13 L 2 3 A 1.0000174 1.0000174 0 0 1 3 2 z "
       transform="translate(0,1036.3622)"
       id="rect4179" />
    <rect
       style="opacity:1;fill:#fc9c9c;fill-opacity:0.99607843;stroke:none;stroke-width:2;stroke-linecap:butt;stroke-linejoin:bevel;stroke-miterlimit:4;stroke-dasharray:none;stroke-dashoffset:0;stroke-opacity:0.99607843"
       id="rect4195"
       width="2"
       height="2"
       x="3"
       y="1039.3622" />
    <rect
       y="1047.3622"
       x="3"
       height="2"
       width="2"
       id="rect4197"
       style="opacity:1;fill:#fc9c9c;fill-opacity:0.99607843;stroke:none;stroke-width:2;stroke-linecap:butt;stroke-linejoin:bevel;stroke-miterlimit:4;stroke-dasharray:none;stroke-dashoffset:0;stroke-opacity:0.99607843" />
    <rect
       style="opacity:1;fill:#fc9c9c;fill-opacity:0.99607843;stroke:none;stroke-width:2;stroke-linecap:butt;stroke-linejoin:bevel;stroke-miterlimit:4;stroke-dasharray:none;stroke-dashoffset:0;stroke-opacity:0.99607843"
       id="rect4199"
       width="2"
       height="2"
       x="11"
       y="1047.3622" />
    <rect
       y="1039.3622"
       x="11"
       height="2"
       width="2"
       id="rect4201"
       style="opacity:1;fill:#fc9c9c;fill-opacity:0.99607843;stroke:none;stroke-width:2;stroke-linecap:butt;stroke-linejoin:bevel;stroke-miterlimit:4;stroke-dasharray:none;stroke-dashoffset:0;stroke-opacity:0.99607843" />
    <g
       id="layer1-1"
       inkscape:label="Layer 1"
       transform="translate(-23.644738,-1.9878833)">
      <path
         id="path4139"
         transform="translate(0,1036.3622)"
         d="M 8,1 A 7,7 0 0 0 1,8 7,7 0 0 0 8,15 7,7 0 0 0 15,8 7,7 0 0 0 8,1 Z M 4,6 A 1,1 0 0 1 5,7 1,1 0 0 1 4,8 1,1 0 0 1 3,7 1,1 0 0 1 4,6 Z m 8,0 a 1,1 0 0 1 1,1 1,1 0 0 1 -1,1 1,1 0 0 1 -1,-1 1,1 0 0 1 1,-1 z m -7,3 6,0 a 3,3 0 0 1 -1.5,2.597656 3,3 0 0 1 -3,0 A 3,3 0 0 1 5,9 Z"
         style="opacity:1;fill:#fc9c9c;fill-opacity:0.99607843;stroke:none;stroke-width:3;stroke-linecap:round;stroke-linejoin:round;stroke-miterlimit:4;stroke-dasharray:none;stroke-dashoffset:0;stroke-opacity:1"
         inkscape:connector-curvature="0" />
    </g>
  </g>
</svg>
