<?xml version="1.0" encoding="UTF-8" standalone="no"?>
<!-- Created with Inkscape (http://www.inkscape.org/) -->

<svg
   xmlns:dc="http://purl.org/dc/elements/1.1/"
   xmlns:cc="http://creativecommons.org/ns#"
   xmlns:rdf="http://www.w3.org/1999/02/22-rdf-syntax-ns#"
   xmlns:svg="http://www.w3.org/2000/svg"
   xmlns="http://www.w3.org/2000/svg"
   xmlns:sodipodi="http://sodipodi.sourceforge.net/DTD/sodipodi-0.dtd"
   xmlns:inkscape="http://www.inkscape.org/namespaces/inkscape"
   width="16"
   height="16"
   viewBox="0 0 16 16"
   id="svg2"
   version="1.1"
   inkscape:version="0.91 r13725"
   inkscape:export-filename="/home/djrm/Projects/godot/tools/editor/icons/icon_node_2d.png"
   inkscape:export-xdpi="90"
   inkscape:export-ydpi="90"
   sodipodi:docname="icon_navigation_mesh_instance.svg">
  <defs
     id="defs4" />
  <sodipodi:namedview
     id="base"
     pagecolor="#ffffff"
     bordercolor="#666666"
     borderopacity="1.0"
     inkscape:pageopacity="0.0"
     inkscape:pageshadow="2"
     inkscape:zoom="31.999999"
     inkscape:cx="9.8145891"
     inkscape:cy="8.1609197"
     inkscape:document-units="px"
     inkscape:current-layer="layer1"
     showgrid="true"
     units="px"
     inkscape:snap-bbox="true"
     inkscape:bbox-paths="true"
     inkscape:bbox-nodes="true"
     inkscape:snap-bbox-edge-midpoints="true"
     inkscape:snap-bbox-midpoints="true"
     inkscape:snap-object-midpoints="true"
     inkscape:snap-center="true"
     inkscape:window-width="1920"
     inkscape:window-height="1016"
     inkscape:window-x="0"
     inkscape:window-y="27"
     inkscape:window-maximized="1">
    <inkscape:grid
       type="xygrid"
       id="grid3336"
       empspacing="4" />
  </sodipodi:namedview>
  <metadata
     id="metadata7">
    <rdf:RDF>
      <cc:Work
         rdf:about="">
        <dc:format>image/svg+xml</dc:format>
        <dc:type
           rdf:resource="http://purl.org/dc/dcmitype/StillImage" />
        <dc:title></dc:title>
      </cc:Work>
    </rdf:RDF>
  </metadata>
  <g
     inkscape:label="Layer 1"
     inkscape:groupmode="layer"
     id="layer1"
     transform="translate(0,-1036.3622)">
    <path
       style="opacity:1;fill:#fc9c9c;fill-opacity:0.99607843;stroke:none;stroke-width:2;stroke-linecap:round;stroke-linejoin:round;stroke-miterlimit:4;stroke-dasharray:none;stroke-dashoffset:0;stroke-opacity:1"
       d="M 3 1 A 2 2 0 0 0 1 3 A 2 2 0 0 0 2 4.7304688 L 2 11.271484 A 2 2 0 0 0 1 13 A 2 2 0 0 0 3 15 A 2 2 0 0 0 4.7304688 14 L 7.2382812 14 L 7.9882812 12 L 4.7285156 12 A 2 2 0 0 0 4 11.269531 L 4 5.4140625 L 8.6972656 10.111328 L 9.46875 8.0546875 L 5.4140625 4 L 11.271484 4 A 2 2 0 0 0 12 4.7304688 L 12 5.0019531 A 2.0002 2.0002 0 0 1 12.023438 5.0019531 A 2.0002 2.0002 0 0 1 13.873047 6.2988281 L 14 6.6367188 L 14 4.7285156 A 2 2 0 0 0 15 3 A 2 2 0 0 0 13 1 A 2 2 0 0 0 11.269531 2 L 4.7285156 2 A 2 2 0 0 0 3 1 z "
       transform="translate(0,1036.3622)"
       id="path4162" />
    <path
       style="fill:#fc9c9c;fill-rule:evenodd;stroke:none;stroke-width:1px;stroke-linecap:butt;stroke-linejoin:miter;stroke-opacity:1;fill-opacity:0.99607843"
       d="m 15,1051.3622 -3,-8 -3,8 3,-2 z"
       id="path4156"
       inkscape:connector-curvature="0" />
    <rect
       style="opacity:1;fill:#fc9c9c;fill-opacity:0.99607843;stroke:none;stroke-width:4;stroke-linecap:round;stroke-linejoin:round;stroke-miterlimit:4;stroke-dasharray:none;stroke-dashoffset:0;stroke-opacity:1"
       id="rect4177"
       width="2"
       height="1"
       x="12"
       y="1040.3622" />
    <rect
       y="1040.3622"
       x="12"
       height="1"
       width="2"
       id="rect4179"
       style="opacity:1;fill:#fc9c9c;fill-opacity:0.99607843;stroke:none;stroke-width:4;stroke-linecap:round;stroke-linejoin:round;stroke-miterlimit:4;stroke-dasharray:none;stroke-dashoffset:0;stroke-opacity:1" />
  </g>
</svg>
