<?xml version="1.0" encoding="UTF-8" standalone="no"?>
<!-- Created with Inkscape (http://www.inkscape.org/) -->

<svg
   xmlns:dc="http://purl.org/dc/elements/1.1/"
   xmlns:cc="http://creativecommons.org/ns#"
   xmlns:rdf="http://www.w3.org/1999/02/22-rdf-syntax-ns#"
   xmlns:svg="http://www.w3.org/2000/svg"
   xmlns="http://www.w3.org/2000/svg"
   xmlns:sodipodi="http://sodipodi.sourceforge.net/DTD/sodipodi-0.dtd"
   xmlns:inkscape="http://www.inkscape.org/namespaces/inkscape"
   width="16"
   height="16"
   viewBox="0 0 16 16"
   id="svg2"
   version="1.1"
   inkscape:version="0.91 r13725"
   inkscape:export-filename="/home/djrm/Projects/godot/tools/editor/icons/icon_animation.png"
   inkscape:export-xdpi="90"
   inkscape:export-ydpi="90"
   sodipodi:docname="icon_animation.svg">
  <defs
     id="defs4" />
  <sodipodi:namedview
     id="base"
     pagecolor="#ffffff"
     bordercolor="#666666"
     borderopacity="1.0"
     inkscape:pageopacity="0.0"
     inkscape:pageshadow="2"
     inkscape:zoom="64"
     inkscape:cx="10.327464"
     inkscape:cy="2.5689331"
     inkscape:document-units="px"
     inkscape:current-layer="layer1"
     showgrid="true"
     units="px"
     inkscape:snap-bbox="true"
     inkscape:bbox-paths="true"
     inkscape:bbox-nodes="true"
     inkscape:snap-bbox-edge-midpoints="true"
     inkscape:snap-bbox-midpoints="true"
     inkscape:snap-object-midpoints="true"
     inkscape:snap-center="true"
     inkscape:window-width="1920"
     inkscape:window-height="1016"
     inkscape:window-x="0"
     inkscape:window-y="27"
     inkscape:window-maximized="1">
    <inkscape:grid
       type="xygrid"
       id="grid3336" />
  </sodipodi:namedview>
  <metadata
     id="metadata7">
    <rdf:RDF>
      <cc:Work
         rdf:about="">
        <dc:format>image/svg+xml</dc:format>
        <dc:type
           rdf:resource="http://purl.org/dc/dcmitype/StillImage" />
        <dc:title />
      </cc:Work>
    </rdf:RDF>
  </metadata>
  <g
     inkscape:label="Layer 1"
     inkscape:groupmode="layer"
     id="layer1"
     transform="translate(0,-1036.3622)">
    <path
       style="opacity:1;fill:#e0e0e0;fill-opacity:1;stroke:none;stroke-width:2;stroke-linecap:round;stroke-linejoin:miter;stroke-miterlimit:4;stroke-dasharray:none;stroke-dashoffset:0;stroke-opacity:1"
       d="M 8 2 A 6 6 0 0 0 2 8 A 6 6 0 0 0 8 14 A 6 6 0 0 0 14 8 A 6 6 0 0 0 8 2 z M 8 3 A 1 1 0 0 1 9 4 A 1 1 0 0 1 8 5 A 1 1 0 0 1 7 4 A 1 1 0 0 1 8 3 z M 11.441406 5 A 1 1 0 0 1 12.330078 5.5 A 1 1 0 0 1 11.964844 6.8652344 A 1 1 0 0 1 10.597656 6.5 A 1 1 0 0 1 10.964844 5.1347656 A 1 1 0 0 1 11.441406 5 z M 4.4882812 5.0019531 A 1 1 0 0 1 5.0351562 5.1347656 A 1 1 0 0 1 5.4023438 6.5 A 1 1 0 0 1 4.0351562 6.8652344 A 1 1 0 0 1 3.6699219 5.5 A 1 1 0 0 1 4.4882812 5.0019531 z M 4.5117188 9 A 1 1 0 0 1 5.4023438 9.5 A 1 1 0 0 1 5.0351562 10.865234 A 1 1 0 0 1 3.6699219 10.5 A 1 1 0 0 1 4.0351562 9.1347656 A 1 1 0 0 1 4.5117188 9 z M 11.416016 9.0019531 A 1 1 0 0 1 11.964844 9.1347656 A 1 1 0 0 1 12.330078 10.5 A 1 1 0 0 1 10.964844 10.865234 A 1 1 0 0 1 10.597656 9.5 A 1 1 0 0 1 11.416016 9.0019531 z M 8 11 A 1 1 0 0 1 9 12 A 1 1 0 0 1 8 13 A 1 1 0 0 1 7 12 A 1 1 0 0 1 8 11 z "
       transform="translate(0,1036.3622)"
       id="path4140" />
    <path
       style="opacity:1;fill:#e0e0e0;fill-opacity:1;stroke:none;stroke-width:2;stroke-linecap:round;stroke-linejoin:miter;stroke-miterlimit:4;stroke-dasharray:none;stroke-dashoffset:0;stroke-opacity:1"
       d="M 13 8 L 13 14 A 1 1 0 0 0 14 15 L 15 15 L 15 14 L 14 14 L 14 13 L 14 8 L 13 8 z "
       transform="translate(0,1036.3622)"
       id="rect4202" />
    <path
       style="opacity:1;fill:#e0e0e0;fill-opacity:1;stroke:none;stroke-width:2;stroke-linecap:round;stroke-linejoin:miter;stroke-miterlimit:4;stroke-dasharray:none;stroke-dashoffset:0;stroke-opacity:1"
       d="M 14 13.5 L 14 14 L 14.5 14 A 0.5 0.4999913 0 0 1 14 13.5 z "
       transform="translate(0,1036.3622)"
       id="rect4215" />
    <rect
       style="opacity:1;fill:#e0e0e0;fill-opacity:1;stroke:none;stroke-width:2;stroke-linecap:round;stroke-linejoin:round;stroke-miterlimit:4;stroke-dasharray:none;stroke-dashoffset:0;stroke-opacity:0.99607843"
       id="rect4137"
       width="1"
       height="3.0000174"
       x="12"
       y="1047.3622" />
    <path
       id="path4139"
       transform="translate(0,1036.3622)"
       d="M 13 8 L 13 14 A 1 1 0 0 0 14 15 L 15 15 L 15 14 L 14 14 L 14 13 L 14 8 L 13 8 z "
       style="opacity:1;fill:#e0e0e0;fill-opacity:1;stroke:none;stroke-width:2;stroke-linecap:round;stroke-linejoin:miter;stroke-miterlimit:4;stroke-dasharray:none;stroke-dashoffset:0;stroke-opacity:1" />
    <rect
       y="1050.3622"
       x="14"
       height="2"
       width="1"
       id="rect4141"
       style="opacity:1;fill:#e0e0e0;fill-opacity:1;stroke:none;stroke-width:2;stroke-linecap:round;stroke-linejoin:round;stroke-miterlimit:4;stroke-dasharray:none;stroke-dashoffset:0;stroke-opacity:0.99607843" />
    <path
       style="opacity:1;fill:#e0e0e0;fill-opacity:1;stroke:none;stroke-width:2;stroke-linecap:round;stroke-linejoin:round;stroke-miterlimit:4;stroke-dasharray:none;stroke-dashoffset:0;stroke-opacity:0.99607843"
       id="path4145"
       sodipodi:type="arc"
       sodipodi:cx="14"
       sodipodi:cy="1050.3622"
       sodipodi:rx="2"
       sodipodi:ry="2"
       sodipodi:start="1.5707963"
       sodipodi:end="4.712389"
       d="m 14,1052.3622 a 2,2 0 0 1 -1.732051,-1 2,2 0 0 1 0,-2 2,2 0 0 1 1.732051,-1"
       sodipodi:open="true" />
  </g>
</svg>
