<?xml version="1.0" encoding="UTF-8" standalone="no"?>
<!-- Created with Inkscape (http://www.inkscape.org/) -->

<svg
   xmlns:dc="http://purl.org/dc/elements/1.1/"
   xmlns:cc="http://creativecommons.org/ns#"
   xmlns:rdf="http://www.w3.org/1999/02/22-rdf-syntax-ns#"
   xmlns:svg="http://www.w3.org/2000/svg"
   xmlns="http://www.w3.org/2000/svg"
   xmlns:sodipodi="http://sodipodi.sourceforge.net/DTD/sodipodi-0.dtd"
   xmlns:inkscape="http://www.inkscape.org/namespaces/inkscape"
   width="16"
   height="16"
   viewBox="0 0 16 16"
   id="svg2"
   version="1.1"
   inkscape:version="0.91 r13725"
   inkscape:export-filename="/home/djrm/Projects/godot/tools/editor/icons/icon_animated_sprite.png"
   inkscape:export-xdpi="90"
   inkscape:export-ydpi="90"
   sodipodi:docname="icon_animated_sprite_3d.svg">
  <defs
     id="defs4" />
  <sodipodi:namedview
     id="base"
     pagecolor="#ffffff"
     bordercolor="#666666"
     borderopacity="1.0"
     inkscape:pageopacity="0.0"
     inkscape:pageshadow="2"
     inkscape:zoom="32"
     inkscape:cx="1.5963657"
     inkscape:cy="10.401931"
     inkscape:document-units="px"
     inkscape:current-layer="layer1"
     showgrid="true"
     units="px"
     inkscape:snap-bbox="true"
     inkscape:bbox-paths="true"
     inkscape:bbox-nodes="true"
     inkscape:snap-bbox-edge-midpoints="true"
     inkscape:snap-bbox-midpoints="true"
     inkscape:snap-object-midpoints="true"
     inkscape:snap-center="true"
     inkscape:window-width="1920"
     inkscape:window-height="1016"
     inkscape:window-x="0"
     inkscape:window-y="27"
     inkscape:window-maximized="1">
    <inkscape:grid
       type="xygrid"
       id="grid3336" />
  </sodipodi:namedview>
  <metadata
     id="metadata7">
    <rdf:RDF>
      <cc:Work
         rdf:about="">
        <dc:format>image/svg+xml</dc:format>
        <dc:type
           rdf:resource="http://purl.org/dc/dcmitype/StillImage" />
        <dc:title />
      </cc:Work>
    </rdf:RDF>
  </metadata>
  <g
     inkscape:label="Layer 1"
     inkscape:groupmode="layer"
     id="layer1"
     transform="translate(0,-1036.3622)">
    <path
       style="opacity:1;fill:#fc9c9c;fill-opacity:0.39215687;stroke:none;stroke-width:2;stroke-linecap:round;stroke-linejoin:miter;stroke-miterlimit:4;stroke-dasharray:none;stroke-dashoffset:0;stroke-opacity:1"
       d="M 10.5 0 A 5.5 5.4999914 0 0 0 5.1699219 4.1699219 A 5.5 5.4999914 0 0 1 6.5 4 A 5.5 5.4999914 0 0 1 12 9.5 A 5.5 5.4999914 0 0 1 11.830078 10.830078 A 5.5 5.4999914 0 0 0 16 5.5 A 5.5 5.4999914 0 0 0 10.5 0 z "
       transform="translate(0,1036.3622)"
       id="ellipse4157" />
    <path
       style="opacity:1;fill:#fc9c9c;fill-opacity:0.58823532;stroke:none;stroke-width:2;stroke-linecap:round;stroke-linejoin:miter;stroke-miterlimit:4;stroke-dasharray:none;stroke-dashoffset:0;stroke-opacity:1"
       d="M 8.5 2 A 5.5 5.4999914 0 0 0 3.7441406 4.7480469 A 5.5 5.4999914 0 0 1 6.5 4 A 5.5 5.4999914 0 0 1 12 9.5 A 5.5 5.4999914 0 0 1 11.255859 12.251953 A 5.5 5.4999914 0 0 0 14 7.5 A 5.5 5.4999914 0 0 0 8.5 2 z "
       transform="translate(0,1036.3622)"
       id="ellipse4155" />
    <path
       style="opacity:1;fill:#fc9c9c;fill-opacity:1;stroke:none;stroke-width:2;stroke-linecap:round;stroke-linejoin:miter;stroke-miterlimit:4;stroke-dasharray:none;stroke-dashoffset:0;stroke-opacity:1"
       d="M 6.5 4 A 5.5 5.4999914 0 0 0 1 9.5 A 5.5 5.4999914 0 0 0 6.5 15 A 5.5 5.4999914 0 0 0 12 9.5 A 5.5 5.4999914 0 0 0 6.5 4 z M 4 8 A 1.0000174 1.0000174 0 0 1 5 9 A 1.0000174 1.0000174 0 0 1 4 10 A 1.0000174 1.0000174 0 0 1 3 9 A 1.0000174 1.0000174 0 0 1 4 8 z M 9 8 A 1.0000174 1.0000174 0 0 1 10 9 A 1.0000174 1.0000174 0 0 1 9 10 A 1.0000174 1.0000174 0 0 1 8 9 A 1.0000174 1.0000174 0 0 1 9 8 z M 4 11 L 9 11 A 2.5 1.9999825 0 0 1 7.75 12.732422 A 2.5 1.9999825 0 0 1 5.25 12.732422 A 2.5 1.9999825 0 0 1 4 11 z "
       transform="translate(0,1036.3622)"
       id="path4139" />
  </g>
</svg>
