<?xml version="1.0" encoding="UTF-8" standalone="no"?>
<!-- Created with Inkscape (http://www.inkscape.org/) -->

<svg
   xmlns:dc="http://purl.org/dc/elements/1.1/"
   xmlns:cc="http://creativecommons.org/ns#"
   xmlns:rdf="http://www.w3.org/1999/02/22-rdf-syntax-ns#"
   xmlns:svg="http://www.w3.org/2000/svg"
   xmlns="http://www.w3.org/2000/svg"
   xmlns:sodipodi="http://sodipodi.sourceforge.net/DTD/sodipodi-0.dtd"
   xmlns:inkscape="http://www.inkscape.org/namespaces/inkscape"
   width="16"
   height="16"
   viewBox="0 0 16 16"
   id="svg2"
   version="1.1"
   inkscape:version="0.91 r13725"
   inkscape:export-filename="/home/djrm/Projects/godot/tools/editor/icons/icon_color_picker_button.png"
   inkscape:export-xdpi="90"
   inkscape:export-ydpi="90"
   sodipodi:docname="icon_color_picker_button.svg">
  <defs
     id="defs4" />
  <sodipodi:namedview
     id="base"
     pagecolor="#ffffff"
     bordercolor="#666666"
     borderopacity="1.0"
     inkscape:pageopacity="0.0"
     inkscape:pageshadow="2"
     inkscape:zoom="32"
     inkscape:cx="5.1313634"
     inkscape:cy="7.6484362"
     inkscape:document-units="px"
     inkscape:current-layer="layer1"
     showgrid="true"
     units="px"
     inkscape:snap-bbox="true"
     inkscape:bbox-paths="true"
     inkscape:bbox-nodes="true"
     inkscape:snap-bbox-edge-midpoints="true"
     inkscape:snap-bbox-midpoints="true"
     inkscape:snap-object-midpoints="true"
     inkscape:snap-center="true"
     inkscape:window-width="1920"
     inkscape:window-height="1016"
     inkscape:window-x="0"
     inkscape:window-y="27"
     inkscape:window-maximized="1">
    <inkscape:grid
       type="xygrid"
       id="grid3336" />
  </sodipodi:namedview>
  <metadata
     id="metadata7">
    <rdf:RDF>
      <cc:Work
         rdf:about="">
        <dc:format>image/svg+xml</dc:format>
        <dc:type
           rdf:resource="http://purl.org/dc/dcmitype/StillImage" />
        <dc:title></dc:title>
      </cc:Work>
    </rdf:RDF>
  </metadata>
  <g
     inkscape:label="Layer 1"
     inkscape:groupmode="layer"
     id="layer1"
     transform="translate(0,-1036.3622)">
    <g
       id="layer1-4"
       inkscape:label="Layer 1">
      <path
         id="rect4139"
         transform="translate(0,1036.3622)"
         d="M 13.050781,0.97851562 A 2,2 0 0 0 11.607422,1.5644531 L 10.193359,2.9785156 8.7773438,1.5644531 7.3632812,2.9785156 8.7773438,4.3925781 1.7070312,11.464844 1.3535156,13.232422 1,15 2.7675781,14.646484 4.5351562,14.292969 11.607422,7.2226562 13.021484,8.6367188 14.435547,7.2226562 13.021484,5.8066406 14.435547,4.3925781 a 2,2 0 0 0 0,-2.828125 2,2 0 0 0 -1.384766,-0.58593748 z M 9.484375,5.0996094 10.900391,6.515625 3.828125,13.585938 3.1210938,12.878906 2.4140625,12.171875 9.484375,5.0996094 Z"
         style="opacity:1;fill:#a5efac;fill-opacity:1;stroke:none;stroke-width:2;stroke-linecap:round;stroke-linejoin:round;stroke-miterlimit:4;stroke-dasharray:none;stroke-dashoffset:0;stroke-opacity:0.99607843"
         inkscape:connector-curvature="0" />
    </g>
    <path
       style="opacity:1;fill:#a5efac;fill-opacity:1;stroke:none;stroke-width:2;stroke-linecap:round;stroke-linejoin:miter;stroke-miterlimit:4;stroke-dasharray:none;stroke-dashoffset:0;stroke-opacity:1"
       d="M 1 3 L 1 9.34375 L 5.9492188 4.3925781 L 4.5566406 3 L 1 3 z M 15 9.4863281 L 13.486328 11 L 12.556641 11 L 11.607422 10.050781 L 8.6582031 13 L 15 13 L 15 9.4863281 z "
       transform="translate(0,1036.3622)"
       id="rect4139-4" />
    <path
       style="opacity:1;fill:#000000;fill-opacity:0.07843137;stroke:none;stroke-width:2;stroke-linecap:round;stroke-linejoin:miter;stroke-miterlimit:4;stroke-dasharray:none;stroke-dashoffset:0;stroke-opacity:1"
       d="M 10.658203 11 L 8.6582031 13 L 15 13 L 15 11 L 13.486328 11 L 12.556641 11 L 10.658203 11 z "
       transform="translate(0,1036.3622)"
       id="rect4142" />
  </g>
</svg>
