<?xml version="1.0" encoding="UTF-8" standalone="no"?>
<!-- Created with Inkscape (http://www.inkscape.org/) -->

<svg
   xmlns:dc="http://purl.org/dc/elements/1.1/"
   xmlns:cc="http://creativecommons.org/ns#"
   xmlns:rdf="http://www.w3.org/1999/02/22-rdf-syntax-ns#"
   xmlns:svg="http://www.w3.org/2000/svg"
   xmlns="http://www.w3.org/2000/svg"
   xmlns:sodipodi="http://sodipodi.sourceforge.net/DTD/sodipodi-0.dtd"
   xmlns:inkscape="http://www.inkscape.org/namespaces/inkscape"
   width="16"
   height="16"
   viewBox="0 0 16 16"
   id="svg2"
   version="1.1"
   inkscape:version="0.91 r13725"
   inkscape:export-filename="/home/djrm/Projects/godot/tools/editor/icons/icon_bone.png"
   inkscape:export-xdpi="90"
   inkscape:export-ydpi="90"
   sodipodi:docname="icon_unbone.svg">
  <defs
     id="defs4" />
  <sodipodi:namedview
     id="base"
     pagecolor="#ffffff"
     bordercolor="#666666"
     borderopacity="1.0"
     inkscape:pageopacity="0.0"
     inkscape:pageshadow="2"
     inkscape:zoom="32"
     inkscape:cx="6.4412926"
     inkscape:cy="9.085446"
     inkscape:document-units="px"
     inkscape:current-layer="layer1"
     showgrid="true"
     units="px"
     inkscape:snap-bbox="true"
     inkscape:bbox-paths="true"
     inkscape:bbox-nodes="true"
     inkscape:snap-bbox-edge-midpoints="true"
     inkscape:snap-bbox-midpoints="true"
     inkscape:snap-object-midpoints="true"
     inkscape:snap-center="true"
     inkscape:window-width="1920"
     inkscape:window-height="1016"
     inkscape:window-x="0"
     inkscape:window-y="27"
     inkscape:window-maximized="1"
     showguides="true">
    <inkscape:grid
       type="xygrid"
       id="grid3336" />
  </sodipodi:namedview>
  <metadata
     id="metadata7">
    <rdf:RDF>
      <cc:Work
         rdf:about="">
        <dc:format>image/svg+xml</dc:format>
        <dc:type
           rdf:resource="http://purl.org/dc/dcmitype/StillImage" />
        <dc:title></dc:title>
      </cc:Work>
    </rdf:RDF>
  </metadata>
  <g
     inkscape:label="Layer 1"
     inkscape:groupmode="layer"
     id="layer1"
     transform="translate(0,-1036.3622)">
    <path
       style="opacity:1;fill:#e0e0e0;fill-opacity:0.99607843;stroke:none;stroke-width:2;stroke-linecap:round;stroke-linejoin:miter;stroke-miterlimit:4;stroke-dasharray:none;stroke-dashoffset:0;stroke-opacity:1"
       d="M 10.478516 1 A 2.4664114 2.4663006 0 0 0 8.6972656 1.7207031 A 2.4664114 2.4663006 0 0 0 8.3828125 4.8242188 L 7.3105469 5.8964844 L 10.101562 8.6875 L 11.177734 7.6132812 A 2.4664198 2.4663006 0 0 0 14.277344 7.3027344 A 2.4664198 2.4663006 0 0 0 14.277344 3.8144531 A 2.4664198 2.4663006 0 0 0 12.880859 3.1171875 A 2.4664114 2.4663006 0 0 0 12.185547 1.7207031 A 2.4664114 2.4663006 0 0 0 10.478516 1 z M 5.8964844 7.3105469 L 4.8242188 8.3847656 A 2.4664114 2.4663006 0 0 0 1.7226562 8.6972656 A 2.4664114 2.4663006 0 0 0 1.7226562 12.185547 A 2.4664114 2.4663006 0 0 0 3.1191406 12.880859 A 2.4664198 2.4663006 0 0 0 3.8144531 14.277344 A 2.4664198 2.4663006 0 0 0 7.3027344 14.277344 A 2.4664198 2.4663006 0 0 0 7.6171875 11.173828 L 8.6875 10.101562 L 5.8964844 7.3105469 z "
       transform="translate(0,1036.3622)"
       id="path4139" />
  </g>
</svg>
