<?xml version="1.0" encoding="UTF-8" standalone="no"?>
<!-- Created with Inkscape (http://www.inkscape.org/) -->

<svg
   xmlns:dc="http://purl.org/dc/elements/1.1/"
   xmlns:cc="http://creativecommons.org/ns#"
   xmlns:rdf="http://www.w3.org/1999/02/22-rdf-syntax-ns#"
   xmlns:svg="http://www.w3.org/2000/svg"
   xmlns="http://www.w3.org/2000/svg"
   xmlns:sodipodi="http://sodipodi.sourceforge.net/DTD/sodipodi-0.dtd"
   xmlns:inkscape="http://www.inkscape.org/namespaces/inkscape"
   width="16"
   height="16"
   viewBox="0 0 16 16"
   id="svg2"
   version="1.1"
   inkscape:version="0.91 r13725"
   inkscape:export-filename="/home/djrm/Projects/godot/tools/editor/icons/icon_wait_preview_8.png"
   inkscape:export-xdpi="45"
   inkscape:export-ydpi="45"
   sodipodi:docname="icon_progress_2.svg">
  <defs
     id="defs4" />
  <sodipodi:namedview
     id="base"
     pagecolor="#ffffff"
     bordercolor="#666666"
     borderopacity="1.0"
     inkscape:pageopacity="0.0"
     inkscape:pageshadow="2"
     inkscape:zoom="22.627417"
     inkscape:cx="8.2105087"
     inkscape:cy="9.593577"
     inkscape:document-units="px"
     inkscape:current-layer="layer1"
     showgrid="true"
     units="px"
     inkscape:snap-bbox="true"
     inkscape:bbox-paths="true"
     inkscape:bbox-nodes="true"
     inkscape:snap-bbox-edge-midpoints="true"
     inkscape:snap-bbox-midpoints="false"
     inkscape:snap-object-midpoints="true"
     inkscape:snap-center="true"
     inkscape:window-width="1920"
     inkscape:window-height="1016"
     inkscape:window-x="0"
     inkscape:window-y="27"
     inkscape:window-maximized="1">
    <inkscape:grid
       type="xygrid"
       id="grid3336" />
  </sodipodi:namedview>
  <metadata
     id="metadata7">
    <rdf:RDF>
      <cc:Work
         rdf:about="">
        <dc:format>image/svg+xml</dc:format>
        <dc:type
           rdf:resource="http://purl.org/dc/dcmitype/StillImage" />
        <dc:title></dc:title>
      </cc:Work>
    </rdf:RDF>
  </metadata>
  <g
     inkscape:label="Layer 1"
     inkscape:groupmode="layer"
     id="layer1"
     transform="translate(0,-1036.3622)">
    <path
       style="opacity:1;fill:#e0e0e0;fill-opacity:0.19607843;stroke:none;stroke-width:3;stroke-linecap:round;stroke-linejoin:round;stroke-miterlimit:4;stroke-dasharray:none;stroke-dashoffset:0;stroke-opacity:1"
       d="m 9,1037.4403 0,3.0547 a 4,4 0 0 1 1.027344,0.4258 l 2.158203,-2.1582 A 7,7 0 0 0 9,1037.4403 Z"
       id="path4179" />
    <path
       style="opacity:1;fill:#e0e0e0;fill-opacity:0.19607843;stroke:none;stroke-width:3;stroke-linecap:round;stroke-linejoin:round;stroke-miterlimit:4;stroke-dasharray:none;stroke-dashoffset:0;stroke-opacity:1"
       d="m 7,1037.4423 a 7,7 0 0 0 -3.1855469,1.3203 l 2.1582031,2.1582 A 4,4 0 0 1 7,1040.4931 l 0,-3.0508 z"
       id="path4177" />
    <path
       style="opacity:1;fill:#e0e0e0;fill-opacity:0.19607843;stroke:none;stroke-width:3;stroke-linecap:round;stroke-linejoin:round;stroke-miterlimit:4;stroke-dasharray:none;stroke-dashoffset:0;stroke-opacity:1"
       d="m 2.4003906,1040.1767 a 7,7 0 0 0 -1.3222656,3.1855 l 3.0546875,0 a 4,4 0 0 1 0.4257813,-1.0273 l -2.1582032,-2.1582 z"
       id="path4175" />
    <path
       style="opacity:1;fill:#e0e0e0;fill-opacity:0.99607843;stroke:none;stroke-width:3;stroke-linecap:round;stroke-linejoin:round;stroke-miterlimit:4;stroke-dasharray:none;stroke-dashoffset:0;stroke-opacity:1"
       d="m 13.599609,1040.1767 -2.158203,2.1582 a 4,4 0 0 1 0.427735,1.0273 l 3.050781,0 a 7,7 0 0 0 -1.320313,-3.1855 z"
       id="path4173" />
    <path
       style="opacity:1;fill:#e0e0e0;fill-opacity:0.19607843;stroke:none;stroke-width:3;stroke-linecap:round;stroke-linejoin:round;stroke-miterlimit:4;stroke-dasharray:none;stroke-dashoffset:0;stroke-opacity:1"
       d="m 1.0800781,1045.3622 a 7,7 0 0 0 1.3203125,3.1855 l 2.1582032,-2.1582 a 4,4 0 0 1 -0.4277344,-1.0273 l -3.0507813,0 z"
       id="path4171" />
    <path
       style="opacity:1;fill:#e0e0e0;fill-opacity:0.19607843;stroke:none;stroke-width:3;stroke-linecap:round;stroke-linejoin:round;stroke-miterlimit:4;stroke-dasharray:none;stroke-dashoffset:0;stroke-opacity:1"
       d="m 11.867188,1045.3622 a 4,4 0 0 1 -0.425782,1.0273 l 2.158203,2.1582 a 7,7 0 0 0 1.322266,-3.1855 l -3.054687,0 z"
       id="path4169" />
    <path
       style="opacity:1;fill:#e0e0e0;fill-opacity:0.19607843;stroke:none;stroke-width:3;stroke-linecap:round;stroke-linejoin:round;stroke-miterlimit:4;stroke-dasharray:none;stroke-dashoffset:0;stroke-opacity:1"
       d="m 5.9726562,1047.8036 -2.1582031,2.1582 A 7,7 0 0 0 7,1051.2841 l 0,-3.0547 a 4,4 0 0 1 -1.0273438,-0.4258 z"
       id="path4167" />
    <path
       style="opacity:1;fill:#e0e0e0;fill-opacity:0.19607843;stroke:none;stroke-width:3;stroke-linecap:round;stroke-linejoin:round;stroke-miterlimit:4;stroke-dasharray:none;stroke-dashoffset:0;stroke-opacity:1"
       d="M 10.027344,1047.8036 A 4,4 0 0 1 9,1048.2313 l 0,3.0508 a 7,7 0 0 0 3.185547,-1.3203 l -2.158203,-2.1582 z"
       id="path4142" />
  </g>
</svg>
