<?xml version="1.0" encoding="UTF-8" standalone="no"?>
<!-- Created with Inkscape (http://www.inkscape.org/) -->

<svg
   xmlns:dc="http://purl.org/dc/elements/1.1/"
   xmlns:cc="http://creativecommons.org/ns#"
   xmlns:rdf="http://www.w3.org/1999/02/22-rdf-syntax-ns#"
   xmlns:svg="http://www.w3.org/2000/svg"
   xmlns="http://www.w3.org/2000/svg"
   xmlns:sodipodi="http://sodipodi.sourceforge.net/DTD/sodipodi-0.dtd"
   xmlns:inkscape="http://www.inkscape.org/namespaces/inkscape"
   width="16"
   height="16"
   viewBox="0 0 16 16"
   id="svg2"
   version="1.1"
   inkscape:version="0.91 r13725"
   inkscape:export-filename="/home/djrm/Projects/godot/tools/editor/icons/icon_node_2d.png"
   inkscape:export-xdpi="90"
   inkscape:export-ydpi="90"
   sodipodi:docname="icon_multi_mesh_instance.svg">
  <defs
     id="defs4" />
  <sodipodi:namedview
     id="base"
     pagecolor="#ffffff"
     bordercolor="#666666"
     borderopacity="1.0"
     inkscape:pageopacity="0.0"
     inkscape:pageshadow="2"
     inkscape:zoom="45.254832"
     inkscape:cx="7.9179235"
     inkscape:cy="7.0878016"
     inkscape:document-units="px"
     inkscape:current-layer="layer1"
     showgrid="true"
     units="px"
     inkscape:snap-bbox="true"
     inkscape:bbox-paths="true"
     inkscape:bbox-nodes="true"
     inkscape:snap-bbox-edge-midpoints="true"
     inkscape:snap-bbox-midpoints="true"
     inkscape:snap-object-midpoints="true"
     inkscape:snap-center="true"
     inkscape:window-width="1920"
     inkscape:window-height="1016"
     inkscape:window-x="0"
     inkscape:window-y="27"
     inkscape:window-maximized="1">
    <inkscape:grid
       type="xygrid"
       id="grid3336"
       empspacing="4" />
  </sodipodi:namedview>
  <metadata
     id="metadata7">
    <rdf:RDF>
      <cc:Work
         rdf:about="">
        <dc:format>image/svg+xml</dc:format>
        <dc:type
           rdf:resource="http://purl.org/dc/dcmitype/StillImage" />
        <dc:title></dc:title>
      </cc:Work>
    </rdf:RDF>
  </metadata>
  <g
     inkscape:label="Layer 1"
     inkscape:groupmode="layer"
     id="layer1"
     transform="translate(0,-1036.3622)">
    <path
       style="opacity:1;fill:#fc9c9c;fill-opacity:0.99607843;stroke:none;stroke-width:2;stroke-linecap:round;stroke-linejoin:round;stroke-miterlimit:4;stroke-dasharray:none;stroke-dashoffset:0;stroke-opacity:1"
       d="M 3 1 A 2 2 0 0 0 1 3 A 2 2 0 0 0 2 4.7304688 L 2 11.271484 A 2 2 0 0 0 1 13 A 2 2 0 0 0 3 15 A 2 2 0 0 0 4.7304688 14 L 6 14 L 6 13 L 6 12 L 4.7285156 12 A 2 2 0 0 0 4 11.269531 L 4 5.4140625 L 7.5859375 9 L 9 9 L 9 8 L 9 7.5859375 L 5.4140625 4 L 11.271484 4 A 2 2 0 0 0 12 4.7265625 L 12 6 L 14 6 L 14 4.7304688 A 2 2 0 0 0 15 3 A 2 2 0 0 0 13 1 A 2 2 0 0 0 11.269531 2 L 4.7285156 2 A 2 2 0 0 0 3 1 z M 12 8 L 12 10.585938 L 11 9.5859375 L 11 11 L 9.5859375 11 L 10.585938 12 L 8 12 L 8 13 L 9 13 L 11 13 L 11 14 L 11.271484 14 A 2 2 0 0 0 13 15 L 13 13 L 15 13 A 2 2 0 0 0 13.96875 11.25 L 14 11.25 L 14 11 L 13 11 L 13 8 L 12 8 z "
       transform="translate(0,1036.3622)"
       id="path4162" />
    <path
       style="opacity:1;fill:#fc9c9c;fill-opacity:0.99607843;stroke:none;stroke-width:2;stroke-linecap:round;stroke-linejoin:round;stroke-miterlimit:4;stroke-dasharray:none;stroke-dashoffset:0;stroke-opacity:0.99607843"
       d="m 11,1044.3622 0,3 -3,0 0,2 3,0 0,3 2,0 0,-3 3,0 0,-2 -3,0 0,-3 -2,0 z"
       id="rect4199"
       inkscape:connector-curvature="0" />
  </g>
</svg>
