<svg enable-background="new 0 0 16 16" height="16" viewBox="0 0 16 16" width="16" xmlns="http://www.w3.org/2000/svg"><path d="m8 15v-3c-.552 0-1-.447-1-1v-1-2h-1c-.552 0-1-.448-1-1v-1-1-1h2v1 1h1 3v2h2.5c.565 0 1.081.195 1.5.513v-7.513h-1v2h-2v-2h-8v2h-1.834v-2h-1.166v14h1.166v-2h1.834v2zm4-10h2v2h-2zm-9.834 0h1.834v2h-1.834zm0 6v-2h1.834v2z" fill="#c38ef1"/><path d="m15 12c0 .527-.27.99-.684 1.254l.684.684v1.062h-1.062l-1.501-1.5h-1.937v1.5h-1.5v-6h4.5c.829 0 1.5.671 1.5 1.5zm-4.5 0h3v-1.5h-3z" fill="#e0e0e0"/></svg>
