<svg xmlns="http://www.w3.org/2000/svg" xmlns:xlink="http://www.w3.org/1999/xlink" xml:space="preserve" width="16" height="16"><defs><clipPath id="c" clipPathUnits="userSpaceOnUse"><use xlink:href="#a"/></clipPath><clipPath id="b" clipPathUnits="userSpaceOnUse"><use xlink:href="#a"/></clipPath><path id="a" fill="#fefefe" d="M 0.00682012,-0.00682012 H 16.00682 V 9.9931799 a 2,2 0 0 0 -2,-2 h -2 a 2,2 0 0 0 -2,2 2,2 0 0 0 -1.9999999,2.0000001 v 2 a 2,2 0 0 0 1.9999999,2 H 0.00682012 Z"/></defs><path fill="#5fb2ff" d="m 12,9 a 1,1 0 0 0 -1,1 v 1 h 2 v 2 h 1 a 1,1 0 0 0 1,-1 V 10 A 1,1 0 0 0 14,9 Z m 1,4 h -2 v -2 h -1 a 1,1 0 0 0 -1,1 v 2 a 1,1 0 0 0 1,1 h 2 a 1,1 0 0 0 1,-1 z"/><path fill="none" stroke="#fc7f7f" stroke-linejoin="round" stroke-width="2" d="m 1.5322612,4.682012 6.3449767,9.690537 c -0.1358617,0.06454 -6.3302612,0.01548 -6.3302612,0.01548 z" clip-path="url(#b)" style="font-variation-settings:normal;-inkscape-stroke:none" transform="translate(-.007 .007)"/><path fill="none" stroke="#fc7f7f" stroke-linejoin="round" stroke-width="2" d="m 8.5865303,1.6547315 -7,3 6.2907076,9.7178175 6.5771531,-3.736573 z" clip-path="url(#c)" style="font-variation-settings:normal;-inkscape-stroke:none" transform="translate(-.007 .007)"/></svg>