<svg height="16" viewBox="0 0 14.999999 14.999999" width="16" xmlns="http://www.w3.org/2000/svg"><path d="m8 1c-1.7469 0-3.328.22648-4.5586.63672-.61528.20512-1.1471.45187-1.5898.80078-.44272.34891-.85156.88101-.85156 1.5625v8c0 .68149.40884 1.2155.85156 1.5645.44272.34891.97457.59577 1.5898.80078 1.2306.41024 2.8117.63477 4.5586.63477.095648 0 .18467-.008426.2793-.009766-.1722-.29446-.2793-.62995-.2793-.99023v-1c-1.5668 0-2.9867-.2195-3.9277-.5332-.46329-.15435-.90474-.33752-1.0723-.4668v-5.8125c.1468.058667.2835.12515.44141.17773 1.2306.41024 2.8117.63477 4.5586.63477s3.328-.22453 4.5586-.63477c.15791-.052267.29461-.11864.44141-.17773v1.8125h1c.36396 0 .70348.10774 1 .2832v-4.2832c0-.68149-.40884-1.2136-.85156-1.5625-.44272-.34891-.97457-.59566-1.5898-.80078-1.2306-.41024-2.8117-.63672-4.5586-.63672zm0 2c1.5668 0 2.9867.22145 3.9277.53516.46368.15456.80138.33741.96875.4668-.16752.12928-.50546.3105-.96875.46484-.94102.31371-2.361.5332-3.9277.5332s-2.9867-.2195-3.9277-.5332c-.46329-.15435-.80123-.33556-.96875-.46484.16737-.12939.50507-.31224.96875-.4668.94102-.31371 2.361-.53516 3.9277-.53516z" fill="#fc9c9c" stroke-width="1.0667" transform="scale(.9375)"/><path d="m11.25 8.4375c-.51938 0-.9375.41812-.9375.9375v.9375h1.875v1.875h.9375c.51938 0 .9375-.41812.9375-.9375v-1.875c0-.51938-.41812-.9375-.9375-.9375zm.9375 3.75h-1.875v-1.875h-.9375c-.51938 0-.9375.41812-.9375.9375v1.875c0 .51938.41812.9375.9375.9375h1.875c.51938 0 .9375-.41812.9375-.9375z" fill="#84c2ff"/></svg>
