<?xml version="1.0" encoding="UTF-8" standalone="no"?>
<svg
   height="16"
   viewBox="0 0 16 16"
   width="16"
   version="1.1"
   id="svg3"
   sodipodi:docname="CSGConvexHull3D.svg"
   xml:space="preserve"
   inkscape:version="1.3.2 (091e20e, 2023-11-25, custom)"
   xmlns:inkscape="http://www.inkscape.org/namespaces/inkscape"
   xmlns:sodipodi="http://sodipodi.sourceforge.net/DTD/sodipodi-0.dtd"
   xmlns="http://www.w3.org/2000/svg"
   xmlns:svg="http://www.w3.org/2000/svg"><defs
     id="defs3"><clipPath
       clipPathUnits="userSpaceOnUse"
       id="clipPath8"><path
         d="M 0.00682012,-0.00682012 H 16.00682 V 9.9931799 a 2,2 0 0 0 -2,-2 h -2 a 2,2 0 0 0 -2,2 2,2 0 0 0 -1.9999999,2.0000001 v 2 a 2,2 0 0 0 1.9999999,2 H 0.00682012 Z"
         fill="#fefefe"
         id="path8"
         style="display:inline" /></clipPath><clipPath
       clipPathUnits="userSpaceOnUse"
       id="clipPath9"><path
         d="M 0.00682012,-0.00682012 H 16.00682 V 9.9931799 a 2,2 0 0 0 -2,-2 h -2 a 2,2 0 0 0 -2,2 2,2 0 0 0 -1.9999999,2.0000001 v 2 a 2,2 0 0 0 1.9999999,2 H 0.00682012 Z"
         fill="#fefefe"
         id="path9"
         style="display:inline" /></clipPath></defs><sodipodi:namedview
     id="namedview3"
     pagecolor="#ffffff"
     bordercolor="#000000"
     borderopacity="0.25"
     inkscape:showpageshadow="2"
     inkscape:pageopacity="0.0"
     inkscape:pagecheckerboard="true"
     inkscape:deskcolor="#d1d1d1"
     showborder="true"
     inkscape:zoom="73.3125"
     inkscape:cx="7.9931799"
     inkscape:cy="8.0068201"
     inkscape:window-width="1999"
     inkscape:window-height="1290"
     inkscape:window-x="902"
     inkscape:window-y="29"
     inkscape:window-maximized="0"
     inkscape:current-layer="svg3" /><path
     d="m 12,9 a 1,1 0 0 0 -1,1 v 1 h 2 v 2 h 1 a 1,1 0 0 0 1,-1 V 10 A 1,1 0 0 0 14,9 Z m 1,4 h -2 v -2 h -1 a 1,1 0 0 0 -1,1 v 2 a 1,1 0 0 0 1,1 h 2 a 1,1 0 0 0 1,-1 z"
     fill="#5fb2ff"
     id="path2"
     sodipodi:insensitive="true" /><path
     d="m 1.5322612,4.682012 6.3449767,9.690537 c -0.1358617,0.06454 -6.3302612,0.01548 -6.3302612,0.01548 z"
     fill="#2998ff"
     id="path2-2"
     style="font-variation-settings:normal;display:inline;opacity:1;vector-effect:none;fill:none;fill-opacity:1;stroke:#fc7f7f;stroke-width:2;stroke-linecap:butt;stroke-linejoin:round;stroke-miterlimit:4;stroke-dasharray:none;stroke-dashoffset:0;stroke-opacity:1;-inkscape-stroke:none;stop-color:#000000;stop-opacity:1"
     inkscape:label="path2-2"
     sodipodi:nodetypes="cccc"
     transform="translate(-0.00682012,0.00682012)"
     clip-path="url(#clipPath9)" /><path
     d="m 8.5865303,1.6547315 -7,3 6.2907076,9.7178175 6.5771531,-3.736573 z"
     fill="#2998ff"
     id="path6"
     style="display:inline;font-variation-settings:normal;opacity:1;vector-effect:none;fill:none;fill-opacity:1;stroke:#fc7f7f;stroke-width:2;stroke-linecap:butt;stroke-linejoin:round;stroke-miterlimit:4;stroke-dasharray:none;stroke-dashoffset:0;stroke-opacity:1;-inkscape-stroke:none;stop-color:#000000;stop-opacity:1"
     inkscape:label="path2-2"
     sodipodi:nodetypes="ccccc"
     transform="translate(-0.00682012,0.00682012)"
     clip-path="url(#clipPath8)" /></svg>
