<svg height="16" viewBox="0 0 16 16" width="16" xmlns="http://www.w3.org/2000/svg"><path d="m8 1c-2.7527 0-5 2.2418-5 4.9902v4.0176c0 2.7484 2.2473 4.9922 5 4.9922.092943 0 .18367-.008623.27539-.013672-.17055-.29341-.27539-.62792-.27539-.98633v-2c0-.72887.41095-1.3691 1.0059-1.7188v-.28125c.34771-.034464.68259-.10691 1.0156-.19922.10394-.99856.95603-1.8008 1.9785-1.8008h1v-2.0098c0-2.7484-2.2473-4.9902-5-4.9902zm-1.0059 2.127v4.8574c-.66556-.1047-1.2974-.37231-1.9941-.66211v-1.3223c0-1.3474.79841-2.4642 1.9941-2.873zm2.0117 0c1.1957.4088 1.9941 1.5256 1.9941 2.873v1.3457c-.68406.3054-1.3142.57292-1.9941.66602v-4.8848zm-4.0059 6.334c.67836.2231 1.3126.44599 1.9941.52539v2.8848c-1.1957-.4092-1.9941-1.5237-1.9941-2.8711v-.53906z" fill="#fc7f7f"/><path d="m12 9c-.55401 0-1 .44599-1 1v1h2v2h1c.55401 0 1-.44599 1-1v-2c0-.55401-.44599-1-1-1zm1 4h-2v-2h-1c-.55401 0-1 .44599-1 1v2c0 .55401.44599 1 1 1h2c.55401 0 1-.44599 1-1z" fill="#5fb2ff"/></svg>
