<svg height="16" viewBox="0 0 16 16" width="16" xmlns="http://www.w3.org/2000/svg"><path d="m3 1c-1.1046 0-2 .89543-2 2 .0005649.71397.38169 1.3735 1 1.7305v6.541c-.61771.35663-.99874 1.0152-1 1.7285 0 1.1046.89543 2 2 2 .71397-.000565 1.3735-.38169 1.7305-1h3.2695v-2h-3.2715c-.17478-.30301-.42598-.55488-.72852-.73047v-5.8555l4.916 4.916c.31428-.20669.68609-.33008 1.084-.33008 0-.3979.12338-.76971.33008-1.084l-4.916-4.916h5.8574c.17478.30301.42598.55488.72852.73047v3.2695h2v-3.2715c.61771-.35663.99874-1.0152 1-1.7285 0-1.1046-.89543-2-2-2-.71397.0005648-1.3735.38169-1.7305 1h-6.541c-.35663-.61771-1.0152-.99874-1.7285-1z" fill="#fc7f7f"/><path d="m12 9c-.55401 0-1 .44599-1 1v1h2v2h1c.55401 0 1-.44599 1-1v-2c0-.55401-.44599-1-1-1zm1 4h-2v-2h-1c-.55401 0-1 .44599-1 1v2c0 .55401.44599 1 1 1h2c.55401 0 1-.44599 1-1z" fill="#5fb2ff"/></svg>
