<svg width="16" height="16" version="1.1" viewBox="0 0 16 16" xmlns="http://www.w3.org/2000/svg">
<g transform="translate(0 -1036.4)">
<path transform="translate(0 1036.4)" d="m7.9629 1.002c-0.14254 0.00487-0.28238 0.04016-0.41016 0.10352l-6 3c-0.33878 0.16944-0.55276 0.51574-0.55273 0.89453v5.832c-0.105 0.61631 0.37487 1.1768 1 1.168h5v2c2.16e-5 0.67546 0.64487 1.1297 1.2617 0.95898-0.16118-0.28721-0.26172-0.61135-0.26172-0.95898v-2c0-0.72673 0.40794-1.3664 1-1.7168v-1.666l4-2v1.3828h1c0.36397 0 0.70348 0.10774 1 0.2832v-3.2773c6e-6 -0.00195 6e-6 -0.0039094 0-0.0058594 2.6e-5 -0.37879-0.21395-0.72509-0.55273-0.89453l-6-3c-0.15022-0.074574-0.31679-0.11017-0.48438-0.10352zm0.037109 2.1172l3.7637 1.8809-2.7637 1.3809v-1.3809c-5.52e-5 -0.55226-0.44774-0.99994-1-1h-1.7617l1.7617-0.88086zm-5 2.8809h4v4h-4v-4z" color="#000000" color-rendering="auto" dominant-baseline="auto" fill="#fc9c9c" image-rendering="auto" shape-rendering="auto" solid-color="#000000" style="font-feature-settings:normal;font-variant-alternates:normal;font-variant-caps:normal;font-variant-ligatures:normal;font-variant-numeric:normal;font-variant-position:normal;isolation:auto;mix-blend-mode:normal;shape-padding:0;text-decoration-color:#000000;text-decoration-line:none;text-decoration-style:solid;text-indent:0;text-orientation:mixed;text-transform:none;white-space:normal"/>
<path transform="translate(0 1036.4)" d="m12 9c-0.55401 0-1 0.44599-1 1v1h2v2h1c0.55401 0 1-0.44599 1-1v-2c0-0.55401-0.44599-1-1-1h-2zm1 4h-2v-2h-1c-0.55401 0-1 0.44599-1 1v2c0 0.55401 0.44599 1 1 1h2c0.55401 0 1-0.44599 1-1v-1z" fill="#84c2ff"/>
</g>
</svg>
