<svg height="16" viewBox="0 0 16 16" width="16" xmlns="http://www.w3.org/2000/svg"><path d="m7.9629 1.002c-.14254.00487-.28238.04016-.41016.10352l-6 3c-.33878.16944-.55276.51574-.55273.89453v5.832c-.105.61631.37487 1.1768 1 1.168h5v2c.0000216.67546.64487 1.1297 1.2617.95898-.16118-.28721-.26172-.61135-.26172-.95898v-2c0-.72673.40794-1.3664 1-1.7168v-1.666l4-2v1.3828h1c.36397 0 .70348.10774 1 .2832v-3.2773c.000006-.00195.000006-.0039094 0-.0058594.000026-.37879-.21395-.72509-.55273-.89453l-6-3c-.15022-.074574-.31679-.11017-.48438-.10352zm.037109 2.1172 3.7637 1.8809-2.7637 1.3809v-1.3809c-.0000552-.55226-.44774-.99994-1-1h-1.7617l1.7617-.88086zm-5 2.8809h4v4h-4z" fill="#fc7f7f"/><path d="m12 9c-.55401 0-1 .44599-1 1v1h2v2h1c.55401 0 1-.44599 1-1v-2c0-.55401-.44599-1-1-1zm1 4h-2v-2h-1c-.55401 0-1 .44599-1 1v2c0 .55401.44599 1 1 1h2c.55401 0 1-.44599 1-1z" fill="#5fb2ff"/></svg>
