<svg height="16" viewBox="0 0 16 16" width="16" xmlns="http://www.w3.org/2000/svg"><mask id="a"><path d="M0 0h16v10a2 2 0 0 0-2-2h-2a2 2 0 0 0-2 2 2 2 0 0 0-2 2v2a2 2 0 0 0 2 2H0z" fill="#fefefe"/></mask><path d="M12 9a1 1 0 0 0-1 1v1h2v2h1a1 1 0 0 0 1-1v-2a1 1 0 0 0-1-1zm1 4h-2v-2h-1a1 1 0 0 0-1 1v2a1 1 0 0 0 1 1h2a1 1 0 0 0 1-1z" fill="#5fb2ff"/><path d="m8 2 6 3.5v5L8 14l-6-3.5v-5h6zm6 3.5L8 9 2 5.5M8 9v5" fill="none" stroke-linejoin="round" stroke-width="2" stroke="#fc7f7f" mask="url(#a)"/></svg>
