<svg height="16" viewBox="0 0 16 16" width="16" xmlns="http://www.w3.org/2000/svg"><path d="m8 1c-3.8541 0-7 3.1459-7 7 0 3.8542 3.1459 7 7 7 .093042 0 .18321-.01004.27539-.013672-.17055-.29341-.27539-.62792-.27539-.98633v-2c0-.72673.40794-1.3664 1-1.7168v-.33398c.34074-.019259.67728-.069097 1.0156-.10547.083091-1.0187.94713-1.8438 1.9844-1.8438h2c.35841 0 .69292.10484.98633.27539.003633-.092184.013672-.18235.013672-.27539 0-3.8541-3.1459-7-7-7zm-1 2.0977v4.8711c-1.2931-.071342-2.6061-.29819-3.9434-.69141.30081-2.0978 1.8852-3.7665 3.9434-4.1797zm2 0c2.0549.41253 3.637 2.0767 3.9414 4.1699-1.3046.36677-2.6158.60259-3.9414.6875zm-5.7793 6.2988c1.2733.31892 2.5337.50215 3.7793.5625v2.9414c-1.8291-.36719-3.266-1.7339-3.7793-3.5039z" fill="#fc9c9c"/><path d="m12 9c-.55401 0-1 .44599-1 1v1h2v2h1c.55401 0 1-.44599 1-1v-2c0-.55401-.44599-1-1-1zm1 4h-2v-2h-1c-.55401 0-1 .44599-1 1v2c0 .55401.44599 1 1 1h2c.55401 0 1-.44599 1-1z" fill="#84c2ff"/></svg>
