<svg height="16" viewBox="0 0 16 16" width="16" xmlns="http://www.w3.org/2000/svg"><path d="m8 3c-1.8145 0-3.4691.41721-4.7461 1.1621-1.277.745-2.2539 1.9082-2.2539 3.3379 0 1.4298.9769 2.5949 2.2539 3.3398s2.9316 1.1602 4.7461 1.1602c0-1.0907.90931-2 2-2 0-.080836.013744-.15778.023438-.23633-.61769.14673-1.3008.23633-2.0234.23633-1.4992 0-2.8437-.36687-3.7383-.88867-.89456-.5219-1.2617-1.108-1.2617-1.6113 0-.5032.36716-1.0876 1.2617-1.6094.89456-.5219 2.2391-.89062 3.7383-.89062s2.8437.36872 3.7383.89062c.89456.5218 1.2617 1.1062 1.2617 1.6094 0 .15978-.053679.32822-.13281.5h1.1328c.32481 0 .62893.088408.90234.23047.057552-.23582.097656-.47718.097656-.73047 0-1.4297-.9769-2.5929-2.2539-3.3379-1.277-.7449-2.9316-1.1621-4.7461-1.1621z" fill="#fc7f7f"/><path d="m12 9c-.55401 0-1 .44599-1 1v1h2v2h1c.55401 0 1-.44599 1-1v-2c0-.55401-.44599-1-1-1zm1 4h-2v-2h-1c-.55401 0-1 .44599-1 1v2c0 .55401.44599 1 1 1h2c.55401 0 1-.44599 1-1z" fill="#5fb2ff"/></svg>
