<svg width="16" height="16" version="1.1" viewBox="0 0 16 16" xmlns="http://www.w3.org/2000/svg">
<g transform="translate(0 -1036.4)">
<path transform="translate(0 1036.4)" d="m8 3c-1.8145 0-3.4691 0.41721-4.7461 1.1621-1.277 0.745-2.2539 1.9082-2.2539 3.3379 0 1.4298 0.9769 2.5949 2.2539 3.3398 1.277 0.7449 2.9316 1.1602 4.7461 1.1602 0-1.0907 0.90931-2 2-2 0-0.080836 0.013744-0.15778 0.023438-0.23633-0.61769 0.14673-1.3008 0.23633-2.0234 0.23633-1.4992 0-2.8437-0.36687-3.7383-0.88867-0.89456-0.5219-1.2617-1.108-1.2617-1.6113 0-0.5032 0.36716-1.0876 1.2617-1.6094 0.89456-0.5219 2.2391-0.89062 3.7383-0.89062s2.8437 0.36872 3.7383 0.89062c0.89456 0.5218 1.2617 1.1062 1.2617 1.6094 0 0.15978-0.053679 0.32822-0.13281 0.5h1.1328c0.32481 0 0.62893 0.088408 0.90234 0.23047 0.057552-0.23582 0.097656-0.47718 0.097656-0.73047 0-1.4297-0.9769-2.5929-2.2539-3.3379-1.277-0.7449-2.9316-1.1621-4.7461-1.1621z" color="#000000" color-rendering="auto" dominant-baseline="auto" fill="#fc9c9c" image-rendering="auto" shape-rendering="auto" solid-color="#000000" style="font-feature-settings:normal;font-variant-alternates:normal;font-variant-caps:normal;font-variant-ligatures:normal;font-variant-numeric:normal;font-variant-position:normal;isolation:auto;mix-blend-mode:normal;shape-padding:0;text-decoration-color:#000000;text-decoration-line:none;text-decoration-style:solid;text-indent:0;text-orientation:mixed;text-transform:none;white-space:normal"/>
<path transform="translate(0 1036.4)" d="m12 9c-0.55401 0-1 0.44599-1 1v1h2v2h1c0.55401 0 1-0.44599 1-1v-2c0-0.55401-0.44599-1-1-1h-2zm1 4h-2v-2h-1c-0.55401 0-1 0.44599-1 1v2c0 0.55401 0.44599 1 1 1h2c0.55401 0 1-0.44599 1-1v-1z" fill="#84c2ff"/>
</g>
</svg>
