<svg width="16" height="16" version="1.1" viewBox="0 0 16 16" xmlns="http://www.w3.org/2000/svg">
<g transform="translate(0 -1036.4)">
<path transform="translate(0 1036.4)" d="m12 9c-0.55401 0-1 0.44599-1 1v1h2v2h1c0.55401 0 1-0.44599 1-1v-2c0-0.55401-0.44599-1-1-1h-2zm1 4h-2v-2h-1c-0.55401 0-1 0.44599-1 1v2c0 0.55401 0.44599 1 1 1h2c0.55401 0 1-0.44599 1-1v-1z" fill="#84c2ff"/>
<path transform="translate(0 1036.4)" d="m8 0.94531-7 3.5v7.2227l7 3.5 0.29492-0.14844c-0.18282-0.30101-0.29492-0.64737-0.29492-1.0195v-2c0-0.72651 0.40824-1.3664 1-1.7168v-1.6699l4-2v1.3867h1c0.36419 0 0.70336 0.10754 1 0.2832v-3.8379zm0 2.1152 3.9395 1.9707-3.9395 1.9688-3.9395-1.9688zm-5 3.5527 4 2v3.9414l-4-2.002z" fill="#fc9c9c" stroke-width="1.0667"/>
</g>
</svg>
