<svg width="16" height="16" version="1.1" viewBox="0 0 16 16" xmlns="http://www.w3.org/2000/svg">
<g>
<path d="m8 1c-2.7527 0-5 2.2418-5 4.9902v4.0176c0 2.7484 2.2473 4.9922 5 4.9922 0.092943 0 0.18367-0.008623 0.27539-0.013672-0.17055-0.29341-0.27539-0.62792-0.27539-0.98633v-2c0-0.72887 0.41095-1.3691 1.0059-1.7188v-0.28125c0.34771-0.034464 0.68259-0.10691 1.0156-0.19922 0.10394-0.99856 0.95603-1.8008 1.9785-1.8008h1v-2.0098c0-2.7484-2.2473-4.9902-5-4.9902zm-1.0059 2.127v4.8574c-0.66556-0.1047-1.2974-0.37231-1.9941-0.66211v-1.3223c0-1.3474 0.79841-2.4642 1.9941-2.873zm2.0117 0c1.1957 0.4088 1.9941 1.5256 1.9941 2.873v1.3457c-0.68406 0.3054-1.3142 0.57292-1.9941 0.66602v-4.8848zm-4.0059 6.334c0.67836 0.2231 1.3126 0.44599 1.9941 0.52539v2.8848c-1.1957-0.4092-1.9941-1.5237-1.9941-2.8711v-0.53906z" fill="#fc9c9c"/>
<path d="m12 9c-0.55401 0-1 0.44599-1 1v1h2v2h1c0.55401 0 1-0.44599 1-1v-2c0-0.55401-0.44599-1-1-1zm1 4h-2v-2h-1c-0.55401 0-1 0.44599-1 1v2c0 0.55401 0.44599 1 1 1h2c0.55401 0 1-0.44599 1-1z" fill="#84c2ff"/>
</g>
</svg>
