<svg width="16" height="16" version="1.1" viewBox="0 0 16 16" xmlns="http://www.w3.org/2000/svg">
<g>
<path d="m3 1c-1.1046 0-2 0.89543-2 2 5.649e-4 0.71397 0.38169 1.3735 1 1.7305v6.541c-0.61771 0.35663-0.99874 1.0152-1 1.7285 0 1.1046 0.89543 2 2 2 0.71397-5.65e-4 1.3735-0.38169 1.7305-1h3.2695v-2h-3.2715c-0.17478-0.30301-0.42598-0.55488-0.72852-0.73047v-5.8555l4.916 4.916c0.31428-0.20669 0.68609-0.33008 1.084-0.33008 0-0.3979 0.12338-0.76971 0.33008-1.084l-4.916-4.916h5.8574c0.17478 0.30301 0.42598 0.55488 0.72852 0.73047v3.2695h2v-3.2715c0.61771-0.35663 0.99874-1.0152 1-1.7285 0-1.1046-0.89543-2-2-2-0.71397 5.648e-4 -1.3735 0.38169-1.7305 1h-6.541c-0.35663-0.61771-1.0152-0.99874-1.7285-1z" fill="#fc9c9c"/>
<path d="m12 9c-0.55401 0-1 0.44599-1 1v1h2v2h1c0.55401 0 1-0.44599 1-1v-2c0-0.55401-0.44599-1-1-1zm1 4h-2v-2h-1c-0.55401 0-1 0.44599-1 1v2c0 0.55401 0.44599 1 1 1h2c0.55401 0 1-0.44599 1-1z" fill="#84c2ff"/>
</g>
</svg>
