<svg xmlns="http://www.w3.org/2000/svg" xmlns:xlink="http://www.w3.org/1999/xlink" xml:space="preserve" width="1024" height="414" viewBox="0 0 960 388.125"><defs><linearGradient id="a"><stop offset=".045" stop-color="#7f24ce"/><stop offset="1" stop-color="#f87cfe"/></linearGradient><linearGradient xlink:href="#a" id="d" x1="269.585" x2="488.27" y1="847.204" y2="393.079" gradientTransform="translate(-62.274 3.857)scale(.37518)" gradientUnits="userSpaceOnUse"/><linearGradient xlink:href="#a" id="c" x1="496.519" x2="635.831" y1="813.477" y2="589.778" gradientTransform="translate(-62.274 3.857)scale(.37518)" gradientUnits="userSpaceOnUse"/><linearGradient xlink:href="#a" id="b" x1="635.831" x2="721.822" y1="589.778" y2="368.408" gradientTransform="translate(-62.274 3.857)scale(.37518)" gradientUnits="userSpaceOnUse"/></defs><path fill="url(#b)" d="m 150.15333,41.16979 c -12.58304,8.739155 -24.09441,22.129561 -28.14973,36.410248 -4.05531,14.280686 -4.93328,28.758692 0.55937,48.354622 5.49302,19.59594 31.87666,35.18508 53.6764,42.53903 26.58023,9.16963 49.63085,28.62582 60.93875,54.64741 2.63789,5.14183 11.70832,27.58022 10.71232,9.10374 0.90512,-31.87232 -12.65182,-63.9148 -37.60356,-84.12369 -18.4229,-16.54204 -44.44811,-25.48684 -55.83204,-49.054827 -9.85753,-17.291491 -9.27354,-38.484067 -3.41666,-56.992769 l -0.44134,-0.441701 z" paint-order="stroke fill markers" style="mix-blend-mode:normal"/><path fill="url(#c)" d="m 132.5226,220.12586 c 25.78119,-1.41851 48.81949,22.74432 46.1787,48.43356 -0.88702,23.78485 -22.99015,44.69575 -47.07695,42.35112 -27.97702,1.02641 -49.63049,-28.99149 -42.904694,-55.3411 3.997028,-20.27551 23.284864,-35.43742 43.801854,-35.44358 z" paint-order="stroke fill markers" style="mix-blend-mode:normal"/><path fill="url(#d)" d="m 48.34691,31.638449 c 5.747773,7.770977 11.384582,14.930856 14.38265,24.438736 10.271349,26.926356 2.818557,56.614785 -10.548316,81.028155 -20.473908,40.20272 -40.343917,84.53281 -34.616292,130.70862 5.785554,41.71355 35.435248,79.99089 76.244036,92.37588 40.965192,13.67461 89.226052,0.0536 116.692222,-33.37591 18.84505,-21.96917 29.82058,-52.40669 24.65667,-81.33228 -7.8572,-32.16341 -32.92009,-58.92937 -64.61971,-68.61637 -19.20673,-6.4177 -40.91957,-18.20314 -54.63329,-33.01567 -1.73205,10.4998 -4.08356,23.49195 -7.73664,35.51598 -3.65308,12.02403 -9.894093,29.76048 -12.450888,42.45575 11.122528,-11.66017 24.939788,-15.53844 37.733538,-15.44142 32.11598,0.24475 60.35078,28.70982 59.08288,60.7179 -0.25959,31.2572 -28.75,59.01518 -60.15274,57.76249 -31.28253,0.1412 -58.093759,-27.548 -59.030381,-58.43952 -0.428305,-23.44344 9.099756,-45.64432 15.524689,-67.85172 C 101.31464,161.70155 106.65017,131.50263 106.44271,110.54792 106.23562,89.593207 100.98077,68.681386 86.692902,53.181874 72.933173,38.25529 53.406916,31.540334 48.34691,31.638449" paint-order="stroke fill markers" style="mix-blend-mode:normal"/><path fill="#fefefe" d="M406.113 194.923q0 39.655-50.327 39.655h-53.364V100.617h48.12q24.75 0 38.734 9.11 14.076 9.107 14.076 27.877 0 9.109-4.231 16.929-4.233 7.728-14.63 11.685 11.869 3.035 16.746 11.316 4.875 8.188 4.875 17.39zm-71.397-69.372v30.914h15.641q11.225 0 15.918-3.772 4.785-3.773 4.785-11.225 0-15.917-20.518-15.917zm39.287 68.912q0-7.728-3.864-12.236-3.864-4.6-13.065-4.6h-22.358v32.11h21.07q9.845 0 13.985-4.417 4.232-4.509 4.232-10.857m77.295-101.206v141.32h-31.097V93.258Zm71.04 141.32q-1.75-3.588-2.854-8.924-3.587 4.508-9.291 7.637-5.613 3.128-14.63 3.128-13.8 0-23.829-8.28-9.937-8.374-9.937-21.623 0-15.363 11.316-24.013 11.318-8.74 35.331-8.74h9.57v-5.245q0-6.256-2.761-9.936-2.668-3.773-9.11-3.773-11.04 0-11.04 10.858h-31.005q0-13.893 11.868-23.187 11.869-9.292 31.834-9.292 17.757 0 29.534 8.925 11.87 8.832 11.87 26.59v40.758q0 9.753 1.102 14.813 1.105 4.969 3.13 8.741v1.564zm-19.414-20.24q5.704 0 9.57-2.393 3.863-2.483 5.519-5.52v-16.1h-9.752q-8.742 0-12.146 4.507-3.31 4.417-3.31 10.029 0 4.233 2.85 6.9 2.944 2.577 7.269 2.577m58.71-55.388v-23.921h81.7v16.745l-44.253 58.883h45.174v23.922h-84.461V217.28l44.07-58.332Zm93.58-49.591q0-6.624 4.785-10.857 4.784-4.232 12.42-4.232t12.421 4.232q4.785 4.233 4.785 10.857 0 6.625-4.785 10.857-4.784 4.232-12.42 4.232t-12.422-4.232q-4.784-4.232-4.784-10.857m32.938 25.67v99.55h-31.097v-99.55zm75.18 99.55-.92-10.673q-9.753 12.513-26.498 12.513-14.813 0-24.106-8.649-9.2-8.649-9.2-28.338v-64.403h31.006v64.588q0 12.88 12.512 12.88 10.857 0 15.182-7.82v-69.648h31.097v99.55zm86.955-77.47q-8.74 0-13.524 8.19v69.28h-31.008v-99.55h29.075l1.103 11.685q10.305-13.526 28.338-13.526 8.742 0 15.273 3.589 6.625 3.587 10.213 11.408 4.692-6.992 11.96-10.948 7.36-4.048 17.206-4.048 13.617 0 22.357 8.556 8.741 8.556 8.741 30.178v62.656h-31.098v-62.656q0-9.293-3.22-12.052-3.13-2.761-8.65-2.761-9.292 0-13.8 8.188.091 1.38.091 2.853v66.428H862.34v-62.472q0-9.477-3.22-12.237-3.129-2.76-8.833-2.76z" aria-label="Blazium" font-family="Roboto" font-size="186.667" font-weight="900" letter-spacing="-4" paint-order="stroke fill markers" style="line-height:1.25;-inkscape-font-specification:&quot;Roboto Heavy&quot;"/><path fill="#fefefe" d="M343.458 288.134q-2.186-4.598-6.331-7.085-4.145-2.562-9.648-2.562-5.501 0-9.949 2.562-4.37 2.487-6.934 7.235-2.487 4.674-2.487 10.854t2.488 10.853q2.562 4.674 6.933 7.236 4.447 2.487 9.95 2.487 7.687 0 12.662-4.597 4.974-4.598 5.804-12.436h-20.954v-5.578h28.264v5.276q-.602 6.482-4.07 11.908-3.467 5.352-9.12 8.518-5.653 3.09-12.587 3.09-7.31 0-13.34-3.392-6.03-3.467-9.573-9.572-3.466-6.105-3.466-13.793t3.466-13.793q3.543-6.18 9.573-9.571 6.03-3.468 13.34-3.468 8.367 0 14.773 4.146 6.482 4.145 9.421 11.682zm16.28 16.506q0-6.33 2.563-11.08 2.563-4.823 7.01-7.46 4.522-2.639 10.023-2.639 5.428 0 9.422 2.336 3.994 2.337 5.955 5.88v-7.536h6.933v41.303h-6.934v-7.69q-2.034 3.619-6.104 6.03-3.996 2.337-9.347 2.337-5.501 0-9.949-2.713-4.446-2.714-7.01-7.612-2.562-4.9-2.562-11.156m34.973.076q0-4.673-1.885-8.14t-5.125-5.276q-3.166-1.885-7.01-1.885t-7.009 1.81q-3.165 1.808-5.05 5.276t-1.885 8.14q0 4.748 1.885 8.29 1.885 3.467 5.05 5.352 3.166 1.809 7.01 1.809t7.009-1.809q3.24-1.885 5.125-5.352 1.885-3.542 1.885-8.215m68.21-21.33q4.824 0 8.592 2.035 3.768 1.96 5.955 5.955 2.185 3.994 2.185 9.722v24.345h-6.783v-23.365q0-6.18-3.09-9.421-3.015-3.316-8.216-3.316-5.35 0-8.516 3.466-3.166 3.392-3.166 9.874v22.762h-6.783v-23.365q0-6.18-3.091-9.421-3.014-3.316-8.215-3.316-5.352 0-8.518 3.466-3.165 3.392-3.165 9.874v22.762h-6.858V284.14h6.858v5.954q2.035-3.24 5.427-4.975 3.467-1.733 7.613-1.733 5.2 0 9.196 2.337 3.993 2.336 5.953 6.858 1.733-4.371 5.728-6.784 3.995-2.411 8.894-2.411m65.648 19.822q0 1.96-.226 4.146h-33.012q.376 6.105 4.144 9.572 3.844 3.392 9.271 3.392 4.448 0 7.387-2.035 3.015-2.11 4.22-5.578h7.387q-1.658 5.955-6.633 9.723-4.974 3.693-12.361 3.693-5.879 0-10.552-2.637-4.598-2.639-7.235-7.462-2.638-4.9-2.638-11.306 0-6.407 2.562-11.23 2.564-4.824 7.16-7.387 4.675-2.637 10.703-2.637 5.88 0 10.402 2.562 4.522 2.563 6.934 7.085 2.487 4.446 2.487 10.1zm-7.085-1.431q0-3.92-1.733-6.709-1.733-2.864-4.748-4.296-2.94-1.507-6.558-1.507-5.2 0-8.893 3.316-3.619 3.317-4.146 9.196zm43.113-23.29v17.561h19.144v5.653h-19.144v18.09h21.405v5.652h-28.264v-52.609h28.264v5.653zm51.93 4.899q7.538 0 12.21 4.598 4.674 4.522 4.674 13.114v24.345h-6.783v-23.365q0-6.18-3.091-9.421-3.09-3.316-8.442-3.316-5.427 0-8.667 3.391-3.166 3.392-3.166 9.874v22.837h-6.859V284.14h6.86v5.879q2.034-3.166 5.5-4.9 3.544-1.733 7.764-1.733m45.147.076q5.352 0 9.346 2.336 4.07 2.336 6.03 5.879v-7.536h6.934v42.207q0 5.653-2.412 10.024-2.412 4.448-6.934 6.935-4.446 2.487-10.401 2.487-8.14 0-13.567-3.844t-6.407-10.477h6.784q1.13 3.77 4.673 6.03 3.542 2.336 8.517 2.336 5.653 0 9.196-3.542 3.617-3.543 3.617-9.949v-8.667q-2.035 3.617-6.03 6.03-3.994 2.412-9.346 2.412-5.501 0-10.024-2.714-4.447-2.713-7.01-7.612-2.562-4.9-2.562-11.155 0-6.332 2.563-11.08 2.562-4.824 7.01-7.462 4.522-2.637 10.023-2.637zm15.376 21.254q0-4.673-1.884-8.14-1.885-3.467-5.126-5.276-3.165-1.885-7.01-1.885-3.843 0-7.009 1.81-3.165 1.808-5.049 5.276t-1.885 8.14q0 4.748 1.885 8.29 1.884 3.467 5.05 5.352 3.165 1.809 7.009 1.809t7.01-1.809q3.24-1.885 5.125-5.352 1.884-3.542 1.884-8.215m22.084-27.285q-1.96 0-3.317-1.356t-1.357-3.316 1.357-3.316q1.357-1.357 3.317-1.357 1.884 0 3.166 1.357 1.356 1.356 1.356 3.316t-1.356 3.316q-1.282 1.356-3.166 1.356m3.316 6.71v41.302h-6.86v-41.302zm31.807-.755q7.537 0 12.21 4.598 4.673 4.522 4.673 13.115v24.344h-6.783v-23.364q0-6.18-3.091-9.421-3.09-3.316-8.441-3.316-5.427 0-8.668 3.391-3.166 3.392-3.166 9.874v22.837h-6.859v-41.303h6.86v5.879q2.034-3.166 5.5-4.9 3.544-1.733 7.764-1.733zm65.798 19.822q0 1.96-.226 4.146h-33.013q.378 6.105 4.146 9.572 3.844 3.392 9.27 3.392 4.447 0 7.387-2.035 3.015-2.11 4.221-5.578h7.386q-1.658 5.956-6.632 9.723-4.975 3.694-12.361 3.694-5.88 0-10.552-2.638-4.598-2.639-7.236-7.462-2.638-4.9-2.638-11.306 0-6.407 2.563-11.23t7.16-7.387q4.673-2.637 10.703-2.637 5.879 0 10.4 2.562 4.523 2.563 6.936 7.085 2.486 4.446 2.486 10.1zm-7.084-1.431q0-3.92-1.734-6.709-1.734-2.864-4.749-4.296-2.94-1.507-6.557-1.507-5.2 0-8.893 3.316-3.618 3.317-4.146 9.196z" aria-label="Game Engine" font-family="Poppins" font-size="74.667" paint-order="stroke fill markers" style="line-height:1.25;-inkscape-font-specification:Poppins"/></svg>