<svg xmlns="http://www.w3.org/2000/svg" xmlns:xlink="http://www.w3.org/1999/xlink" xml:space="preserve" width="1024" height="414" viewBox="0 0 960 388.125"><defs><linearGradient xlink:href="#a" id="d" x1="496.519" x2="635.831" y1="813.477" y2="589.778" gradientTransform="translate(6.933 4.936)scale(.37217)" gradientUnits="userSpaceOnUse"/><linearGradient id="a"><stop offset=".045" stop-color="#7f24ce"/><stop offset=".468" stop-color="#b846e4"/><stop offset=".825" stop-color="#d055ee"/><stop offset="1" stop-color="#f87cfe"/></linearGradient><linearGradient xlink:href="#b" id="e" x1="269.585" x2="488.27" y1="847.204" y2="393.079" gradientTransform="translate(6.933 4.936)scale(.37217)" gradientUnits="userSpaceOnUse"/><linearGradient id="b"><stop offset=".045" stop-color="#7f24ce"/><stop offset=".478" stop-color="#b846e4"/><stop offset=".848" stop-color="#d055ee"/><stop offset="1" stop-color="#f87cfe"/></linearGradient><linearGradient xlink:href="#c" id="f" x1="635.831" x2="721.822" y1="589.778" y2="368.408" gradientTransform="translate(6.933 4.936)scale(.37217)" gradientUnits="userSpaceOnUse"/><linearGradient id="c"><stop offset=".045" stop-color="#7f24ce"/><stop offset=".468" stop-color="#b846e4"/><stop offset=".848" stop-color="#d055ee"/><stop offset="1" stop-color="#f87cfe"/></linearGradient></defs><path fill="#e0dfe0" d="m 446.8735,197.99777 q 0,7.25098 -2.9541,12.95777 -2.88696,5.70678 -7.9895,9.46655 -5.9082,4.43115 -13.0249,6.31103 -7.04956,1.87989 -17.92603,1.87989 h -43.64013 v -99.96949 h 38.80615 q 12.08496,0 17.65747,0.80567 5.63965,0.80566 11.14502,3.55835 5.70679,2.88696 8.45947,7.78808 2.81983,4.83399 2.81983,11.07788 0,7.25098 -3.82691,12.82349 -3.8269,5.50537 -10.80933,8.59375 v 0.53711 q 9.80225,1.94702 15.50904,8.05664 5.77392,6.10962 5.77392,16.11328 z m -33.03222,-41.08886 q 0,-2.48414 -1.27564,-4.96827 -1.20849,-2.48413 -4.36401,-3.69262 -2.81983,-1.07422 -7.04956,-1.14136 -4.1626,-0.13428 -11.74927,-0.13428 h -2.41699 v 21.14868 h 4.02832 q 6.10962,0 10.40649,-0.20141 4.29688,-0.20142 6.78101,-1.34278 3.49121,-1.54419 4.56543,-3.96118 1.07422,-2.48413 1.07422,-5.70678 z m 6.31103,40.68603 q 0,-4.76685 -1.87988,-7.31812 -1.81274,-2.6184 -6.2439,-3.89404 -3.02124,-0.8728 -8.32519,-0.93994 -5.30396,-0.0671 -11.07788,-0.0671 h -5.63965 v 24.90845 h 1.87988 q 10.87647,0 15.57617,-0.0671 4.69971,-0.0671 8.66089,-1.7456 4.02832,-1.67847 5.50537,-4.43116 1.54419,-2.81982 1.54419,-6.44531 z m 68.75,31.01807 H 464.73239 V 124.14523 h 24.16992 z m 68.48145,-19.67163 v -15.71045 q -4.90113,0.40283 -10.60791,1.14135 -5.70679,0.67139 -8.66089,1.61133 -3.62549,1.14136 -5.57251,3.35694 -1.87988,2.14843 -1.87988,5.70678 0,2.34986 0.40283,3.82691 0.40283,1.47705 2.01416,2.81982 1.54419,1.34277 3.69263,2.01416 2.14843,0.60425 6.71386,0.60425 3.62549,0 7.31812,-1.47705 3.75976,-1.47705 6.57959,-3.89404 z m 0,11.68212 q -1.94702,1.47706 -4.83399,3.55835 -2.88696,2.0813 -5.43823,3.2898 -3.55835,1.61133 -7.38525,2.34985 -3.82691,0.80567 -8.39234,0.80567 -10.74218,0 -17.99316,-6.64673 -7.25098,-6.64673 -7.25098,-16.98609 0,-8.25805 3.69263,-13.49487 3.69263,-5.23682 10.47363,-8.25806 6.71387,-3.02124 16.65039,-4.29687 9.93653,-1.27564 20.61157,-1.87988 v -0.40284 q 0,-6.24389 -5.10253,-8.59375 -5.10254,-2.41699 -15.03907,-2.41699 -5.97534,0 -12.75634,2.14844 -6.78101,2.0813 -9.73511,3.22266 h -2.21558 v -18.19458 q 3.82691,-1.00708 12.42066,-2.34986 8.66089,-1.40991 17.32177,-1.40991 20.61158,0 29.74244,6.37817 9.19799,6.31104 9.19799,19.87305 v 51.29395 h -23.9685 z m 111.24878,7.98951 h -70.8313 v -15.50904 l 39.74609,-42.23022 h -38.13476 v -17.65747 h 68.48144 v 15.24048 l -39.14184,42.16308 h 39.88037 z m 41.156,0 h -24.16992 v -75.39673 h 24.16992 z m 0.67139,-86.13892 h -25.5127 v -18.32886 h 25.5127 z m 97.28393,86.13892 h -24.16992 v -8.3252 q -6.71386,5.10254 -12.28637,7.78809 -5.57251,2.61841 -13.29346,2.61841 -12.48779,0 -19.2688,-7.18384 -6.71387,-7.18384 -6.71387,-21.21582 v -49.07837 h 24.3042 v 37.39624 q 0,5.70679 0.3357,9.53369 0.40283,3.75977 1.7456,6.2439 1.27564,2.48413 3.82691,3.62548 2.6184,1.14136 7.25097,1.14136 3.08838,0 6.84815,-1.14136 3.75976,-1.14135 7.25097,-3.35693 v -53.44238 h 24.16992 z m 96.54542,-53.44239 v 53.44239 h -24.3042 v -37.6648 q 0,-5.50537 -0.26856,-9.33227 -0.26855,-3.89405 -1.47705,-6.31104 -1.2085,-2.41699 -3.69263,-3.49121 -2.41699,-1.14136 -6.84814,-1.14136 -3.55835,0 -6.91528,1.47705 -3.35694,1.40992 -6.04248,3.02124 v 53.44239 h -24.16993 v -75.39673 h 24.16993 v 8.32519 q 6.24389,-4.90112 11.95068,-7.65381 5.70679,-2.75268 12.62207,-2.75268 7.45239,0 13.15918,3.35693 5.70679,3.2898 8.92944,9.73511 7.25098,-6.10962 14.09912,-9.60083 6.84815,-3.49121 13.42774,-3.49121 12.21924,0 18.53027,7.31811 6.37816,7.31812 6.37816,21.08155 v 49.07837 h -24.30418 v -37.6648 q 0,-5.57251 -0.26856,-9.39941 -0.20141,-3.82691 -1.40991,-6.2439 -1.14136,-2.41699 -3.62549,-3.49121 -2.48413,-1.14136 -6.98242,-1.14136 -3.02124,0 -5.9082,1.07422 -2.88697,1.00708 -7.04956,3.42407 z" aria-label="Blazium" font-family="Inter Alia" font-size="137.5" font-weight="700" style="-inkscape-font-specification:&quot;Inter Alia, Bold&quot;"/><path fill="#e0dfe0" d="m 397.57385,304.13907 q -3.72314,1.70898 -8.14819,2.99072 -4.39453,1.25122 -8.51441,1.25122 -5.31005,0 -9.7351,-1.46484 -4.42505,-1.46485 -7.53785,-4.39453 -3.14331,-2.96021 -4.85229,-7.38526 -1.70898,-4.45556 -1.70898,-10.40649 0,-10.89478 6.34765,-17.1814 6.37818,-6.31714 17.48657,-6.31714 3.87574,0 7.90406,0.94605 4.05883,0.91553 8.72802,3.14331 v 7.17163 h -0.54931 q -0.94605,-0.73242 -2.74658,-1.92261 -1.80054,-1.19018 -3.54004,-1.98364 -2.10572,-0.94604 -4.79126,-1.5564 -2.65503,-0.64087 -6.04248,-0.64087 -7.6294,0 -12.08496,4.91333 -4.42505,4.88282 -4.42505,13.24463 0,8.81958 4.63867,13.73291 4.63867,4.88282 12.63428,4.88282 2.92968,0 5.82885,-0.57984 2.92969,-0.57983 5.12696,-1.49536 v -11.13892 h -12.17652 v -5.31005 h 18.15796 z m 36.59058,3.35693 h -5.70679 v -3.63159 q -0.76294,0.5188 -2.07519,1.46484 -1.28174,0.91553 -2.50245,1.46485 -1.43432,0.7019 -3.29589,1.15967 -1.86158,0.48828 -4.36402,0.48828 -4.60815,0 -7.8125,-3.05176 -3.20434,-3.05176 -3.20434,-7.78198 0,-3.87574 1.64795,-6.25611 1.67846,-2.41089 4.76074,-3.78418 3.11279,-1.37329 7.4768,-1.86157 4.36402,-0.48828 9.3689,-0.73242 v -0.88501 q 0,-1.95313 -0.7019,-3.23486 -0.67139,-1.28174 -1.95313,-2.01416 -1.2207,-0.70191 -2.92969,-0.94605 -1.70898,-0.24414 -3.57055,-0.24414 -2.2583,0 -5.0354,0.61035 -2.7771,0.57984 -5.73731,1.70899 h -0.30517 v -5.82886 q 1.67846,-0.45776 4.85229,-1.00708 3.17383,-0.54932 6.2561,-0.54932 3.60108,0 6.25611,0.61035 2.68555,0.57984 4.63867,2.01416 1.92261,1.40381 2.92969,3.6316 1.00708,2.22778 1.00708,5.52368 z m -5.70679,-8.39233 v -9.49097 q -2.62451,0.15259 -6.19507,0.45777 -3.54004,0.30517 -5.61523,0.885 -2.47193,0.70191 -3.9978,2.19727 -1.52588,1.46484 -1.52588,4.05884 0,2.92969 1.77002,4.42505 1.77002,1.46484 5.40161,1.46484 3.02124,0 5.52368,-1.15967 2.50244,-1.19018 4.63867,-2.83813 z m 66.4978,8.39233 h -5.7373 v -19.40918 q 0,-2.19726 -0.21362,-4.24194 -0.18311,-2.04468 -0.82398,-3.26538 -0.7019,-1.31226 -2.01416,-1.98364 -1.31226,-0.67139 -3.78418,-0.67139 -2.41089,0 -4.82178,1.2207 -2.41088,1.19019 -4.82177,3.05176 0.0915,0.7019 0.15258,1.64795 0.061,0.91553 0.061,1.83105 V 307.496 h -5.73731 v -19.40918 q 0,-2.2583 -0.21362,-4.27246 -0.1831,-2.04468 -0.82397,-3.26538 -0.70191,-1.31226 -2.01416,-1.95312 -1.31226,-0.67139 -3.78418,-0.67139 -2.34986,0 -4.73023,1.15967 -2.34985,1.15966 -4.6997,2.9602 V 307.496 h -5.73731 v -34.08813 h 5.73731 v 3.78418 q 2.68554,-2.22779 5.34057,-3.47901 2.68555,-1.25122 5.70679,-1.25122 3.479,0 5.88989,1.46485 2.44141,1.46484 3.63159,4.05883 3.47901,-2.92968 6.34766,-4.21142 2.86865,-1.31226 6.13403,-1.31226 5.61524,0 8.27027,3.41797 2.68554,3.38745 2.68554,9.49097 z m 39.5813,-16.44897 h -25.11596 q 0,3.14331 0.94604,5.49316 0.94605,2.31934 2.59399,3.8147 1.58692,1.46484 3.75367,2.19726 2.19726,0.73243 4.82177,0.73243 3.47901,0 6.98853,-1.37329 3.54004,-1.40381 5.0354,-2.74659 h 0.30518 v 6.25611 q -2.89917,1.2207 -5.92041,2.04467 -3.02124,0.82398 -6.34766,0.82398 -8.48389,0 -13.24463,-4.57764 -4.76074,-4.60815 -4.76074,-13.06152 0,-8.36182 4.54712,-13.27515 4.57763,-4.91333 12.02392,-4.91333 6.89698,0 10.62012,4.02832 3.75366,4.02832 3.75366,11.44409 z m -5.58471,-4.39453 q -0.0305,-4.51661 -2.28882,-6.98853 -2.22779,-2.47192 -6.80542,-2.47192 -4.60816,0 -7.35474,2.71606 -2.71606,2.71607 -3.08227,6.74439 z m 64.78881,4.39453 h -25.11596 q 0,3.14331 0.94604,5.49316 0.94605,2.31934 2.594,3.8147 1.58691,1.46484 3.75366,2.19726 2.19726,0.73243 4.82178,0.73243 3.479,0 6.98852,-1.37329 3.54004,-1.40381 5.0354,-2.74659 h 0.30518 v 6.25611 q -2.89917,1.2207 -5.92041,2.04467 -3.02124,0.82398 -6.34766,0.82398 -8.48389,0 -13.24463,-4.57764 -4.76074,-4.60815 -4.76074,-13.06152 0,-8.36182 4.54712,-13.27515 4.57764,-4.91333 12.02392,-4.91333 6.89698,0 10.62012,4.02832 3.75366,4.02832 3.75366,11.44409 z m -5.58471,-4.39453 q -0.0305,-4.51661 -2.28882,-6.98853 -2.22778,-2.47192 -6.80542,-2.47192 -4.60816,0 -7.35474,2.71606 -2.71606,2.71607 -3.08227,6.74439 z m 42.78564,20.8435 h -5.7373 v -19.40918 q 0,-2.34985 -0.27466,-4.39453 -0.27466,-2.07519 -1.00708,-3.23486 -0.76294,-1.28174 -2.19727,-1.89209 -1.43432,-0.64087 -3.72314,-0.64087 -2.34986,0 -4.91333,1.15967 -2.56348,1.15966 -4.91333,2.9602 V 307.496 h -5.73731 v -34.08813 h 5.73731 v 3.78418 q 2.68555,-2.22779 5.5542,-3.47901 2.86865,-1.25122 5.88989,-1.25122 5.52368,0 8.42285,3.32642 2.89917,3.32641 2.89917,9.58252 z m 38.69629,-3.87573 q 0,8.66699 -3.93677,12.72583 -3.93676,4.05884 -12.11548,4.05884 -2.71606,0 -5.31005,-0.39673 -2.56348,-0.36621 -5.06592,-1.06812 v -5.85937 h 0.30517 q 1.40381,0.54932 4.45557,1.34277 3.05176,0.82398 6.10352,0.82398 2.92968,0 4.85229,-0.70191 1.92261,-0.7019 2.99072,-1.95312 1.06812,-1.19019 1.52588,-2.86865 0.45777,-1.67847 0.45777,-3.75367 v -3.11279 q -2.594,2.0752 -4.97437,3.11279 -2.34985,1.00708 -6.01196,1.00708 -6.10352,0 -9.70459,-4.39453 -3.57056,-4.42505 -3.57056,-12.45117 0,-4.39453 1.2207,-7.56836 1.25123,-3.20434 3.38746,-5.52368 1.98364,-2.16675 4.82177,-3.35693 2.83814,-1.22071 5.64575,-1.22071 2.96021,0 4.94385,0.61035 2.01416,0.57984 4.24195,1.80054 l 0.36621,-1.46484 h 5.37109 z m -5.7373,-5.49316 V 279.5419 q -2.28882,-1.0376 -4.27247,-1.46484 -1.95312,-0.45777 -3.90625,-0.45777 -4.73022,0 -7.44628,3.17383 -2.71607,3.17383 -2.71607,9.21631 0,5.7373 2.01416,8.69751 2.01416,2.9602 6.68335,2.9602 2.50244,0 5.00488,-0.94604 2.53296,-0.97656 4.63868,-2.59399 z m 23.19336,-30.42603 h -6.46973 v -5.95093 h 6.46973 z M 686.7279,307.496 h -5.7373 v -34.08813 h 5.7373 z m 39.85596,0 h -5.7373 v -19.40918 q 0,-2.34985 -0.27466,-4.39453 -0.27466,-2.07519 -1.00708,-3.23486 -0.76294,-1.28174 -2.19727,-1.89209 -1.43432,-0.64087 -3.72314,-0.64087 -2.34986,0 -4.91333,1.15967 -2.56348,1.15966 -4.91333,2.9602 V 307.496 h -5.73731 v -34.08813 h 5.73731 v 3.78418 q 2.68554,-2.22779 5.5542,-3.47901 2.86865,-1.25122 5.88989,-1.25122 5.52368,0 8.42285,3.32642 2.89917,3.32641 2.89917,9.58252 z m 39.5813,-16.44897 h -25.11597 q 0,3.14331 0.94605,5.49316 0.94604,2.31934 2.59399,3.8147 1.58692,1.46484 3.75366,2.19726 2.19727,0.73243 4.82178,0.73243 3.47901,0 6.98853,-1.37329 3.54004,-1.40381 5.0354,-2.74659 h 0.30517 v 6.25611 q -2.89917,1.2207 -5.92041,2.04467 -3.02124,0.82398 -6.34765,0.82398 -8.48389,0 -13.24463,-4.57764 -4.76074,-4.60815 -4.76074,-13.06152 0,-8.36182 4.54712,-13.27515 4.57763,-4.91333 12.02392,-4.91333 6.89697,0 10.62012,4.02832 3.75366,4.02832 3.75366,11.44409 z m -5.58472,-4.39453 q -0.0305,-4.51661 -2.28882,-6.98853 -2.22778,-2.47192 -6.80541,-2.47192 -4.60816,0 -7.35474,2.71606 -2.71607,2.71607 -3.08228,6.74439 z" aria-label="Game engine" font-family="Inter Alia" font-size="62.5" style="-inkscape-font-specification:&quot;Inter Alia, Normal&quot;"/><path fill="url(#d)" d="m 200.16806,219.47092 c 25.57499,-1.40699 48.42855,22.56235 45.8084,48.04534 -0.87906,23.59468 -22.80499,44.3378 -46.69916,42.01167 -27.75266,1.01869 -49.23244,-28.75882 -42.56102,-54.89768 3.96492,-20.11327 23.09809,-35.15392 43.45178,-35.15933 z" paint-order="markers stroke fill" style="mix-blend-mode:normal"/><path fill="url(#e)" d="m 112.68515,21.980721 c 5.59029,11.488078 14.71599,21.93506 18.24953,34.756496 10.1896,26.710892 2.79488,56.160733 -10.46434,80.379123 -20.30952,39.88005 -40.020335,83.85395 -34.338425,129.66047 5.738637,41.37974 35.151055,79.35025 75.633245,91.63553 40.63684,13.56495 88.511,0.0529 115.75659,-33.10798 18.69432,-21.79399 29.58141,-51.98682 24.45865,-80.68131 -7.79379,-31.90489 -32.65624,-58.45632 -64.10104,-68.06558 -19.05369,-6.36642 -37.83774,-15.88651 -50.39848,-32.01372 -3.1254,10.25898 -6.67541,23.04279 -10.40336,34.49347 -3.51802,12.40034 -8.78218,24.43401 -11.31852,37.02818 10.43326,-4.10298 22.67505,-11.18698 35.33015,-10.23036 31.85307,-0.61744 59.86672,28.48029 58.6092,60.23153 -0.25693,31.00624 -28.5196,58.54194 -59.6707,57.29893 -31.0319,0.14037 -57.62867,-27.32692 -58.5571,-57.97127 -0.42535,-23.2545 9.02652,-45.2776 15.40034,-67.3072 12.33942,-36.57266 24.1703,-75.40319 19.40002,-114.416351 C 173.84224,56.44476 155.05344,30.049264 127.51429,24.113298 122.6749,22.86639 117.70493,21.883336 112.68515,21.980721 Z" paint-order="markers stroke fill" style="mix-blend-mode:normal"/><path fill="url(#f)" d="m 217.65794,41.949333 c -12.48218,8.669061 -24.07741,21.157478 -27.92583,36.117917 2.64776,15.885189 0.79497,32.10931 0.55501,47.96703 6.79449,23.97078 31.62121,34.90262 53.247,42.19774 26.36671,9.09734 49.23329,28.39737 60.44991,54.21026 2.61681,5.09963 11.61385,27.35926 10.62671,9.03065 0.89719,-31.61714 -12.55075,-63.40175 -37.3021,-83.44932 -18.27555,-16.40921 -44.09219,-25.28277 -55.38452,-48.660967 -9.77848,-17.153404 -9.19954,-38.175968 -3.38953,-56.536671 l -0.43831,-0.438319 z" paint-order="markers stroke fill" style="mix-blend-mode:normal"/></svg>