<svg xmlns="http://www.w3.org/2000/svg" xmlns:xlink="http://www.w3.org/1999/xlink" xml:space="preserve" width="1024" height="414" viewBox="0 0 960 388.125"><defs><linearGradient xlink:href="#a" id="d" x1="496.519" x2="635.831" y1="813.477" y2="589.778" gradientTransform="translate(6.933 4.936)scale(.37217)" gradientUnits="userSpaceOnUse"/><linearGradient id="a"><stop offset=".045" stop-color="#7f24ce"/><stop offset=".468" stop-color="#b846e4"/><stop offset=".825" stop-color="#d055ee"/><stop offset="1" stop-color="#f87cfe"/></linearGradient><linearGradient xlink:href="#b" id="e" x1="269.585" x2="488.27" y1="847.204" y2="393.079" gradientTransform="translate(6.933 4.936)scale(.37217)" gradientUnits="userSpaceOnUse"/><linearGradient id="b"><stop offset=".045" stop-color="#7f24ce"/><stop offset=".478" stop-color="#b846e4"/><stop offset=".848" stop-color="#d055ee"/><stop offset="1" stop-color="#f87cfe"/></linearGradient><linearGradient xlink:href="#c" id="f" x1="635.831" x2="721.822" y1="589.778" y2="368.408" gradientTransform="translate(6.933 4.936)scale(.37217)" gradientUnits="userSpaceOnUse"/><linearGradient id="c"><stop offset=".045" stop-color="#7f24ce"/><stop offset=".468" stop-color="#b846e4"/><stop offset=".848" stop-color="#d055ee"/><stop offset="1" stop-color="#f87cfe"/></linearGradient></defs><text xml:space="preserve" x="400.119" y="228.613" fill="#e0dfe0" stroke-width=".938" font-family="'Inter Alia'" font-size="11.25" font-weight="700" style="-inkscape-font-specification:&quot;Inter Alia, Bold&quot;;font-variant-ligatures:normal;font-variant-caps:normal;font-variant-numeric:normal;font-variant-east-asian:normal;text-align:start"><tspan x="400.119" y="228.613" font-size="137.5" style="-inkscape-font-specification:&quot;Inter Alia, Bold&quot;;font-variant-ligatures:normal;font-variant-caps:normal;font-variant-numeric:normal;font-variant-east-asian:normal">Blazium</tspan></text><text xml:space="preserve" x="405.104" y="307.496" fill="#e0dfe0" stroke-width=".938" font-family="'Inter Alia'" font-size="75" font-weight="500" style="-inkscape-font-specification:&quot;Inter Alia, Medium&quot;;font-variant-ligatures:normal;font-variant-caps:normal;font-variant-numeric:normal;font-variant-east-asian:normal;text-align:start"><tspan x="405.104" y="307.496" font-size="62.5" font-weight="400" style="-inkscape-font-specification:&quot;Inter Alia, Normal&quot;;font-variant-ligatures:normal;font-variant-caps:normal;font-variant-numeric:normal;font-variant-east-asian:normal">Game engine</tspan></text><path fill="url(#d)" d="m 200.16806,219.47092 c 25.57499,-1.40699 48.42855,22.56235 45.8084,48.04534 -0.87906,23.59468 -22.80499,44.3378 -46.69916,42.01167 -27.75266,1.01869 -49.23244,-28.75882 -42.56102,-54.89768 3.96492,-20.11327 23.09809,-35.15392 43.45178,-35.15933 z" paint-order="markers stroke fill" style="mix-blend-mode:normal"/><path fill="url(#e)" d="m 112.68515,21.980721 c 5.59029,11.488078 14.71599,21.93506 18.24953,34.756496 10.1896,26.710892 2.79488,56.160733 -10.46434,80.379123 -20.30952,39.88005 -40.020335,83.85395 -34.338425,129.66047 5.738637,41.37974 35.151055,79.35025 75.633245,91.63553 40.63684,13.56495 88.511,0.0529 115.75659,-33.10798 18.69432,-21.79399 29.58141,-51.98682 24.45865,-80.68131 -7.79379,-31.90489 -32.65624,-58.45632 -64.10104,-68.06558 -19.05369,-6.36642 -37.83774,-15.88651 -50.39848,-32.01372 -3.1254,10.25898 -6.67541,23.04279 -10.40336,34.49347 -3.51802,12.40034 -8.78218,24.43401 -11.31852,37.02818 10.43326,-4.10298 22.67505,-11.18698 35.33015,-10.23036 31.85307,-0.61744 59.86672,28.48029 58.6092,60.23153 -0.25693,31.00624 -28.5196,58.54194 -59.6707,57.29893 -31.0319,0.14037 -57.62867,-27.32692 -58.5571,-57.97127 -0.42535,-23.2545 9.02652,-45.2776 15.40034,-67.3072 12.33942,-36.57266 24.1703,-75.40319 19.40002,-114.416351 C 173.84224,56.44476 155.05344,30.049264 127.51429,24.113298 122.6749,22.86639 117.70493,21.883336 112.68515,21.980721 Z" paint-order="markers stroke fill" style="mix-blend-mode:normal"/><path fill="url(#f)" d="m 217.65794,41.949333 c -12.48218,8.669061 -24.07741,21.157478 -27.92583,36.117917 2.64776,15.885189 0.79497,32.10931 0.55501,47.96703 6.79449,23.97078 31.62121,34.90262 53.247,42.19774 26.36671,9.09734 49.23329,28.39737 60.44991,54.21026 2.61681,5.09963 11.61385,27.35926 10.62671,9.03065 0.89719,-31.61714 -12.55075,-63.40175 -37.3021,-83.44932 -18.27555,-16.40921 -44.09219,-25.28277 -55.38452,-48.660967 -9.77848,-17.153404 -9.19954,-38.175968 -3.38953,-56.536671 l -0.43831,-0.438319 z" paint-order="markers stroke fill" style="mix-blend-mode:normal"/></svg>