<svg xmlns="http://www.w3.org/2000/svg" xmlns:xlink="http://www.w3.org/1999/xlink" width="944.362" height="383.294" viewBox="0 0 885.34 359.338"><defs><linearGradient id="b" x1="48.366" x2="315.84" y1="29.187" y2="301.625" gradientUnits="userSpaceOnUse"><stop offset="0" stop-color="#ff1300"/><stop offset="1" stop-color="#ff6e01"/></linearGradient><clipPath id="a"><path d="M0 595.276h841.89V0H0z"/></clipPath></defs><g fill="#e0e0e0" clip-path="url(#a)" transform="matrix(1.25 0 0 -1.25 -123.91 587.505)"><path d="M531.45 355.316c-4.084 0-7.506-1.876-10.281-5.618-2.761-3.745-4.149-9.001-4.149-15.765 0-6.778 1.319-11.968 3.962-15.584 2.639-3.627 6.105-5.434 10.406-5.434s7.79 1.829 10.471 5.499c2.682 3.657 4.025 8.891 4.025 15.706 0 6.809-1.388 12.05-4.154 15.71s-6.19 5.484-10.28 5.484m-.062-67.29c-11.959 0-21.711 3.913-29.248 11.739-7.527 7.833-11.292 19.262-11.292 34.287 0 15.034 3.808 26.417 11.425 34.168 7.619 7.741 17.453 11.615 29.5 11.615s21.774-3.804 29.174-11.434c7.414-7.615 11.115-19.16 11.115-34.6 0-15.451-3.787-26.944-11.367-34.486-7.58-7.526-17.342-11.289-29.307-11.289m76.463 66.407v-38.193c0-1.784.131-2.908.387-3.38s1.021-.705 2.295-.705c4.687 0 8.237 1.751 10.665 5.241s3.636 9.293 3.636 17.424-1.259 13.435-3.761 15.897c-2.514 2.469-6.497 3.715-11.945 3.715zm-24.516-59.258v76.612c0 2.13.529 3.811 1.598 5.057 1.062 1.227 2.444 1.85 4.152 1.85h21.325c13.533 0 23.812-3.414 30.829-10.225 7.029-6.809 10.544-17.53 10.544-32.175 0-31.33-13.37-46.992-40.103-46.992h-21.832c-4.339 0-6.514 1.953-6.514 5.872m117.476 60.144c-4.085 0-7.516-1.876-10.287-5.618-2.76-3.745-4.142-9.001-4.142-15.765 0-6.778 1.322-11.968 3.958-15.584 2.635-3.627 6.105-5.434 10.406-5.434s7.793 1.829 10.471 5.499c2.683 3.657 4.027 8.891 4.027 15.706 0 6.809-1.386 12.05-4.152 15.71s-6.19 5.484-10.28 5.484m-.066-67.29c-11.963 0-21.708 3.913-29.239 11.739-7.536 7.833-11.303 19.262-11.303 34.287 0 15.034 3.808 26.417 11.424 34.168 7.624 7.741 17.453 11.615 29.505 11.615s21.768-3.804 29.178-11.434c7.408-7.615 11.109-19.16 11.109-34.6 0-15.451-3.788-26.944-11.367-34.486-7.577-7.526-17.348-11.289-29.307-11.289m88.266 3.311c0-1.692-4.209-2.551-12.641-2.551-8.424 0-12.645.858-12.645 2.551v64.109h-15.32c-1.449 0-2.471 1.953-3.065 5.879-.256 1.868-.378 3.781-.378 5.742 0 1.95.122 3.87.378 5.742.594 3.916 1.616 5.884 3.065 5.884h55.548c1.447 0 2.465-1.968 3.067-5.884a43.41 43.41 0 0 0 .379-5.742 43.23 43.23 0 0 0-.379-5.742c-.603-3.926-1.621-5.879-3.067-5.879h-14.942zm-320.746 45.378c-6.875.106-14.742-1.327-14.742-1.327v-13.418h7.912l-.088-5.981c0-2.216-2.196-3.329-6.577-3.329-4.386 0-8.26 1.857-11.62 5.561-3.368 3.709-5.043 9.13-5.043 16.274 0 7.158 1.637 12.436 4.914 15.841 3.271 3.402 7.559 5.109 12.833 5.109 2.216 0 4.509-.357 6.895-1.087 2.387-.723 3.98-1.4 4.793-2.035.806-.653 1.573-.961 2.298-.961s1.89.844 3.506 2.551 3.069 4.282 4.348 7.722c1.274 3.458 1.911 6.108 1.911 7.987 0 1.865-.041 3.151-.123 3.83-1.788 1.957-5.089 3.509-9.902 4.662-4.805 1.15-10.192 1.721-16.151 1.721-13.113 0-23.367-4.128-30.772-12.385-7.411-8.26-11.109-18.982-11.109-32.181 0-15.497 3.786-27.244 11.357-35.246 7.585-8.001 17.543-11.997 29.888-11.997 6.639 0 12.532.571 17.681 1.721s8.58 2.322 10.285 3.512l.511 39.96c0 2.322-6.128 3.376-13.003 3.494m-26.92-100.96c-.706-1.448-2.003-2.776-3.901-3.977-1.896-1.209-4.304-1.81-7.229-1.81-3.859 0-6.963 1.216-9.32 3.675-2.348 2.44-3.524 5.956-3.524 10.545v11.442c0 4.489 1.108 7.932 3.332 10.336 2.219 2.384 5.192 3.593 8.904 3.593 3.628 0 6.441-.955 8.432-2.842 1.985-1.895 3.028-4.541 3.118-7.921l-.05-.15h-2.962c-.106 2.59-.858 4.589-2.273 6-1.407 1.4-3.501 2.108-6.265 2.108-2.797 0-5.013-.947-6.635-2.846s-2.424-4.641-2.424-8.249v-11.507c0-3.742.872-6.594 2.614-8.559 1.742-1.95 4.09-2.927 7.053-2.927 2.164 0 3.903.383 5.205 1.168 1.306.774 2.212 1.718 2.725 2.839v10.022h-7.985v2.786h11.185zM456.015 232.825c1.757 0 3.321.498 4.687 1.511a8.22 8.22 0 0 1 2.897 3.87v6.185h-5.081c-2.16 0-3.891-.612-5.186-1.836-1.298-1.216-1.941-2.735-1.941-4.541 0-1.526.402-2.779 1.215-3.745s1.948-1.444 3.409-1.444m8.058-2.307-.36 2.425a16.3 16.3 0 0 0-.114 1.927 11.18 11.18 0 0 0-3.371-3.516 8.07 8.07 0 0 0-4.609-1.389c-2.366 0-4.186.733-5.474 2.201-1.28 1.474-1.927 3.46-1.927 5.967 0 2.65.931 4.776 2.797 6.354s4.4 2.366 7.588 2.366h4.996v3.513c0 2.02-.516 3.611-1.528 4.762-1.034 1.136-2.454 1.71-4.288 1.71-1.706 0-3.113-.542-4.217-1.64-1.101-1.091-1.647-2.425-1.647-4.014l-2.967.026-.052.155c-.084 2.156.732 4.062 2.452 5.75 1.714 1.684 3.912 2.521 6.588 2.521 2.644 0 4.773-.804 6.398-2.407 1.616-1.619 2.427-3.926 2.427-6.927v-14.02l.137-2.96a18.69 18.69 0 0 1 .472-2.805zm12.657 28.587.271-4.437c.751 1.588 1.758 2.812 3.005 3.682 1.252.858 2.726 1.287 4.418 1.287 1.727 0 3.183-.502 4.357-1.519s2.042-2.547 2.592-4.608c.705 1.902 1.702 3.406 2.997 4.494s2.866 1.633 4.686 1.633c2.508 0 4.453-1.015 5.832-3.045s2.074-5.156 2.074-9.374v-16.7h-3.193v16.755c0 3.506-.485 5.975-1.429 7.395-.949 1.422-2.31 2.138-4.07 2.138-1.852 0-3.297-.782-4.336-2.371s-1.672-3.575-1.904-5.974v-.741-17.202h-3.177v16.737c0 3.424-.48 5.875-1.461 7.338s-2.337 2.19-4.082 2.19c-1.668 0-3.018-.509-4.029-1.518-1.018-1.015-1.742-2.403-2.181-4.166v-20.582h-3.174v28.587zm46.093-2.266c-1.988 0-3.622-.907-4.902-2.717-1.281-1.816-1.943-4.055-1.996-6.723h13.188v1.224c0 2.359-.553 4.324-1.662 5.883-1.115 1.56-2.655 2.333-4.628 2.333m.449-26.874c-3.082 0-5.603 1.16-7.561 3.476-1.952 2.311-2.931 5.267-2.931 8.869v4.747c0 3.608.981 6.617 2.943 9.009 1.967 2.381 4.33 3.572 7.1 3.572 2.995 0 5.315-1.062 6.972-3.193s2.489-5.002 2.489-8.599v-3.136h-16.36v-2.377c0-2.768.663-5.072 1.982-6.911s3.116-2.757 5.366-2.757c1.563 0 2.924.276 4.058.819a8.36 8.36 0 0 1 2.916 2.355l1.3-2.249c-.863-1.095-1.982-1.979-3.347-2.635s-3.007-.987-4.927-.987m34.808 26.871c-1.994 0-3.631-.907-4.91-2.717-1.274-1.816-1.936-4.055-1.994-6.723h13.191v1.224c0 2.359-.552 4.324-1.667 5.883s-2.648 2.333-4.62 2.333m.446-26.874c-3.083 0-5.6 1.16-7.554 3.476-1.96 2.311-2.941 5.267-2.941 8.869v4.747c0 3.608.985 6.617 2.943 9.009 1.973 2.381 4.336 3.572 7.106 3.572 2.989 0 5.319-1.062 6.972-3.193s2.485-5.002 2.485-8.599v-3.136h-16.361v-2.377c0-2.768.664-5.072 1.991-6.911 1.314-1.844 3.101-2.757 5.359-2.757 1.569 0 2.924.276 4.055.819 1.139.555 2.111 1.334 2.928 2.355l1.291-2.249c-.864-1.095-1.979-1.979-3.347-2.635-1.362-.653-3.006-.987-4.927-.987m17.391 29.137.26-4.726c.762 1.677 1.769 2.979 3.033 3.885 1.253.91 2.729 1.372 4.427 1.372 2.554 0 4.511-.944 5.869-2.842 1.373-1.895 2.053-4.84 2.053-8.836v-17.441h-3.195v17.411c0 3.266-.478 5.548-1.43 6.871-.946 1.323-2.336 1.983-4.145 1.983-1.623 0-2.984-.527-4.075-1.599-1.096-1.062-1.913-2.477-2.457-4.261v-20.405h-3.173v28.587zm24.952-16.796c0-2.901.55-5.208 1.665-6.925 1.102-1.733 2.779-2.588 5.017-2.588 1.534 0 2.825.408 3.885 1.245s1.891 2.002 2.509 3.48v14.161c-.594 1.522-1.409 2.753-2.44 3.701-1.029.932-2.332 1.4-3.9 1.4-2.234 0-3.922-.973-5.044-2.926-1.13-1.957-1.692-4.508-1.692-7.641zm-3.204 3.907c0 4.051.818 7.305 2.462 9.758 1.631 2.44 3.9 3.663 6.791 3.663 1.605 0 3.013-.391 4.217-1.176 1.206-.77 2.202-1.898 3.002-3.332l.31 3.977h2.693v-28.613c0-3.663-.849-6.502-2.556-8.511-1.709-2.001-4.136-3.014-7.27-3.014-1.127 0-2.338.176-3.633.519s-2.445.793-3.452 1.357l.878 2.786a10.61 10.61 0 0 1 2.882-1.291c1.054-.313 2.143-.464 3.273-.464 2.272 0 3.956.73 5.044 2.185 1.093 1.475 1.64 3.608 1.64 6.432v3.458c-.811-1.287-1.806-2.275-2.986-2.957s-2.548-1.028-4.097-1.028c-2.872 0-5.124 1.124-6.75 3.373s-2.448 5.238-2.448 8.971zm30.158-15.698h-3.201v28.587h3.201zm0 36.726h-3.201v4.504h3.201zm10.331-8.139.26-4.726c.765 1.677 1.767 2.979 3.029 3.885s2.739 1.372 4.429 1.372c2.554 0 4.519-.944 5.88-2.842 1.37-1.895 2.044-4.84 2.044-8.836v-17.441h-3.195v17.411c0 3.266-.477 5.548-1.426 6.871s-2.333 1.983-4.149 1.983c-1.622 0-2.98-.527-4.071-1.599-1.094-1.062-1.914-2.477-2.456-4.261v-20.405h-3.177v28.587zm31.555-2.266c-1.994 0-3.628-.907-4.902-2.717-1.277-1.816-1.943-4.055-2-6.723h13.19v1.224c0 2.359-.55 4.324-1.663 5.883s-2.65 2.333-4.626 2.333m.454-26.874c-3.091 0-5.608 1.16-7.557 3.476-1.957 2.311-2.935 5.267-2.935 8.869v4.747c0 3.608.978 6.617 2.941 9.009 1.967 2.381 4.333 3.572 7.097 3.572 2.993 0 5.323-1.062 6.981-3.193s2.483-5.002 2.483-8.599v-3.136h-16.365v-2.377c0-2.768.667-5.072 1.987-6.911s3.108-2.757 5.368-2.757c1.563 0 2.917.276 4.047.819a8.39 8.39 0 0 1 2.931 2.355l1.297-2.249c-.87-1.095-1.985-1.979-3.35-2.635s-3.006-.987-4.925-.987"/></g><path fill="url(#b)" d="M127.532 0l-8.879 28.049L89.64 40.599c-10.26-2.161-20.549-4.663-30.947-5.917-1.645 1.847-43.174 65.716-43.162 66.376 1.914 4.685 5.199 8.715 7.685 13.099l151.064 53.058 151.062-53.058c2.486-4.384 5.773-8.414 7.685-13.099 0-.66-41.52-64.529-43.164-66.376-10.399 1.255-20.685 3.756-30.945 5.917l-29.013-12.549L221.022 0zm-92.81 133.453c-.187-.068-.561.22-.561.315l-5.375 44.514 9.204 39.788 69.635 31.634 66.669-24.929 66.671 24.929 69.635-31.634 9.204-39.788-5.375-44.514c0-.122-.673-.584-.673-.122l-139.452 47.877-139.456-47.877c0-.109 0-.174-.187-.194zm32.725 33.791l65.187 24.064a35.503 35.494 0 0 1-1.701 6.915 35.503 35.494 0 0 1-45.605 21.002 35.503 35.494 0 0 1-21.008-45.592 35.503 35.494 0 0 1 3.125-6.389zm213.663 0a35.503 35.494 0 0 1 3.125 6.389 35.503 35.494 0 0 1-21.008 45.592 35.503 35.494 0 0 1-45.605-21.002 35.503 35.494 0 0 1-1.701-6.915zM16.721 194.096L0 210.662l25.053 87.821 79.176 32.469-4.259-68.317-75.089-34.933zm315.114 0l-8.16 33.606-75.087 34.933-4.261 68.317 79.178-32.469 25.053-87.821zm-157.556 45.235l-59.375 23.492 3.603 73.8 55.77 22.715 55.77-22.715 3.605-73.8z"/></svg>